/* XPM */
static char * lanceflamme_bas5_xpm[] = {
"64 64 134 2",
"  	c None",
". 	c #8B6057",
"+ 	c #966A5E",
"@ 	c #906F5B",
"# 	c #8D4B30",
"$ 	c #AD7C69",
"% 	c #D1B3AE",
"& 	c #A46C46",
"* 	c #B47F51",
"= 	c #927E68",
"- 	c #B66F3D",
"; 	c #DE8852",
"> 	c #AC5A36",
", 	c #8B6D63",
"' 	c #805F55",
") 	c #CF8345",
"! 	c #B6682C",
"~ 	c #CC7E46",
"{ 	c #D7946E",
"] 	c #BE6B2C",
"^ 	c #C66529",
"/ 	c #B35227",
"( 	c #8A634F",
"_ 	c #6B6B70",
": 	c #8D492C",
"< 	c #D17A30",
"[ 	c #E78639",
"} 	c #E57531",
"| 	c #DF7F42",
"1 	c #E48636",
"2 	c #E37934",
"3 	c #BC5729",
"4 	c #8F6455",
"5 	c #93776D",
"6 	c #C36C3B",
"7 	c #D28C39",
"8 	c #EEA54E",
"9 	c #F29946",
"0 	c #E1943A",
"a 	c #F7B056",
"b 	c #EB9A45",
"c 	c #C07239",
"d 	c #8A685A",
"e 	c #D0BA94",
"f 	c #E79B53",
"g 	c #F0B75B",
"h 	c #DAAD56",
"i 	c #F8C964",
"j 	c #EDC85F",
"k 	c #E2BC59",
"l 	c #EFB152",
"m 	c #FDBB6C",
"n 	c #8B6B49",
"o 	c #C7B37D",
"p 	c #FEC86B",
"q 	c #E9C366",
"r 	c #EED9A1",
"s 	c #FEFABB",
"t 	c #FEFEB7",
"u 	c #F4EA8E",
"v 	c #DEB252",
"w 	c #FECA65",
"x 	c #CCAA6A",
"y 	c #E3BA7B",
"z 	c #FED572",
"A 	c #EFE183",
"B 	c #FFFCE1",
"C 	c #F8F0E9",
"D 	c #FFFBFA",
"E 	c #FFFAD6",
"F 	c #FEEA98",
"G 	c #F4D35D",
"H 	c #EABB5C",
"I 	c #74493F",
"J 	c #B26930",
"K 	c #DAB258",
"L 	c #F8F79D",
"M 	c #F4F8BE",
"N 	c #FDF7C6",
"O 	c #F4F2CB",
"P 	c #F0F5BE",
"Q 	c #F3EFA4",
"R 	c #F1D969",
"S 	c #E39D43",
"T 	c #834337",
"U 	c #AB7C54",
"V 	c #CE612F",
"W 	c #AB411E",
"X 	c #DC8138",
"Y 	c #FDBF72",
"Z 	c #FEDEA3",
"` 	c #FEE6B7",
" .	c #FEFAC2",
"..	c #FEFCC7",
"+.	c #FEECC4",
"@.	c #FED9AD",
"#.	c #FED98B",
"$.	c #F99F56",
"%.	c #AC471E",
"&.	c #B15A23",
"*.	c #D2874B",
"=.	c #FAB255",
"-.	c #E5963A",
";.	c #C27227",
">.	c #B36723",
",.	c #B06229",
"'.	c #A85D2E",
").	c #AB6935",
"!.	c #A76A32",
"~.	c #A96932",
"{.	c #B3652A",
"].	c #B36428",
"^.	c #BF6B28",
"/.	c #E59334",
"(.	c #F4AC49",
"_.	c #D5A766",
":.	c #BBAA6B",
"<.	c #F7DA80",
"[.	c #E8BE62",
"}.	c #F0BF60",
"|.	c #F4BF5E",
"1.	c #F4B553",
"2.	c #E5A341",
"3.	c #E6A142",
"4.	c #EEA84C",
"5.	c #EDBB55",
"6.	c #ECBC5F",
"7.	c #E5BE61",
"8.	c #FEE583",
"9.	c #D8BC76",
"0.	c #98AA8D",
"a.	c #F5FFDB",
"b.	c #FAFBE4",
"c.	c #D9DBCE",
"                                                                                                                                ",
"                                                                                                                                ",
"                                                                                                                                ",
"                                                                                                                                ",
"                                                                                                                                ",
"                                                                                                                                ",
"                                                                                                                                ",
"                                                                                                                                ",
"                                                                                                                                ",
"                                                                                                                                ",
"                                                                                                                                ",
"                                                                                                                                ",
"                                                                                                                                ",
"                                                                                                                                ",
"                                                                                                                                ",
"                                                                                                                                ",
"                                                                                                                                ",
"                                                                                                                                ",
"                                                                                                                                ",
"                                                                                                                                ",
"                                                                                                                                ",
"                                                                                                                                ",
"                                                                                                                                ",
"                                                                                                                                ",
"                                                                                                                                ",
"                                                                                                                                ",
"                                                                                                                                ",
"                                                                                                                                ",
"                                                                                                                                ",
"                                                                                                                                ",
"                                                                                                                                ",
"                                                                                                                                ",
"                                                                                                                                ",
"                                                                                                                                ",
"                                                                                                                                ",
"                                                                                                                                ",
"                                                                                                                                ",
"                                                                                                                                ",
"                                                                                                                                ",
"                                                                                                                                ",
"                                                                                                                                ",
"                                                                                                                                ",
"                                                                                                                                ",
"                                                                                                                                ",
"                                                                                                                                ",
"                                                                                                                                ",
"                                                                                                                                ",
"                                                                                                                                ",
"                                                                                                                                ",
"                                                                  .                                                             ",
"                                                          + @     # $ %                                                         ",
"                                                          & * =   - ; > ,                                                       ",
"                                                        ' ) ! ~ { ] ^ / (                                                       ",
"                                                      _ : < [ } | 1 2 3 4                                                       ",
"                                                      5 6 7 8 9 0 a b c d                                                       ",
"                                                      e f g h i j k l m n                                                       ",
"                                                      o p q r s t u v w x                                                       ",
"                                                      y z A B C D E F G H                                                       ",
"                                                    I J K L M N O P Q R S T                                                     ",
"                                                U V W X Y Z `  ...+.@.#.$.%.&.*.                                                ",
"                                                  =.-.;.>.,.'.).!.~.{.].^./.(._.                                                ",
"                                                  :.<.[.}.|.1.2.3.4.5.6.7.8.9.                                                  ",
"                                                            0.a.b.c.                                                            ",
"                                                                                                                                "};
