/* XPM */
static char * lanceflamme_bas19_xpm[] = {
"63 64 707 2",
"  	c None",
". 	c #1C1817",
"+ 	c #221515",
"@ 	c #251717",
"# 	c #150B07",
"$ 	c #434B50",
"% 	c #434052",
"& 	c #352835",
"* 	c #332A2E",
"= 	c #1D0205",
"- 	c #150306",
"; 	c #303034",
"> 	c #262830",
", 	c #2F1107",
"' 	c #3B0804",
") 	c #360403",
"! 	c #260A01",
"~ 	c #251303",
"{ 	c #2A150F",
"] 	c #2F0A0A",
"^ 	c #49080F",
"/ 	c #4B0307",
"( 	c #4D0E0A",
"_ 	c #340E09",
": 	c #2B0F10",
"< 	c #2E0D0D",
"[ 	c #27060F",
"} 	c #1E091D",
"| 	c #424B60",
"1 	c #2A1616",
"2 	c #3D0D04",
"3 	c #411605",
"4 	c #432717",
"5 	c #412B17",
"6 	c #30190E",
"7 	c #310404",
"8 	c #4D060A",
"9 	c #7C2422",
"0 	c #5D1815",
"a 	c #41120B",
"b 	c #583C2B",
"c 	c #554534",
"d 	c #432D19",
"e 	c #351403",
"f 	c #4A201B",
"g 	c #1E0101",
"h 	c #120F1C",
"i 	c #371707",
"j 	c #401E07",
"k 	c #4F371D",
"l 	c #48371D",
"m 	c #44311B",
"n 	c #44321D",
"o 	c #230D01",
"p 	c #2E0F03",
"q 	c #2D0602",
"r 	c #381E11",
"s 	c #45361E",
"t 	c #3F3216",
"u 	c #41331B",
"v 	c #514322",
"w 	c #453518",
"x 	c #3B1504",
"y 	c #603B35",
"z 	c #3B3A2F",
"A 	c #79654C",
"B 	c #75624B",
"C 	c #463119",
"D 	c #4B2B1B",
"E 	c #3E1D15",
"F 	c #341C0F",
"G 	c #2E1D0D",
"H 	c #261602",
"I 	c #432820",
"J 	c #4C2D24",
"K 	c #422017",
"L 	c #514327",
"M 	c #584631",
"N 	c #543F24",
"O 	c #62593F",
"P 	c #321E0D",
"Q 	c #3B221C",
"R 	c #07191E",
"S 	c #514A33",
"T 	c #847255",
"U 	c #80775D",
"V 	c #302109",
"W 	c #311103",
"X 	c #310603",
"Y 	c #3A1A15",
"Z 	c #351508",
"` 	c #3A0603",
" .	c #460305",
"..	c #460A05",
"+.	c #3A0803",
"@.	c #331803",
"#.	c #3D2A1D",
"$.	c #4B3724",
"%.	c #463626",
"&.	c #2C1603",
"*.	c #2D0902",
"=.	c #1C0508",
"-.	c #1F292D",
";.	c #4E453B",
">.	c #57412C",
",.	c #523E21",
"'.	c #4C3C26",
").	c #3F1F15",
"!.	c #421305",
"~.	c #510507",
"{.	c #761C18",
"].	c #872418",
"^.	c #BA5331",
"/.	c #B14C29",
"(.	c #851E15",
"_.	c #891B24",
":.	c #5D150E",
"<.	c #450705",
"[.	c #410804",
"}.	c #360103",
"|.	c #551418",
"1.	c #721F1C",
"2.	c #561108",
"3.	c #3C161A",
"4.	c #484337",
"5.	c #796758",
"6.	c #7A6752",
"7.	c #554927",
"8.	c #3C2A0F",
"9.	c #4B0E06",
"0.	c #69150C",
"a.	c #912E1A",
"b.	c #A74021",
"c.	c #A53A1E",
"d.	c #A7381F",
"e.	c #8C1D16",
"f.	c #AF4026",
"g.	c #972D18",
"h.	c #9A3219",
"i.	c #8C2A1E",
"j.	c #4D0D06",
"k.	c #590608",
"l.	c #8C251E",
"m.	c #8D2B1F",
"n.	c #570D0B",
"o.	c #0D1320",
"p.	c #776C5B",
"q.	c #715D4B",
"r.	c #615138",
"s.	c #40341B",
"t.	c #37170D",
"u.	c #681A0D",
"v.	c #A23E23",
"w.	c #B44225",
"x.	c #9F3A1D",
"y.	c #9E321E",
"z.	c #891F18",
"A.	c #7D1612",
"B.	c #95311B",
"C.	c #C05227",
"D.	c #BD4824",
"E.	c #AE3F22",
"F.	c #942C19",
"G.	c #751B16",
"H.	c #570408",
"I.	c #62090A",
"J.	c #7C2223",
"K.	c #480308",
"L.	c #171621",
"M.	c #493426",
"N.	c #5E4630",
"O.	c #5F492D",
"P.	c #3E220D",
"Q.	c #B24925",
"R.	c #C45226",
"S.	c #A0321B",
"T.	c #872516",
"U.	c #801A13",
"V.	c #95281F",
"W.	c #A63D2D",
"X.	c #A43F27",
"Y.	c #A6391F",
"Z.	c #8D2C1C",
"`.	c #A54333",
" +	c #5A0408",
".+	c #76211E",
"++	c #711F1F",
"@+	c #390203",
"#+	c #420704",
"$+	c #391912",
"%+	c #4B3B2A",
"&+	c #382606",
"*+	c #3A2C12",
"=+	c #361506",
"-+	c #540F08",
";+	c #B54421",
">+	c #C24F28",
",+	c #912819",
"'+	c #71150F",
")+	c #6E1711",
"!+	c #7E1D1B",
"~+	c #640D0B",
"{+	c #680D0C",
"]+	c #933126",
"^+	c #570F08",
"/+	c #651A18",
"(+	c #4C0606",
"_+	c #470305",
":+	c #78282B",
"<+	c #2F0903",
"[+	c #2C0D02",
"}+	c #2E210A",
"|+	c #454F4C",
"1+	c #413725",
"2+	c #4A3E24",
"3+	c #30270F",
"4+	c #2A0408",
"5+	c #5C1617",
"6+	c #AC3D20",
"7+	c #B44528",
"8+	c #8E231A",
"9+	c #60050A",
"0+	c #4E0611",
"a+	c #4E030B",
"b+	c #400204",
"c+	c #540C08",
"d+	c #66181E",
"e+	c #42130C",
"f+	c #3E0D08",
"g+	c #3D0607",
"h+	c #5B1318",
"i+	c #402015",
"j+	c #41331C",
"k+	c #50472F",
"l+	c #37392E",
"m+	c #44332A",
"n+	c #362217",
"o+	c #3A271D",
"p+	c #300907",
"q+	c #510A07",
"r+	c #CD5E35",
"s+	c #C45532",
"t+	c #A53A26",
"u+	c #4E0D06",
"v+	c #2D0C02",
"w+	c #4D3E2B",
"x+	c #371A07",
"y+	c #360803",
"z+	c #4A3527",
"A+	c #2F1F0C",
"B+	c #341504",
"C+	c #300C03",
"D+	c #440C0A",
"E+	c #371503",
"F+	c #6A5945",
"G+	c #6D5941",
"H+	c #5B4A40",
"I+	c #4F3B32",
"J+	c #270802",
"K+	c #280A02",
"L+	c #2F0A03",
"M+	c #430404",
"N+	c #98351F",
"O+	c #B0442B",
"P+	c #7A1B11",
"Q+	c #3F0C04",
"R+	c #2A1202",
"S+	c #594C36",
"T+	c #6B5F42",
"U+	c #514128",
"V+	c #3D2211",
"W+	c #392816",
"X+	c #2C1C03",
"Y+	c #341C08",
"Z+	c #320F03",
"`+	c #421B13",
" @	c #351D0D",
".@	c #57402E",
"+@	c #6C5A41",
"@@	c #43322D",
"#@	c #2C210D",
"$@	c #280F02",
"%@	c #281002",
"&@	c #200601",
"*@	c #3C1419",
"=@	c #5E060A",
"-@	c #6B0C0C",
";@	c #650A17",
">@	c #391304",
",@	c #6C4F3E",
"'@	c #57482D",
")@	c #554026",
"!@	c #605339",
"~@	c #46311E",
"{@	c #2F200A",
"]@	c #2F1803",
"^@	c #34220F",
"/@	c #3F1A0D",
"(@	c #2B1403",
"_@	c #2C230C",
":@	c #462D1B",
"<@	c #453C1F",
"[@	c #110203",
"}@	c #291E0B",
"|@	c #44311E",
"1@	c #362306",
"2@	c #342106",
"3@	c #2B1603",
"4@	c #2F0D03",
"5@	c #350903",
"6@	c #4E3629",
"7@	c #86765F",
"8@	c #7C6D52",
"9@	c #3F2E17",
"0@	c #432B1A",
"a@	c #3B2011",
"b@	c #270F02",
"c@	c #392316",
"d@	c #56402D",
"e@	c #4B3C22",
"f@	c #4C3A21",
"g@	c #391D0C",
"h@	c #360D0C",
"i@	c #170B01",
"j@	c #605143",
"k@	c #685743",
"l@	c #6C5944",
"m@	c #372814",
"n@	c #41311E",
"o@	c #4D3424",
"p@	c #654836",
"q@	c #69523F",
"r@	c #40311C",
"s@	c #65553F",
"t@	c #5D4E38",
"u@	c #362410",
"v@	c #291603",
"w@	c #270A02",
"x@	c #33210D",
"y@	c #685442",
"z@	c #8B7862",
"A@	c #7C6F51",
"B@	c #5A4C31",
"C@	c #412918",
"D@	c #321509",
"E@	c #2A1D19",
"F@	c #2D3639",
"G@	c #726252",
"H@	c #7F6D58",
"I@	c #7F6B56",
"J@	c #756650",
"K@	c #7A6B57",
"L@	c #786851",
"M@	c #826E53",
"N@	c #78694D",
"O@	c #44361F",
"P@	c #372715",
"Q@	c #250F02",
"R@	c #291703",
"S@	c #311F10",
"T@	c #50402B",
"U@	c #7D6955",
"V@	c #817059",
"W@	c #6A5E43",
"X@	c #6C6043",
"Y@	c #5E4C33",
"Z@	c #422919",
"`@	c #372319",
" #	c #1E1416",
".#	c #64533E",
"+#	c #5D4931",
"@#	c #533D27",
"##	c #847563",
"$#	c #81725E",
"%#	c #7E6E58",
"&#	c #857B5E",
"*#	c #2F1F05",
"=#	c #2D1203",
"-#	c #3C2318",
";#	c #3D2716",
">#	c #332106",
",#	c #443119",
"'#	c #5B4832",
")#	c #594632",
"!#	c #52432A",
"~#	c #46381E",
"{#	c #44321A",
"]#	c #3E3016",
"^#	c #544624",
"/#	c #4C382F",
"(#	c #3C3123",
"_#	c #4A3921",
":#	c #675238",
"<#	c #6E5A43",
"[#	c #83725F",
"}#	c #685847",
"|#	c #72614E",
"1#	c #4A3B27",
"2#	c #3A2717",
"3#	c #321A0B",
"4#	c #301506",
"5#	c #634938",
"6#	c #705741",
"7#	c #59462B",
"8#	c #422D15",
"9#	c #46331D",
"0#	c #4C3A24",
"a#	c #3D2811",
"b#	c #3F2915",
"c#	c #3C3219",
"d#	c #524F2D",
"e#	c #2C2622",
"f#	c #353534",
"g#	c #302718",
"h#	c #453723",
"i#	c #45341D",
"j#	c #45331E",
"k#	c #63533D",
"l#	c #584632",
"m#	c #3A2816",
"n#	c #301D04",
"o#	c #2D1703",
"p#	c #5D4634",
"q#	c #695540",
"r#	c #6B5841",
"s#	c #746448",
"t#	c #3C2E15",
"u#	c #36280D",
"v#	c #493B24",
"w#	c #523C26",
"x#	c #462F1C",
"y#	c #2F1C05",
"z#	c #3B352B",
"A#	c #2D3842",
"B#	c #2D261C",
"C#	c #4A3C2A",
"D#	c #2E2104",
"E#	c #241602",
"F#	c #6B5843",
"G#	c #58462F",
"H#	c #64523B",
"I#	c #68543E",
"J#	c #5C4935",
"K#	c #4A3A25",
"L#	c #554632",
"M#	c #52442E",
"N#	c #453620",
"O#	c #584C31",
"P#	c #53472D",
"Q#	c #523C28",
"R#	c #422A17",
"S#	c #2D1D08",
"T#	c #29292F",
"U#	c #17252C",
"V#	c #5C5445",
"W#	c #7A6954",
"X#	c #453A22",
"Y#	c #312405",
"Z#	c #432A1D",
"`#	c #422E1B",
" $	c #392714",
".$	c #68563B",
"+$	c #5A4830",
"@$	c #31210A",
"#$	c #362615",
"$$	c #40311E",
"%$	c #725F4A",
"&$	c #837558",
"*$	c #867A5B",
"=$	c #372405",
"-$	c #3B311A",
";$	c #0F1E2A",
">$	c #564D45",
",$	c #85725C",
"'$	c #4A3A22",
")$	c #2D160A",
"!$	c #392813",
"~$	c #35230E",
"{$	c #4F3C27",
"]$	c #4D3B23",
"^$	c #43311A",
"/$	c #271803",
"($	c #5C4C36",
"_$	c #6F5F49",
":$	c #766051",
"<$	c #84755F",
"[$	c #584B33",
"}$	c #7D695A",
"|$	c #4E3F24",
"1$	c #282003",
"2$	c #1A2133",
"3$	c #3F3B36",
"4$	c #6B573F",
"5$	c #56452A",
"6$	c #32220C",
"7$	c #322104",
"8$	c #564430",
"9$	c #66543F",
"0$	c #68553F",
"a$	c #66543D",
"b$	c #74614B",
"c$	c #76634C",
"d$	c #7E6A57",
"e$	c #857662",
"f$	c #8A7D63",
"g$	c #574432",
"h$	c #5E4A31",
"i$	c #322708",
"j$	c #262A3B",
"k$	c #010400",
"l$	c #4B3B25",
"m$	c #685739",
"n$	c #33240A",
"o$	c #382018",
"p$	c #392809",
"q$	c #685540",
"r$	c #826F59",
"s$	c #65533C",
"t$	c #3E2C19",
"u$	c #513E2A",
"v$	c #5B4930",
"w$	c #53442D",
"x$	c #81735C",
"y$	c #817358",
"z$	c #6D5642",
"A$	c #3C2913",
"B$	c #382B17",
"C$	c #27303F",
"D$	c #3D342A",
"E$	c #44371A",
"F$	c #321F0A",
"G$	c #382708",
"H$	c #473520",
"I$	c #6A5740",
"J$	c #43311D",
"K$	c #35220C",
"L$	c #321F06",
"M$	c #402D17",
"N$	c #44361C",
"O$	c #5B4C37",
"P$	c #56472C",
"Q$	c #45321D",
"R$	c #302518",
"S$	c #000403",
"T$	c #1F1A1B",
"U$	c #3C2E1A",
"V$	c #453A1B",
"W$	c #392616",
"X$	c #38250D",
"Y$	c #46341F",
"Z$	c #47361E",
"`$	c #3B2916",
" %	c #35220F",
".%	c #332104",
"+%	c #483524",
"@%	c #362816",
"#%	c #161711",
"$%	c #363327",
"%%	c #413B20",
"&%	c #271502",
"*%	c #311E06",
"=%	c #392512",
"-%	c #312408",
";%	c #261002",
">%	c #331C0F",
",%	c #240F02",
"'%	c #332109",
")%	c #43301B",
"!%	c #463220",
"~%	c #4B3A22",
"{%	c #1E190B",
"]%	c #4C5D60",
"^%	c #1A2217",
"/%	c #301903",
"(%	c #2C1803",
"_%	c #270C02",
":%	c #2E0C04",
"<%	c #360604",
"[%	c #291202",
"}%	c #2F1C0B",
"|%	c #311F0D",
"1%	c #392306",
"2%	c #30220D",
"3%	c #363B3B",
"4%	c #412816",
"5%	c #291605",
"6%	c #2A0706",
"7%	c #32090C",
"8%	c #3A0503",
"9%	c #430A08",
"0%	c #250D02",
"a%	c #250501",
"b%	c #39230F",
"c%	c #281C16",
"d%	c #323A3D",
"e%	c #674F34",
"f%	c #453225",
"g%	c #381F1C",
"h%	c #270702",
"i%	c #330603",
"j%	c #42110D",
"k%	c #220F01",
"l%	c #210D03",
"m%	c #281C08",
"n%	c #311A06",
"o%	c #2D2624",
"p%	c #5D6D79",
"q%	c #766141",
"r%	c #382308",
"s%	c #3D2B16",
"t%	c #2D2311",
"u%	c #251002",
"v%	c #2F0104",
"w%	c #35080C",
"x%	c #260801",
"y%	c #332513",
"z%	c #291E0E",
"A%	c #2A1603",
"B%	c #363337",
"C%	c #64563F",
"D%	c #4E3920",
"E%	c #442E16",
"F%	c #261B03",
"G%	c #2F0102",
"H%	c #3D1013",
"I%	c #290602",
"J%	c #392310",
"K%	c #221502",
"L%	c #291604",
"M%	c #202020",
"N%	c #514F45",
"O%	c #412915",
"P%	c #231602",
"Q%	c #300A03",
"R%	c #2B0A02",
"S%	c #2C1506",
"T%	c #2F1709",
"U%	c #200A03",
"V%	c #1C0601",
"W%	c #201F1D",
"X%	c #222C2F",
"Y%	c #48392A",
"Z%	c #3A2F16",
"`%	c #352205",
" &	c #3C2319",
".&	c #310403",
"+&	c #4A2D1A",
"@&	c #2F2304",
"#&	c #3B2419",
"$&	c #280D02",
"%&	c #271C0F",
"&&	c #0D0801",
"*&	c #3D3B36",
"=&	c #453A28",
"-&	c #2F1A03",
";&	c #310F03",
">&	c #53341F",
",&	c #372809",
"'&	c #3C2518",
")&	c #281813",
"!&	c #2F2F2D",
"~&	c #00000B",
"{&	c #1B3852",
"]&	c #283845",
"^&	c #1D1C1E",
"/&	c #392718",
"(&	c #553D29",
"_&	c #3B2915",
":&	c #422A1D",
"<&	c #2C2B2F",
"[&	c #3D4E5B",
"}&	c #2A262C",
"|&	c #30260F",
"1&	c #3F3417",
"2&	c #67513D",
"3&	c #3B2313",
"4&	c #3A2B17",
"5&	c #06244D",
"6&	c #393124",
"7&	c #4F3D23",
"8&	c #553E2C",
"9&	c #452E21",
"0&	c #473D25",
"a&	c #292422",
"b&	c #44301E",
"c&	c #221302",
"d&	c #211001",
"e&	c #242632",
"f&	c #3F3126",
"g&	c #92978B",
"h&	c #35342F",
"i&	c #363029",
"j&	c #05173C",
"k&	c #172636",
"l&	c #453B2F",
"m&	c #6D8288",
"n&	c #6E7785",
"o&	c #3B363A",
"p&	c #08345D",
"q&	c #2F291E",
"r&	c #344359",
"s&	c #0A1920",
"t&	c #2B302C",
"u&	c #1D426A",
"v&	c #243333",
"w&	c #72838D",
"x&	c #3C5573",
"                                                                                                                              ",
"                                                                                                                              ",
"                                                                                                                              ",
"                                                                                                                              ",
"                                                    . + @ # $   % & * = - ;                                                   ",
"                                                > , ' ) ! ~ { ] ^ / ( _ : < [ } |                                             ",
"                                                1 2 3 4 5 6 7 8 9 0 a b c d e f g                                             ",
"                                              h i j k l m n o p q r s t u v w x y                                             ",
"                                              z A B C D E F G H I J K L M N O P Q                                             ",
"                                            R S T U V W X Y Z `  ...+.@.#.$.%.&.*.=.                                          ",
"                                          -.;.>.,.'.).!.~.{.].^./.(._.:.<.[.}.|.1.2.3.                                        ",
"                                          4.5.6.7.8.9.0.a.b.c.d.e.f.g.h.(.i.j.k.l.m.n.o.                                      ",
"                                          p.q.r.s.t.u.v.w.x.y.z.A.B.C.D.E.F.G.H.I.J.K.L.                                      ",
"                                          M.N.O.P...Q.R.S.T.U.V.W.X.Y.Z.`. +.+++@+#+$+                                        ",
"                                          %+&+*+=+-+;+>+,+'+)+!+~+{+]+^+/+(+_+:+<+[+}+|+                                      ",
"                                          1+2+3+4+5+6+7+8+9+0+a+b+c+d+e+f+g+' h+i+j+k+l+                                      ",
"                                          m+n+o+p+q+r+s+t+u+v+Q w+x+y+z+A+B+C+D+E+F+G+H+                                      ",
"                                          I+J+K+L+M+N+O+P+Q+R+S+T+U+V+W+X+Y+Z+`+ @.@+@@@                                      ",
"                                          #@$@%@&@*@=@-@;@>@,@'@)@!@~@{@]@^@/@(@_@:@<@[@                                      ",
"                                          }@|@1@2@3@4@5@v+6@7@8@9@0@a@b@c@d@e@f@g@h@i@                                        ",
"                                          j@k@l@m@n@o@p@q@r@s@t@u@v@w@x@y@z@A@B@C@D@E@F@                                      ",
"                                          G@H@I@J@K@L@M@N@O@P@^@Q@R@S@T@U@V@W@X@Y@Z@`@ #                                      ",
"                                          .#+#@#U@##$#%#&#*#&.=#-#;#>#,#'#)#!#~#{#]#^#/#                                      ",
"                                          (#_#:#<#[#}#|#1#2#3#4#5#6#7#8#9#0#a#b#R@c#d#e#                                      ",
"                                          f#g#h#i#j#k#l#m#n#o#p#q#r#s#t#u#v#w#x#y#z#A#                                        ",
"                                            B#C#D#E#F#G#n H#I#J#K#L#M#N#O#P#Q#R#S#T#                                          ",
"                                          U#V#W#X#Y#Z#`# $r#.$+$@$#$$$%$&$*$M.=$-$                                            ",
"                                          ;$>$,$'$m@)$!$~${$]$^$/$($_$:$<$[$}$|$1$2$                                          ",
"                                            3$4$5$6$)$7$8$9$0$a$~$b$c$d$e$f$g$h$i$j$                                          ",
"                                            k$l$m$n$o$p$q$r$s$G#t$u$v$w$x$y$z$A$B$C$                                          ",
"                                              D$f@E$F$G$H$0$I$J$K$L$M$N$O$P$Q$R$S$                                            ",
"                                              T$U$V$W$X$7$Y$Z$`$ %v@.%N$+%Z$@%#%                                              ",
"                                                $%%%&%*%=%-%X+;%>%,%'%)%!%~%{%]%                                              ",
"                                                  ^%/%(%4#_%:%<%<+[%}%|%1%2%                                                  ",
"                                                  3%4%5%6%7%8%9%L+0%a%E#b%c%                                                  ",
"                                                  d%e%f%g%h%i%j%v+k%l%m%n%o%                                                  ",
"                                                  p%q%r%s%t%u%v%w%x%y%z%A%B%                                                  ",
"                                                    C%D%E%F%o G%H%I%J%K%L%M%                                                  ",
"                                                    N%f@O%P%v@Q%R%S%T%U%V%W%                                                  ",
"                                                    X%Y%Z%`% &.&+&@&#&$&%&&&                                                  ",
"                                                      *&=&-&J%;&>&,&'&)&!&~&{&                                                ",
"                                                      ]&^&/&7$ $(&_&:&<&[&                                                    ",
"                                                          }&|&1&2&3&4&    5&                                                  ",
"                                                            6&7&8&9&0&                                                        ",
"                                                            a&b&c&d&S                                                         ",
"                                                            e&f&g&h&i&                                                        ",
"                                                        j&  k&l&m&n&o&                                                        ",
"                                                    p&        q&  r&s&                                                        ",
"                                                              t&                                                              ",
"                                                        u&    v&                                                              ",
"                                                              w&  x&                                                          ",
"                                                                                                                              ",
"                                                                                                                              ",
"                                                                                                                              ",
"                                                                                                                              ",
"                                                                                                                              ",
"                                                                                                                              ",
"                                                                                                                              ",
"                                                                                                                              ",
"                                                                                                                              ",
"                                                                                                                              ",
"                                                                                                                              ",
"                                                                                                                              ",
"                                                                                                                              "};
