/* XPM */
static char * lanceflamme_bas6_xpm[] = {
"64 64 268 2",
"  	c None",
". 	c #818DA7",
"+ 	c #8DA9C0",
"@ 	c #A4AABA",
"# 	c #AC9388",
"$ 	c #A88575",
"% 	c #ABAAAA",
"& 	c #9E735B",
"* 	c #A46741",
"= 	c #AB9791",
"- 	c #C86E38",
"; 	c #C47B5A",
"> 	c #CE9C87",
", 	c #AE8688",
"' 	c #C77141",
") 	c #D58443",
"! 	c #B09896",
"~ 	c #AD8A81",
"{ 	c #D66B34",
"] 	c #D06C39",
"^ 	c #D3864E",
"/ 	c #BC6B46",
"( 	c #D76E36",
"_ 	c #E08C43",
": 	c #AD826D",
"< 	c #AB8F80",
"[ 	c #DC7D3F",
"} 	c #CD642A",
"| 	c #C56B29",
"1 	c #C26125",
"2 	c #DC722F",
"3 	c #E0863F",
"4 	c #AE7256",
"5 	c #B6794C",
"6 	c #D7903A",
"7 	c #E18638",
"8 	c #F09445",
"9 	c #CD6927",
"0 	c #D5722C",
"a 	c #F39045",
"b 	c #B66031",
"c 	c #B07E61",
"d 	c #AC765A",
"e 	c #C87634",
"f 	c #EDAC4A",
"g 	c #E7A54A",
"h 	c #E19E41",
"i 	c #DA8230",
"j 	c #C36E28",
"k 	c #F69F4A",
"l 	c #C36826",
"m 	c #D28047",
"n 	c #99817B",
"o 	c #CF7F4F",
"p 	c #EAA151",
"q 	c #EAC45F",
"r 	c #F9E07F",
"s 	c #E5CD69",
"t 	c #DFA842",
"u 	c #DEAC3F",
"v 	c #F0BF4E",
"w 	c #D68430",
"x 	c #FD9846",
"y 	c #B27655",
"z 	c #F29C5D",
"A 	c #E8C470",
"B 	c #EFEAAF",
"C 	c #FEFBBF",
"D 	c #F2E5A3",
"E 	c #ECDC8C",
"F 	c #EEDC77",
"G 	c #FED161",
"H 	c #E29F43",
"I 	c #F9B752",
"J 	c #CC9659",
"K 	c #FAB05F",
"L 	c #FBDF8C",
"M 	c #F9F7E3",
"N 	c #FAFAE9",
"O 	c #FEF9E0",
"P 	c #FFFCDB",
"Q 	c #FFFED2",
"R 	c #FEF1A8",
"S 	c #D8B662",
"T 	c #FEDE76",
"U 	c #CE9153",
"V 	c #F4BF5D",
"W 	c #FEFBB7",
"X 	c #F9F7FA",
"Y 	c #FAF5F9",
"Z 	c #F8F4F1",
"` 	c #F3F5F0",
" .	c #F8FCFD",
"..	c #FEFADB",
"+.	c #EFEC9F",
"@.	c #F8F391",
"#.	c #D18E49",
"$.	c #F7CD6C",
"%.	c #FBFAC5",
"&.	c #FBF6FC",
"*.	c #FBF6FA",
"=.	c #F8F8F6",
"-.	c #F9F8FD",
";.	c #FEF7EF",
">.	c #F9F2CA",
",.	c #F1F2A5",
"'.	c #DDA254",
").	c #A88460",
"!.	c #FBDA81",
"~.	c #FDFEDB",
"{.	c #F5FAF6",
"].	c #F4FAF6",
"^.	c #F4FBF3",
"/.	c #F5FAF4",
"(.	c #F7F7F7",
"_.	c #F8F7F5",
":.	c #FCFBD0",
"<.	c #E7B75C",
"[.	c #A38868",
"}.	c #B28462",
"|.	c #FAE085",
"1.	c #FDFDDF",
"2.	c #F8F9F4",
"3.	c #F5FBEF",
"4.	c #F8FAF9",
"5.	c #F6F8F5",
"6.	c #F5F9FC",
"7.	c #FCFADD",
"8.	c #E2B355",
"9.	c #A58A60",
"0.	c #B07D5D",
"a.	c #F9DC83",
"b.	c #FFFDDE",
"c.	c #FCF4FF",
"d.	c #F9F8F4",
"e.	c #F9F6FF",
"f.	c #FBF5FF",
"g.	c #F8F8F8",
"h.	c #FEFCE2",
"i.	c #E4B557",
"j.	c #A68B61",
"k.	c #A98361",
"l.	c #F0D77D",
"m.	c #F8FEDA",
"n.	c #F3F9F9",
"o.	c #F6FAFB",
"p.	c #F7F8FA",
"q.	c #F8F8FA",
"r.	c #F5F9FA",
"s.	c #F4FAF8",
"t.	c #FFFEDA",
"u.	c #E2B55B",
"v.	c #A38365",
"w.	c #A57C5E",
"x.	c #F4D37E",
"y.	c #FBFEDB",
"z.	c #FBF5F5",
"A.	c #FDF8F4",
"B.	c #FBF7F4",
"C.	c #FBF7F8",
"D.	c #FCF6FA",
"E.	c #FFFCD8",
"F.	c #EBB75F",
"G.	c #A97B69",
"H.	c #8C5C74",
"I.	c #6A2230",
"J.	c #510A06",
"K.	c #FEDD8D",
"L.	c #F9FEDC",
"M.	c #FAF6F5",
"N.	c #F9F8F3",
"O.	c #F8F9FD",
"P.	c #FBF5F7",
"Q.	c #F8FBD2",
"R.	c #DAA25B",
"S.	c #561408",
"T.	c #4E2833",
"U.	c #B8592F",
"V.	c #A64024",
"W.	c #751E11",
"X.	c #F7B66E",
"Y.	c #F8CDA7",
"Z.	c #FEE7D4",
"`.	c #FFF6E8",
" +	c #FFFAEC",
".+	c #FFFBEB",
"++	c #FFFCEA",
"@+	c #FFFAE4",
"#+	c #EFD7BD",
"$+	c #EFC999",
"%+	c #DC8754",
"&+	c #842315",
"*+	c #AC4322",
"=+	c #B8683E",
"-+	c #D18A3A",
";+	c #DE9041",
">+	c #D87A3E",
",+	c #D0712F",
"'+	c #D17A45",
")+	c #A3572B",
"!+	c #9C5127",
"~+	c #A1562C",
"{+	c #9F542A",
"]+	c #A1562A",
"^+	c #A85D2A",
"/+	c #BA6F36",
"(+	c #C37237",
"_+	c #D77538",
":+	c #D9783B",
"<+	c #E6893C",
"[+	c #E1A161",
"}+	c #F4D574",
"|+	c #F7C34C",
"1+	c #FBBD49",
"2+	c #F3BA49",
"3+	c #F2B442",
"4+	c #E9A53C",
"5+	c #F6AF47",
"6+	c #EAA03F",
"7+	c #EDA042",
"8+	c #EFA243",
"9+	c #EAA540",
"0+	c #F8B549",
"a+	c #F0B045",
"b+	c #FBB740",
"c+	c #F0B13F",
"d+	c #F2CB58",
"e+	c #D7CF9B",
"f+	c #CAD79F",
"g+	c #FAF07D",
"h+	c #F8DD5D",
"i+	c #F4D65F",
"j+	c #EDD453",
"k+	c #F3D14E",
"l+	c #F6CE4C",
"m+	c #FAD14E",
"n+	c #F9CE4A",
"o+	c #FACF49",
"p+	c #F7D04D",
"q+	c #F7D24F",
"r+	c #EDD152",
"s+	c #F4DA52",
"t+	c #F8DF5D",
"u+	c #EAEA92",
"v+	c #D3E6AE",
"w+	c #F5F795",
"x+	c #FEF99C",
"y+	c #FEEE91",
"z+	c #F1E679",
"A+	c #EEE477",
"B+	c #EFE27A",
"C+	c #F3E27C",
"D+	c #F4E37D",
"E+	c #EEE27D",
"F+	c #FAEF88",
"G+	c #FEF091",
"H+	c #FEFD98",
"I+	c #F3F69C",
"J+	c #BAD4A7",
"K+	c #CCDFA5",
"L+	c #E8ECB6",
"M+	c #EEF3BE",
"N+	c #EEF1BF",
"O+	c #EFEFC0",
"P+	c #ECEEBD",
"Q+	c #EAF0BE",
"R+	c #DBE3AC",
"S+	c #CAE0A5",
"                                                                                                                                ",
"                                                                                                                                ",
"                                                                                                                                ",
"                                                                                                                                ",
"                                                                                                                                ",
"                                                                                                                                ",
"                                                                                                                                ",
"                                                                                                                                ",
"                                                                                                                                ",
"                                                                                                                                ",
"                                                                                                                                ",
"                                                                                                                                ",
"                                                                                                                                ",
"                                                                                                                                ",
"                                                                                                                                ",
"                                                                                                                                ",
"                                                                                                                                ",
"                                                                                                                                ",
"                                                                                                                                ",
"                                                                                                                                ",
"                                                                                                                                ",
"                                                                                                                                ",
"                                                                                                                                ",
"                                                                                                                                ",
"                                                                                                                                ",
"                                                                                              .                                 ",
"                                                                                                                                ",
"                                                                                                                                ",
"                                                                                                                                ",
"                                                                                                                                ",
"                                                                                                                                ",
"                                                                                                                                ",
"                                                                                                                                ",
"                                                                                                                                ",
"                                                                                                                                ",
"                                                                                                                                ",
"                                                                                                                                ",
"                                                                    +                                                           ",
"                                                              @     #                                                           ",
"                                                          $   %   & *                                                           ",
"                                                        = - ; > , ' ) !                                                         ",
"                                                        ~ { ] ^ / ( _ :                                                         ",
"                                                        < [ } | 1 2 3 4                                                         ",
"                                                        5 6 7 8 9 0 a b c                                                       ",
"                                                      d e f g h i j k l m n                                                     ",
"                                                      o p q r s t u v w x y                                                     ",
"                                                      z A B C D E F G H I J                                                     ",
"                                                      K L M N O P Q R S T U                                                     ",
"                                                      V W X Y Z `  ...+.@.#.                                                    ",
"                                                      $.%.X &.*.=.-.;.>.,.'.                                                    ",
"                                                    ).!.~.{.{.].^./.(._.:.<.[.                                                  ",
"                                                    }.|.1.X 2.3.{.4.5.6.7.8.9.                                                  ",
"                                                    0.a.b.c.*.d.e.f.g.6.h.i.j.                                                  ",
"                                                    k.l.m.n.o.p.q.p.r.s.t.u.v.                                                  ",
"                                                    w.x.y.z.A.B.C.*.D.D.E.F.G.                                                  ",
"                                                H.I.J.K.L.M.N.=.r.O.C.P.Q.R.S.T.                                                ",
"                                                U.V.W.X.Y.Z.`. +.+++@+#+$+%+&+*+=+                                              ",
"                                                -+;+>+,+'+)+!+~+{+]+^+/+(+_+:+<+[+                                              ",
"                                                }+|+1+2+3+4+5+6+7+8+9+0+a+b+c+d+e+                                              ",
"                                                f+g+h+i+j+k+l+m+n+o+p+q+r+s+t+u+                                                ",
"                                                  v+w+x+y+z+A+B+C+D+E+F+G+H+I+                                                  ",
"                                                      J+K+L+M+N+O+P+Q+R+S+                                                      ",
"                                                                                                                                ",
"                                                                                                                                "};
