/* XPM */
static char * lanceflamme_bas29_xpm[] = {
"64 64 717 2",
"  	c None",
". 	c #637F8E",
"+ 	c #697B88",
"@ 	c #333E45",
"# 	c #222222",
"$ 	c #211D1C",
"% 	c #2A282A",
"& 	c #252831",
"* 	c #4E677B",
"= 	c #5C656E",
"- 	c #363733",
"; 	c #484234",
"> 	c #453A28",
", 	c #382A18",
"' 	c #392D1E",
") 	c #1F1A0D",
"! 	c #1F201C",
"~ 	c #01171F",
"{ 	c #182B38",
"] 	c #475E69",
"^ 	c #576068",
"/ 	c #81858D",
"( 	c #212129",
"_ 	c #1D2029",
": 	c #252D37",
"< 	c #3B606E",
"[ 	c #505C60",
"} 	c #40484B",
"| 	c #4E5863",
"1 	c #364454",
"2 	c #454B55",
"3 	c #252324",
"4 	c #2B231C",
"5 	c #5B4D3B",
"6 	c #534632",
"7 	c #332D1E",
"8 	c #080400",
"9 	c #292B25",
"0 	c #536066",
"a 	c #5B696E",
"b 	c #2B363A",
"c 	c #26292A",
"d 	c #181716",
"e 	c #342D2C",
"f 	c #170C0D",
"g 	c #272528",
"h 	c #23272E",
"i 	c #1E3343",
"j 	c #465C64",
"k 	c #263233",
"l 	c #3C3C3C",
"m 	c #4F4A48",
"n 	c #4B4241",
"o 	c #30333A",
"p 	c #0A1926",
"q 	c #2E4254",
"r 	c #406276",
"s 	c #0D2430",
"t 	c #28313E",
"u 	c #46474F",
"v 	c #66666A",
"w 	c #23201F",
"x 	c #282118",
"y 	c #3C3123",
"z 	c #2F281D",
"A 	c #121A1C",
"B 	c #192530",
"C 	c #4D5560",
"D 	c #677076",
"E 	c #4D5050",
"F 	c #0B0A04",
"G 	c #28221C",
"H 	c #251E16",
"I 	c #190E01",
"J 	c #292520",
"K 	c #252A2E",
"L 	c #293840",
"M 	c #202A2F",
"N 	c #2E2D2B",
"O 	c #544A44",
"P 	c #5B4E46",
"Q 	c #40332C",
"R 	c #2C2D32",
"S 	c #49545F",
"T 	c #263646",
"U 	c #21374B",
"V 	c #607C8D",
"W 	c #182D3C",
"X 	c #2E3C47",
"Y 	c #00050F",
"Z 	c #151516",
"` 	c #1F1C1B",
" .	c #1F1B19",
"..	c #16100C",
"+.	c #17150D",
"@.	c #130D01",
"#.	c #000403",
"$.	c #334254",
"%.	c #05060E",
"&.	c #1D1916",
"*.	c #352C25",
"=.	c #3B3127",
"-.	c #2F261C",
";.	c #170E01",
">.	c #62625F",
",.	c #263F56",
"'.	c #3B4C56",
").	c #1F1E24",
"!.	c #5A504D",
"~.	c #382B23",
"{.	c #31271C",
"].	c #625E4D",
"^.	c #6F7B79",
"/.	c #354253",
"(.	c #222B36",
"_.	c #616166",
":.	c #160E0A",
"<.	c #1B1104",
"[.	c #130801",
"}.	c #0E0D05",
"|.	c #060D0E",
"1.	c #000E11",
"2.	c #29353A",
"3.	c #465562",
"4.	c #100A0B",
"5.	c #463A35",
"6.	c #584940",
"7.	c #3C3027",
"8.	c #362E27",
"9.	c #2E302D",
"0.	c #738183",
"a.	c #6D7B89",
"b.	c #27353B",
"c.	c #5D6B6E",
"d.	c #293439",
"e.	c #1E2937",
"f.	c #1B2945",
"g.	c #2F3F4D",
"h.	c #26272B",
"i.	c #352E2C",
"j.	c #2F251E",
"k.	c #857E71",
"l.	c #242D3D",
"m.	c #4E4E56",
"n.	c #1A100F",
"o.	c #200E03",
"p.	c #281906",
"q.	c #312C22",
"r.	c #3D4240",
"s.	c #2B363B",
"t.	c #475864",
"u.	c #211C1C",
"v.	c #4C3D37",
"w.	c #534039",
"x.	c #42332A",
"y.	c #2C2621",
"z.	c #373F3F",
"A.	c #5E7075",
"B.	c #43464E",
"C.	c #0D100E",
"D.	c #232420",
"E.	c #2F2D2E",
"F.	c #454850",
"G.	c #222840",
"H.	c #1A2A4A",
"I.	c #34454E",
"J.	c #051515",
"K.	c #272D28",
"L.	c #575752",
"M.	c #4B4C43",
"N.	c #7A838A",
"O.	c #58585E",
"P.	c #504A4B",
"Q.	c #1B0601",
"R.	c #240F02",
"S.	c #332216",
"T.	c #474740",
"U.	c #94A2A2",
"V.	c #1C1815",
"W.	c #382923",
"X.	c #3C2C24",
"Y.	c #3E312B",
"Z.	c #0A0000",
"`.	c #262B2B",
" +	c #6F7C81",
".+	c #2C3D52",
"++	c #626774",
"@+	c #565153",
"#+	c #231D17",
"$+	c #2D261C",
"%+	c #524941",
"&+	c #474141",
"*+	c #363A49",
"=+	c #334649",
"-+	c #021113",
";+	c #161A17",
">+	c #000100",
",+	c #6A706D",
"'+	c #2B3232",
")+	c #414849",
"!+	c #454649",
"~+	c #13080B",
"{+	c #160201",
"]+	c #27160A",
"^+	c #3A2C20",
"/+	c #192320",
"(+	c #536269",
"_+	c #574F4B",
":+	c #201004",
"<+	c #1B0501",
"[+	c #3A2D26",
"}+	c #6F6965",
"|+	c #232625",
"1+	c #5D6A6A",
"2+	c #647278",
"3+	c #2F3D4C",
"4+	c #181D2B",
"5+	c #282630",
"6+	c #352C2F",
"7+	c #2B1F16",
"8+	c #3B2D20",
"9+	c #47392C",
"0+	c #3B322D",
"a+	c #171722",
"b+	c #5B6680",
"c+	c #2D2B2C",
"d+	c #2D2423",
"e+	c #464542",
"f+	c #252621",
"g+	c #252421",
"h+	c #292723",
"i+	c #1B1007",
"j+	c #21160A",
"k+	c #221102",
"l+	c #1F0E01",
"m+	c #28211B",
"n+	c #303E47",
"o+	c #3A566B",
"p+	c #2A3846",
"q+	c #29323B",
"r+	c #464E54",
"s+	c #3C3F40",
"t+	c #473D36",
"u+	c #302119",
"v+	c #302117",
"w+	c #32261D",
"x+	c #49463A",
"y+	c #1F241A",
"z+	c #17201A",
"A+	c #243230",
"B+	c #5F7171",
"C+	c #292B34",
"D+	c #2E282F",
"E+	c #211616",
"F+	c #2D1F15",
"G+	c #372818",
"H+	c #251803",
"I+	c #383128",
"J+	c #7B7D85",
"K+	c #01192C",
"L+	c #091723",
"M+	c #28252F",
"N+	c #44363A",
"O+	c #695652",
"P+	c #6C5D50",
"Q+	c #504632",
"R+	c #675B4B",
"S+	c #665649",
"T+	c #504134",
"U+	c #504232",
"V+	c #413322",
"W+	c #3C3121",
"X+	c #1C1001",
"Y+	c #1A1712",
"Z+	c #4F575F",
"`+	c #4F6780",
" @	c #4C5F6B",
".@	c #4C5151",
"+@	c #4B3F32",
"@@	c #53442E",
"#@	c #3A301D",
"$@	c #3B3422",
"%@	c #201702",
"&@	c #2F2112",
"*@	c #3D2C1F",
"=@	c #3D2E1E",
"-@	c #544C3C",
";@	c #222416",
">@	c #2F3830",
",@	c #415450",
"'@	c #778C8F",
")@	c #2B3142",
"!@	c #0C0116",
"~@	c #3D2E33",
"{@	c #54463B",
"]@	c #534834",
"^@	c #3D3722",
"/@	c #111501",
"(@	c #556D77",
"_@	c #131923",
":@	c #0D020E",
"<@	c #49383C",
"[@	c #5D4544",
"}@	c #715A50",
"|@	c #604D39",
"1@	c #4D4427",
"2@	c #413220",
"3@	c #392A1C",
"4@	c #544635",
"5@	c #564837",
"6@	c #443623",
"7@	c #413324",
"8@	c #30231B",
"9@	c #1A1614",
"0@	c #050F1F",
"a@	c #18222B",
"b@	c #3B3C37",
"c@	c #392816",
"d@	c #4D381F",
"e@	c #3E2F17",
"f@	c #2D2104",
"g@	c #241D09",
"h@	c #221806",
"i@	c #201602",
"j@	c #363123",
"k@	c #454740",
"l@	c #6D7D78",
"m@	c #4C6677",
"n@	c #66788C",
"o@	c #2F3444",
"p@	c #161018",
"q@	c #282019",
"r@	c #3E3829",
"s@	c #474535",
"t@	c #5D675D",
"u@	c #032225",
"v@	c #1B2731",
"w@	c #101018",
"x@	c #0E0508",
"y@	c #221616",
"z@	c #43322C",
"A@	c #665247",
"B@	c #85715F",
"C@	c #726046",
"D@	c #615032",
"E@	c #4A3B2A",
"F@	c #3D3124",
"G@	c #292213",
"H@	c #302416",
"I@	c #413225",
"J@	c #47332C",
"K@	c #312121",
"L@	c #2A252E",
"M@	c #212A34",
"N@	c #3D3A39",
"O@	c #3C2F1E",
"P@	c #2F1D04",
"Q@	c #402A18",
"R@	c #3A2A19",
"S@	c #1E1C0E",
"T@	c #494948",
"U@	c #2F3032",
"V@	c #3B3D3A",
"W@	c #5D6664",
"X@	c #637880",
"Y@	c #435259",
"Z@	c #0B0B0B",
"`@	c #3A3936",
" #	c #363C38",
".#	c #627377",
"+#	c #476279",
"@#	c #4E4D4F",
"##	c #49403F",
"$#	c #30231D",
"%#	c #241608",
"&#	c #2F2013",
"*#	c #5E4D3C",
"=#	c #71614A",
"-#	c #68563B",
";#	c #564224",
">#	c #3A291C",
",#	c #352920",
"'#	c #150D01",
")#	c #181603",
"!#	c #161101",
"~#	c #130601",
"{#	c #291B16",
"]#	c #4A3838",
"^#	c #11010B",
"/#	c #2D3A4A",
"(#	c #4E545E",
"_#	c #0B080A",
":#	c #1B0E01",
"<#	c #281903",
"[#	c #392619",
"}#	c #36261B",
"|#	c #4E524E",
"1#	c #6E797C",
"2#	c #1E2B30",
"3#	c #515C62",
"4#	c #273037",
"5#	c #698189",
"6#	c #567888",
"7#	c #6A818F",
"8#	c #2E343E",
"9#	c #0D171B",
"0#	c #0C1C20",
"a#	c #011724",
"b#	c #424C53",
"c#	c #625B53",
"d#	c #65594C",
"e#	c #312618",
"f#	c #241702",
"g#	c #312414",
"h#	c #5A4C39",
"i#	c #55452F",
"j#	c #513F25",
"k#	c #483319",
"l#	c #38231B",
"m#	c #1D0808",
"n#	c #312E2D",
"o#	c #636B67",
"p#	c #242B26",
"q#	c #2B3530",
"r#	c #454840",
"s#	c #5F5C5A",
"t#	c #271F20",
"u#	c #262632",
"v#	c #414653",
"w#	c #434C59",
"x#	c #494949",
"y#	c #1C1A11",
"z#	c #343125",
"A#	c #231A13",
"B#	c #211B15",
"C#	c #36403C",
"D#	c #6C7680",
"E#	c #263843",
"F#	c #505E6B",
"G#	c #1F2B33",
"H#	c #677986",
"I#	c #102839",
"J#	c #33393A",
"K#	c #453C2E",
"L#	c #3B3121",
"M#	c #3C3322",
"N#	c #2A2313",
"O#	c #1E1802",
"P#	c #312A1B",
"Q#	c #392F1D",
"R#	c #3F311D",
"S#	c #3C2915",
"T#	c #2C1A19",
"U#	c #0D0003",
"V#	c #68686F",
"W#	c #757C85",
"X#	c #708386",
"Y#	c #7C8E8D",
"Z#	c #8F9792",
"`#	c #5C5D58",
" $	c #685F59",
".$	c #282021",
"+$	c #161016",
"@$	c #0F0D15",
"#$	c #181921",
"$$	c #171B16",
"%$	c #50504E",
"&$	c #0A0608",
"*$	c #101010",
"=$	c #000A0A",
"-$	c #364551",
";$	c #41556D",
">$	c #4F5E71",
",$	c #375068",
"'$	c #4F5D6E",
")$	c #37383B",
"!$	c #3C3428",
"~$	c #2D2718",
"{$	c #5E5A4F",
"]$	c #818178",
"^$	c #4E4E4A",
"/$	c #21221D",
"($	c #211C17",
"_$	c #332A23",
":$	c #38281E",
"<$	c #2C242A",
"[$	c #40404B",
"}$	c #566974",
"|$	c #4D5961",
"1$	c #646C68",
"2$	c #27231C",
"3$	c #594C41",
"4$	c #5B4A40",
"5$	c #382C26",
"6$	c #292422",
"7$	c #545B5B",
"8$	c #505A5A",
"9$	c #43484D",
"0$	c #676A71",
"a$	c #32343E",
"b$	c #060C17",
"c$	c #1B1B1C",
"d$	c #656873",
"e$	c #4F5A6A",
"f$	c #28354B",
"g$	c #25252E",
"h$	c #37332C",
"i$	c #393931",
"j$	c #646A67",
"k$	c #66727B",
"l$	c #5B5E65",
"m$	c #39373A",
"n$	c #201616",
"o$	c #555F6D",
"p$	c #0D161E",
"q$	c #2D2C2B",
"r$	c #3E352B",
"s$	c #453626",
"t$	c #5D493A",
"u$	c #3F2F24",
"v$	c #0F0200",
"w$	c #424540",
"x$	c #737979",
"y$	c #1F2D30",
"z$	c #5C666E",
"A$	c #040D20",
"B$	c #161011",
"C$	c #23232B",
"D$	c #3E5270",
"E$	c #052041",
"F$	c #263752",
"G$	c #0D1724",
"H$	c #000206",
"I$	c #4E5658",
"J$	c #697B85",
"K$	c #657386",
"L$	c #28303E",
"M$	c #717178",
"N$	c #57606F",
"O$	c #222430",
"P$	c #221F25",
"Q$	c #312823",
"R$	c #483B2B",
"S$	c #301E04",
"T$	c #463220",
"U$	c #302215",
"V$	c #160A01",
"W$	c #454640",
"X$	c #666D6C",
"Y$	c #1E2B2D",
"Z$	c #041D28",
"`$	c #3D4A5A",
" %	c #080000",
".%	c #130A10",
"+%	c #535766",
"@%	c #3A484C",
"#%	c #222526",
"$%	c #38383A",
"%%	c #545458",
"&%	c #181213",
"*%	c #1A160F",
"=%	c #363125",
"-%	c #312B17",
";%	c #1E1602",
">%	c #281C03",
",%	c #1D0B01",
"'%	c #453A34",
")%	c #62585C",
"!%	c #1B1A20",
"~%	c #252B34",
"{%	c #0F212D",
"]%	c #213F54",
"^%	c #272B28",
"/%	c #2E302F",
"(%	c #656F78",
"_%	c #2C4951",
":%	c #0D2121",
"<%	c #373938",
"[%	c #171010",
"}%	c #160A05",
"|%	c #1A1301",
"1%	c #211A03",
"2%	c #4D442C",
"3%	c #433A20",
"4%	c #1D1501",
"5%	c #383028",
"6%	c #767276",
"7%	c #34333B",
"8%	c #5C5C68",
"9%	c #454953",
"0%	c #6E7F8B",
"a%	c #000B0A",
"b%	c #0F1719",
"c%	c #3E5B6F",
"d%	c #192F44",
"e%	c #4E6F89",
"f%	c #496C8F",
"g%	c #133039",
"h%	c #152929",
"i%	c #293232",
"j%	c #1D2122",
"k%	c #1A1917",
"l%	c #251D18",
"m%	c #231706",
"n%	c #362717",
"o%	c #50402B",
"p%	c #5A4D36",
"q%	c #423A29",
"r%	c #10181A",
"s%	c #434D55",
"t%	c #5A6472",
"u%	c #202534",
"v%	c #08141E",
"w%	c #153253",
"x%	c #52575F",
"y%	c #1A1D22",
"z%	c #203E4E",
"A%	c #22373D",
"B%	c #15272D",
"C%	c #011217",
"D%	c #8F9799",
"E%	c #322D2D",
"F%	c #281C16",
"G%	c #5D493D",
"H%	c #554031",
"I%	c #463529",
"J%	c #45525C",
"K%	c #3E5060",
"L%	c #1C2738",
"M%	c #79808E",
"N%	c #2D3A4B",
"O%	c #686F7A",
"P%	c #000115",
"Q%	c #222B40",
"R%	c #233C62",
"S%	c #2D4C77",
"T%	c #2E4D58",
"U%	c #294651",
"V%	c #525A60",
"W%	c #4E4648",
"X%	c #4B3939",
"Y%	c #46302D",
"Z%	c #3F2C2A",
"`%	c #282323",
" &	c #474F5F",
".&	c #01041C",
"+&	c #656B7C",
"@&	c #2F2F3F",
"#&	c #5A6580",
"$&	c #394E74",
"%&	c #1F3A68",
"&&	c #23242E",
"*&	c #524753",
"=&	c #200F18",
"-&	c #2A1E23",
";&	c #1E1D24",
">&	c #5A7585",
",&	c #011421",
"'&	c #383D4E",
")&	c #434858",
"!&	c #363B4B",
"~&	c #011029",
"{&	c #2F5476",
"]&	c #051B40",
"^&	c #1F426C",
"/&	c #153557",
"(&	c #536378",
"_&	c #171E2E",
":&	c #131620",
"<&	c #171724",
"[&	c #39505D",
"}&	c #000417",
"|&	c #26394C",
"1&	c #4D6481",
"2&	c #606F77",
"3&	c #283641",
"4&	c #495D6E",
"5&	c #214765",
"6&	c #6A7A89",
"7&	c #384F5F",
"8&	c #0A1B26",
"9&	c #424B58",
"0&	c #01192E",
"a&	c #05263A",
"b&	c #475869",
"c&	c #20496B",
"d&	c #5A697E",
"e&	c #252D41",
"f&	c #01122B",
"g&	c #547790",
"h&	c #0F253D",
"i&	c #30455F",
"j&	c #596C84",
"k&	c #010D2A",
"l&	c #637693",
"m&	c #374867",
"n&	c #3B5573",
"o&	c #1B3F5F",
"p&	c #3E6288",
"q&	c #476D8B",
"r&	c #536F91",
"s&	c #1D4774",
"t&	c #062646",
"u&	c #4A688B",
"v&	c #0E3866",
"w&	c #082B55",
"x&	c #225178",
"y&	c #466D8E",
"z&	c #456C8A",
"A&	c #355B7F",
"B&	c #3A6380",
"C&	c #33628A",
"D&	c #0A365B",
"E&	c #2C5C87",
"F&	c #254D6E",
"G&	c #183E61",
"H&	c #3D6689",
"                                                                                                                                ",
"                                                                                                                                ",
"                                                                                                                                ",
"                                                                .                                                               ",
"                                                            + @ # $ % & *                                                       ",
"                                                        = - ; > , ' ) ! ~ { ]   ^ / ( _ :                                       ",
"                        <     [ } | 1                 2 3 4 5 6 7 8 9   0 a b c d e f g h i                                     ",
"                        j k l m n o p q   r     s t u v w x y z A B C   D E F G H I J K L                                       ",
"                        M N O P Q R S T U V W X Y Z `  ...+.@.#.$.      %.&.*.=.-.;.>.        ,.                                ",
"                      '.).!.~.{.].^.    T /.(._.:.<.[.}.|.1.2.3.        4.5.6.7.8.9.0.        a.b.c.d.e.f.                      ",
"                      g.h.i.j.k.        l.  m.n.o.p.q.r.s.t.            u.v.w.x.y.z.A.        B.C.D.E.F.G.H.                    ",
"                        I.J.K.L.M.      N.O.P.Q.R.S.T.U.                V.W.X.Y.Z.`. +    .+++@+#+$+%+&+*+                      ",
"                          =+-+;+>+,+'+)+!+~+{+]+R.^+/+(+                _+:+<+[+}+|+1+2+3+4+5+6+7+8+9+0+a+b+                    ",
"                              c+d+e+f+g+h+i+j+k+l+m+n+        o+p+q+r+s+t+u+v+w+x+y+z+A+B+C+D+E+F+G+H+I+J+K+                    ",
"                      L+M+N+O+P+Q+R+S+T+U+V+W+X+Y+Z+      `+ @.@+@@@#@$@%@&@*@=@-@;@>@,@'@)@!@~@{@]@^@/@                        ",
"                  (@_@:@<@[@}@|@1@2@3@4@5@6@7@8@9@0@        a@b@c@d@e@f@g@h@h@i@j@k@l@  m@n@o@p@q@r@s@t@u@                      ",
"                v@w@x@y@z@A@B@C@D@E@F@G@G@H@I@J@K@L@        M@N@O@P@Q@R@S@T@U@F V@W@X@        Y@Z@`@ #.#+#                      ",
"                @###$#%#&#*#=#-#;#>#,#'#)#!#~#{#]#^#/#      (#_#:#<#[#}#|#1#2#3#4#5#6#        7#8#9#0#a#                        ",
"              b#c#d#e#f#g#h#i#j#k#l#m#n#o#p#q#r#s#t#u#v#w#    x#y#z#A#B#C#D#E#F#                  G#H#I#                        ",
"              J#K#L#M#N#O#P#Q#R#S#T#U#V#W#X#Y#Z#`# $.$+$@$#$    $$%$&$*$=$  -$;$                  >$  ,$                        ",
"            '$)$!$~${$]$^$/$($_$:$<$[$  a.}$|$1$2$3$4$5$6$>+7$8$9$0$a$b$c$d$e$                                                  ",
"            f$g$h$i$j$    k$l$m$n$        o$p$q$r$s$t$u$v$w$x$y$z$    A$B$C$  D$                E$                              ",
"            F$G$H$I$J$      K$L$M$      N$O$P$Q$R$S$T$U$V$W$X$Y$Z$    `$ %.%+%                                                  ",
"                                @%#%$%%%&%*%=%-%;%>%,%'%)%!%~%{%]%      ^%/%(%                                                  ",
"                              _%:%<%3 [%}%|%1%2%3%4%5%6%7%8%9%0%        a%b%                                                    ",
"              c%d%e%f%        g%h%i%j%k%l%m%n%o%p%q%r%s%t%u%v%        w%x%y%                                                    ",
"                              z%A%B%C%D%E%F%G%H%I%H J%  K%L%M%N%        O%P%Q%R%        S%                                      ",
"                                  T%U%  V%W%X%Y%Z%`%         &.&        +&@&#&$&        %&                                      ",
"                                          &&*&=&-&;&      >&,&'&        )&!&~&    {&                                            ",
"                ]&^&              /&      (&_&:&<&w#      [&}&  |&1&    2&3&4&  5&                                              ",
"                                                6&        7&8&9&0&a&      b&                                                    ",
"                                c&                          d&e&f&      g&h&i&                                                  ",
"                                                            j&k&l&                                                              ",
"                                                              m&n&      o&                                                      ",
"                                                                        p&                                                      ",
"                                                          q&r&                                s&                                ",
"                                                            t&u&                    v&                                          ",
"                                                                                                                                ",
"                                                                      w&                                                        ",
"                                              x&          y&                                                                    ",
"                                                          z&                                                                    ",
"                                                                      A&                                                        ",
"                                                                                                                                ",
"                                                                      B&            C&                                          ",
"                                            D&E&          F&                                                                    ",
"                                                        G&H&                                                                    ",
"                                                                                                                                ",
"                                                                                                                                ",
"                                                                                                                                ",
"                                                                                                                                ",
"                                                                                                                                ",
"                                                                                                                                ",
"                                                                                                                                ",
"                                                                                                                                ",
"                                                                                                                                ",
"                                                                                                                                ",
"                                                                                                                                ",
"                                                                                                                                ",
"                                                                                                                                ",
"                                                                                                                                ",
"                                                                                                                                ",
"                                                                                                                                ",
"                                                                                                                                ",
"                                                                                                                                "};
