/* XPM */
static char * lanceflamme_bas26_xpm[] = {
"64 64 531 2",
"  	c None",
". 	c #6B797F",
"+ 	c #3B3F3A",
"@ 	c #504C43",
"# 	c #534D43",
"$ 	c #35322D",
"% 	c #2E343D",
"& 	c #515E67",
"* 	c #323230",
"= 	c #5D544B",
"- 	c #6A5D52",
"; 	c #504840",
"> 	c #2A241E",
", 	c #514941",
"' 	c #827469",
") 	c #766252",
"! 	c #6A503C",
"~ 	c #6A543B",
"{ 	c #635339",
"] 	c #50493A",
"^ 	c #434C4B",
"/ 	c #25303A",
"( 	c #130D01",
"_ 	c #312212",
": 	c #3A2813",
"< 	c #48311C",
"[ 	c #46311C",
"} 	c #4F3C28",
"| 	c #8E7E67",
"1 	c #93806A",
"2 	c #7E6952",
"3 	c #685339",
"4 	c #624D2F",
"5 	c #433115",
"6 	c #45391E",
"7 	c #39341C",
"8 	c #35331F",
"9 	c #232515",
"0 	c #2F3229",
"a 	c #1F2726",
"b 	c #172434",
"c 	c #5E5F4F",
"d 	c #776949",
"e 	c #624B32",
"f 	c #38210B",
"g 	c #36230A",
"h 	c #3C2A16",
"i 	c #261702",
"j 	c #3F311B",
"k 	c #61533B",
"l 	c #6F644B",
"m 	c #6F664D",
"n 	c #766F57",
"o 	c #7B684F",
"p 	c #645139",
"q 	c #3A2911",
"r 	c #3D2E17",
"s 	c #5B472E",
"t 	c #2D1A03",
"u 	c #55432F",
"v 	c #5B4A3F",
"w 	c #363331",
"x 	c #66625F",
"y 	c #988F73",
"z 	c #A69A78",
"A 	c #A2917A",
"B 	c #5F4A3F",
"C 	c #291907",
"D 	c #312211",
"E 	c #291A03",
"F 	c #483622",
"G 	c #392614",
"H 	c #70604A",
"I 	c #7E6E58",
"J 	c #817560",
"K 	c #655542",
"L 	c #402F21",
"M 	c #2B1807",
"N 	c #311B08",
"O 	c #341C04",
"P 	c #4A3421",
"Q 	c #5F4E3A",
"R 	c #5D5343",
"S 	c #4C5057",
"T 	c #334243",
"U 	c #514537",
"V 	c #897358",
"W 	c #AB987D",
"X 	c #82755E",
"Y 	c #8A7C67",
"Z 	c #695A47",
"` 	c #645443",
" .	c #39291A",
"..	c #43311E",
"+.	c #553D28",
"@.	c #574229",
"#.	c #756148",
"$.	c #635239",
"%.	c #3B2B18",
"&.	c #433422",
"*.	c #281A07",
"=.	c #220F01",
"-.	c #230D01",
";.	c #362216",
">.	c #2F1D04",
",.	c #3B3017",
"'.	c #282204",
").	c #3A332B",
"!.	c #2C3940",
"~.	c #3D4347",
"{.	c #262111",
"].	c #524024",
"^.	c #5C4429",
"/.	c #8F7764",
"(.	c #8F7D6E",
"_.	c #7D6D58",
":.	c #6A5C40",
"<.	c #786A51",
"[.	c #44361F",
"}.	c #51432B",
"|.	c #5C4C33",
"1.	c #3A2C12",
"2.	c #423319",
"3.	c #402F16",
"4.	c #3C2B12",
"5.	c #352511",
"6.	c #201001",
"7.	c #2F2013",
"8.	c #200D01",
"9.	c #28170A",
"0.	c #4B382A",
"a.	c #2B1C03",
"b.	c #392E15",
"c.	c #4E452C",
"d.	c #6D644C",
"e.	c #413A31",
"f.	c #2C2D2F",
"g.	c #3D3634",
"h.	c #33291B",
"i.	c #382709",
"j.	c #8E775F",
"k.	c #A58F7F",
"l.	c #9A8879",
"m.	c #877861",
"n.	c #635439",
"o.	c #56482F",
"p.	c #42321B",
"q.	c #38280F",
"r.	c #6D5D45",
"s.	c #36270C",
"t.	c #2F2004",
"u.	c #403119",
"v.	c #2D1D05",
"w.	c #302012",
"x.	c #211001",
"y.	c #1E0A01",
"z.	c #2E1B0E",
"A.	c #3C281A",
"B.	c #2B1A03",
"C.	c #4B3A27",
"D.	c #6A5D46",
"E.	c #6C6246",
"F.	c #514131",
"G.	c #332925",
"H.	c #8D786C",
"I.	c #3E2F22",
"J.	c #5D5142",
"K.	c #9B8F80",
"L.	c #857565",
"M.	c #7D6B58",
"N.	c #978971",
"O.	c #7D6F58",
"P.	c #67543E",
"Q.	c #59432E",
"R.	c #67533E",
"S.	c #4D3B26",
"T.	c #372512",
"U.	c #271602",
"V.	c #33210D",
"W.	c #43301F",
"X.	c #432E23",
"Y.	c #3B261D",
"Z.	c #665549",
"`.	c #2C1B0D",
" +	c #2A1403",
".+	c #2F1703",
"++	c #473121",
"@+	c #675445",
"#+	c #9A8A7B",
"$+	c #9B9373",
"%+	c #7B6349",
"&+	c #523D2F",
"*+	c #24323E",
"=+	c #161F25",
"-+	c #685944",
";+	c #382406",
">+	c #634F38",
",+	c #7A6B5B",
"'+	c #8C7C6A",
")+	c #9F8B73",
"!+	c #96866F",
"~+	c #857A66",
"{+	c #80715D",
"]+	c #655641",
"^+	c #5D4F37",
"/+	c #43351E",
"(+	c #281A03",
"_+	c #5F503C",
":+	c #74654F",
"<+	c #826A5B",
"[+	c #816C5C",
"}+	c #635840",
"|+	c #70614D",
"1+	c #77594E",
"2+	c #2F1603",
"3+	c #4E4226",
"4+	c #675E47",
"5+	c #938478",
"6+	c #A39B86",
"7+	c #7D674C",
"8+	c #6A503E",
"9+	c #202D31",
"0+	c #010E1D",
"a+	c #544A38",
"b+	c #342305",
"c+	c #392711",
"d+	c #827361",
"e+	c #9F907E",
"f+	c #9F8A72",
"g+	c #AB9580",
"h+	c #9B8B79",
"i+	c #9B8B77",
"j+	c #70614A",
"k+	c #5B4D35",
"l+	c #2D1F04",
"m+	c #524330",
"n+	c #7C6C57",
"o+	c #82735C",
"p+	c #7B6652",
"q+	c #8A7762",
"r+	c #706648",
"s+	c #453821",
"t+	c #563D31",
"u+	c #271202",
"v+	c #423922",
"w+	c #514A32",
"x+	c #665B48",
"y+	c #74644D",
"z+	c #8A765E",
"A+	c #625043",
"B+	c #4D6671",
"C+	c #2D2519",
"D+	c #493723",
"E+	c #68563D",
"F+	c #837762",
"G+	c #7E6F5B",
"H+	c #A38D78",
"I+	c #A8907C",
"J+	c #A38F7E",
"K+	c #9F8D7A",
"L+	c #7F7057",
"M+	c #675940",
"N+	c #3C2E1A",
"O+	c #72634D",
"P+	c #81715A",
"Q+	c #86785D",
"R+	c #84715B",
"S+	c #7E6A53",
"T+	c #726644",
"U+	c #42351A",
"V+	c #2F1C0F",
"W+	c #251303",
"X+	c #302511",
"Y+	c #42391D",
"Z+	c #4F4225",
"`+	c #746246",
" @	c #564B39",
".@	c #34322C",
"+@	c #110601",
"@@	c #7C6855",
"#@	c #A59076",
"$@	c #7B7058",
"%@	c #8C816A",
"&@	c #A3927B",
"*@	c #A58F7B",
"=@	c #A39180",
"-@	c #94836F",
";@	c #83735C",
">@	c #7C6B53",
",@	c #7B6A52",
"'@	c #443421",
")@	c #604F3B",
"!@	c #4D3D28",
"~@	c #6F5F45",
"{@	c #6B5B45",
"]@	c #6C5C44",
"^@	c #61502F",
"/@	c #5B492E",
"(@	c #291909",
"_@	c #26140D",
":@	c #281903",
"<@	c #392806",
"[@	c #473414",
"}@	c #7E6D4E",
"|@	c #7A7563",
"1@	c #414B4B",
"2@	c #1A191D",
"3@	c #4A3B2E",
"4@	c #8B745C",
"5@	c #796B52",
"6@	c #766D54",
"7@	c #96886F",
"8@	c #82725C",
"9@	c #837462",
"0@	c #83745E",
"a@	c #7A6951",
"b@	c #6A5A44",
"c@	c #443423",
"d@	c #463624",
"e@	c #483824",
"f@	c #5F4F36",
"g@	c #6E5F49",
"h@	c #62523A",
"i@	c #645234",
"j@	c #332104",
"k@	c #170001",
"l@	c #190201",
"m@	c #261602",
"n@	c #453118",
"o@	c #61492B",
"p@	c #715A44",
"q@	c #403A31",
"r@	c #1C292C",
"s@	c #212D35",
"t@	c #493E34",
"u@	c #533D27",
"v@	c #5D4E32",
"w@	c #584B33",
"x@	c #6F6146",
"y@	c #83755C",
"z@	c #73664F",
"A@	c #75664F",
"B@	c #76664D",
"C@	c #5A4935",
"D@	c #352516",
"E@	c #251502",
"F@	c #2A1A03",
"G@	c #443420",
"H@	c #685B44",
"I@	c #71624B",
"J@	c #442F1B",
"K@	c #756A6C",
"L@	c #0A060E",
"M@	c #231D18",
"N@	c #35291E",
"O@	c #372A20",
"P@	c #3C312C",
"Q@	c #252429",
"R@	c #3B4B5C",
"S@	c #404239",
"T@	c #7F6D53",
"U@	c #67553A",
"V@	c #594930",
"W@	c #746248",
"X@	c #74644C",
"Y@	c #6A5A42",
"Z@	c #423120",
"`@	c #312115",
" #	c #231102",
".#	c #200C01",
"+#	c #34240F",
"@#	c #453921",
"##	c #36200D",
"$#	c #453433",
"%#	c #1D212B",
"&#	c #061920",
"*#	c #212930",
"=#	c #202C37",
"-#	c #4A6376",
";#	c #363D31",
">#	c #87775D",
",#	c #604D32",
"'#	c #6E5C43",
")#	c #6F5B41",
"!#	c #877058",
"~#	c #614E39",
"{#	c #604D37",
"]#	c #715E47",
"^#	c #6F5C47",
"/#	c #412E1D",
"(#	c #2A1706",
"_#	c #251002",
":#	c #241002",
"<#	c #34220F",
"[#	c #3A2E17",
"}#	c #322506",
"|#	c #382114",
"1#	c #281C1C",
"2#	c #1A3139",
"3#	c #30474C",
"4#	c #6E6959",
"5#	c #7C6851",
"6#	c #4D3A23",
"7#	c #46331E",
"8#	c #37230E",
"9#	c #3F2B19",
"0#	c #3F2916",
"a#	c #3D2816",
"b#	c #342318",
"c#	c #221103",
"d#	c #231208",
"e#	c #241208",
"f#	c #221605",
"g#	c #2A1E14",
"h#	c #221309",
"i#	c #2B3132",
"j#	c #374B59",
"k#	c #29383A",
"l#	c #30322F",
"m#	c #333630",
"n#	c #22201E",
"o#	c #261F16",
"p#	c #241602",
"q#	c #221302",
"r#	c #231302",
"s#	c #281A0D",
"t#	c #210F04",
"u#	c #200801",
"v#	c #210801",
"w#	c #21160A",
"x#	c #180501",
"y#	c #1B0503",
"z#	c #011D29",
"A#	c #0D1C25",
"B#	c #101010",
"C#	c #16150F",
"D#	c #1A160D",
"E#	c #6C655E",
"F#	c #231810",
"G#	c #1F0D01",
"H#	c #211302",
"I#	c #281717",
"J#	c #2D2D38",
"K#	c #526473",
"L#	c #2C333B",
"M#	c #707475",
"N#	c #443D3C",
"O#	c #1C0B01",
"P#	c #2D1A0C",
"Q#	c #271302",
"R#	c #1A0201",
"S#	c #281705",
"T#	c #241A1C",
"U#	c #010119",
"V#	c #091827",
"W#	c #77777A",
"X#	c #21130C",
"Y#	c #231002",
"Z#	c #3E2A1F",
"`#	c #291605",
" $	c #250801",
".$	c #220F04",
"+$	c #242B30",
"@$	c #516E85",
"#$	c #101217",
"$$	c #210F01",
"%$	c #2F1C0E",
"&$	c #2B170F",
"*$	c #1A0804",
"=$	c #212225",
"-$	c #201502",
";$	c #221102",
">$	c #463626",
",$	c #392A1E",
"'$	c #261913",
")$	c #100804",
"!$	c #484947",
"~$	c #1E1101",
"{$	c #36240E",
"]$	c #62513D",
"^$	c #372B1C",
"/$	c #1E1A13",
"($	c #262929",
"_$	c #031639",
":$	c #324A55",
"<$	c #22231E",
"[$	c #291E0E",
"}$	c #332109",
"|$	c #64543F",
"1$	c #3F3729",
"2$	c #5A5A54",
"3$	c #0E1A17",
"4$	c #06264E",
"5$	c #32527A",
"6$	c #243946",
"7$	c #868080",
"8$	c #211613",
"9$	c #413122",
"0$	c #695943",
"a$	c #686C68",
"b$	c #0A1313",
"c$	c #243138",
"d$	c #55686D",
"e$	c #5C5C58",
"f$	c #3B3525",
"g$	c #28281A",
"h$	c #0F1618",
"i$	c #252C33",
"j$	c #1C1E18",
"k$	c #3A3325",
"l$	c #707977",
"m$	c #2A3035",
"n$	c #5A6468",
"o$	c #2C5278",
"p$	c #282522",
"q$	c #423A2D",
"r$	c #353E44",
"s$	c #38454C",
"t$	c #303132",
"u$	c #4D4D44",
"v$	c #4E6471",
"w$	c #5F6D73",
"x$	c #365061",
"y$	c #364555",
"z$	c #5C6C83",
"A$	c #1C3B5D",
"B$	c #1E3C57",
"C$	c #33506B",
"D$	c #042645",
"E$	c #224B6F",
"F$	c #1A436A",
"                                                                                                                                ",
"                                                                                                                                ",
"                                                                                                                                ",
"                                                                                                                                ",
"                                                                . + @ # $ %                                                     ",
"                                                  & * = - ; > , ' ) ! ~ { ] ^                                                   ",
"                                              / ( _ : < < [ } | 1 2 3 4 5 6 7 8 9 0 a                                           ",
"                                            b c d e f g h i j k l m n o p q r s t u v w                                         ",
"                                            x y z A B C D E F G H I J I K L M N O P Q R S                                       ",
"                                        T U V W X Y Z `  ...[ +.@.#.$.%.&.*.=.-.;.>.,.'.).!.                                    ",
"                                      ~.{.].^./.(._.:.<.[.}.|.1.2.3.4.5.6.7.8.9.0.a.b.c.d.e.f.                                  ",
"                                      g.h.i.j.k.l.m.n.o.p.q.r.s.q.t.u.v.w.x.y.z.A.B.C.D.E.F.G.                                  ",
"                                      H.I.J.K.L.M.N.O.P.Q.R.S.T.U.V.W.X.Y.Z.`. +.+++@+#+$+%+&+*+                                ",
"                                    =+-+;+>+,+'+)+!+~+{+]+^+/+(+(+_+:+<+[+}+|+1+2+3+4+5+6+7+8+9+                                ",
"                                    0+a+b+c+d+e+f+g+h+i+j+k+[.l+m+n+o+p+q+r+s+t+u+v+w+x+y+z+A+B+                                ",
"                                      C+D+E+F+G+H+I+J+K+o+L+M+N+O+P+Q+R+S+T+U+V+W+X+Y+Z+`+ @.@                                  ",
"                                      +@@@#@$@%@&@*@=@-@;@>@,@'@)@!@~@{@]@^@/@(@_@:@<@[@}@|@1@                                  ",
"                                      2@3@4@5@6@7@8@9@0@a@]@b@c@d@e@f@g@h@i@j@k@l@m@n@o@p@q@r@                                  ",
"                                      s@t@u@v@w@x@y@z@A@B@B@C@D@E@F@G@H@I@J@z.K@L@M@N@O@P@Q@R@                                  ",
"                                        S@T@U@V@W@T@b@X@Y@b@Z@`@ #.#+#@#[.##$#%#  &#*#=#  -#                                    ",
"                                        ;#>#,#'#)#!#~#{#]#^#/#(#_#:#<#[#}#|#1#    2#                                            ",
"                                        3#4#5#6#7#8#9#0#a#W.b#c#d#e#e#f#g#h#i#j#                                                ",
"                                          k#l#m#n#o#p#q#6.r#s#6.t#u#v#w#x#y#  z#                                                ",
"                                                  A#B#C#D#E#F#G#x._#_#H#6.I#J#                                                  ",
"                                                      K#L#M#N#O#=.P#Q#R#S#T#U#                                                  ",
"                                                          V#W#X#Y#Z#`# $.$+$@$                                                  ",
"                                                            #$F#$$%$8.&$*$                                                      ",
"                                                            =$-$;$>$,$'$)$                                                      ",
"                                                            !$~${$]$^$/$($          _$                                          ",
"                                                          :$<$[$}$|$1$2$3$    4$    5$                                          ",
"                                                          6$7$8$9$0$a$b$c$                                                      ",
"                                                            d$e$f$g$  h$i$                                                      ",
"                                                              j$k$l$  m$n$    o$                                                ",
"                                                              p$q$    r$s$                                                      ",
"                                                              t$u$      v$                                                      ",
"                                                              w$      x$                                                        ",
"                                                              y$                                                                ",
"                                                              z$      A$                                                        ",
"                                                                                                                                ",
"                                                              B$                                                                ",
"                                                                C$                                                              ",
"                                                                                                                                ",
"                                                                D$                                                              ",
"                                                                                                                                ",
"                                                                E$      F$                                                      ",
"                                                                                                                                ",
"                                                                                                                                ",
"                                                                                                                                ",
"                                                                                                                                ",
"                                                                                                                                ",
"                                                                                                                                ",
"                                                                                                                                ",
"                                                                                                                                ",
"                                                                                                                                ",
"                                                                                                                                ",
"                                                                                                                                ",
"                                                                                                                                ",
"                                                                                                                                ",
"                                                                                                                                ",
"                                                                                                                                ",
"                                                                                                                                ",
"                                                                                                                                ",
"                                                                                                                                ",
"                                                                                                                                "};
