/* XPM */
static char * lanceflamme_bas27_xpm[] = {
"64 64 449 2",
"  	c None",
". 	c #172023",
"+ 	c #34343A",
"@ 	c #272E2E",
"# 	c #505D5D",
"$ 	c #44585F",
"% 	c #3C525C",
"& 	c #3F5154",
"* 	c #344046",
"= 	c #515E63",
"- 	c #000901",
"; 	c #363120",
"> 	c #8D776B",
", 	c #775C52",
"' 	c #685347",
") 	c #3C3123",
"! 	c #3E332A",
"~ 	c #1A1617",
"{ 	c #353C46",
"] 	c #243B44",
"^ 	c #303C3D",
"/ 	c #606457",
"( 	c #605E51",
"_ 	c #776C59",
": 	c #453D24",
"< 	c #1C1101",
"[ 	c #32271A",
"} 	c #261A03",
"| 	c #311F04",
"1 	c #593D2A",
"2 	c #472F1E",
"3 	c #54422D",
"4 	c #64563C",
"5 	c #645339",
"6 	c #432F1D",
"7 	c #231302",
"8 	c #1C1304",
"9 	c #363228",
"0 	c #252723",
"a 	c #223041",
"b 	c #1F262F",
"c 	c #6B6554",
"d 	c #4F402D",
"e 	c #473725",
"f 	c #3B2816",
"g 	c #413217",
"h 	c #2E2015",
"i 	c #1B0A06",
"j 	c #332819",
"k 	c #2F1D0A",
"l 	c #30210C",
"m 	c #544C34",
"n 	c #666043",
"o 	c #67623F",
"p 	c #635734",
"q 	c #3C2B15",
"r 	c #271602",
"s 	c #201001",
"t 	c #2D200C",
"u 	c #392E23",
"v 	c #0F151C",
"w 	c #353832",
"x 	c #4F4425",
"y 	c #66543A",
"z 	c #6B5642",
"A 	c #7D6856",
"B 	c #3C2F15",
"C 	c #2C2113",
"D 	c #2D221B",
"E 	c #302511",
"F 	c #442F24",
"G 	c #322317",
"H 	c #443927",
"I 	c #4E412C",
"J 	c #45371D",
"K 	c #39280B",
"L 	c #2D1E04",
"M 	c #322217",
"N 	c #2C2019",
"O 	c #190301",
"P 	c #A99D90",
"Q 	c #05030C",
"R 	c #645B3C",
"S 	c #7E6D57",
"T 	c #8C7666",
"U 	c #7F675A",
"V 	c #635036",
"W 	c #402C1A",
"X 	c #352113",
"Y 	c #443017",
"Z 	c #392715",
"` 	c #2F2316",
" .	c #2A1E16",
"..	c #261505",
"+.	c #382013",
"@.	c #39230C",
"#.	c #382A11",
"$.	c #51442A",
"%.	c #413225",
"&.	c #271803",
"*.	c #1E0D01",
"=.	c #180A07",
"-.	c #192C33",
";.	c #2F495A",
">.	c #2A3846",
",.	c #202630",
"'.	c #524737",
").	c #746255",
"!.	c #725D51",
"~.	c #634B3F",
"{.	c #715A44",
"].	c #341E07",
"^.	c #311805",
"/.	c #39210E",
"(.	c #382E1C",
"_.	c #52524C",
":.	c #3B3534",
"<.	c #27160A",
"[.	c #2F1F05",
"}.	c #392D10",
"|.	c #645737",
"1.	c #312006",
"2.	c #281903",
"3.	c #2F2112",
"4.	c #241506",
"5.	c #281604",
"6.	c #2E1D0F",
"7.	c #4C4436",
"8.	c #181B1A",
"9.	c #192223",
"0.	c #232122",
"a.	c #1D1604",
"b.	c #5D5141",
"c.	c #665546",
"d.	c #695645",
"e.	c #6B5643",
"f.	c #68543E",
"g.	c #34210B",
"h.	c #2D1603",
"i.	c #270C02",
"j.	c #2C231A",
"k.	c #575F57",
"l.	c #696764",
"m.	c #2C1D17",
"n.	c #31230C",
"o.	c #382B0D",
"p.	c #645234",
"q.	c #3E2915",
"r.	c #382A1B",
"s.	c #200D01",
"t.	c #341C08",
"u.	c #2E1703",
"v.	c #73634C",
"w.	c #45423A",
"x.	c #3B3429",
"y.	c #493A2D",
"z.	c #493A26",
"A.	c #3D2E1A",
"B.	c #604E35",
"C.	c #67553A",
"D.	c #6B5D3C",
"E.	c #5C4F32",
"F.	c #4F452D",
"G.	c #271B09",
"H.	c #271715",
"I.	c #312328",
"J.	c #080F07",
"K.	c #1F1F18",
"L.	c #34281D",
"M.	c #443423",
"N.	c #43301B",
"O.	c #503521",
"P.	c #48311F",
"Q.	c #302108",
"R.	c #261C03",
"S.	c #2D1E0D",
"T.	c #432B17",
"U.	c #543C22",
"V.	c #503B21",
"W.	c #5E564E",
"X.	c #2F231D",
"Y.	c #37280B",
"Z.	c #3A2911",
"`.	c #5E4B35",
" +	c #85755B",
".+	c #7E6D53",
"++	c #88795C",
"@+	c #826E55",
"#+	c #77634A",
"$+	c #402E19",
"%+	c #32220F",
"&+	c #2C1709",
"*+	c #1D0301",
"=+	c #41311E",
"-+	c #4A3B27",
";+	c #645542",
">+	c #695A47",
",+	c #64543F",
"'+	c #604E33",
")+	c #5E4734",
"!+	c #503B28",
"~+	c #241A03",
"{+	c #2B1D03",
"]+	c #5E5135",
"^+	c #695D3F",
"/+	c #3A2B17",
"(+	c #43383C",
"_+	c #616C7C",
":+	c #4A4436",
"<+	c #4F4529",
"[+	c #443520",
"}+	c #6B5C47",
"|+	c #7F715A",
"1+	c #867961",
"2+	c #6A5C43",
"3+	c #574730",
"4+	c #705D46",
"5+	c #58462E",
"6+	c #44311C",
"7+	c #2F1B03",
"8+	c #322108",
"9+	c #5A4A33",
"0+	c #66563F",
"a+	c #5A4C31",
"b+	c #4B3C21",
"c+	c #5E4F31",
"d+	c #453519",
"e+	c #3E2B14",
"f+	c #32240E",
"g+	c #211A04",
"h+	c #392718",
"i+	c #48301A",
"j+	c #4A331B",
"k+	c #4F402C",
"l+	c #2A2A30",
"m+	c #141B24",
"n+	c #5D4F3F",
"o+	c #817255",
"p+	c #53442E",
"q+	c #53432F",
"r+	c #7F6F59",
"s+	c #6A5B45",
"t+	c #4D3F27",
"u+	c #43351D",
"v+	c #42321B",
"w+	c #6F5D42",
"x+	c #48351D",
"y+	c #4C3923",
"z+	c #311E08",
"A+	c #4E3B2B",
"B+	c #41311F",
"C+	c #392B10",
"D+	c #514225",
"E+	c #524428",
"F+	c #3B2C18",
"G+	c #281B03",
"H+	c #211F15",
"I+	c #434D4D",
"J+	c #150503",
"K+	c #372016",
"L+	c #3B271A",
"M+	c #211E18",
"N+	c #374E5C",
"O+	c #1B2123",
"P+	c #5C4734",
"Q+	c #7A634B",
"R+	c #4D3A25",
"S+	c #37240C",
"T+	c #7C674F",
"U+	c #6C5840",
"V+	c #3A290E",
"W+	c #44361C",
"X+	c #45381E",
"Y+	c #5E4F33",
"Z+	c #47361D",
"`+	c #5A4735",
" @	c #2F1C13",
".@	c #2F1A17",
"+@	c #1F0301",
"@@	c #34220C",
"#@	c #514128",
"$@	c #564632",
"%@	c #3B2B22",
"&@	c #211602",
"*@	c #050C17",
"=@	c #150A15",
"-@	c #2B272A",
";@	c #374652",
">@	c #2A373B",
",@	c #28210F",
"'@	c #544C3C",
")@	c #372C1B",
"!@	c #362712",
"~@	c #6D553E",
"{@	c #584129",
"]@	c #473218",
"^@	c #433418",
"/@	c #392D12",
"(@	c #2E2104",
"_@	c #463722",
":@	c #392C1C",
"<@	c #1D0501",
"[@	c #301C19",
"}@	c #1E0201",
"|@	c #3A2817",
"1@	c #42301B",
"2@	c #36261E",
"3@	c #21100B",
"4@	c #121121",
"5@	c #1E2B3B",
"6@	c #011120",
"7@	c #1C2826",
"8@	c #021A1A",
"9@	c #221F16",
"0@	c #3F3021",
"a@	c #5B4734",
"b@	c #5C462D",
"c@	c #372809",
"d@	c #3E311A",
"e@	c #5B4C39",
"f@	c #48392A",
"g@	c #241D09",
"h@	c #251A07",
"i@	c #261602",
"j@	c #33210D",
"k@	c #281A09",
"l@	c #1C1010",
"m@	c #150A1E",
"n@	c #345062",
"o@	c #566974",
"p@	c #333031",
"q@	c #453934",
"r@	c #624C3D",
"s@	c #3A2816",
"t@	c #544337",
"u@	c #483731",
"v@	c #25211C",
"w@	c #251C15",
"x@	c #302217",
"y@	c #291A0A",
"z@	c #200801",
"A@	c #261202",
"B@	c #200C01",
"C@	c #1D0B01",
"D@	c #616878",
"E@	c #20202A",
"F@	c #302629",
"G@	c #4D392E",
"H@	c #2C1A03",
"I@	c #2F1F0C",
"J@	c #402E25",
"K@	c #281815",
"L@	c #161213",
"M@	c #877D78",
"N@	c #332720",
"O@	c #2B1C14",
"P@	c #2B1712",
"Q@	c #210704",
"R@	c #230F0B",
"S@	c #1D0A01",
"T@	c #305980",
"U@	c #29323E",
"V@	c #16171A",
"W@	c #1E1106",
"X@	c #190501",
"Y@	c #17060A",
"Z@	c #160D10",
"`@	c #00060B",
" #	c #0C0819",
".#	c #38221E",
"+#	c #270D02",
"@#	c #1E1003",
"##	c #0E0000",
"$#	c #1C0D01",
"%#	c #0B0000",
"&#	c #2D3548",
"*#	c #545C70",
"=#	c #1C3449",
"-#	c #5C6974",
";#	c #100C15",
">#	c #100717",
",#	c #5C5F6C",
"'#	c #01011A",
")#	c #200201",
"!#	c #2E1803",
"~#	c #190A01",
"{#	c #58524D",
"]#	c #1A1303",
"^#	c #080D15",
"/#	c #19283D",
"(#	c #01122B",
"_#	c #4E677B",
":#	c #676E7D",
"<#	c #36271F",
"[#	c #412E1F",
"}#	c #1A0A01",
"|#	c #746A68",
"1#	c #130D08",
"2#	c #384856",
"3#	c #537895",
"4#	c #03263C",
"5#	c #000415",
"6#	c #1E1301",
"7#	c #362615",
"8#	c #1F0C01",
"9#	c #200D0D",
"0#	c #0E0D15",
"a#	c #291E0B",
"b#	c #463323",
"c#	c #37231B",
"d#	c #200F0C",
"e#	c #00000D",
"f#	c #3A5D7D",
"g#	c #3A4E68",
"h#	c #312617",
"i#	c #513F31",
"j#	c #49392F",
"k#	c #271C17",
"l#	c #555A64",
"m#	c #264B71",
"n#	c #081A16",
"o#	c #392E21",
"p#	c #4F4035",
"q#	c #403831",
"r#	c #6C6D65",
"s#	c #53616E",
"t#	c #1A456E",
"u#	c #436A91",
"v#	c #152220",
"w#	c #3B342B",
"x#	c #413730",
"y#	c #646461",
"z#	c #39453F",
"A#	c #647786",
"B#	c #1A2724",
"C#	c #34312A",
"D#	c #403B3A",
"E#	c #374544",
"F#	c #67808F",
"G#	c #232529",
"H#	c #626F6F",
"I#	c #394B57",
"J#	c #1D446F",
"K#	c #19242F",
"L#	c #436A8D",
"M#	c #4D6F80",
"N#	c #153855",
"O#	c #2D567E",
"P#	c #1A436A",
"                                                                                                                                ",
"                                                                                                                                ",
"                                                                                                                                ",
"                                                                                                                                ",
"                                                                . + @ # $                                                       ",
"                                                  % & * =   - ; > , ' ) ! ~ {   ]                                               ",
"                                              ^ / ( _ : < [ } | 1 2 3 4 5 6 7 8 9 0 a                                           ",
"                                            b c d e f g h i j k l m n o p q r s t u v                                           ",
"                                            w x y z A B C D E F G H I J K L M N O P Q                                           ",
"                                              R S T U V W X Y Z `  ...+.@.#.$.%.&.*.=.    -.;.                                  ",
"                                        >.,.  '.).!.~.{.].^./.(.  _.:.<.[.}.|.1.2.3.4.5.6.7.8.                                  ",
"                                        9.0.a.b.c.d.e.f.g.h.i.j.k.  l.m.n.o.p.q.&.r.s.t.u.v.w.                                  ",
"                                        x.y.z.A.B.C.D.E.F.G.H.I.  J.K.L.M.N.O.P.Q.R.S.T.U.V.W.                                  ",
"                                        X.Y.Z.`. +.+++@+#+$+%+&+*+=+-+;+>+,+'+)+!+~+{+]+^+/+(+                                  ",
"                                      _+:+<+[+}+|+1+2+3+4+5+6+7+8+9+0+a+b+c+d+e+f+g+h+i+j+k+l+                                  ",
"                                      m+n+o+p+q+r+s+t+u+v+w+x+y+z+A+B+C+D+E+F+G+H+I+J+K+L+M+N+                                  ",
"                                      O+P+Q+R+S+T+U+V+W+X+Y+Z+`+ @.@+@@@#@$@%@&@*@    =@-@;@                                    ",
"                                      >@,@'@)@!@~@{@]@^@/@(@_@:@<@[@}@|@1@e 2@3@4@    5@6@                                      ",
"                                        7@8@  9@0@a@b@c@d@e@f@g@h@s.i@j@8+%+k@l@m@                                              ",
"                                            n@o@p@q@r@s@d t@u@v@w@x@y@z@A@B@C@  D@                                              ",
"                                                E@F@G@H@I@J@K@L@M@N@O@P@Q@R@S@                                                  ",
"                                          T@    U@V@W@X@Y@Z@`@   #.#+#@###$#%#&#*#=#                                            ",
"                                                  -#;#>#,#      '#)#!#~#{#]#^#  /#(#                                            ",
"                                                    _#          :#<#[#}#|#1#2#                                                  ",
"                                                          3#4#  5#6#7#8#9#0#                                                    ",
"                                                                  a#b#c#d#e#                                                    ",
"                                                            f#g#  h#i#j#k#l#          m#                                        ",
"                                                                n#o#p#q#r#s#    t#    u#                                        ",
"                                                                v#w#x#y#z#A#                                                    ",
"                                                                B#C#D#  E#F#                                                    ",
"                                                                G#H#    I#      J#                                              ",
"                                                                K#          L#                                                  ",
"                                                                  M#      N#                                                    ",
"                                                                                                                                ",
"                                                                                                                                ",
"                                                                                                                                ",
"                                                                                                                                ",
"                                                                                                                                ",
"                                                                                                                                ",
"                                                                  O#                                                            ",
"                                                                                                                                ",
"                                                                                                                                ",
"                                                                                                                                ",
"                                                                                                                                ",
"            P#                                                                                                                  ",
"                                                                                                                                ",
"                                                                                                                                ",
"                                                                                                                                ",
"                                                                                                                                ",
"                                                                                                                                ",
"                                                                                                                                ",
"                                                                                                                                ",
"                                                                                                                                ",
"                                                                                                                                ",
"                                                                                                                                ",
"                                                                                                                                ",
"                                                                                                                                ",
"                                                                                                                                ",
"                                                                                                                                ",
"                                                                                                                                ",
"                                                                                                                                ",
"                                                                                                                                ",
"                                                                                                                                ",
"                                                                                                                                "};
