/* XPM */
static char * lanceflamme_bas28_xpm[] = {
"64 64 352 2",
"  	c None",
". 	c #5C6881",
"+ 	c #667E9B",
"@ 	c #3D4E5B",
"# 	c #161B1B",
"$ 	c #3E3C32",
"% 	c #514D36",
"& 	c #403A2D",
"* 	c #1A1617",
"= 	c #595964",
"- 	c #545B66",
"; 	c #505861",
"> 	c #1A2336",
", 	c #606585",
"' 	c #49555F",
") 	c #323232",
"! 	c #494641",
"~ 	c #5F6768",
"{ 	c #324256",
"] 	c #57605C",
"^ 	c #37382F",
"/ 	c #544638",
"( 	c #543C2A",
"_ 	c #4C4323",
": 	c #5C4F32",
"< 	c #423120",
"[ 	c #221308",
"} 	c #1D1608",
"| 	c #323328",
"1 	c #25292B",
"2 	c #0D141E",
"3 	c #202630",
"4 	c #4B443B",
"5 	c #705C42",
"6 	c #534B33",
"7 	c #645D4D",
"8 	c #2C271C",
"9 	c #2A221A",
"0 	c #1F0C09",
"a 	c #21150E",
"b 	c #130E01",
"c 	c #343123",
"d 	c #403427",
"e 	c #422E24",
"f 	c #433621",
"g 	c #392B0F",
"h 	c #312004",
"i 	c #2A1903",
"j 	c #231A03",
"k 	c #2D2F1D",
"l 	c #808781",
"m 	c #32404C",
"n 	c #445555",
"o 	c #373625",
"p 	c #6A5738",
"q 	c #7A6A54",
"r 	c #685540",
"s 	c #524530",
"t 	c #3A301D",
"u 	c #302012",
"v 	c #35231C",
"w 	c #3F3C3A",
"x 	c #494D4D",
"y 	c #5C6471",
"z 	c #2A1E1E",
"A 	c #200D01",
"B 	c #321E04",
"C 	c #49331F",
"D 	c #332416",
"E 	c #1D1902",
"F 	c #515549",
"G 	c #7A8077",
"H 	c #525659",
"I 	c #222127",
"J 	c #27282C",
"K 	c #3B4C57",
"L 	c #152C3E",
"M 	c #475D60",
"N 	c #333A2F",
"O 	c #7D6F58",
"P 	c #655545",
"Q 	c #6D5845",
"R 	c #5D5037",
"S 	c #2C2309",
"T 	c #2B1D0E",
"U 	c #3C3432",
"V 	c #25303A",
"W 	c #362E39",
"X 	c #302516",
"Y 	c #45331A",
"Z 	c #624A36",
"` 	c #39271A",
" .	c #1B0B01",
"..	c #322B22",
"+.	c #211A15",
"@.	c #201805",
"#.	c #352715",
"$.	c #5A4C3A",
"%.	c #282927",
"&.	c #32495D",
"*.	c #3C4650",
"=.	c #6F7277",
"-.	c #56504B",
";.	c #766552",
">.	c #574835",
",.	c #493A22",
"'.	c #3B2D12",
").	c #2E1B03",
"!.	c #1E0301",
"~.	c #35332E",
"{.	c #213348",
"].	c #1E1A17",
"^.	c #3D331D",
"/.	c #392806",
"(.	c #5C462C",
"_.	c #34210B",
":.	c #362616",
"<.	c #2F2010",
"[.	c #2D1D11",
"}.	c #44311C",
"|.	c #382406",
"1.	c #392B10",
"2.	c #1F201C",
"3.	c #21242C",
"4.	c #615A5A",
"5.	c #302217",
"6.	c #412E21",
"7.	c #69553F",
"8.	c #7C6D54",
"9.	c #766648",
"0.	c #6B5839",
"a.	c #59442A",
"b.	c #331C0F",
"c.	c #060000",
"d.	c #687E7C",
"e.	c #5F7371",
"f.	c #313A3A",
"g.	c #2B2423",
"h.	c #3D3323",
"i.	c #493C1F",
"j.	c #4A3918",
"k.	c #503C24",
"l.	c #4B3925",
"m.	c #3B2C18",
"n.	c #2B1B03",
"o.	c #362316",
"p.	c #39260F",
"q.	c #554327",
"r.	c #352F1A",
"s.	c #5F6269",
"t.	c #3D342C",
"u.	c #3B2917",
"v.	c #483520",
"w.	c #8A765B",
"x.	c #7A6B50",
"y.	c #6E5D3E",
"z.	c #726142",
"A.	c #5B4730",
"B.	c #422F21",
"C.	c #1E160D",
"D.	c #000B01",
"E.	c #000E01",
"F.	c #252119",
"G.	c #3E2D22",
"H.	c #645540",
"I.	c #6E5D3D",
"J.	c #5D4A2C",
"K.	c #503C25",
"L.	c #503F2C",
"M.	c #473924",
"N.	c #221102",
"O.	c #2B1A0A",
"P.	c #36220E",
"Q.	c #464434",
"R.	c #465F6A",
"S.	c #333431",
"T.	c #5A4D36",
"U.	c #47391B",
"V.	c #665837",
"W.	c #6F6244",
"X.	c #41331B",
"Y.	c #493621",
"Z.	c #43331C",
"`.	c #423520",
" +	c #3F3422",
".+	c #3A2D23",
"++	c #291F11",
"@+	c #2E2215",
"#+	c #3B2916",
"$+	c #5E462E",
"%+	c #44321D",
"&+	c #443017",
"*+	c #69543A",
"=+	c #3A2817",
"-+	c #443424",
";+	c #302518",
">+	c #1E1B16",
",+	c #312C27",
"'+	c #2E1F17",
")+	c #3A3226",
"!+	c #141B19",
"~+	c #3F443F",
"{+	c #69573C",
"]+	c #655733",
"^+	c #42361A",
"/+	c #52462C",
"(+	c #55452D",
"_+	c #473A1C",
":+	c #332415",
"<+	c #2E1B06",
"[+	c #422C18",
"}+	c #443119",
"|+	c #46351C",
"1+	c #3B280E",
"2+	c #342305",
"3+	c #463825",
"4+	c #4D4131",
"5+	c #39301A",
"6+	c #44321A",
"7+	c #433118",
"8+	c #3C2917",
"9+	c #30210F",
"0+	c #2C2C2E",
"a+	c #5A5D5D",
"b+	c #181B1C",
"c+	c #384953",
"d+	c #1E1C21",
"e+	c #503929",
"f+	c #51402C",
"g+	c #342E21",
"h+	c #251D16",
"i+	c #57483C",
"j+	c #322004",
"k+	c #251602",
"l+	c #281903",
"m+	c #3D2A15",
"n+	c #5A472C",
"o+	c #4E3C23",
"p+	c #4C3C26",
"q+	c #291A03",
"r+	c #312115",
"s+	c #251502",
"t+	c #35230E",
"u+	c #48371E",
"v+	c #44371B",
"w+	c #392717",
"x+	c #210A01",
"y+	c #181520",
"z+	c #2D3E46",
"A+	c #252D38",
"B+	c #332823",
"C+	c #22201C",
"D+	c #2A2726",
"E+	c #483423",
"F+	c #402C1A",
"G+	c #2E1F04",
"H+	c #44331A",
"I+	c #3B2907",
"J+	c #43341A",
"K+	c #372B1C",
"L+	c #180601",
"M+	c #2A1C16",
"N+	c #210801",
"O+	c #372319",
"P+	c #32220C",
"Q+	c #392E15",
"R+	c #38281D",
"S+	c #190201",
"T+	c #181525",
"U+	c #44627A",
"V+	c #163C5F",
"W+	c #172126",
"X+	c #6C7F86",
"Y+	c #8D9B9B",
"Z+	c #665645",
"`+	c #513B28",
" @	c #261302",
".@	c #43331F",
"+@	c #55442A",
"@@	c #4A3D27",
"#@	c #252318",
"$@	c #292822",
"%@	c #211816",
"&@	c #463632",
"*@	c #19150F",
"=@	c #282016",
"-@	c #2F2211",
";@	c #190B03",
">@	c #3F3F43",
",@	c #040C20",
"'@	c #091D25",
")@	c #45352A",
"!@	c #372318",
"~@	c #22170E",
"{@	c #544C41",
"]@	c #4C4233",
"^@	c #3C3A30",
"/@	c #364242",
"(@	c #121316",
"_@	c #3D3A33",
":@	c #333333",
"<@	c #190801",
"[@	c #656269",
"}@	c #041926",
"|@	c #011B2B",
"1@	c #241A1A",
"2@	c #060003",
"3@	c #767C83",
"4@	c #4F5962",
"5@	c #10161B",
"6@	c #011519",
"7@	c #0B0F05",
"8@	c #66808B",
"9@	c #525961",
"0@	c #1A120F",
"a@	c #020F1E",
"b@	c #061321",
"c@	c #3F5772",
"d@	c #2E4964",
"e@	c #475B67",
"f@	c #0A0A06",
"g@	c #4B525B",
"h@	c #181818",
"i@	c #566377",
"j@	c #061824",
"k@	c #2B496B",
"l@	c #48606D",
"m@	c #161613",
"n@	c #152230",
"o@	c #0F1920",
"p@	c #020403",
"q@	c #010C1F",
"r@	c #213C58",
"s@	c #080A1E",
"t@	c #01041C",
"u@	c #2C374B",
"v@	c #1E293E",
"w@	c #375871",
"x@	c #516881",
"y@	c #263C4C",
"z@	c #3F6882",
"A@	c #516E85",
"B@	c #405D69",
"C@	c #11365E",
"D@	c #516581",
"E@	c #3C4F6D",
"F@	c #6884AB",
"G@	c #366687",
"H@	c #466A8F",
"I@	c #3A6282",
"J@	c #224B74",
"K@	c #103860",
"                                                                                                                                ",
"                                                                                                                                ",
"                                                                                                                                ",
"                                                                                                                                ",
"                                                . +           @ # $ % & * = - ; > ,                                             ",
"                                            ' ) ! ~     {   ] ^ / ( _ : < [ } | 1 2                                             ",
"                                          3 4 5 6 7 8 9 0 a b c d e f g h i j k   l m                                           ",
"                                          n o p q r s t u v w x   y z A B C D E F G H I J K                                     ",
"                                      L   M N O P Q R S T U V       W X Y Z `  ...+.@.#.$.%.                                    ",
"                                    &.*.  =.-.;.>.,.'.).!.~.      {.].^./.(._.:.<.[.}.|.1.2.                                    ",
"                                      3.4.5.6.7.8.9.0.a.b.c.d.e.f.g.h.i.j.k.l.m.n.o.p.q.r.                                      ",
"                                      s.t.u.v.w.x.y.z.A.B.C.D.E.F.G.H.I.J.K.L.M.N.O.P.,.Q.                                      ",
"                                    R.S.T.U.V.W.X.Y.Z.`. +.+++@+#+$+%+&+*+=+-+;+>+,+'+)+!+                                      ",
"                                    ~+{+]+^+/+(+_+:+<+[+}+|+1+2+3+4+5+6+7+8+9+0+    a+b+c+                                      ",
"                                    d+e+f+g+h+i+j+k+l+m+n+o+p+q+r+s+t+u+v+w+x+y+      z+                                        ",
"                                    A+B+C+    D+E+F+G+H+I+J+K+L+M+N+O+P+Q+R+S+T+      U+  V+                                    ",
"                                      W+X+    Y+Z+`+ @.@+@@@#@$@%@&@*@=@-@;@>@,@                                                ",
"                                              '@)@!@~@{@]@^@/@  (@_@  :@<@[@  }@                                                ",
"                                              |@1@2@3@4@5@      6@7@8@9@0@a@                                                    ",
"                                                b@      c@d@    e@f@  g@h@i@  j@                                                ",
"                                                        k@      l@m@n@o@p@    q@r@                                              ",
"                                                                  s@    t@                                                      ",
"                                                                  u@    v@                                                      ",
"                                                                w@x@    y@                                                      ",
"                                                                z@    A@B@    C@                                                ",
"                                                                      D@                                                        ",
"                                                                      E@                                                        ",
"                                                                      F@      G@                                                ",
"                                                                H@                                                              ",
"                                                                I@                                                              ",
"                                                                                                                                ",
"                                                                            J@                                                  ",
"                                                                                                                                ",
"                                                                                                                                ",
"                                                                                                                                ",
"                                                                                                                                ",
"                                                                                                                                ",
"                                                                K@                                                              ",
"                                                                                                                                ",
"                                                                                                                                ",
"                                                                                                                                ",
"                                                                                                                                ",
"                                                                                                                                ",
"                                                                                                                                ",
"                                                                                                                                ",
"                                                                                                                                ",
"                                                                                                                                ",
"                                                                                                                                ",
"                                                                                                                                ",
"                                                                                                                                ",
"                                                                                                                                ",
"                                                                                                                                ",
"                                                                                                                                ",
"                                                                                                                                ",
"                                                                                                                                ",
"                                                                                                                                ",
"                                                                                                                                ",
"                                                                                                                                ",
"                                                                                                                                ",
"                                                                                                                                ",
"                                                                                                                                ",
"                                                                                                                                ",
"                                                                                                                                ",
"                                                                                                                                "};
