/* XPM */
static char * lanceflamme_bas20_xpm[] = {
"63 64 684 2",
"  	c None",
". 	c #303030",
"+ 	c #423028",
"@ 	c #382B1C",
"# 	c #2B322C",
"$ 	c #334A51",
"% 	c #2D2D32",
"& 	c #150E0D",
"* 	c #080603",
"= 	c #060000",
"- 	c #29292F",
"; 	c #293542",
"> 	c #222222",
", 	c #594B3B",
"' 	c #44311B",
") 	c #412B17",
"! 	c #4B3930",
"~ 	c #231611",
"{ 	c #1A120F",
"] 	c #211815",
"^ 	c #260C0B",
"/ 	c #231003",
"( 	c #1D1101",
"_ 	c #3E2A18",
": 	c #563D2C",
"< 	c #48372B",
"[ 	c #171101",
"} 	c #18180C",
"| 	c #313938",
"1 	c #514236",
"2 	c #413319",
"3 	c #4E4122",
"4 	c #5D5033",
"5 	c #695C46",
"6 	c #655945",
"7 	c #36281A",
"8 	c #2A0603",
"9 	c #30060D",
"0 	c #210101",
"a 	c #574939",
"b 	c #816E59",
"c 	c #7D6554",
"d 	c #685345",
"e 	c #5A4D36",
"f 	c #413823",
"g 	c #1D2634",
"h 	c #0E2121",
"i 	c #857468",
"j 	c #87775D",
"k 	c #6A5A44",
"l 	c #635438",
"m 	c #635335",
"n 	c #837455",
"o 	c #6E6044",
"p 	c #706343",
"q 	c #827858",
"r 	c #574432",
"s 	c #2A0A02",
"t 	c #2F1A06",
"u 	c #5F523B",
"v 	c #6A5A42",
"w 	c #6A5C43",
"x 	c #5A4937",
"y 	c #65533C",
"z 	c #3E3015",
"A 	c #251706",
"B 	c #35332D",
"C 	c #826A54",
"D 	c #6E603F",
"E 	c #61523D",
"F 	c #65533E",
"G 	c #766250",
"H 	c #836E5A",
"I 	c #68523E",
"J 	c #6B553D",
"K 	c #756549",
"L 	c #5C523A",
"M 	c #2F1703",
"N 	c #3A2413",
"O 	c #5A4733",
"P 	c #5E4734",
"Q 	c #49331F",
"R 	c #44341D",
"S 	c #514028",
"T 	c #55462B",
"U 	c #3B230D",
"V 	c #1C020E",
"W 	c #2D221A",
"X 	c #604D38",
"Y 	c #5E5638",
"Z 	c #5D4D36",
"` 	c #625140",
" .	c #695847",
"..	c #837460",
"+.	c #675740",
"@.	c #64543B",
"#.	c #56442E",
"$.	c #2F0903",
"%.	c #380203",
"&.	c #380603",
"*.	c #2F0602",
"=.	c #330D03",
"-.	c #321303",
";.	c #47361D",
">.	c #483621",
",.	c #665640",
"'.	c #4F341D",
").	c #361A10",
"!.	c #303644",
"~.	c #202734",
"{.	c #3A2F20",
"].	c #7B6C58",
"^.	c #665C44",
"/.	c #685739",
"(.	c #5E4B36",
"_.	c #402E1A",
":.	c #4E3A23",
"<.	c #4E361C",
"[.	c #462C16",
"}.	c #492411",
"|.	c #833029",
"1.	c #7E2621",
"2.	c #560A08",
"3.	c #461107",
"4.	c #3C0604",
"5.	c #3B1304",
"6.	c #4A3120",
"7.	c #58412F",
"8.	c #6E5B47",
"9.	c #6E5A43",
"0.	c #331503",
"a.	c #2C0D10",
"b.	c #242A30",
"c.	c #524B33",
"d.	c #877760",
"e.	c #634F3C",
"f.	c #66583E",
"g.	c #654D3F",
"h.	c #412117",
"i.	c #3D1504",
"j.	c #470D05",
"k.	c #470305",
"l.	c #510808",
"m.	c #681B17",
"n.	c #63150E",
"o.	c #5B1614",
"p.	c #3C0203",
"q.	c #390206",
"r.	c #380A05",
"s.	c #341108",
"t.	c #361C0A",
"u.	c #58422D",
"v.	c #695846",
"w.	c #3B1E15",
"x.	c #3A080D",
"y.	c #33424E",
"z.	c #273943",
"A.	c #4A4631",
"B.	c #7B6850",
"C.	c #71624C",
"D.	c #605339",
"E.	c #64412F",
"F.	c #511817",
"G.	c #580A16",
"H.	c #792422",
"I.	c #611111",
"J.	c #651C1F",
"K.	c #3F0204",
"L.	c #3D0204",
"M.	c #451715",
"N.	c #340103",
"O.	c #481918",
"P.	c #2E1404",
"Q.	c #2E0902",
"R.	c #4D251F",
"S.	c #3B2C1E",
"T.	c #250A01",
"U.	c #41120D",
"V.	c #303F48",
"W.	c #696964",
"X.	c #41311B",
"Y.	c #473921",
"Z.	c #3E2D20",
"`.	c #410A04",
" +	c #802B22",
".+	c #66060B",
"++	c #5E0C0A",
"@+	c #460908",
"#+	c #350403",
"$+	c #320803",
"%+	c #310D03",
"&+	c #4A2A21",
"*+	c #300403",
"=+	c #431A17",
"-+	c #2C1709",
";+	c #290D05",
">+	c #2C0902",
",+	c #211602",
"'+	c #2F1F0C",
")+	c #3D1809",
"!+	c #444549",
"~+	c #51412C",
"{+	c #45321A",
"]+	c #34160C",
"^+	c #5A1409",
"/+	c #8C271C",
"(+	c #92241A",
"_+	c #560408",
":+	c #3D070A",
"<+	c #2D0C0A",
"[+	c #2E1103",
"}+	c #523A2C",
"|+	c #775D4B",
"1+	c #422919",
"2+	c #391D0F",
"3+	c #271002",
"4+	c #221006",
"5+	c #251002",
"6+	c #372C19",
"7+	c #5F4E3A",
"8+	c #4B2F1F",
"9+	c #595959",
"0+	c #72624A",
"a+	c #685338",
"b+	c #51372C",
"c+	c #4C0B06",
"d+	c #8C3523",
"e+	c #933622",
"f+	c #52120A",
"g+	c #351309",
"h+	c #221302",
"i+	c #2D1903",
"j+	c #63503B",
"k+	c #8D7D62",
"l+	c #756349",
"m+	c #341F06",
"n+	c #381F0F",
"o+	c #462F23",
"p+	c #392B1F",
"q+	c #221702",
"r+	c #493B24",
"s+	c #6B5B42",
"t+	c #6C563C",
"u+	c #1E272A",
"v+	c #28393F",
"w+	c #6C6656",
"x+	c #76664D",
"y+	c #605135",
"z+	c #42391F",
"A+	c #5A442F",
"B+	c #5C3D25",
"C+	c #623E26",
"D+	c #5F3E2D",
"E+	c #6E5945",
"F+	c #786B4F",
"G+	c #86785D",
"H+	c #7F7053",
"I+	c #706346",
"J+	c #65583B",
"K+	c #45371D",
"L+	c #5E4C33",
"M+	c #6D5641",
"N+	c #6A5B47",
"O+	c #6E5F49",
"P+	c #423118",
"Q+	c #6C5A3F",
"R+	c #63533A",
"S+	c #2A373F",
"T+	c #493D30",
"U+	c #56482F",
"V+	c #4C3C24",
"W+	c #504028",
"X+	c #847258",
"Y+	c #89725C",
"Z+	c #8F725D",
"`+	c #53341F",
" @	c #6D513A",
".@	c #8B725B",
"+@	c #837157",
"@@	c #7F6E54",
"#@	c #7A6951",
"$@	c #4A3C25",
"%@	c #52432A",
"&@	c #58482F",
"*@	c #4C3922",
"=@	c #594834",
"-@	c #493723",
";@	c #493820",
">@	c #483A25",
",@	c #584936",
"'@	c #150001",
")@	c #483B24",
"!@	c #5E4F39",
"~@	c #695844",
"{@	c #7C6F51",
"]@	c #81735A",
"^@	c #8D7864",
"/@	c #6E573B",
"(@	c #6B543A",
"_@	c #866E5B",
":@	c #78644D",
"<@	c #695541",
"[@	c #7F6B5A",
"}@	c #443424",
"|@	c #302109",
"1@	c #453620",
"2@	c #7C6B51",
"3@	c #7B6955",
"4@	c #745D49",
"5@	c #3D2F1B",
"6@	c #362A1B",
"7@	c #453A2E",
"8@	c #52483E",
"9@	c #83705B",
"0@	c #766750",
"a@	c #88735E",
"b@	c #7F6E58",
"c@	c #72644B",
"d@	c #7A6B52",
"e@	c #5C4C35",
"f@	c #715D44",
"g@	c #5C4830",
"h@	c #6C5E43",
"i@	c #44351F",
"j@	c #463721",
"k@	c #251602",
"l@	c #624F3A",
"m@	c #806C58",
"n@	c #7D6D5F",
"o@	c #8A735D",
"p@	c #7E6B4F",
"q@	c #5A3F32",
"r@	c #311E06",
"s@	c #58553B",
"t@	c #0B2026",
"u@	c #655643",
"v@	c #85715F",
"w@	c #81725B",
"x@	c #81715A",
"y@	c #6F6148",
"z@	c #7F6C55",
"A@	c #8D725D",
"B@	c #71533E",
"C@	c #6E523C",
"D@	c #695940",
"E@	c #5E4E37",
"F@	c #695941",
"G@	c #392916",
"H@	c #685540",
"I@	c #806F5E",
"J@	c #897059",
"K@	c #432A1A",
"L@	c #422D16",
"M@	c #5E5437",
"N@	c #485765",
"O@	c #0F201F",
"P@	c #5D4B31",
"Q@	c #71604F",
"R@	c #7B6F5A",
"S@	c #847960",
"T@	c #7B6D54",
"U@	c #6D5D45",
"V@	c #847059",
"W@	c #8A6C58",
"X@	c #341303",
"Y@	c #3B1C04",
"Z@	c #806F57",
"`@	c #8A7A61",
" #	c #705D48",
".#	c #6F5C48",
"+#	c #74644D",
"@#	c #775D45",
"##	c #6A583D",
"$#	c #43301B",
"%#	c #483217",
"&#	c #4D3E23",
"*#	c #415963",
"=#	c #374851",
"-#	c #4C3E2F",
";#	c #3E301C",
">#	c #74654B",
",#	c #7E7057",
"'#	c #807259",
")#	c #61533A",
"!#	c #584831",
"~#	c #523F29",
"{#	c #866D58",
"]#	c #7D654F",
"^#	c #62523A",
"/#	c #817159",
"(#	c #71614A",
"_#	c #564631",
":#	c #513E2A",
"<#	c #503623",
"[#	c #352610",
"}#	c #412F1C",
"|#	c #2F1E04",
"1#	c #2B2518",
"2#	c #0D0A0B",
"3#	c #392A16",
"4#	c #554328",
"5#	c #675940",
"6#	c #7D6C54",
"7#	c #6D5F46",
"8#	c #7F6F59",
"9#	c #84745D",
"0#	c #695640",
"a#	c #5D4A34",
"b#	c #6F5F47",
"c#	c #64543E",
"d#	c #6D5D47",
"e#	c #796852",
"f#	c #867260",
"g#	c #725A48",
"h#	c #655640",
"i#	c #3D291B",
"j#	c #2E221B",
"k#	c #091920",
"l#	c #32230B",
"m#	c #391F05",
"n#	c #3B2A13",
"o#	c #493721",
"p#	c #4A3822",
"q#	c #4C3A24",
"r#	c #65553F",
"s#	c #685842",
"t#	c #6A5742",
"u#	c #55432E",
"v#	c #42321E",
"w#	c #7F6E56",
"x#	c #82725A",
"y#	c #837162",
"z#	c #796853",
"A#	c #685F40",
"B#	c #4F352A",
"C#	c #0F141B",
"D#	c #44311E",
"E#	c #462D1C",
"F#	c #3E2B15",
"G#	c #2D1A03",
"H#	c #332104",
"I#	c #412D1A",
"J#	c #5D4A35",
"K#	c #53412C",
"L#	c #52402C",
"M#	c #2E1F04",
"N#	c #807058",
"O#	c #83735B",
"P#	c #877664",
"Q#	c #72654D",
"R#	c #544B2D",
"S#	c #3E2617",
"T#	c #6A543B",
"U#	c #64563E",
"V#	c #523C29",
"W#	c #2F1C05",
"X#	c #322109",
"Y#	c #76634C",
"Z#	c #7E6E58",
"`#	c #5E4B35",
" $	c #443421",
".$	c #392917",
"+$	c #77674E",
"@$	c #6F604A",
"#$	c #88745B",
"$$	c #7C7059",
"%$	c #655A44",
"&$	c #392711",
"*$	c #020C10",
"=$	c #513B25",
"-$	c #675741",
";$	c #3E301E",
">$	c #271A03",
",$	c #685944",
"'$	c #7A674F",
")$	c #806D58",
"!$	c #594634",
"~$	c #443322",
"{$	c #695943",
"]$	c #75644F",
"^$	c #83735C",
"/$	c #756954",
"($	c #3C270F",
"_$	c #000303",
":$	c #5D4B32",
"<$	c #44321B",
"[$	c #281903",
"}$	c #5F503A",
"|$	c #84715A",
"1$	c #77634A",
"2$	c #5C4935",
"3$	c #4F3C29",
"4$	c #463421",
"5$	c #63533B",
"6$	c #6C5C44",
"7$	c #6B5A46",
"8$	c #72614C",
"9$	c #62533D",
"0$	c #67543B",
"a$	c #2C1703",
"b$	c #181B1C",
"c$	c #1F1F18",
"d$	c #453A28",
"e$	c #443119",
"f$	c #4A3419",
"g$	c #3A2608",
"h$	c #3B2C15",
"i$	c #645540",
"j$	c #7E6D57",
"k$	c #412F1A",
"l$	c #412F1B",
"m$	c #56442F",
"n$	c #68563B",
"o$	c #4E3C23",
"p$	c #4B3A22",
"q$	c #64523D",
"r$	c #695641",
"s$	c #5C4630",
"t$	c #38291A",
"u$	c #0B191F",
"v$	c #021018",
"w$	c #363123",
"x$	c #352205",
"y$	c #3B2406",
"z$	c #362305",
"A$	c #514331",
"B$	c #5D4B3D",
"C$	c #5E4A39",
"D$	c #3B2917",
"E$	c #32200C",
"F$	c #301F04",
"G$	c #3D2C14",
"H$	c #433217",
"I$	c #47351B",
"J$	c #422E1C",
"K$	c #4A3728",
"L$	c #413226",
"M$	c #1B2528",
"N$	c #011218",
"O$	c #483E2E",
"P$	c #45321C",
"Q$	c #39260F",
"R$	c #2C1D0B",
"S$	c #402C21",
"T$	c #4A3528",
"U$	c #332015",
"V$	c #382419",
"W$	c #210C01",
"X$	c #39280F",
"Y$	c #3F2D14",
"Z$	c #392617",
"`$	c #332318",
" %	c #1F1816",
".%	c #2F3023",
"+%	c #73634B",
"@%	c #4F3B26",
"#%	c #281A04",
"$%	c #270D02",
"%%	c #2C0C02",
"&%	c #2A1205",
"*%	c #240F02",
"=%	c #44321D",
"-%	c #4A371E",
";%	c #3D2A15",
">%	c #2C1B09",
",%	c #635750",
"'%	c #0F151C",
")%	c #282B1D",
"!%	c #64553A",
"~%	c #705C45",
"{%	c #271604",
"]%	c #2B0F04",
"^%	c #350B0A",
"/%	c #320B06",
"(%	c #230701",
"_%	c #47321D",
":%	c #422E1B",
"<%	c #352211",
"[%	c #1C150D",
"}%	c #01111F",
"|%	c #292929",
"1%	c #362815",
"2%	c #52402A",
"3%	c #2D1607",
"4%	c #2C1404",
"5%	c #2D1503",
"6%	c #2E0103",
"7%	c #2F0604",
"8%	c #260801",
"9%	c #473423",
"0%	c #493120",
"a%	c #392515",
"b%	c #2A1803",
"c%	c #1C120C",
"d%	c #576275",
"e%	c #2B2C3A",
"f%	c #3F3121",
"g%	c #392806",
"h%	c #381F15",
"i%	c #342116",
"j%	c #312211",
"k%	c #2D0302",
"l%	c #330B0D",
"m%	c #402B1F",
"n%	c #40281B",
"o%	c #230D01",
"p%	c #211A11",
"q%	c #232529",
"r%	c #1F3345",
"s%	c #333124",
"t%	c #51401F",
"u%	c #2E2104",
"v%	c #261903",
"w%	c #2A1706",
"x%	c #2E0302",
"y%	c #2C1103",
"z%	c #2D1A0B",
"A%	c #200C01",
"B%	c #190D0A",
"C%	c #364758",
"D%	c #1B2425",
"E%	c #534A34",
"F%	c #453A1C",
"G%	c #2F2109",
"H%	c #321F15",
"I%	c #2B0602",
"J%	c #421E16",
"K%	c #361D07",
"L%	c #241702",
"M%	c #261C18",
"N%	c #05060E",
"O%	c #272928",
"P%	c #372809",
"Q%	c #39270B",
"R%	c #352214",
"S%	c #4F2E1D",
"T%	c #3A230A",
"U%	c #29200A",
"V%	c #0A0401",
"W%	c #67737F",
"X%	c #09335A",
"Y%	c #1C201F",
"Z%	c #332616",
"`%	c #3B2107",
" &	c #503720",
".&	c #68482F",
"+&	c #402306",
"@&	c #27251B",
"#&	c #36484E",
"$&	c #171915",
"%&	c #382317",
"&&	c #57452A",
"*&	c #543E2B",
"=&	c #3F2807",
"-&	c #22221E",
";&	c #312C2A",
">&	c #7A756C",
",&	c #3E311E",
"'&	c #31322D",
")&	c #11181F",
"!&	c #392F1C",
"~&	c #64737D",
"{&	c #323A32",
"]&	c #343430",
"^&	c #323A42",
"/&	c #4A3F2B",
"(&	c #576A75",
"_&	c #282C2E",
":&	c #294E7A",
"<&	c #4B5766",
"[&	c #3B311F",
"}&	c #1F2D36",
"|&	c #30281A",
"1&	c #6C7D8E",
"2&	c #294B66",
"3&	c #304B68",
"4&	c #2B1F15",
"5&	c #667881",
"6&	c #2D231F",
"7&	c #2E577B",
"8&	c #07141F",
"9&	c #192C40",
"0&	c #1E466A",
"a&	c #274D72",
"                                                                                                                              ",
"                                                                                                                              ",
"                                                                                                                              ",
"                                                                                                                              ",
"                                                    . + @ # $       % & * = - ;                                               ",
"                                                  > , ' ) ! ~ { ] ^ / ( _ : < [ }                                             ",
"                                                | 1 2 3 4 5 6 7 8 9 0 a b c d e f g                                           ",
"                                            h i j k l m n o p q r s t u v w x y z A                                           ",
"                                            B C D E F G H I J K L M N O P Q R S T U V                                         ",
"                                            W X Y Z `  ...+.@.#.$.%.&.*.=.-.;.>.,.'.).!.                                      ",
"                                          ~.{.].^./.(._.:.<.[.}.|.1.2.3.4.5.6.7.8.9.0.a.                                      ",
"                                          b.c.d.e.f.g.h.i.j.k.l.m.n.o.p.q.r.s.t.u.v.w.x.y.                                    ",
"                                          z.A.B.C.D.E.F.G.H.I.J.K.L.M.N.N.O.P.Q.R.S.T.U.V.                                    ",
"                                            W.X.Y.Z.`. +.+++@+#+$+%+&+%+*+=+-+;+>+,+'+)+                                      ",
"                                            !+~+{+]+^+/+(+_+:+<+[+}+|+1+2+%+3+4+5+6+7+8+                                      ",
"                                            9+0+a+b+c+d+e+f+g+h+i+j+k+l+m+n+o+p+q+r+s+t+u+                                    ",
"                                          v+w+x+y+z+A+B+C+D+E+F+G+H+I+J+K+L+M+N+O+P+Q+R+S+                                    ",
"                                            T+U+V+W+X+Y+Z+`+ @.@+@@@#@$@%@&@*@=@-@;@>@,@                                      ",
"                                            '@)@!@~@{@]@^@/@(@_@:@<@[@}@|@1@2@3@4@5@6@7@                                      ",
"                                            8@9@0@a@b@c@d@e@f@g@h@i@j@k@l@m@n@o@p@q@r@s@                                      ",
"                                          t@u@v@].w@x@y@z@A@B@C@D@E@F@G@H@m@I@J@p@K@L@M@N@                                    ",
"                                          O@P@Q@R@S@T@U@V@W@X@Y@&@Z@`@,. #.#+#@###$#%#&#*#                                    ",
"                                          =#-#;#>#,#'#)#!#~#{#]#^##@/#(#_#~+:#<#[#}#|#1#                                      ",
"                                            2#3#4#5#6#7#r+5#8#9#0#a#b#c#d#e#f#g#h#i#j#k#                                      ",
"                                              l#m#n#o#p#q#r#s#c#t#u#v#w#Z@x#y#z#A#B#C#                                        ",
"                                              D#E#F#|#G#H#I#J#K#J#L#M#N#O#c@P#Q#R#S#                                          ",
"                                              T#U#V#W#X#L#Y#3@Z#`# $.$+$w @$#$$$%$&$*$                                        ",
"                                              =$D@-$;$>$,$Z@l+'$)$!$~${$,.]$^$/$~+($_$                                        ",
"                                              }@%@:$<$[$}$#@|$1$2$3$4$5$6$7$8$9$0$a$b$                                        ",
"                                              c$d$e$f$g$h$i$j$y k$l$m$n$o$p$q$r$s$t$u$                                        ",
"                                                v$w$x$y$z$A$B$C$D$E$F$G$H$I$J$K$L$M$                                          ",
"                                                  N$O$P$Q$R$S$T$U$V$W$X$Y$I$Z$`$ %                                            ",
"                                                    .%+%@%#%$%%%$%&%*%=%-%;%>%,%'%                                            ",
"                                                    )%!%~%{%]%*.^%/%(%>@_%:%<%[%}%                                            ",
"                                                    |%1%2%3%4%5%6%7%8%9%0%a%b%c%d%                                            ",
"                                                    e%f%g%h%i%j%k%l%]%m%n%o%p%q%r%                                            ",
"                                                      s%t%u%v%w%Q.x%y%z%A%B%C%                                                ",
"                                                      D%E%F%G%H%I%J%K%L%M%N%                                                  ",
"                                                        O%P%Q%R%%%S%T%U%V%W%  X%                                              ",
"                                                          Y%Z%`% &.&+&@&#&                                                    ",
"                                                            $&%&&&*&=&-&                                                      ",
"                                                              ;&5#>&,&'&                                                      ",
"                                                              )&!&~&{&]&                                                      ",
"                                                              ^&/&(&  _&                                                      ",
"                                                      :&      <&[&    }&                                                      ",
"                                                                |&1&2&3&                                                      ",
"                                                                4&5&                                                          ",
"                                                                6&    7&                                                      ",
"                                                                8&                                                            ",
"                                                                9&  0&                                                        ",
"                                                                    a&                                                        ",
"                                                                                                                              ",
"                                                                                                                              ",
"                                                                                                                              ",
"                                                                                                                              ",
"                                                                                                                              ",
"                                                                                                                              ",
"                                                                                                                              ",
"                                                                                                                              ",
"                                                                                                                              ",
"                                                                                                                              ",
"                                                                                                                              ",
"                                                                                                                              ",
"                                                                                                                              "};
