/* XPM */
static char * lanceflamme_bas25_xpm[] = {
"64 64 616 2",
"  	c None",
". 	c #4D5159",
"+ 	c #3D3D3D",
"@ 	c #4B5357",
"# 	c #627278",
"$ 	c #545F58",
"% 	c #32403B",
"& 	c #384A47",
"* 	c #353330",
"= 	c #978674",
"- 	c #9A876F",
"; 	c #61553F",
"> 	c #6A634F",
", 	c #2F2F25",
"' 	c #413D34",
") 	c #655540",
"! 	c #7D6D59",
"~ 	c #877966",
"{ 	c #6D6759",
"] 	c #313128",
"^ 	c #636C69",
"/ 	c #5E6C6C",
"( 	c #606F73",
"_ 	c #314A53",
": 	c #3F4038",
"< 	c #363021",
"[ 	c #524332",
"} 	c #74614B",
"| 	c #715F45",
"1 	c #5A4B30",
"2 	c #55462B",
"3 	c #69573E",
"4 	c #745F4A",
"5 	c #65513F",
"6 	c #66523E",
"7 	c #725B47",
"8 	c #6A543F",
"9 	c #63503B",
"0 	c #4E3F2B",
"a 	c #51442E",
"b 	c #342B17",
"c 	c #3A322A",
"d 	c #646159",
"e 	c #4D5250",
"f 	c #495D6F",
"g 	c #5C7673",
"h 	c #7B7665",
"i 	c #867761",
"j 	c #473724",
"k 	c #4B3C2A",
"l 	c #655745",
"m 	c #655946",
"n 	c #291C03",
"o 	c #5A4B36",
"p 	c #927F67",
"q 	c #AB967E",
"r 	c #887E6A",
"s 	c #7D715C",
"t 	c #63543E",
"u 	c #43331F",
"v 	c #50402B",
"w 	c #53432F",
"x 	c #6C5B48",
"y 	c #322411",
"z 	c #65523B",
"A 	c #7E6A51",
"B 	c #7F7060",
"C 	c #44484A",
"D 	c #5A574A",
"E 	c #6D6040",
"F 	c #524428",
"G 	c #3F3119",
"H 	c #41341D",
"I 	c #433922",
"J 	c #403620",
"K 	c #322812",
"L 	c #95876F",
"M 	c #9F9177",
"N 	c #85795D",
"O 	c #847659",
"P 	c #6A5C40",
"Q 	c #493A20",
"R 	c #382709",
"S 	c #402F18",
"T 	c #5C4933",
"U 	c #483621",
"V 	c #5E4B2D",
"W 	c #695335",
"X 	c #827056",
"Y 	c #4D4A43",
"Z 	c #29262A",
"` 	c #493128",
" .	c #7A674E",
"..	c #897960",
"+.	c #87775E",
"@.	c #54452C",
"#.	c #423118",
"$.	c #3D2A12",
"%.	c #5F4B33",
"&.	c #56442E",
"*.	c #574A34",
"=.	c #7C7059",
"-.	c #84715A",
";.	c #86745A",
">.	c #776549",
",.	c #5C4A2F",
"'.	c #3B2B0C",
").	c #332305",
"!.	c #3E2E0E",
"~.	c #403215",
"{.	c #594C2C",
"].	c #5F4E30",
"^.	c #816F55",
"/.	c #383527",
"(.	c #3F2E28",
"_.	c #654D3F",
":.	c #998874",
"<.	c #A79180",
"[.	c #A48F7D",
"}.	c #776651",
"|.	c #412F1A",
"1.	c #56402B",
"2.	c #4C3421",
"3.	c #614A36",
"4.	c #3F2F1C",
"5.	c #635441",
"6.	c #756451",
"7.	c #6C5D49",
"8.	c #6C5D48",
"9.	c #584A32",
"0.	c #37290F",
"a.	c #3D3016",
"b.	c #44381C",
"c.	c #3A2E0F",
"d.	c #41381C",
"e.	c #4D3D25",
"f.	c #58452F",
"g.	c #524A3A",
"h.	c #22262D",
"i.	c #3B3633",
"j.	c #443424",
"k.	c #6F5C48",
"l.	c #A69481",
"m.	c #A58F7F",
"n.	c #AB9684",
"o.	c #766852",
"p.	c #584934",
"q.	c #503B28",
"r.	c #513B27",
"s.	c #513B28",
"t.	c #4E3E29",
"u.	c #5D5039",
"v.	c #6B5C47",
"w.	c #5F503B",
"x.	c #40311D",
"y.	c #2D2004",
"z.	c #43351D",
"A.	c #51442A",
"B.	c #43351B",
"C.	c #3B3118",
"D.	c #42301B",
"E.	c #7F7462",
"F.	c #203232",
"G.	c #1D262A",
"H.	c #514537",
"I.	c #4B3B29",
"J.	c #352706",
"K.	c #736448",
"L.	c #93826C",
"M.	c #917E68",
"N.	c #807059",
"O.	c #6F664D",
"P.	c #61533B",
"Q.	c #66563D",
"R.	c #3E3016",
"S.	c #44371A",
"T.	c #4C3A20",
"U.	c #4C3A21",
"V.	c #38270C",
"W.	c #37240C",
"X.	c #432F1C",
"Y.	c #473320",
"Z.	c #442E1D",
"`.	c #372814",
" +	c #2F1903",
".+	c #58402D",
"++	c #61523D",
"@+	c #525750",
"#+	c #5A563F",
"$+	c #5E4F3A",
"%+	c #5A4430",
"&+	c #745B44",
"*+	c #7D6D58",
"=+	c #7A6A55",
"-+	c #7F6E58",
";+	c #64543F",
">+	c #63543C",
",+	c #635039",
"'+	c #614F36",
")+	c #514028",
"!+	c #44331C",
"~+	c #3D2C15",
"{+	c #6D5D43",
"]+	c #514229",
"^+	c #4D3D27",
"/+	c #302104",
"(+	c #312209",
"_+	c #503D29",
":+	c #614E39",
"<+	c #493723",
"[+	c #533D2A",
"}+	c #6B5643",
"|+	c #8A7C67",
"1+	c #807058",
"2+	c #4D3E2A",
"3+	c #3A474A",
"4+	c #323D42",
"5+	c #776B56",
"6+	c #7E6C52",
"7+	c #4A3822",
"8+	c #715D46",
"9+	c #7D6851",
"0+	c #837460",
"a+	c #A3917C",
"b+	c #675741",
"c+	c #60503A",
"d+	c #64523B",
"e+	c #635138",
"f+	c #513F27",
"g+	c #3E2D16",
"h+	c #685840",
"i+	c #62523A",
"j+	c #584833",
"k+	c #473823",
"l+	c #322108",
"m+	c #2B1A03",
"n+	c #382613",
"o+	c #5B4832",
"p+	c #766750",
"q+	c #9D937B",
"r+	c #998A6F",
"s+	c #685B44",
"t+	c #374040",
"u+	c #272F33",
"v+	c #695543",
"w+	c #5C432B",
"x+	c #453118",
"y+	c #514128",
"z+	c #70614A",
"A+	c #9D8C7A",
"B+	c #9F8D7A",
"C+	c #9F8D78",
"D+	c #76664F",
"E+	c #52432D",
"F+	c #55452F",
"G+	c #3F2D18",
"H+	c #36240C",
"I+	c #4C3A23",
"J+	c #4F3D25",
"K+	c #5A4A33",
"L+	c #5D4D36",
"M+	c #74644D",
"N+	c #2C1A03",
"O+	c #1E0501",
"P+	c #32200C",
"Q+	c #4F4129",
"R+	c #6A6046",
"S+	c #888168",
"T+	c #948769",
"U+	c #7B6D54",
"V+	c #202C2F",
"W+	c #242A37",
"X+	c #4A3328",
"Y+	c #6C4F35",
"Z+	c #503A1E",
"`+	c #372B0E",
" @	c #695C46",
".@	c #9E8D7B",
"+@	c #887963",
"@@	c #82715C",
"#@	c #7D6C56",
"$@	c #6C5C44",
"%@	c #706048",
"&@	c #51422B",
"*@	c #4C3A24",
"=@	c #7C6851",
"-@	c #887861",
";@	c #806F59",
">@	c #483924",
",@	c #463623",
"'@	c #34220F",
")@	c #230F01",
"!@	c #3C291C",
"~@	c #41311D",
"{@	c #5F5239",
"]@	c #5A513A",
"^@	c #73654A",
"/@	c #655842",
"(@	c #4A5B65",
"_@	c #352822",
":@	c #452D17",
"<@	c #382205",
"[@	c #483C23",
"}@	c #786C56",
"|@	c #83705B",
"1@	c #9E8E78",
"2@	c #9D8D77",
"3@	c #A3927B",
"4@	c #82725B",
"5@	c #7D6C54",
"6@	c #78674F",
"7@	c #4E3E27",
"8@	c #66563F",
"9@	c #7E6D57",
"0@	c #86765F",
"a@	c #6B5B45",
"b@	c #3E2E1B",
"c@	c #261302",
"d@	c #210C01",
"e@	c #3E2A1F",
"f@	c #392513",
"g@	c #64503C",
"h@	c #63513A",
"i@	c #302514",
"j@	c #343535",
"k@	c #5D4C3A",
"l@	c #47341D",
"m@	c #4C3D28",
"n@	c #70634C",
"o@	c #5B4730",
"p@	c #9E8C77",
"q@	c #8E7F69",
"r@	c #A69680",
"s@	c #968770",
"t@	c #81715A",
"u@	c #7A6951",
"v@	c #74644C",
"w@	c #4B3B25",
"x@	c #716149",
"y@	c #877760",
"z@	c #6A5A42",
"A@	c #3F301A",
"B@	c #2F2106",
"C@	c #2E1B03",
"D@	c #3A271C",
"E@	c #38220D",
"F@	c #58422D",
"G@	c #58452D",
"H@	c #615341",
"I@	c #304246",
"J@	c #403A2B",
"K@	c #51422F",
"L@	c #3A2A19",
"M@	c #554632",
"N@	c #48361C",
"O@	c #63533D",
"P@	c #A59581",
"Q@	c #9B8B75",
"R@	c #7D6D57",
"S@	c #72624B",
"T@	c #4A3A24",
"U@	c #5B4B34",
"V@	c #675740",
"W@	c #6B5B42",
"X@	c #483922",
"Y@	c #220D01",
"Z@	c #39251A",
"`@	c #3D2B16",
" #	c #49381E",
".#	c #725F41",
"+#	c #786853",
"@#	c #3D525C",
"##	c #2F2C1E",
"$#	c #3F3121",
"%#	c #372716",
"&#	c #433116",
"*#	c #52442E",
"=#	c #A1917D",
"-#	c #9F8F79",
";#	c #6F604A",
">#	c #71614A",
",#	c #73634C",
"'#	c #493A23",
")#	c #5C4C35",
"!#	c #68583F",
"~#	c #403119",
"{#	c #352610",
"]#	c #291703",
"^#	c #241002",
"/#	c #311E13",
"(#	c #342605",
"_#	c #493A1E",
":#	c #5A4D30",
"<#	c #705D3E",
"[#	c #81725B",
"}#	c #40555F",
"|#	c #283E44",
"1#	c #1A2424",
"2#	c #221A10",
"3#	c #3D2A1F",
"4#	c #442A1A",
"5#	c #98876F",
"6#	c #705E44",
"7#	c #6D5B42",
"8#	c #614F34",
"9#	c #332204",
"0#	c #503D20",
"a#	c #563B24",
"b#	c #442E18",
"c#	c #3E341C",
"d#	c #453A22",
"e#	c #281502",
"f#	c #251602",
"g#	c #321E04",
"h#	c #4B3317",
"i#	c #4E381A",
"j#	c #6B583C",
"k#	c #575140",
"l#	c #283942",
"m#	c #2E3337",
"n#	c #1C0E06",
"o#	c #2B1703",
"p#	c #3C2C19",
"q#	c #7F715A",
"r#	c #897A63",
"s#	c #76674E",
"t#	c #76664D",
"u#	c #65543A",
"v#	c #54432A",
"w#	c #3F2E16",
"x#	c #3B2A13",
"y#	c #392205",
"z#	c #372205",
"A#	c #30240B",
"B#	c #2B1D03",
"C#	c #341F06",
"D#	c #2F1A03",
"E#	c #201001",
"F#	c #1E1301",
"G#	c #2D2216",
"H#	c #423829",
"I#	c #474236",
"J#	c #1D2424",
"K#	c #2E2F35",
"L#	c #291B0C",
"M#	c #231602",
"N#	c #4D402B",
"O#	c #62573F",
"P#	c #61563D",
"Q#	c #60533A",
"R#	c #4E4028",
"S#	c #443420",
"T#	c #372510",
"U#	c #311F0A",
"V#	c #2F2013",
"W#	c #2F1E04",
"X#	c #33240D",
"Y#	c #352616",
"Z#	c #2A1703",
"`#	c #3A2310",
" $	c #473323",
".$	c #160A01",
"+$	c #55616D",
"@$	c #1E2E3C",
"#$	c #1D2E39",
"$$	c #334654",
"%$	c #322F26",
"&$	c #51422C",
"*$	c #44321B",
"=$	c #423319",
"-$	c #4A3C22",
";$	c #40321A",
">$	c #3D2E1A",
",$	c #311F0D",
"'$	c #240C01",
")$	c #241009",
"!$	c #281A03",
"~$	c #31230F",
"{$	c #231102",
"]$	c #301A0C",
"^$	c #47362A",
"/$	c #40352B",
"($	c #1A2129",
"_$	c #252C2A",
":$	c #4E3D2A",
"<$	c #452F18",
"[$	c #382305",
"}$	c #443117",
"|$	c #3C2910",
"1$	c #392616",
"2$	c #2E1B0C",
"3$	c #250C01",
"4$	c #280D08",
"5$	c #1F0C01",
"6$	c #271703",
"7$	c #271303",
"8$	c #2C1C17",
"9$	c #0D0B05",
"0$	c #00060E",
"a$	c #445E65",
"b$	c #242218",
"c$	c #695B49",
"d$	c #362613",
"e$	c #46331E",
"f$	c #321D04",
"g$	c #291302",
"h$	c #261002",
"i$	c #210A01",
"j$	c #29160C",
"k$	c #2C1403",
"l$	c #2A1706",
"m$	c #240F02",
"n$	c #281710",
"o$	c #040000",
"p$	c #4C626B",
"q$	c #353F40",
"r$	c #232420",
"s$	c #2A221A",
"t$	c #281807",
"u$	c #250D02",
"v$	c #230C01",
"w$	c #220F01",
"x$	c #2F1A06",
"y$	c #2A1611",
"z$	c #27110B",
"A$	c #201208",
"B$	c #263035",
"C$	c #35353A",
"D$	c #201412",
"E$	c #27160D",
"F$	c #220F04",
"G$	c #1E0A01",
"H$	c #200A0D",
"I$	c #21060F",
"J$	c #1B1007",
"K$	c #5E7276",
"L$	c #29343F",
"M$	c #160F15",
"N$	c #210F09",
"O$	c #28150D",
"P$	c #261008",
"Q$	c #342715",
"R$	c #1E0606",
"S$	c #1C0105",
"T$	c #1B120F",
"U$	c #180A07",
"V$	c #2D1915",
"W$	c #1E0D01",
"X$	c #4E3823",
"Y$	c #2F1C05",
"Z$	c #2A1910",
"`$	c #18141B",
" %	c #181B1E",
".%	c #181007",
"+%	c #2E2406",
"@%	c #5A452B",
"#%	c #382815",
"$%	c #302119",
"%%	c #00020B",
"&%	c #1A202F",
"*%	c #161316",
"=%	c #2F210C",
"-%	c #372706",
";%	c #60492C",
">%	c #32261C",
",%	c #424E52",
"'%	c #0D3F5F",
")%	c #06214C",
"!%	c #667077",
"~%	c #2A2215",
"{%	c #533E25",
"]%	c #584329",
"^%	c #2E2404",
"/%	c #241808",
"(%	c #2B3C41",
"_%	c #486E83",
":%	c #57757A",
"<%	c #22241D",
"[%	c #4C3B2B",
"}%	c #3A2916",
"|%	c #1E1902",
"1%	c #25190D",
"2%	c #5B6B75",
"3%	c #295171",
"4%	c #1A1A1A",
"5%	c #4D3631",
"6%	c #292119",
"7%	c #595A4B",
"8%	c #302621",
"9%	c #191919",
"0%	c #49342E",
"a%	c #0C1111",
"b%	c #4D5B51",
"c%	c #393431",
"d%	c #3B5057",
"e%	c #434D4C",
"f%	c #302920",
"g%	c #516563",
"h%	c #262929",
"i%	c #465757",
"j%	c #2D2E28",
"k%	c #112225",
"l%	c #2C3D43",
"m%	c #404747",
"n%	c #203A42",
"o%	c #384A50",
"p%	c #363D41",
"q%	c #0E3247",
"r%	c #3E4B58",
"s%	c #363D45",
"t%	c #224B65",
"u%	c #405360",
"v%	c #394452",
"w%	c #2E4254",
"x%	c #224D75",
"y%	c #164065",
"                                                                                                                                ",
"                                                                                                                                ",
"                                                                                                                                ",
"                                                                                                                                ",
"                                                      . + @ #     $ % &                                                         ",
"                                                    * = - ; > , ' ) ! ~ { ] ^ / (   _                                           ",
"                                                : < [ } | 1 2 3 4 5 6 7 8 9 0 a b c d e f                                       ",
"                                            g h i j k l m n o p q r s t u v w x y z A B C                                       ",
"                                            D E F G H I J K I L M N O P Q R S T U V W X Y                                       ",
"                                          Z `  ...+.@.#.$.%.&.*.=.-.;.>.,.'.).!.~.{.].^./.                                      ",
"                                          (._.:.<.[.}.|.1.2.3.4.5.6.7.8.9.0.a.b.c.d.e.f.g.                                      ",
"                                      h.i.j.k.l.m.n.o.p.q.r.s.t.u.v.w.t x.y.z.A.B.C.D.2.E.F.                                    ",
"                                    G.H.I.J.K.L.M.N.O.O.P.Q.3 R.S.T.U.S V.W.X.Y.Z.`. +.+++@+                                    ",
"                                    #+L $+%+&+*+=+-+;+>+,+'+)+!+~+{+]+^+/+(+_+:+<+[+}+|+1+2+3+                                  ",
"                                  4+5+6+7+8+9+0+a+-+b+c+d+e+f+V.g+@.h+i+j+k+l+m+n+o+p+q+r+s+t+                                  ",
"                                  u+v+w+x+y+z+A+B+C+D+E+F+G+H+I+J+K+L+M+;+}.N+O+P+Q+R+S+T+U+V+                                  ",
"                                  W+X+Y+Z+`+ @.@:.+@@@#@$@%@&@*@=@-@;@D+>@,@'@)@!@~@{@]@^@/@(@                                  ",
"                                    _@:@<@[@}@|@L.1@2@3@4@5@6@7@8@9@0@a@;+b@c@d@e@f@g@8.h@i@                                    ",
"                                    j@k@l@m@n@o@p@q@r@s@t@u@v@w@x@y@8@z@A@B@C@c@D@E@F@<+G@H@                                    ",
"                                    I@J@K@L@M@N@O@P@Q@r@R@S@a@T@U@D+V@W@X@(+Y@)@Z@`@ #y+.#+#@#                                  ",
"                                      ##$#%#w &#*#=#-#1@;#>#,#'#w@V@)#!#~#{#]#^#/#(#_#:#<#[#}#                                  ",
"                                      |#1#2#3#4#~@y@5#=@6#7#8# #9#0#a#b#c#d#P+e#f#g#h#i#j#k#l#                                  ",
"                                          m#n#o#p#q#r#s#t#u#v#w#9#x#y#z#A#B#C#D#E#F#G#H#I#J#                                    ",
"                                            K#L#M#N#O#P#Q#R#S#T#U#V#W#X#Y#Z#`# $.$+$@$#$$$                                      ",
"                                              %$&$*$=$-$;$>$b@,$'$)$!$~${$]$^$/$($                                              ",
"                                              _$:$<$[$}$|$T#1$2$3$4$5$6$7$8$9$0$                                                ",
"                                              a$b$c$d$e$f$g$h$i$j$k$l$m$n$o$                                                    ",
"                                                p$q$r$s$t$'$u$v$w$x$y$z$A$B$                                                    ",
"                                                      C$D$)$E$F$G$i@H$I$J$K$                                                    ",
"                                                      L$M$N$O$P$M#Q$R$S$T$                                                      ",
"                                                          U$V$u$W$X$Y$Z$`$                                                      ",
"                                                           %.%F#+%@%#%$%%%                                                      ",
"                                                          &%*%=%-%;%0.>%,%  '%    )%                                            ",
"                                                            !%~%{%]%^%/%(%                                                      ",
"                                                          _%:%<%[%}%|%1%2%                                                      ",
"                                                        3%    4%5%6%7%8%                                                        ",
"                                                              9%0%a%b%c%d%                                                      ",
"                                                              e%f%  g%h%                                                        ",
"                                                              i%j%    k%                                                        ",
"                                                              l%m%    n%                                                        ",
"                                                              o%p%    q%                                                        ",
"                                                              r%s%    t%                                                        ",
"                                                              u%v%                                                              ",
"                                                                w%                                                              ",
"                                                                                                                                ",
"                                                                                                                                ",
"                                                                                                                                ",
"                                                                x%    y%                                                        ",
"                                                                                                                                ",
"                                                                                                                                ",
"                                                                                                                                ",
"                                                                                                                                ",
"                                                                                                                                ",
"                                                                                                                                ",
"                                                                                                                                ",
"                                                                                                                                ",
"                                                                                                                                ",
"                                                                                                                                ",
"                                                                                                                                ",
"                                                                                                                                ",
"                                                                                                                                ",
"                                                                                                                                ",
"                                                                                                                                ",
"                                                                                                                                "};
