/* XPM */
static char * lanceflamme_bas8_xpm[] = {
"64 64 529 2",
"  	c None",
". 	c #4A5773",
"+ 	c #777789",
"@ 	c #55617D",
"# 	c #465170",
"$ 	c #9DA3B6",
"% 	c #998C99",
"& 	c #928F9D",
"* 	c #94736F",
"= 	c #5F7B9E",
"- 	c #817E81",
"; 	c #994933",
"> 	c #5E6166",
", 	c #9C7159",
"' 	c #CC673C",
") 	c #A16350",
"! 	c #566B8C",
"~ 	c #584858",
"{ 	c #AD5C2C",
"] 	c #E9753F",
"^ 	c #B5522C",
"/ 	c #59352E",
"( 	c #4A3F50",
"_ 	c #9D7054",
": 	c #A05535",
"< 	c #BC6430",
"[ 	c #D9782F",
"} 	c #E3883B",
"| 	c #B35025",
"1 	c #734A32",
"2 	c #623D41",
"3 	c #7B6161",
"4 	c #BB6E33",
"5 	c #CF6F30",
"6 	c #D77937",
"7 	c #DF8438",
"8 	c #E68E3C",
"9 	c #BF6732",
"0 	c #2E0F1E",
"a 	c #897487",
"b 	c #EE863E",
"c 	c #F38A3D",
"d 	c #EE9648",
"e 	c #FDB15F",
"f 	c #FBA850",
"g 	c #D67B3E",
"h 	c #9F766B",
"i 	c #BD9274",
"j 	c #D8833A",
"k 	c #F6AE4C",
"l 	c #E49939",
"m 	c #D2752A",
"n 	c #E17B34",
"o 	c #D3682F",
"p 	c #A26B5B",
"q 	c #AC714C",
"r 	c #DF8D4B",
"s 	c #E59F38",
"t 	c #E5B63C",
"u 	c #FED85B",
"v 	c #F2B948",
"w 	c #D69139",
"x 	c #C8743B",
"y 	c #C89472",
"z 	c #A88E75",
"A 	c #E89743",
"B 	c #FDC858",
"C 	c #E8B93D",
"D 	c #FEF262",
"E 	c #F9F87F",
"F 	c #FEF587",
"G 	c #FEF98E",
"H 	c #F4C455",
"I 	c #E7A447",
"J 	c #C29C5D",
"K 	c #99683E",
"L 	c #F8B549",
"M 	c #F3CF48",
"N 	c #DAAC34",
"O 	c #FEEE78",
"P 	c #F2F0B5",
"Q 	c #F7F7BB",
"R 	c #F2FAB1",
"S 	c #EDD969",
"T 	c #FED65C",
"U 	c #ECB457",
"V 	c #C79870",
"W 	c #B86633",
"X 	c #F3B046",
"Y 	c #FAD84F",
"Z 	c #DFAD38",
"` 	c #FEE889",
" .	c #FFF9E9",
"..	c #FEFEE4",
"+.	c #F6F1AD",
"@.	c #F7F38A",
"#.	c #FED76D",
"$.	c #CE8E54",
"%.	c #72422F",
"&.	c #A53D1C",
"*.	c #D3752D",
"=.	c #F7AD4A",
"-.	c #E3B341",
";.	c #F8EF7E",
">.	c #F8FBDC",
",.	c #F8F4E6",
"'.	c #F0F2E8",
").	c #FDFEF0",
"!.	c #FCFED0",
"~.	c #FCE175",
"{.	c #CC904B",
"].	c #944A27",
"^.	c #E37F3B",
"/.	c #E38C3C",
"(.	c #D17C2C",
"_.	c #EABC43",
":.	c #F2EA70",
"<.	c #F5FBD7",
"[.	c #FBF9ED",
"}.	c #F9FBEE",
"|.	c #FFF9E1",
"1.	c #FEF8C6",
"2.	c #FBD26D",
"3.	c #C98144",
"4.	c #A64E26",
"5.	c #F4B146",
"6.	c #F8C04B",
"7.	c #FCC54C",
"8.	c #E6C03C",
"9.	c #EDD864",
"0.	c #FFFBEF",
"a.	c #F9F7FA",
"b.	c #FFFCF0",
"c.	c #F2EB9E",
"d.	c #FAE282",
"e.	c #EB9F44",
"f.	c #AE6428",
"g.	c #AB6447",
"h.	c #F0B444",
"i.	c #FBCF4D",
"j.	c #FCDB59",
"k.	c #EDD956",
"l.	c #E8DD70",
"m.	c #F6F7EF",
"n.	c #FCFFF2",
"o.	c #F7F8C1",
"p.	c #F4E87D",
"q.	c #EBDF6F",
"r.	c #F2BA5C",
"s.	c #C7854A",
"t.	c #8D6F62",
"u.	c #FDB64F",
"v.	c #F6D24C",
"w.	c #FEF278",
"x.	c #FCF891",
"y.	c #E8E889",
"z.	c #F7F7F5",
"A.	c #F1F7E8",
"B.	c #E7ECA9",
"C.	c #F9E992",
"D.	c #FEE576",
"E.	c #DC9D5A",
"F.	c #DB9E58",
"G.	c #DAAF4C",
"H.	c #FEF1AF",
"I.	c #FFFDD6",
"J.	c #F0EEB3",
"K.	c #FCF6EA",
"L.	c #FCF7F3",
"M.	c #FCFAE7",
"N.	c #F4F4DD",
"O.	c #FCF7B9",
"P.	c #FEF981",
"Q.	c #F5CC69",
"R.	c #BB7F4C",
"S.	c #A86C33",
"T.	c #FEE088",
"U.	c #F8E9B1",
"V.	c #F8F7DA",
"W.	c #F1EECD",
"X.	c #F9F9EF",
"Y.	c #F7F8F0",
"Z.	c #F9FAF2",
"`.	c #E8F1D3",
" +	c #FFFECE",
".+	c #F8EF8C",
"++	c #FEEF8C",
"@+	c #B7773A",
"#+	c #A67466",
"$+	c #DA8956",
"%+	c #E7A74D",
"&+	c #FCE376",
"*+	c #FDF393",
"=+	c #FBF8B5",
"-+	c #FAF6CC",
";+	c #F9FDFE",
">+	c #EFF5F1",
",+	c #F7FAC8",
"'+	c #F9F1B0",
")+	c #FAF090",
"!+	c #FEEB88",
"~+	c #E7A151",
"{+	c #8B4E33",
"]+	c #BD7D62",
"^+	c #E28C3D",
"/+	c #FABF59",
"(+	c #FEF07B",
"_+	c #E8C850",
":+	c #E7C751",
"<+	c #F9E36C",
"[+	c #F5F3C6",
"}+	c #FBF9DD",
"|+	c #FBF6C1",
"1+	c #FEFD9F",
"2+	c #E5E17C",
"3+	c #FEE27C",
"4+	c #F9B355",
"5+	c #E38835",
"6+	c #DD753D",
"7+	c #B9683F",
"8+	c #F1AA4C",
"9+	c #D78F36",
"0+	c #D49536",
"a+	c #FDCB5E",
"b+	c #FCE561",
"c+	c #E9CF4F",
"d+	c #F5DE98",
"e+	c #FEF5C8",
"f+	c #EFE881",
"g+	c #F5EB6D",
"h+	c #EFDA5A",
"i+	c #C99039",
"j+	c #BB7027",
"k+	c #F49744",
"l+	c #D46D3D",
"m+	c #C15F2A",
"n+	c #E0983B",
"o+	c #FCBD51",
"p+	c #EAA53F",
"q+	c #F3BC54",
"r+	c #FEF37C",
"s+	c #F3DB63",
"t+	c #FAE188",
"u+	c #FEF6AA",
"v+	c #DAD162",
"w+	c #FEF486",
"x+	c #F6CB56",
"y+	c #EEAD46",
"z+	c #F5B84F",
"A+	c #F3A84A",
"B+	c #BC5D25",
"C+	c #8D5B4B",
"D+	c #D3682D",
"E+	c #C77129",
"F+	c #FDC354",
"G+	c #F2C248",
"H+	c #F1D159",
"I+	c #FAF696",
"J+	c #F4EE8F",
"K+	c #FEF9B4",
"L+	c #FDFBC1",
"M+	c #EFEFA5",
"N+	c #FCF7A5",
"O+	c #F4DA6B",
"P+	c #FDCA4E",
"Q+	c #F4B946",
"R+	c #E89840",
"S+	c #BA5A23",
"T+	c #924B39",
"U+	c #C45A23",
"V+	c #C45A24",
"W+	c #F3AE4A",
"X+	c #F9D553",
"Y+	c #FEEE71",
"Z+	c #F9F7AA",
"`+	c #FEFEB4",
" @	c #FAF6BB",
".@	c #F6F1B8",
"+@	c #F9F7C1",
"@@	c #F2F9BA",
"#@	c #F5EF85",
"$@	c #F8C94A",
"%@	c #F2AA3F",
"&@	c #D16D2C",
"*@	c #C15928",
"=@	c #9F6655",
"-@	c #CD7638",
";@	c #CE622A",
">@	c #D5712D",
",@	c #DC8432",
"'@	c #E69E4B",
")@	c #E6B181",
"!@	c #FEF3C0",
"~@	c #FEEEBF",
"{@	c #FEF5BD",
"]@	c #FEF1BB",
"^@	c #E7BB7C",
"/@	c #D89D4F",
"(@	c #D98434",
"_@	c #C06725",
":@	c #C6602B",
"<@	c #E47C41",
"[@	c #E9AB60",
"}@	c #E4923B",
"|@	c #DA7F31",
"1@	c #E98036",
"2@	c #DF8339",
"3@	c #D17537",
"4@	c #B3642C",
"5@	c #B7662F",
"6@	c #C26F2D",
"7@	c #AE6424",
"8@	c #C88036",
"9@	c #D78136",
"0@	c #E98A3A",
"a@	c #DA8937",
"b@	c #E79748",
"c@	c #F2AB5E",
"d@	c #E9CF7B",
"e@	c #F2CE56",
"f@	c #F4C853",
"g@	c #F1C148",
"h@	c #EDBF49",
"i@	c #FBBB49",
"j@	c #EEAE47",
"k@	c #F5A94E",
"l@	c #FDAC4B",
"m@	c #F6AA47",
"n@	c #FABE51",
"o@	c #F4BA46",
"p@	c #F7BF49",
"q@	c #F7C64E",
"r@	c #FAC95F",
"s@	c #DDC975",
"t@	c #E9EBAB",
"u@	c #FEEE97",
"v@	c #F8E988",
"w@	c #F6E367",
"x@	c #F3DA65",
"y@	c #F5D351",
"z@	c #F8D453",
"A@	c #F7D34B",
"B@	c #FBD54B",
"C@	c #FBD151",
"D@	c #F0DB5B",
"E@	c #F2D754",
"F@	c #EFE571",
"G@	c #F0EA80",
"H@	c #FEEBA5",
"I@	c #E1DBA9",
"J@	c #D7E0B7",
"K@	c #FEFECD",
"L@	c #F5F9DA",
"M@	c #FBFABD",
"N@	c #FCF4B1",
"O@	c #FBF089",
"P@	c #F9EE81",
"Q@	c #F7EF78",
"R@	c #FAEF77",
"S@	c #F9EC80",
"T@	c #FAF599",
"U@	c #FEF3A3",
"V@	c #FDFBC3",
"W@	c #F2F6C6",
"X@	c #FFFAD8",
"Y@	c #CAD9B8",
"Z@	c #C4D1A6",
"`@	c #F6FCD2",
" #	c #F6FBFF",
".#	c #F6FAFD",
"+#	c #FBFAF6",
"@#	c #FEFBEC",
"##	c #FCF9F0",
"$#	c #F9F9F1",
"%#	c #FBF7EB",
"&#	c #FDF6E7",
"*#	c #FAFAF2",
"=#	c #FEF8F8",
"-#	c #F6F6F8",
";#	c #FAF7E9",
">#	c #B2C5AE",
",#	c #F5F6CC",
"'#	c #FCF4F2",
")#	c #F8F6FB",
"!#	c #FBF6F2",
"~#	c #FDF6EE",
"{#	c #FDF9F8",
"]#	c #F9F9F9",
"^#	c #FCFCF2",
"/#	c #F5F5DD",
"(#	c #F2EFD0",
"_#	c #F7F7ED",
":#	c #FBF1F0",
"<#	c #FBF7EC",
"[#	c #F9F8DB",
"}#	c #E3ECA6",
"|#	c #FFFBD1",
"1#	c #F9F9F7",
"2#	c #F5F8DF",
"3#	c #F4F7DE",
"4#	c #FAFDEC",
"5#	c #F3F7F6",
"6#	c #F8FBF0",
"7#	c #F4FAD0",
"8#	c #EDF7BD",
"9#	c #F6F2F1",
"0#	c #F1F8C7",
"a#	c #E6F0A7",
"b#	c #DAE09C",
"c#	c #F6FCC3",
"d#	c #FAFDDA",
"e#	c #F1F5BD",
"f#	c #F9FBD8",
"g#	c #F8FAE8",
"h#	c #F5F6F8",
"i#	c #F7F9EE",
"j#	c #F1F2C8",
"k#	c #F1F9C0",
"l#	c #FEFAD9",
"m#	c #FFFFE9",
"n#	c #F2F9B3",
"o#	c #ECF5A4",
"p#	c #CAD395",
"q#	c #EBF0AD",
"r#	c #F9FAC4",
"s#	c #F2EFAA",
"t#	c #FEF9DE",
"u#	c #F7F6F2",
"v#	c #FAF8FD",
"w#	c #FDFAE6",
"x#	c #F4F1C1",
"y#	c #F5F8B9",
"z#	c #FAF2AA",
"A#	c #FDFBC5",
"B#	c #F1EEA7",
"C#	c #E6E9A5",
"D#	c #FCF59D",
"E#	c #FBF9AC",
"F#	c #EAE375",
"G#	c #F9F5C8",
"H#	c #F6F7FB",
"I#	c #FCFBE3",
"J#	c #FCFBC6",
"K#	c #F2F0B4",
"L#	c #FCFAC0",
"M#	c #FCF48A",
"N#	c #FDFDA7",
"O#	c #FBF0AD",
"P#	c #CFDC98",
"Q#	c #F6EB91",
"R#	c #FEFC9E",
"S#	c #E7DC66",
"T#	c #FEF7BE",
"U#	c #FBF5F9",
"V#	c #F8FBC9",
"W#	c #F0F5A2",
"X#	c #F4F9A0",
"Y#	c #FEFDAF",
"Z#	c #F4EE79",
"`#	c #FBF9A4",
" $	c #F6EFAB",
".$	c #FBEF9A",
"+$	c #EEE188",
"@$	c #E9E092",
"#$	c #FFFCDC",
"$$	c #F0F1B7",
"%$	c #EEF0AE",
"&$	c #F3F5AA",
"*$	c #F8F8AE",
"=$	c #D5CF75",
"-$	c #FEFBB4",
";$	c #F4EFAD",
">$	c #F4ED9E",
",$	c #F5F2AD",
"'$	c #FEF7DF",
")$	c #F5EEC3",
"!$	c #FFF8D8",
"~$	c #FAF9E3",
"{$	c #FBF8E4",
"]$	c #F0F0BF",
"^$	c #FBFEDB",
"/$	c #FBF9D4",
"($	c #FBF2A7",
"_$	c #E4E19D",
":$	c #DBE097",
"<$	c #F6F696",
"[$	c #F5F4D7",
"}$	c #F9F3F3",
"|$	c #FCF3F6",
"1$	c #F8F8FA",
"2$	c #FBF8EF",
"3$	c #F5F4CA",
"4$	c #FCF794",
"5$	c #CFCF8A",
"6$	c #BBC297",
"7$	c #FDEB89",
"8$	c #F3F69C",
"9$	c #FEFDEB",
"0$	c #F9F5F2",
"a$	c #F2FCF4",
"b$	c #F5FBF9",
"c$	c #F4ED7D",
"d$	c #C3C19B",
"e$	c #EDDE86",
"f$	c #FAF88C",
"g$	c #F9F7BD",
"h$	c #FCF3E7",
"i$	c #FAFCF7",
"j$	c #F4FEF5",
"k$	c #F5FBF1",
"l$	c #FCF5B5",
"m$	c #FCF18A",
"n$	c #E4DD8A",
"o$	c #C0BA8C",
"p$	c #E6D276",
"q$	c #FEDF7C",
"r$	c #FEE497",
"s$	c #FEF4AB",
"t$	c #FEF7AC",
"u$	c #FEF0A4",
"v$	c #FEDB75",
"w$	c #FEDE72",
"x$	c #B2B684",
"y$	c #BA8252",
"z$	c #B0783C",
"A$	c #C99E4F",
"B$	c #CD9B52",
"C$	c #C48A4F",
"D$	c #AD8A5E",
"                                                                                                                                ",
"                                                                                                                                ",
"                                                                                                                                ",
"                                                                                                                                ",
"                                                                                                                                ",
"                                                                                                                                ",
"                                                                                                                                ",
"                                                                                                                                ",
"                                                                                                                                ",
"                                                                                                                                ",
"                                                                                                                                ",
"                                                                                                                                ",
"                                                                                                                                ",
"                                                                                                                                ",
"                                                                                                                                ",
"                                                          .             +                                                       ",
"                                                        @ #             $                                                       ",
"                                                                  %                                                             ",
"                                                              &   *                                                             ",
"                                                        =       - ;                                                             ",
"                                                              > , ' )     !                                                     ",
"                                                        ~       { ] ^ /   (                                                     ",
"                                                          _ : < [ } | 1 2 3                                                     ",
"                                                          4 5 6 7 8 9   0 a                                                     ",
"                                                          b c d e f g h                                                         ",
"                                                        i j k l m n o p                                                         ",
"                                                      q r s t u v w x y                                                         ",
"                                                    z A B C D E F G H I J                                                       ",
"                                                    K L M N O P Q R S T U V                                                     ",
"                                                    W X Y Z `  . ...+.@.#.$.                                                    ",
"                                                  %.&.*.=.-.;.>.,.'.).!.~.{.                                                    ",
"                                                  ].^./.(._.:.<.[.}.|.1.2.3.                                                    ",
"                                                  4.5.6.7.8.9.0.a.b.c.d.e.f.                                                    ",
"                                                  g.h.i.j.k.l.m.n.o.p.q.r.s.                                                    ",
"                                                  t.u.v.w.x.y.z.A.B.C.@.D.E.                                                    ",
"                                                    F.G.H.I.J.K.L.M.N.O.P.Q.R.                                                  ",
"                                                    S.T.U.V.W.X.Y.Z.`. +.+++@+                                                  ",
"                                                #+$+%+&+*+=+-+;+>+}.,+'+)+!+~+{+                                                ",
"                                                ]+^+/+(+_+:+<+[+}+|+1+2+3+4+5+6+                                                ",
"                                                7+8+9+0+a+b+c+d+e+f+g+h+i+j+k+l+                                                ",
"                                                m+n+o+p+q+r+s+t+u+v+w+x+y+z+A+B+C+                                              ",
"                                                D+E+F+G+H+I+J+K+L+M+N+O+P+Q+R+S+T+                                              ",
"                                                U+V+W+X+Y+Z+`+ @.@+@@@#@$@%@&@*@=@                                              ",
"                                                -@;@>@,@'@)@!@~@{@]@^@/@(@_@:@<@                                                ",
"                                                [@}@|@1@2@3@4@5@6@7@8@9@0@a@b@c@                                                ",
"                                                d@e@f@g@h@i@j@k@l@m@n@o@p@q@r@s@                                                ",
"                                                t@u@v@w@x@y@z@A@B@C@D@E@F@G@H@I@                                                ",
"                                                J@K@L@M@N@O@P@Q@R@S@T@U@V@W@X@Y@                                                ",
"                                                Z@`@ #.#+#@###$#[.%#&#*#=#-#;#                                                  ",
"                                                >#,#'#)#!#~#{#]#^#/#(#_#:#<#[#                                                  ",
"                                                  }#|#1#2#3#4#5#6#7#8#}.9#0#a#                                                  ",
"                                                  b#c#d#e#f#g#h#i#j#k#l#m#n#o#                                                  ",
"                                                  p#q#r#s#t#u#v#w#x#y#z#A#B#C#                                                  ",
"                                                    D#E#F#G#H#I#J#K#L#M#N#O#P#                                                  ",
"                                                    Q#R#S#T#U#V#W#X#Y#Z#`# $                                                    ",
"                                                    .$`++$@$#$$$%$&$*$=$-$;$                                                    ",
"                                                    >$,$'$)$!$~${$]$^$/$($_$                                                    ",
"                                                    :$<$[$}$|$1$2$3$g#>.4$5$                                                    ",
"                                                    6$7$8$9$0$a$b$=#[#@@c$d$                                                    ",
"                                                      e$f$g$h$i$j$k$l$m$n$                                                      ",
"                                                      o$p$q$r$s$t$u$v$w$x$                                                      ",
"                                                          y$z$A$B$C$D$                                                          ",
"                                                                                                                                ",
"                                                                                                                                "};
