/* XPM */
static char * lanceflamme_bas24_xpm[] = {
"64 64 691 2",
"  	c None",
". 	c #3C4142",
"+ 	c #2F302C",
"@ 	c #4B4942",
"# 	c #53524E",
"$ 	c #494941",
"% 	c #343931",
"& 	c #707470",
"* 	c #717371",
"= 	c #454642",
"- 	c #232829",
"; 	c #31393B",
"> 	c #2E393D",
", 	c #514E46",
"' 	c #413629",
") 	c #5F513F",
"! 	c #70614D",
"~ 	c #6F604A",
"{ 	c #72634F",
"] 	c #7E6F5D",
"^ 	c #4B3D2C",
"/ 	c #4C3E2D",
"( 	c #988A77",
"_ 	c #817968",
": 	c #353128",
"< 	c #172531",
"[ 	c #38434B",
"} 	c #3E4146",
"| 	c #211A10",
"1 	c #2C1D08",
"2 	c #88785F",
"3 	c #A6977B",
"4 	c #9C8D72",
"5 	c #75654B",
"6 	c #66543F",
"7 	c #493925",
"8 	c #3D2E1A",
"9 	c #5D4D36",
"0 	c #927E62",
"a 	c #A99679",
"b 	c #837558",
"c 	c #6B634A",
"d 	c #4A4740",
"e 	c #40494C",
"f 	c #586E80",
"g 	c #5E5E5C",
"h 	c #90877C",
"i 	c #867A6B",
"j 	c #513D27",
"k 	c #3F2A11",
"l 	c #8D7A5D",
"m 	c #88795C",
"n 	c #83755A",
"o 	c #57472F",
"p 	c #342106",
"q 	c #392815",
"r 	c #5B4B34",
"s 	c #645339",
"t 	c #7F694C",
"u 	c #6E593A",
"v 	c #5F4E30",
"w 	c #7D6E51",
"x 	c #423725",
"y 	c #1A0E01",
"z 	c #35302F",
"A 	c #182027",
"B 	c #3B4C57",
"C 	c #545650",
"D 	c #88816E",
"E 	c #A2947D",
"F 	c #9D8C73",
"G 	c #877457",
"H 	c #392708",
"I 	c #65553C",
"J 	c #706249",
"K 	c #6B5C46",
"L 	c #4B3B26",
"M 	c #6E5E46",
"N 	c #7A6A54",
"O 	c #695A44",
"P 	c #6F5F49",
"Q 	c #645139",
"R 	c #635036",
"S 	c #614F36",
"T 	c #4D3D28",
"U 	c #655842",
"V 	c #251602",
"W 	c #584336",
"X 	c #6F5D50",
"Y 	c #7A6C61",
"Z 	c #383E3A",
"` 	c #3E4A54",
" .	c #6A5D46",
"..	c #82745B",
"+.	c #80725A",
"@.	c #7F7055",
"#.	c #7A6A4E",
"$.	c #52452B",
"%.	c #40331E",
"&.	c #453724",
"*.	c #483826",
"=.	c #63513D",
"-.	c #988970",
";.	c #AFA18A",
">.	c #82735F",
",.	c #796A56",
"'.	c #51402C",
").	c #3C2A17",
"!.	c #382515",
"~.	c #514132",
"{.	c #5C513C",
"].	c #392917",
"^.	c #765C45",
"/.	c #88694E",
"(.	c #85694E",
"_.	c #766A55",
":.	c #1D292E",
"<.	c #211F18",
"[.	c #5F4C31",
"}.	c #65553E",
"|.	c #64553F",
"1.	c #64543D",
"2.	c #6E5E44",
"3.	c #5B4D35",
"4.	c #423520",
"5.	c #40311F",
"6.	c #291803",
"7.	c #533D2A",
"8.	c #95866E",
"9.	c #94866F",
"0.	c #847863",
"a.	c #7F705C",
"b.	c #675642",
"c.	c #4C3A25",
"d.	c #2F2004",
"e.	c #6F604C",
"f.	c #43331D",
"g.	c #5E4C33",
"h.	c #6F583C",
"i.	c #745D3F",
"j.	c #71644C",
"k.	c #192120",
"l.	c #1C1F1C",
"m.	c #352A1E",
"n.	c #4B381F",
"o.	c #63513A",
"p.	c #614E39",
"q.	c #706046",
"r.	c #51432B",
"s.	c #3E311D",
"t.	c #443521",
"u.	c #2E1A03",
"v.	c #543E29",
"w.	c #71614A",
"x.	c #7C6C57",
"y.	c #7C705B",
"z.	c #7D6E5A",
"A.	c #74644D",
"B.	c #44331C",
"C.	c #332106",
"D.	c #62533D",
"E.	c #46351D",
"F.	c #4A3822",
"G.	c #4D3F27",
"H.	c #66573B",
"I.	c #897A5C",
"J.	c #564B37",
"K.	c #22292C",
"L.	c #302B28",
"M.	c #655643",
"N.	c #6C5C44",
"O.	c #746049",
"P.	c #4A3623",
"Q.	c #483421",
"R.	c #513E28",
"S.	c #6C5841",
"T.	c #62523A",
"U.	c #5C4D37",
"V.	c #312209",
"W.	c #4B3821",
"X.	c #5C462D",
"Y.	c #4A3824",
"Z.	c #72614C",
"`.	c #81715B",
" +	c #75664F",
".+	c #47361C",
"++	c #332204",
"@+	c #302204",
"#+	c #442D16",
"$+	c #39280D",
"%+	c #484028",
"&+	c #4E472F",
"*+	c #635A41",
"=+	c #544C3A",
"-+	c #121616",
";+	c #4F4F4F",
">+	c #75604E",
",+	c #9E9076",
"'+	c #81765A",
")+	c #5D4A35",
"!+	c #36240C",
"~+	c #4A3A25",
"{+	c #94846D",
"]+	c #9D8B76",
"^+	c #91806B",
"/+	c #62523C",
"(+	c #54452F",
"_+	c #4D3D27",
":+	c #46371F",
"<+	c #574730",
"[+	c #6B5B43",
"}+	c #64543E",
"|+	c #473823",
"1+	c #36270F",
"2+	c #423319",
"3+	c #3A2609",
"4+	c #30220A",
"5+	c #3C301A",
"6+	c #3A2B15",
"7+	c #392A0E",
"8+	c #796850",
"9+	c #766B5C",
"0+	c #5E5851",
"a+	c #A89379",
"b+	c #84765B",
"c+	c #64583D",
"d+	c #56462F",
"e+	c #34250C",
"f+	c #51422C",
"g+	c #7A6953",
"h+	c #A2917A",
"i+	c #8B7A65",
"j+	c #82715C",
"k+	c #6A5A44",
"l+	c #44351D",
"m+	c #41311B",
"n+	c #463721",
"o+	c #443520",
"p+	c #372814",
"q+	c #33240A",
"r+	c #42321B",
"s+	c #4D3D25",
"t+	c #685339",
"u+	c #3B2D19",
"v+	c #382916",
"w+	c #392A13",
"x+	c #41311A",
"y+	c #6C5D47",
"z+	c #685C4D",
"A+	c #2F3E47",
"B+	c #3A3122",
"C+	c #8B7A5A",
"D+	c #78694F",
"E+	c #675740",
"F+	c #5F4F36",
"G+	c #64543F",
"H+	c #75654E",
"I+	c #84745D",
"J+	c #7F6D58",
"K+	c #6D5C48",
"L+	c #6D5D47",
"M+	c #54452E",
"N+	c #6F5F47",
"O+	c #322308",
"P+	c #40311A",
"Q+	c #695941",
"R+	c #6B573F",
"S+	c #3D2F1B",
"T+	c #2E2004",
"U+	c #2F2104",
"V+	c #473821",
"W+	c #4D3E2A",
"X+	c #514537",
"Y+	c #222F35",
"Z+	c #342F1D",
"`+	c #5B4E2F",
" @	c #6E5F49",
".@	c #715C49",
"+@	c #44311C",
"@@	c #3F301A",
"#@	c #665640",
"$@	c #887762",
"%@	c #81705B",
"&@	c #70604A",
"*@	c #76664F",
"=@	c #605038",
"-@	c #65553F",
";@	c #61513B",
">@	c #3C2D19",
",@	c #382815",
"'@	c #5A4A35",
")@	c #624E36",
"!@	c #463824",
"~@	c #392813",
"{@	c #2E1F04",
"]@	c #342615",
"^@	c #36271A",
"/@	c #2C2F21",
"(@	c #392F16",
"_@	c #61503D",
":@	c #513B2A",
"<@	c #412D1A",
"[@	c #35230A",
"}@	c #3B2C18",
"|@	c #453621",
"1@	c #5D4C38",
"2@	c #705F4A",
"3@	c #52432D",
"4@	c #4F3F2A",
"5@	c #3E2F19",
"6@	c #42321C",
"7@	c #78674F",
"8@	c #73634C",
"9@	c #594934",
"0@	c #362712",
"a@	c #281903",
"b@	c #2F2106",
"c@	c #6D5A43",
"d@	c #796852",
"e@	c #978775",
"f@	c #655445",
"g@	c #2C2B2A",
"h@	c #3D3420",
"i@	c #463727",
"j@	c #422E1C",
"k@	c #45311F",
"l@	c #2B1C03",
"m@	c #302108",
"n@	c #32230B",
"o@	c #64533E",
"p@	c #3A2B17",
"q@	c #453620",
"r@	c #5F4F37",
"s@	c #241502",
"t@	c #332311",
"u@	c #3C2915",
"v@	c #342610",
"w@	c #55432D",
"x@	c #725F48",
"y@	c #8A7A63",
"z@	c #938570",
"A@	c #887560",
"B@	c #4F4942",
"C@	c #323F3F",
"D@	c #332518",
"E@	c #33260C",
"F@	c #4E3E26",
"G@	c #4E3E29",
"H@	c #9D8C75",
"I@	c #685842",
"J@	c #877760",
"K@	c #83735B",
"L@	c #52432C",
"M@	c #483922",
"N@	c #41311E",
"O@	c #2B1B03",
"P@	c #30210F",
"Q@	c #35230D",
"R@	c #3F2F1C",
"S@	c #43311C",
"T@	c #52402A",
"U@	c #60503A",
"V@	c #746652",
"W@	c #78654F",
"X@	c #5C5445",
"Y@	c #081C1E",
"Z@	c #534537",
"`@	c #52442E",
" #	c #332807",
".#	c #45381E",
"+#	c #6E5E48",
"@#	c #897962",
"##	c #A08F78",
"$#	c #93826C",
"%#	c #867560",
"&#	c #695943",
"*#	c #7F6E58",
"=#	c #74644C",
"-#	c #82725A",
";#	c #73634B",
">#	c #443421",
",#	c #2C1C03",
"'#	c #2D1D08",
")#	c #36240E",
"!#	c #3C2C19",
"~#	c #3E2C17",
"{#	c #503D27",
"]#	c #5C4C36",
"^#	c #594B38",
"/#	c #7A674F",
"(#	c #605646",
"_#	c #485C66",
":#	c #0C1E2D",
"<#	c #3D3325",
"[#	c #473B1A",
"}#	c #362E0C",
"|#	c #372715",
"1#	c #7B6A54",
"2#	c #806F59",
"3#	c #817059",
"4#	c #85755E",
"5#	c #7C6B55",
"6#	c #7A6951",
"7#	c #87755B",
"8#	c #85755B",
"9#	c #61523C",
"0#	c #69583A",
"a#	c #311E08",
"b#	c #240D01",
"c#	c #2E1E04",
"d#	c #36220E",
"e#	c #433019",
"f#	c #594633",
"g#	c #665744",
"h#	c #756750",
"i#	c #87745C",
"j#	c #5A5545",
"k#	c #49666A",
"l#	c #28211D",
"m#	c #47341D",
"n#	c #251202",
"o#	c #3E2E1B",
"p#	c #7D6C56",
"q#	c #95856D",
"r#	c #908069",
"s#	c #887861",
"t#	c #6E5B44",
"u#	c #61533A",
"v#	c #645640",
"w#	c #685943",
"x#	c #402F16",
"y#	c #332111",
"z#	c #240C06",
"A#	c #2A1C03",
"B#	c #362816",
"C#	c #32260C",
"D#	c #322104",
"E#	c #654F38",
"F#	c #715D44",
"G#	c #6F5B43",
"H#	c #705945",
"I#	c #463F3A",
"J#	c #242C36",
"K#	c #3E2D2A",
"L#	c #442F27",
"M#	c #261602",
"N#	c #53412C",
"O#	c #574530",
"P#	c #A19079",
"Q#	c #9F8F78",
"R#	c #70614A",
"S#	c #71624B",
"T#	c #63543E",
"U#	c #685B44",
"V#	c #6A5F4A",
"W#	c #6B5E48",
"X#	c #32200F",
"Y#	c #200C01",
"Z#	c #201101",
"`#	c #302216",
" $	c #201602",
".$	c #553E25",
"+$	c #604830",
"@$	c #68553F",
"#$	c #4D3D33",
"$$	c #2E343D",
"%$	c #434B56",
"&$	c #4D4548",
"*$	c #1E1301",
"=$	c #392817",
"-$	c #473522",
";$	c #4D3B27",
">$	c #6C5944",
",$	c #A7967F",
"'$	c #988871",
")$	c #81715A",
"!$	c #574834",
"~$	c #574833",
"{$	c #645741",
"]$	c #655744",
"^$	c #675843",
"/$	c #483921",
"($	c #4E3A26",
"_$	c #2E1A04",
":$	c #2F1F08",
"<$	c #301911",
"[$	c #200D01",
"}$	c #2D2115",
"|$	c #35271B",
"1$	c #3D3225",
"2$	c #2C2E23",
"3$	c #11191D",
"4$	c #424B52",
"5$	c #221A0D",
"6$	c #342415",
"7$	c #443221",
"8$	c #43311E",
"9$	c #61503C",
"0$	c #8C7C63",
"a$	c #7D6E55",
"b$	c #766750",
"c$	c #51412C",
"d$	c #55452F",
"e$	c #53442D",
"f$	c #3B2815",
"g$	c #321E04",
"h$	c #362106",
"i$	c #392616",
"j$	c #270A06",
"k$	c #1A1012",
"l$	c #0D161B",
"m$	c #242F39",
"n$	c #667881",
"o$	c #1C0C07",
"p$	c #281604",
"q$	c #271803",
"r$	c #5E4D39",
"s$	c #6C5C46",
"t$	c #77674E",
"u$	c #47361E",
"v$	c #382406",
"w$	c #3C2A16",
"x$	c #39280F",
"y$	c #38260F",
"z$	c #341F06",
"A$	c #3C260B",
"B$	c #3D280D",
"C$	c #3D291C",
"D$	c #291F21",
"E$	c #4C6068",
"F$	c #1B1117",
"G$	c #1C0301",
"H$	c #261604",
"I$	c #221302",
"J$	c #3F311E",
"K$	c #58482F",
"L$	c #5F4D34",
"M$	c #5A4830",
"N$	c #45341D",
"O$	c #362205",
"P$	c #332109",
"Q$	c #2C1A03",
"R$	c #322004",
"S$	c #433418",
"T$	c #38281E",
"U$	c #191D24",
"V$	c #20262F",
"W$	c #271A16",
"X$	c #251706",
"Y$	c #2B1D0F",
"Z$	c #302211",
"`$	c #32240C",
" %	c #43331C",
".%	c #44321A",
"+%	c #45321A",
"@%	c #3A280C",
"#%	c #362306",
"$%	c #2F230A",
"%%	c #2F220D",
"&%	c #382C10",
"*%	c #3B302B",
"=%	c #171D2D",
"-%	c #020204",
";%	c #211711",
">%	c #2F231B",
",%	c #291A03",
"'%	c #493820",
")%	c #322108",
"!%	c #2F1C0B",
"~%	c #2B1D03",
"{%	c #2F2211",
"]%	c #251303",
"^%	c #3B2B18",
"/%	c #382F19",
"(%	c #424041",
"_%	c #393C3D",
":%	c #433327",
"<%	c #392711",
"[%	c #321F07",
"}%	c #301D07",
"|%	c #32220C",
"1%	c #261C03",
"2%	c #291A09",
"3%	c #2F1107",
"4%	c #261002",
"5%	c #2A1B0A",
"6%	c #2D1510",
"7%	c #200101",
"8%	c #161806",
"9%	c #34332F",
"0%	c #564633",
"a%	c #5E4F39",
"b%	c #3A341E",
"c%	c #261A04",
"d%	c #281807",
"e%	c #211101",
"f%	c #290C02",
"g%	c #352113",
"h%	c #29140A",
"i%	c #200A01",
"j%	c #727773",
"k%	c #22383C",
"l%	c #40352A",
"m%	c #625037",
"n%	c #34280C",
"o%	c #302312",
"p%	c #231002",
"q%	c #32190A",
"r%	c #503B28",
"s%	c #453723",
"t%	c #412D23",
"u%	c #1D1007",
"v%	c #5F7379",
"w%	c #264263",
"x%	c #182222",
"y%	c #231602",
"z%	c #392410",
"A%	c #372512",
"B%	c #241702",
"C%	c #3D2517",
"D%	c #57452F",
"E%	c #372416",
"F%	c #17110D",
"G%	c #062044",
"H%	c #44403C",
"I%	c #2A2015",
"J%	c #322B1C",
"K%	c #2E1F0E",
"L%	c #503927",
"M%	c #4F3B24",
"N%	c #412E16",
"O%	c #3E2C19",
"P%	c #020306",
"Q%	c #788081",
"R%	c #130D01",
"S%	c #2B1C06",
"T%	c #5C4630",
"U%	c #402D17",
"V%	c #362104",
"W%	c #3E2A19",
"X%	c #25282D",
"Y%	c #181714",
"Z%	c #30220D",
"`%	c #523F28",
" &	c #523C28",
".&	c #3F2815",
"+&	c #45321F",
"@&	c #161D23",
"#&	c #1B3A5B",
"$&	c #2A2C28",
"%&	c #332513",
"&&	c #493A23",
"*&	c #3B2B1A",
"=&	c #34220B",
"-&	c #5A4634",
";&	c #010C17",
">&	c #2C4D69",
",&	c #6B6F6C",
"'&	c #2E1E0A",
")&	c #433A2C",
"!&	c #2D2614",
"~&	c #5A4735",
"{&	c #0A1C24",
"]&	c #021115",
"^&	c #3C2D1F",
"/&	c #413A2B",
"(&	c #898F87",
"_&	c #575B4D",
":&	c #44372E",
"<&	c #394A57",
"[&	c #3D4E55",
"}&	c #291E0E",
"|&	c #2C2E25",
"1&	c #212024",
"2&	c #384B5C",
"3&	c #2F281D",
"4&	c #646F6F",
"5&	c #314354",
"6&	c #20211D",
"7&	c #505F64",
"8&	c #1A2228",
"9&	c #52626A",
"0&	c #465769",
"a&	c #525F6B",
"b&	c #52677E",
"c&	c #535B64",
"d&	c #49596C",
"e&	c #4A5D72",
"f&	c #455B71",
"g&	c #05213A",
"h&	c #264664",
"                                                                                                                                ",
"                                                                                                                                ",
"                                                                                                                                ",
"                                                                                                                                ",
"                                                      . + @ # $ % & * = - ;                                                     ",
"                                                  > , ' ) ! ~ { ] ^ / ! ( _ : <                                                 ",
"                                              [ } | 1 2 3 4 5 6 7 8 9 0 a b c d e                                               ",
"                                          f g h i j k l m n o p q r s t u v w x y z A B                                         ",
"                                          C D E F G H I J K L M N O P Q R S T U V W X Y Z                                       ",
"                                        `  ...+.@.#.$.%.&.*.=.-.;.>.,.'.).!.~.{.].^./.(._.:.                                    ",
"                                        <.[.}.|.1.2.3.4.5.6.7.8.9.0.a.b.c.d.e.8 f.g.h.i.j.k.                                    ",
"                                      l.m.n.o.p.o.q.r.s.t.u.v.w.x.y.z.A.B.C.D.E.F.G.H.I.J.K.                                    ",
"                                    L.M.N.O.P.Q.R.S.T.U.V.W.X.Y.Z.`. +2..+++@+#+$+%+&+*+=+-+                                    ",
"                                  ;+>+,+'+)+!+8 ~+{+]+^+/+(+_+:+<+[+}+|+1+d.2+3+4+5+6+7+8+9+                                    ",
"                                  0+a+b+c+d+e+f+g+h+i+j+k+|+d+l+m+n+o+p+q+r+s+t+u+v+w+x+y+z+A+                                  ",
"                                  B+C+D+E+F+d.G+H+I+J+K+P L+M+s+N+[+L d.O+P+Q+R+S+T+U+V+W+X+Y+                                  ",
"                                  Z+`+ @.@+@@@~+#@L+$@%@&@*@=@U+E+1.-@;@>@,@'@)@!@L ~@{@]@^@                                    ",
"                                  /@(@_@:@<@[@d.}@|@1@2@3@4@5@q+6@}.7@8@9@0@a@p b@f+c@d@e@f@g@                                  ",
"                                    h@i@j@k@l@m@n@~+Z.o@~+p@q@M+[+M+r@k+T s@t@u@v@w@x@y@z@A@B@                                  ",
"                                  C@D@t.E@F@e+G@#@H@]+]+k+I@1.J@K@[+L@M@N@O@P@Q@R@S@T@U@V@W@X@                                  ",
"                                  Y@Z@`@ #.#q++#@###$#%#&#*#=#I+-#;#<+n+>#,#'#)#!#~#{#]#^#/#(#_#                                ",
"                                  :#<#[#}#4+|#1#2#3#4#5#}+2#6#7#8#9#}.0#a#b#c#d#~#e#f#g#h#i#j#k#                                ",
"                                    l#m#~@n#o##@k+I@p#q#r#s#L+t#u#v#w#x#y#z#A#B#C#D#E#F#G#H#I#                                  ",
"                                    J#K#L#M#c#N#O#3@4#P#Q#R#S#T#U#V#W#:+X#Y#Z#`# $++.$+$@$#$$$                                  ",
"                                      %$&$*$=$-$;$>$r#,$'$)$!$~${$]$^$/$($_$:$<$[$}$|$1$2$3$                                    ",
"                                        4$5$6$7$8$9$)$0$a$b$c$E.d$9@e$f$g$h$i$j$k$l$m$n$                                        ",
"                                          o$p$M#q$r$s$t$N+1.u$v$w$x$y$z$A$B$C$D$E$                                              ",
"                                          F$G$H$I$J$;@K$L$M$N$O$P$q+n@Q$R$S$T$U$                                                ",
"                                          V$W$X$Y$Z$`$ %.%+%@%#%t@$%%%I$q@&%*%=%                                                ",
"                                            -%;%>%,%0@'%m##%U+)%!%~%{%]%^%/%(%                                                  ",
"                                                _%:%<%[%}%|%1%2%3%4%5%6%7%8%                                                    ",
"                                                  9%0%a%b%c%d%e%f%g%Z$h%i%j%                                                    ",
"                                                  k%l%m%n%o%p%I$q%r%s%t%u%v%w%                                                  ",
"                                                    x%y%z%A%B%2%C%D%V+E%F%        G%                                            ",
"                                                        H%I%J%K%L%M%N%O%P%                                                      ",
"                                                          Q%R%S%T%U%V%W%X%                                                      ",
"                                                            Y%Z%`% &.&+&@&                                                      ",
"                                                        #&  $&%&&&*&=&-&;&                                                      ",
"                                                        >&  ,&'&4.)&!&~&{&                                                      ",
"                                                            ]&^&/&(&_&:&<&                                                      ",
"                                                            [&}&|&    1&2&                                                      ",
"                                                              3&4&    5&                                                        ",
"                                                              6&7&                                                              ",
"                                                              8&9&                                                              ",
"                                                              0&a&                                                              ",
"                                                              b&c&                                                              ",
"                                                                d&                                                              ",
"                                                                e&                                                              ",
"                                                                f&                                                              ",
"                                                                                                                                ",
"                                                                g&                                                              ",
"                                                                h&                                                              ",
"                                                                                                                                ",
"                                                                                                                                ",
"                                                                                                                                ",
"                                                                                                                                ",
"                                                                                                                                ",
"                                                                                                                                ",
"                                                                                                                                ",
"                                                                                                                                ",
"                                                                                                                                ",
"                                                                                                                                ",
"                                                                                                                                ",
"                                                                                                                                "};
