/* XPM */
static char * lanceflamme_bas30_xpm[] = {
"64 64 178 2",
"  	c None",
". 	c #294667",
"+ 	c #132D51",
"@ 	c #22486D",
"# 	c #1A3F65",
"$ 	c #172943",
"% 	c #2C384D",
"& 	c #1D2F40",
"* 	c #4D6C83",
"= 	c #275776",
"- 	c #546E8F",
"; 	c #01182D",
"> 	c #151E2F",
", 	c #325070",
"' 	c #2E4963",
") 	c #213753",
"! 	c #2B5775",
"~ 	c #345978",
"{ 	c #4E668B",
"] 	c #40587D",
"^ 	c #1E4562",
"/ 	c #404E65",
"( 	c #19222F",
"_ 	c #4D5E69",
": 	c #112B4B",
"< 	c #021933",
"[ 	c #01142B",
"} 	c #152C45",
"| 	c #293E61",
"1 	c #020F33",
"2 	c #4C668D",
"3 	c #435775",
"4 	c #637487",
"5 	c #5A707A",
"6 	c #112C47",
"7 	c #283A4F",
"8 	c #425165",
"9 	c #264167",
"0 	c #354E6F",
"a 	c #5C7496",
"b 	c #283F63",
"c 	c #2A436A",
"d 	c #445C73",
"e 	c #4E6885",
"f 	c #34536F",
"g 	c #45627E",
"h 	c #2D486B",
"i 	c #193846",
"j 	c #152638",
"k 	c #576989",
"l 	c #51698A",
"m 	c #2D4464",
"n 	c #16304C",
"o 	c #121F42",
"p 	c #2F4062",
"q 	c #426181",
"r 	c #46647A",
"s 	c #4C6179",
"t 	c #304464",
"u 	c #64809D",
"v 	c #2C4363",
"w 	c #3B5171",
"x 	c #2A4360",
"y 	c #283A5E",
"z 	c #1C2346",
"A 	c #19244B",
"B 	c #1F3A5E",
"C 	c #597A93",
"D 	c #3D5D7A",
"E 	c #43617A",
"F 	c #466078",
"G 	c #426381",
"H 	c #1E3B58",
"I 	c #6B86A7",
"J 	c #4E6580",
"K 	c #225163",
"L 	c #2C3E61",
"M 	c #1B2045",
"N 	c #4C5A80",
"O 	c #0A3656",
"P 	c #041B35",
"Q 	c #697496",
"R 	c #182340",
"S 	c #031B39",
"T 	c #213B54",
"U 	c #35536C",
"V 	c #537489",
"W 	c #37596D",
"X 	c #122645",
"Y 	c #476183",
"Z 	c #3C5470",
"` 	c #1C3E5D",
" .	c #5A6E85",
"..	c #20243C",
"+.	c #37415A",
"@.	c #516883",
"#.	c #56718A",
"$.	c #4F6C81",
"%.	c #17253F",
"&.	c #596C8D",
"*.	c #55697C",
"=.	c #041725",
"-.	c #061727",
";.	c #636E89",
">.	c #0C1D39",
",.	c #243854",
"'.	c #083350",
").	c #637388",
"!.	c #1E2B37",
"~.	c #2B3D47",
"{.	c #223F57",
"].	c #173346",
"^.	c #183E5D",
"/.	c #5F6A8F",
"(.	c #515979",
"_.	c #182744",
":.	c #213E55",
"<.	c #425E76",
"[.	c #1B324D",
"}.	c #2A3D5C",
"|.	c #283F5C",
"1.	c #122335",
"2.	c #041624",
"3.	c #4B5B67",
"4.	c #4D6B84",
"5.	c #486278",
"6.	c #445B6F",
"7.	c #476075",
"8.	c #5C7A90",
"9.	c #334E71",
"0.	c #213153",
"a.	c #0C2B44",
"b.	c #011630",
"c.	c #021D34",
"d.	c #6384A5",
"e.	c #021B2F",
"f.	c #01071D",
"g.	c #1D313F",
"h.	c #6F8AA3",
"i.	c #2B4156",
"j.	c #243C50",
"k.	c #586F89",
"l.	c #06274A",
"m.	c #173151",
"n.	c #304A6A",
"o.	c #547390",
"p.	c #4C6F88",
"q.	c #193855",
"r.	c #406080",
"s.	c #172B43",
"t.	c #0D2233",
"u.	c #4A5F76",
"v.	c #273E59",
"w.	c #4F6881",
"x.	c #7E97B2",
"y.	c #6887A3",
"z.	c #375370",
"A.	c #507396",
"B.	c #234362",
"C.	c #6481A3",
"D.	c #6A82A0",
"E.	c #3E5573",
"F.	c #3A546E",
"G.	c #032540",
"H.	c #2E4969",
"I.	c #01092C",
"J.	c #14385F",
"K.	c #2D4C76",
"L.	c #3B5881",
"M.	c #2A4E77",
"N.	c #072A4C",
"O.	c #11355D",
"P.	c #305A84",
"Q.	c #062F54",
"R.	c #41688D",
"S.	c #3F6189",
"T.	c #38638D",
"U.	c #2F628B",
"                                                                                                                                ",
"                                                                                                                                ",
"                                                                                                                                ",
"                                                                    . +                                                         ",
"                                              @ #                               $ % & *                                         ",
"                                =                                             - ; >                       , ' )                 ",
"                                !             ~           { ]           ^       / ( _                     : < [ }               ",
"                                                          | 1 2               3 4   5                     6 7 8                 ",
"                                                      9 0 a b c                 d       e f               g                     ",
"                                                  h                               i   j k                                       ",
"                                        l   m n                       o p q         r s t                                       ",
"                                      u v   w x                     y z A B           C D                   E F                 ",
"                                  G H I J                 K         L M N                 O                   P                 ",
"                        Q R S   T U       V W               X Y       Z                                     `                   ",
"                       ...+.@.  #.$.                        %.&.                                                                ",
"                    *.=.-.                                ;.>.,.                  '.                                            ",
"                    ).!.~.      {.      ].    ^.        /.(._.< :.    <.[.}.|.                                                  ",
"                    1.2.3.      4.5.6.7.8.            9.0.    a.b.    c.d.                                                      ",
"                    e.f.g.        h.i.j.k.          l.m.n.    o.p.    q.                                                        ",
"                  r.s.t.u.          v.w.x.y.z.      A.B.C.                                                                      ",
"                                      D.E.F.G.                                                                                  ",
"                                      H.I.                                                                                      ",
"                                                                                                                                ",
"                                                  J.                              K.L.                                          ",
"                                                                    M.                N.  O.                                    ",
"                                                                    P.              Q.R.S.                                      ",
"                                                                                    T.                                          ",
"                                                                                                                                ",
"                                                                                                                                ",
"                                                                                                                                ",
"                                                                                                                                ",
"                                                                                                                                ",
"                                                                                                                                ",
"                                                                                                                                ",
"                                                                                                                                ",
"                                                                U.                                                              ",
"                                                                                                                                ",
"                                                                                                                                ",
"                                                                                                                                ",
"                                                                                                                                ",
"                                                                                                                                ",
"                                                                                                                                ",
"                                                                                                                                ",
"                                                                                                                                ",
"                                                                                                                                ",
"                                                                                                                                ",
"                                                                                                                                ",
"                                                                                                                                ",
"                                                                                                                                ",
"                                                                                                                                ",
"                                                                                                                                ",
"                                                                                                                                ",
"                                                                                                                                ",
"                                                                                                                                ",
"                                                                                                                                ",
"                                                                                                                                ",
"                                                                                                                                ",
"                                                                                                                                ",
"                                                                                                                                ",
"                                                                                                                                ",
"                                                                                                                                ",
"                                                                                                                                ",
"                                                                                                                                ",
"                                                                                                                                "};
