/* XPM */
static char * lanceflamme_bas7_xpm[] = {
"64 64 398 2",
"  	c None",
". 	c #8A8094",
"+ 	c #818DA7",
"@ 	c #876C70",
"# 	c #A2989F",
"$ 	c #8D7469",
"% 	c #774F3B",
"& 	c #BE9581",
"* 	c #AA6240",
"= 	c #BA7852",
"- 	c #A15F33",
"; 	c #D0A999",
"> 	c #B18873",
", 	c #DB7F4F",
"' 	c #7D5750",
") 	c #516A92",
"! 	c #B9A4B0",
"~ 	c #D47D4C",
"{ 	c #C3632B",
"] 	c #AC5F37",
"^ 	c #B46839",
"/ 	c #E37F42",
"( 	c #B88070",
"_ 	c #7288A5",
": 	c #733D2C",
"< 	c #D7763B",
"[ 	c #D56B2B",
"} 	c #DC7132",
"| 	c #CF6629",
"1 	c #EA7D36",
"2 	c #A3512E",
"3 	c #7F8E9D",
"4 	c #725956",
"5 	c #B36036",
"6 	c #E07E3C",
"7 	c #E4823A",
"8 	c #F28B3E",
"9 	c #D2692B",
"0 	c #E57D38",
"a 	c #C5632F",
"b 	c #BE9A7C",
"c 	c #827E7A",
"d 	c #947667",
"e 	c #C6602A",
"f 	c #FDB962",
"g 	c #DF9D3D",
"h 	c #FBA943",
"i 	c #DC7D35",
"j 	c #D57E36",
"k 	c #C06026",
"l 	c #CA7239",
"m 	c #B06D4F",
"n 	c #AB8D73",
"o 	c #C76E2F",
"p 	c #FECB70",
"q 	c #E9BD5C",
"r 	c #FAC75F",
"s 	c #D79234",
"t 	c #E09B39",
"u 	c #CD722C",
"v 	c #F29246",
"w 	c #C57747",
"x 	c #B79470",
"y 	c #D69243",
"z 	c #F6D383",
"A 	c #FEE99F",
"B 	c #FEF1A1",
"C 	c #ECC95D",
"D 	c #E3B746",
"E 	c #E89640",
"F 	c #F8A049",
"G 	c #E29752",
"H 	c #B48149",
"I 	c #E9BA5A",
"J 	c #FCFACC",
"K 	c #F9F8E2",
"L 	c #F6FAE7",
"M 	c #FFFED8",
"N 	c #FEFEBB",
"O 	c #D7AC5A",
"P 	c #FED771",
"Q 	c #ECB359",
"R 	c #BF8642",
"S 	c #E9C360",
"T 	c #F9FBE7",
"U 	c #F7F7F7",
"V 	c #FDF8FC",
"W 	c #FDFAFF",
"X 	c #F9FAE5",
"Y 	c #F0E096",
"Z 	c #FEE886",
"` 	c #E6B95F",
" .	c #C08635",
"..	c #EFD272",
"+.	c #FAFAF8",
"@.	c #FCFBFF",
"#.	c #FDF7FB",
"$.	c #F6F5FB",
"%.	c #F1FBF2",
"&.	c #EFF0B5",
"*.	c #FEEE99",
"=.	c #E6C267",
"-.	c #E4A747",
";.	c #FDF29B",
">.	c #FFF6F7",
",.	c #F8FAF5",
"'.	c #F6FAFD",
").	c #FAFBF5",
"!.	c #EFF8F3",
"~.	c #FBF7E5",
"{.	c #FEF8C3",
"].	c #F3D775",
"^.	c #938177",
"/.	c #A26548",
"(.	c #E9A346",
"_.	c #FEEDA3",
":.	c #F5FAF3",
"<.	c #F1F9EE",
"[.	c #F9FAFF",
"}.	c #F9F8F3",
"|.	c #F7F9F4",
"1.	c #FFFEE2",
"2.	c #F6D47E",
"3.	c #90866B",
"4.	c #A1552D",
"5.	c #E6A844",
"6.	c #FDEDA2",
"7.	c #F3FAF2",
"8.	c #F7F8F2",
"9.	c #FEF4FD",
"0.	c #F9F8F6",
"a.	c #FBF7F8",
"b.	c #F5FBF1",
"c.	c #FBF7D6",
"d.	c #FDD277",
"e.	c #958465",
"f.	c #A35C33",
"g.	c #DDA13F",
"h.	c #F6E19E",
"i.	c #F6F8F5",
"j.	c #F6F7F2",
"k.	c #FCF7FB",
"l.	c #F9F7F8",
"m.	c #F9F9EF",
"n.	c #FEF9CF",
"o.	c #FED371",
"p.	c #A28872",
"q.	c #BB895F",
"r.	c #D49D3F",
"s.	c #FBE2A9",
"t.	c #F8F6F7",
"u.	c #F5FBF9",
"v.	c #F4F9F5",
"w.	c #F8F8F8",
"x.	c #FEF4FF",
"y.	c #F9FBF0",
"z.	c #FEF9C8",
"A.	c #E0BB5B",
"B.	c #9E826E",
"C.	c #9F8260",
"D.	c #FEF084",
"E.	c #F7F3B8",
"F.	c #FAF8FB",
"G.	c #F6F5FA",
"H.	c #F8F9F4",
"I.	c #F5F9F8",
"J.	c #FCF5FC",
"K.	c #F4FCF1",
"L.	c #FEFECD",
"M.	c #F7D776",
"N.	c #9F7863",
"O.	c #A28562",
"P.	c #FEF984",
"Q.	c #E9E5A3",
"R.	c #FAF4F4",
"S.	c #F9F4FB",
"T.	c #FAF9F7",
"U.	c #F5F9FA",
"V.	c #FEF0C0",
"W.	c #FEDA7C",
"X.	c #8A4F30",
"Y.	c #9F7E50",
"Z.	c #FEDE68",
"`.	c #DBC47D",
" +	c #FEF0EF",
".+	c #FAF9FE",
"++	c #F1FAF7",
"@+	c #F5F9FC",
"#+	c #F8F7F5",
"$+	c #F9FBEE",
"%+	c #FEE6B5",
"&+	c #B17327",
"*+	c #C36433",
"=+	c #9B7442",
"-+	c #FDBB55",
";+	c #EFCE85",
">+	c #FEF4F3",
",+	c #FFFDFC",
"'+	c #F3F7FA",
")+	c #F6FBF4",
"!+	c #FAFBEB",
"~+	c #F3D99E",
"{+	c #F2B258",
"]+	c #B35420",
"^+	c #83553D",
"/+	c #B1713D",
"(+	c #F4AD4D",
"_+	c #EFCC80",
":+	c #FDFAF1",
"<+	c #F4F9F3",
"[+	c #FAF5F9",
"}+	c #FBF9FE",
"|+	c #F7FBE8",
"1+	c #FDF1B9",
"2+	c #FED37F",
"3+	c #C46224",
"4+	c #BB693E",
"5+	c #CD7A3A",
"6+	c #F5A646",
"7+	c #EEAA3A",
"8+	c #E5B459",
"9+	c #FFF8EA",
"0+	c #F6F6F6",
"a+	c #F7F4E9",
"b+	c #FBF7F4",
"c+	c #F6FDED",
"d+	c #FEFDBC",
"e+	c #ECCB62",
"f+	c #F8B349",
"g+	c #FA9A49",
"h+	c #9B663E",
"i+	c #80694B",
"j+	c #DC9C49",
"k+	c #EBB953",
"l+	c #E8B742",
"m+	c #EDBF52",
"n+	c #FEF5C3",
"o+	c #F6F5DB",
"p+	c #F8F3E8",
"q+	c #F8F1DF",
"r+	c #FDF5E4",
"s+	c #FEF9CA",
"t+	c #F7E384",
"u+	c #EFC84E",
"v+	c #F8CF5E",
"w+	c #E7B059",
"x+	c #90612D",
"y+	c #E8D9AA",
"z+	c #FEF698",
"A+	c #FEF99A",
"B+	c #FEEC7D",
"C+	c #F3DA58",
"D+	c #EFE772",
"E+	c #F7F89F",
"F+	c #FFFDCF",
"G+	c #F9F5DA",
"H+	c #FBFDCE",
"I+	c #F0EF82",
"J+	c #E4D156",
"K+	c #FBD868",
"L+	c #FEF89B",
"M+	c #FEF8A1",
"N+	c #F9EAA7",
"O+	c #D0C287",
"P+	c #F0CA59",
"Q+	c #F2DA61",
"R+	c #FEE86A",
"S+	c #FEE560",
"T+	c #FCE868",
"U+	c #F8E97A",
"V+	c #FAEB9A",
"W+	c #FEF09E",
"X+	c #F4E984",
"Y+	c #F5EC68",
"Z+	c #FCE464",
"`+	c #FEDE6B",
" @	c #F3E275",
".@	c #F6D867",
"+@	c #D4C56F",
"@@	c #CBB687",
"#@	c #F3A84A",
"$@	c #ECB13F",
"%@	c #F4C64E",
"&@	c #ECC149",
"*@	c #F1C34B",
"=@	c #F7D153",
"-@	c #FAD35D",
";@	c #FBD254",
">@	c #FDD450",
",@	c #F3C94C",
"'@	c #F2C14A",
")@	c #F6BC48",
"!@	c #F2BD45",
"~@	c #F8AE45",
"{@	c #CCAB66",
"]@	c #BD5F30",
"^@	c #CF6B2B",
"/@	c #E3863B",
"(@	c #E38C3D",
"_@	c #E78238",
":@	c #E98C3D",
"<@	c #E28836",
"[@	c #E58F3A",
"}@	c #E68F3C",
"|@	c #E48839",
"1@	c #E28136",
"2@	c #E8853B",
"3@	c #D77733",
"4@	c #CA672B",
"5@	c #8B4429",
"6@	c #B54321",
"7@	c #C65B2A",
"8@	c #CF652F",
"9@	c #CF5E29",
"0@	c #D1622B",
"a@	c #CA5F26",
"b@	c #C75E26",
"c@	c #C76028",
"d@	c #CE662D",
"e@	c #CD612C",
"f@	c #C65928",
"g@	c #BE5327",
"h@	c #B04F24",
"i@	c #8F695C",
"j@	c #922417",
"k@	c #9D331A",
"l@	c #B04321",
"m@	c #B54722",
"n@	c #BD4E27",
"o@	c #BC5024",
"p@	c #C05328",
"q@	c #BC5529",
"r@	c #B14A23",
"s@	c #B54A25",
"t@	c #A4381B",
"u@	c #9C3019",
"v@	c #832E16",
"w@	c #822422",
"x@	c #8F2316",
"y@	c #902316",
"z@	c #8E2717",
"A@	c #902919",
"B@	c #8F2817",
"C@	c #8F2917",
"D@	c #8E2916",
"E@	c #8D2716",
"F@	c #8D2316",
"G@	c #932517",
"H@	c #91241B",
"I@	c #74382E",
"J@	c #722D2D",
"K@	c #912419",
"L@	c #9A291B",
"M@	c #92251A",
"N@	c #8F261A",
"O@	c #932818",
"P@	c #912517",
"Q@	c #912417",
"R@	c #952418",
"S@	c #95241A",
"T@	c #8F221B",
"U@	c #765252",
"V@	c #8B2A1B",
"W@	c #8C2516",
"X@	c #95271A",
"Y@	c #8F2716",
"Z@	c #922717",
"`@	c #902419",
" #	c #8F2318",
".#	c #8C2316",
"+#	c #8C2B1A",
"@#	c #7C2A1A",
"##	c #732211",
"$#	c #8E2716",
"%#	c #91281E",
"&#	c #7F2019",
"*#	c #7A1B17",
"=#	c #7F1C18",
"-#	c #7F201A",
";#	c #85281B",
">#	c #8A2216",
",#	c #8C2416",
"'#	c #7C504D",
")#	c #643F3F",
"!#	c #832E22",
"~#	c #5C0409",
"{#	c #5D160C",
"]#	c #63090A",
"^#	c #630C0B",
"/#	c #801D14",
"(#	c #861F15",
"_#	c #80302C",
":#	c #925552",
"<#	c #7F3034",
"[#	c #6F1F25",
"}#	c #682529",
"|#	c #6C2122",
"1#	c #9F524C",
"                                                                                                                                ",
"                                                                                                                                ",
"                                                                                                                                ",
"                                                                                                                                ",
"                                                                                                                                ",
"                                                                                                                                ",
"                                                                                                                                ",
"                                                                                                                                ",
"                                                                                                                                ",
"                                                                                                                                ",
"                                                                                                                                ",
"                                                                                                                                ",
"                                                                                                                                ",
"                                                                                                                                ",
"                                                                                                                                ",
"                                                                                                                                ",
"                                                                                                                                ",
"                                                                                                                                ",
"                                                                                                                                ",
"                                                                                                                                ",
"                                                                                                                                ",
"                                                                                                                                ",
"                                                                                                                                ",
"                                                                                                                                ",
"                                                                  .                                                             ",
"                                                          +       @                                                             ",
"                                                          #       $                                                             ",
"                                                          % &     *                                                             ",
"                                                          = - ; > , '   )                                                       ",
"                                                        ! ~ { ] ^ / (   _                                                       ",
"                                                        : < [ } | 1 2   3                                                       ",
"                                                      4 5 6 7 8 9 0 a b c                                                       ",
"                                                      d e f g h i j k l m                                                       ",
"                                                      n o p q r s t u v w                                                       ",
"                                                      x y z A B C D E F G                                                       ",
"                                                      H I J K L M N O P Q                                                       ",
"                                                      R S T U V W X Y Z `                                                       ",
"                                                       ...+.@.#.$.%.&.*.=.                                                      ",
"                                                      -.;.>.,.'.).!.~.{.].^.                                                    ",
"                                                    /.(._.:.<.[.}.|.%.1.2.3.                                                    ",
"                                                    4.5.6.7.8.9.0.a.b.c.d.e.                                                    ",
"                                                    f.g.h.i.j.k.l.9.m.n.o.p.                                                    ",
"                                                    q.r.s.t.u.v.w.x.y.z.A.B.                                                    ",
"                                                    C.D.E.F.G.H.I.J.K.L.M.N.                                                    ",
"                                                    O.P.Q.R.S.T.U.k.K.V.W.X.                                                    ",
"                                                    Y.Z.`. +.+++@+#+$+%+&+*+                                                    ",
"                                                    =+-+;+>+,+'+|.)+!+~+{+]+^+                                                  ",
"                                                    /+(+_+:+<+u.[+}+|+1+2+3+4+                                                  ",
"                                                  5+6+7+8+9+0++.a+b+c+d+e+f+g+h+                                                ",
"                                                i+j+k+l+m+n+o+p+q+r+s+t+u+v+w+x+                                                ",
"                                                y+z+A+B+C+D+E+F+G+H+I+J+K+L+M+N+                                                ",
"                                                O+P+Q+R+S+T+U+V+W+X+Y+Z+`+ @.@+@                                                ",
"                                                @@#@$@%@&@*@=@-@;@>@,@'@)@!@~@{@                                                ",
"                                                  ]@^@/@(@_@:@<@[@}@|@1@2@3@4@                                                  ",
"                                                  5@6@7@8@9@0@a@b@c@d@e@f@g@h@                                                  ",
"                                                  i@j@k@l@m@n@o@p@q@r@s@t@u@v@                                                  ",
"                                                    w@x@y@z@A@B@C@D@E@F@G@H@I@                                                  ",
"                                                    J@K@L@M@N@O@P@Q@j@R@S@T@U@                                                  ",
"                                                      V@W@X@Y@Z@`@ #Q@.#+#@#                                                    ",
"                                                      ##$#%#&#*#=#-#;#>#,#'#                                                    ",
"                                                      )#!#K@~#{#]#^#/#(#_#                                                      ",
"                                                          :#<#[#}#|#1#                                                          ",
"                                                                                                                                ",
"                                                                                                                                "};
