/* XPM */
static char * jar_break_xpm[] = {
"64 64 9 1",
" 	c None",
".	c #2F1F29",
"+	c #433131",
"@	c #271A1F",
"#	c #3A393E",
"$	c #1C1515",
"%	c #4E4D52",
"&	c #39292E",
"*	c #64616A",
"                                                                ",
"                                                                ",
"                                                                ",
"                                                                ",
"                                                                ",
"                                                                ",
"                                                                ",
"                                                                ",
"                                                                ",
"                                                                ",
"                                                                ",
"                                                                ",
"                                                                ",
"                                                                ",
"                                                                ",
"                                                                ",
"                                                                ",
"                                                                ",
"                                                                ",
"                                                                ",
"                                                                ",
"                                                                ",
"                                                                ",
"                                                                ",
"                                                                ",
"                                                                ",
"                                                                ",
"                            .....                               ",
"                          ..+@++++                              ",
"                         #.+@@$$@.+                             ",
"                        ##$$@@@$$+++...                         ",
"                        @%#$$$@$$@@@@$.@                        ",
"                        @.%#$@@@$@$@@$$@                        ",
"                         ...%%%%$$$@@$.                         ",
"                         ..&&&&**$$$$..                         ",
"                         @.&+*+&&+$$&.@                         ",
"                         $.&&*++++**&.$                         ",
"                          $@&&&&&&&&@$                          ",
"                           $@@@@@@@@$                           ",
"                            $$$$$$$$                            ",
"                                                                ",
"                                                                ",
"                                                                ",
"                                                                ",
"                                                                ",
"                                                                ",
"                                                                ",
"                                                                ",
"                                                                ",
"                                                                ",
"                                                                ",
"                                                                ",
"                                                                ",
"                                                                ",
"                                                                ",
"                                                                ",
"                                                                ",
"                                                                ",
"                                                                ",
"                                                                ",
"                                                                ",
"                                                                ",
"                                                                ",
"                                                                "};
