/* XPM */
static char * slime1_xpm[] = {
"64 64 582 2",
"  	c None",
". 	c #77D4EB",
"+ 	c #5FCDE9",
"@ 	c #43C8E7",
"# 	c #47CDEA",
"$ 	c #54C5D7",
"% 	c #78D9E1",
"& 	c #83D4DA",
"* 	c #5CDAEC",
"= 	c #26B7D2",
"- 	c #27BFE6",
"; 	c #18B9E5",
"> 	c #0BBAE5",
", 	c #10BDE5",
"' 	c #2CC6EC",
") 	c #25B8DA",
"! 	c #25B9D7",
"~ 	c #39C6E4",
"{ 	c #67E6FF",
"] 	c #6BD7F3",
"^ 	c #6CD7E8",
"/ 	c #40CBE2",
"( 	c #24C9E9",
"_ 	c #0EBFEB",
": 	c #0BBAF1",
"< 	c #0BBDF9",
"[ 	c #08C2FD",
"} 	c #04BDF6",
"| 	c #14C3FA",
"1 	c #12BDF3",
"2 	c #08B8EA",
"3 	c #11C1F0",
"4 	c #10B8E5",
"5 	c #2FC7EE",
"6 	c #54D1F0",
"7 	c #6FD0E3",
"8 	c #56D8ED",
"9 	c #2DCAE9",
"0 	c #19C2ED",
"a 	c #0AB0EA",
"b 	c #00A1E5",
"c 	c #05ABF5",
"d 	c #009DEB",
"e 	c #00A1F0",
"f 	c #00A0ED",
"g 	c #0BB7FF",
"h 	c #00ACF0",
"i 	c #11BDFD",
"j 	c #13C3FC",
"k 	c #0092C3",
"l 	c #08C1ED",
"m 	c #11BFE4",
"n 	c #33D2F0",
"o 	c #3CC7DA",
"p 	c #7DD3F0",
"q 	c #50D7F5",
"r 	c #25CCF0",
"s 	c #0BC2EE",
"t 	c #00B5EB",
"u 	c #00A5E9",
"v 	c #029EEB",
"w 	c #0096E7",
"x 	c #0A9BF4",
"y 	c #0790F8",
"z 	c #119BFF",
"A 	c #0092F8",
"B 	c #019CF9",
"C 	c #12A8FF",
"D 	c #009AE4",
"E 	c #0BC4FC",
"F 	c #01BDEB",
"G 	c #11B9E6",
"H 	c #25C8F1",
"I 	c #29D2F1",
"J 	c #36CCE5",
"K 	c #5FCDE4",
"L 	c #87D6E6",
"M 	c #6BCDE8",
"N 	c #48CDEC",
"O 	c #27C6ED",
"P 	c #19CCF5",
"Q 	c #15D1FF",
"R 	c #07C0F6",
"S 	c #03B6F0",
"T 	c #0BADEE",
"U 	c #099CE2",
"V 	c #179BE6",
"W 	c #1183E3",
"X 	c #1273F5",
"Y 	c #004ADC",
"Z 	c #005DED",
"` 	c #0E80FF",
" .	c #0472ED",
"..	c #1292F5",
"+.	c #01A9E7",
"@.	c #0FAFDF",
"#.	c #8AF9FF",
"$.	c #A3FFFF",
"%.	c #2FC8F1",
"&.	c #1AC2E7",
"*.	c #25BCE7",
"=.	c #2CB5DF",
"-.	c #57D3FA",
";.	c #68D6F0",
">.	c #59C2E2",
",.	c #2BBAE2",
"'.	c #0FB7E8",
").	c #09BCF6",
"!.	c #00AFF2",
"~.	c #03AFF7",
"{.	c #14BCFF",
"].	c #0FB0F8",
"^.	c #0DA1E7",
"/.	c #0C8DD1",
"(.	c #4AB0F8",
"_.	c #7FD3FF",
":.	c #044DD8",
"<.	c #0048E9",
"[.	c #004CED",
"}.	c #004AE5",
"|.	c #004CE0",
"1.	c #0063E3",
"2.	c #0B96F3",
"3.	c #20A8F2",
"4.	c #52B0F6",
"5.	c #96F5FF",
"6.	c #4FDEFF",
"7.	c #1ABAF4",
"8.	c #09A2E6",
"9.	c #10A4EC",
"0.	c #14ACEF",
"a.	c #21B1E6",
"b.	c #3FC0DD",
"c.	c #56C9DC",
"d.	c #6CD2E6",
"e.	c #7ECBE1",
"f.	c #2DB6E0",
"g.	c #19BEF6",
"h.	c #05A1EB",
"i.	c #0292E9",
"j.	c #0782EC",
"k.	c #0D82F3",
"l.	c #1091F9",
"m.	c #23A5FF",
"n.	c #219BEE",
"o.	c #4AB0FA",
"p.	c #C1FFFF",
"q.	c #9FD8FF",
"r.	c #1258DC",
"s.	c #0D5BF3",
"t.	c #1B67FB",
"u.	c #0043DA",
"v.	c #024AEC",
"w.	c #0047E5",
"x.	c #005FF0",
"y.	c #1082FE",
"z.	c #28A0FF",
"A.	c #30B2FF",
"B.	c #43CDFF",
"C.	c #199DEF",
"D.	c #1384EA",
"E.	c #0D80EB",
"F.	c #0792F1",
"G.	c #059CEB",
"H.	c #16ACE9",
"I.	c #18AFE4",
"J.	c #1EBAED",
"K.	c #3DC1E7",
"L.	c #7ACAE1",
"M.	c #23B8E2",
"N.	c #05B3F0",
"O.	c #019CEE",
"P.	c #179BFF",
"Q.	c #1178F1",
"R.	c #0054D8",
"S.	c #026AEF",
"T.	c #0066E4",
"U.	c #005CCB",
"V.	c #469CFF",
"W.	c #88BDFF",
"X.	c #2A5BC2",
"Y.	c #1660E5",
"Z.	c #0254E8",
"`.	c #5AA4FF",
" +	c #0547E6",
".+	c #0C4BFB",
"++	c #0040F6",
"@+	c #0046F5",
"#+	c #004FEC",
"$+	c #006DE9",
"%+	c #0070DC",
"&+	c #0679E4",
"*+	c #0D75E8",
"=+	c #0A65E9",
"-+	c #004CD2",
";+	c #0060DC",
">+	c #0085F6",
",+	c #0695F5",
"'+	c #11ADFF",
")+	c #04B5FB",
"!+	c #14B8EB",
"~+	c #48BDD3",
"{+	c #80C3D3",
"]+	c #36C3DF",
"^+	c #07B3E5",
"/+	c #00A0EE",
"(+	c #1DADFF",
"_+	c #1A8DFF",
":+	c #0051D7",
"<+	c #004DE9",
"[+	c #0054F9",
"}+	c #004DEC",
"|+	c #0B56F0",
"1+	c #1F58EF",
"2+	c #0644D5",
"3+	c #075CEB",
"4+	c #378FFF",
"5+	c #014CF3",
"6+	c #003DF4",
"7+	c #0339FB",
"8+	c #0943FF",
"9+	c #0045FC",
"0+	c #0153FF",
"a+	c #0051F1",
"b+	c #004DE7",
"c+	c #145FF9",
"d+	c #0954EE",
"e+	c #0356F2",
"f+	c #035CF8",
"g+	c #0053EF",
"h+	c #005DEF",
"i+	c #0061E8",
"j+	c #1090FE",
"k+	c #03A8F8",
"l+	c #14BFF7",
"m+	c #28BCE4",
"n+	c #6AD0EB",
"o+	c #54D6EE",
"p+	c #13BCE7",
"q+	c #00A7EE",
"r+	c #0EA9FF",
"s+	c #0D8EF4",
"t+	c #1583FF",
"u+	c #0051F3",
"v+	c #0042F7",
"w+	c #004AFF",
"x+	c #0243FF",
"y+	c #0440F8",
"z+	c #0044F1",
"A+	c #0053EE",
"B+	c #0048E1",
"C+	c #004CF4",
"D+	c #024BFF",
"E+	c #0137F9",
"F+	c #0A3FFF",
"G+	c #0040FA",
"H+	c #0047F8",
"I+	c #0753FE",
"J+	c #0A57FD",
"K+	c #024BEF",
"L+	c #0046E5",
"M+	c #0058F1",
"N+	c #1E83FF",
"O+	c #0056F4",
"P+	c #0048E2",
"Q+	c #0054E5",
"R+	c #077BF4",
"S+	c #009BF1",
"T+	c #09BDFA",
"U+	c #0DBBEE",
"V+	c #41C6F1",
"W+	c #67DFF8",
"X+	c #1AC0E6",
"Y+	c #00AFEB",
"Z+	c #00A2ED",
"`+	c #099CEA",
" @	c #108EF4",
".@	c #0060F0",
"+@	c #0053FF",
"@@	c #0B4AFF",
"#@	c #023AFF",
"$@	c #0142FE",
"%@	c #004AF6",
"&@	c #0044E6",
"*@	c #0053F2",
"=@	c #0D4BF8",
"-@	c #1145F9",
";@	c #003BEE",
">@	c #005AF7",
",@	c #0053E3",
"'@	c #44B0FF",
")@	c #0378F9",
"!@	c #0075F1",
"~@	c #1192FF",
"{@	c #057CFE",
"]@	c #0057DA",
"^@	c #004DCF",
"/@	c #0077E8",
"(@	c #03A5F8",
"_@	c #03BFFF",
":@	c #00BCF7",
"<@	c #16B8E9",
"[@	c #75D6F7",
"}@	c #65D9F4",
"|@	c #1BC1E9",
"1@	c #06BBF2",
"2@	c #00AEED",
"3@	c #00A3E2",
"4@	c #0896EC",
"5@	c #0D83FF",
"6@	c #0059FA",
"7@	c #003CF8",
"8@	c #053DFF",
"9@	c #0843FF",
"0@	c #0043FD",
"a@	c #004CF6",
"b@	c #0F6DFF",
"c@	c #2C96FF",
"d@	c #0D6FFF",
"e@	c #0C51F4",
"f@	c #003AE6",
"g@	c #0D4CFB",
"h@	c #0956FE",
"i@	c #005AF4",
"j@	c #2595FF",
"k@	c #0076EE",
"l@	c #007FEA",
"m@	c #0092F2",
"n@	c #099FFD",
"o@	c #1F9EFF",
"p@	c #1C88EB",
"q@	c #1A7AE0",
"r@	c #1D90ED",
"s@	c #0EB5FC",
"t@	c #03C5FF",
"u@	c #01C6FD",
"v@	c #0CB5E0",
"w@	c #72DAF3",
"x@	c #54CFF1",
"y@	c #15C0EE",
"z@	c #08C3F6",
"A@	c #02BFF6",
"B@	c #04B3EC",
"C@	c #03A1EA",
"D@	c #0994FD",
"E@	c #005EEA",
"F@	c #0047F9",
"G@	c #0445FF",
"H@	c #0041FA",
"I@	c #004BF4",
"J@	c #0971FF",
"K@	c #2697FF",
"L@	c #228BFF",
"M@	c #0E6BFF",
"N@	c #004CEE",
"O@	c #0046ED",
"P@	c #0955FF",
"Q@	c #004AF2",
"R@	c #004BED",
"S@	c #0F6BFE",
"T@	c #005FD9",
"U@	c #008FEF",
"V@	c #12BBFF",
"W@	c #0AA9E0",
"X@	c #3FB2EB",
"Y@	c #6CC5FD",
"Z@	c #76C5FE",
"`@	c #55BEF5",
" #	c #13BAEF",
".#	c #00BDEA",
"+#	c #09C9EE",
"@#	c #2CC4DC",
"##	c #45C3E9",
"$#	c #0DBBED",
"%#	c #04BFF4",
"&#	c #03C0F7",
"*#	c #09B9F2",
"=#	c #0AADF2",
"-#	c #17AAFF",
";#	c #0077F9",
">#	c #0057FE",
",#	c #0248FF",
"'#	c #0752FD",
")#	c #0259F8",
"!#	c #1787FF",
"~#	c #005DF1",
"{#	c #0055F1",
"]#	c #004FF3",
"^#	c #0452FC",
"/#	c #0045F3",
"(#	c #0047F3",
"_#	c #0047EE",
":#	c #004ADF",
"<#	c #1692FF",
"[#	c #059FF9",
"}#	c #14C7FF",
"|#	c #1DC5E9",
"1#	c #48BFDF",
"2#	c #82D3F0",
"3#	c #73AFC7",
"4#	c #77C8E3",
"5#	c #37CBEF",
"6#	c #11BEE0",
"7#	c #23BFD6",
"8#	c #5ACEDB",
"9#	c #41C3E8",
"0#	c #10BEF1",
"a#	c #0BC2FC",
"b#	c #04BCF8",
"c#	c #01AEEA",
"d#	c #13B1FA",
"e#	c #139DFF",
"f#	c #1285FF",
"g#	c #0053F4",
"h#	c #0046F1",
"i#	c #0250F0",
"j#	c #0052ED",
"k#	c #0049E8",
"l#	c #0056F5",
"m#	c #025CFA",
"n#	c #0057F6",
"o#	c #0753FF",
"p#	c #034AFE",
"q#	c #003DF7",
"r#	c #004CF7",
"s#	c #056AFF",
"t#	c #0890FF",
"u#	c #0FB4FF",
"v#	c #0BC5FE",
"w#	c #11C1E6",
"x#	c #41C7E0",
"y#	c #78D0DE",
"z#	c #8AB9BF",
"A#	c #59C2D8",
"B#	c #4EC7E0",
"C#	c #75CFDD",
"D#	c #3EC0E2",
"E#	c #0BB6EA",
"F#	c #06BEFC",
"G#	c #09C0FF",
"H#	c #03AFF1",
"I#	c #18B3FF",
"J#	c #0A8CFA",
"K#	c #005FE9",
"L#	c #0043E7",
"M#	c #125AFF",
"N#	c #1363FF",
"O#	c #0654FF",
"P#	c #0451FF",
"Q#	c #004AF1",
"R#	c #0548FB",
"S#	c #0141F8",
"T#	c #0049FD",
"U#	c #0044E9",
"V#	c #005DEC",
"W#	c #0781FC",
"X#	c #12A9FF",
"Y#	c #00A5F8",
"Z#	c #09C5FF",
"`#	c #16C2E8",
" $	c #47C6D9",
".$	c #86D4D8",
"+$	c #81BECD",
"@$	c #47C8E8",
"#$	c #17C1F2",
"$$	c #08C4FF",
"%$	c #00B1F8",
"&$	c #01B3FB",
"*$	c #0072F6",
"=$	c #0055F7",
"-$	c #0247FA",
";$	c #1252FF",
">$	c #0E58FF",
",$	c #004AF5",
"'$	c #0048FC",
")$	c #0040F7",
"!$	c #0048F9",
"~$	c #0045F8",
"{$	c #0E48FF",
"]$	c #0140F0",
"^$	c #0A62F7",
"/$	c #007BD0",
"($	c #18B1F7",
"_$	c #0BB5FF",
":$	c #009DE7",
"<$	c #00B3F4",
"[$	c #1BB6E2",
"}$	c #6ECEDA",
"|$	c #5ED0EB",
"1$	c #15B4DE",
"2$	c #05BCF8",
"3$	c #00BDFF",
"4$	c #00B0F6",
"5$	c #0093F1",
"6$	c #0066F3",
"7$	c #0049F6",
"8$	c #003EF8",
"9$	c #0641FF",
"0$	c #0147FF",
"a$	c #0044FA",
"b$	c #054BFF",
"c$	c #0044FD",
"d$	c #0039F3",
"e$	c #043BF7",
"f$	c #0D51FA",
"g$	c #248BFF",
"h$	c #0066C4",
"i$	c #29C3FF",
"j$	c #14BCED",
"k$	c #009BD7",
"l$	c #05B4F5",
"m$	c #17C0FB",
"n$	c #82C6D4",
"o$	c #75D4EA",
"p$	c #40C9EB",
"q$	c #1BC0F0",
"r$	c #0BBBF4",
"s$	c #00AAE7",
"t$	c #008EE8",
"u$	c #0067F4",
"v$	c #004BF7",
"w$	c #0542FC",
"x$	c #043FFD",
"y$	c #003FFD",
"z$	c #044FFF",
"A$	c #0048FE",
"B$	c #0748FF",
"C$	c #003AF7",
"D$	c #0846FB",
"E$	c #0453F5",
"F$	c #1084FF",
"G$	c #15A4FF",
"H$	c #0AABF1",
"I$	c #00A9E4",
"J$	c #00ADE9",
"K$	c #15B8EF",
"L$	c #21B4E0",
"M$	c #67D3F4",
"N$	c #80DEF7",
"O$	c #53D0EE",
"P$	c #35C5E8",
"Q$	c #18ABD6",
"R$	c #1B9EE2",
"S$	c #2480F2",
"T$	c #1256E5",
"U$	c #0B47E3",
"V$	c #0943E5",
"W$	c #0944E8",
"X$	c #0C4AED",
"Y$	c #0F51EE",
"Z$	c #0646E4",
"`$	c #073EE3",
" %	c #1047EA",
".%	c #0A4AE0",
"+%	c #0356D8",
"@%	c #2393F7",
"#%	c #0F92E0",
"$%	c #0D9BD9",
"%%	c #16A8DB",
"&%	c #22B0E0",
"*%	c #3EC0E7",
"=%	c #5CCAE6",
"-%	c #87E0E1",
";%	c #6ED4E0",
">%	c #77D6F6",
",%	c #70B5F6",
"'%	c #366EC6",
")%	c #1D54B8",
"!%	c #1F55BF",
"~%	c #2154C1",
"{%	c #1E4EBC",
"]%	c #295BCA",
"^%	c #2856C6",
"/%	c #2D52C4",
"(%	c #1C46B2",
"_%	c #1B55B6",
":%	c #2772C3",
"<%	c #2E86C6",
"[%	c #3391C4",
"}%	c #45A3C9",
"|%	c #77D2EF",
"1%	c #76CEE4",
"                                                                                                                                ",
"                                                                                                                                ",
"                                                                                                                                ",
"                                                                                                                                ",
"                                                                                                                                ",
"                                                                                                                                ",
"                                                                                                                                ",
"                                                                                                                                ",
"                                                                                                                                ",
"                                                                                                                                ",
"                                                                                                                                ",
"                                                                                                                                ",
"                                                                                                                                ",
"                                                                                                                                ",
"                                                                                                                                ",
"                                                                                                                                ",
"                                                                                                                                ",
"                                                                                                                                ",
"                                                                                                                                ",
"                                                                                                                                ",
"                                                        . + @ # $ % &                                                           ",
"                                                    * = - ; > , ' ) ! ~ { ]                                                     ",
"                                                ^ / ( _ : < [ } | 1 2 3 4 5 6 7                                                 ",
"                                              8 9 0 a b c d e f g h i j k l m n o                                               ",
"                                          p q r s t u v w x y z A B C D E F G H I J K L                                         ",
"                                      M N O P Q R S T U V W X Y Z `  ...+.@.#.$.%.&.*.=.-.;.                                    ",
"                                    >.,.'.).!.~.{.].^./.(._.:.<.[.}.|.1.2.3.4.5.6.7.8.9.0.a.b.c.d.                              ",
"                                  e.f.g.h.i.j.k.l.m.n.o.p.q.r.s.t.u.v.w.x.y.z.A.B.C.D.E.F.G.H.I.J.K.                            ",
"                                  L.M.N.O.P.Q.R.S.T.U.V.W.X.Y.Z.`. +.+++@+#+$+%+&+*+=+-+;+>+,+'+)+!+~+                          ",
"                                  {+]+^+/+(+_+:+<+[+}+|+1+2+3+4+5+6+7+8+9+0+a+b+c+d+e+f+g+h+i+j+k+l+m+n+                        ",
"                                    o+p+q+r+s+t+u+v+w+x+y+z+A+B+C+D+E+F+G+H+I+J+K+L+M+N+O+P+Q+R+S+T+U+V+                        ",
"                                    W+X+Y+Z+`+ @.@+@@@#@8+$@%@&@A+*@=@-@;@%@>@,@'@)@!@~@{@]@^@/@(@_@:@<@[@                      ",
"                                    }@|@1@2@3@4@5@6@7@8@9@0@a@b@c@d@e@f@g@h@i@j@k@l@m@n@o@p@q@r@s@t@u@v@w@                      ",
"                                    x@y@z@A@B@C@D@E@F@G@H@I@J@K@L@M@N@O@P@Q@R@S@T@U@V@W@X@Y@Z@`@ #.#+#@#                        ",
"                                    ##$#%#&#*#=#-#;#>#,#'#)#.@!#~#{#]#^#/#(#_#:#<#[#}#|#1#2#3#4#5#6#7#8#                        ",
"                                    9#0#a#b#c#d#e#f#g#h#i#j#k#l#m#n#o#p#q#D+r#s#t#u#v#w#x#y#  z#A#B#C#                          ",
"                                    D#E#F#G#H#I#J#K#L#M#N#w.O#P#Q#Q@R#S#T#U#V#W#X#Y#Z#`# $.$    +$                              ",
"                                    @$#$$$%$&$[#*$=$-$;$>$,$'$)$!$~${$]$^$K@/$($_$:$<$[$}$                                      ",
"                                    |$1$2$3$4$5$6$7$8$9$0$a$6+b$c$d$e$f$g$h$i$j$k$l$m$V+n$                                      ",
"                                    o$p$q$r$s$t$u$v$w$x$y$G+z$A$B$C$D$E$F$G$H$I$J$K$L$M$                                        ",
"                                      N$O$P$Q$R$S$T$U$V$W$X$Y$Z$`$ %.%+%@%#%$%%%&%*%=%                                          ",
"                                          -%;%>%,%'%)%!%~%{%]%^%/%(%_%:%<%[%}%|%1%                                              ",
"                                                                                                                                ",
"                                                                                                                                ",
"                                                                                                                                ",
"                                                                                                                                ",
"                                                                                                                                ",
"                                                                                                                                ",
"                                                                                                                                ",
"                                                                                                                                ",
"                                                                                                                                ",
"                                                                                                                                ",
"                                                                                                                                ",
"                                                                                                                                ",
"                                                                                                                                ",
"                                                                                                                                ",
"                                                                                                                                ",
"                                                                                                                                ",
"                                                                                                                                ",
"                                                                                                                                ",
"                                                                                                                                ",
"                                                                                                                                ",
"                                                                                                                                ",
"                                                                                                                                "};
