/* XPM */
static char * slime3_xpm[] = {
"64 64 595 2",
"  	c None",
". 	c #60C6B9",
"+ 	c #6CDBC8",
"@ 	c #54C9AF",
"# 	c #53C6A9",
"$ 	c #56C9AC",
"% 	c #5DCDB7",
"& 	c #74D6C4",
"* 	c #72D8D1",
"= 	c #4DCEC6",
"- 	c #2BBAB4",
"; 	c #22BDB5",
"> 	c #14B5A6",
", 	c #14B9A8",
"' 	c #18BFAB",
") 	c #0FB8A3",
"! 	c #1CC3AF",
"~ 	c #1EC0A8",
"{ 	c #3DD5B1",
"] 	c #6AE4C2",
"^ 	c #5FCAC2",
"/ 	c #2BB7B1",
"( 	c #1AB9B5",
"_ 	c #11B4AF",
": 	c #07B1A8",
"< 	c #11C1B6",
"[ 	c #0BBFB4",
"} 	c #04BCB4",
"| 	c #06C1B6",
"1 	c #00B7A5",
"2 	c #08BEA5",
"3 	c #20C49F",
"4 	c #34C29A",
"5 	c #5DD2AE",
"6 	c #80D5BE",
"7 	c #62D5C4",
"8 	c #29BDAD",
"9 	c #1AB5B1",
"0 	c #0BA5A3",
"a 	c #14A69C",
"b 	c #13A598",
"c 	c #12ACA2",
"d 	c #19B8B4",
"e 	c #07AAB1",
"f 	c #0CB8BA",
"g 	c #10C9B9",
"h 	c #19BDA4",
"i 	c #27957C",
"j 	c #66D3B3",
"k 	c #2FD1A0",
"l 	c #2DCDA1",
"m 	c #83D4CD",
"n 	c #39C8B4",
"o 	c #07B2A0",
"p 	c #009C9E",
"q 	c #089CA0",
"r 	c #15928A",
"s 	c #3FB3AA",
"t 	c #79F1F2",
"u 	c #108F9E",
"v 	c #0C98B3",
"w 	c #0BA7BD",
"x 	c #00ACA4",
"y 	c #1FBCA9",
"z 	c #81DFCF",
"A 	c #A9FFF7",
"B 	c #1BCAA1",
"C 	c #17D1AA",
"D 	c #3FC6B5",
"E 	c #7BD5D5",
"F 	c #99D0D9",
"G 	c #63D6C7",
"H 	c #1FBBA6",
"I 	c #00AAA1",
"J 	c #04A4B0",
"K 	c #19A2B2",
"L 	c #228986",
"M 	c #B7FFFF",
"N 	c #8BD7EE",
"O 	c #0E638C",
"P 	c #0E7FB7",
"Q 	c #0390BE",
"R 	c #06AEB9",
"S 	c #00A098",
"T 	c #56C7C1",
"U 	c #94FFFC",
"V 	c #22BCB4",
"W 	c #09AEAA",
"X 	c #0CA0A2",
"Y 	c #1B97A3",
"Z 	c #167891",
"` 	c #59ADC9",
" .	c #7ACAE3",
"..	c #7AC3D6",
"+.	c #82C4D2",
"@.	c #69C1AB",
"#.	c #69C3AA",
"$.	c #80E3D0",
"%.	c #3CC5B1",
"&.	c #13B5A6",
"*.	c #00A1A3",
"=.	c #0595B7",
"-.	c #0278A0",
";.	c #11657F",
">.	c #C0FFFF",
",.	c #4582AF",
"'.	c #0B518F",
").	c #0053A2",
"!.	c #0069AF",
"~.	c #0FA1C8",
"{.	c #22B4CB",
"].	c #2DA4B8",
"^.	c #3FAFC5",
"/.	c #1A96B8",
"(.	c #088CB3",
"_.	c #189CC3",
":.	c #0078A3",
"<.	c #005D92",
"[.	c #01669C",
"}.	c #016193",
"|.	c #0B6B95",
"1.	c #3291AD",
"2.	c #4EABBC",
"3.	c #61B6BB",
"4.	c #77C8C4",
"5.	c #8AD5CE",
"6.	c #6ED5C5",
"7.	c #29B49F",
"8.	c #2CBFA5",
"9.	c #42C2AA",
"0.	c #68E0C8",
"a.	c #53E6D3",
"b.	c #1CBFBA",
"c.	c #059DB5",
"d.	c #0071B1",
"e.	c #0762B3",
"f.	c #004890",
"g.	c #5DA0E4",
"h.	c #105DA1",
"i.	c #0453A0",
"j.	c #004AA8",
"k.	c #0051B0",
"l.	c #0063B2",
"m.	c #0178BC",
"n.	c #1987C6",
"o.	c #0061A3",
"p.	c #0052A2",
"q.	c #0052AC",
"r.	c #004DAA",
"s.	c #0052B0",
"t.	c #0053AF",
"u.	c #045FB8",
"v.	c #0050A5",
"w.	c #00549A",
"x.	c #006F9E",
"y.	c #1595B0",
"z.	c #1797A2",
"A.	c #28AFAB",
"B.	c #22B3A6",
"C.	c #39C5B8",
"D.	c #61DDD3",
"E.	c #69DED1",
"F.	c #18B6A7",
"G.	c #0EB9A7",
"H.	c #16B1A4",
"I.	c #38A9A7",
"J.	c #62BBBF",
"K.	c #53B1B3",
"L.	c #3EBCB8",
"M.	c #2EBEBE",
"N.	c #1CAFC1",
"O.	c #0A8EBE",
"P.	c #0061B6",
"Q.	c #0046AC",
"R.	c #0549AE",
"S.	c #084EAD",
"T.	c #045DAF",
"U.	c #1C75C9",
"V.	c #3B80E7",
"W.	c #0246B3",
"X.	c #065DC6",
"Y.	c #0057B8",
"Z.	c #005DB2",
"`.	c #0053AA",
" +	c #004AAF",
".+	c #003FA7",
"++	c #065ABD",
"@+	c #0052B2",
"#+	c #0054AE",
"$+	c #1079CC",
"%+	c #0059A7",
"&+	c #006FAE",
"*+	c #0593BB",
"=+	c #009CB1",
"-+	c #03A6AB",
";+	c #09B7AE",
">+	c #04C0B1",
",+	c #07C2B1",
"'+	c #0CB6AB",
")+	c #29B9B2",
"!+	c #5DC6C2",
"~+	c #72D8D5",
"{+	c #23B6B0",
"]+	c #10B6B4",
"^+	c #0CA6B2",
"/+	c #067098",
"(+	c #05588E",
"_+	c #1368A1",
":+	c #2889BE",
"<+	c #1F99BE",
"[+	c #0C8CB3",
"}+	c #0D85BA",
"|+	c #036EB6",
"1+	c #0058B4",
"2+	c #0048B2",
"3+	c #0649BC",
"4+	c #054FBA",
"5+	c #0C6CC2",
"6+	c #3998EA",
"7+	c #357AE1",
"8+	c #0848B6",
"9+	c #054EBF",
"0+	c #0050BA",
"a+	c #0058B3",
"b+	c #0051A6",
"c+	c #0054AF",
"d+	c #0051A2",
"e+	c #117FBC",
"f+	c #017EAE",
"g+	c #0186AF",
"h+	c #028EB1",
"i+	c #0B9CB9",
"j+	c #05A2B5",
"k+	c #00A2A9",
"l+	c #00B7B2",
"m+	c #03C1B5",
"n+	c #00C3B2",
"o+	c #00C8B6",
"p+	c #00C1AF",
"q+	c #0ACABB",
"r+	c #07B7AA",
"s+	c #14B1A0",
"t+	c #32B6A1",
"u+	c #62CCB5",
"v+	c #42C0BF",
"w+	c #1CB7B9",
"x+	c #039AAD",
"y+	c #006BA0",
"z+	c #00559E",
"A+	c #005AAD",
"B+	c #0667B8",
"C+	c #0062A9",
"D+	c #0062A6",
"E+	c #0056A0",
"F+	c #0059AD",
"G+	c #0453B8",
"H+	c #0045B4",
"I+	c #0247C0",
"J+	c #004DBC",
"K+	c #0468C0",
"L+	c #0C6FC2",
"M+	c #014BAE",
"N+	c #0B49B8",
"O+	c #0C4FC4",
"P+	c #0856C3",
"Q+	c #035EB9",
"R+	c #0057A2",
"S+	c #0D76BA",
"T+	c #1085BA",
"U+	c #0B95B2",
"V+	c #099FAE",
"W+	c #039FAB",
"X+	c #10ADB4",
"Y+	c #14A8AC",
"Z+	c #1BB0AE",
"`+	c #1AB8AA",
" @	c #11B4A1",
".@	c #19BCA7",
"+@	c #14BDA8",
"@@	c #07BDA7",
"#@	c #09C3AE",
"$@	c #04BBA9",
"%@	c #10C3B0",
"&@	c #0DBFA7",
"*@	c #17BFA5",
"=@	c #20B699",
"-@	c #5DC8B2",
";@	c #69CAC8",
">@	c #2DB8B5",
",@	c #02959F",
"'@	c #148EB3",
")@	c #00609E",
"!@	c #0267B9",
"~@	c #0056B3",
"{@	c #004CA9",
"]@	c #0652AA",
"^@	c #5FACFE",
"/@	c #0B57AF",
"(@	c #0149B5",
"_@	c #0249BD",
":@	c #0041B6",
"<@	c #0050BB",
"[@	c #004FA8",
"}@	c #0067BC",
"|@	c #0047A9",
"1@	c #0749B7",
"2@	c #094CC1",
"3@	c #0556C2",
"4@	c #0062B7",
"5@	c #0071AE",
"6@	c #0790B2",
"7@	c #09A0B1",
"8@	c #00A0A8",
"9@	c #08B4B6",
"0@	c #0FB9B8",
"a@	c #1AB0AE",
"b@	c #40AEAF",
"c@	c #72CAC7",
"d@	c #95ECDD",
"e@	c #99F3DB",
"f@	c #96EBD5",
"g@	c #8EEAD3",
"h@	c #5BC7B2",
"i@	c #31AC98",
"j@	c #2CB5A3",
"k@	c #1DB6A2",
"l@	c #16BDA9",
"m@	c #06B6A1",
"n@	c #0FC0AC",
"o@	c #2BB3A3",
"p@	c #92C7BF",
"q@	c #5AC2BA",
"r@	c #3AB5B2",
"s@	c #1D95A6",
"t@	c #1A90B6",
"u@	c #006DAB",
"v@	c #006BB6",
"w@	c #0761AF",
"x@	c #2375BF",
"y@	c #2F86C9",
"z@	c #2D83CE",
"A@	c #0351B5",
"B@	c #0044B3",
"C@	c #064FBE",
"D@	c #0052B7",
"E@	c #0063B5",
"F@	c #1382D1",
"G@	c #1D72CF",
"H@	c #0045AC",
"I@	c #035BBF",
"J@	c #0072B8",
"K@	c #0791B8",
"L@	c #009CA6",
"M@	c #00ACAA",
"N@	c #03BAB8",
"O@	c #09C0BB",
"P@	c #0CBAB0",
"Q@	c #37C3B8",
"R@	c #85D3D2",
"S@	c #6FD8CA",
"T@	c #4CCABB",
"U@	c #38C5B5",
"V@	c #19B4A6",
"W@	c #39B5AA",
"X@	c #97C5BE",
"Y@	c #7FCCB7",
"Z@	c #4BAFA7",
"`@	c #19949B",
" #	c #0394A7",
".#	c #0498B2",
"+#	c #048AA5",
"@#	c #0E8BA9",
"##	c #26A3C3",
"$#	c #005F91",
"%#	c #0261B1",
"&#	c #0050B2",
"*#	c #0047B0",
"=#	c #005DBD",
"-#	c #0069B1",
";#	c #2299DD",
">#	c #0F6FC3",
",#	c #004CAB",
"'#	c #0053B7",
")#	c #0064B9",
"!#	c #0085B2",
"~#	c #009DAE",
"{#	c #00B3AF",
"]#	c #07C5BB",
"^#	c #02BEBD",
"/#	c #07BBB8",
"(#	c #0FB6A4",
"_#	c #6BE9D5",
":#	c #82D5C8",
"<#	c #69DCCF",
"[#	c #38CFCA",
"}#	c #1DC3C3",
"|#	c #3DDDDD",
"1#	c #4EE7EC",
"2#	c #1FB6C1",
"3#	c #068DAD",
"4#	c #036AAF",
"5#	c #055CB9",
"6#	c #0F61CD",
"7#	c #0360C7",
"8#	c #188ED8",
"9#	c #2097DB",
"0#	c #0161B5",
"a#	c #0050AD",
"b#	c #035BBD",
"c#	c #0064B8",
"d#	c #1095C0",
"e#	c #03A0AF",
"f#	c #0CBEBE",
"g#	c #02BCB7",
"h#	c #009CA0",
"i#	c #10BEBF",
"j#	c #22C9B7",
"k#	c #66E6CF",
"l#	c #76D2C2",
"m#	c #42C8BD",
"n#	c #2CCBC6",
"o#	c #1BC4C1",
"p#	c #08B2B2",
"q#	c #01A5A7",
"r#	c #0C99B4",
"s#	c #197EC2",
"t#	c #0353B6",
"u#	c #0753CB",
"v#	c #0054C9",
"w#	c #0A73CF",
"x#	c #0067BB",
"y#	c #0054B1",
"z#	c #0E57BD",
"A#	c #0048B4",
"B#	c #0259B8",
"C#	c #0171B0",
"D#	c #1199BF",
"E#	c #07A6BB",
"F#	c #0094A1",
"G#	c #03A5B4",
"H#	c #19BCC5",
"I#	c #1AC4BB",
"J#	c #41CBBC",
"K#	c #79DAC7",
"L#	c #22ABA1",
"M#	c #19BCB7",
"N#	c #12BEC0",
"O#	c #00A9B0",
"P#	c #1AB6C5",
"Q#	c #0B8CB3",
"R#	c #025FAC",
"S#	c #1C65CE",
"T#	c #0148C4",
"U#	c #004BC6",
"V#	c #0053B8",
"W#	c #005CBC",
"X#	c #0D56BD",
"Y#	c #0040AC",
"Z#	c #0544B8",
"`#	c #014BB6",
" $	c #0056A5",
".$	c #007CB0",
"+$	c #20B6D1",
"@$	c #07A9B8",
"#$	c #0DABB7",
"$$	c #13B5BA",
"%$	c #0BB6AD",
"&$	c #29B7A9",
"*$	c #88D5D1",
"=$	c #44C1B3",
"-$	c #1ABBB5",
";$	c #07B6B9",
">$	c #03ABB6",
",$	c #11A9C1",
"'$	c #0583B3",
")$	c #0058A0",
"!$	c #044EAF",
"~$	c #2564D5",
"{$	c #0146BD",
"]$	c #0350C4",
"^$	c #004AB2",
"/$	c #0052B9",
"($	c #1254C2",
"_$	c #073FB6",
":$	c #0741BF",
"<$	c #094EC3",
"[$	c #0050AA",
"}$	c #0067A2",
"|$	c #1BB0C6",
"1$	c #0CB4B5",
"2$	c #09B6B2",
"3$	c #09B8AB",
"4$	c #13BEAB",
"5$	c #25B09D",
"6$	c #8CD8D2",
"7$	c #88DFCE",
"8$	c #29B09F",
"9$	c #0EB9B0",
"0$	c #09BFC0",
"a$	c #00A8B5",
"b$	c #12A5C6",
"c$	c #1284C0",
"d$	c #0051A5",
"e$	c #0448B5",
"f$	c #0844BC",
"g$	c #0346BB",
"h$	c #0047B7",
"i$	c #004EB3",
"j$	c #0048AE",
"k$	c #0342B6",
"l$	c #0B42C1",
"m$	c #0440C5",
"n$	c #0048C1",
"o$	c #004CA8",
"p$	c #0070AC",
"q$	c #0C9EB5",
"r$	c #07AFAF",
"s$	c #02B4A8",
"t$	c #03B59F",
"u$	c #17BBA0",
"v$	c #41C3A9",
"w$	c #92D5CD",
"x$	c #8BD6C1",
"y$	c #36B69D",
"z$	c #10BBA8",
"A$	c #05BEB6",
"B$	c #00AAB2",
"C$	c #059BB6",
"D$	c #004F9E",
"E$	c #0149B7",
"F$	c #003EB9",
"G$	c #074DC6",
"H$	c #0045B5",
"I$	c #0256B6",
"J$	c #0151B4",
"K$	c #0343BF",
"L$	c #0644CD",
"M$	c #0043CD",
"N$	c #004DC5",
"O$	c #0060B4",
"P$	c #1B90C5",
"Q$	c #00829F",
"R$	c #00A4AE",
"S$	c #05B6B0",
"T$	c #0CBCA5",
"U$	c #1BB694",
"V$	c #6EE1C0",
"W$	c #6FD0BD",
"X$	c #25B39D",
"Y$	c #1BB9AA",
"Z$	c #28B8B8",
"`$	c #1091A4",
" %	c #1E8BB2",
".%	c #065FA1",
"+%	c #064BA8",
"@%	c #0B48B2",
"#%	c #0647AF",
"$%	c #0A50B0",
"%%	c #1159AB",
"&%	c #0E51A8",
"*%	c #1048B7",
"=%	c #0C44BB",
"-%	c #034CBD",
";%	c #0043A3",
">%	c #0A64A3",
",%	c #4DB5DC",
"'%	c #1C95B0",
")%	c #18A0AC",
"!%	c #14A7A1",
"~%	c #29B8A4",
"{%	c #5EDAB8",
"]%	c #97EDD0",
"^%	c #84D7C8",
"/%	c #6DD2C2",
"(%	c #79D5CA",
"_%	c #62B6B9",
":%	c #3F87A0",
"<%	c #30719B",
"[%	c #1D5590",
"}%	c #22579B",
"|%	c #144B8E",
"1%	c #265B9D",
"2%	c #2A5C9B",
"3%	c #244F93",
"4%	c #284D9B",
"5%	c #24509B",
"6%	c #155696",
"7%	c #176192",
"8%	c #206787",
"9%	c #398295",
"0%	c #42909D",
"a%	c #7ACDD1",
"b%	c #80DAD1",
"c%	c #76CABA",
"d%	c #9CE2CA",
"                                                                                                                                ",
"                                                                                                                                ",
"                                                                                                                                ",
"                                                                                                                                ",
"                                                                                                                                ",
"                                                                                                                                ",
"                                                                                                                                ",
"                                                                                                                                ",
"                                                                                                                                ",
"                                                                                                                                ",
"                                                                                                                                ",
"                                                                                                                                ",
"                                                                                                                                ",
"                                                                                                                                ",
"                                                                                                                                ",
"                                                                                                                                ",
"                                                                                                                                ",
"                                                                                                                                ",
"                                                                                                                                ",
"                                                                                                                                ",
"                                                        . + @ # $ % &                                                           ",
"                                                  * = - ; > , ' ) ! ~ { ]                                                       ",
"                                                ^ / ( _ : < [ } | 1 2 3 4 5 6                                                   ",
"                                              7 8 9 0 a b c d e f g h i j k l                                                   ",
"                                            m n o p q r s t u v w x y z A B C D E F                                             ",
"                                            G H I J K L M N O P Q R S T U V W X Y Z `  ...+.                                    ",
"                            @.#.          $.%.&.*.=.-.;.>.,.'.).!.~.{.].^./.(._.:.<.[.}.|.1.2.3.4.5.                            ",
"                          6.7.8.9.        0.a.b.c.d.e.f.g.h.i.j.k.l.m.n.o.p.q.r.s.t.u.v.w.x.y.z.A.B.C.D.                        ",
"                          E.F.G.H.I.J.  K.L.M.N.O.P.Q.R.S.T.U.V.W.X.Y.Z.`. +.+++@+#+$+%+&+*+=+-+;+>+,+'+)+!+                    ",
"                          ~+{+]+^+/+(+_+:+<+[+}+|+1+2+3+4+5+6+7+8+9+0+a+b+c+d+e+f+g+h+i+j+k+l+m+n+o+p+q+r+s+t+u+                ",
"                            v+w+x+y+z+A+B+C+D+E+F+G+H+I+J+K+L+M+N+O+P+Q+R+S+T+U+V+W+X+Y+Z+`+ @.@+@@@#@$@%@&@*@=@-@              ",
"                            ;@>@,@'@)@!@~@{@]@^@/@(@_@:@<@[@}@|@1@2@3@4@5@6@7@8@9@0@a@b@c@d@e@f@g@h@i@j@k@l@m@n@o@p@            ",
"                              q@r@s@t@u@v@w@x@y@z@A@B@C@D@E@F@G@H@B@I@J@K@L@M@N@O@P@Q@R@                S@T@U@V@W@X@            ",
"                                Y@Z@`@ #.#+#@###$#%#&#*#=#-#;#>#,#'#)#!#~#{#]#^#/#(#_#                        :#                ",
"                                    <#[#}#|#1#2#3#4#5#6#7#8#9#0#a#b#c#d#e#f#g#h#i#j#k#                                          ",
"                                    l#m#n#o#p#q#r#s#t#u#v#w#x#y#z#A#B#C#D#E#F#G#H#I#J#                                          ",
"                                    K#L#M#N#O#P#Q#R#S#T#U#V#W#X#Y#Z#`# $.$+$@$#$$$%$&$*$                                        ",
"                                    =$-$;$>$,$'$)$!$~${$]$^$/$($_$:$<$[$}$|$1$2$3$4$5$6$                                        ",
"                                  7$8$9$0$a$b$c$d$e$f$g$h$i$j$k$l$m$n$o$p$q$r$s$t$u$v$w$                                        ",
"                                  x$y$z$A$B$C$.$D$E$F$G$H$I$J$K$L$M$N$O$P$Q$R$S$T$U$V$                                          ",
"                                    W$X$Y$Z$`$ %.%+%@%#%$%%%&%*%=%-%;%>%,%'%)%!%~%{%]%                                          ",
"                                      ^%/%(%_%:%<%[%}%|%1%2%3%4%5%6%7%8%9%0%a%b%c%d%                                            ",
"                                                                                                                                ",
"                                                                                                                                ",
"                                                                                                                                ",
"                                                                                                                                ",
"                                                                                                                                ",
"                                                                                                                                ",
"                                                                                                                                ",
"                                                                                                                                ",
"                                                                                                                                ",
"                                                                                                                                ",
"                                                                                                                                ",
"                                                                                                                                ",
"                                                                                                                                ",
"                                                                                                                                ",
"                                                                                                                                ",
"                                                                                                                                ",
"                                                                                                                                ",
"                                                                                                                                ",
"                                                                                                                                ",
"                                                                                                                                ",
"                                                                                                                                ",
"                                                                                                                                "};
