/* XPM */
static char * slime4_xpm[] = {
"64 64 600 2",
"  	c None",
". 	c #60C5B5",
"+ 	c #51C6B4",
"@ 	c #54CDBA",
"# 	c #72E6D4",
"$ 	c #52BFAC",
"% 	c #61C8B5",
"& 	c #55B9A6",
"* 	c #7BD7CA",
"= 	c #60DFCC",
"- 	c #2CC5B3",
"; 	c #19BFB1",
"> 	c #10B6AC",
", 	c #14B5AF",
"' 	c #1AB1AA",
") 	c #28BEB5",
"! 	c #15AFA3",
"~ 	c #20C1B1",
"{ 	c #1BC2B1",
"] 	c #1EBBA9",
"^ 	c #4DD3C2",
"/ 	c #46D0B6",
"( 	c #17C5AC",
"_ 	c #01BEAA",
": 	c #00C3B5",
"< 	c #07C1BC",
"[ 	c #04B6B6",
"} 	c #0CB1B5",
"| 	c #00A4A5",
"1 	c #10BAB7",
"2 	c #07BBB2",
"3 	c #05C0B5",
"4 	c #08BEAF",
"5 	c #13B4A2",
"6 	c #43C2B1",
"7 	c #85D3C5",
"8 	c #76E4D9",
"9 	c #48D0BE",
"0 	c #24BCA3",
"a 	c #1DBB9A",
"b 	c #2AC5A3",
"c 	c #55E8CB",
"d 	c #37D5B7",
"e 	c #1ED7B5",
"f 	c #0CD2B1",
"g 	c #03C0AA",
"h 	c #00AFA3",
"i 	c #00AAA7",
"j 	c #00A4A9",
"k 	c #07A5B1",
"l 	c #0097A4",
"m 	c #08A0AB",
"n 	c #08A3A8",
"o 	c #0DADAB",
"p 	c #019E95",
"q 	c #0FA08F",
"r 	c #53DEC5",
"s 	c #4AD0AD",
"t 	c #71D9BA",
"u 	c #3DB2AA",
"v 	c #19ACA6",
"w 	c #14B9B2",
"x 	c #11BFB5",
"y 	c #11BDAF",
"z 	c #38E2D5",
"A 	c #2DD2CB",
"B 	c #19C7BD",
"C 	c #07C9B1",
"D 	c #11D5BD",
"E 	c #05BBAE",
"F 	c #0AB7B5",
"G 	c #0BB2BA",
"H 	c #09A6B9",
"I 	c #0291AF",
"J 	c #119ABC",
"K 	c #0990AE",
"L 	c #0E99B0",
"M 	c #0EA1AB",
"N 	c #089D9B",
"O 	c #17AB9D",
"P 	c #84FFFF",
"Q 	c #46E6C0",
"R 	c #44CCA8",
"S 	c #7CC8B2",
"T 	c #5BC6BD",
"U 	c #29AEB3",
"V 	c #0695A5",
"W 	c #078FA9",
"X 	c #0281A2",
"Y 	c #2FA6C6",
"Z 	c #58CDF0",
"` 	c #0F86AE",
" .	c #0E95B3",
"..	c #0DABB6",
"+.	c #03AFAF",
"@.	c #0EBABE",
"#.	c #00A4B0",
"$.	c #09A0BB",
"%.	c #0086B0",
"&.	c #0B84BD",
"*.	c #0064A3",
"=.	c #047BB5",
"-.	c #1393C2",
";.	c #0CA1B9",
">.	c #12B4B9",
",.	c #19C0B6",
"'.	c #2BD2BE",
").	c #44E4CC",
"!.	c #34C3A7",
"~.	c #5AC8AB",
"{.	c #7DC5AF",
"].	c #8DBDAD",
"^.	c #32AAA1",
"/.	c #0F9EA4",
"(.	c #0089A1",
"_.	c #00638D",
":.	c #00598B",
"<.	c #66C7FA",
"[.	c #2D8DC7",
"}.	c #005094",
"|.	c #0471B2",
"1.	c #0F8DBF",
"2.	c #15A0C7",
"3.	c #10A3C5",
"4.	c #0897BF",
"5.	c #1193C7",
"6.	c #006FB2",
"7.	c #0058AD",
"8.	c #0050A7",
"9.	c #005BAD",
"0.	c #00619F",
"a.	c #008AAE",
"b.	c #05A1AE",
"c.	c #0DB2AE",
"d.	c #1ABEB3",
"e.	c #31C7BE",
"f.	c #58E4D7",
"g.	c #5BE4C8",
"h.	c #85F3D8",
"i.	c #65CBB4",
"j.	c #4AB59B",
"k.	c #80BFAE",
"l.	c #8DD8D2",
"m.	c #36ABA3",
"n.	c #17A9A8",
"o.	c #089AA9",
"p.	c #006F94",
"q.	c #0E7AA8",
"r.	c #41B0DB",
"s.	c #016FA4",
"t.	c #00509E",
"u.	c #0057B2",
"v.	c #0054B2",
"w.	c #005AB3",
"x.	c #005DAE",
"y.	c #0973C1",
"z.	c #0B6DC4",
"A.	c #0053B3",
"B.	c #004DB9",
"C.	c #004AB6",
"D.	c #0050B2",
"E.	c #0065B0",
"F.	c #006896",
"G.	c #21A5BC",
"H.	c #32BDC4",
"I.	c #26B0B3",
"J.	c #4FD2DC",
"K.	c #1A9FA4",
"L.	c #17AE9D",
"M.	c #26B8A1",
"N.	c #57CBBC",
"O.	c #63D2C3",
"P.	c #28BCAC",
"Q.	c #26AF9D",
"R.	c #70BAAB",
"S.	c #5CC1B9",
"T.	c #34B3AC",
"U.	c #21A8AC",
"V.	c #1892A9",
"W.	c #58CFED",
"X.	c #1191AA",
"Y.	c #1190B3",
"Z.	c #0071B3",
"`.	c #0055AD",
" +	c #004AAF",
".+	c #0052BB",
"++	c #004FB4",
"@+	c #0559BC",
"#+	c #0554BD",
"$+	c #0042B2",
"%+	c #0044BE",
"&+	c #0047C0",
"*+	c #004BB8",
"=+	c #025BB7",
"-+	c #278CD0",
";+	c #2391C4",
">+	c #0B7CA6",
",+	c #04759D",
"'+	c #0C7BA9",
")+	c #158FB6",
"!+	c #0394A7",
"~+	c #16A9B1",
"{+	c #27A8AE",
"]+	c #68CED2",
"^+	c #8BDDD7",
"/+	c #46C0B5",
"(+	c #22BDAD",
"_+	c #0EBDAE",
":+	c #21B5A5",
"<+	c #7DCCBD",
"[+	c #81DBCE",
"}+	c #47B5AC",
"|+	c #45C2C6",
"1+	c #41CCD1",
"2+	c #1FB5B3",
"3+	c #37CAD1",
"4+	c #1097B7",
"5+	c #006AA0",
"6+	c #0066AF",
"7+	c #0067BE",
"8+	c #0054B3",
"9+	c #004CB2",
"0+	c #024BBC",
"a+	c #0045BC",
"b+	c #0349C3",
"c+	c #0149C2",
"d+	c #0B58CC",
"e+	c #004FBB",
"f+	c #0053BB",
"g+	c #0050B3",
"h+	c #004FB0",
"i+	c #0055B7",
"j+	c #0060BE",
"k+	c #077ACA",
"l+	c #047AB8",
"m+	c #2994C2",
"n+	c #1D85A2",
"o+	c #2994A2",
"p+	c #64D1D2",
"q+	c #63D0CB",
"r+	c #65D0C8",
"s+	c #6BD4CA",
"t+	c #58C7BE",
"u+	c #28AAA2",
"v+	c #26B9B1",
"w+	c #13B8B1",
"x+	c #0BBDB1",
"y+	c #0ABFAC",
"z+	c #35C7B4",
"A+	c #82D3C6",
"B+	c #58D5CD",
"C+	c #23BDB3",
"D+	c #1FC1B2",
"E+	c #17B8B0",
"F+	c #10A2AF",
"G+	c #0992B2",
"H+	c #0284B6",
"I+	c #0D82C7",
"J+	c #0163BA",
"K+	c #0248BA",
"L+	c #0547C1",
"M+	c #0045BE",
"N+	c #0049BF",
"O+	c #0B58CE",
"P+	c #0043BC",
"Q+	c #0248C2",
"R+	c #0046C2",
"S+	c #0041BA",
"T+	c #0049BD",
"U+	c #0053C1",
"V+	c #004EB3",
"W+	c #005B98",
"X+	c #117EA9",
"Y+	c #1B8FB4",
"Z+	c #1790AF",
"`+	c #1693AF",
" @	c #1798AB",
".@	c #10979B",
"+@	c #0BA09C",
"@@	c #00A9A2",
"#@	c #00B4AD",
"$@	c #0EC2B7",
"%@	c #10AF99",
"&@	c #6EE4CE",
"*@	c #5FD7CE",
"=@	c #19B6AB",
"-@	c #12BCAF",
";@	c #10B7AF",
">@	c #0FA3AD",
",@	c #0995AC",
"'@	c #0B96B5",
")@	c #1595C6",
"!@	c #1178C3",
"~@	c #0458B8",
"{@	c #0245B6",
"]@	c #0142BA",
"^@	c #0047BD",
"/@	c #0048BD",
"(@	c #0049BB",
"_@	c #0754C8",
":@	c #0348C1",
"<@	c #0249BF",
"[@	c #0253BF",
"}@	c #0051B0",
"|@	c #0060BA",
"1@	c #0050A9",
"2@	c #005FA9",
"3@	c #1F9CCC",
"4@	c #1E99C5",
"5@	c #005499",
"6@	c #004FA2",
"7@	c #00569D",
"8@	c #0287A8",
"9@	c #009BA2",
"0@	c #00ABAA",
"a@	c #07C0BA",
"b@	c #05BDBB",
"c@	c #17B7AD",
"d@	c #55C6AD",
"e@	c #6DE9DF",
"f@	c #10B7AD",
"g@	c #07BBB0",
"h@	c #0CBDB7",
"i@	c #08A7AD",
"j@	c #0B9EB0",
"k@	c #0B9AB8",
"l@	c #0C8CBD",
"m@	c #0B72BD",
"n@	c #035AB9",
"o@	c #0048B7",
"p@	c #0048BE",
"q@	c #0049B8",
"r@	c #0250BF",
"s@	c #044DC0",
"t@	c #0047B6",
"u@	c #0051B3",
"v@	c #0063B6",
"w@	c #006FAE",
"x@	c #0E87BE",
"y@	c #0472AD",
"z@	c #0477AD",
"A@	c #098FB4",
"B@	c #0F8FBC",
"C@	c #0062AD",
"D@	c #0054B1",
"E@	c #004EAF",
"F@	c #005FAE",
"G@	c #018DB1",
"H@	c #00A3AC",
"I@	c #00ACA8",
"J@	c #12BDB4",
"K@	c #19B9B1",
"L@	c #3DB8AE",
"M@	c #9AD7C5",
"N@	c #32BEB1",
"O@	c #09C1B7",
"P@	c #00BFB7",
"Q@	c #00BDBB",
"R@	c #04B3B8",
"S@	c #009CB3",
"T@	c #068FBD",
"U@	c #006DB1",
"V@	c #0059AE",
"W@	c #004FB3",
"X@	c #0047B8",
"Y@	c #0048BF",
"Z@	c #004CC2",
"`@	c #004BBE",
" #	c #0353C4",
".#	c #0052BE",
"+#	c #004FB5",
"@#	c #0965BC",
"##	c #127EBF",
"$#	c #0988B3",
"%#	c #099FB0",
"&#	c #08A1A7",
"*#	c #169EAA",
"=#	c #0C8FA1",
"-#	c #007D99",
";#	c #0687AE",
">#	c #006DA0",
",#	c #0072AB",
"'#	c #0388C0",
")#	c #0796C0",
"!#	c #009FB2",
"~#	c #00A4A2",
"{#	c #12B7A6",
"]#	c #20B29D",
"^#	c #4FBCAA",
"/#	c #A8F1D9",
"(#	c #06C6B9",
"_#	c #00C3BA",
":#	c #00C0BD",
"<#	c #00B6B9",
"[#	c #009EB7",
"}#	c #0682C2",
"|#	c #0059B1",
"1#	c #004EB1",
"2#	c #004FBA",
"3#	c #004ABE",
"4#	c #0954C7",
"5#	c #0E59CC",
"6#	c #0854C4",
"7#	c #0042AE",
"8#	c #004FB2",
"9#	c #096ABB",
"0#	c #168BC1",
"a#	c #12A0B8",
"b#	c #16BDB6",
"c#	c #1ECBB8",
"d#	c #4CE9DE",
"e#	c #4DDFDE",
"f#	c #29B3BE",
"g#	c #23A8BB",
"h#	c #1999B2",
"i#	c #1898B3",
"j#	c #0F90A6",
"k#	c #169AA7",
"l#	c #149EA0",
"m#	c #46CCC3",
"n#	c #51CAB9",
"o#	c #7FE0CD",
"p#	c #99EECF",
"q#	c #1AB89F",
"r#	c #00C1B0",
"s#	c #00BDB1",
"t#	c #04B7B3",
"u#	c #0CA3BE",
"v#	c #0067BA",
"w#	c #0044BA",
"x#	c #034AC0",
"y#	c #034ABE",
"z#	c #0044B6",
"A#	c #0F55C4",
"B#	c #4289F5",
"C#	c #0547B7",
"D#	c #0549B8",
"E#	c #0047B3",
"F#	c #004FAA",
"G#	c #006AA9",
"H#	c #20ADCB",
"I#	c #0CB7B1",
"J#	c #09BEAB",
"K#	c #10BCB0",
"L#	c #1BBFB6",
"M#	c #36D2C5",
"N#	c #4AD3C9",
"O#	c #65CECA",
"P#	c #76CCCB",
"Q#	c #73C2BF",
"R#	c #82CAC6",
"S#	c #85CDC4",
"T#	c #97F0D3",
"U#	c #1CBEA6",
"V#	c #01C2AF",
"W#	c #07BFB3",
"X#	c #03B4AE",
"Y#	c #07B7B4",
"Z#	c #18AEC9",
"`#	c #0056AF",
" $	c #0546C4",
".$	c #0244BF",
"+$	c #0143BD",
"@$	c #0044B0",
"#$	c #0A51BB",
"$$	c #0143B4",
"%$	c #0443B7",
"&$	c #0846BD",
"*$	c #0048B2",
"=$	c #0060AC",
"-$	c #129CC3",
";$	c #13BDBD",
">$	c #00B2A2",
",$	c #05B6AC",
"'$	c #1BC7BB",
")$	c #14B8A0",
"!$	c #3EC7AD",
"~$	c #7ACFBB",
"{$	c #92EAD3",
"]$	c #17BAA5",
"^$	c #01C2B1",
"/$	c #01B5AC",
"($	c #01AEAC",
"_$	c #09B8BB",
":$	c #17B0CF",
"<$	c #0057A9",
"[$	c #004AB9",
"}$	c #044AC4",
"|$	c #0043C2",
"1$	c #0044C0",
"2$	c #054DC3",
"3$	c #0046B2",
"4$	c #074EC2",
"5$	c #0143BE",
"6$	c #0B47CC",
"7$	c #0045C1",
"8$	c #0057B5",
"9$	c #0182BB",
"0$	c #13BAC3",
"a$	c #00AA9E",
"b$	c #0CBDB3",
"c$	c #0BB5A8",
"d$	c #19BBA4",
"e$	c #4ACAB1",
"f$	c #9CF1E2",
"g$	c #1DB8AA",
"h$	c #08C2B4",
"i$	c #04B4A9",
"j$	c #00A4A0",
"k$	c #00A6AA",
"l$	c #03A1BE",
"m$	c #006EB3",
"n$	c #0056B6",
"o$	c #004CBD",
"p$	c #0048C1",
"q$	c #0044BF",
"r$	c #0050BD",
"s$	c #0051BC",
"t$	c #0A57CB",
"u$	c #003EBA",
"v$	c #0343C9",
"w$	c #0047C4",
"x$	c #005ABB",
"y$	c #007BB7",
"z$	c #11B1BF",
"A$	c #05B6AE",
"B$	c #08B8AE",
"C$	c #14BAAC",
"D$	c #22B5A2",
"E$	c #84F1DC",
"F$	c #A1EDE8",
"G$	c #22AEA5",
"H$	c #05B1A3",
"I$	c #16C3B0",
"J$	c #00AB9E",
"K$	c #00ACB0",
"L$	c #00A0B7",
"M$	c #0887BA",
"N$	c #0052B1",
"O$	c #0051BE",
"P$	c #004CC0",
"Q$	c #0048BC",
"R$	c #0058C2",
"S$	c #045AC7",
"T$	c #0044B7",
"U$	c #0049C0",
"V$	c #004DBA",
"W$	c #0061B6",
"X$	c #0682B8",
"Y$	c #089EAD",
"Z$	c #0EB4B0",
"`$	c #02B0A7",
" %	c #19B7A9",
".%	c #51CAB8",
"+%	c #79E0DC",
"@%	c #32B9AB",
"#%	c #25B59C",
"$%	c #23B8A4",
"%%	c #089A9A",
"&%	c #1299AC",
"*%	c #1D8FB3",
"=%	c #0F73A7",
"-%	c #00579E",
";%	c #0052A8",
">%	c #0250B2",
",%	c #044FB4",
"'%	c #0A56B6",
")%	c #0B57B5",
"!%	c #014DAB",
"~%	c #004AA8",
"{%	c #0150AD",
"]%	c #0053A6",
"^%	c #0766A8",
"/%	c #1D8AB5",
"(%	c #148FA1",
"_%	c #1DA5A5",
":%	c #1CADA6",
"<%	c #36B9AD",
"[%	c #8CD0C3",
"}%	c #81DABA",
"|%	c #7ADABC",
"1%	c #7CD3CF",
"2%	c #4796A3",
"3%	c #3C899D",
"4%	c #337C9C",
"5%	c #1E638D",
"6%	c #1C5B91",
"7%	c #22599C",
"8%	c #23559E",
"9%	c #2B57A2",
"0%	c #28549D",
"a%	c #1C4D90",
"b%	c #1C5491",
"c%	c #1A5D92",
"d%	c #1C6693",
"e%	c #257598",
"f%	c #368AA4",
"g%	c #388B9D",
"h%	c #41959F",
"i%	c #4BA6A1",
"                                                                                                                                ",
"                                                                                                                                ",
"                                                                                                                                ",
"                                                                                                                                ",
"                                                                                                                                ",
"                                                                                                                                ",
"                                                                                                                                ",
"                                                                                                                                ",
"                                                                                                                                ",
"                                                                                                                                ",
"                                                                                                                                ",
"                                                                                                                                ",
"                                                                                                                                ",
"                                                                                                                                ",
"                                                                                                                                ",
"                                                                                                                                ",
"                                                                                                                                ",
"                                                                                                                                ",
"                                                                                                                                ",
"                                                                                                                                ",
"                                                        . + @ # $ % & *                                                         ",
"                                                    = - ; > , ' ) ! ~ { ] ^                                                     ",
"                                                  / ( _ : < [ } | 1 2 3 4 5 6 7                                                 ",
"                                    8 9 0 a b c d e f g h i j k l m n o p q r s t                                               ",
"                                  u v w x y z A B C D E F G H I J K L M N O P Q R S                                             ",
"                                T U V W X Y Z `  ...+.@.#.$.%.&.*.=.-.;.>.,.'.).!.~.                            {.].            ",
"                                ^./.(._.:.<.[.}.|.1.2.3.4.5.6.7.8.9.0.a.b.c.d.e.f.g.h.                        i.j.k.            ",
"                              l.m.n.o.p.q.r.s.t.u.v.w.x.y.z.A.B.C.D.E.F.G.H.I.J.K.L.M.N.                    O.P.Q.R.            ",
"                                S.T.U.V.W.X.Y.Z.`. +.+++@+#+$+%+&+*+=+-+;+>+,+'+)+!+~+{+]+              ^+/+(+_+:+<+            ",
"                                  [+}+|+1+2+3+4+5+6+7+8+9+0+a+b+c+d+e+f+g+h+i+++j+k+l+m+n+o+p+q+r+s+t+u+v+w+x+y+z+              ",
"                                    A+B+C+D+E+F+G+H+I+J+9+K+L+b+M+N+O+P+Q+R+S+T+U+V+7.W+X+Y+Z+`+ @.@+@@@#@< $@%@&@              ",
"                                      *@=@-@;@>@,@'@)@!@~@{@]@^@/@(@_@:@M+<@[@}@|@1@2@3@4@5@6@1@7@8@9@0@a@b@c@d@                ",
"                                      e@f@g@h@i@j@k@l@m@n@o@a+p@(@q@r@s@t@u@v@w@x@y@z@A@B@C@D@E@F@G@H@I@J@K@L@                  ",
"                                    M@N@O@P@Q@R@S@T@U@V@W@X@Y@Z@`@ #.#+#@###$#%#&#*#=#-#;#>#,#'#)#!#~#{#]#^#                    ",
"                                    /#L.(#_#:#<#[#}#|#1#2#X@3#4#5#6#7#8#9#0#a#b#c#d#e#f#g#h#i#j#k#l#m#n#o#                      ",
"                                    p#q#r#s#a@t#u#v#q@w#x#y#z#A#B#C#D#E#F#G#H#I#J#K#L#M#N#O#P#Q#R#S#                            ",
"                                    T#U#V#W#X#Y#Z#`#M+ $.$+$z#@$#$$$%$&$*$=$-$;$>$,$'$)$!$~$                                    ",
"                                    {$]$^$/$($_$:$<$[$}$|$1$2$B.3$4$5$6$7$8$9$0$a$b$c$d$e$                                      ",
"                                    f$g$h$i$j$k$l$m$n$o$p$q$p@r$s$t$u$v$w$x$y$z$A$B$C$D$E$                                      ",
"                                    F$G$H$I$J$K$L$M$E.N$O$P$Q$.#R$S$T$U$V$W$X$Y$Z$`$ %.%                                        ",
"                                      +%@%#%$%%%&%*%=%-%;%>%,%'%)%!%~%{%]%^%/%(%_%:%<%                                          ",
"                                        [%}%|%1%2%3%4%5%6%7%8%9%0%a%b%c%d%e%f%g%h%i%                                            ",
"                                                                                                                                ",
"                                                                                                                                ",
"                                                                                                                                ",
"                                                                                                                                ",
"                                                                                                                                ",
"                                                                                                                                ",
"                                                                                                                                ",
"                                                                                                                                ",
"                                                                                                                                ",
"                                                                                                                                ",
"                                                                                                                                ",
"                                                                                                                                ",
"                                                                                                                                ",
"                                                                                                                                ",
"                                                                                                                                ",
"                                                                                                                                ",
"                                                                                                                                ",
"                                                                                                                                ",
"                                                                                                                                ",
"                                                                                                                                ",
"                                                                                                                                ",
"                                                                                                                                "};
