/* XPM */
static char * slime5_xpm[] = {
"64 64 595 2",
"  	c None",
". 	c #66DBBF",
"+ 	c #6FE1C0",
"@ 	c #8AD9D4",
"# 	c #66CEC3",
"$ 	c #4FD2C0",
"% 	c #37CDB4",
"& 	c #16B595",
"* 	c #21BC9A",
"= 	c #34BF9E",
"- 	c #6FE8CC",
"; 	c #7BD9C6",
"> 	c #79D8C3",
", 	c #55D5BE",
"' 	c #2BC7B1",
") 	c #14C0AA",
"! 	c #11B9A8",
"~ 	c #0CB2A4",
"{ 	c #19BCAB",
"] 	c #18B9A7",
"^ 	c #17BDA5",
"/ 	c #12B99D",
"( 	c #16B99E",
"_ 	c #27C3AB",
": 	c #4BDBC5",
"< 	c #70E1D2",
"[ 	c #93DEC7",
"} 	c #70D3B4",
"| 	c #59CBA7",
"1 	c #5FCFA9",
"2 	c #80DCBB",
"3 	c #79DAC6",
"4 	c #40CAB0",
"5 	c #1DC6A9",
"6 	c #0ACBB0",
"7 	c #00BCAB",
"8 	c #08BDB6",
"9 	c #08B0B1",
"0 	c #0BA8AD",
"a 	c #06A1A6",
"b 	c #02A8A6",
"c 	c #17C8BE",
"d 	c #08C3B2",
"e 	c #05C2AC",
"f 	c #07BEA8",
"g 	c #2AC7B4",
"h 	c #64D0C2",
"i 	c #A0F5E4",
"j 	c #56CCB6",
"k 	c #3FCBB0",
"l 	c #48E3C3",
"m 	c #3EDEBA",
"n 	c #42DCB6",
"o 	c #51E7C4",
"p 	c #5AEDD1",
"q 	c #31C9B2",
"r 	c #1AC2A9",
"s 	c #0CBEA8",
"t 	c #01B7AA",
"u 	c #05B8B5",
"v 	c #00A5B1",
"w 	c #0093AB",
"x 	c #0493B5",
"y 	c #0D99BD",
"z 	c #0897B9",
"A 	c #059CB7",
"B 	c #009CA8",
"C 	c #07B5B6",
"D 	c #0BBFB6",
"E 	c #14BFAF",
"F 	c #33C8B5",
"G 	c #82DED3",
"H 	c #54C7C0",
"I 	c #60E7E3",
"J 	c #34CBC6",
"K 	c #30D0C8",
"L 	c #2DD1C6",
"M 	c #34DBCA",
"N 	c #2CD7C4",
"O 	c #1DCDB9",
"P 	c #21D4C1",
"Q 	c #03BAA8",
"R 	c #07C0B2",
"S 	c #10C3BD",
"T 	c #0BB4BB",
"U 	c #0AA4BE",
"V 	c #0891BD",
"W 	c #017CB8",
"X 	c #0066AC",
"Y 	c #0069AF",
"Z 	c #0076B1",
"` 	c #0C95BF",
" .	c #069EB5",
"..	c #05AAB0",
"+.	c #00A79D",
"@.	c #16C3AF",
"#.	c #41D1BC",
"$.	c #79D3CA",
"%.	c #41B7B9",
"&.	c #149AA6",
"*.	c #0B8EAA",
"=.	c #0D8DB0",
"-.	c #108AB3",
";.	c #1F9BC1",
">.	c #25ACC9",
",.	c #13A9BA",
"'.	c #12B7BB",
").	c #0BBBB8",
"!.	c #06BFB7",
"~.	c #06C1B8",
"{.	c #00B5B3",
"].	c #09AFBD",
"^.	c #008BB2",
"/.	c #0066A7",
"(.	c #004BA4",
"_.	c #004EB3",
":.	c #004CB2",
"<.	c #0056B1",
"[.	c #005CA1",
"}.	c #0483B0",
"|.	c #0A98AC",
"1.	c #06A6A6",
"2.	c #04B9A8",
"3.	c #22CCB2",
"4.	c #57D6C3",
"5.	c #66C9C8",
"6.	c #1A9CA9",
"7.	c #0088A5",
"8.	c #006196",
"9.	c #00599D",
"0.	c #0865B2",
"a.	c #0360AD",
"b.	c #0068AB",
"c.	c #006DA6",
"d.	c #0088AF",
"e.	c #069DB8",
"f.	c #05A6BA",
"g.	c #15B8CB",
"h.	c #0DABC4",
"i.	c #008FB7",
"j.	c #006CAA",
"k.	c #0054A8",
"l.	c #054EB7",
"m.	c #0041B5",
"n.	c #0245B8",
"o.	c #0048B2",
"p.	c #005DB1",
"q.	c #006EAB",
"r.	c #0E88AF",
"s.	c #0A99A9",
"t.	c #0BBCB4",
"u.	c #1BCEBB",
"v.	c #1DAFA2",
"w.	c #48B5AF",
"x.	c #96D5D5",
"y.	c #99CEC4",
"z.	c #68C6C8",
"A.	c #1592A4",
"B.	c #0281AC",
"C.	c #004E9B",
"D.	c #004CAE",
"E.	c #0047AB",
"F.	c #0851B7",
"G.	c #004DB1",
"H.	c #0052B0",
"I.	c #0054AB",
"J.	c #00539F",
"K.	c #005DA0",
"L.	c #1485C7",
"M.	c #0675BC",
"N.	c #005BAD",
"O.	c #0155B7",
"P.	c #0048B4",
"Q.	c #0345B5",
"R.	c #0749B9",
"S.	c #0047B4",
"T.	c #075AC0",
"U.	c #035EB7",
"V.	c #2284CF",
"W.	c #3EA2DD",
"X.	c #0983A8",
"Y.	c #04A8B1",
"Z.	c #08B2B2",
"`.	c #0694A0",
" +	c #1C94A5",
".+	c #2D90A5",
"++	c #5CB8C5",
"@+	c #68CBC5",
"#+	c #72DBCC",
"$+	c #68DFCA",
"%+	c #3FBCAA",
"&+	c #37B4A4",
"*+	c #77D1C5",
"=+	c #7AC8CD",
"-+	c #2F9DAC",
";+	c #1286AB",
">+	c #005AA0",
",+	c #0050A9",
"'+	c #004AA6",
")+	c #004CAC",
"!+	c #0050B7",
"~+	c #0056BD",
"{+	c #014FB1",
"]+	c #0051B0",
"^+	c #0055B2",
"/+	c #0051B2",
"(+	c #0457BD",
"_+	c #003FAA",
":+	c #0448B7",
"<+	c #0246B5",
"[+	c #0C54C2",
"}+	c #004CB8",
"|+	c #004FB8",
"1+	c #237DDE",
"2+	c #358FE7",
"3+	c #0C61B1",
"4+	c #0367A5",
"5+	c #0B90B9",
"6+	c #0C98BC",
"7+	c #0E88B7",
"8+	c #0071A3",
"9+	c #006995",
"0+	c #0D86A3",
"a+	c #149DA3",
"b+	c #10A69D",
"c+	c #15B3A5",
"d+	c #13B4A2",
"e+	c #1CB9A6",
"f+	c #6EE2D1",
"g+	c #66B9BD",
"h+	c #40A6B5",
"i+	c #1C84A7",
"j+	c #0B7AA8",
"k+	c #077FB3",
"l+	c #0379B7",
"m+	c #0A6EBC",
"n+	c #055FB5",
"o+	c #479DF4",
"p+	c #1068C2",
"q+	c #025BBF",
"r+	c #0561C8",
"s+	c #0048AE",
"t+	c #004EB2",
"u+	c #0053B3",
"v+	c #1565C6",
"w+	c #0958C1",
"x+	c #0047B3",
"y+	c #0359CA",
"z+	c #0259CA",
"A+	c #004DBA",
"B+	c #0659BF",
"C+	c #0048AA",
"D+	c #004FAB",
"E+	c #0050AD",
"F+	c #0055B1",
"G+	c #004AA9",
"H+	c #004FA6",
"I+	c #005EA3",
"J+	c #006999",
"K+	c #0A97B2",
"L+	c #029CA6",
"M+	c #08A7AA",
"N+	c #15B2AB",
"O+	c #1CB19E",
"P+	c #70DFCC",
"Q+	c #99E7E7",
"R+	c #70D1D8",
"S+	c #2CA4B2",
"T+	c #0699AB",
"U+	c #069BB9",
"V+	c #0E8ABD",
"W+	c #107EBB",
"X+	c #2D97D5",
"Y+	c #1379C1",
"Z+	c #005FBC",
"`+	c #025FC6",
" @	c #004EB6",
".@	c #196ECB",
"+@	c #085BB9",
"@@	c #004EB4",
"#@	c #0045B3",
"$@	c #004EC4",
"%@	c #0B60D5",
"&@	c #004ABD",
"*@	c #0046B2",
"=@	c #004DB5",
"-@	c #0049B2",
";@	c #0349B9",
">@	c #054BBD",
",@	c #0048B7",
"'@	c #0052B2",
")@	c #006EB3",
"!@	c #23AADA",
"~@	c #0A9ABC",
"{@	c #039EB2",
"]@	c #01A4AB",
"^@	c #1DB8B4",
"/@	c #3DC0B0",
"(@	c #7DD8C5",
"_@	c #97DCD5",
":@	c #8CF9F1",
"<@	c #10B1A9",
"[@	c #00A3A3",
"}@	c #0AA5B7",
"|@	c #0895B1",
"1@	c #0F99B3",
"2@	c #00739C",
"3@	c #0066AD",
"4@	c #0B6DC6",
"5@	c #0051B6",
"6@	c #0046AE",
"7@	c #2F7BDD",
"8@	c #024BB1",
"9@	c #0045B2",
"0@	c #034EC1",
"a@	c #0044BC",
"b@	c #0D59D1",
"c@	c #0A58C7",
"d@	c #004AB3",
"e@	c #004DB2",
"f@	c #004EB1",
"g@	c #0E5DC4",
"h@	c #005BBB",
"i@	c #0064B3",
"j@	c #1DA6D4",
"k@	c #008BA7",
"l@	c #008DA7",
"m@	c #079FAD",
"n@	c #03AFAF",
"o@	c #1BB5AB",
"p@	c #57BDAD",
"q@	c #82E0CD",
"r@	c #12B5A0",
"s@	c #05C4B4",
"t@	c #0DBDBB",
"u@	c #0CB4B7",
"v@	c #00A2A4",
"w@	c #069CAD",
"x@	c #0583B5",
"y@	c #005BA8",
"z@	c #0256B8",
"A@	c #0D53C2",
"B@	c #0040B0",
"C@	c #0249BB",
"D@	c #0149BF",
"E@	c #044CC4",
"F@	c #0B53C9",
"G@	c #0047B7",
"H@	c #0048B1",
"I@	c #0051B4",
"J@	c #0260BA",
"K@	c #137DCB",
"L@	c #0173BA",
"M@	c #0076B8",
"N@	c #007DAD",
"O@	c #09A2B4",
"P@	c #12ABB1",
"Q@	c #048A95",
"R@	c #29AEB5",
"S@	c #31C2BF",
"T@	c #45C1B7",
"U@	c #96DDD1",
"V@	c #1DB6A4",
"W@	c #02C3B0",
"X@	c #01BBB0",
"Y@	c #05BDB5",
"Z@	c #03BCB4",
"`@	c #00A0A7",
" #	c #0A96B7",
".#	c #1282C1",
"+#	c #1267C4",
"@#	c #034ABC",
"##	c #0040BD",
"$#	c #0146C5",
"%#	c #0044BD",
"&#	c #0047BE",
"*#	c #024AC0",
"=#	c #0651C4",
"-#	c #0653C5",
";#	c #0759C5",
">#	c #0059BE",
",#	c #0978C7",
"'#	c #0193BC",
")#	c #0CACC2",
"!#	c #07A8BA",
"~#	c #09ACB1",
"{#	c #05A99E",
"]#	c #079B8B",
"^#	c #34A9A1",
"/#	c #66C4C3",
"(#	c #7FD0CC",
"_#	c #99D7D0",
":#	c #1BB2A3",
"<#	c #03C2B2",
"[#	c #06C0B3",
"}#	c #05BEB6",
"|#	c #00BEB6",
"1#	c #00AFB3",
"2#	c #0A9AB5",
"3#	c #0F80B8",
"4#	c #0257B2",
"5#	c #044BBF",
"6#	c #0146C7",
"7#	c #0147C9",
"8#	c #014DC5",
"9#	c #004ABC",
"0#	c #0750BF",
"a#	c #1059C8",
"b#	c #0045B6",
"c#	c #065FC7",
"d#	c #087CC7",
"e#	c #07A2BE",
"f#	c #0FC1C1",
"g#	c #07BCB7",
"h#	c #07B9AB",
"i#	c #24D0B8",
"j#	c #53E6CC",
"k#	c #8AEADE",
"l#	c #94DCD6",
"m#	c #1BB5A9",
"n#	c #00B9AE",
"o#	c #18C6C4",
"p#	c #04B0B2",
"q#	c #05B9BA",
"r#	c #05ADBA",
"s#	c #1197BA",
"t#	c #0670AE",
"u#	c #0050AC",
"v#	c #0148BA",
"w#	c #0045C0",
"x#	c #0048C1",
"y#	c #004DBB",
"z#	c #1A6BD4",
"A#	c #206AD3",
"B#	c #0A4EBB",
"C#	c #0041B4",
"D#	c #0046BA",
"E#	c #0050BF",
"F#	c #0065BA",
"G#	c #0D98BF",
"H#	c #0FB3BC",
"I#	c #11C4C1",
"J#	c #08BEB2",
"K#	c #0EBDAC",
"L#	c #25B2A2",
"M#	c #8ED9D4",
"N#	c #88D5CC",
"O#	c #1EB6A9",
"P#	c #05BFB2",
"Q#	c #0AB6B6",
"R#	c #00A7AC",
"S#	c #0CB9BF",
"T#	c #0FB0C4",
"U#	c #0D8CB9",
"V#	c #0368B0",
"W#	c #0044B6",
"X#	c #0049C0",
"Y#	c #0048BE",
"Z#	c #0046B4",
"`#	c #0149B5",
" $	c #0143B1",
".$	c #0A49BB",
"+$	c #074ABD",
"@$	c #004BBA",
"#$	c #005AB2",
"$$	c #0079A6",
"%$	c #1CB9CA",
"&$	c #00AFB2",
"*$	c #0BC0BB",
"=$	c #0ABBB3",
"-$	c #21B1A8",
";$	c #7FCECA",
">$	c #22B7A3",
",$	c #0CC3B1",
"'$	c #09BEB9",
")$	c #00A9A9",
"!$	c #01ADB1",
"~$	c #0DA8BE",
"{$	c #047FBA",
"]$	c #0464BB",
"^$	c #0652C0",
"/$	c #0146BF",
"($	c #0046BB",
"_$	c #004CC0",
":$	c #004BBE",
"<$	c #0245BA",
"[$	c #0344BA",
"}$	c #084ABB",
"|$	c #0048B6",
"1$	c #004CB4",
"2$	c #005EB3",
"3$	c #007AAD",
"4$	c #05A1BA",
"5$	c #07B3BD",
"6$	c #14C8C9",
"7$	c #13C5C7",
"8$	c #1BB6B2",
"9$	c #51BEB3",
"0$	c #3CBDA7",
"a$	c #13BAA6",
"b$	c #08B8AD",
"c$	c #00A7A1",
"d$	c #00A8A8",
"e$	c #089FB4",
"f$	c #0077B4",
"g$	c #0056B2",
"h$	c #0043BC",
"i$	c #0044B8",
"j$	c #0049BC",
"k$	c #034BC3",
"l$	c #0749C4",
"m$	c #0344BC",
"n$	c #0044B3",
"o$	c #0048AD",
"p$	c #006BB5",
"q$	c #0D96C2",
"r$	c #05A1B7",
"s$	c #00A7AD",
"t$	c #00ADAA",
"u$	c #008686",
"v$	c #27BEB9",
"w$	c #53C1B6",
"x$	c #89E6D3",
"y$	c #43CDB6",
"z$	c #1AB9A5",
"A$	c #0BB3A6",
"B$	c #00A29B",
"C$	c #0295A5",
"D$	c #0780B9",
"E$	c #005CB3",
"F$	c #0050BB",
"G$	c #054CC0",
"H$	c #003FB1",
"I$	c #044AC3",
"J$	c #0448C3",
"K$	c #0446C1",
"L$	c #0247BC",
"M$	c #0053AF",
"N$	c #0062B0",
"O$	c #0075AE",
"P$	c #0A97B3",
"Q$	c #009BA1",
"R$	c #0ABEB2",
"S$	c #10C5B2",
"T$	c #08AD9D",
"U$	c #2FB1A5",
"V$	c #7BCAC5",
"W$	c #61C4AF",
"X$	c #43C2AD",
"Y$	c #34C1B0",
"Z$	c #17A398",
"`$	c #14949D",
" %	c #208CB3",
".%	c #0F68AA",
"+%	c #0D59AD",
"@%	c #1257B6",
"#%	c #0044A5",
"$%	c #0F50B4",
"%%	c #1152B8",
"&%	c #0847B0",
"*%	c #0842AD",
"=%	c #0B49AE",
"-%	c #0950A8",
";%	c #045AA5",
">%	c #0B6FAD",
",%	c #1687B3",
"'%	c #1A99AC",
")%	c #19A5A4",
"!%	c #1AB5A3",
"~%	c #1EB69D",
"{%	c #35B6A0",
"]%	c #7DDED1",
"^%	c #96E3D3",
"/%	c #8EE9D8",
"(%	c #76D6CA",
"_%	c #63C2BE",
":%	c #5AABB8",
"<%	c #3C839F",
"[%	c #286793",
"}%	c #225D97",
"|%	c #165090",
"1%	c #1D569B",
"2%	c #20579A",
"3%	c #1C5193",
"4%	c #1F5093",
"5%	c #245598",
"6%	c #235999",
"7%	c #23649A",
"8%	c #2E7BA5",
"9%	c #388FAB",
"0%	c #2C8897",
"a%	c #379998",
"b%	c #74D9CD",
"c%	c #78D5C2",
"d%	c #95D9C8",
"                                                                                                                                ",
"                                                                                                                                ",
"                                                                                                                                ",
"                                                                                                                                ",
"                                                                                                                                ",
"                                                                                                                                ",
"                                                                                                                                ",
"                                                                                                                                ",
"                                                                                                                                ",
"                                                                                                                                ",
"                                                                                                                                ",
"                                                                                                                                ",
"                                                                                                                                ",
"                                                                                                                                ",
"                                                                                                                                ",
"                                                                                                                                ",
"                                                                                                                                ",
"                                                                                                                                ",
"                                                                                                                                ",
"                                                                . +                                                             ",
"                                                        @ # $ % & * = - ;                                                       ",
"                                                    > , ' ) ! ~ { ] ^ / ( _ : <                                                 ",
"                                    [ } | 1 2     3 4 5 6 7 8 9 0 a b c d e f g h                                               ",
"                                  i j k l m n o p q r s t u v w x y z A B C D E F                                               ",
"                                G H I J K L M N O P Q R S T U V W X Y Z `  ...+.@.#.                                            ",
"                              $.%.&.*.=.-.;.>.,.'.).!.~.{.].^./.(._.:.<.[.}.|.1.2.3.4.                                          ",
"                              5.6.7.8.9.0.a.b.c.d.e.f.g.h.i.j.k.l.m.n.o.p.q.r.s.t.u.v.w.x.          y.                          ",
"                              z.A.B.C.D.E.F.G.H.I.J.K.L.M.N.O.P.Q.R.S.T.U.V.W.X.Y.Z.`. +.+++@+#+$+%+&+*+                        ",
"                              =+-+;+>+,+'+)+!+~+_.{+]+^+/+(+_+:+<+[+}+|+1+2+3+4+5+6+7+8+9+0+a+b+c+d+e+f+                        ",
"                                g+h+i+j+k+l+m+n+o+p+q+r+s+t+u+v+w+x+y+z+A+B+C+D+E+F+G+H+I+J+K+L+M+N+O+P+                        ",
"                                  Q+R+S+T+U+V+W+X+Y+Z+`+ @_..@+@@@#@$@%@&@*@=@-@;@>@,@'@)@!@~@{@]@^@/@(@                        ",
"                                    _@:@<@[@}@|@1@2@3@4@5@6@7@8@9@0@a@b@c@d@e@f@g@@@h@i@j@k@l@m@n@o@p@                          ",
"                                      q@r@s@t@u@v@w@x@y@z@P.A@B@C@D@E@F@G@H@I@J@K@L@M@N@O@P@Q@R@S@T@                            ",
"                                      U@V@W@X@Y@Z@`@ #.#+#@###$#%#&#*#=#-#;#>#,#'#)#!#~#{#]#^#/#(#                              ",
"                                      _#:#<#[#}#|#1#2#3#4#5#6#7#8#9#0#a#b#,@c#d#e#f#g#h#i#j#k#                                  ",
"                                      l#m#n#o#p#q#r#s#t#u#v#w#x#y#z#A#B#C#D#E#F#G#H#I#J#K#L#M#                                  ",
"                                      N#O#P#Q#R#S#T#U#V#t+W#X#Y#Z#|+`# $.$+$@$#$$$%$&$*$=$-$;$                                  ",
"                                        >$,$'$)$!$~${$]$^$/$*#($_$:$<$[$}$|$1$2$3$4$5$6$7$8$9$                                  ",
"                                        0$a$b$c$d$e$f$g$@$h$i$j$&#k$l$m$n$o$^+p$q$r$s$t$u$v$w$                                  ",
"                                        x$y$z$A$B$C$D$E$F$G$H$5#I$J$K$L$1$M$N$O$P$Q$R$S$T$U$V$                                  ",
"                                          W$X$Y$Z$`$ %.%+%@%#%$%%%&%*%=%-%;%>%,%'%)%!%~%{%]%                                    ",
"                                            ^%/%(%_%:%<%[%}%|%1%2%3%4%5%6%7%8%9%0%a%b%c%d%                                      ",
"                                                                                                                                ",
"                                                                                                                                ",
"                                                                                                                                ",
"                                                                                                                                ",
"                                                                                                                                ",
"                                                                                                                                ",
"                                                                                                                                ",
"                                                                                                                                ",
"                                                                                                                                ",
"                                                                                                                                ",
"                                                                                                                                ",
"                                                                                                                                ",
"                                                                                                                                ",
"                                                                                                                                ",
"                                                                                                                                ",
"                                                                                                                                ",
"                                                                                                                                ",
"                                                                                                                                ",
"                                                                                                                                ",
"                                                                                                                                ",
"                                                                                                                                ",
"                                                                                                                                "};
