/* XPM */
static char * slime2_xpm[] = {
"64 64 610 2",
"  	c None",
". 	c #77D6CD",
"+ 	c #73E3D5",
"@ 	c #69DECB",
"# 	c #6BD8C3",
"$ 	c #7AD6C5",
"% 	c #7BD4C3",
"& 	c #56C0AC",
"* 	c #6BE6D9",
"= 	c #2FBDAF",
"- 	c #0CB1A0",
"; 	c #10BCA6",
"> 	c #1CC0A7",
", 	c #2CBEA7",
"' 	c #4AC1AE",
") 	c #6ECDBD",
"! 	c #6BD1BC",
"~ 	c #58D7CE",
"{ 	c #25B7AD",
"] 	c #16B098",
"^ 	c #1CBFA2",
"/ 	c #17BFA6",
"( 	c #0ABCA6",
"_ 	c #06C5B3",
": 	c #00C2B1",
"< 	c #00BBAA",
"[ 	c #0BC0AD",
"} 	c #12BFAC",
"| 	c #16B59F",
"1 	c #29B199",
"2 	c #6DDEC8",
"3 	c #6FE1C8",
"4 	c #3DD5BE",
"5 	c #13BAB2",
"6 	c #05B9B0",
"7 	c #10C5B6",
"8 	c #08BFAB",
"9 	c #09BCA7",
"0 	c #05BEAC",
"a 	c #04C3BC",
"b 	c #00C0BF",
"c 	c #05BDBB",
"d 	c #07C0BA",
"e 	c #01BFB3",
"f 	c #0EC5B3",
"g 	c #19BDA4",
"h 	c #21B39C",
"i 	c #48CABE",
"j 	c #6ED4CC",
"k 	c #75D5C7",
"l 	c #26C8B3",
"m 	c #0FCAB7",
"n 	c #07B8AE",
"o 	c #13C0BE",
"p 	c #09B5B9",
"q 	c #00A5AB",
"r 	c #03A3A1",
"s 	c #00A2A4",
"t 	c #00A1B3",
"u 	c #00A3BB",
"v 	c #09A5BC",
"w 	c #0096A8",
"x 	c #00989E",
"y 	c #19BEB8",
"z 	c #15B0A0",
"A 	c #1CB9A6",
"B 	c #0DBCAD",
"C 	c #28C8BC",
"D 	c #66D5CE",
"E 	c #99D9CF",
"F 	c #8CDCCA",
"G 	c #7ADFD1",
"H 	c #47CEC0",
"I 	c #12CBBB",
"J 	c #06C2B3",
"K 	c #1EB4A9",
"L 	c #1FA7A7",
"M 	c #0699AD",
"N 	c #0899B8",
"O 	c #098FAC",
"P 	c #1395B7",
"Q 	c #0A94C5",
"R 	c #068FC5",
"S 	c #1598C6",
"T 	c #1198B8",
"U 	c #0FA7B4",
"V 	c #3AD3D0",
"W 	c #72FBEB",
"X 	c #2ABDAA",
"Y 	c #04BFAE",
"Z 	c #0FCBBC",
"` 	c #31C9BC",
" .	c #62D0C7",
"..	c #7ED7C9",
"+.	c #64DDCC",
"@.	c #5CD4CB",
"#.	c #46C4C0",
"$.	c #2AB0B1",
"%.	c #20ADA4",
"&.	c #26BC99",
"*.	c #2AC69F",
"=.	c #2DD0BB",
"-.	c #20CFC2",
";.	c #0EC6BE",
">.	c #21BDB2",
",.	c #85DCCC",
"'.	c #C7FFFF",
").	c #087393",
"!.	c #0068A1",
"~.	c #0059A0",
"{.	c #0050A2",
"].	c #0052B0",
"^.	c #0065BD",
"/.	c #107DBE",
"(.	c #0F8BB1",
"_.	c #089DA4",
":.	c #27B8AB",
"<.	c #97FFEF",
"[.	c #81F7DF",
"}.	c #18BFAD",
"|.	c #0ECAB9",
"1.	c #12C9B7",
"2.	c #22C7B6",
"3.	c #4FD6C5",
"4.	c #6ED5C4",
"5.	c #86C7B5",
"6.	c #48C2B7",
"7.	c #1DBFB0",
"8.	c #13B5AA",
"9.	c #0EB3AF",
"0.	c #0FB6BE",
"a.	c #13BBBE",
"b.	c #13B9AD",
"c.	c #0AB2A5",
"d.	c #00ABAB",
"e.	c #09B8BB",
"f.	c #0EC0C0",
"g.	c #22AEAB",
"h.	c #C1FFFC",
"i.	c #86B2BF",
"j.	c #126494",
"k.	c #00539D",
"l.	c #004EAB",
"m.	c #0048B3",
"n.	c #004BC1",
"o.	c #004AB9",
"p.	c #0050A8",
"q.	c #006CA7",
"r.	c #058BA4",
"s.	c #159B9C",
"t.	c #4CBAAD",
"u.	c #76EDDA",
"v.	c #1AB7AC",
"w.	c #0EC1BB",
"x.	c #00B5B1",
"y.	c #00AEA8",
"z.	c #09ADA2",
"A.	c #2BB5A8",
"B.	c #50B6A9",
"C.	c #78C8BB",
"D.	c #89D0C0",
"E.	c #93CCC6",
"F.	c #2BB3A9",
"G.	c #0BB9AF",
"H.	c #0EB8AD",
"I.	c #009EA1",
"J.	c #0596B5",
"K.	c #007CAF",
"L.	c #005F9C",
"M.	c #005A97",
"N.	c #0785B7",
"O.	c #12A1C3",
"P.	c #10B4C0",
"Q.	c #1AAAB2",
"R.	c #A0F2FF",
"S.	c #4B89B0",
"T.	c #0E599C",
"U.	c #004BA0",
"V.	c #034FAF",
"W.	c #0045B2",
"X.	c #0247C6",
"Y.	c #0049C9",
"Z.	c #0049B9",
"`.	c #0051AD",
" +	c #00599B",
".+	c #1F94BF",
"++	c #22A6B5",
"@+	c #26B7BA",
"#+	c #12AFB6",
"$+	c #07A9B6",
"%+	c #0096B2",
"&+	c #089DBB",
"*+	c #0C99AB",
"=+	c #109DA6",
"-+	c #1AAEAE",
";+	c #21B4AA",
">+	c #2FB7A3",
",+	c #6FD9C3",
"'+	c #8ECBC3",
")+	c #27B0A8",
"!+	c #03B4AA",
"~+	c #09BAB0",
"{+	c #00A3A6",
"]+	c #018FB3",
"^+	c #006CAC",
"/+	c #004BA3",
"(+	c #0158B5",
"_+	c #0162B1",
":+	c #0D81BC",
"<+	c #0F9BBE",
"[+	c #0789AB",
"}+	c #328DC2",
"|+	c #0E579B",
"1+	c #2572C0",
"2+	c #1D6AC4",
"3+	c #0043A8",
"4+	c #0B54C5",
"5+	c #0043C1",
"6+	c #0047C7",
"7+	c #0043BC",
"8+	c #004EBC",
"9+	c #004DAD",
"0+	c #005AA6",
"a+	c #006EA0",
"b+	c #109EC2",
"c+	c #0A9ABF",
"d+	c #018BB9",
"e+	c #007FBC",
"f+	c #006EAD",
"g+	c #006CA3",
"h+	c #007AA6",
"i+	c #0295B6",
"j+	c #0CACBA",
"k+	c #1BBAB5",
"l+	c #2EB1A1",
"m+	c #49C5BD",
"n+	c #13BCB5",
"o+	c #06C3BD",
"p+	c #00AFB2",
"q+	c #009BB1",
"r+	c #0080AC",
"s+	c #005CA4",
"t+	c #005BB1",
"u+	c #004FA4",
"v+	c #0053A3",
"w+	c #005AA2",
"x+	c #0266B1",
"y+	c #0F64BF",
"z+	c #1868C7",
"A+	c #3F95EC",
"B+	c #1F74CE",
"C+	c #0451BB",
"D+	c #004ABC",
"E+	c #004CC0",
"F+	c #004BBF",
"G+	c #0352C9",
"H+	c #0249BF",
"I+	c #0140B1",
"J+	c #054AB2",
"K+	c #0058B4",
"L+	c #0065BA",
"M+	c #0063B6",
"N+	c #005FB5",
"O+	c #004EAC",
"P+	c #0052B2",
"Q+	c #075FC0",
"R+	c #015CB7",
"S+	c #005CAE",
"T+	c #0069A6",
"U+	c #0F9DB5",
"V+	c #29ADAF",
"W+	c #6ABFB6",
"X+	c #78D6CD",
"Y+	c #2DB3AC",
"Z+	c #0DB3A9",
"`+	c #0BBCB6",
" @	c #0CB1B5",
".@	c #089FB4",
"+@	c #0A8AB9",
"@@	c #127FC0",
"#@	c #015EAB",
"$@	c #0054A9",
"%@	c #0048A2",
"&@	c #0458BA",
"*@	c #0858C9",
"=@	c #0B5BCC",
"-@	c #0C63C2",
";@	c #004AA7",
">@	c #0047B2",
",@	c #0555C4",
"'@	c #005BC0",
")@	c #0058BE",
"!@	c #004ABB",
"~@	c #0B4EC3",
"{@	c #0843B9",
"]@	c #0E49BD",
"^@	c #0D53C3",
"/@	c #0A5DC7",
"(@	c #005AC1",
"_@	c #0055B6",
":@	c #0050AF",
"<@	c #004FAF",
"[@	c #0044A9",
"}@	c #0956C0",
"|@	c #0352BB",
"1@	c #0053A8",
"2@	c #0B94BE",
"3@	c #24AEB8",
"4@	c #60C1BA",
"5@	c #6EDBCA",
"6@	c #27B09E",
"7@	c #1EBDAB",
"8@	c #13B4AE",
"9@	c #1CABBB",
"0@	c #56D2F4",
"a@	c #137DB1",
"b@	c #0D6BB1",
"c@	c #005AB2",
"d@	c #004EB6",
"e@	c #0049C0",
"f@	c #0046AB",
"g@	c #034DAE",
"h@	c #084CB9",
"i@	c #004EB4",
"j@	c #2B9BEF",
"k@	c #0056A8",
"l@	c #085CBF",
"m@	c #0448B5",
"n@	c #0345B3",
"o@	c #084AB8",
"p@	c #1155C0",
"q@	c #0E57BD",
"r@	c #00439E",
"s@	c #0051A0",
"t@	c #06609F",
"u@	c #2880BF",
"v@	c #90E2FF",
"w@	c #0758B1",
"x@	c #0A5DC5",
"y@	c #0054AC",
"z@	c #008AB4",
"A@	c #18AFB8",
"B@	c #56C1B9",
"C@	c #45C8AE",
"D@	c #2CBFAC",
"E@	c #2CC2C0",
"F@	c #17A6B6",
"G@	c #2AA9CA",
"H@	c #1488BB",
"I@	c #0A7BBF",
"J@	c #005CB4",
"K@	c #0047B6",
"L@	c #044BBF",
"M@	c #0049B0",
"N@	c #0551B1",
"O@	c #0A58BA",
"P@	c #0760BA",
"Q@	c #2D9FE8",
"R@	c #005DA6",
"S@	c #0059B2",
"T@	c #004BAC",
"U@	c #004DB0",
"V@	c #004CAF",
"W@	c #0E56BC",
"X@	c #0049A8",
"Y@	c #025AA4",
"Z@	c #0869A0",
"`@	c #2B93B6",
" #	c #4DB8D8",
".#	c #0C71A5",
"+#	c #00579B",
"@#	c #0058AC",
"##	c #0060A6",
"$#	c #008CAA",
"%#	c #1EB4B5",
"&#	c #56C0B4",
"*#	c #65D3C3",
"=#	c #22B9B4",
"-#	c #12B7BD",
";#	c #0FAABC",
">#	c #0095AE",
",#	c #059FB9",
"'#	c #0085B5",
")#	c #0054AF",
"!#	c #004AB6",
"~#	c #004FB6",
"{#	c #0055B2",
"]#	c #086EB8",
"^#	c #2C97DB",
"/#	c #2187D1",
"(#	c #005EAC",
"_#	c #0068B9",
":#	c #006ABC",
"<#	c #2390E3",
"[#	c #0058AD",
"}#	c #004FAC",
"|#	c #004FA1",
"1#	c #0271A8",
"2#	c #1390AC",
"3#	c #58DFE3",
"4#	c #26B1B4",
"5#	c #0793AE",
"6#	c #006087",
"7#	c #007BA6",
"8#	c #0596B3",
"9#	c #13B1B4",
"0#	c #27B4A4",
"a#	c #81DBC9",
"b#	c #78D9C6",
"c#	c #1CB7B1",
"d#	c #03B9BC",
"e#	c #08BBC2",
"f#	c #00B1B7",
"g#	c #0DBBBC",
"h#	c #15ADC4",
"i#	c #006EBB",
"j#	c #0051B8",
"k#	c #0655BE",
"l#	c #0A61C2",
"m#	c #127CC6",
"n#	c #1481C6",
"o#	c #0564B4",
"p#	c #0662B7",
"q#	c #2895EA",
"r#	c #0973C9",
"s#	c #0067BC",
"t#	c #0052A5",
"u#	c #127EBF",
"v#	c #22A7C8",
"w#	c #27BAC2",
"x#	c #39CFC6",
"y#	c #1AB4AA",
"z#	c #11B0B6",
"A#	c #11ADB9",
"B#	c #1CB1B8",
"C#	c #1FADAE",
"D#	c #29B1A3",
"E#	c #5ACBB4",
"F#	c #55C1AE",
"G#	c #15BAB4",
"H#	c #02C4C4",
"I#	c #00BEBD",
"J#	c #00B2AD",
"K#	c #0DBEB4",
"L#	c #13ABB8",
"M#	c #0069AB",
"N#	c #0052B5",
"O#	c #0048B7",
"P#	c #0C55C4",
"Q#	c #0967C7",
"R#	c #0063BE",
"S#	c #0054B4",
"T#	c #0258BB",
"U#	c #0054BA",
"V#	c #0A5FC9",
"W#	c #1563CF",
"X#	c #0051B2",
"Y#	c #0475BB",
"Z#	c #18A0CA",
"`#	c #0EA5B6",
" $	c #29C4C6",
".$	c #34C9C7",
"+$	c #22B8AF",
"@$	c #16B8A9",
"#$	c #19B4A2",
"$$	c #30B0A1",
"%$	c #54C0B0",
"&$	c #74D1BC",
"*$	c #4FC3AE",
"=$	c #11B8B0",
"-$	c #00B5B4",
";$	c #00C5C2",
">$	c #00BCB8",
",$	c #1EC4C2",
"'$	c #018DA4",
")$	c #0062A9",
"!$	c #004BB2",
"~$	c #074EC4",
"{$	c #044AC4",
"]$	c #0157C6",
"^$	c #004FB8",
"/$	c #0050B6",
"($	c #004CB5",
"_$	c #0048B2",
":$	c #0048B6",
"<$	c #0081B8",
"[$	c #16B0CA",
"}$	c #08ABB0",
"|$	c #04A9A5",
"1$	c #40D8DB",
"2$	c #45D8D2",
"3$	c #3ECEB7",
"4$	c #56D5B9",
"5$	c #7DDDC6",
"6$	c #50C4AD",
"7$	c #1CBDAD",
"8$	c #00B1AA",
"9$	c #00B1B0",
"0$	c #04AAB6",
"a$	c #22A9C6",
"b$	c #006CA2",
"c$	c #0057B0",
"d$	c #024DCD",
"e$	c #003FC2",
"f$	c #004BC2",
"g$	c #004DBA",
"h$	c #0049AB",
"i$	c #0048A9",
"j$	c #0251AE",
"k$	c #004DA9",
"l$	c #0068B0",
"m$	c #0597BC",
"n$	c #15B9C5",
"o$	c #0EB6B7",
"p$	c #0AB3B0",
"q$	c #0EB2B4",
"r$	c #2BBAB6",
"s$	c #7BE2CD",
"t$	c #6BCAB4",
"u$	c #1AB19E",
"v$	c #05B5AA",
"w$	c #02ACAC",
"x$	c #069FB1",
"y$	c #0C85B2",
"z$	c #005AA3",
"A$	c #0048AF",
"B$	c #0049C4",
"C$	c #0047CC",
"D$	c #0047CA",
"E$	c #004BC4",
"F$	c #004DBD",
"G$	c #0049B5",
"H$	c #004AAE",
"I$	c #1567BD",
"J$	c #0D69B4",
"K$	c #0066A7",
"L$	c #007DAC",
"M$	c #0EA9BF",
"N$	c #0BB3B6",
"O$	c #009F9B",
"P$	c #0CB1AA",
"Q$	c #12B2AA",
"R$	c #4ACCC0",
"S$	c #97DFCB",
"T$	c #25AE9A",
"U$	c #07B8A8",
"V$	c #00A2A3",
"W$	c #059AAE",
"X$	c #0780AD",
"Y$	c #0264AF",
"Z$	c #0247C8",
"`$	c #0041C3",
" %	c #0549C6",
".%	c #0653C7",
"+%	c #004DBE",
"@%	c #0044B9",
"#%	c #0556BF",
"$%	c #1C80CC",
"%%	c #0070A4",
"&%	c #007D9D",
"*%	c #14A1B3",
"=%	c #11A9B4",
"-%	c #00999C",
";%	c #06AA9F",
">%	c #17B49F",
",%	c #30BB9E",
"'%	c #71DABB",
")%	c #74DCCA",
"!%	c #31BEAE",
"~%	c #149C9A",
"{%	c #1F9DAB",
"]%	c #248FB1",
"^%	c #136CA8",
"/%	c #0A53AF",
"(%	c #0544AE",
"_%	c #0B45B0",
":%	c #0D48B0",
"<%	c #1758BC",
"[%	c #0044A7",
"}%	c #094DB2",
"|%	c #0B56B1",
"1%	c #4EAEEB",
"2%	c #2090B5",
"3%	c #27A3AD",
"4%	c #169896",
"5%	c #179798",
"6%	c #28ABA6",
"7%	c #43CABC",
"8%	c #55D1B9",
"9%	c #8DF2D2",
"0%	c #84D1C9",
"a%	c #77C8C7",
"b%	c #65B4C2",
"c%	c #3D89A3",
"d%	c #2A6D98",
"e%	c #16538A",
"f%	c #205694",
"g%	c #215295",
"h%	c #1F4F97",
"i%	c #2C5EA3",
"j%	c #194F8D",
"k%	c #215E94",
"l%	c #18618A",
"m%	c #2E849D",
"n%	c #2C8E91",
"o%	c #41A196",
"p%	c #77C9BC",
"q%	c #89D5C9",
"r%	c #9CE9DC",
"s%	c #9DE0D1",
"                                                                                                                                ",
"                                                                                                                                ",
"                                                                                                                                ",
"                                                                                                                                ",
"                                                                                                                                ",
"                                                                                                                                ",
"                                                                                                                                ",
"                                                                                                                                ",
"                                                                                                                                ",
"                                                                                                                                ",
"                                                                                                                                ",
"                                                                                                                                ",
"                                                                                                                                ",
"                                                                                                                                ",
"                                                                                                                                ",
"                                                                                                                                ",
"                                                                                                                                ",
"                                                                                                                                ",
"                                                                                                                                ",
"                                                              . + @ # $                                                         ",
"                                                        % & * = - ; > , ' )                                                     ",
"                                                  ! ~ { ] ^ / ( _ : < [ } | 1 2                                                 ",
"                                                3 4 5 6 7 8 9 0 a b c d e f g h i j                                             ",
"                                              k l m n o p q r s t u v w x y z A B C D                                           ",
"                                        E F G H I J K L M N O P Q R S T U V W X Y Z `  .                                        ",
"                            ..+.@.#.$.%.&.*.=.-.;.>.,.'.).!.~.{.].^./.(._.:.<.[.}.|.1.2.3.4.5.                                  ",
"                            6.7.8.9.0.a.b.c.d.e.f.g.h.i.j.k.l.m.n.o.p.q.r.s.t.u.v.w.x.y.z.A.B.C.D.                              ",
"                          E.F.G.H.I.J.K.L.M.N.O.P.Q.R.S.T.U.V.W.X.Y.Z.`. +.+++@+#+$+%+&+*+=+-+;+>+,+                            ",
"                          '+)+!+~+{+]+^+/+(+_+:+<+[+}+|+1+2+3+4+5+6+7+8+9+0+a+b+c+d+e+f+g+h+i+j+k+l+                            ",
"                            m+n+o+p+q+r+s+t+u+v+w+x+y+z+A+B+C+D+E+F+G+H+I+J+K+L+M+N+O+P+Q+R+S+T+U+V+W+                          ",
"                            X+Y+Z+`+ @.@+@@@#@$@%@&@*@=@-@;@>@,@'@)@!@~@{@]@^@/@(@_@:@<@[@}@|@1@2@3@4@                          ",
"                                5@6@7@8@9@0@a@b@c@d@e@H+f@g@h@i@j@k@l@m@n@o@p@q@r@s@t@u@v@w@x@y@z@A@B@                          ",
"                                    C@D@E@F@G@H@I@J@K@L@M@N@O@P@Q@R@S@T@U@V@W@X@Y@Z@`@ #.#+#@###$#%#&#                          ",
"                                      *#=#-#;#>#,#'#)#!#~#{#]#^#/#(#_#:#<#[#}#|#1#2#3#4#5#6#7#8#9#0#a#                          ",
"                                      b#c#d#e#f#g#h#i#j#k#l#m#n#o#p#1@q#r#s#t#u#v#w#x#y#z#A#B#C#D#E#                            ",
"                                      F#G#H#I#J#K#L#M#N#O#P#Q#R#S#T#U#V#W#X#Y#Z#`# $.$+$@$#$$$%$&$                              ",
"                                      *$=$-$;$>$,$'$)$!$~${$]$^$j#/$($_$:$`.<$[$}$|$1$2$3$4$5$                                  ",
"                                      6$7$8$9$0$a$b$c$!@d$e$f$g$i@h$i$j$k$l$m$n$o$p$q$r$s$                                      ",
"                                      t$u$v$w$x$y$z$A$B$C$D$E$F$G$H$I$J$K$L$M$N$O$P$Q$R$S$                                      ",
"                                        T$U$V$W$X$Y$o.Z$`$ %.%+%@%#%$%%%&%*%=%-%;%>%,%'%                                        ",
"                                        )%!%~%{%]%^%/%(%_%:%<%[%}%|%1%2%3%4%5%6%7%8%9%                                          ",
"                                            0%a%b%c%d%e%f%g%h%i%j%k%l%m%n%o%p%q%r%s%                                            ",
"                                                                                                                                ",
"                                                                                                                                ",
"                                                                                                                                ",
"                                                                                                                                ",
"                                                                                                                                ",
"                                                                                                                                ",
"                                                                                                                                ",
"                                                                                                                                ",
"                                                                                                                                ",
"                                                                                                                                ",
"                                                                                                                                ",
"                                                                                                                                ",
"                                                                                                                                ",
"                                                                                                                                ",
"                                                                                                                                ",
"                                                                                                                                ",
"                                                                                                                                ",
"                                                                                                                                ",
"                                                                                                                                ",
"                                                                                                                                ",
"                                                                                                                                ",
"                                                                                                                                "};
