/* XPM */
static char * tree2_xpm[] = {
"64 64 5 1",
" 	c #1C1616",
".	c #110E0E",
"+	c #231E1C",
"@	c #2F2926",
"#	c #070707",
" .............................................................. ",
" +++++@@++++++++++++++++++++@@+++++++++++++++++++++++++++++++++ ",
" ++++++@@++++++++++++++++++++++++@@@+++++++++++++++++++++++++++ ",
" +++++++++++++++@@++++++++++++++++@@@@@@+++++++++@@@@@@++++++++ ",
" +++#...........######......#######.......######......######+++ ",
" +++   ++++++ . +++++  ..+++++         +++++     # +++++    +++ ",
" +++          .        .++                       #     ++   +++ ",
" +++          .        #           ..            #          +++ ",
" +++          .        .          ....           .          +++ ",
" +++         ..  ...   .    ...........  ....  ...          +++ ",
" +++#+++++++++####..........###############...........######+++ ",
" @++#             #+      #     #    +++++++++#    #        ++@ ",
" @++#             #       #     #.           +#    #        ++@ ",
" @++#.            #       #    .#.            #    #        ++@ ",
" +++#....        .#       #    .#.          ..#   .#.      .+++ ",
" +++#....      ...#... ...#.....#...     .....#....#........+++ ",
" +++#.............#.......#.....##............#....#........+++ ",
" +++##########################################.#############+++ ",
" +++########################################################+++ ",
" +++....   #...       ...#..       ...#..  .......#     ....+++ ",
" +++.......#.............#............#...........#.........+++ ",
" +++.......#.............#............#...........#.........+++ ",
" +++.......#.............#............#...........#.........+++ ",
" +++########################################################+++ ",
" +++#.............##............#...#.........#.............+++ ",
" +++#.............#.............#...#.........#.............+++ ",
" +++#..########...#..#######...##...#.##......#.............+++ ",
" +++#...###########......########..#########..#.##########..+++ ",
" +@+########################################################+@+ ",
" +@+########################################################+@+ ",
" @@+########################################################+@@ ",
" @@+########################################################+@@ ",
" @@+########################################################+@@ ",
" @@+########################################################+@@ ",
" @@+########################################################+@@ ",
" @++########################################################++@ ",
" @++########################################################++@ ",
" +++########################################################+++ ",
" +++########################################################+++ ",
" +++########################################################+++ ",
" +++########################################################+++ ",
" +++########################################################+++ ",
" +++########################################################+++ ",
" +++########################################################+++ ",
" +++########################################################+++ ",
" +++########################################################+++ ",
" +++########################################################+++ ",
" +++########################################################+++ ",
" +++########################################################+++ ",
" ++@########################################################+++ ",
" ++@########################################################+++ ",
" ++@########################################################+++ ",
" ++@########################################################+++ ",
" ++@########################################################+++ ",
" ++@########################################################+++ ",
" ++@########################################################+++ ",
" +++########################################################+++ ",
" +++########################################################+++ ",
" +++########################################################+++ ",
" +++########################################################+++ ",
" @@++++++++@@@@@@@@@@@++++++++++++++++++++++@@@@@++@@@@@@@+++@@ ",
" @@+++++++++++++@@++++++++++++++++@@@@@@+++++++++@@@@@@+++++@@@ ",
" +++++++++++++++++++++++++++@@+++++++++++++++++++++++++++++++++ ",
"                                                                "};
