/* XPM */
static char * player_nord_est1_xpm[] = {
"64 64 311 2",
"  	c None",
". 	c #211E23",
"+ 	c #1A171B",
"@ 	c #191519",
"# 	c #171215",
"$ 	c #141418",
"% 	c #121014",
"& 	c #121013",
"* 	c #21232A",
"= 	c #212227",
"- 	c #1C1B1F",
"; 	c #110F13",
"> 	c #21262E",
", 	c #435061",
"' 	c #3B313A",
") 	c #241F23",
"! 	c #151316",
"~ 	c #0F0D10",
"{ 	c #1D2026",
"] 	c #353E4B",
"^ 	c #36272D",
"/ 	c #281F23",
"( 	c #161215",
"_ 	c #0F0C0F",
": 	c #18191F",
"< 	c #202025",
"[ 	c #1E1D21",
"} 	c #181519",
"| 	c #100D0F",
"1 	c #0E0A0C",
"2 	c #543A2E",
"3 	c #16171C",
"4 	c #17171C",
"5 	c #151418",
"6 	c #140F12",
"7 	c #180E0F",
"8 	c #0B080A",
"9 	c #563C30",
"0 	c #583D31",
"a 	c #573C30",
"b 	c #52382D",
"c 	c #352623",
"d 	c #191518",
"e 	c #1C1111",
"f 	c #080709",
"g 	c #4F392D",
"h 	c #543B2F",
"i 	c #563B2F",
"j 	c #51372C",
"k 	c #40261E",
"l 	c #371913",
"m 	c #3B1A12",
"n 	c #070607",
"o 	c #453328",
"p 	c #4F382D",
"q 	c #53392E",
"r 	c #553A2E",
"s 	c #56392D",
"t 	c #56362B",
"u 	c #533126",
"v 	c #4C271E",
"w 	c #050506",
"x 	c #3B2C23",
"y 	c #473329",
"z 	c #4E362B",
"A 	c #51372B",
"B 	c #54382C",
"C 	c #56382D",
"D 	c #57362B",
"E 	c #4E3C3F",
"F 	c #2A2125",
"G 	c #1E1C20",
"H 	c #19171A",
"I 	c #110F12",
"J 	c #070608",
"K 	c #413026",
"L 	c #473227",
"M 	c #4C3429",
"N 	c #51362B",
"O 	c #55372C",
"P 	c #574343",
"Q 	c #566174",
"R 	c #26262E",
"S 	c #221F25",
"T 	c #1B191D",
"U 	c #151215",
"V 	c #09080A",
"W 	c #412E24",
"X 	c #473026",
"Y 	c #4A3127",
"Z 	c #4B3228",
"` 	c #382E2F",
" .	c #363F4D",
"..	c #2D2B34",
"+.	c #39262C",
"@.	c #171417",
"#.	c #0A0608",
"$.	c #0B090C",
"%.	c #3B2B22",
"&.	c #3E2B22",
"*.	c #422C23",
"=.	c #402B23",
"-.	c #242023",
";.	c #23252C",
">.	c #2C282F",
",.	c #5F373E",
"'.	c #482B31",
").	c #1C191D",
"!.	c #191114",
"~.	c #131012",
"{.	c #33251D",
"].	c #37251D",
"^.	c #38251D",
"/.	c #231C1E",
"(.	c #1D1E24",
"_.	c #24252B",
":.	c #34262C",
"<.	c #3D272D",
"[.	c #1E1B1F",
"}.	c #1C1417",
"|.	c #1A1011",
"1.	c #1F1A18",
"2.	c #2F241C",
"3.	c #2D2018",
"4.	c #2A1C15",
"5.	c #241915",
"6.	c #19181D",
"7.	c #1F2025",
"8.	c #232025",
"9.	c #231F24",
"0.	c #1E1B1E",
"a.	c #150F11",
"b.	c #170B09",
"c.	c #181210",
"d.	c #201916",
"e.	c #2D221A",
"f.	c #2B1C14",
"g.	c #27150F",
"h.	c #231616",
"i.	c #1D1B1F",
"j.	c #1F1D22",
"k.	c #1F1D21",
"l.	c #1F1A1D",
"m.	c #1B1214",
"n.	c #190C0A",
"o.	c #17100D",
"p.	c #171211",
"q.	c #1B1617",
"r.	c #1E1514",
"s.	c #221210",
"t.	c #23100D",
"u.	c #2A1C18",
"v.	c #2A1B19",
"w.	c #2E1B1A",
"x.	c #361C17",
"y.	c #2C1918",
"z.	c #1A1214",
"A.	c #19110E",
"B.	c #19100E",
"C.	c #180E0C",
"D.	c #180E0D",
"E.	c #170B0A",
"F.	c #1D100C",
"G.	c #342018",
"H.	c #3A1D14",
"I.	c #3D1C13",
"J.	c #3E1E16",
"K.	c #190E0F",
"L.	c #1C1411",
"M.	c #1A120F",
"N.	c #1C1310",
"O.	c #1B120E",
"P.	c #1B100C",
"Q.	c #1C0F0B",
"R.	c #1C0D09",
"S.	c #160604",
"T.	c #24160F",
"U.	c #301A13",
"V.	c #351911",
"W.	c #3A1B13",
"X.	c #1B1310",
"Y.	c #1C130F",
"Z.	c #1B120F",
"`.	c #19100D",
" +	c #190F0C",
".+	c #180D0A",
"++	c #180C09",
"@+	c #140705",
"#+	c #150805",
"$+	c #1D0E09",
"%+	c #24120C",
"&+	c #1A120E",
"*+	c #1A110E",
"=+	c #1A0F0C",
"-+	c #190D0A",
";+	c #180C08",
">+	c #160806",
",+	c #160705",
"'+	c #170805",
")+	c #1B130F",
"!+	c #1D1410",
"~+	c #1C110E",
"{+	c #1A0E0A",
"]+	c #1A0D09",
"^+	c #190A07",
"/+	c #180906",
"(+	c #1B110D",
"_+	c #1D1310",
":+	c #1D120E",
"<+	c #1B0F0C",
"[+	c #1A0D0A",
"}+	c #1B0C09",
"|+	c #1A0A07",
"1+	c #1C0A07",
"2+	c #34251D",
"3+	c #1E1511",
"4+	c #1C100D",
"5+	c #1A0F0B",
"6+	c #1B0E0A",
"7+	c #23100B",
"8+	c #2D140D",
"9+	c #34170F",
"0+	c #4C372C",
"a+	c #472E24",
"b+	c #301711",
"c+	c #21130E",
"d+	c #1A100D",
"e+	c #25120C",
"f+	c #31160F",
"g+	c #371911",
"h+	c #391A12",
"i+	c #4B352A",
"j+	c #452A20",
"k+	c #361810",
"l+	c #2A160E",
"m+	c #311810",
"n+	c #381A11",
"o+	c #35251D",
"p+	c #482F25",
"q+	c #3D2118",
"r+	c #35160E",
"s+	c #301810",
"t+	c #391A11",
"u+	c #2D211A",
"v+	c #3F271E",
"w+	c #361A12",
"x+	c #260F09",
"y+	c #331C14",
"z+	c #3A1C13",
"A+	c #3C1B12",
"B+	c #150C09",
"C+	c #1C0906",
"D+	c #110503",
"E+	c #432A20",
"F+	c #43241B",
"G+	c #421F16",
"H+	c #160E0B",
"I+	c #100605",
"J+	c #120806",
"K+	c #1B100D",
"L+	c #4C3227",
"M+	c #48281F",
"N+	c #3D1D14",
"O+	c #160D0A",
"P+	c #130806",
"Q+	c #1D100D",
"R+	c #20120E",
"S+	c #1D0D0A",
"T+	c #443127",
"U+	c #4B3126",
"V+	c #45261C",
"W+	c #3A1A12",
"X+	c #170D0A",
"Y+	c #180907",
"Z+	c #0D0403",
"`+	c #402D24",
" @	c #482D23",
".@	c #32160E",
"+@	c #000000",
"@@	c #1B110E",
"#@	c #1C0F0C",
"$@	c #0F0403",
"%@	c #030100",
"&@	c #070403",
"*@	c #2A1A14",
"=@	c #3B241C",
"-@	c #371C14",
";@	c #26100A",
">@	c #150A07",
",@	c #0E0403",
"'@	c #030101",
")@	c #140B08",
"!@	c #130604",
"~@	c #100503",
"{@	c #160F0C",
"]@	c #150B08",
"^@	c #130805",
"/@	c #120B08",
"(@	c #150806",
"_@	c #140A07",
":@	c #1A0C09",
"<@	c #1D0D09",
"[@	c #190907",
"}@	c #160B08",
"|@	c #190906",
"1@	c #170806",
"2@	c #0E0402",
"3@	c #040101",
"4@	c #0F0907",
"5@	c #0F0604",
"6@	c #060201",
"                                                                                                                                ",
"                                                                                                                                ",
"                                                                                                                                ",
"                                                                                                                                ",
"                                                                                                                                ",
"                                                                                                                                ",
"                                                                                                                                ",
"                                                                                                                                ",
"                                                                            .                                                   ",
"                                                                            +                                                   ",
"                                                                            @                                                   ",
"                                                                            #                                                   ",
"                                                                          $                                                     ",
"                                                                          %                                                     ",
"                                                                          &                                                     ",
"                                                          * = -           ;                                                     ",
"                                                        > , ' ) !         ~                                                     ",
"                                                        { ] ^ / (         _                                                     ",
"                                                        : < [ } |         1                                                     ",
"                                                  2     3 4 5 6 7         8                                                     ",
"                                                9 0 a b c d 6 e           f                                                     ",
"                                                g h i i j k l m           n                                                     ",
"                                                o p q r s t u v           w                                                     ",
"                                                x y z A B C D E F G H I   J                                                     ",
"                                                  K L M N O P Q R S T U   V                                                     ",
"                                                    W X Y Z `  ...+.G @.#.$.                                                    ",
"                                                    %.&.*.=.-.;.>.,.'.).!.~.                                                    ",
"                                                      {.].^./.(._.:.<.[.}.|.                                                    ",
"                                                    1.2.3.4.5.6.7.8.9.0.a.b.                                                    ",
"                                                    c.d.e.f.g.h.i.j.k.l.m.n.                                                    ",
"                                                    o.p.q.r.s.t.u.v.w.x.y.z.                                                    ",
"                                                    A.A.B.C.D.E.F.G.H.I.J.K.                                                    ",
"                                                  L.M.N.O.P.Q.R.S.T.U.V.W.                                                      ",
"                                                  X.Y.Z.`. +.+++@+#+$+%+                                                        ",
"                                                  &+Z.*+&+=+-+;+>+,+'+                                                          ",
"                                                  A.)+)+!+~+{+]+^+/+'+                                                          ",
"                                                  (+Z.)+_+:+<+[+}+|+1+                                                          ",
"                                                    2+3+O.4+5+6+7+8+9+                                                          ",
"                                                  0+a+b+c+d+5+e+f+g+h+                                                          ",
"                                                  i+j+k+      l+m+g+n+                                                          ",
"                                                o+p+q+r+        s+n+t+                                                          ",
"                                                u+v+w+x+        y+z+A+                                                          ",
"                                                B+R.C+D+        E+F+G+                                                          ",
"                                                H+I+J+K+        L+M+N+                                                          ",
"                                                O+P+Q+R+S+    T+U+V+W+                                                          ",
"                                                X+@+Y+^+Z+    `+ @F+.@              +@+@+@+@+@+@+@+@+@+@+@+@                    ",
"                                              @@#@,+$@%@+@+@&@*@=@-@;@            +@+@+@+@+@+@+@+@+@+@+@+@+@+@                  ",
"                                              H+>@,@'@        H+)@!@~@              +@+@+@+@+@+@+@+@+@+@+@+@+@+@  +@+@          ",
"                                                              {@]@^@                +@+@+@+@+@+@+@+@                            ",
"                                                              /@]@(@  K+++        +@+@+@+@                                      ",
"                                                                _@@+:@<@[@Z++@  +@+@                                            ",
"                                                              *+}@|@1+1@2@+@+@+@                                                ",
"                                                              _+{+#+~@3@                                                        ",
"                                                              4@5@6@                                                            ",
"                                                                                                                                ",
"                                                                                                                                ",
"                                                                                                                                ",
"                                                                                                                                ",
"                                                                                                                                ",
"                                                                                                                                ",
"                                                                                                                                ",
"                                                                                                                                ",
"                                                                                                                                ",
"                                                                                                                                "};
