/* XPM */
static char * player_ouest1_xpm[] = {
"64 64 291 2",
"  	c None",
". 	c #4E333B",
"+ 	c #3B252A",
"@ 	c #2A2026",
"# 	c #2E1F23",
"$ 	c #1B1A1F",
"% 	c #20191D",
"& 	c #16161A",
"* 	c #1C191D",
"= 	c #16151A",
"- 	c #1B1A1E",
"; 	c #111317",
"> 	c #17161A",
", 	c #0D090B",
"' 	c #131216",
") 	c #0D090C",
"! 	c #110F12",
"~ 	c #100C0E",
"{ 	c #1F2026",
"] 	c #120E11",
"^ 	c #0F0B0C",
"/ 	c #222830",
"( 	c #38414F",
"_ 	c #2D262C",
": 	c #232025",
"< 	c #1B191C",
"[ 	c #0F0C0F",
"} 	c #0E0A0A",
"| 	c #17191F",
"1 	c #23262D",
"2 	c #3C4654",
"3 	c #3C2B31",
"4 	c #292025",
"5 	c #171417",
"6 	c #161215",
"7 	c #0C0B0E",
"8 	c #0D0808",
"9 	c #15181E",
"0 	c #1A1C21",
"a 	c #1C1D22",
"b 	c #201F23",
"c 	c #1B191D",
"d 	c #130F12",
"e 	c #120F12",
"f 	c #08080B",
"g 	c #070506",
"h 	c #121418",
"i 	c #141419",
"j 	c #141318",
"k 	c #131115",
"l 	c #120C0E",
"m 	c #1F1212",
"n 	c #110E10",
"o 	c #070709",
"p 	c #050304",
"q 	c #070405",
"r 	c #211A18",
"s 	c #1A1213",
"t 	c #181012",
"u 	c #140E10",
"v 	c #2B1412",
"w 	c #3B1D15",
"x 	c #170F10",
"y 	c #040404",
"z 	c #040303",
"A 	c #3F2F25",
"B 	c #36241C",
"C 	c #2D160F",
"D 	c #391911",
"E 	c #431E15",
"F 	c #441F16",
"G 	c #050404",
"H 	c #503C31",
"I 	c #4C362C",
"J 	c #492E24",
"K 	c #512F25",
"L 	c #4C271C",
"M 	c #462218",
"N 	c #421F15",
"O 	c #0E0708",
"P 	c #070607",
"Q 	c #151114",
"R 	c #322721",
"S 	c #4F3A2F",
"T 	c #50392E",
"U 	c #54392E",
"V 	c #57372B",
"W 	c #533126",
"X 	c #4B281E",
"Y 	c #452218",
"Z 	c #23222A",
"` 	c #160D0F",
" .	c #0E0A0B",
"..	c #382C25",
"+.	c #4D382D",
"@.	c #51392E",
"#.	c #553A2E",
"$.	c #58382C",
"%.	c #553327",
"&.	c #4D2A20",
"*.	c #432117",
"=.	c #191A1F",
"-.	c #171317",
";.	c #261011",
">.	c #1B0E0E",
",.	c #352821",
"'.	c #4B372C",
").	c #4E372C",
"!.	c #53382D",
"~.	c #563429",
"{.	c #49261C",
"].	c #3F1F15",
"^.	c #120C0B",
"/.	c #150907",
"(.	c #190907",
"_.	c #1B0A08",
":.	c #34271E",
"<.	c #46352A",
"[.	c #4A3329",
"}.	c #50352A",
"|.	c #54352A",
"1.	c #452319",
"2.	c #3B1D14",
"3.	c #1A1310",
"4.	c #1A110F",
"5.	c #1D120E",
"6.	c #180B09",
"7.	c #403026",
"8.	c #463227",
"9.	c #52372C",
"0.	c #533429",
"a.	c #502E24",
"b.	c #412117",
"c.	c #19120F",
"d.	c #1D1412",
"e.	c #1C1618",
"f.	c #28201E",
"g.	c #3E2F26",
"h.	c #49352A",
"i.	c #4E352A",
"j.	c #4D2F25",
"k.	c #45241B",
"l.	c #361A12",
"m.	c #1A181B",
"n.	c #39414E",
"o.	c #362A2B",
"p.	c #3D2A22",
"q.	c #4A3429",
"r.	c #482F25",
"s.	c #41261C",
"t.	c #361B12",
"u.	c #240F0B",
"v.	c #16181E",
"w.	c #372F30",
"x.	c #4C362B",
"y.	c #452F25",
"z.	c #3F271E",
"A.	c #331A12",
"B.	c #25110D",
"C.	c #140807",
"D.	c #160907",
"E.	c #241B19",
"F.	c #433026",
"G.	c #3A261D",
"H.	c #2F1A12",
"I.	c #1F0E0A",
"J.	c #140806",
"K.	c #170A07",
"L.	c #231914",
"M.	c #2B1E16",
"N.	c #22130D",
"O.	c #1A0C08",
"P.	c #150604",
"Q.	c #140604",
"R.	c #150705",
"S.	c #180A07",
"T.	c #1B1411",
"U.	c #18100C",
"V.	c #150A07",
"W.	c #140705",
"X.	c #19110E",
"Y.	c #180F0C",
"Z.	c #160D0A",
"`.	c #160906",
" +	c #170806",
".+	c #180906",
"++	c #1C1511",
"@+	c #18110E",
"#+	c #170E0B",
"$+	c #180E0B",
"%+	c #180B08",
"&+	c #1A0B08",
"*+	c #160806",
"=+	c #1E1713",
"-+	c #1C1410",
";+	c #1B120E",
">+	c #190D0A",
",+	c #1A0D0A",
"'+	c #1B0B08",
")+	c #190906",
"!+	c #160805",
"~+	c #2A1F18",
"{+	c #261813",
"]+	c #1C0F0C",
"^+	c #1C0E0A",
"/+	c #1C0C09",
"(+	c #1A0A07",
"_+	c #170906",
":+	c #413228",
"<+	c #3B2920",
"[+	c #331E16",
"}+	c #2B150E",
"|+	c #2E150E",
"1+	c #31160E",
"2+	c #422E24",
"3+	c #40271E",
"4+	c #3B1F16",
"5+	c #381A12",
"6+	c #371810",
"7+	c #260F09",
"8+	c #402D24",
"9+	c #3E261D",
"0+	c #3A1D14",
"a+	c #371911",
"b+	c #2E120B",
"c+	c #1C0A07",
"d+	c #3C241B",
"e+	c #3A1C13",
"f+	c #2E130C",
"g+	c #150704",
"h+	c #120705",
"i+	c #3C2C23",
"j+	c #3C251C",
"k+	c #3B1C13",
"l+	c #2C120B",
"m+	c #110504",
"n+	c #120604",
"o+	c #34271F",
"p+	c #3E2920",
"q+	c #42231A",
"r+	c #3D1C13",
"s+	c #220C07",
"t+	c #000000",
"u+	c #1E1512",
"v+	c #241815",
"w+	c #39271F",
"x+	c #43261D",
"y+	c #432219",
"z+	c #1E0B07",
"A+	c #010000",
"B+	c #2E2019",
"C+	c #41281E",
"D+	c #43241B",
"E+	c #3F1D14",
"F+	c #28100A",
"G+	c #090302",
"H+	c #241711",
"I+	c #38261D",
"J+	c #3F231A",
"K+	c #3B1B12",
"L+	c #240E08",
"M+	c #130B08",
"N+	c #261A14",
"O+	c #331B13",
"P+	c #270F09",
"Q+	c #110B08",
"R+	c #0D0705",
"S+	c #0F0806",
"T+	c #130604",
"U+	c #130705",
"V+	c #100907",
"W+	c #100604",
"X+	c #150805",
"Y+	c #201613",
"Z+	c #1D1311",
"`+	c #150C09",
" @	c #0E0403",
".@	c #231815",
"+@	c #251916",
"@@	c #271916",
"#@	c #251815",
"$@	c #211412",
"%@	c #190C0A",
"&@	c #1D1210",
"*@	c #1E1310",
"=@	c #1E110E",
"-@	c #190F0C",
";@	c #150B08",
">@	c #100705",
",@	c #0C0403",
"'@	c #040201",
"                                                                                                                                ",
"                                                                                                                                ",
"                                                                                                                                ",
"                                                                                                                                ",
"                                                                                                                                ",
"                                                                                                                                ",
"                                                                                                                                ",
"                                                                                                                                ",
"                                            . +                                                                                 ",
"                                            @ #                                                                                 ",
"                                            $ %                                                                                 ",
"                                            & *                                                                                 ",
"                                            = -                                                                                 ",
"                                            ; > ,                                                                               ",
"                                              ' )                                                                               ",
"                                              ! ~           {                                                                   ",
"                                              ] ^       / ( _ : <                                                               ",
"                                              [ }     | 1 2 3 4 5 6                                                             ",
"                                              7 8     9 0 a b c d e ]                                                           ",
"                                              f g     h i j k ] l m n                                                           ",
"                                              o p q     r s t u v w x                                                           ",
"                                                y z     A B C D E F                                                             ",
"                                                G z     H I J K L M N                                                           ",
"                                                O P Q R S T U V W X Y                                                           ",
"                                              / Z `  ...+.@.#.$.%.&.*.                                                          ",
"                                              =.-.;.>.,.'.).!.$.~.{.].                                                          ",
"                                              ^./.(._.:.<.[.}.|.W 1.2.                                                          ",
"                                              3.4.5.6.  7.8.9.0.a.b.                                                            ",
"                                                c.d.e.f.g.h.i.j.k.l.                                                            ",
"                                                  m.n.o.p.q.r.s.t.u.                                                            ",
"                                                  v.w.T x.y.z.A.B.C.D.                                                          ",
"                                                    E.F.F.G.H.I.C.J.K.                                                          ",
"                                                      L.M.N.O.P.Q.R.S.                                                          ",
"                                                    T.3.U.V.W.R.R.R.S.                                                          ",
"                                                    c.X.Y.Z.`. +.+ +S.                                                          ",
"                                                    ++@+#+$+%+&+(..+*+                                                          ",
"                                                    =+-+;+>+,+'+)+ +!+                                                          ",
"                                                      ~+{+]+^+/+(+ +_+                                                          ",
"                                                      :+<+[+}+|+1+                                                              ",
"                                                        2+3+4+5+6+7+                                                            ",
"                                                        8+9+0+a+b+c+                                                            ",
"                                                        8+d+e+f+g+h+                                                            ",
"                                                        i+j+k+l+m+n+                                                            ",
"                                                        o+p+q+r+s+R.                                    t+t+t+t+t+              ",
"                                                      u+v+w+x+y+a+z+g+A+t+t+t+              t+t+t+t+t+t+t+t+t+t+t+t+            ",
"                                                        Y.B+C+D+E+F+G+  t+t+t+  t+  t+t+t+t+t+t+t+t+t+t+t+t+t+t+t+t+t+          ",
"                                                          H+I+J+K+L+                t+t+t+t+t+t+t+t+t+t+t+t+t+t+t+t+t+          ",
"                                                          M+N+O+P+R.                  t+t+t+t+t+t+t+t+t+t+t+t+t+t+t+            ",
"                                                            Q+`.n+W.                t+t+t+t+t+t+t+t+t+t+t+t+t+t+                ",
"                                                            R+S+T+U+                t+t+t+t+t+t+    t+                          ",
"                                                              V+W+X+                                                            ",
"                                                            Y+Z+`+!+ @  t+t+t+                                                  ",
"                                                      .@+@@@#@$@%@R. @A+t+t+                                                    ",
"                                                      &@*@=@-@;@>@,@'@                                                          ",
"                                                                                                                                ",
"                                                                                                                                ",
"                                                                                                                                ",
"                                                                                                                                ",
"                                                                                                                                ",
"                                                                                                                                ",
"                                                                                                                                ",
"                                                                                                                                ",
"                                                                                                                                ",
"                                                                                                                                "};
