/* XPM */
static char * player_droite2_xpm[] = {
"64 64 662 2",
"  	c None",
". 	c #0A3200",
"+ 	c #091B00",
"@ 	c #595E26",
"# 	c #595721",
"$ 	c #B0AB74",
"% 	c #7E7741",
"& 	c #535219",
"* 	c #586524",
"= 	c #3D5B13",
"- 	c #002500",
"; 	c #121E00",
"> 	c #B8A980",
", 	c #B0926C",
"' 	c #59360E",
") 	c #835E34",
"! 	c #69441A",
"~ 	c #997A4C",
"{ 	c #A99965",
"] 	c #5C6226",
"^ 	c #0D1900",
"/ 	c #6B5B39",
"( 	c #93674E",
"_ 	c #6E341E",
": 	c #B07356",
"< 	c #5B1E00",
"[ 	c #CA8D6E",
"} 	c #96623D",
"| 	c #5A350B",
"1 	c #5C4C1B",
"2 	c #A4AF72",
"3 	c #284311",
"4 	c #1B1700",
"5 	c #331400",
"6 	c #5D2413",
"7 	c #D38B7C",
"8 	c #D08A71",
"9 	c #6E290C",
"0 	c #B77255",
"a 	c #935435",
"b 	c #653010",
"c 	c #4E2B03",
"d 	c #807645",
"e 	c #D1E0A5",
"f 	c #1A2C00",
"g 	c #B5A886",
"h 	c #B58F78",
"i 	c #6E3323",
"j 	c #B16E5D",
"k 	c #703219",
"l 	c #B87B5E",
"m 	c #A46448",
"n 	c #9D5D41",
"o 	c #DFA387",
"p 	c #C69574",
"q 	c #6B4B24",
"r 	c #817648",
"s 	c #708449",
"t 	c #264C10",
"u 	c #060F00",
"v 	c #4A3A19",
"w 	c #633E24",
"x 	c #5A2513",
"y 	c #652C18",
"z 	c #653416",
"A 	c #BC8E6C",
"B 	c #CF9A7B",
"C 	c #72391C",
"D 	c #FFC2A6",
"E 	c #A2664A",
"F 	c #FBCAAA",
"G 	c #4E300A",
"H 	c #E3E1B0",
"I 	c #233D00",
"J 	c #001400",
"K 	c #151B00",
"L 	c #B1A17F",
"M 	c #BC9D80",
"N 	c #380E00",
"O 	c #C59E81",
"P 	c #91734D",
"Q 	c #5C3F17",
"R 	c #583410",
"S 	c #F2C4A3",
"T 	c #A96D53",
"U 	c #7D3D24",
"V 	c #FFC9B0",
"W 	c #451700",
"X 	c #8A774C",
"Y 	c #DCE7AD",
"Z 	c #001700",
"` 	c #45461E",
" .	c #89755A",
"..	c #563722",
"+.	c #583821",
"@.	c #937559",
"#.	c #291500",
"$.	c #ECD8B3",
"%.	c #EECFB0",
"&.	c #724B2E",
"*.	c #4B1700",
"=.	c #380000",
"-.	c #CD957E",
";.	c #350900",
">.	c #4E3D12",
",.	c #37430E",
"'.	c #172B00",
").	c #464123",
"!.	c #553A2F",
"~.	c #200000",
"{.	c #5D4032",
"].	c #270E00",
"^.	c #362008",
"/.	c #A38B71",
"(.	c #6F503B",
"_.	c #351000",
":.	c #815846",
"<.	c #380F00",
"[.	c #220000",
"}.	c #291600",
"|.	c #3E431A",
"1.	c #2E4D14",
"2.	c #293D0A",
"3.	c #150E00",
"4.	c #5B423E",
"5.	c #2D0F0F",
"6.	c #130000",
"7.	c #968170",
"8.	c #210A00",
"9.	c #674E3A",
"0.	c #694A38",
"a.	c #220100",
"b.	c #250400",
"c.	c #190000",
"d.	c #3B2B11",
"e.	c #353614",
"f.	c #304A19",
"g.	c #405724",
"h.	c #121100",
"i.	c #1D0A03",
"j.	c #180000",
"k.	c #251307",
"l.	c #B8A795",
"m.	c #261100",
"n.	c #6D5440",
"o.	c #230600",
"p.	c #C7AB96",
"q.	c #270C00",
"r.	c #E5D5BB",
"s.	c #040400",
"t.	c #384B1D",
"u.	c #2E4916",
"v.	c #282B0E",
"w.	c #0B0000",
"x.	c #120100",
"y.	c #160A00",
"z.	c #190E00",
"A.	c #291703",
"B.	c #826955",
"C.	c #3D210C",
"D.	c #F6DCC5",
"E.	c #726147",
"F.	c #F0ECC9",
"G.	c #122300",
"H.	c #001500",
"I.	c #414628",
"J.	c #504939",
"K.	c #0C0000",
"L.	c #0D0600",
"M.	c #0E0800",
"N.	c #231200",
"O.	c #907967",
"P.	c #BEA390",
"Q.	c #F7E1C9",
"R.	c #F8EFCE",
"S.	c #E9F4C9",
"T.	c #DAFFC5",
"U.	c #355222",
"V.	c #868D6E",
"W.	c #888370",
"X.	c #CBC2B3",
"Y.	c #FEFCE7",
"Z.	c #C4BFA9",
"`.	c #0E0000",
" +	c #1A0500",
".+	c #CCB39F",
"++	c #FEEDD3",
"@+	c #EBE9C3",
"#+	c #D7EBB8",
"$+	c #071E00",
"%+	c #B1B698",
"&+	c #FFFEEA",
"*+	c #FBF4E1",
"=+	c #ECEAD1",
"-+	c #F4F0D7",
";+	c #FFFDEC",
">+	c #0F0000",
",+	c #87705E",
"'+	c #BEAE95",
")+	c #F1F3CC",
"!+	c #2D470F",
"~+	c #002300",
"{+	c #001100",
"]+	c #B9BC9F",
"^+	c #F1EBD5",
"/+	c #FAF2DD",
"(+	c #FFFDE4",
"_+	c #F7F2DC",
":+	c #F2E6D8",
"<+	c #B8A89B",
"[+	c #150200",
"}+	c #170B00",
"|+	c #0C1000",
"1+	c #2C4C13",
"2+	c #001900",
"3+	c #B4C2A1",
"4+	c #F9F7DE",
"5+	c #EBE3CC",
"6+	c #FFF6E0",
"7+	c #F2EBD1",
"8+	c #0C0600",
"9+	c #F8EEE4",
"0+	c #100200",
"a+	c #190700",
"b+	c #0E0300",
"c+	c #595F3B",
"d+	c #45622C",
"e+	c #445C3A",
"f+	c #000400",
"g+	c #AEA993",
"h+	c #FEEFD8",
"i+	c #180D00",
"j+	c #DFD7C4",
"k+	c #B0A69D",
"l+	c #86786D",
"m+	c #070100",
"n+	c #F4FEDB",
"o+	c #4C6D38",
"p+	c #9EB098",
"q+	c #ADAE9E",
"r+	c #988F7E",
"s+	c #B6A996",
"t+	c #AD9E89",
"u+	c #F4E8DA",
"v+	c #B9B0AB",
"w+	c #FAF0EE",
"x+	c #080000",
"y+	c #100D00",
"z+	c #EBF9D6",
"A+	c #375927",
"B+	c #000C00",
"C+	c #B5C1B3",
"D+	c #B6B3AA",
"E+	c #F9EFE5",
"F+	c #655848",
"G+	c #6B5E4D",
"H+	c #6A5C4F",
"I+	c #090000",
"J+	c #F5EDEA",
"K+	c #5D5950",
"L+	c #040700",
"M+	c #144116",
"N+	c #001303",
"O+	c #000300",
"P+	c #080403",
"Q+	c #A19795",
"R+	c #FEF4E8",
"S+	c #F1E8D9",
"T+	c #ACA299",
"U+	c #160D08",
"V+	c #0C0402",
"W+	c #58534F",
"X+	c #F2F2E8",
"Y+	c #002601",
"Z+	c #374C45",
"`+	c #383F45",
" @	c #040108",
".@	c #130A0D",
"+@	c #ABA49C",
"@@	c #BBB4AA",
"#@	c #635E5A",
"$@	c #040000",
"%@	c #B0A7A8",
"&@	c #B4AFAB",
"*@	c #616459",
"=@	c #000B00",
"-@	c #001A00",
";@	c #002400",
">@	c #1E3231",
",@	c #9DA3AF",
"'@	c #2F2D3A",
")@	c #030004",
"!@	c #120F0A",
"~@	c #030000",
"{@	c #888785",
"]@	c #857C7D",
"^@	c #5D5854",
"/@	c #031A00",
"(@	c #295227",
"_@	c #002B00",
":@	c #001300",
"<@	c #98A8A8",
"[@	c #292F3B",
"}@	c #6D6F7B",
"|@	c #3D3C44",
"1@	c #040001",
"2@	c #0E0A07",
"3@	c #010000",
"4@	c #3B3738",
"5@	c #63585C",
"6@	c #A0A899",
"7@	c #001600",
"8@	c #000E00",
"9@	c #000D00",
"0@	c #8D9796",
"a@	c #848C8F",
"b@	c #374047",
"c@	c #02060F",
"d@	c #060009",
"e@	c #160B11",
"f@	c #080300",
"g@	c #56514D",
"h@	c #F0E4E6",
"i@	c #100806",
"j@	c #747C6D",
"k@	c #000F00",
"l@	c #080F07",
"m@	c #6B716D",
"n@	c #7E8786",
"o@	c #6A7579",
"p@	c #636A74",
"q@	c #0E0313",
"r@	c #090006",
"s@	c #FFF8F2",
"t@	c #FDF6EE",
"u@	c #FFF3F5",
"v@	c #0F1708",
"w@	c #000200",
"x@	c #000202",
"y@	c #071113",
"z@	c #696D76",
"A@	c #09010E",
"B@	c #190E16",
"C@	c #F3EFE6",
"D@	c #0A0001",
"E@	c #16110E",
"F@	c #353D2E",
"G@	c #6F8A69",
"H@	c #031500",
"I@	c #F2F4EF",
"J@	c #979B9A",
"K@	c #71767A",
"L@	c #000007",
"M@	c #0B050F",
"N@	c #322B32",
"O@	c #0C0902",
"P@	c #070300",
"Q@	c #FFF7F8",
"R@	c #090502",
"S@	c #000500",
"T@	c #001E00",
"U@	c #3D5D33",
"V@	c #000100",
"W@	c #010200",
"X@	c #010101",
"Y@	c #0C0B10",
"Z@	c #040309",
"`@	c #050209",
" #	c #646265",
".#	c #151108",
"+#	c #090100",
"@#	c #9C9B96",
"##	c #66735F",
"$#	c #092200",
"%#	c #0D0D05",
"&#	c #878682",
"*#	c #A4A0A1",
"=#	c #F9F4FA",
"-#	c #010005",
";#	c #000005",
">#	c #0F0F11",
",#	c #0E0D08",
"'#	c #0A0501",
")#	c #476D3A",
"!#	c #475637",
"~#	c #0C1001",
"{#	c #33302B",
"]#	c #090504",
"^#	c #090307",
"/#	c #090007",
"(#	c #706B72",
"_#	c #88898D",
":#	c #000102",
"<#	c #0D0E09",
"[#	c #62625A",
"}#	c #060600",
"|#	c #0B1304",
"1#	c #C6DDC0",
"2#	c #536D43",
"3#	c #AEB69E",
"4#	c #0C0C00",
"5#	c #393532",
"6#	c #060002",
"7#	c #7A7078",
"8#	c #5F535D",
"9#	c #6E676F",
"0#	c #020609",
"a#	c #8E9494",
"b#	c #020200",
"c#	c #8A8B85",
"d#	c #041100",
"e#	c #99B491",
"f#	c #002800",
"g#	c #1A4C14",
"h#	c #FDFFEB",
"i#	c #0C0900",
"j#	c #7E7976",
"k#	c #0A0106",
"l#	c #695F68",
"m#	c #180C16",
"n#	c #040005",
"o#	c #090D10",
"p#	c #010707",
"q#	c #777777",
"r#	c #050702",
"s#	c #000A00",
"t#	c #A8CBA3",
"u#	c #638D5C",
"v#	c #4C5B3C",
"w#	c #F0EFDD",
"x#	c #888380",
"y#	c #070003",
"z#	c #070006",
"A#	c #E0D4DE",
"B#	c #CCC5CC",
"C#	c #A7ABAC",
"D#	c #393F3D",
"E#	c #9C9C9E",
"F#	c #010300",
"G#	c #021D00",
"H#	c #4B6B42",
"I#	c #B7C1A6",
"J#	c #FAF9E7",
"K#	c #040100",
"L#	c #948F8C",
"M#	c #938A8F",
"N#	c #5C525B",
"O#	c #4C424A",
"P#	c #030002",
"Q#	c #171916",
"R#	c #2D322E",
"S#	c #000002",
"T#	c #0B100A",
"U#	c #23471E",
"V#	c #285A21",
"W#	c #FBFFEA",
"X#	c #B5B6A4",
"Y#	c #010100",
"Z#	c #A7A49F",
"`#	c #7F797D",
" $	c #A298A0",
".$	c #0B0509",
"+$	c #9B9796",
"@$	c #2C2E29",
"#$	c #3C3E39",
"$$	c #09070A",
"%$	c #001000",
"&$	c #47723E",
"*$	c #556B47",
"=$	c #F0FADF",
"-$	c #AFB29D",
";$	c #757867",
">$	c #0B0B01",
",$	c #F6F0F0",
"'$	c #A49EA2",
")$	c #938F8E",
"!$	c #9B9A95",
"~$	c #A3A59A",
"{$	c #3C3C34",
"]$	c #0D0709",
"^$	c #001800",
"/$	c #002000",
"($	c #B2C3A1",
"_$	c #E7F1D6",
":$	c #050A00",
"<$	c #464B37",
"[$	c #050100",
"}$	c #FDF9F8",
"|$	c #9D9E98",
"1$	c #B1B3A8",
"2$	c #969789",
"3$	c #030100",
"4$	c #070200",
"5$	c #080E04",
"6$	c #EBFBD7",
"7$	c #C3CEB0",
"8$	c #555E43",
"9$	c #363E27",
"0$	c #0C0E00",
"a$	c #F6F7EF",
"b$	c #6F6E5C",
"c$	c #504D3E",
"d$	c #001B00",
"e$	c #5C774E",
"f$	c #334B27",
"g$	c #303F22",
"h$	c #060200",
"i$	c #514841",
"j$	c #444034",
"k$	c #4D4A3B",
"l$	c #6E6755",
"m$	c #0E0701",
"n$	c #002200",
"o$	c #29421C",
"p$	c #010A00",
"q$	c #473F2C",
"r$	c #160300",
"s$	c #554234",
"t$	c #867365",
"u$	c #77675A",
"v$	c #776B5F",
"w$	c #070000",
"x$	c #424F38",
"y$	c #002700",
"z$	c #284A1E",
"A$	c #091200",
"B$	c #534731",
"C$	c #574030",
"D$	c #72584B",
"E$	c #755D51",
"F$	c #46342A",
"G$	c #0A0000",
"H$	c #595049",
"I$	c #5B7852",
"J$	c #0C0100",
"K$	c #543E30",
"L$	c #5A4236",
"M$	c #836F64",
"N$	c #170900",
"O$	c #140A01",
"P$	c #2C251D",
"Q$	c #000900",
"R$	c #090E00",
"S$	c #817567",
"T$	c #140200",
"U$	c #55443C",
"V$	c #0A0300",
"W$	c #15100A",
"X$	c #001C00",
"Y$	c #808372",
"Z$	c #80766C",
"`$	c #0D0000",
" %	c #83746F",
".%	c #0D0200",
"+%	c #080500",
"@%	c #050200",
"#%	c #445640",
"$%	c #130502",
"%%	c #5E5653",
"&%	c #41403B",
"*%	c #100F0B",
"=%	c #020100",
"-%	c #33452F",
";%	c #003200",
">%	c #2C3928",
",%	c #707068",
"'%	c #6F6564",
")%	c #716565",
"!%	c #69615F",
"~%	c #696864",
"{%	c #3E3E3C",
"]%	c #61745F",
"^%	c #002F00",
"/%	c #001F00",
"(%	c #3B4638",
"_%	c #635F5C",
":%	c #756B6C",
"<%	c #908687",
"[%	c #797373",
"}%	c #0C110D",
"|%	c #616362",
"1%	c #4A5F4C",
"2%	c #6A6663",
"3%	c #928889",
"4%	c #82777B",
"5%	c #938D8F",
"6%	c #030303",
"7%	c #6D7170",
"8%	c #000304",
"9%	c #3B3632",
"0%	c #4F4345",
"a%	c #524648",
"b%	c #443B3C",
"c%	c #010602",
"d%	c #090F0D",
"e%	c #777B7A",
"f%	c #6D7867",
"g%	c #0A0600",
"h%	c #150506",
"i%	c #5C5855",
"j%	c #1C1E19",
"k%	c #000503",
"l%	c #2C502A",
"m%	c #000700",
"n%	c #6C685D",
"o%	c #776561",
"p%	c #897574",
"q%	c #796A67",
"r%	c #796F6D",
"s%	c #0C120E",
"t%	c #5D6D52",
"u%	c #8C897A",
"v%	c #89766F",
"w%	c #674F4B",
"x%	c #837670",
"y%	c #060100",
"z%	c #181913",
"A%	c #061A00",
"B%	c #6A6754",
"C%	c #140000",
"D%	c #210600",
"E%	c #A08782",
"F%	c #88756F",
"G%	c #0E0500",
"H%	c #626761",
"I%	c #637865",
"J%	c #4A784D",
"K%	c #697F5B",
"L%	c #050300",
"M%	c #A89284",
"N%	c #AB8D83",
"O%	c #B59890",
"P%	c #0B0100",
"Q%	c #46433A",
"R%	c #494E47",
"S%	c #263B28",
"T%	c #305C31",
"U%	c #090D00",
"V%	c #150500",
"W%	c #1B0300",
"X%	c #1A0800",
"Y%	c #0A0400",
"Z%	c #6E7E61",
"`%	c #6C6E59",
" &	c #766F5D",
".&	c #6D6654",
"+&	c #0D0A00",
"@&	c #000800",
"#&	c #526F4B",
"$&	c #657558",
"%&	c #717A5F",
"&&	c #858E73",
"*&	c #7B886A",
"=&	c #AAC49D",
"-&	c #001D00",
";&	c #2F5A28",
">&	c #2E4D24",
",&	c #4E6B3D",
"'&	c #1E4E14",
")&	c #28531A",
"!&	c #38622B",
"~&	c #063600",
"                                                                                                                                ",
"                                                                                                                                ",
"                                                              . + @ # $ % & * =                                                 ",
"                                                            - ; > , ' ) ! ~ { ]                                                 ",
"                                                            ^ / ( _ : < [ } | 1 2                                               ",
"                                                          3 4 5 6 7 8 9 0 a b c d e                                             ",
"                                                          f g h i j k l m n o p q r s                                           ",
"                                                        t u v w x y z A B C D E F G H I                                         ",
"                                                        J K L M N O P Q R S T U V W X Y                                         ",
"                                                        Z `  ...+.@.#.$.%.&.*.=.-.;.>.,.                                        ",
"                                                        '.).!.~.{.].^./.(._.:.<.[.}.|.1.                                        ",
"                                                        2.3.4.5.6.7.8.9.0.a.b.c.d.e.f.                                          ",
"                                                        g.h.i.j.k.l.m.n.o.p.q.r.s.t.                                            ",
"                                                        u.v.w.x.y.z.A.B.C.D.E.F.G.                                              ",
"                                                        H.I.J.K.L.M.N.O.P.Q.R.S.T.                                              ",
"                                                        U.V.W.X.Y.Z.`. +.+++@+#+                                                ",
"                                                        $+%+&+*+=+-+;+>+,+'+)+!+                                                ",
"                                                      ~+{+]+^+/+(+_+:+<+[+}+|+1+                                                ",
"                                                      2+3+4+5+6+7+8+9+0+a+b+c+d+                                                ",
"                                                    ~+e+f+g+6+h+i+j+k+b+l+m+n+o+                                                ",
"                                                    2+p+q+r+s+t+w.u+v+w+x+y+z+A+                                                ",
"                                                    B+C+D+E+F+G+H+I+x+J+K+L+B+2+                                                ",
"                                                  M+N+O+P+Q+R+S+T+U+V+W+X+B+                                                    ",
"                                                  Y+Z+`+ @.@+@@@#@$@%@&@*@=@-@;@                                                ",
"                                                  H.>@,@'@)@!@~@{@~@]@^@O+/@(@                                                  ",
"                                                _@:@<@[@}@|@1@2@3@4@5@$@6@7@                                                    ",
"                                                8@9@0@a@b@c@d@e@f@g@h@i@j@:@                                                    ",
"                                                k@l@m@n@o@p@q@r@s@t@u@$@v@J                                                     ",
"                                                8@w@w@x@y@z@A@B@$@C@D@E@F@G@                                                    ",
"                                                H@w@I@J@K@L@M@N@O@P@Q@R@S@T@                                                    ",
"                                              U@B+V@W@X@Y@Z@`@ #~@.#+#@###-@                                                    ",
"                                              $#S@%#&#*#=#-#;#>#,#~@'#V@8@7@                                                    ",
"                                            )#!#~#{#]#^#/#(#_#:#<#[#}#|#1#-@                                                    ",
"                                            2#3#4#5#6#7#8#9#0#a#b#c#O+d#e#f#                                                    ",
"                                          g#=@h#i#j#k#l#m#n#o#p#q#r#s#9@t#;@                                                    ",
"                                          u#v#w#~@x#y#z#A#B#C#D#E#F#B+G#                                                        ",
"                                          H#I#J#K#L#M#N#O#P#Q#R#S#T#9@U#                                                        ",
"                                        V#B+W#X#Y#Z#`# $.$+$@$#$$$w@%$                                                          ",
"                                        &$*$=$-$;$>$,$'$)$!$~${$]$w@^$                                                          ",
"                                        /$($_$:$<$w@[$}$|$1$2$3$4$5$-@                                                          ",
"                                        Z 6$7$8$9$0$K#~@a$F#b$c$+#f+d$                                                          ",
"                                          k@e$f$g$:$h$i$j$k$l$x+m$S@n$                                                          ",
"                                                o$p$q$r$s$t$u$v$w$x$y$                                                          ",
"                                                z$A$B$C$D$E$F$G$H$=@                                                            ",
"                                                I$S@J$K$L$M$N$O$P$Q$                                                            ",
"                                                B+R$S$T$>+U$x+V$W$k@                                                            ",
"                                              X$9@Y$Z$`$ %.%L.+%@%s#                                                            ",
"                                              /$#%Y#x+$%.%%%&%*%=%-%;%                                                          ",
"                                              8@>%,%'%)%!%~%<#V@{%]%^%                                                          ",
"                                              /%(%_%:%<%[%Y#V@}%|%1%                                                            ",
"                                              T@(%2%3%4%5%6%7%V@8%8@                                                            ",
"                                              {+Q$9%0%a%b%3@c%d%e%B+                                                            ",
"                                              Z f%g%K.h%x+i%j%w@k%9@                                                            ",
"                                              l%m%n%o%p%q%r%3@f+s%B+                                                            ",
"                                              X$t%u%v%w%`.x%y%z%w@k@                                                            ",
"                                              /%A%B%C%D%E%F%G%Y#H%I%J%/$                                                        ",
"                                              y$K%L%M%N%O%6.P%Q%R%S%T%;@                                                        ",
"                                                {+U%V%W%j.X%Y%f+Q$H./$                                                          ",
"                                                H.Z%`% &.&+&@&7@{+                                                              ",
"                                                _@#&$&%&&&*&=&-&                                                                ",
"                                                  ;&>&%${+,&J y$                                                                ",
"                                                    '&)&!&~&                                                                    ",
"                                                                                                                                ",
"                                                                                                                                "};
