/* XPM */
static char * player_est3_xpm[] = {
"64 64 91 1",
" 	c None",
".	c #000000",
"+	c #030201",
"@	c #010100",
"#	c #020201",
"$	c #47704C",
"%	c #020101",
"&	c #010101",
"*	c #000000",
"=	c #000000",
"-	c #000000",
";	c #030303",
">	c #0C0807",
",	c #080707",
"'	c #000000",
")	c #070606",
"!	c #000000",
"~	c #060303",
"{	c #030202",
"]	c #080505",
"^	c #010000",
"/	c #010000",
"(	c #030101",
"_	c #010000",
":	c #070303",
"<	c #020101",
"[	c #010101",
"}	c #090605",
"|	c #150907",
"1	c #060404",
"2	c #000000",
"3	c #050304",
"4	c #040101",
"5	c #421E15",
"6	c #010101",
"7	c #020101",
"8	c #100C0D",
"9	c #010001",
"0	c #181619",
"a	c #120908",
"b	c #020102",
"c	c #000000",
"d	c #110C0D",
"e	c #140B0A",
"f	c #563932",
"g	c #080506",
"h	c #1F1E23",
"i	c #1F1615",
"j	c #0A0606",
"k	c #170C09",
"l	c #1D181A",
"m	c #1E1717",
"n	c #100A0C",
"o	c #242225",
"p	c #1C1412",
"q	c #391A12",
"r	c #32201C",
"s	c #391C13",
"t	c #331811",
"u	c #1D1C1F",
"v	c #3B1F17",
"w	c #0C0402",
"x	c #1F1B1C",
"y	c #1A0D0A",
"z	c #4B3227",
"A	c #523F33",
"B	c #46291F",
"C	c #150906",
"D	c #141213",
"E	c #381E15",
"F	c #533C31",
"G	c #2E3540",
"H	c #412A20",
"I	c #2C333D",
"J	c #43362D",
"K	c #1B0B08",
"L	c #3D1E15",
"M	c #19100F",
"N	c #231D21",
"O	c #28120C",
"P	c #311610",
"Q	c #33201C",
"R	c #261713",
"S	c #130807",
"T	c #2A2429",
"U	c #371810",
"V	c #49302A",
"W	c #3F2620",
"X	c #526277",
"Y	c #2D2C34",
"Z	c #3E3F4D",
"                                                                ",
"                                                                ",
"                                                                ",
"                                                                ",
"                                                                ",
"                                                                ",
"                                                                ",
"                                                                ",
"                                                                ",
"                                                                ",
"                                         o                      ",
"                                        ih                      ",
"                                        um                      ",
"                                        oa                      ",
"                                        hn                      ",
"                               IGTo     0g                      ",
"                               GXVNu   p0                       ",
"                              uhNN08   d8                       ",
"                             zN000M8   ne                       ",
"                             FV00M8y   |a                       ",
"                             ffWPOq    en                       ",
"                            zffV5LE    8g                       ",
"                            FffV5L5s  6j                        ",
"                            fVYTTQL5  dj                        ",
"                            oYZYTNQPene8                        ",
"                            uXXfWNNOMMja                        ",
"                            oXZfNNt|8Mj8i                       ",
"                            hYTTNPU dN08g                       ",
"                            mThNRPOddSS|                        ",
"                            dhNNPOKe|KKa                        ",
"                            pQQLPSMQMKn                         ",
"                            iQL5UUPNM|                          ",
"                            iRQL55UMKKy                         ",
"                            p0MOPPKKKOi                         ",
"                             mMMKKKKKUq                         ",
"                             kMMMMKKP55s                        ",
"                             dRRROOOUL55                        ",
"                             mWVWtqCtUL5q                       ",
"                            mMRLEp   stL5                       ",
"                           mMM|w      yULz                      ",
"                         ieKa         sLL                       ",
"                        iRMa          ELL                       ",
"                         aSn          WWUk                      ",
"                          ||         kQLPe                      ",
"                           |/     6ccd8OK|c//2c2!c/66/c6//      ",
"                           yCg       /|SSC //6!__!222!6226      ",
"                                      gSS_   c!_2_!__!!22cc/    ",
"                                       8Sakdk_!!__!_!_!!!6      ",
"                                      pMKKKKKew!_!!!622//       ",
"                                       ka|e||aw_6 ///           ",
"                                         gggw__/                ",
"                                                                ",
"                                                                ",
"                                                                ",
"                                                                ",
"                                                                ",
"                                                                ",
"                                                                ",
"                                                                ",
"                                                                ",
"                                                                ",
"                                                                ",
"                                                                ",
"                                                                "};
