/* XPM */
static char * player_est7_xpm[] = {
"64 64 85 1",
" 	c None",
".	c #000000",
"+	c #010000",
"@	c #060403",
"#	c #080403",
"$	c #47704C",
"%	c #020101",
"&	c #010101",
"*	c #000000",
"=	c #000000",
"-	c #000000",
";	c #070505",
">	c #070504",
",	c #030203",
"'	c #000001",
")	c #010000",
"!	c #000000",
"~	c #0D0707",
"{	c #080504",
"]	c #060404",
"^	c #0C0706",
"/	c #020101",
"(	c #010000",
"_	c #000000",
":	c #050404",
"<	c #010101",
"[	c #040202",
"}	c #391B13",
"|	c #140A0A",
"1	c #000000",
"2	c #0A0808",
"3	c #000000",
"4	c #030202",
"5	c #040202",
"6	c #140F11",
"7	c #180B09",
"8	c #261D1F",
"9	c #55392E",
"0	c #000000",
"a	c #000000",
"b	c #110A0A",
"c	c #070606",
"d	c #160E0E",
"e	c #28272D",
"f	c #1B1A1E",
"g	c #030202",
"h	c #160D0D",
"i	c #3B1B12",
"j	c #0E0706",
"k	c #0A0709",
"l	c #42271E",
"m	c #251613",
"n	c #493127",
"o	c #171212",
"p	c #20120D",
"q	c #33211C",
"r	c #4D382D",
"s	c #4D362B",
"t	c #2D1A14",
"u	c #462C22",
"v	c #1F1C1F",
"w	c #313945",
"x	c #211410",
"y	c #20120E",
"z	c #2B2428",
"A	c #4B362D",
"B	c #46291F",
"C	c #371810",
"D	c #473127",
"E	c #402118",
"F	c #1D110E",
"G	c #0C0A0C",
"H	c #1A0A07",
"I	c #1B100D",
"J	c #130705",
"K	c #201E23",
"L	c #1B1619",
"M	c #2F150E",
"N	c #28110C",
"O	c #401D14",
"P	c #301E1A",
"Q	c #3E292D",
"R	c #445062",
"S	c #50343C",
"T	c #657B95",
"                                                                ",
"                                                                ",
"                                                                ",
"                                                                ",
"                                                                ",
"                                                                ",
"                                                                ",
"                                                                ",
"                                                                ",
"                                                                ",
"                                         m                      ",
"                                        ze                      ",
"                                        h8                      ",
"                                        dv                      ",
"                                        vb                      ",
"                                        KG                      ",
"                               zwev     L{                      ",
"                               wRQKd   76                       ",
"                             uvKKKL|   h|                       ",
"                             r8LLL6|   dj                       ",
"                             9nLL6po   |b                       ",
"                            u99lMMC    kG                       ",
"                            A999OOi    k)                       ",
"                            r99nlOOC  gk                        ",
"                            rnQee8}}m bk                        ",
"                            reRwQK8N66kj                        ",
"                            AeTSSKKL66Jj                        ",
"                             wRSQK87dLP6b                       ",
"                            oeeeKKMhb66j                        ",
"                             KeKKNNHJJHj                        ",
"                             KKKKNHJHH|F                        ",
"                             8PP}HIQLHh                         ",
"                             pPOOOOL6Jd                         ",
"                             IP}}O}IJJNu                        ",
"                            {IIIMMIHHJNi                        ",
"                            oIIIHHHHH|MMt                       ",
"                            7IIIIHHHC pMi                       ",
"                            oy|pIIHME{pMi                       ",
"                               {pMM}itNM}7                      ",
"                                m}}}}yNMMh                      ",
"                                 tl}i7HNH7                      ",
"                                  n}m dJJ                       ",
"                               Ar9ni  !JJ                       ",
"                             tn9nnEu   6Hd777o                  ",
"                            bIPllz    {IHHHHpj                  ",
"                           dpIIym      b|jdbhg((!)!))!)){{      ",
"                        FtyIjh          !gggg7((((!!!()!){ {    ",
"                        mpHj                )(((!(!!!!!)!{)     ",
"                         jHb                 )((((!!!!))){{     ",
"                          |j                ))(!!{{){{)         ",
"                          )I7       ))!!{ )) )                  ",
"                           (g{       {{ )                       ",
"                                                                ",
"                                                                ",
"                                                                ",
"                                                                ",
"                                                                ",
"                                                                ",
"                                                                ",
"                                                                ",
"                                                                ",
"                                                                ",
"                                                                ",
"                                                                "};
