/* XPM */
static char * player_dead_xpm[] = {
"64 64 224 2",
"  	c None",
". 	c #7B5D42",
"+ 	c #957556",
"@ 	c #C49E80",
"# 	c #7E5436",
"$ 	c #76492B",
"% 	c #754A24",
"& 	c #876232",
"* 	c #79592F",
"= 	c #46321F",
"- 	c #6C4730",
"; 	c #A77F5B",
"> 	c #8D613A",
", 	c #8E5C3A",
"' 	c #693215",
") 	c #965C40",
"! 	c #DBA57E",
"~ 	c #E1B583",
"{ 	c #A58250",
"] 	c #6D583D",
"^ 	c #5F4433",
"/ 	c #B5916D",
"( 	c #EAC39A",
"_ 	c #ECC397",
": 	c #845933",
"< 	c #9A6B4B",
"[ 	c #9A6948",
"} 	c #B98963",
"| 	c #B58B60",
"1 	c #C09C6D",
"2 	c #866C46",
"3 	c #403126",
"4 	c #C1A78B",
"5 	c #CAA680",
"6 	c #835E33",
"7 	c #A58055",
"8 	c #6B4926",
"9 	c #C8A47F",
"0 	c #B89170",
"a 	c #5B331A",
"b 	c #B68E71",
"c 	c #C19F7E",
"d 	c #8A6F54",
"e 	c #AA9586",
"f 	c #61503A",
"g 	c #7E6F5D",
"h 	c #70614E",
"i 	c #513926",
"j 	c #AB8867",
"k 	c #C6A17D",
"l 	c #6E4D2A",
"m 	c #34180B",
"n 	c #967A5A",
"o 	c #97775D",
"p 	c #31100B",
"q 	c #5F3A30",
"r 	c #967468",
"s 	c #98786C",
"t 	c #4E3731",
"u 	c #6B5C4E",
"v 	c #7A6B5E",
"w 	c #68574A",
"x 	c #503D29",
"y 	c #79695C",
"z 	c #9D8F7D",
"A 	c #ACA08E",
"B 	c #716150",
"C 	c #462E25",
"D 	c #937056",
"E 	c #563215",
"F 	c #543324",
"G 	c #361B0C",
"H 	c #64482B",
"I 	c #664830",
"J 	c #3B190F",
"K 	c #381B19",
"L 	c #2B0B08",
"M 	c #603F3B",
"N 	c #321916",
"O 	c #50412F",
"P 	c #8A7D70",
"Q 	c #ACA092",
"R 	c #84776A",
"S 	c #45311D",
"T 	c #A8988B",
"U 	c #ADA395",
"V 	c #BDB3A0",
"W 	c #7A6B57",
"X 	c #2D150E",
"Y 	c #462411",
"Z 	c #320F01",
"` 	c #CEB197",
" .	c #BFA589",
"..	c #A88A6B",
"+.	c #75543B",
"@.	c #BD9A8C",
"#.	c #BC9F97",
"$.	c #2C0F0A",
"%.	c #3A1E1B",
"&.	c #250F0C",
"*.	c #625853",
"=.	c #64584A",
"-.	c #A3998A",
";.	c #BDB4A2",
">.	c #B8AE9D",
",.	c #796C5C",
"'.	c #423120",
").	c #9B8F80",
"!.	c #B0A595",
"~.	c #CEC2B0",
"{.	c #675849",
"].	c #210C03",
"^.	c #2E1003",
"/.	c #311200",
"(.	c #B60101",
"_.	c #9D7E52",
":.	c #DEC19A",
"<.	c #F2D0AF",
"[.	c #9B7658",
"}.	c #5C4234",
"|.	c #6F5849",
"1.	c #3F342D",
"2.	c #6D645B",
"3.	c #9F9387",
"4.	c #C1B4A4",
"5.	c #9A8E7C",
"6.	c #A89C8E",
"7.	c #85776A",
"8.	c #3A2911",
"9.	c #645442",
"0.	c #ACA193",
"a.	c #CDC2AF",
"b.	c #776858",
"c.	c #715F52",
"d.	c #371E10",
"e.	c #7B6147",
"f.	c #F5D0A9",
"g.	c #FBD6B4",
"h.	c #DBB793",
"i.	c #685341",
"j.	c #312116",
"k.	c #7C6F61",
"l.	c #9D9181",
"m.	c #BEB2A3",
"n.	c #A79B8B",
"o.	c #695948",
"p.	c #ACA18F",
"q.	c #C2B7A7",
"r.	c #958676",
"s.	c #53443D",
"t.	c #4E3A29",
"u.	c #B49B7F",
"v.	c #8F6B4D",
"w.	c #99725C",
"x.	c #E4C2A2",
"y.	c #4F3C2F",
"z.	c #685A4E",
"A.	c #A09687",
"B.	c #BFB4A3",
"C.	c #A79A8A",
"D.	c #5E4E3D",
"E.	c #AEA393",
"F.	c #BFB3A2",
"G.	c #756B5D",
"H.	c #3F2C26",
"I.	c #311605",
"J.	c #32150A",
"K.	c #4E372B",
"L.	c #4F4035",
"M.	c #95897B",
"N.	c #BEB3A3",
"O.	c #A39688",
"P.	c #584737",
"Q.	c #AEA293",
"R.	c #C4B7A8",
"S.	c #6A594A",
"T.	c #4C3D39",
"U.	c #CDBDAF",
"V.	c #CFBCAE",
"W.	c #514136",
"X.	c #958879",
"Y.	c #ACA08F",
"Z.	c #CAC0AF",
"`.	c #675848",
" +	c #3C3630",
".+	c #161412",
"++	c #211A0F",
"@+	c #948B7B",
"#+	c #ABA291",
"$+	c #CCBFAE",
"%+	c #6C5E4E",
"&+	c #555146",
"*+	c #BDB2A2",
"=+	c #695846",
"-+	c #AEA392",
";+	c #B3A698",
">+	c #736556",
",+	c #BDB1A2",
"'+	c #5B4D3B",
")+	c #847769",
"!+	c #BAB19F",
"~+	c #A59A8B",
"{+	c #4F4133",
"]+	c #90867A",
"^+	c #BEB2A2",
"/+	c #ACA190",
"(+	c #665847",
"_+	c #5A4C3F",
":+	c #83796C",
"<+	c #A39A8C",
"[+	c #BAB0A0",
"}+	c #A79C8C",
"|+	c #9B9182",
"1+	c #CBC1AF",
"2+	c #756858",
"3+	c #6C5E4D",
"4+	c #C5BCAB",
"5+	c #AFA695",
"6+	c #6B5C4C",
"7+	c #807466",
"8+	c #BFB6A6",
"9+	c #C6BDAC",
"0+	c #847966",
"a+	c #6D614F",
"                                                                                                                                ",
"                                                                                                                                ",
"                                                                                                                                ",
"                                                                                                                                ",
"                                                                                                                                ",
"                                                                                                                                ",
"                                                                                                                                ",
"                                                                                                                                ",
"                                                                                                                                ",
"                                                                                                                                ",
"                                                                                                                                ",
"                                                                                                                                ",
"                                                                                                                                ",
"                                                                                                                                ",
"                                                                                                                                ",
"                                                                                                                                ",
"                                                                                                                                ",
"                                                                                                                                ",
"                                                                                                                                ",
"                                                                                                                                ",
"                                                                                                                                ",
"                                                                                                                                ",
"                                                                                                                                ",
"                                                                                                                                ",
"                                                                                                                                ",
"                                                      . + + @ # # $ % & & * = =                                                 ",
"                                                      . + + @ # # $ % & & * = =                                                 ",
"                                                  - - ; > > , ' ' ) ! ~ ~ { ] ]                                                 ",
"                                                ^ / / ( _ _ : < < [ } | | 1 2 2 3                                               ",
"                                                ^ / / ( _ _ : < < [ } | | 1 2 2 3                                               ",
"                                                4 5 5 6 7 7 8 9 9 0 a b b c d d e                                               ",
"                                f f g h h       i j j k l l m n n o p q q r s s t       u u v w w                               ",
"                                f f g h h       i j j k l l m n n o p q q r s s t       u u v w w                               ",
"                          x x y z z A B B       C D D E F F G H H I J K K L M M N     O P P Q R R                               ",
"                          S S T U U V W W       X Y Y Z ` `  .....+.@.#.#.$.%.%.&.*.*.=.-.-.;.>.>.,.                            ",
"                          S S T U U V W W       X Y Y Z ` `  .....+.@.#.#.$.%.%.&.*.*.=.-.-.;.>.>.,.                            ",
"                              '.).).!.~.~.{.    ].^.^./.(.(._.:.:.<.[.(.(.}.|.|.1.2.2.3.4.4.5.6.6.7.                            ",
"                                8.8.9.0.0.a.b.b.c.d.d.e.(.(.(.f.f.g.h.(.(.i.j.j.k.l.l.m.n.n.                                    ",
"                                8.8.9.0.0.a.b.b.c.d.d.e.(.(.(.f.f.g.h.(.(.i.j.j.k.l.l.m.n.n.                                    ",
"                                      o.o.p.q.q.r.s.s.t.u.u.(.v.v.w.x.(.(.y.z.z.A.B.B.C.                                        ",
"                                      (.(.D.E.E.F.G.G.H.(.(.(.I.I.J.(.K.K.L.M.M.N.O.O.                                          ",
"                                      (.(.D.E.E.F.G.G.H.(.(.(.I.I.J.(.K.K.L.M.M.N.O.O.                                          ",
"                                      (.(.(.P.P.Q.R.R.S.(.(.T.U.U.V.(.W.W.X.(.(.(.(.(.                                          ",
"                                      (.(.(.(.(.(.Y.Y.Z.`.`. +.+.+++(.@+@+(.(.(.(.(.(.                                          ",
"                                      (.(.(.(.(.(.Y.Y.Z.`.`. +.+.+++(.@+@+(.(.(.(.(.(.                                          ",
"                                      (.(.(.(.(.(.(.(.#+$+$+%+&+&+(.(.*+*+(.(.(.(.                                              ",
"                                      (.(.  (.(.(.(.(.=+-+-+;+>+>+(.,+(.(.(.(.(.(.                                              ",
"                                      (.(.  (.(.(.(.(.=+-+-+;+>+>+(.,+(.(.(.(.(.(.                                              ",
"                                          (.(.(.(.(.(.(.'+'+)+(.(.!+~+(.(.(.(.(.(.                                              ",
"                                          (.(.(.(.(.(.(.{+{+]+^+^+/+(+(.(.(.(.(.(.                                              ",
"                                                (._+_+:+<+<+[+}+}+|+1+2+2+3+(.(.(.                                              ",
"                                                (._+_+:+<+<+[+}+}+|+1+2+2+3+(.(.(.                                              ",
"                                                (.(.(.(.4+4+5+6+6+7+8+9+9+0+(.(.(.                                              ",
"                                                      (.(.(.(.(.(.(.(.(.(.(.(.(.(.                                              ",
"                                                      (.(.(.(.(.(.(.(.(.(.(.(.(.(.                                              ",
"                                                (.(.(.  a+a+(.    (.(.(.(.(.(.(.(.(.(.                                          ",
"                                            (.(.(.    (.(.(.(.(.(.(.(.(.(.(.(.(.(.(.(.                                          ",
"                                            (.(.(.    (.(.(.(.(.(.(.(.(.(.(.(.(.(.(.(.                                          ",
"                                            (.(.(.(.(.            (.(.(.(.                                                      ",
"                                                              (.(.                                                              ",
"                                                              (.(.                                                              ",
"                                                                                                                                ",
"                                                                                                                                ",
"                                                                                                                                "};
