/* XPM */
static char * player_sud1_xpm[] = {
"64 64 332 2",
"  	c None",
". 	c #303843",
"+ 	c #21242B",
"@ 	c #23242A",
"# 	c #222126",
"$ 	c #1C1B1F",
"% 	c #1D1E23",
"& 	c #14171C",
"* 	c #22262E",
"= 	c #4B5061",
"- 	c #342D35",
"; 	c #1C1A1E",
"> 	c #1A1A20",
", 	c #141419",
"' 	c #1E2128",
") 	c #27282F",
"! 	c #363039",
"~ 	c #1B191C",
"{ 	c #19191E",
"] 	c #18191E",
"^ 	c #1A1A1F",
"/ 	c #1D1B1F",
"( 	c #171215",
"_ 	c #1C1E24",
": 	c #1A1C22",
"< 	c #17191F",
"[ 	c #1E1A1C",
"} 	c #49342B",
"| 	c #251D1D",
"1 	c #161419",
"2 	c #141013",
"3 	c #1B0F10",
"4 	c #401F16",
"5 	c #472218",
"6 	c #1D1F26",
"7 	c #1F2228",
"8 	c #1E2026",
"9 	c #1F2128",
"0 	c #221A1A",
"a 	c #4D3229",
"b 	c #3C2922",
"c 	c #171213",
"d 	c #1B0E0E",
"e 	c #341912",
"f 	c #451F15",
"g 	c #472016",
"h 	c #472117",
"i 	c #482217",
"j 	c #472319",
"k 	c #1D2026",
"l 	c #21242A",
"m 	c #23252C",
"n 	c #23262E",
"o 	c #21262E",
"p 	c #1E1719",
"q 	c #4B2F26",
"r 	c #4C2F25",
"s 	c #35211A",
"t 	c #301610",
"u 	c #411C13",
"v 	c #451E15",
"w 	c #441F15",
"x 	c #452016",
"y 	c #191D23",
"z 	c #202329",
"A 	c #23252B",
"B 	c #23272E",
"C 	c #1A1214",
"D 	c #472920",
"E 	c #4F3026",
"F 	c #4C2C23",
"G 	c #46261C",
"H 	c #441F16",
"I 	c #441E15",
"J 	c #411D13",
"K 	c #281E1F",
"L 	c #2A1B1B",
"M 	c #251F23",
"N 	c #222329",
"O 	c #1C1D23",
"P 	c #1A1111",
"Q 	c #45271E",
"R 	c #4E3026",
"S 	c #4D2E24",
"T 	c #4A2A21",
"U 	c #4A281E",
"V 	c #452117",
"W 	c #421E15",
"X 	c #3F1D13",
"Y 	c #3F1C12",
"Z 	c #3C1D14",
"` 	c #452E25",
" .	c #381F16",
"..	c #2F1813",
"+.	c #281C1A",
"@.	c #201718",
"#.	c #1E1110",
"$.	c #45291F",
"%.	c #4B2E24",
"&.	c #4B2D23",
"*.	c #4A2C22",
"=.	c #492A20",
"-.	c #44241A",
";.	c #3F1E15",
">.	c #3A1A12",
",.	c #3E1D14",
"'.	c #401D14",
").	c #3F1D14",
"!.	c #472F25",
"~.	c #3D2119",
"{.	c #33140D",
"].	c #221916",
"^.	c #1B0E0D",
"/.	c #3B221A",
"(.	c #43281E",
"_.	c #462920",
":.	c #45281E",
"<.	c #41241A",
"[.	c #3C1E15",
"}.	c #391B12",
"|.	c #371810",
"1.	c #3F1F16",
"2.	c #3F1E14",
"3.	c #4C3126",
"4.	c #45241B",
"5.	c #151113",
"6.	c #190E0D",
"7.	c #321D15",
"8.	c #392018",
"9.	c #3C2219",
"0.	c #3C2018",
"a.	c #371B13",
"b.	c #361911",
"c.	c #34180F",
"d.	c #45251C",
"e.	c #4F352A",
"f.	c #523227",
"g.	c #43241C",
"h.	c #0D0D10",
"i.	c #160F0D",
"j.	c #322018",
"k.	c #331D15",
"l.	c #341B13",
"m.	c #341A12",
"n.	c #341810",
"o.	c #33170F",
"p.	c #30130B",
"q.	c #3A1E16",
"r.	c #46281E",
"s.	c #3D1D14",
"t.	c #483227",
"u.	c #4A3028",
"v.	c #312224",
"w.	c #181519",
"x.	c #09090C",
"y.	c #17110F",
"z.	c #302019",
"A.	c #331E17",
"B.	c #331B13",
"C.	c #32160F",
"D.	c #30140D",
"E.	c #35150E",
"F.	c #42231A",
"G.	c #4B2B21",
"H.	c #43241B",
"I.	c #252124",
"J.	c #21252D",
"K.	c #0E1015",
"L.	c #0B090B",
"M.	c #1C1413",
"N.	c #281914",
"O.	c #2F1712",
"P.	c #2B1411",
"Q.	c #241314",
"R.	c #42251D",
"S.	c #4D2E23",
"T.	c #48281E",
"U.	c #381C13",
"V.	c #13171D",
"W.	c #252C36",
"X.	c #333B47",
"Y.	c #1F232B",
"Z.	c #171519",
"`.	c #150D0B",
" +	c #150C0B",
".+	c #170F10",
"++	c #24181C",
"@+	c #201A1E",
"#+	c #361F1D",
"$+	c #3E1F17",
"%+	c #2D150E",
"&+	c #14161A",
"*+	c #231E21",
"=+	c #222024",
"-+	c #31313B",
";+	c #191111",
">+	c #150806",
",+	c #190E0F",
"'+	c #321E22",
")+	c #171417",
"!+	c #181012",
"~+	c #1C0B09",
"{+	c #150705",
"]+	c #130706",
"^+	c #1C1310",
"/+	c #1C110F",
"(+	c #171112",
"_+	c #120909",
":+	c #140604",
"<+	c #160806",
"[+	c #120A0A",
"}+	c #130807",
"|+	c #150706",
"1+	c #140605",
"2+	c #140705",
"3+	c #1A120F",
"4+	c #180E0B",
"5+	c #180B09",
"6+	c #130705",
"7+	c #110604",
"8+	c #130604",
"9+	c #160705",
"0+	c #170806",
"a+	c #231A15",
"b+	c #1B110D",
"c+	c #140B08",
"d+	c #150A07",
"e+	c #150704",
"f+	c #140704",
"g+	c #180805",
"h+	c #200D08",
"i+	c #3D2F26",
"j+	c #33241D",
"k+	c #1D120E",
"l+	c #180C09",
"m+	c #180806",
"n+	c #2B120C",
"o+	c #3A1B13",
"p+	c #413228",
"q+	c #422E24",
"r+	c #311E17",
"s+	c #1B0F0B",
"t+	c #150906",
"u+	c #160805",
"v+	c #190906",
"w+	c #391A11",
"x+	c #3C1B13",
"y+	c #412D23",
"z+	c #3A231A",
"A+	c #2A120C",
"B+	c #170A07",
"C+	c #180A07",
"D+	c #1A0B07",
"E+	c #24100A",
"F+	c #391A12",
"G+	c #3B1C13",
"H+	c #403228",
"I+	c #3E2B22",
"J+	c #392219",
"K+	c #30150D",
"L+	c #25120B",
"M+	c #331810",
"N+	c #381A12",
"O+	c #3A1C13",
"P+	c #3D2A21",
"Q+	c #341C14",
"R+	c #2F170F",
"S+	c #391B13",
"T+	c #3B2D24",
"U+	c #35231A",
"V+	c #301810",
"W+	c #26150D",
"X+	c #321810",
"Y+	c #392C23",
"Z+	c #36281F",
"`+	c #2B1911",
" @	c #2C140C",
".@	c #21120B",
"+@	c #2A150D",
"@@	c #351910",
"#@	c #251D17",
"$@	c #2A1E17",
"%@	c #26140D",
"&@	c #1F0C07",
"*@	c #150905",
"=@	c #24110A",
"-@	c #2B100A",
";@	c #200A06",
">@	c #15100D",
",@	c #150E0A",
"'@	c #100604",
")@	c #110705",
"!@	c #160604",
"~@	c #140F0C",
"{@	c #0B0605",
"]@	c #090403",
"^@	c #090503",
"/@	c #0B0503",
"(@	c #0E0605",
"_@	c #1B1310",
":@	c #140906",
"<@	c #110504",
"[@	c #0E0806",
"}@	c #120604",
"|@	c #000000",
"1@	c #1F110F",
"2@	c #010000",
"3@	c #010101",
"4@	c #110907",
"5@	c #1A0B08",
"6@	c #190907",
"7@	c #050201",
"8@	c #241915",
"9@	c #211310",
"0@	c #0F0605",
"a@	c #1C0D0A",
"b@	c #1B0A07",
"c@	c #080202",
"d@	c #231815",
"e@	c #20120F",
"f@	c #100504",
"g@	c #170E0B",
"h@	c #1F0E0B",
"i@	c #090302",
"j@	c #211815",
"k@	c #1E110E",
"l@	c #231614",
"m@	c #1E100C",
"n@	c #0D0403",
"o@	c #180F0D",
"p@	c #180A08",
"q@	c #1D100D",
"                                                                                                                                ",
"                                                                                                                                ",
"                                                                                                                                ",
"                                                                                                                                ",
"                                                                                                                                ",
"                                                                                                                                ",
"                                                                                                                                ",
"                                                                                                                                ",
"                                                                                                                                ",
"                                                                                                                                ",
"                                                                                                                                ",
"                                                                                                                                ",
"                                                                                                                                ",
"                                                                                                                                ",
"                                                                                                                                ",
"                                                        .   + @ # $                                                             ",
"                                                        % & * = - ;                                                             ",
"                                                        > , ' ) ! ~                                                             ",
"                                                        {   ] ^ / (                                                             ",
"                                                  _ : < [ } | 1 2 3 4 5                                                         ",
"                                              6 7 8 9 _ 0 a b c d e f g h i j                                                   ",
"                                              k l m n o p q r s t u v g g w x                                                   ",
"                                            y k z A B ' C D E F G H v I J u x                                                   ",
"                                              K L M N O P Q R S T U V W X Y W Z                                                 ",
"                                              `  ...+.@.#.$.%.&.*.=.-.;.>.,.'.).                                                ",
"                                              !.~.{.  ].^./.(._.:.<.[.}.|.1.2.                                                  ",
"                                              3.4.    5.6.7.8.9.0.a.b.c.b.d.;.                                                  ",
"                                              e.f.g.  h.i.j.k.l.m.n.o.p.q.r.s.                                                  ",
"                                              t.u.v.w.x.y.z.A.B.C.D.E.F.G.H.                                                    ",
"                                                I.+ J.K.L.M.N.O.P.Q.R.S.T.U.                                                    ",
"                                                V.W.X.Y.Z.`. +.+++@+#+$+%+                                                      ",
"                                                  &+*+=+-+;+>+,+'+)+!+~+{+]+                                                    ",
"                                                    ^+/+(+_+:+<+[+}+|+:+1+2+                                                    ",
"                                                    3+4+5+6+7+8+8+:+9+:+2+0+                                                    ",
"                                                    a+b+c+d+6+{+:+e+8+f+g+h+                                                    ",
"                                                    i+j+k+l+>+8+2+e+{+m+n+o+                                                    ",
"                                                    p+q+r+s+t+6+2+u+v+n+w+x+                                                    ",
"                                                    p+y+z+A+B+d+C+D+E+o.F+G+                                                    ",
"                                                    H+I+J+K+        L+M+N+O+                                                    ",
"                                                    p+P+Q+            R+b.S+                                                    ",
"                                                    T+U+V+            W+X+F+                                                    ",
"                                                  Y+Z+`+ @            .@+@@@K+                                                  ",
"                                                  #@$@%@&@            *@=@-@;@                                                  ",
"                                                  >@,@'@                )@!@{+                                                  ",
"                                                  ~@{@]@                ^@/@(@                                                  ",
"                                                  _@:@<@                [@}@6+          |@|@|@|@|@|@    |@|@  |@|@              ",
"                                                  ].1@8+2@|@|@|@|@|@|@3@4@5@6@7@|@|@|@|@|@|@|@|@|@|@|@|@|@|@|@|@|@|@|@|@        ",
"                                                  8@9@7+    |@|@|@|@|@|@0@a@b@c@|@|@|@|@|@|@|@|@|@|@|@|@|@|@|@|@|@              ",
"                                                  d@e@f@                g@9@h@i@              |@|@|@                            ",
"                                                  j@k@7+                  l@m@n@                                                ",
"                                                  o@p@                    q@5+                                                  ",
"                                                                                                                                ",
"                                                                                                                                ",
"                                                                                                                                ",
"                                                                                                                                ",
"                                                                                                                                ",
"                                                                                                                                ",
"                                                                                                                                ",
"                                                                                                                                ",
"                                                                                                                                ",
"                                                                                                                                ",
"                                                                                                                                ",
"                                                                                                                                ",
"                                                                                                                                "};
