/* XPM */
static char * player_est8_xpm[] = {
"64 64 92 2",
"  	c None",
". 	c #000000",
"+ 	c #020101",
"@ 	c #020102",
"# 	c #060302",
"$ 	c #000000",
"% 	c #000000",
"& 	c #020202",
"* 	c #000000",
"= 	c #47704C",
"- 	c #000000",
"; 	c #080605",
"> 	c #000000",
", 	c #090808",
"' 	c #070709",
") 	c #060303",
"! 	c #0D0706",
"~ 	c #000000",
"{ 	c #060403",
"] 	c #000000",
"^ 	c #050202",
"/ 	c #000000",
"( 	c #000000",
"_ 	c #070202",
": 	c #050404",
"< 	c #020102",
"[ 	c #000000",
"} 	c #010101",
"| 	c #090605",
"1 	c #040201",
"2 	c #030202",
"3 	c #161112",
"4 	c #020101",
"5 	c #120B0C",
"6 	c #141012",
"7 	c #0D0706",
"8 	c #070302",
"9 	c #080404",
"0 	c #1B1310",
"a 	c #130B0A",
"b 	c #0B0707",
"c 	c #412920",
"d 	c #331B14",
"e 	c #110B0D",
"f 	c #100C0E",
"g 	c #110909",
"h 	c #1C110D",
"i 	c #130B0B",
"j 	c #3E2118",
"k 	c #381B12",
"l 	c #1E0D0A",
"m 	c #150B0B",
"n 	c #1C1C20",
"o 	c #402E24",
"p 	c #3F1D13",
"q 	c #2C1712",
"r 	c #453228",
"s 	c #0C0607",
"t 	c #442C22",
"u 	c #1C191D",
"v 	c #1D1C20",
"w 	c #211F24",
"x 	c #472A20",
"y 	c #2E1C15",
"z 	c #130C0B",
"A 	c #170D0F",
"B 	c #262A32",
"C 	c #523B30",
"D 	c #4E3A2F",
"E 	c #222127",
"F 	c #442B22",
"G 	c #4A3126",
"H 	c #20120E",
"I 	c #553C31",
"J 	c #3D0E11",
"K 	c #170907",
"L 	c #3C1D15",
"M 	c #1A0E0B",
"N 	c #331811",
"O 	c #231F22",
"P 	c #241513",
"Q 	c #431F15",
"R 	c #2B1C1B",
"S 	c #26252B",
"T 	c #2B110B",
"U 	c #573A32",
"V 	c #19181D",
"W 	c #442E33",
"X 	c #2E333D",
"Y 	c #362728",
"Z 	c #526176",
"` 	c #513429",
"                                                                                                                                ",
"                                                                                                                                ",
"                                                                                                                                ",
"                                                                                                                                ",
"                                                                                                                                ",
"                                                                                                                                ",
"                                                                                                                                ",
"                                                                                                                                ",
"                                                                                                                                ",
"                                                                                    w                                           ",
"                                                                                  v u                                           ",
"                                                                                  3 u                                           ",
"                                                                                  w i                                           ",
"                                                                                  u a                                           ",
"                                                                  B w v           V f                                           ",
"                                                                B Z W O v       A 6                                             ",
"                                                              q S X Y V m       e 5                                             ",
"                                                            F O V V V V 5       3 s                                             ",
"                                                            C Y V V 6 6 i       g i                                             ",
"                                                            I ` R P P l         5 a                                             ",
"                                                          D U U ` L N j         b f                                             ",
"                                                          C U U ` Q Q Q p     z b                                               ",
"                                                          r U W Y Y L Q Q     e b                                               ",
"                                                          r Y X S S O L N m 3 s s                                               ",
"                                                          j X Z W Y O O P 6 6 b g                                               ",
"                                                          v Z Z U W O R l 6 6 b 5 v                                             ",
"                                                          3 X X W O R k   e S R 5 f                                             ",
"                                                          3 S S S O T T A f K K g                                               ",
"                                                          e O O O R T T i 3 K K i                                               ",
"                                                          a O O R N M K P P M 3                                                 ",
"                                                          h R L L L T P R P a                                                   ",
"                                                          0 P L Q Q Q Q 0 K m                                                   ",
"                                                          0 0 P N N L T K K K v                                                 ",
"                                                          3 0 M M M P M M M N j                                                 ",
"                                                            l M 0 M M M M T Q Q j                                               ",
"                                                            f M M M h h P N L Q Q p                                             ",
"                                                              y P N     q N N L Q k                                             ",
"                                                            D c N y         q k L Q p                                           ",
"                                                            r c N q             k L q                                           ",
"                                                            c L N l           j L L F                                           ",
"                                                            R N T a         r c c p                                             ",
"                                                            5 M K         y c c k                                               ",
"                                                            g b m       z 0 R N l                                               ",
"                                                            3 b g       3 M K s >                                               ",
"                                                            l K K 5 l h M K 5 e (               ( > (   ( (   ( (   (           ",
"                                                            g K M 5 0 P M b a               > > > / / > > > / > > > > ( (       ",
"                                                                    z 0 K K z                 > > > / / / / / > > > > >         ",
"                                                                      > m K i                 ( > / / / / > / > > / > (         ",
"                                                                          3 M a               > ( / > / / > > > ( (             ",
"                                                                            e g >         ( > > / > ( ( ( (                     ",
"                                                                                >                                               ",
"                                                                                                                                ",
"                                                                                                                                ",
"                                                                                                                                ",
"                                                                                                                                ",
"                                                                                                                                ",
"                                                                                                                                ",
"                                                                                                                                ",
"                                                                                                                                ",
"                                                                                                                                ",
"                                                                                                                                ",
"                                                                                                                                ",
"                                                                                                                                ",
"                                                                                                                                "};
