/* XPM */
static char * player_gauche1_xpm[] = {
"64 64 639 2",
"  	c None",
". 	c #456219",
"+ 	c #4D601E",
"@ 	c #4B5D1E",
"# 	c #435A1D",
"$ 	c #416021",
"% 	c #515D1C",
"& 	c #B6AD76",
"* 	c #B2A06E",
"= 	c #877547",
"- 	c #887A4D",
"; 	c #B4B184",
"> 	c #44511C",
", 	c #406624",
"' 	c #3C520C",
") 	c #A8AD6D",
"! 	c #3C2D00",
"~ 	c #5F3D10",
"{ 	c #80542F",
"] 	c #633714",
"^ 	c #835A3A",
"/ 	c #4E300E",
"( 	c #BEB089",
"_ 	c #959D6A",
": 	c #0F2A00",
"< 	c #2E4D03",
"[ 	c #76833E",
"} 	c #DFDB9E",
"| 	c #95804B",
"1 	c #694417",
"2 	c #5D2B06",
"3 	c #9E6645",
"4 	c #D09577",
"5 	c #683113",
"6 	c #A27153",
"7 	c #502C0C",
"8 	c #96825F",
"9 	c #4C4D21",
"0 	c #192D00",
"a 	c #285304",
"b 	c #394D06",
"c 	c #E9E7AC",
"d 	c #8A7643",
"e 	c #593408",
"f 	c #BC8C66",
"g 	c #D09877",
"h 	c #A96C4F",
"i 	c #95583B",
"j 	c #692C10",
"k 	c #D2997C",
"l 	c #CC997C",
"m 	c #5D381D",
"n 	c #1A0700",
"o 	c #1D2400",
"p 	c #2D4E13",
"q 	c #CCDF9D",
"r 	c #7D7841",
"s 	c #5B4315",
"t 	c #FFD5AF",
"u 	c #986645",
"v 	c #FFC8AA",
"w 	c #602709",
"x 	c #DAA183",
"y 	c #A97351",
"z 	c #683210",
"A 	c #935E3F",
"B 	c #60301A",
"C 	c #C4A48B",
"D 	c #211F00",
"E 	c #2B4A13",
"F 	c #3C5617",
"G 	c #181600",
"H 	c #EDD6AD",
"I 	c #9D7252",
"J 	c #723F24",
"K 	c #A97156",
"L 	c #FFCEB0",
"M 	c #562403",
"N 	c #CE9E7A",
"O 	c #63310C",
"P 	c #6E3B1C",
"Q 	c #5C2813",
"R 	c #603A25",
"S 	c #A49E7A",
"T 	c #092400",
"U 	c #1A2300",
"V 	c #AD9D7B",
"W 	c #300800",
"X 	c #481500",
"Y 	c #76422C",
"Z 	c #F1BEA3",
"` 	c #693B1A",
" .	c #976C49",
"..	c #B89168",
"+.	c #411600",
"@.	c #D09C87",
"#.	c #512B16",
"$.	c #4C4721",
"%.	c #001200",
"&.	c #102300",
"*.	c #0E0500",
"=.	c #301200",
"-.	c #815645",
";.	c #380900",
">.	c #7B4E39",
",.	c #F5CBB3",
"'.	c #381300",
").	c #967451",
"!.	c #593515",
"~.	c #60311F",
"{.	c #BF9C88",
"].	c #211D00",
"^.	c #001D00",
"/.	c #314E16",
"(.	c #151A00",
"_.	c #160500",
":.	c #200000",
"<.	c #270300",
"[.	c #653F36",
"}.	c #C39F93",
"|.	c #2F0B00",
"1.	c #230000",
"2.	c #6A4734",
"3.	c #340E01",
"4.	c #917663",
"5.	c #3C3717",
"6.	c #081E00",
"7.	c #22490B",
"8.	c #000D00",
"9.	c #DFD8BC",
"0.	c #523D2C",
"a.	c #BFA29A",
"b.	c #33150D",
"c.	c #614039",
"d.	c #37160D",
"e.	c #98766A",
"f.	c #1E0000",
"g.	c #2D0C03",
"h.	c #483322",
"i.	c #534F32",
"j.	c #081B00",
"k.	c #091A00",
"l.	c #EDE9CC",
"m.	c #82715F",
"n.	c #F9E1D5",
"o.	c #2A0F06",
"p.	c #5A3F36",
"q.	c #2A0E02",
"r.	c #D7BAAA",
"s.	c #1E0100",
"t.	c #210300",
"u.	c #4E382D",
"v.	c #161100",
"w.	c #283A12",
"x.	c #001B00",
"y.	c #7B9062",
"z.	c #F5F6D7",
"A.	c #ECDFCC",
"B.	c #C0AD9F",
"C.	c #877164",
"D.	c #311B0E",
"E.	c #2C1706",
"F.	c #120000",
"G.	c #1C0200",
"H.	c #1F0200",
"I.	c #1D0902",
"J.	c #0D0A00",
"K.	c #3D522C",
"L.	c #001F00",
"M.	c #002900",
"N.	c #041E00",
"O.	c #9CA181",
"P.	c #FFF9E4",
"Q.	c #BEAE9E",
"R.	c #837163",
"S.	c #352414",
"T.	c #0E0000",
"U.	c #231100",
"V.	c #170200",
"W.	c #593D39",
"X.	c #130000",
"Y.	c #FFFFEE",
"Z.	c #031600",
"`.	c #003000",
" +	c #395525",
".+	c #1D2202",
"++	c #B1AB95",
"@+	c #8A7D6D",
"#+	c #1E0E00",
"$+	c #0D0000",
"%+	c #DCCDB8",
"&+	c #F7E7CE",
"*+	c #D8C6B2",
"=+	c #9C837E",
"-+	c #5C4943",
";+	c #030200",
">+	c #001000",
",+	c #001C00",
"'+	c #314B1F",
")+	c #050A00",
"!+	c #221C06",
"~+	c #0A0000",
"{+	c #9A8D7D",
"]+	c #FFFCEB",
"^+	c #FFF7E1",
"/+	c #F9EBD1",
"(+	c #FDEDD6",
"_+	c #FFEAE2",
":+	c #837268",
"<+	c #4A4C36",
"[+	c #ACC4A0",
"}+	c #002400",
"|+	c #2A591E",
"1+	c #435C32",
"2+	c #4B4F34",
"3+	c #120B00",
"4+	c #140600",
"5+	c #F8EBDA",
"6+	c #635741",
"7+	c #FEF0D6",
"8+	c #FFEFD8",
"9+	c #FBE8DA",
"0+	c #DFD2C2",
"a+	c #010500",
"b+	c #001700",
"c+	c #38642C",
"d+	c #EBFFD9",
"e+	c #010300",
"f+	c #898071",
"g+	c #150400",
"h+	c #FAE9DF",
"i+	c #5F4F40",
"j+	c #FFFCE9",
"k+	c #94856E",
"l+	c #F9EAD3",
"m+	c #F9E8D6",
"n+	c #B5AD98",
"o+	c #050F00",
"p+	c #001300",
"q+	c #426A34",
"r+	c #EAFED9",
"s+	c #151400",
"t+	c #FFF1E9",
"u+	c #6F5E56",
"v+	c #5F4E44",
"w+	c #ECDCCD",
"x+	c #685944",
"y+	c #FEEFDA",
"z+	c #FFF6E3",
"A+	c #B7B39A",
"B+	c #000800",
"C+	c #325222",
"D+	c #6F625A",
"E+	c #F0E1DC",
"F+	c #FFEFEB",
"G+	c #5E4D46",
"H+	c #0B0000",
"I+	c #C3B6A5",
"J+	c #B9AC99",
"K+	c #B1A694",
"L+	c #030300",
"M+	c #5A6A45",
"N+	c #001500",
"O+	c #477042",
"P+	c #A5BA9B",
"Q+	c #040500",
"R+	c #F8EDE9",
"S+	c #6A5C5B",
"T+	c #120202",
"U+	c #150704",
"V+	c #64574F",
"W+	c #695D4F",
"X+	c #4B4233",
"Y+	c #90887B",
"Z+	c #B0B29D",
"`+	c #ADC19E",
" @	c #002200",
".@	c #000F00",
"+@	c #000300",
"@@	c #5F5755",
"#@	c #A89E9F",
"$@	c #090000",
"%@	c #AEA7A1",
"&@	c #E6DED3",
"*@	c #FFFFF3",
"=@	c #FDF8F2",
"-@	c #B0B3A8",
";@	c #9DB196",
">@	c #255425",
",@	c #001100",
"'@	c #050D02",
")@	c #44403F",
"!@	c #5D575B",
"~@	c #ABA5A9",
"{@	c #090305",
"]@	c #63605B",
"^@	c #B7B3AA",
"/@	c #9A9790",
"(@	c #A6A2A3",
"_@	c #000100",
":@	c #001E00",
"<@	c #1B4F1F",
"[@	c #001600",
"}@	c #9AA69C",
"|@	c #000000",
"1@	c #828085",
"2@	c #08060B",
"3@	c #8A888B",
"4@	c #0E0F09",
"5@	c #15141C",
"6@	c #383D43",
"7@	c #1D3229",
"8@	c #285629",
"9@	c #758177",
"0@	c #0E100F",
"a@	c #4E4C4F",
"b@	c #474246",
"c@	c #010000",
"d@	c #070906",
"e@	c #000200",
"f@	c #484A49",
"g@	c #2E2E3A",
"h@	c #9298A4",
"i@	c #374A46",
"j@	c #3F5F39",
"k@	c #000600",
"l@	c #000700",
"m@	c #030502",
"n@	c #F9F2EC",
"o@	c #665D58",
"p@	c #0A0502",
"q@	c #050601",
"r@	c #020701",
"s@	c #030909",
"t@	c #5D5F6E",
"u@	c #3B414F",
"v@	c #8B9999",
"w@	c #001907",
"x@	c #243E19",
"y@	c #83897B",
"z@	c #4C534C",
"A@	c #FDF0E8",
"B@	c #EEE6E3",
"C@	c #E8E7E3",
"D@	c #060B05",
"E@	c #585E5E",
"F@	c #414352",
"G@	c #7F8291",
"H@	c #929E9E",
"I@	c #000A00",
"J@	c #002601",
"K@	c #000C00",
"L@	c #B9BFB1",
"M@	c #070705",
"N@	c #FAEFEB",
"O@	c #FAECE9",
"P@	c #0D0503",
"Q@	c #0A0907",
"R@	c #121411",
"S@	c #565A5B",
"T@	c #797784",
"U@	c #858793",
"V@	c #5A6463",
"W@	c #000E00",
"X@	c #002000",
"Y@	c #001900",
"Z@	c #57604F",
"`@	c #B5BAB4",
" #	c #070506",
".#	c #080000",
"+#	c #42393C",
"@#	c #040003",
"##	c #0E0F11",
"$#	c #B5B2BD",
"%#	c #05040C",
"&#	c #020D07",
"*#	c #011B02",
"=#	c #000B00",
"-#	c #0E0C0D",
";#	c #0D0302",
">#	c #70666E",
",#	c #8B868D",
"'#	c #000002",
")#	c #030305",
"!#	c #070209",
"~#	c #EAE8EB",
"{#	c #8C968B",
"]#	c #001800",
"^#	c #082D01",
"/#	c #D3E2CD",
"(#	c #030A03",
"_#	c #0C0304",
":#	c #14090F",
"<#	c #342C37",
"[#	c #3E3844",
"}#	c #1D1B20",
"|#	c #010002",
"1#	c #F6ECF4",
"2#	c #0B0706",
"3#	c #011C00",
"4#	c #A1B89E",
"5#	c #000900",
"6#	c #0A0A0A",
"7#	c #090008",
"8#	c #3D3745",
"9#	c #363240",
"0#	c #010005",
"a#	c #120D11",
"b#	c #0C0105",
"c#	c #F9F4F0",
"d#	c #AAB6A2",
"e#	c #001A00",
"f#	c #ACC9AA",
"g#	c #000500",
"h#	c #938E94",
"i#	c #030007",
"j#	c #080413",
"k#	c #04000F",
"l#	c #928F96",
"m#	c #857F83",
"n#	c #6F6365",
"o#	c #0B0600",
"p#	c #838287",
"q#	c #000009",
"r#	c #060314",
"s#	c #070513",
"t#	c #D4D1D8",
"u#	c #050001",
"v#	c #706464",
"w#	c #67635A",
"x#	c #5C6A51",
"y#	c #002500",
"z#	c #184318",
"A#	c #090F0B",
"B#	c #868A8D",
"C#	c #02050E",
"D#	c #2D2C3E",
"E#	c #383644",
"F#	c #B7B2B8",
"G#	c #716F63",
"H#	c #021500",
"I#	c #091009",
"J#	c #000205",
"K#	c #00030C",
"L#	c #3E3F51",
"M#	c #444250",
"N#	c #030000",
"O#	c #C6BEBB",
"P#	c #DAD1CC",
"Q#	c #2C4024",
"R#	c #002300",
"S#	c #000807",
"T#	c #474B54",
"U#	c #2E2D3D",
"V#	c #9692A0",
"W#	c #070000",
"X#	c #443D35",
"Y#	c #515544",
"Z#	c #041D00",
"`#	c #040A00",
" $	c #000202",
".$	c #363A43",
"+$	c #A09FAD",
"@$	c #9A94A0",
"#$	c #908684",
"$$	c #A3998F",
"%$	c #827C70",
"&$	c #B4BCA7",
"*$	c #040800",
"=$	c #000503",
"-$	c #2E3138",
";$	c #9F9DAB",
">$	c #ABA3AE",
",$	c #A59892",
"'$	c #FFF5E9",
")$	c #F4F1E2",
"!$	c #0A1600",
"~$	c #555A56",
"{$	c #65686D",
"]$	c #03000D",
"^$	c #FDF1FB",
"/$	c #F7E6DF",
"($	c #060300",
"_$	c #1A3E14",
":$	c #070B00",
"<$	c #716F72",
"[$	c #685E66",
"}$	c #0F0004",
"|$	c #1B0400",
"1$	c #554233",
"2$	c #404D33",
"3$	c #090700",
"4$	c #746761",
"5$	c #6C5857",
"6$	c #836A66",
"7$	c #59382F",
"8$	c #200600",
"9$	c #514A38",
"0$	c #041100",
"a$	c #423F2E",
"b$	c #5D4640",
"c$	c #71544E",
"d$	c #846259",
"e$	c #4F3327",
"f$	c #473E2D",
"g$	c #0B3304",
"h$	c #16290B",
"i$	c #373526",
"j$	c #150200",
"k$	c #765D58",
"l$	c #6C4E46",
"m$	c #543930",
"n$	c #130700",
"o$	c #020700",
"p$	c #466139",
"q$	c #050800",
"r$	c #0B0200",
"s$	c #100100",
"t$	c #43302A",
"u$	c #1E0200",
"v$	c #1A0100",
"w$	c #82736C",
"x$	c #1D4B1C",
"y$	c #030A00",
"z$	c #141007",
"A$	c #0C0300",
"B$	c #150603",
"C$	c #745F5C",
"D$	c #110000",
"E$	c #796A67",
"F$	c #8C8A7D",
"G$	c #002100",
"H$	c #354E2D",
"I$	c #010100",
"J$	c #3A3531",
"K$	c #706664",
"L$	c #180606",
"M$	c #060000",
"N$	c #3B4930",
"O$	c #5E7757",
"P$	c #3F4A39",
"Q$	c #060501",
"R$	c #635D5D",
"S$	c #7C7072",
"T$	c #706061",
"U$	c #826D72",
"V$	c #665C5A",
"W$	c #3C4834",
"X$	c #255424",
"Y$	c #456041",
"Z$	c #586353",
"`$	c #030600",
" %	c #020200",
".%	c #6E6465",
"+%	c #9A8B8E",
"@%	c #7A656C",
"#%	c #685C5C",
"$%	c #3F4837",
"%%	c #194919",
"&%	c #010C00",
"*%	c #737371",
"=%	c #040203",
"-%	c #857C7D",
";%	c #97888B",
">%	c #947F86",
",%	c #706262",
"'%	c #414838",
")%	c #687365",
"!%	c #040402",
"~%	c #0A0605",
"{%	c #403738",
"]%	c #4E3F42",
"^%	c #543F46",
"/%	c #3E3030",
"(%	c #000400",
"_%	c #080702",
":%	c #0A0905",
"<%	c #5D5855",
"[%	c #0B0100",
"}%	c #0F0000",
"|%	c #0E0202",
"1%	c #6B7463",
"2%	c #001400",
"3%	c #153C12",
"4%	c #010400",
"5%	c #040000",
"6%	c #79716E",
"7%	c #6F625C",
"8%	c #7B6C69",
"9%	c #8A7678",
"0%	c #635957",
"a%	c #2B4F26",
"b%	c #2E522D",
"c%	c #0F0704",
"d%	c #685D57",
"e%	c #100200",
"f%	c #786760",
"g%	c #806E6C",
"h%	c #888179",
"i%	c #58664D",
"j%	c #002800",
"k%	c #50724F",
"l%	c #515D49",
"m%	c #6F6C63",
"n%	c #0E0300",
"o%	c #82746B",
"p%	c #A29084",
"q%	c #827E73",
"r%	c #294826",
"s%	c #49523F",
"t%	c #37332A",
"u%	c #473936",
"v%	c #1B0E06",
"w%	c #A18E80",
"x%	c #AE9B8D",
"y%	c #A4958E",
"z%	c #030100",
"A%	c #778A6C",
"B%	c #0E0700",
"C%	c #1D0D00",
"D%	c #0F0200",
"E%	c #0B0300",
"F%	c #030800",
"G%	c #1B4B15",
"H%	c #091200",
"I%	c #0A0400",
"J%	c #6A6458",
"K%	c #757462",
"L%	c #71775D",
"M%	c #697D58",
"N%	c #A9B79D",
"O%	c #858F77",
"P%	c #7D8973",
"Q%	c #5F6F54",
"R%	c #506942",
"S%	c #517341",
"T%	c #30542A",
"U%	c #012C00",
"V%	c #2A5623",
"                                                                                                                                ",
"                                                                                                                                ",
"                                                          . + @ # $                                                             ",
"                                                        % & * = - ; > ,                                                         ",
"                                                    ' ) ! ~ { ] ^ / ( _ :                                                       ",
"                                                < [ } | 1 2 3 4 5 6 7 8 9 0                                                     ",
"                                              a b c d e f g h i j k l m n o p                                                   ",
"                                                q r s t u v w x y z A B C D E                                                   ",
"                                                F G H I J K L M N O P Q R S T                                                   ",
"                                                  U V W X Y Z `  ...+.@.#.$.%.                                                  ",
"                                                  &.*.=.-.;.>.,.'.).!.~.{.].^.                                                  ",
"                                                  /.(._.:.<.[.}.|.1.2.3.4.5.6.                                                  ",
"                                                  7.8.9.0.a.b.c.d.e.f.g.h.i.j.                                                  ",
"                                                    k.l.m.n.o.p.q.r.s.t.u.v.w.                                                  ",
"                                                  x.y.z.A.B.C.D.E.F.G.H.I.J.K.L.M.                                              ",
"                                                    N.O.P.Q.R.S.T.U.V.W.X.Y.Z.  `.                                              ",
"                                                     +.+++@+#+$+%+&+*+=+-+;+>+,+                                                ",
"                                                    '+)+!+~+{+]+^+/+(+_+:+<+[+}+                                                ",
"                                                  |+1+2+3+T.4+5+6+7+8+9+0+a+b+                                                  ",
"                                                  c+d+e+f+g+h+i+j+k+l+m+n+o+p+                                                  ",
"                                                  q+r+s+~+t+u+v+w+x+y+z+A+B+C+                                                  ",
"                                                  %.%.;+D+E+F+G+H+I+J+K+L+M+N+                                                  ",
"                                                  O+P+Q+R+S+T+U+V+W+X+Y+Z+`+ @                                                  ",
"                                                  ,+.@+@@@#@$@$@%@&@*@=@-@;@%.                                                  ",
"                                                  >@,@'@)@!@~@{@]@^@/@(@_@>+:@                                                  ",
"                                                  <@[@}@|@1@2@3@|@4@_@5@6@7@:@                                                  ",
"                                                  8@8.9@0@a@b@c@d@e@f@g@h@i@[@                                                  ",
"                                                  j@k@l@m@n@o@p@q@r@s@t@u@v@w@x.                                                ",
"                                                  x@y@z@_@*.A@B@C@D@E@F@G@H@I@J@                                                ",
"                                                  K@L@e@M@N@O@P@Q@R@S@T@U@V@W@X@                                                ",
"                                                  Y@Z@`@ #.#T.+#@#|@##$#%#&#*#p+                                                ",
"                                                  W@=#e@-#;#.#>#,#'#)#!#~#{#]#                                                  ",
"                                                  ^#/#(#c@_#:#<#[#}#|#1#2#I@3#                                                  ",
"                                                  N+4#5#6#!@7#8#9#0#a#b#c#d#e#                                                  ",
"                                                  }+f#g#|@h#i#j#k#l#m#n#o#l@]#                                                  ",
"                                                    ^.I@_@p#q#r#s#t#u#v#w#x#y#                                                  ",
"                                                    z#B+A#B#C#D#E#F#p@~+G#H#[@                                                  ",
"                                                      W@I#J#K#L#M#N#O#P#Q+Q#R#                                                  ",
"                                                      =#+@S#T#U#V#_#W#X#Y#Z#y#                                                  ",
"                                                      N+`# $.$+$@$#$$$%$&$W@                                                    ",
"                                                      =#*$=$-$;$>$,$'$)$!$R#                                                    ",
"                                                      [@e@~${$]$^$/$$+($W@_$                                                    ",
"                                                      8.:$e@<$[$}$|$1$J.=#                                                      ",
"                                                      %.2$3$4$5$6$7$8$9$0$                                                      ",
"                                                        B+a$_.b$c$d$e$f$k@                                                      ",
"                                                      g$h$i$H+j$k$l$m$n$o$p$                                                    ",
"                                                        I@q$r$s$t$u$v$w$+@>+                                                    ",
"                                                      x$.@y$z$A$B$C$D$E$F$>+[@                                                  ",
"                                                      G$H$k@I$J$K$H+L$T.M$N$x.                                                  ",
"                                                      ,+O$P$Q+Q$R$S$T$U$V$W$:@                                                  ",
"                                                      X$Y$Z$`$ %N#.%+%@%#%$%,+                                                  ",
"                                                      %%e#&%_@*%=%-%;%>%,%'%]#                                                  ",
"                                                        %.)%Q+!%~%{%]%^%/%l@b+                                                  ",
"                                                        N+(%_%:%<%[%}%}%|%1%2%                                                  ",
"                                                      3%.@4%N#5%6%7%8%9%0%k@a%                                                  ",
"                                                      b%.@ %c%$@d%e%f%g%h%i%L.                                                  ",
"                                                    j%k%l%m%.#n%o%p%F.T.q%>+^.                                                  ",
"                                                    M.r%s%t%u%v%g+w%x%y%z%A%X@                                                  ",
"                                                      G$I@:$B%$@H+C%D%E%F%.@G%                                                  ",
"                                                          K@H%z%I%J%K%L%M%p+                                                    ",
"                                                            8.N%O%P%Q%R%S%j%                                                    ",
"                                                            Y@^.T%N+U%V%                                                        ",
"                                                                                                                                ",
"                                                                                                                                "};
