/* XPM */
static char * player_est5_xpm[] = {
"64 64 93 2",
"  	c None",
". 	c #000000",
"+ 	c #010000",
"@ 	c #050404",
"# 	c #0B0808",
"$ 	c #47704C",
"% 	c #020101",
"& 	c #010101",
"* 	c #000000",
"= 	c #000000",
"- 	c #000000",
"; 	c #060404",
"> 	c #060403",
", 	c #090503",
"' 	c #0F0907",
") 	c #020101",
"! 	c #020202",
"~ 	c #040202",
"{ 	c #070505",
"] 	c #0A0604",
"^ 	c #050303",
"/ 	c #040303",
"( 	c #000000",
"_ 	c #010000",
": 	c #010101",
"< 	c #050302",
"[ 	c #090302",
"} 	c #000000",
"| 	c #010000",
"1 	c #010000",
"2 	c #000000",
"3 	c #030202",
"4 	c #1F1D21",
"5 	c #040201",
"6 	c #010000",
"7 	c #351B13",
"8 	c #010000",
"9 	c #130F11",
"0 	c #000000",
"a 	c #040304",
"b 	c #060303",
"c 	c #110706",
"d 	c #2F150E",
"e 	c #160805",
"f 	c #1C1310",
"g 	c #1A100E",
"h 	c #0F0909",
"i 	c #1A1A1F",
"j 	c #130D0C",
"k 	c #462D24",
"l 	c #150B0A",
"m 	c #151010",
"n 	c #272830",
"o 	c #1A1211",
"p 	c #20110D",
"q 	c #0F0707",
"r 	c #341F19",
"s 	c #332620",
"t 	c #1F1412",
"u 	c #4B3328",
"v 	c #4C3228",
"w 	c #4F392D",
"x 	c #3A1C14",
"y 	c #382320",
"z 	c #1F1C1F",
"A 	c #313945",
"B 	c #3D1D14",
"C 	c #4B352A",
"D 	c #160E0E",
"E 	c #070608",
"F 	c #3D2219",
"G 	c #181416",
"H 	c #211513",
"I 	c #110604",
"J 	c #523C31",
"K 	c #543B30",
"L 	c #25100B",
"M 	c #101418",
"N 	c #1C100D",
"O 	c #190907",
"P 	c #120605",
"Q 	c #3F1C14",
"R 	c #27110C",
"S 	c #1A1619",
"T 	c #282226",
"U 	c #553931",
"V 	c #281B1A",
"W 	c #3D251E",
"X 	c #50342A",
"Y 	c #3F2B2F",
"Z 	c #445062",
"` 	c #657B95",
" .	c #463741",
"                                                                                                                                ",
"                                                                                                                                ",
"                                                                                                                                ",
"                                                                                                                                ",
"                                                                                                                                ",
"                                                                                                                                ",
"                                                                                                                                ",
"                                                                                                                                ",
"                                                                                                                                ",
"                                                                                                                                ",
"                                                                                  r                                             ",
"                                                                                o n                                             ",
"                                                                                m 4                                             ",
"                                                                                j z                                             ",
"                                                                                z h                                             ",
"                                                                                4 l                                             ",
"                                                              y A n z           S G                                             ",
"                                                              A Z Y 4 p       g 9                                               ",
"                                                          J z 4 4 4 4 D       m q                                               ",
"                                                          w T S S S 9 q       j c                                               ",
"                                                          U k S S 9 f :       D h                                               ",
"                                                        J U U W d d x         9 l                                               ",
"                                                        K U U U Q Q B         E (                                               ",
"                                                        w U U X W Q Q x     g E                                                 ",
"                                                        C X Y n T T Q 7 l < h q                                                 ",
"                                                        w T Z A Y T V R 9 9 E c                                                 ",
"                                                        r n `  .U T 4 S 9 9 E c                                                 ",
"                                                          A Z U Y 4 V N P S V 9 h                                               ",
"                                                        G n n T 4 V d O P 9 9 c                                                 ",
"                                                          4 T T 4 R R P P P O c                                                 ",
"                                                          4 4 4 4 R O O O O O d                                                 ",
"                                                        o V V 7 7 O N W S O R Q B y                                             ",
"                                                        m f W Q Q Q Q S 9 P R 7 Q Q r                                           ",
"                                                        j N V 7 Q Q 7 N P q p L 7 7 Q                                           ",
"                                                        D N N N R d N P e <     l R d x                                         ",
"                                                        f N N O O O O e o       L d d r                                         ",
"                                                      < f N N N O O e g         d d 7 p                                         ",
"                                                        m N N N O c           8 R d d p                                         ",
"                                                          W 7 R R r             q O e o                                         ",
"                                                          k W 7 B               j P e                                           ",
"                                                          C W 7 y               m P c                                           ",
"                                                          C W x                 h P e g                                         ",
"                                                    K w C k B                   c O O e L g                                     ",
"                                                g w U X k x                       l h j D e L                                   ",
"                                              g V k k k y                                                   <                   ",
"                                            o f N R 7 p                                       < < _ 8 ( ( ( ( 8 8 _ <           ",
"                                          G f N f j _                                     8 : : : : ( ( ( : 8 ( 8 _ < <         ",
"                                      o p f e h                                           8 : : : : ( ( : ( ( _ ( _ _           ",
"                                      g f O q                                           < : : : : : 8 _ _ 8 _ _ _ _ <           ",
"                                        m e O l                                       8 _ ( ( < <     <                         ",
"                                            c e l           ( 8 : ( _ _                                                         ",
"                                              h j       < _ < _ 8                                                               ",
"                                                                                                                                ",
"                                                                                                                                ",
"                                                                                                                                ",
"                                                                                                                                ",
"                                                                                                                                ",
"                                                                                                                                ",
"                                                                                                                                ",
"                                                                                                                                ",
"                                                                                                                                ",
"                                                                                                                                ",
"                                                                                                                                ",
"                                                                                                                                "};
