/* XPM */
static char * player_est4_xpm[] = {
"64 64 89 1",
" 	c None",
".	c #000000",
"+	c #000000",
"@	c #020202",
"#	c #050303",
"$	c #000000",
"%	c #000000",
"&	c #060404",
"*	c #000000",
"=	c #47704C",
"-	c #000000",
";	c #0A0706",
">	c #030101",
",	c #080504",
"'	c #0B0A0B",
")	c #090605",
"!	c #0F0C0A",
"~	c #040201",
"{	c #060403",
"]	c #020000",
"^	c #030102",
"/	c #070505",
"(	c #010000",
"_	c #000000",
":	c #050303",
"<	c #040202",
"[	c #020100",
"}	c #010101",
"|	c #151113",
"1	c #020100",
"2	c #050202",
"3	c #221E22",
"4	c #351811",
"5	c #000000",
"6	c #040303",
"7	c #000000",
"8	c #050202",
"9	c #0E0707",
"0	c #000000",
"a	c #020000",
"b	c #181011",
"c	c #140C0C",
"d	c #110909",
"e	c #020100",
"f	c #28100B",
"g	c #191110",
"h	c #0C0809",
"i	c #020100",
"j	c #120B0A",
"k	c #130605",
"l	c #1A0E0C",
"m	c #201B1E",
"n	c #412A20",
"o	c #381A11",
"p	c #291712",
"q	c #382926",
"r	c #47342B",
"s	c #39231A",
"t	c #211713",
"u	c #3E1C13",
"v	c #432A21",
"w	c #1E110F",
"x	c #1F1513",
"y	c #24272E",
"z	c #49372C",
"A	c #30160E",
"B	c #412F25",
"C	c #26130E",
"D	c #4A2F25",
"E	c #4F3A2F",
"F	c #211D22",
"G	c #311810",
"H	c #160806",
"I	c #1B0E0B",
"J	c #3D241B",
"K	c #3F1C14",
"L	c #301610",
"M	c #241513",
"N	c #200E0A",
"O	c #563930",
"P	c #151114",
"Q	c #2A1C1D",
"R	c #26252B",
"S	c #362728",
"T	c #1A181D",
"U	c #442E33",
"V	c #526176",
"W	c #2E3540",
"X	c #2D2F38",
"                                                                ",
"                                                                ",
"                                                                ",
"                                                                ",
"                                                                ",
"                                                                ",
"                                                                ",
"                                                                ",
"                                                                ",
"                                         F                      ",
"                                        |3                      ",
"                                        bg                      ",
"                                        Fc                      ",
"                                        3j                      ",
"                                yy|     T|                      ",
"                               yVU3|   wP                       ",
"                              xRXSTg   |d                       ",
"                             E3TTTTh   bh                       ",
"                             rSTPPPc   gc                       ",
"                             OOQMMg    hj                       ",
"                            EOODK4u    d|                       ",
"                            nOOOJKKo  <9                        ",
"                            rOUSSJKK  jd                        ",
"                            BSWRR34Llbhh                        ",
"                            rWVUS33MPP9k                        ",
"                            |VVOU3QldP9d|                       ",
"                            bWXU3Q4bcRQl|                       ",
"                            bRRR3LLH9HHk                        ",
"                            |333QffHHHHc                        ",
"                            p33QLIHMMNl                         ",
"                            |QJKKfMQMHfu                        ",
"                            jMJJKKKM9HfKu                       ",
"                            cIML4KfHHHfL4o                      ",
"                            gIIINNHHdxGfLn                      ",
"                            lIIIHHHdjC44Ap                      ",
"                            gMIIIHk<b44Lo                       ",
"                             xMNNfo dLLA                        ",
"                              J4LA |9Hlw                        ",
"                              BJ4n cH9i                         ",
"                              nJ4p l9|                          ",
"                              rJGpCId                           ",
"                              DJuplIH]                          ",
"                             nDJo  kHc                          ",
"                             BJKw   |l|               ]         ",
"                            wJJ4k     c]   ]]51i<111<<<1]1      ",
"                             MLNb       ]     55i<555<5<51]]    ",
"                             d9d             ]5i5i<<<551515     ",
"                             cHh             ]<55<1]]5 1]       ",
"                             b9k           ] ]]                 ",
"                             gHIgCbb|i<]                        ",
"                             cdINNNNj                           ",
"                                  1<                            ",
"                                                                ",
"                                                                ",
"                                                                ",
"                                                                ",
"                                                                ",
"                                                                ",
"                                                                ",
"                                                                ",
"                                                                ",
"                                                                ",
"                                                                ",
"                                                                "};
