/* XPM */
static char * player_est2_xpm[] = {
"64 64 91 1",
" 	c None",
".	c #000000",
"+	c #010000",
"@	c #090605",
"#	c #020101",
"$	c #47704C",
"%	c #000001",
"&	c #010000",
"*	c #000000",
"=	c #000000",
"-	c #000000",
";	c #020101",
">	c #020202",
",	c #0E0907",
"'	c #060403",
")	c #000000",
"!	c #070504",
"~	c #000000",
"{	c #020100",
"]	c #120C0A",
"^	c #000000",
"/	c #010101",
"(	c #0E0A0A",
"_	c #000000",
":	c #050302",
"<	c #010000",
"[	c #010000",
"}	c #0B0707",
"|	c #0B0708",
"1	c #1B1414",
"2	c #010101",
"3	c #050303",
"4	c #0E0808",
"5	c #080302",
"6	c #020101",
"7	c #070303",
"8	c #0D0707",
"9	c #120907",
"0	c #040304",
"a	c #090606",
"b	c #010101",
"c	c #231E22",
"d	c #1A0C09",
"e	c #31160F",
"f	c #100B0D",
"g	c #3E1E15",
"h	c #271918",
"i	c #160705",
"j	c #150F0E",
"k	c #1B191D",
"l	c #462D25",
"m	c #1A191E",
"n	c #120909",
"o	c #222429",
"p	c #2A1712",
"q	c #1E1310",
"r	c #231411",
"s	c #2A1A16",
"t	c #51382D",
"u	c #0F0A0B",
"v	c #110C0C",
"w	c #0B090C",
"x	c #120E0E",
"y	c #513428",
"z	c #42251C",
"A	c #503327",
"B	c #462016",
"C	c #1F1510",
"D	c #391B12",
"E	c #241611",
"F	c #241715",
"G	c #4B2F24",
"H	c #25130F",
"I	c #242931",
"J	c #462B21",
"K	c #411D14",
"L	c #180807",
"M	c #26100C",
"N	c #160F0E",
"O	c #3A1B12",
"P	c #37211B",
"Q	c #3B292D",
"R	c #4E3228",
"S	c #583933",
"T	c #301B1A",
"U	c #2C2429",
"V	c #252931",
"W	c #414C5C",
"X	c #394250",
"Y	c #544755",
"Z	c #6E86A2",
"                                                                ",
"                                                                ",
"                                                                ",
"                                                                ",
"                                                                ",
"                                                                ",
"                                                                ",
"                                                                ",
"                                                                ",
"                                                                ",
"                                                                ",
"                                          k                     ",
"                                         sc                     ",
"                                         ok                     ",
"                                         kk                     ",
"                                 oor     kj                     ",
"                                oXQcq    m4                     ",
"                               uVXQck   x1                      ",
"                               kmmm1f   4f                      ",
"                              yQm1NNw   n9                      ",
"                              tRc1ME    ww                      ",
"                              SSROeD    fj                      ",
"                             GSSRKKg    84                      ",
"                             tRQQPKBD  x8                       ",
"                             zUVUUPKg  v8                       ",
"                             oWWSQcTefj9f                       ",
"                             IZYSUcTMNN8w                       ",
"                             VWQQcTe9dN8f4                      ",
"                             cVUcFeeuvVUf4                      ",
"                             kccceMMinNLi                       ",
"                             pccTeLLLLLLi                       ",
"                             EPOKMMFT1Li                        ",
"                             1PPKKKT1NLH                        ",
"                             1FTOKKMNLMKz                       ",
"                             v1NMMMLLLOKBgy                     ",
"                              jNNNNNdMOKKBBG                    ",
"                             yt1NdnqrpeOOKKB                    ",
"                          stSRRPFs     rDpOKz                   ",
"                         HPRRJgpr         pOg                   ",
"                       qE1MPgs            EOg                   ",
"                      j1d9nq              eOg                   ",
"                    jF19{                qPOei                  ",
"                    xdLn                 xFeMi                  ",
"                     4L9                  988i                  ",
"                      4d4      ~~~{~~) )  j88nu~{~) )))))))     ",
"                       4i4)   ) ))        {98i4444{<<~<~<~)     ",
"                                           9LLdddfj{{{{<~~))    ",
"                                           9Ndddd9v{{<{<<~~     ",
"                                            ~ <<{u<{{{<<<~      ",
"                                               ){{~{<{~         ",
"                                                ~))~ )          ",
"                                                                ",
"                                                                ",
"                                                                ",
"                                                                ",
"                                                                ",
"                                                                ",
"                                                                ",
"                                                                ",
"                                                                ",
"                                                                ",
"                                                                ",
"                                                                ",
"                                                                "};
