/* XPM */
static char * player_est6_xpm[] = {
"64 64 95 2",
"  	c None",
". 	c #010100",
"+ 	c #060403",
"@ 	c #020100",
"# 	c #030201",
"$ 	c #47704C",
"% 	c #010000",
"& 	c #010101",
"* 	c #000000",
"= 	c #000000",
"- 	c #000000",
"; 	c #060303",
"> 	c #0C0808",
", 	c #060504",
"' 	c #020101",
") 	c #030201",
"! 	c #060302",
"~ 	c #090707",
"{ 	c #040100",
"] 	c #030203",
"^ 	c #020101",
"/ 	c #040404",
"( 	c #050303",
"_ 	c #030100",
": 	c #000000",
"< 	c #020101",
"[ 	c #0C0809",
"} 	c #1E1C21",
"| 	c #030202",
"1 	c #040202",
"2 	c #000000",
"3 	c #000000",
"4 	c #010101",
"5 	c #000000",
"6 	c #000000",
"7 	c #090606",
"8 	c #391C14",
"9 	c #000000",
"0 	c #1B0F0C",
"a 	c #181518",
"b 	c #000000",
"c 	c #411E15",
"d 	c #130C0C",
"e 	c #0F0808",
"f 	c #000000",
"g 	c #28110C",
"h 	c #0A0707",
"i 	c #110D10",
"j 	c #130908",
"k 	c #150C0B",
"l 	c #150D0C",
"m 	c #553B2F",
"n 	c #1C0E0B",
"o 	c #3B1C13",
"p 	c #0E0707",
"q 	c #1D1719",
"r 	c #311B14",
"s 	c #452B22",
"t 	c #4E3429",
"u 	c #301C18",
"v 	c #4B372B",
"w 	c #4B352A",
"x 	c #2C1C15",
"y 	c #2D1A13",
"z 	c #1B181C",
"A 	c #391C13",
"B 	c #080506",
"C 	c #1F130F",
"D 	c #150A08",
"E 	c #21130F",
"F 	c #191313",
"G 	c #261C1C",
"H 	c #50372B",
"I 	c #51382D",
"J 	c #2C2524",
"K 	c #44281E",
"L 	c #282931",
"M 	c #543A2E",
"N 	c #1E1E23",
"O 	c #211612",
"P 	c #110705",
"Q 	c #313A46",
"R 	c #4A2319",
"S 	c #140705",
"T 	c #1B0B08",
"U 	c #32160F",
"V 	c #1F1411",
"W 	c #2A2328",
"X 	c #33201E",
"Y 	c #241819",
"Z 	c #503329",
"` 	c #3E2C2F",
" .	c #515E72",
"..	c #353C49",
"+.	c #54363F",
"                                                                                                                                ",
"                                                                                                                                ",
"                                                                                                                                ",
"                                                                                                                                ",
"                                                                                                                                ",
"                                                                                                                                ",
"                                                                                                                                ",
"                                                                                                                                ",
"                                                                                                                                ",
"                                                                                                                                ",
"                                                                                L                                               ",
"                                                                              u z                                               ",
"                                                                              N z                                               ",
"                                                                              z j                                               ",
"                                                                              } d                                               ",
"                                                              J N /           a h                                               ",
"                                                            Q ..` } h       / a                                                 ",
"                                                          J W ..` W z       d i                                                 ",
"                                                        I } } } } a e       k e                                                 ",
"                                                        m X a a i i j       p j                                                 ",
"                                                      t m Z Y V V C         e d                                                 ",
"                                                      M m m Z 8 U A         i h                                                 ",
"                                                      I m m Z c c c t     4 B                                                   ",
"                                                      v m Z ` X 8 c o     d B                                                   ",
"                                                      v ` ....` W X U a k p e                                                   ",
"                                                      v W  . .+.W } Y a i B p                                                   ",
"                                                      r L  ...+.} } a i i T i d                                                 ",
"                                                        L ..W W } Y T i a Y e /                                                 ",
"                                                        } W } } Y U T S S S e                                                   ",
"                                                        } W } } g g S S T T C                                                   ",
"                                                        a } } Y 0 T X V T T c u                                                 ",
"                                                      D V X 8 8 U U X i S g c c o                                               ",
"                                                      d V X 8 8 c c V S S g U 8 c o                                             ",
"                                                      k 0 V g U 8 g S S j r u A U 8 A                                           ",
"                                                      C 0 0 T T T T S j         C U o                                           ",
"                                                      n V 0 0 S S S p         E g U 8 E                                         ",
"                                                      n V V 0 T S j           h g U U j                                         ",
"                                                        O V 0 T g               n g T k                                         ",
"                                                        J 8 8 U o               d S S d                                         ",
"                                                        t s 8 8 r                 B S D                                         ",
"                                                          s c o                   p S j                                         ",
"                                                    t M I Z o                     e S T 0 n n n P                               ",
"                                                u v m Z Z s r                     k e e p k d d                                 ",
"                                              O X Z Z s A                                                 5                     ",
"                                          E C V 0 X 8 r                                     ^ ^ f f ^ ^ 4 4 f f 5               ",
"                                      E d n V n k D                                       / h h / 4 4 4 / 4 4 ^ ^   5           ",
"                                    k Y 0 e h                                         5 4 / h / / / / / 4 ^ ^ ^ ^ f 5           ",
"                                    ^ 0 S k                                           4 h h / / / f ^ f ^ ^ f ^                 ",
"                                      P e n                                         4 ^ / / f 5   5 5   5   f                   ",
"                                          p j ^           4 4 / / ^ ^ 5                                                         ",
"                                            D 5           5 5 f                                                                 ",
"                                                                                                                                ",
"                                                                                                                                ",
"                                                                                                                                ",
"                                                                                                                                ",
"                                                                                                                                ",
"                                                                                                                                ",
"                                                                                                                                ",
"                                                                                                                                ",
"                                                                                                                                ",
"                                                                                                                                ",
"                                                                                                                                ",
"                                                                                                                                ",
"                                                                                                                                "};
