/* XPM */
static char * player_nord1_xpm[] = {
"64 64 314 2",
"  	c None",
". 	c #27242A",
"+ 	c #1C1D22",
"@ 	c #191B20",
"# 	c #1A1B21",
"$ 	c #181A20",
"% 	c #131419",
"& 	c #121318",
"* 	c #101216",
"= 	c #101115",
"- 	c #101116",
"; 	c #1C1E24",
"> 	c #22242A",
", 	c #1F1E24",
"' 	c #1A1A1F",
") 	c #0D0F13",
"! 	c #2C333D",
"~ 	c #3B4452",
"{ 	c #37282E",
"] 	c #1D1B1F",
"^ 	c #0B0C10",
"/ 	c #0A090B",
"( 	c #1E2128",
"_ 	c #313641",
": 	c #3A272D",
"< 	c #1D1B1E",
"[ 	c #0A0B0F",
"} 	c #090709",
"| 	c #16181D",
"1 	c #1E1E22",
"2 	c #1D1C20",
"3 	c #171417",
"4 	c #090A0D",
"5 	c #070506",
"6 	c #121419",
"7 	c #151418",
"8 	c #151316",
"9 	c #110D10",
"0 	c #08080A",
"a 	c #050506",
"b 	c #261D1D",
"c 	c #1A1518",
"d 	c #191113",
"e 	c #1D1011",
"f 	c #0F0D10",
"g 	c #110E11",
"h 	c #593E32",
"i 	c #53382D",
"j 	c #41261E",
"k 	c #3D1D15",
"l 	c #462016",
"m 	c #451E15",
"n 	c #231819",
"o 	c #1A181B",
"p 	c #181518",
"q 	c #553C30",
"r 	c #583D31",
"s 	c #593B2F",
"t 	c #583A2E",
"u 	c #57382D",
"v 	c #56352A",
"w 	c #523025",
"x 	c #4C261C",
"y 	c #49231A",
"z 	c #48282B",
"A 	c #352226",
"B 	c #1E1B20",
"C 	c #1B191D",
"D 	c #19171B",
"E 	c #553B2F",
"F 	c #573B2F",
"G 	c #573A2E",
"H 	c #56372C",
"I 	c #55352A",
"J 	c #543328",
"K 	c #523126",
"L 	c #522E24",
"M 	c #562F31",
"N 	c #4D2D33",
"O 	c #2D2227",
"P 	c #232024",
"Q 	c #1F1E22",
"R 	c #18161A",
"S 	c #4C3A2E",
"T 	c #51362B",
"U 	c #4F3429",
"V 	c #513429",
"W 	c #513328",
"X 	c #513227",
"Y 	c #4F3025",
"Z 	c #4F2F24",
"` 	c #4F2E24",
" .	c #4B2B22",
"..	c #312223",
"+.	c #251F24",
"@.	c #262126",
"#.	c #262226",
"$.	c #201E22",
"%.	c #1A171A",
"&.	c #432D23",
"*.	c #40271E",
"=.	c #452D23",
"-.	c #482E23",
";.	c #482D23",
">.	c #482C22",
",.	c #492B21",
"'.	c #492A20",
").	c #46281E",
"!.	c #41231A",
"~.	c #21191B",
"{.	c #1A181D",
"].	c #1B1A1E",
"^.	c #1F1D22",
"/.	c #1E1C20",
"(.	c #1C191C",
"_.	c #161215",
":.	c #2E1F17",
"<.	c #2C1B13",
"[.	c #34221A",
"}.	c #3C261D",
"|.	c #3E261D",
"1.	c #3F251C",
"2.	c #41251C",
"3.	c #40241B",
"4.	c #3C2017",
"5.	c #381B13",
"6.	c #2A1612",
"7.	c #1B1214",
"8.	c #151417",
"9.	c #1B1517",
"0.	c #201416",
"a.	c #1E120B",
"b.	c #26150E",
"c.	c #2B1D15",
"d.	c #2F1D15",
"e.	c #331D15",
"f.	c #361D15",
"g.	c #361B13",
"h.	c #331911",
"i.	c #31170F",
"j.	c #2D150E",
"k.	c #1D100F",
"l.	c #170F0F",
"m.	c #271510",
"n.	c #2F1610",
"o.	c #381911",
"p.	c #1E140E",
"q.	c #281B14",
"r.	c #281811",
"s.	c #2C170F",
"t.	c #2E160E",
"u.	c #2F160E",
"v.	c #28120C",
"w.	c #100505",
"x.	c #10090B",
"y.	c #1C0F0A",
"z.	c #2D160F",
"A.	c #331810",
"B.	c #15100E",
"C.	c #151010",
"D.	c #231915",
"E.	c #2B1B15",
"F.	c #2E1810",
"G.	c #2E150E",
"H.	c #250E0A",
"I.	c #1A0B0A",
"J.	c #130605",
"K.	c #100A08",
"L.	c #20120B",
"M.	c #25140D",
"N.	c #19120F",
"O.	c #17100E",
"P.	c #181111",
"Q.	c #191111",
"R.	c #1B100F",
"S.	c #211110",
"T.	c #160B0B",
"U.	c #150A0A",
"V.	c #180907",
"W.	c #150705",
"X.	c #1E1714",
"Y.	c #1A1410",
"Z.	c #170F0C",
"`.	c #160D0A",
" +	c #150C09",
".+	c #160B09",
"++	c #150A09",
"@+	c #160806",
"#+	c #180906",
"$+	c #170806",
"%+	c #150806",
"&+	c #1E1613",
"*+	c #190F0C",
"=+	c #170D09",
"-+	c #160B08",
";+	c #170B08",
">+	c #1A0C09",
",+	c #170906",
"'+	c #160805",
")+	c #1F1713",
"!+	c #1E1512",
"~+	c #1C110E",
"{+	c #190F0B",
"]+	c #190D0A",
"^+	c #1A0E0A",
"/+	c #180B08",
"(+	c #160705",
"_+	c #1C1310",
":+	c #1B110D",
"<+	c #1A0F0C",
"[+	c #1A0E0B",
"}+	c #180C08",
"|+	c #190B08",
"1+	c #200D09",
"2+	c #3C2E25",
"3+	c #1F1511",
"4+	c #1A110D",
"5+	c #180B07",
"6+	c #190C08",
"7+	c #1A0D09",
"8+	c #1A0B08",
"9+	c #1D0C08",
"0+	c #331710",
"a+	c #433429",
"b+	c #31231C",
"c+	c #180D0A",
"d+	c #190C09",
"e+	c #2B130C",
"f+	c #3C1C13",
"g+	c #403127",
"h+	c #3A281F",
"i+	c #23150F",
"j+	c #210D09",
"k+	c #341810",
"l+	c #3D1B13",
"m+	c #443329",
"n+	c #3E2920",
"o+	c #2F1811",
"p+	c #220E0A",
"q+	c #160906",
"r+	c #1B0E0A",
"s+	c #1B0D09",
"t+	c #27120C",
"u+	c #3C1D14",
"v+	c #4B372C",
"w+	c #432A20",
"x+	c #341912",
"y+	c #2C150E",
"z+	c #3C1B12",
"A+	c #3E1D14",
"B+	c #4B352B",
"C+	c #4A2E24",
"D+	c #2D160E",
"E+	c #3D1B12",
"F+	c #401E14",
"G+	c #493329",
"H+	c #482B21",
"I+	c #3B1A11",
"J+	c #2E1A12",
"K+	c #401D14",
"L+	c #3B1C13",
"M+	c #47362B",
"N+	c #4B3228",
"O+	c #45271E",
"P+	c #3A1A11",
"Q+	c #301E16",
"R+	c #3C1C14",
"S+	c #392B22",
"T+	c #472F25",
"U+	c #44261D",
"V+	c #33160F",
"W+	c #332119",
"X+	c #3D2017",
"Y+	c #3F1D14",
"Z+	c #30150E",
"`+	c #1B130F",
" @	c #2D1C15",
".@	c #321811",
"+@	c #190704",
"@@	c #1F140F",
"#@	c #321C14",
"$@	c #2A120C",
"%@	c #190805",
"&@	c #000000",
"*@	c #18100D",
"=@	c #130A07",
"-@	c #130705",
";@	c #0C0504",
">@	c #120C0A",
",@	c #1A120E",
"'@	c #120A08",
")@	c #140806",
"!@	c #140705",
"~@	c #070302",
"{@	c #1B1310",
"]@	c #140A07",
"^@	c #0F0504",
"/@	c #100B08",
"(@	c #130806",
"_@	c #0A0302",
":@	c #0E0403",
"<@	c #010100",
"[@	c #120C09",
"}@	c #160A08",
"|@	c #070202",
"1@	c #140704",
"2@	c #010000",
"3@	c #19110D",
"4@	c #150F0C",
"5@	c #160C09",
"6@	c #110604",
"7@	c #150D0B",
"8@	c #1A0D0A",
"9@	c #120705",
"                                                                                                                                ",
"                                                                                                                                ",
"                                                                                                                                ",
"                                                                                                                                ",
"                                                                                                                                ",
"                                                                                                                                ",
"                                                                                                                                ",
"                                                                    .                                                           ",
"                                                                    +                                                           ",
"                                                                    @                                                           ",
"                                                                    #                                                           ",
"                                                                    $                                                           ",
"                                                                    %                                                           ",
"                                                                    &                                                           ",
"                                                                    *                                                           ",
"                                                                    =                                                           ",
"                                                                    -                                                           ",
"                                                          ; > , '   )                                                           ",
"                                                          ! ~ { ]   ^ /                                                         ",
"                                                          ( _ : <   [ }                                                         ",
"                                                          | 1 2 3   4 5                                                         ",
"                                                          6 7 8 9   0 a                                                         ",
"                                                          b c d e   f g                                                         ",
"                                                        h i j k l m n o p                                                       ",
"                                                  q r s t u v w x y z A B C D                                                   ",
"                                                E F G t H I J K K L M N O P Q R                                                 ",
"                                              S T U U V W X Y Z `  ...+.@.#.$.%.                                                ",
"                                                &.*.=.-.;.>.,.'.).!.~.{.].^./.(._.                                              ",
"                                                :.<.[.}.|.1.2.3.4.5.6.7.8.p 9.0.                                                ",
"                                                  a.b.c.d.e.f.g.h.i.j.k.l.m.n.o.                                                ",
"                                                      p.q.r.s.t.t.u.v.w.x.y.z.A.                                                ",
"                                                    B.C.D.E.F.G.j.H.I.J.  K.L.M.                                                ",
"                                                    N.O.P.Q.R.S.T.U.V.W.                                                        ",
"                                                  X.Y.Z.`. +.+++@+#+$+%+%+                                                      ",
"                                                  X.&+*+=+-+;+>+,+'+W.@+,+                                                      ",
"                                                  )+!+~+{+]+^+^+/+'+(+,+#+                                                      ",
"                                                  D._+:+<+[+}+}+|+,+$+#+1+                                                      ",
"                                                  2+3+4+^+^+5+6+7+8+#+9+0+                                                      ",
"                                                  a+b+~+c+/+d+7+7+|+$+e+f+                                                      ",
"                                                  g+h+i+]+5+d+]+6+|+j+k+l+                                                      ",
"                                                  m+n+o+p+q+r+]+^+s+t+o.u+                                                      ",
"                                                  v+w+x+            y+z+A+                                                      ",
"                                                  B+C+o.            D+E+F+                                                      ",
"                                                  G+H+I+            J+z+K+L+                                                    ",
"                                                M+N+O+P+            Q+R+F+L+                                                    ",
"                                                S+T+U+V+            W+X+Y+Z+                                                    ",
"                                                `+ @.@+@            @@#@$@%@                              &@&@&@&@&@            ",
"                                                *@=@-@;@            >@-+-@W.                &@&@&@&@&@&@&@&@&@&@&@&@            ",
"                                                ,@;+-@                '@)@!@~@  &@&@&@&@&@&@&@&@&@&@&@&@&@&@&@                  ",
"                                                {@]@^@                /@(@%+_@  &@&@&@&@&@&@&@&@&@&@&@&@                        ",
"                                                {@;+:@      &@&@&@&@<@[@}@-@|@  &@&@&@&@&@&@&@&@&@                              ",
"                                                *@/+1@2@&@&@&@&@&@    3@[+!@<@&@&@&@&@                                          ",
"                                                4@5@6@&@              7@8@9@2@                                                  ",
"                                                  ;@                                                                            ",
"                                                                                                                                ",
"                                                                                                                                ",
"                                                                                                                                ",
"                                                                                                                                ",
"                                                                                                                                ",
"                                                                                                                                ",
"                                                                                                                                ",
"                                                                                                                                ",
"                                                                                                                                ",
"                                                                                                                                "};
