/* XPM */
static char * player_est1_xpm[] = {
"64 64 583 2",
"  	c None",
". 	c #25242B",
"+ 	c #242126",
"@ 	c #231D21",
"# 	c #221F24",
"$ 	c #211D22",
"% 	c #1F1B1F",
"& 	c #1F1C21",
"* 	c #1E1B1F",
"= 	c #1C181C",
"- 	c #272C34",
"; 	c #23252B",
"> 	c #212026",
", 	c #1D1B20",
"' 	c #1C1A1E",
") 	c #1A1619",
"! 	c #313945",
"~ 	c #363E4A",
"{ 	c #2E2F38",
"] 	c #28252B",
"^ 	c #232024",
"/ 	c #1E1C20",
"( 	c #1C1B20",
"_ 	c #1A181D",
": 	c #161215",
"< 	c #1E2028",
"[ 	c #2E3641",
"} 	c #373E4A",
"| 	c #363139",
"1 	c #32272D",
"2 	c #2B2126",
"3 	c #18161A",
"4 	c #1B1A1F",
"5 	c #19171B",
"6 	c #130F13",
"7 	c #1C1E25",
"8 	c #262D36",
"9 	c #31353F",
"0 	c #352C33",
"a 	c #34262B",
"b 	c #2D2125",
"c 	c #1E191C",
"d 	c #1A191D",
"e 	c #110E11",
"f 	c #1B1C21",
"g 	c #1D2026",
"h 	c #22242A",
"i 	c #231E23",
"j 	c #1F1A1E",
"k 	c #171316",
"l 	c #120E11",
"m 	c #100B0E",
"n 	c #16161A",
"o 	c #181518",
"p 	c #352926",
"q 	c #211D20",
"r 	c #18181E",
"s 	c #19191D",
"t 	c #18181C",
"u 	c #171418",
"v 	c #130F12",
"w 	c #100C0F",
"x 	c #0F0A0D",
"y 	c #151418",
"z 	c #171519",
"A 	c #161316",
"B 	c #43322A",
"C 	c #2D2322",
"D 	c #1C191C",
"E 	c #16151A",
"F 	c #161418",
"G 	c #171317",
"H 	c #181114",
"I 	c #170F11",
"J 	c #140C0E",
"K 	c #141216",
"L 	c #151216",
"M 	c #141014",
"N 	c #543D31",
"O 	c #4E392E",
"P 	c #3D2D27",
"Q 	c #2B201F",
"R 	c #1C1619",
"S 	c #1B1316",
"T 	c #1E1214",
"U 	c #201212",
"V 	c #201110",
"W 	c #1E100E",
"X 	c #121115",
"Y 	c #120D11",
"Z 	c #553D31",
"` 	c #533A2F",
" .	c #4B352B",
"..	c #3E2B24",
"+.	c #301F1A",
"@.	c #2B1714",
"#.	c #2B1411",
"$.	c #2C1510",
"%.	c #2D1510",
"&.	c #110F13",
"*.	c #100D10",
"=.	c #0F0B0E",
"-.	c #543C31",
";.	c #553B30",
">.	c #543A2E",
",.	c #4D3329",
"'.	c #432920",
").	c #3B1E16",
"!.	c #371911",
"~.	c #381911",
"{.	c #3A1B12",
"].	c #110E12",
"^.	c #0E0B0E",
"/.	c #0C090C",
"(.	c #513B30",
"_.	c #533B30",
":.	c #553C30",
"<.	c #573B2F",
"[.	c #55372C",
"}.	c #503026",
"|.	c #46241B",
"1.	c #411D15",
"2.	c #401D13",
"3.	c #401E14",
"4.	c #100E11",
"5.	c #0D0A0D",
"6.	c #0B080A",
"7.	c #503B30",
"8.	c #523B30",
"9.	c #563A2F",
"0.	c #53362D",
"a.	c #4C2F27",
"b.	c #45251E",
"c.	c #411E17",
"d.	c #401C14",
"e.	c #411E15",
"f.	c #0F0D0F",
"g.	c #0C0A0C",
"h.	c #0A080A",
"i.	c #4C392E",
"j.	c #4D382E",
"k.	c #4E372E",
"l.	c #4B352E",
"m.	c #45302C",
"n.	c #3E2A28",
"o.	c #3B2322",
"p.	c #391F1C",
"q.	c #3B1D19",
"r.	c #3E1D16",
"s.	c #401E15",
"t.	c #0D0B0E",
"u.	c #0D0B0D",
"v.	c #0A080B",
"w.	c #47372C",
"x.	c #45342B",
"y.	c #40302C",
"z.	c #393032",
"A.	c #312C32",
"B.	c #2B262C",
"C.	c #2C2227",
"D.	c #2D2023",
"E.	c #311E1F",
"F.	c #391D18",
"G.	c #0A090C",
"H.	c #080709",
"I.	c #43342B",
"J.	c #3B2F2A",
"K.	c #302D31",
"L.	c #343944",
"M.	c #323742",
"N.	c #2F2C34",
"O.	c #30252B",
"P.	c #2A2025",
"Q.	c #281D21",
"R.	c #301D1C",
"S.	c #3F1D15",
"T.	c #09080B",
"U.	c #09080A",
"V.	c #070608",
"W.	c #3B2F28",
"X.	c #363437",
"Y.	c #37404C",
"Z.	c #435061",
"`.	c #464857",
" +	c #433139",
".+	c #3C282E",
"++	c #2E2126",
"@+	c #221D21",
"#+	c #271D1E",
"$+	c #311C1A",
"%+	c #341A16",
"&+	c #070708",
"*+	c #060507",
"=+	c #2D2625",
"-+	c #383E48",
";+	c #455263",
">+	c #4F5D70",
",+	c #544F5F",
"'+	c #50323A",
")+	c #43292F",
"!+	c #302226",
"~+	c #221C1E",
"{+	c #291A1A",
"]+	c #291717",
"^+	c #1D1315",
"/+	c #100C0E",
"(+	c #050406",
"_+	c #212124",
":+	c #38424F",
"<+	c #475567",
"[+	c #464D5D",
"}+	c #4C3F4B",
"|+	c #4D3036",
"1+	c #39262B",
"2+	c #281F23",
"3+	c #221B1D",
"4+	c #281A1A",
"5+	c #271616",
"6+	c #211414",
"7+	c #191315",
"8+	c #080708",
"9+	c #050506",
"0+	c #1B1E23",
"a+	c #2D3641",
"b+	c #3A4452",
"c+	c #373945",
"d+	c #3B2F37",
"e+	c #3D282E",
"f+	c #2C2125",
"g+	c #241C1E",
"h+	c #271919",
"i+	c #2E1815",
"j+	c #261311",
"k+	c #1D1212",
"l+	c #191416",
"m+	c #110D0F",
"n+	c #1B1C22",
"o+	c #202229",
"p+	c #252830",
"q+	c #27272E",
"r+	c #28242A",
"s+	c #272025",
"t+	c #221C20",
"u+	c #25191A",
"v+	c #2C1714",
"w+	c #301610",
"x+	c #25100C",
"y+	c #190F0F",
"z+	c #191314",
"A+	c #090709",
"B+	c #0B0A0C",
"C+	c #1A1B20",
"D+	c #1E1F25",
"E+	c #212229",
"F+	c #232228",
"G+	c #232127",
"H+	c #221F23",
"I+	c #211A1D",
"J+	c #271715",
"K+	c #2E150F",
"L+	c #2E130D",
"M+	c #220C09",
"N+	c #140909",
"O+	c #150D0E",
"P+	c #120B0C",
"Q+	c #0D090B",
"R+	c #121013",
"S+	c #151315",
"T+	c #1A1B1F",
"U+	c #1D1E22",
"V+	c #202025",
"W+	c #201F24",
"X+	c #201D21",
"Y+	c #211719",
"Z+	c #271311",
"`+	c #29110B",
" @	c #250E09",
".@	c #1B0806",
"+@	c #120707",
"@@	c #150C0E",
"#@	c #191012",
"$@	c #191113",
"%@	c #171012",
"&@	c #141013",
"*@	c #120F12",
"=@	c #1E1B1C",
"-@	c #221E20",
";@	c #262122",
">@	c #261F21",
",@	c #271E20",
"'@	c #261B1C",
")@	c #231515",
"!@	c #220F0D",
"~@	c #200B07",
"{@	c #1A0806",
"]@	c #140605",
"^@	c #110707",
"/@	c #130C0D",
"(@	c #1A1113",
"_@	c #1C1214",
":@	c #1A1013",
"<@	c #150D10",
"[@	c #221A17",
"}@	c #2A1F1C",
"|@	c #32231F",
"1@	c #331F1D",
"2@	c #341D1A",
"3@	c #321A17",
"4@	c #281310",
"5@	c #1D0B0A",
"6@	c #150706",
"7@	c #140606",
"8@	c #140706",
"9@	c #130807",
"0@	c #11090A",
"a@	c #140A0A",
"b@	c #150A0A",
"c@	c #150909",
"d@	c #211915",
"e@	c #2C1F1A",
"f@	c #37251E",
"g@	c #3B231C",
"h@	c #3C1F18",
"i@	c #381B14",
"j@	c #2C130F",
"k@	c #230E0B",
"l@	c #1F0C0B",
"m@	c #1D0F10",
"n@	c #1F1112",
"o@	c #180B0A",
"p@	c #170807",
"q@	c #170806",
"r@	c #160806",
"s@	c #1E1713",
"t@	c #291D17",
"u@	c #35241B",
"v@	c #3C241B",
"w@	c #3E2118",
"x@	c #3C1C14",
"y@	c #361811",
"z@	c #32150E",
"A@	c #311612",
"B@	c #2E191A",
"C@	c #29181B",
"D@	c #221416",
"E@	c #1B0D0D",
"F@	c #180907",
"G@	c #180806",
"H@	c #170906",
"I@	c #1C1612",
"J@	c #231A14",
"K@	c #2D1E17",
"L@	c #352119",
"M@	c #3A2017",
"N@	c #3D1D14",
"O@	c #3F1C13",
"P@	c #3F1B12",
"Q@	c #3D1C16",
"R@	c #391F1F",
"S@	c #2D1B1D",
"T@	c #1F1416",
"U@	c #190D0E",
"V@	c #150807",
"W@	c #140705",
"X@	c #150806",
"Y@	c #1E1612",
"Z@	c #221712",
"`@	c #291A13",
" #	c #311A13",
".#	c #361A12",
"+#	c #3A1A12",
"@#	c #3A1A11",
"##	c #361913",
"$#	c #2B1717",
"%#	c #201315",
"&#	c #170E10",
"*#	c #120706",
"=#	c #1D1713",
"-#	c #1C1511",
";#	c #1C130F",
">#	c #201410",
",#	c #26150F",
"'#	c #2C160F",
")#	c #2E150E",
"!#	c #2D140E",
"~#	c #28120D",
"{#	c #1C0E0D",
"]#	c #160B0B",
"^#	c #140A09",
"/#	c #140807",
"(#	c #120705",
"_#	c #1D1613",
":#	c #1C1310",
"<#	c #1C120F",
"[#	c #1E120E",
"}#	c #20120D",
"|#	c #1F0F0B",
"1#	c #1C0D09",
"2#	c #1A0B08",
"3#	c #170907",
"4#	c #1B1310",
"5#	c #1B120F",
"6#	c #1D120E",
"7#	c #1D110D",
"8#	c #1B0E0B",
"9#	c #1A0C09",
"0#	c #190A08",
"a#	c #170805",
"b#	c #1A120F",
"c#	c #1D130F",
"d#	c #1D120F",
"e#	c #1C100D",
"f#	c #1A0F0C",
"g#	c #1A0D0A",
"h#	c #1B0B08",
"i#	c #1D0B07",
"j#	c #1F0C08",
"k#	c #1E1511",
"l#	c #211813",
"m#	c #221612",
"n#	c #211410",
"o#	c #1F120E",
"p#	c #1F110D",
"q#	c #220F0A",
"r#	c #27100B",
"s#	c #2C130C",
"t#	c #2E140D",
"u#	c #33261E",
"v#	c #2D1E18",
"w#	c #2A1A14",
"x#	c #291711",
"y#	c #2A1510",
"z#	c #2C150F",
"A#	c #30150F",
"B#	c #341810",
"C#	c #372820",
"D#	c #36251D",
"E#	c #35231B",
"F#	c #351D15",
"G#	c #351B13",
"H#	c #371A12",
"I#	c #391B12",
"J#	c #2F211B",
"K#	c #38261E",
"L#	c #3C2920",
"M#	c #3D281F",
"N#	c #3C231B",
"O#	c #3B1F16",
"P#	c #3A1C14",
"Q#	c #3B1B13",
"R#	c #391A12",
"S#	c #241914",
"T#	c #30201A",
"U#	c #38271F",
"V#	c #3D2921",
"W#	c #3E261D",
"X#	c #3C2118",
"Y#	c #1B1410",
"Z#	c #221611",
"`#	c #2E1F18",
" $	c #39271E",
".$	c #3E271F",
"+$	c #3D231A",
"@$	c #16100D",
"#$	c #130B09",
"$$	c #241812",
"%$	c #35241C",
"&$	c #3E2920",
"*$	c #3D241B",
"=$	c #391D15",
"-$	c #130D0B",
";$	c #130B08",
">$	c #261A14",
",$	c #38271E",
"'$	c #402B21",
")$	c #3E251C",
"!$	c #160F0C",
"~$	c #18100D",
"{$	c #1F140F",
"]$	c #34241C",
"^$	c #432E25",
"/$	c #452D23",
"($	c #40251C",
"_$	c #381C14",
":$	c #311811",
"<$	c #1B130F",
"[$	c #211712",
"}$	c #2F201A",
"|$	c #402C23",
"1$	c #493127",
"2$	c #472D23",
"3$	c #3F241B",
"4$	c #2A140E",
"5$	c #200E0A",
"6$	c #1F1612",
"7$	c #2B1E18",
"8$	c #3D2B22",
"9$	c #473027",
"0$	c #4A3026",
"a$	c #452920",
"b$	c #311810",
"c$	c #25100B",
"d$	c #1D0B08",
"e$	c #160805",
"f$	c #070202",
"g$	c #000000",
"h$	c #221913",
"i$	c #31241C",
"j$	c #442F26",
"k$	c #4A3228",
"l$	c #482D24",
"m$	c #41251C",
"n$	c #371C15",
"o$	c #2A130D",
"p$	c #1D0C08",
"q$	c #100503",
"r$	c #050201",
"s$	c #251B15",
"t$	c #33251D",
"u$	c #483026",
"v$	c #442920",
"w$	c #3C2018",
"x$	c #220F09",
"y$	c #0E0403",
"z$	c #090202",
"A$	c #2F211A",
"B$	c #3D2A21",
"C$	c #422A21",
"D$	c #3F241C",
"E$	c #2A130C",
"F$	c #1A0A06",
"G$	c #241A15",
"H$	c #2F2019",
"I$	c #37221A",
"J$	c #371E17",
"K$	c #2B140E",
"L$	c #1F0C07",
"M$	c #211510",
"N$	c #271711",
"O$	c #28150F",
"P$	c #170705",
"Q$	c #170E0B",
"R$	c #160B08",
"S$	c #120604",
"T$	c #150C09",
"U$	c #130906",
"V$	c #110604",
"W$	c #0E0503",
"X$	c #140B08",
"Y$	c #110705",
"Z$	c #0F0503",
"`$	c #17100D",
" %	c #130A07",
".%	c #100504",
"+%	c #160E0B",
"@%	c #150A07",
"#%	c #150805",
"$%	c #190907",
"%%	c #010000",
"&%	c #19110E",
"*%	c #180E0B",
"=%	c #180B08",
"-%	c #1D0D0A",
";%	c #1F0E0B",
">%	c #1D0E0A",
",%	c #190B09",
"'%	c #0F0504",
")%	c #050101",
"!%	c #170D0A",
"~%	c #1A0C08",
"{%	c #1F0F0C",
"]%	c #1E0F0B",
"^%	c #1C0D0A",
"/%	c #190B08",
"(%	c #130706",
"_%	c #110807",
":%	c #110806",
"<%	c #130806",
"[%	c #160A08",
"}%	c #180C09",
"|%	c #1C0E0B",
"1%	c #1B0D0A",
"2%	c #180A08",
"                                                                                                                                ",
"                                                                                                                                ",
"                                                                                    . + @                                       ",
"                                                                                    # $ %                                       ",
"                                                                                    & * =                                       ",
"                                                              - ; >                 , ' )                                       ",
"                                                            ! ~ { ] ^ /             ( _ :                                       ",
"                                                          < [ } | 1 2 % 3           4 5 6                                       ",
"                                                          7 8 9 0 a b c :           d 3 e                                       ",
"                                                          f g h + i j k l m       n 5 o                                         ",
"                                                        p q r s s t u v w x       y z A                                         ",
"                                                        B C D E F G H I J         K L M                                         ",
"                                                      N O P Q R S T U V W         X 6 Y                                         ",
"                                                      Z `  ...+.@.#.$.%.          &.*.=.                                        ",
"                                                      -.;.>.,.'.).!.~.{.          ].^./.                                        ",
"                                                    (._.:.<.[.}.|.1.2.3.          4.5.6.                                        ",
"                                                    7.8.;.9.0.a.b.c.d.e.          f.g.h.                                        ",
"                                                    i.j.k.l.m.n.o.p.q.r.s.      t.u.v.                                          ",
"                                                    w.x.y.z.A.B.C.D.E.F.r.      G.G.H.                                          ",
"                                                    I.J.K.L.M.N.O.P.Q.R.F.S.    T.U.V.                                          ",
"                                                    W.X.Y.Z.`. +.+++@+#+$+%+    H.&+*+                                          ",
"                                                    =+-+;+>+,+'+)+!+q ~+{+]+^+/+H.*+(+                                          ",
"                                                    _+:+<+[+}+|+1+2+3+4+5+6+7+/+8+*+9+                                          ",
"                                                    0+a+b+c+d+e+f+g+h+i+j+k+l+m+8+*+9+                                          ",
"                                                    n+o+p+q+r+s+t+u+v+w+x+y+z+m+A+V.B+                                          ",
"                                                    C+D+E+F+G+H+I+J+K+L+M+N+O+P+Q+g.R+S+                                        ",
"                                                    T+U+V+V+W+X+Y+Z+`+ @.@+@@@#@$@%@&@*@                                        ",
"                                                    =@-@;@>@,@'@)@!@~@{@]@^@/@(@_@:@<@                                          ",
"                                                    [@}@|@1@2@3@4@5@6@7@8@9@0@a@b@c@c@                                          ",
"                                                    d@e@f@g@h@i@j@k@l@m@n@m@o@p@q@r@r@                                          ",
"                                                    s@t@u@v@w@x@y@z@A@B@C@D@E@F@G@H@r@                                          ",
"                                                    I@J@K@L@M@N@O@P@Q@R@S@T@U@V@W@X@                                            ",
"                                                    I@Y@Z@`@ #.#+#@###$#%#&#b@*#                                                ",
"                                                    =#-#;#>#,#'#)#!#~#{#]#^#/#(#                                                ",
"                                                    _#-#:#<#[#}#|#1#2#F@3#r@X@                                                  ",
"                                                    4#4#5#<#6#7#8#9#0#H@q@a#X@                                                  ",
"                                                    b#5#:#c#d#e#f#g#h#i#j#j#                                                    ",
"                                                      k#l#m#n#o#p#|#q#r#s#t#                                                    ",
"                                                        u#v#w#x#y#z#A#B#!.                                                      ",
"                                                        C#D#E#L@F#G#H#I#{.                                                      ",
"                                                        J#K#L#M#N#O#P#Q#R#                                                      ",
"                                                        S#T#U#V#W#X#P#{.R#                                                      ",
"                                                        Y#Z#`# $.$+$P#R#                                                        ",
"                                                        @$#$$$%$&$*$=$H#                                                        ",
"                                                        -$;$>$,$'$)$=$.#                                                        ",
"                                                      !$~${$]$^$/$($_$:$                                                        ",
"                                                      <$[$}$|$1$2$3$.#4$5$W@                                                    ",
"                                                      6$7$8$9$0$a$X#b$c$d$e$f$g$g$g$                                            ",
"                                                      h$i$j$k$l$m$n$o$p$e$q$r$g$g$g$              g$g$g$g$g$g$g$g$g$            ",
"                                                      s$t$j$u$v$w$:$x$e$y$z$                      g$g$g$g$g$g$g$g$g$g$g$g$g$g$g$",
"                                                        A$B$C$D$G#E$F$                            g$g$g$g$g$g$g$g$g$g$g$g$g$g$g$",
"                                                        G$H$I$J$K$L$                                g$g$g$g$g$g$g$g$g$g$g$g$g$g$",
"                                                        <$M$N$O$j#P$                                g$g$g$g$g$g$g$g$g$g$g$g$g$g$",
"                                                        !$Q$R$X@S$                                  g$g$g$g$g$g$g$g$g$g$g$g$g$g$",
"                                                        !$T$U$V$W$                                  g$g$g$g$g$g$g$g$g$g$g$g$  g$",
"                                                        !$X$Y$Z$                                      g$g$g$g$                  ",
"                                                      `$!$ %Y$.%                                                                ",
"                                                      `$+%@%#%q@$%          %%g$g$g$g$                                          ",
"                                                      &%*%=%2#-%;%;%>%,%V@'%)%%%g$g$                                            ",
"                                                      ~$!%=%~%>%{%{%]%^%/%(%f$                                                  ",
"                                                        _%:%<%[%}%g#|%1%2%(#                                                    ",
"                                                                                                                                ",
"                                                                                                                                ",
"                                                                                                                                "};
