/* XPM */
static char *xpm_[] = {
/* columns rows colors chars-per-pixel */
"64 64 104 2 ",
"   c #000000",
".  c #0F0503",
"X  c #07070A",
"o  c #0B0A0E",
"O  c #140705",
"+  c #160806",
"@  c #1A0A07",
"#  c #160B09",
"$  c #1B0D0A",
"%  c #16100E",
"&  c #1A110E",
"*  c #0F0E12",
"=  c #110F11",
"-  c #180F10",
";  c #141216",
":  c #1C1412",
">  c #1F1814",
",  c #15151A",
"<  c #19161A",
"1  c #16181E",
"2  c #1B191D",
"3  c #270F0B",
"4  c #23120D",
"5  c #2C150E",
"6  c #30170F",
"7  c #221412",
"8  c #271912",
"9  c #2B1A13",
"0  c #221818",
"q  c #291E1A",
"w  c #341C14",
"e  c #3B1D14",
"r  c #32241C",
"t  c #3C241C",
"y  c #1D1D21",
"u  c #201E22",
"i  c #1E2128",
"p  c #242126",
"a  c #2A2126",
"s  c #26272E",
"d  c #2A2328",
"f  c #3C2625",
"g  c #3F2D23",
"h  c #262A32",
"j  c #482117",
"k  c #43241B",
"l  c #4B271F",
"z  c #47291F",
"x  c #442B21",
"c  c #432C22",
"v  c #472D23",
"b  c #492B21",
"n  c #492C21",
"m  c #482C22",
"M  c #482D23",
"N  c #4C2D24",
"B  c #4F2F25",
"V  c #402629",
"C  c #502C21",
"Z  c #502F24",
"A  c #433127",
"S  c #4E3025",
"D  c #433228",
"F  c #47342A",
"G  c #4E3328",
"H  c #4E3429",
"J  c #4F3429",
"K  c #4A372C",
"L  c #4F382D",
"P  c #4F392D",
"I  c #503126",
"U  c #523227",
"Y  c #533227",
"T  c #543027",
"R  c #543227",
"E  c #513328",
"W  c #533328",
"Q  c #543328",
"!  c #503429",
"~  c #543429",
"^  c #553429",
"/  c #55362A",
"(  c #56362B",
")  c #56372C",
"_  c #51382D",
"`  c #53382D",
"'  c #53392E",
"]  c #57382D",
"[  c #57392E",
"{  c #553A2E",
"}  c #563A2E",
"|  c #583A2E",
" . c #583B2F",
".. c #412B31",
"X. c #563C30",
"o. c #573F32",
"O. c #583C30",
"+. c #593E32",
"@. c #583239",
"#. c #60353A",
"$. c #323B48",
"%. c #465162",
"&. c None",
"*. c black",
/* pixels */
"&.&.&.&.&.&.&.&.&.&.&.&.&.&.&.&.&.&.&.&.&.&.&.&.&.&.&.&.&.&.&.&.&.&.&.&.&.&.&.&.&.&.&.&.&.&.&.&.&.&.&.&.&.&.&.&.&.&.&.&.&.&.&.&.",
"&.&.&.&.&.&.&.&.&.&.&.&.&.&.&.&.&.&.&.&.&.&.&.&.&.&.&.&.&.&.&.&.&.&.&.&.&.&.&.&.&.&.&.&.&.&.&.&.&.&.&.&.&.&.&.&.&.&.&.&.&.&.&.&.",
"&.&.&.&.&.&.&.&.&.&.&.&.&.&.&.&.&.&.&.&.&.&.&.&.&.&.&.&.&.&.&.&.&.&.&.&.&.&.&.&.&.&.&.&.&.&.&.&.&.&.&.&.&.&.&.&.&.&.&.&.&.&.&.&.",
"&.&.&.&.&.&.&.&.&.&.&.&.&.&.&.&.&.&.&.&.&.&.&.&.&.&.&.&.&.&.&.&.&.&.&.&.&.&.&.&.&.&.&.&.&.&.&.&.&.&.&.&.&.&.&.&.&.&.&.&.&.&.&.&.",
"&.&.&.&.&.&.&.&.&.&.&.&.&.&.&.&.&.&.&.&.&.&.&.&.&.&.&.&.&.&.&.&.&.&.&.&.&.&.&.&.&.&.&.&.&.&.&.&.&.&.&.&.&.&.&.&.&.&.&.&.&.&.&.&.",
"&.&.&.&.&.&.&.&.&.&.&.&.&.&.&.&.&.&.&.&.&.&.&.&.&.&.&.&.&.&.&.&.&.&.&.&.&.&.&.&.&.&.&.&.&.&.&.&.&.&.&.&.&.&.&.&.&.&.&.&.&.&.&.&.",
"&.&.&.&.&.&.&.&.&.&.&.&.&.&.&.&.&.&.&.&.&.&.&.&.&.&.&.&.&.&.&.&.&.&.&.&.&.&.&.&.&.&.&.&.&.&.&.&.&.&.&.&.&.&.&.&.&.&.&.&.&.&.&.&.",
"&.&.&.&.&.&.&.&.&.&.&.&.&.&.&.&.&.&.&.&.&.&.&.&.&.&.&.&.&.&.&.&.&.&.&.&.h &.&.&.&.&.&.&.&.&.&.&.&.&.&.&.&.&.&.&.&.&.&.&.&.&.&.&.",
"&.&.&.&.&.&.&.&.&.&.&.&.&.&.&.&.&.&.&.&.&.&.&.&.&.&.&.&.&.&.&.&.&.&.&.y y &.&.&.&.&.&.&.&.&.&.&.&.&.&.&.&.&.&.&.&.&.&.&.&.&.&.&.",
"&.&.&.&.&.&.&.&.&.&.&.&.&.&.&.&.&.&.&.&.&.&.&.&.&.&.&.&.&.&.&.&.&.&.&.&.2 &.&.&.&.&.&.&.&.&.&.&.&.&.&.&.&.&.&.&.&.&.&.&.&.&.&.&.",
"&.&.&.&.&.&.&.&.&.&.&.&.&.&.&.&.&.&.&.&.&.&.&.&.&.&.&.&.&.&.&.&.&.&.&.&., &.&.&.&.&.&.&.&.&.&.&.&.&.&.&.&.&.&.&.&.&.&.&.&.&.&.&.",
"&.&.&.&.&.&.&.&.&.&.&.&.&.&.&.&.&.&.&.&.&.&.&.&.&.&.&.&.&.&.&.&.&.&.&.&.1 &.&.&.&.&.&.&.&.&.&.&.&.&.&.&.&.&.&.&.&.&.&.&.&.&.&.&.",
"&.&.&.&.&.&.&.&.&.&.&.&.&.&.&.&.&.&.&.&.&.&.&.&.&.&.&.&.&.&.&.&.&.&.&.&., &.&.&.&.&.&.&.&.&.&.&.&.&.&.&.&.&.&.&.&.&.&.&.&.&.&.&.",
"&.&.&.&.&.&.&.&.&.&.&.&.&.&.&.&.&.&.&.&.&.&.&.&.&.&.&.&.&.&.&.&.&.&.&.&.; &.&.&.&.&.&.&.&.&.&.&.&.&.&.&.&.&.&.&.&.&.&.&.&.&.&.&.",
"&.&.&.&.&.&.&.&.&.&.&.&.&.&.&.&.&.&.&.&.&.&.&.&.&.&.&.&.&.&.&.&.&.&.&.&.; &.&.&.&.&.&.&.&.&.&.&.&.&.&.&.&.&.&.&.&.&.&.&.&.&.&.&.",
"&.&.&.&.&.&.&.&.&.&.&.&.&.&.&.&.&.&.&.&.&.&.&.&.&.&.&.&.&.&.&.&.&.&.&.&.; &.&.&.&.&.&.&.&.&.&.&.&.&.&.&.&.&.&.&.&.&.&.&.&.&.&.&.",
"&.&.&.&.&.&.&.&.&.&.&.&.&.&.&.&.&.&.&.&.&.&.&.&.&.&.&.&.&.&.&.&.&.&.&.&.; &.&.&.&.&.&.&.&.&.&.&.&.&.&.&.&.&.&.&.&.&.&.&.&.&.&.&.",
"&.&.&.&.&.&.&.&.&.&.&.&.&.&.&.&.&.&.&.&.&.&.&.&.&.&.&.&.&.&.&.&.&.&.&.&.= &.&.&.&.&.&.&.&.&.&.&.&.&.&.&.&.&.&.&.&.&.&.&.&.&.&.&.",
"&.&.&.&.&.&.&.&.&.&.&.&.&.&.&.&.&.&.&.&.&.&.&.&.&.&.&.&.&.&.&.&.&.&.&.&.* &.&.&.&.&.&.&.&.&.&.&.&.&.&.&.&.&.&.&.&.&.&.&.&.&.&.&.",
"&.&.&.&.&.&.&.&.&.&.&.&.&.&.&.&.&.&.&.&.&.&.&.&.&.&.&.&.&.&.&.&.&.&.&.&.o &.&.&.&.&.&.&.&.&.&.&.&.&.&.&.&.&.&.&.&.&.&.&.&.&.&.&.",
"&.&.&.&.&.&.&.&.&.&.&.&.&.&.&.&.&.&.&.&.&.&.&.&.&.&.&.&.&.&.&.i h p 2 &.X &.&.&.&.&.&.&.&.&.&.&.&.&.&.&.&.&.&.&.&.&.&.&.&.&.&.&.",
"&.&.&.&.&.&.&.&.&.&.&.&.&.&.&.&.&.&.&.&.&.&.&.&.&.&.&.&.&.&.&.$.%...y &.X &.&.&.&.&.&.&.&.&.&.&.&.&.&.&.&.&.&.&.&.&.&.&.&.&.&.&.",
"&.&.&.&.&.&.&.&.&.&.&.&.&.&.&.&.&.&.&.&.&.&.&.&.&.&.&.&.&.&.&.y s d 2 < X &.&.&.&.&.&.&.&.&.&.&.&.&.&.&.&.&.&.&.&.&.&.&.&.&.&.&.",
"&.&.&.&.&.&.&.&.&.&.&.&.&.&.&.&.&.&.&.&.&.&.&.&.&.&.&.&.&.&.&.1 y u < o X &.&.&.&.&.&.&.&.&.&.&.&.&.&.&.&.&.&.&.&.&.&.&.&.&.&.&.",
"&.&.&.&.&.&.&.&.&.&.&.&.&.&.&.&.&.&.&.&.&.&.&.&.&.&.&.&.&.&.&.1 2 < - ; X &.&.&.&.&.&.&.&.&.&.&.&.&.&.&.&.&.&.&.&.&.&.&.&.&.&.&.",
"&.&.&.&.&.&.&.&.&.&.&.&.&.&.&.&.&.&.&.&.&.&.&.&.&.&.&.&.&.&.&.q 0 7 7 ; , * &.&.&.&.&.&.&.&.&.&.&.&.&.&.&.&.&.&.&.&.&.&.&.&.&.&.",
"&.&.&.&.&.&.&.&.&.&.&.&.&.&.&.&.&.&.&.&.&.&.&.&.&.&.&.&.&.&.+./ M k j e 0 2 ; &.&.&.&.&.&.&.&.&.&.&.&.&.&.&.&.&.&.&.&.&.&.&.&.&.",
"&.&.&.&.&.&.&.&.&.&.&.&.&.&.&.&.&.&.&.&.&.&.&.&.&.&.X.X.+.| | | ( Q C l V u y y &.&.&.&.&.&.&.&.&.&.&.&.&.&.&.&.&.&.&.&.&.&.&.&.",
"&.&.&.&.&.&.&.&.&.&.&.&.&.&.&.&.&.&.&.&.&.&.&.&.&.&.' { { { | / W W T T #.@.a u u < &.&.&.&.&.&.&.&.&.&.&.&.&.&.&.&.&.&.&.&.&.&.",
"&.&.&.&.&.&.&.&.&.&.&.&.&.&.&.&.&.&.&.&.&.&.&.&.&.K H H H ! ! ! Z B B N f a a a u 2 &.&.&.&.&.&.&.&.&.&.&.&.&.&.&.&.&.&.&.&.&.&.",
"&.&.&.&.&.&.&.&.&.&.&.&.&.&.&.&.&.&.&.&.&.&.&.&.&.A g t c c N c b b b t 2 y y u 2 2 , &.&.&.&.&.&.&.&.&.&.&.&.&.&.&.&.&.&.&.&.&.",
"&.&.&.&.&.&.&.&.&.&.&.&.&.&.&.&.&.&.&.&.&.&.&.&.&.&.8 5 r t t k x k e w 7 ; ; < < < 7 &.&.&.&.&.&.&.&.&.&.&.&.&.&.&.&.&.&.&.&.&.",
"*.*.*.*.*.*.*.*.*.*.*.*.*.*.*.*.*.*.*.*.*.*.*.*.*.*.*.*.8 9 w r w w w 6 5 $ * - 7 w e &.&.&.&.&.&.&.&.&.&.&.&.&.&.&.&.&.&.&.&.&.",
"*.*.*.*.*.*.*.*.*.*.*.*.*.*.*.*.*.*.*.*.*.*.*.*.*.*.*.*.*.7 9 8 9 5 5 5 3 @ O + 5 5 &.&.&.&.&.&.&.&.&.&.&.&.&.&.&.&.&.&.&.&.&.&.",
"*.*.*.*.*.*.*.*.*.*.*.*.*.*.*.*.*.*.*.*.*.*.*.*.*.*.*.*.*.> q q 5 5 5 3 $ + + &.&.&.&.&.&.&.&.&.&.&.&.&.&.&.&.&.&.&.&.&.&.&.&.&.",
"*.*.*.*.*.*.*.*.*.*.*.*.*.*.*.*.*.*.*.*.*.*.*.*.*.*.*.*.% % : & 7 7 $ # @ + @ &.&.&.&.&.&.&.&.&.&.&.&.&.&.&.&.&.&.&.&.&.&.&.&.&.",
"*.*.*.*.*.*.*.*.*.*.*.*.*.*.*.*.*.*.*.*.*.*.*.*.*.*.*.*.& % % # # # + O + + @ &.&.&.&.&.&.&.&.&.&.&.&.&.&.&.&.&.&.&.&.&.&.&.&.&.",
"*.*.*.*.*.*.*.*.*.*.*.*.*.*.*.*.*.*.*.*.*.*.*.*.*.*.*.> > & # + O @ + O + + $ &.&.&.&.&.&.&.&.&.&.&.&.&.&.&.&.&.&.&.&.&.&.&.&.&.",
"*.*.*.*.*.*.*.*.*.*.*.*.*.*.*.*.*.*.*.*.*.*.*.*.*.*.*.> 7 & % $ + O O O O @ O &.&.&.&.&.&.&.&.&.&.&.&.&.&.&.&.&.&.&.&.&.&.&.&.&.",
"*.*.*.*.*.*.*.*.*.*.*.*.*.*.*.*.*.*.*.*.*.*.*.*.*.*.*.> & & & $ + O O + @ O &.&.&.&.&.&.&.&.&.&.&.&.&.&.&.&.&.&.&.&.&.&.&.&.&.&.",
"*.*.*.*.*.*.*.*.*.*.*.*.*.*.*.*.*.*.*.*.*.*.*.*.&.&.&.&.: & & @ O @ O O O . &.&.&.&.&.&.&.&.&.&.&.&.&.&.&.&.&.&.&.&.&.&.&.&.&.&.",
"*.*.*.*.*.*.*.*.*.*.*.*.*.*.*.*.*.*.*.*.*.*.*.*.&.&.&.&.r & # + + O O + O O &.&.&.&.&.&.&.&.&.&.&.&.&.&.&.&.&.&.&.&.&.&.&.&.&.&.",
"*.*.*.*.*.*.*.*.*.*.*.*.*.*.*.*.*.*.*.*.*.*.*.*.&.&.&.&.A 8 $ O + + O & # O &.&.&.&.&.&.&.&.&.&.&.&.&.&.&.&.&.&.&.&.&.&.&.&.&.&.",
"*.*.*.*.*.*.*.*.*.*.*.*.*.*.*.*.*.*.*.*.*.*.*.*.&.&.&.&.A t 4 3 &.&.&.& $ O &.&.&.&.&.&.&.&.&.&.&.&.&.&.&.&.&.&.&.&.&.&.&.&.&.&.",
"*.*.*.*.*.*.*.*.*.*.*.*.*.*.*.*.*.*.*.*.*.*.*.*.&.&.&.&.A z e *.&.&.&.&.+ &.&.    &.&.&.&.&.&.&.&.&.&.&.&.&.&.&.&.&.&.&.&.&.&.&.",
"*.*.*.*.*.*.*.*.*.*.*.*.*.*.*.*.*.*.*.*.*.*.*.*.&.&.&.&.F N e *.&.&.&.&.&.&.&.&.    &.&.&.&.&.&.&.&.&.&.&.&.&.&.&.&.&.&.&.&.&.&.",
"*.*.*.*.*.*.*.*.*.*.*.*.*.*.*.*.*.*.*.*.*.*.*.*.&.&.&.&.P S e *.&.&.&.&.&.&.&.&.      &.&.    &.&.&.&.&.&.&.&.&.&.&.&.&.&.&.&.&.",
"*.*.*.*.*.*.*.*.*.*.*.*.*.*.*.*.*.*.*.*.*.*.*.*.&.&.&.&.' ! k &.&.&.&.&.&.&.&.&.&.&.&.&.&.&.&.&.&.&.&.&.&.&.&.&.&.&.&.&.&.&.&.&.",
"*.*.*.*.*.*.*.*.*.*.*.*.*.*.*.*.&.&.&.&.&.&.&.&.&.&.&.&.' W k &.&.&.&.&.&.&.&.&.&.&.&.&.&.&.&.&.&.&.&.          &.&.&.&.&.&.&.&.",
"*.*.*.*.*.*.*.*.*.*.*.*.*.*.*.*.&.&.&.&.&.&.&.&.&.&.&.&.' Q k &.&.&.&.&.&.&.&.&.&.&.&.&.&.&.&.&.&.&.                    &.&.&.&.",
"*.*.*.*.*.*.*.*.*.*.*.*.*.*.*.*.&.&.&.&.&.&.&.&.&.&.&.D G Y k &.&.&.&.&.&.&.&.&.&.&.&.&.&.&.&.&.&.                      &.&.&.&.",
"*.*.*.*.*.*.*.*.*.*.*.*.*.*.*.*.&.&.&.&.&.&.&.&.&.&.&.: 8 w 4 O &.&.&.&.&.&.&.&.&.&.&.&.&.&.&.                &.&.&.&.&.  &.&.&.",
"*.*.*.*.*.*.*.*.*.*.*.*.*.*.*.*.&.&.&.&.&.&.&.&.&.&.&.% & & + O &.&.&.&.&.&.&.&.&.&.&.&.&.          &.  &.&.&.&.&.&.&.&.&.&.&.&.",
"*.*.*.*.*.*.*.*.*.*.*.*.*.*.*.*.&.&.&.&.&.&.&.&.&.&.&.&.& 4 @ &.&.&.&.&.&.&.&.&.&.&.&.&.      &.&.&.&.&.&.&.&.&.&.&.&.&.&.&.&.&.",
"*.*.*.*.*.*.*.*.*.*.*.*.*.*.*.*.&.&.&.&.&.&.&.&.&.&.&.&.7 4 @ &.&.&.&.&.&.&.&.&.&.&.&.&.&.&.&.&.&.&.&.&.&.&.&.&.&.&.&.&.&.&.&.&.",
"*.*.*.*.*.*.*.*.*.*.*.*.*.*.*.*.&.&.&.&.&.&.&.&.&.&.&.&.& & + &.&.&.&.&.&.&.&.&.&.&.&.&.&.&.&.&.&.&.&.&.&.&.&.&.&.&.&.&.&.&.&.&.",
"*.*.*.*.*.*.*.*.*.*.*.*.*.*.*.*.&.&.&.&.&.&.&.&.&.&.&.&.7 7 &.&.&.&.&.&.&.  &.&.&.&.&.&.&.&.&.&.&.&.&.&.&.&.&.&.&.&.&.&.&.&.&.&.",
"*.*.*.*.*.*.*.*.*.*.*.*.*.*.*.*.&.&.&.&.&.&.&.&.&.&.&.&.: 7 $ &.&.&.&.&.  &.&.&.&.&.&.&.&.&.&.&.&.&.&.&.&.&.&.&.&.&.&.&.&.&.&.&.",
"*.*.*.*.*.*.*.*.*.*.*.*.*.*.*.*.&.&.&.&.&.&.&.&.&.&.&.&.& 7 $ &.&.&.&.    &.&.&.&.&.&.&.&.&.&.&.&.&.&.&.&.&.&.&.&.&.&.&.&.&.&.&.",
"*.*.*.*.*.*.*.*.*.*.*.*.*.*.*.*.&.&.&.&.&.&.&.&.&.&.&.&.&.# . &.&.&.  &.&.&.&.&.&.&.&.&.&.&.&.&.&.&.&.&.&.&.&.&.&.&.&.&.&.&.&.&.",
"*.*.*.*.*.*.*.*.*.*.*.*.*.*.*.*.&.&.&.&.&.&.&.&.&.&.&.&.&.&.        &.&.&.&.&.&.&.&.&.&.&.&.&.&.&.&.&.&.&.&.&.&.&.&.&.&.&.&.&.&.",
"*.*.*.*.*.*.*.*.*.*.*.*.*.*.*.*.&.&.&.&.&.&.&.&.&.&.&.&.&.&.&.      &.&.&.&.&.&.&.&.&.&.&.&.&.&.&.&.&.&.&.&.&.&.&.&.&.&.&.&.&.&.",
"*.*.*.*.*.*.*.*.*.*.*.*.*.*.*.*.&.&.&.&.&.&.&.&.&.&.&.&.&.&.&.&.&.&.&.&.&.&.&.&.&.&.&.&.&.&.&.&.&.&.&.&.&.&.&.&.&.&.&.&.&.&.&.&.",
"*.*.*.*.*.*.*.*.*.*.*.*.*.*.*.*.&.&.&.&.&.&.&.&.&.&.&.&.&.&.&.&.&.&.&.&.&.&.&.&.&.&.&.&.&.&.&.&.&.&.&.&.&.&.&.&.&.&.&.&.&.&.&.&."
};
