/* XPM */
static char * player_est9_xpm[] = {
"64 64 92 2",
"  	c None",
". 	c #010000",
"+ 	c #010101",
"@ 	c #020100",
"# 	c #090504",
"$ 	c #000000",
"% 	c #030202",
"& 	c #000000",
"* 	c #000000",
"= 	c #47704C",
"- 	c #000000",
"; 	c #040202",
"> 	c #080707",
", 	c #000000",
"' 	c #080404",
") 	c #010101",
"! 	c #060404",
"~ 	c #0D0909",
"{ 	c #020000",
"] 	c #010000",
"^ 	c #000000",
"/ 	c #010000",
"( 	c #0A0705",
"_ 	c #050404",
": 	c #040202",
"< 	c #040304",
"[ 	c #170E0C",
"} 	c #010001",
"| 	c #010101",
"1 	c #040303",
"2 	c #020101",
"3 	c #010101",
"4 	c #0B0604",
"5 	c #0E0907",
"6 	c #040405",
"7 	c #070403",
"8 	c #010000",
"9 	c #341811",
"0 	c #0D0706",
"a 	c #130C0D",
"b 	c #2B1D1A",
"c 	c #351E19",
"d 	c #110806",
"e 	c #050302",
"f 	c #000000",
"g 	c #070607",
"h 	c #53382D",
"i 	c #180E0C",
"j 	c #150908",
"k 	c #0D0B0D",
"l 	c #1D1A1E",
"m 	c #2A1C19",
"n 	c #150806",
"o 	c #100A0B",
"p 	c #1A1413",
"q 	c #2F1912",
"r 	c #1D0F0C",
"s 	c #2A1A17",
"t 	c #1B1B20",
"u 	c #544034",
"v 	c #441F15",
"w 	c #533A2F",
"x 	c #321810",
"y 	c #411E15",
"z 	c #2A313A",
"A 	c #472F25",
"B 	c #2C1D19",
"C 	c #040101",
"D 	c #241714",
"E 	c #150908",
"F 	c #492B22",
"G 	c #371F1C",
"H 	c #45383A",
"I 	c #543C30",
"J 	c #2C333D",
"K 	c #574135",
"L 	c #451E14",
"M 	c #321810",
"N 	c #18100F",
"O 	c #1A0A07",
"P 	c #231E23",
"Q 	c #2B130E",
"R 	c #431E15",
"S 	c #3C1B13",
"T 	c #1A1619",
"U 	c #2C272E",
"V 	c #3F2119",
"W 	c #422923",
"X 	c #47302B",
"Y 	c #56677C",
"Z 	c #5E353D",
"` 	c #404C5C",
"                                                                                                                                ",
"                                                                                                                                ",
"                                                                                                                                ",
"                                                                                                                                ",
"                                                                                                                                ",
"                                                                                                                                ",
"                                                                                                                                ",
"                                                                                                                                ",
"                                                                                                                                ",
"                                                                                                                                ",
"                                                                                                                                ",
"                                                                                  l                                             ",
"                                                                                a P                                             ",
"                                                                                m t                                             ",
"                                                                                l l                                             ",
"                                                                                t o                                             ",
"                                                              J z U l           p [                                             ",
"                                                              z ` X P l       D T                                               ",
"                                                            l P P P T p       a k                                               ",
"                                                          F P T T T N k       o k                                               ",
"                                                          w X T T N j E       i i                                               ",
"                                                          h h W Q Q m         k o                                               ",
"                                                        I h h h R S v         k [                                               ",
"                                                        w h h X V S R L     } 0                                                 ",
"                                                        H X U U U c S R     a 0                                                 ",
"                                                        m U ` U U P c 9 p o d k                                                 ",
"                                                        m Y Y Z W P P Q N N 0 i                                                 ",
"                                                        z Y H Z P P 9 i j N 0 k [                                               ",
"                                                        t U U U P 9 9   a P T k [                                               ",
"                                                        t P P P B Q Q a a N O d                                                 ",
"                                                        l P P P Q Q O O j O O n                                                 ",
"                                                        i B c S Q O N c T O n                                                   ",
"                                                        N B V V 9 S 9 T N O E                                                   ",
"                                                      [ T T c V R R 9 N O O q                                                   ",
"                                                        p N r Q 9 9 O O O Q R v                                                 ",
"                                                          p N N O N O O O S R R v F                                             ",
"                                                          q N N N r i i Q 9 S R R R y                                           ",
"                                                    I w h W Q i [       [ q c S S R v                                           ",
"                                                D w h X W c m                 D M S R y                                         ",
"                                              [ B W W V m                         9 S y                                         ",
"                                            [ p N Q q [                         m 9 S                                           ",
"                                          [ r N i [                             c V S                                           ",
"                                        m r j [                               [ c c Q n                                         ",
"                                      [ r O d                                   j Q O o                                         ",
"                                        o j O E                               8 j 0 0 [                                         ",
"                                            i d [         8 } , ] ] } /     8 ] d 0 j , 8 , / ] } /   / 8   / } 8 8             ",
"                                              n n 8       /   /                 n 0 j a , , ] , ] , , } } , / , } }             ",
"                                                                                i O O r n o [ ] } ] , , ] , , } } / / 8         ",
"                                                                                [ d j r O O d C ] ] ] , , ] , , , } 8           ",
"                                                                                      / a i i ] , / ] ] , , , } /               ",
"                                                                                          C C , ] } , , } /                     ",
"                                                                                          8 8 / / /                             ",
"                                                                                                                                ",
"                                                                                                                                ",
"                                                                                                                                ",
"                                                                                                                                ",
"                                                                                                                                ",
"                                                                                                                                ",
"                                                                                                                                ",
"                                                                                                                                ",
"                                                                                                                                ",
"                                                                                                                                ",
"                                                                                                                                ",
"                                                                                                                                "};
