/* XPM */
static char * player_gauche2_xpm[] = {
"64 64 618 2",
"  	c None",
". 	c #35581B",
"+ 	c #3F5D21",
"@ 	c #436125",
"# 	c #425D26",
"$ 	c #4D5524",
"% 	c #5A5629",
"& 	c #897A51",
"* 	c #B0A178",
"= 	c #65592F",
"- 	c #5F6231",
"; 	c #2D3F08",
"> 	c #052600",
", 	c #345A1D",
"' 	c #172C00",
") 	c #525624",
"! 	c #B7A67B",
"~ 	c #94744E",
"{ 	c #58300D",
"] 	c #8B603E",
"^ 	c #532C0B",
"/ 	c #A98D68",
"( 	c #B2AA7C",
"_ 	c #1F2B00",
": 	c #001A00",
"< 	c #324909",
"[ 	c #94985E",
"} 	c #463C07",
"| 	c #513408",
"1 	c #9B7149",
"2 	c #BD8B66",
"3 	c #6B3511",
"4 	c #A3714E",
"5 	c #633C15",
"6 	c #947F54",
"7 	c #515321",
"8 	c #0F3000",
"9 	c #2E4A05",
"0 	c #DFE0A4",
"a 	c #92874F",
"b 	c #5A430F",
"c 	c #664013",
"d 	c #805127",
"e 	c #A46D46",
"f 	c #672D07",
"g 	c #CC9471",
"h 	c #C79771",
"i 	c #54330A",
"j 	c #291E00",
"k 	c #0B2100",
"l 	c #7C8045",
"m 	c #7F6937",
"n 	c #5D410F",
"o 	c #BD9969",
"p 	c #BB8E64",
"q 	c #9B6A41",
"r 	c #AA754D",
"s 	c #A46A44",
"t 	c #682C0A",
"u 	c #AF7754",
"v 	c #5D2F0B",
"w 	c #AD946B",
"x 	c #AAAD7B",
"y 	c #001B00",
"z 	c #315510",
"A 	c #ECE0AE",
"B 	c #58350B",
"C 	c #FFD8AF",
"D 	c #9C7248",
"E 	c #ECC099",
"F 	c #663912",
"G 	c #CD9D77",
"H 	c #C2906B",
"I 	c #622A09",
"J 	c #61280A",
"K 	c #6A3516",
"L 	c #603918",
"M 	c #52461E",
"N 	c #000F00",
"O 	c #CCE4A6",
"P 	c #88754B",
"Q 	c #3A1100",
"R 	c #F3CAAA",
"S 	c #6B4423",
"T 	c #A68461",
"U 	c #E9C8A5",
"V 	c #613F1C",
"W 	c #593211",
"X 	c #AA785D",
"Y 	c #CF9981",
"Z 	c #3D0400",
"` 	c #BA8C75",
" .	c #B69C81",
"..	c #272703",
"+.	c #000D00",
"@.	c #345212",
"#.	c #290700",
"$.	c #CCA78D",
"%.	c #320E00",
"&.	c #250600",
"*.	c #694B2F",
"=.	c #F0D2B6",
"-.	c #F6D2B8",
";.	c #340500",
">.	c #A16E5D",
",.	c #6B3628",
"'.	c #5C2C1E",
").	c #937460",
"!.	c #4B4428",
"~.	c #001300",
"{.	c #354514",
"].	c #231800",
"^.	c #250900",
"/.	c #250100",
"(.	c #785947",
"_.	c #3D1C0B",
":.	c #613C29",
"<.	c #BE9382",
"[.	c #3E0D00",
"}.	c #360400",
"|.	c #572723",
"1.	c #431A14",
"2.	c #503428",
"3.	c #433D22",
"4.	c #0A2700",
"5.	c #31581A",
"6.	c #3C461B",
"7.	c #1F0F00",
"8.	c #1A0000",
"9.	c #210100",
"0.	c #774F43",
"a.	c #7C5043",
"b.	c #3B0C02",
"c.	c #9A6D67",
"d.	c #220000",
"e.	c #2A0B06",
"f.	c #50382E",
"g.	c #161100",
"h.	c #274709",
"i.	c #070800",
"j.	c #EFDBC3",
"k.	c #180000",
"l.	c #CCAAA1",
"m.	c #2F0900",
"n.	c #643C30",
"o.	c #D7B7A8",
"p.	c #1F0500",
"q.	c #160000",
"r.	c #140000",
"s.	c #1C1704",
"t.	c #2A3D1F",
"u.	c #001700",
"v.	c #112300",
"w.	c #EDE7C5",
"x.	c #917C67",
"y.	c #FBDECE",
"z.	c #361506",
"A.	c #967566",
"B.	c #2B1000",
"C.	c #260F00",
"D.	c #0E0000",
"E.	c #0D0000",
"F.	c #1B0A00",
"G.	c #231D0F",
"H.	c #323E26",
"I.	c #001F00",
"J.	c #DDFFC0",
"K.	c #E6EEBD",
"L.	c #F0E6C2",
"M.	c #F7E2C5",
"N.	c #BDA58D",
"O.	c #967D69",
"P.	c #220F00",
"Q.	c #1C0C00",
"R.	c #160700",
"S.	c #0C0000",
"T.	c #443530",
"U.	c #3D352A",
"V.	c #010900",
"W.	c #001400",
"X.	c #002000",
"Y.	c #E1F4BD",
"Z.	c #F5F6CA",
"`.	c #F2E5C3",
" +	c #CDBEA1",
".+	c #100000",
"++	c #100300",
"@+	c #C6BAAE",
"#+	c #FFF2EA",
"$+	c #C9BCB6",
"%+	c #978881",
"&+	c #A0988B",
"*+	c #333822",
"=+	c #ABC49D",
"-+	c #2B4912",
";+	c #E8F0C7",
">+	c #AEAB8C",
",+	c #8C856B",
"'+	c #110600",
")+	c #FFFAE6",
"!+	c #E5DAC8",
"~+	c #FFF9EA",
"{+	c #FCECDF",
"]+	c #F7E9DC",
"^+	c #D1CABA",
"/+	c #0D1500",
"(+	c #24581E",
"_+	c #325620",
":+	c #000800",
"<+	c #24240A",
"[+	c #060100",
"}+	c #A09987",
"|+	c #EDE5D2",
"1+	c #FFFDE9",
"2+	c #EEDDC9",
"3+	c #FFEFDB",
"4+	c #FFF2DF",
"5+	c #AEA794",
"6+	c #000400",
"7+	c #021B00",
"8+	c #426330",
"9+	c #556040",
"0+	c #0D0A00",
"a+	c #060000",
"b+	c #0E0800",
"c+	c #F4EDDB",
"d+	c #0A0000",
"e+	c #FFFCE5",
"f+	c #F9E7CF",
"g+	c #FFF4DA",
"h+	c #FAF4DC",
"i+	c #A0A58E",
"j+	c #041C00",
"k+	c #547445",
"l+	c #E8EED2",
"m+	c #070100",
"n+	c #8A8478",
"o+	c #B3AD9F",
"p+	c #F0E7D6",
"q+	c #FFF9E0",
"r+	c #F3E7CD",
"s+	c #BCB89B",
"t+	c #0E1200",
"u+	c #354B27",
"v+	c #4C6B3A",
"w+	c #F5F8DB",
"x+	c #0E0200",
"y+	c #0D0400",
"z+	c #FFFEF5",
"A+	c #B0ACA3",
"B+	c #E4DDD3",
"C+	c #ADA08D",
"D+	c #BAB399",
"E+	c #888469",
"F+	c #A5A88B",
"G+	c #B1C2A0",
"H+	c #002400",
"I+	c #001E00",
"J+	c #010400",
"K+	c #0F0600",
"L+	c #645D57",
"M+	c #ECE8E5",
"N+	c #010000",
"O+	c #0B0700",
"P+	c #5F5345",
"Q+	c #625544",
"R+	c #5B553F",
"S+	c #FEFCE5",
"T+	c #AAAC97",
"U+	c #A1AF96",
"V+	c #001100",
"W+	c #395E2B",
"X+	c #BDC5AD",
"Y+	c #040000",
"Z+	c #F1EFF0",
"`+	c #57585A",
" @	c #070803",
".@	c #030100",
"+@	c #BEB1A1",
"@@	c #FFFAE7",
"#@	c #EDE6D3",
"$@	c #B3B1A2",
"%@	c #000100",
"&@	c #020E04",
"*@	c #001600",
"=@	c #1A471C",
"-@	c #000B00",
";@	c #070D03",
">@	c #575D5D",
",@	c #A6AEB1",
"'@	c #AAACAB",
")@	c #69574D",
"!@	c #B5A395",
"~@	c #A79F92",
"{@	c #060700",
"]@	c #01060A",
"^@	c #2C3838",
"/@	c #263B28",
"(@	c #001C00",
"_@	c #2D4E22",
":@	c #000F06",
"<@	c #4D5B5C",
"[@	c #808388",
"}@	c #10050B",
"|@	c #9D8386",
"1@	c #170000",
"2@	c #150A08",
"3@	c #3E4851",
"4@	c #8C9B9E",
"5@	c #354538",
"6@	c #001200",
"7@	c #001000",
"8@	c #9CB2A6",
"9@	c #000502",
"0@	c #55595C",
"a@	c #342B30",
"b@	c #1B0508",
"c@	c #1E080B",
"d@	c #080001",
"e@	c #44454A",
"f@	c #4D5A62",
"g@	c #2D3F41",
"h@	c #93A096",
"i@	c #000C00",
"j@	c #002500",
"k@	c #001900",
"l@	c #808C82",
"m@	c #000200",
"n@	c #F8FBF2",
"o@	c #505247",
"p@	c #080300",
"q@	c #090100",
"r@	c #070105",
"s@	c #010006",
"t@	c #313B3C",
"u@	c #82918C",
"v@	c #8A958D",
"w@	c #090803",
"x@	c #F0F4E6",
"y@	c #F7FBEC",
"z@	c #EFF1E4",
"A@	c #F6F5F0",
"B@	c #6A686D",
"C@	c #888E8C",
"D@	c #707B73",
"E@	c #717B73",
"F@	c #000900",
"G@	c #002200",
"H@	c #91A98F",
"I@	c #373D33",
"J@	c #030000",
"K@	c #070700",
"L@	c #E4E5D7",
"M@	c #0F0D01",
"N@	c #0E0307",
"O@	c #716B6F",
"P@	c #BDC4BD",
"Q@	c #000300",
"R@	c #000F02",
"S@	c #000600",
"T@	c #090601",
"U@	c #EAE7DE",
"V@	c #0A0800",
"W@	c #070300",
"X@	c #0C0200",
"Y@	c #110507",
"Z@	c #F1F2ED",
"`@	c #7A7F78",
" #	c #8C8E8B",
".#	c #0B180E",
"+#	c #5D6357",
"@#	c #ACA9A2",
"##	c #050100",
"$#	c #0C0500",
"%#	c #8D847D",
"&#	c #170C0A",
"*#	c #FCF0F0",
"=#	c #0E0B06",
"-#	c #040500",
";#	c #020200",
">#	c #0D1807",
",#	c #060800",
"'#	c #0E0B02",
")#	c #0A0300",
"!#	c #090000",
"~#	c #110302",
"{#	c #120404",
"]#	c #EEE9E3",
"^#	c #A6A5A0",
"/#	c #868485",
"(#	c #022006",
"_#	c #001800",
":#	c #CADEC5",
"<#	c #010100",
"[#	c #706963",
"}#	c #0D0101",
"|#	c #928386",
"1#	c #685E5D",
"2#	c #120F0A",
"3#	c #070601",
"4#	c #0C0809",
"5#	c #020703",
"6#	c #A1BF9D",
"7#	c #080B00",
"8#	c #9E9296",
"9#	c #070000",
"0#	c #6A6162",
"a#	c #706D68",
"b#	c #605F5B",
"c#	c #030002",
"d#	c #060B07",
"e#	c #001500",
"f#	c #010C00",
"g#	c #0A0406",
"h#	c #080004",
"i#	c #080204",
"j#	c #040402",
"k#	c #61615F",
"l#	c #010801",
"m#	c #6B876E",
"n#	c #000A00",
"o#	c #030500",
"p#	c #858084",
"q#	c #040004",
"r#	c #CAC6C7",
"s#	c #B2B1AF",
"t#	c #D2D2D0",
"u#	c #050503",
"v#	c #434142",
"w#	c #838D84",
"x#	c #708F72",
"y#	c #002C00",
"z#	c #090408",
"A#	c #494249",
"B#	c #3F403B",
"C#	c #545550",
"D#	c #797977",
"E#	c #7F8B7F",
"F#	c #091009",
"G#	c #4D4946",
"H#	c #9F9E99",
"I#	c #858680",
"J#	c #8C8F88",
"K#	c #9EAF9D",
"L#	c #0E080A",
"M#	c #483D41",
"N#	c #9E9993",
"O#	c #8D897E",
"P#	c #8E8A81",
"Q#	c #F3F0E7",
"R#	c #E8EBE2",
"S#	c #020500",
"T#	c #A69D94",
"U#	c #B1AB9D",
"V#	c #AEA69B",
"W#	c #F4F0E4",
"X#	c #050B00",
"Y#	c #0D0E06",
"Z#	c #433333",
"`#	c #70665A",
" $	c #080000",
".$	c #FBEFDF",
"+$	c #0B0500",
"@$	c #000500",
"#$	c #0B0000",
"$$	c #120000",
"%$	c #796B5E",
"&$	c #4D3D2D",
"*$	c #53402F",
"=$	c #4A3F2D",
"-$	c #0B1000",
";$	c #414D35",
">$	c #0D0700",
",$	c #76685F",
"'$	c #6C5A4E",
")$	c #826C5E",
"!$	c #573A2A",
"~$	c #1E0900",
"{$	c #4D4D35",
"]$	c #000700",
"^$	c #423F30",
"/$	c #140600",
"($	c #5B493D",
"_$	c #6F584A",
":$	c #846455",
"<$	c #4E3521",
"[$	c #46402A",
"}$	c #0B3206",
"|$	c #1A290E",
"1$	c #383627",
"2$	c #140300",
"3$	c #766055",
"4$	c #6B4F43",
"5$	c #543A2B",
"6$	c #140900",
"7$	c #0B0200",
"8$	c #44312A",
"9$	c #1D0500",
"0$	c #1A0200",
"a$	c #857566",
"b$	c #020400",
"c$	c #000E00",
"d$	c #204C1E",
"e$	c #060A00",
"f$	c #160F07",
"g$	c #0C0300",
"h$	c #746059",
"i$	c #7F6B62",
"j$	c #918A7A",
"k$	c #364D30",
"l$	c #3B3632",
"m$	c #716863",
"n$	c #1A0500",
"o$	c #150000",
"p$	c #3C4832",
"q$	c #5F765A",
"r$	c #424A3D",
"s$	c #060501",
"t$	c #090502",
"u$	c #645F5C",
"v$	c #7F7170",
"w$	c #73615F",
"x$	c #876F6D",
"y$	c #6A5B54",
"z$	c #3D4633",
"A$	c #001D00",
"B$	c #275627",
"C$	c #465F41",
"D$	c #5B6356",
"E$	c #050601",
"F$	c #030200",
"G$	c #6F6564",
"H$	c #9B8B8B",
"I$	c #7D6565",
"J$	c #695A55",
"K$	c #3C4534",
"L$	c #1C471A",
"M$	c #021900",
"N$	c #040C00",
"O$	c #747472",
"P$	c #070302",
"Q$	c #867E7C",
"R$	c #978988",
"S$	c #957F81",
"T$	c #6E605D",
"U$	c #3F4B3A",
"V$	c #6B7167",
"W$	c #050402",
"X$	c #0A0605",
"Y$	c #413936",
"Z$	c #4F413E",
"`$	c #54403F",
" %	c #3A2F2B",
".%	c #011400",
"+%	c #080705",
"@%	c #0D0908",
"#%	c #5E5956",
"$%	c #0E0100",
"%%	c #0B0400",
"&%	c #687764",
"*%	c #183D16",
"=%	c #020300",
"-%	c #7A736D",
";%	c #6D635A",
">%	c #7A6D64",
",%	c #897871",
"'%	c #625B51",
")%	c #30512C",
"!%	c #010E00",
"~%	c #100806",
"{%	c #685F58",
"]%	c #0F0300",
"^%	c #79685E",
"/%	c #806F67",
"(%	c #898377",
"_%	c #566850",
":%	c #002100",
"<%	c #002600",
"[%	c #52714F",
"}%	c #515C4B",
"|%	c #706B65",
"1%	c #0E0300",
"2%	c #7F756C",
"3%	c #A29285",
"4%	c #130100",
"5%	c #857D70",
"6%	c #002700",
"7%	c #2B4829",
"8%	c #495241",
"9%	c #39322C",
"0%	c #453A38",
"a%	c #1B0E08",
"b%	c #130600",
"c%	c #A08F7F",
"d%	c #AE9B8C",
"e%	c #A89489",
"f%	c #78886E",
"g%	c #0B0800",
"h%	c #1F0D00",
"i%	c #120100",
"j%	c #130300",
"k%	c #0D0B00",
"l%	c #021600",
"m%	c #0A0200",
"n%	c #75645D",
"o%	c #7A695F",
"p%	c #7E7862",
"q%	c #6F7957",
"r%	c #9DB195",
"s%	c #878F7A",
"t%	c #8E8C7F",
"u%	c #7A7967",
"v%	c #56613F",
"w%	c #526C3F",
"x%	c #002900",
"y%	c #33552D",
"z%	c #2B5220",
"A%	c #2D5F23",
"                                                                                                                                ",
"                                                                                                                                ",
"                                                  . + @                                                                         ",
"                                              # $ % & * = - ; >                                                                 ",
"                                          , ' ) ! ~ { ] ^ / ( _ :                                                               ",
"                                          < [ } | 1 2 3 4 5 6 7 8                                                               ",
"                                        9 0 a b c d e f g h i j k                                                               ",
"                                        l m n o p q r s t u v w x y                                                             ",
"                                      z A B C D E F G H I J K L M N                                                             ",
"                                      O P Q R S T U V W X Y Z `  ...+.                                                          ",
"                                      @.M #.$.%.&.*.=.-.;.>.,.'.).!.~.                                                          ",
"                                        {.].^./.(._.:.<.[.}.|.1.2.3.4.                                                          ",
"                                        5.6.7.8.9.8.0.a.b.c.d.e.f.g.                                                            ",
"                                          h.i.j.k.l.m.n.%.o.p.q.r.s.t.u.:                                                       ",
"                                            v.w.x.y.z.A.B.C.D.E.F.G.H.I.  I.                                                    ",
"                                            J.K.L.M.N.O.P.Q.R.S.T.U.V.W.X.                                                      ",
"                                              Y.Z.`. +.+++@+#+$+%+&+*+=+:                                                       ",
"                                              -+;+>+,+'+)+!+~+{+]+^+/++.(+                                                      ",
"                                              _+:+<+[+}+|+1+2+3+4+5+6+7+                                                        ",
"                                              8+9+0+a+b+c+d+e+f+g+h+i+j+                                                        ",
"                                              k+l+m+n+a+o+p+E.q+r+s+t+u+u.                                                      ",
"                                              v+w+x+y+z+A+B+++C+D+E+F+G+H+                                                      ",
"                                              I+J+K+L+M+N+O+P+Q+R+S+T+U+V+                                                      ",
"                                              W+X+Y+Z+`+ @.@+@@@#@$@%@&@*@=@                                                    ",
"                                              X.-@;@>@,@'@[+)@!@~@{@]@^@/@(@                                                    ",
"                                                _@:+:@<@[@}@|@1@2@%@3@4@5@6@                                                    ",
"                                                  7@8@9@0@a@b@c@d@e@f@g@h@i@j@                                                  ",
"                                                  k@l@m@n@o@p@q@r@s@t@u@v@N :                                                   ",
"                                                  N 6+w@x@y@z@A@r@B@C@D@E@F@G@                                                  ",
"                                                  H@I@J@K@L@M@Y+N@O@%@P@Q@R@7@                                                  ",
"                                                  i@S@T@U@V@W@X@Y@a+Z@`@ #.#k@                                                  ",
"                                                  N +#@###$#%#&#S.*#=#-#;#6+*@                                                  ",
"                                                  u.>#,#'#)#!#~#{#!#]#^#/#Q@(#                                                  ",
"                                                  _#:#6+<#[#}#d+|#1#2#3#4#5#i@                                                  ",
"                                                  (@6#V+7#J@!#8#9#0#a#b#c#d#e#                                                  ",
"                                                  H+  W.f#%@g#h#i#J@j#k#c#l#m#G@                                                ",
"                                                      k@n#o#p#q#r#s#t#u#v#w#x#y#                                                ",
"                                                        ~.m@z#A#J@N+B#C#D#E#y (@                                                ",
"                                                        +.F#c#a@G#H#N+I#J#K#e#                                                  ",
"                                                        ~.m@L#M#N#O#P#Q#R#-@                                                    ",
"                                                        ~.S#9#d+T#U#V#W#X#V+                                                    ",
"                                                        7@Y#!#Z#`# $.$+$@$:                                                     ",
"                                                        u.Q@#$$$%$&$*$=$-$N                                                     ",
"                                                        ~.;$>$,$'$)$!$~${$~.                                                    ",
"                                                          ]$^$/$($_$:$<$[$F@                                                    ",
"                                                        }$|$1$#$2$3$4$5$6$V.                                                    ",
"                                                          F@{@7$++8$9$0$a$b$c$                                                  ",
"                                                        d$c$e$f$g$R.h$r.i$j$N e#                                                ",
"                                                        G@k$6+J@l$m$E.n$o$S.p$:                                                 ",
"                                                        y q$r$s$t$u$v$w$x$y$z$A$                                                ",
"                                                        B$C$D$E$F$J@G$H$I$J$K$:                                                 ",
"                                                        L$M$N$%@O$P$Q$R$S$T$U$k@                                                ",
"                                                          6@V$u#W$X$Y$Z$`$ %-@y                                                 ",
"                                                          .%m@+%@%#%g$$%E.%%&%k@                                                ",
"                                                        *%c$=%Y+Y+-%;%>%,%'%n#                                                  ",
"                                                        )%!%;#~% ${%]%^%/%(%_%:%                                                ",
"                                                      <%[%}%|%9#1%2%3%4%.+5%+.(@                                                ",
"                                                      6%7%8%9%0%a%b%c%d%e%9#f%I.                                                ",
"                                                        :%i@N$g%!#d+h%i%j%k%i@                                                  ",
"                                                            y l%Q@m%n%o%p%q%7@                                                  ",
"                                                              W.r%s%t%u%v%w%6%                                                  ",
"                                                              x%H+y%i@(@z%A%                                                    ",
"                                                                                                                                ",
"                                                                                                                                "};
