/* XPM */
static char * bleu_dot_xpm[] = {
"32 32 286 2",
"  	c None",
". 	c #28666A",
"+ 	c #2F767A",
"@ 	c #2C8A8C",
"# 	c #299394",
"$ 	c #249698",
"% 	c #278E95",
"& 	c #2A8892",
"* 	c #2D7D88",
"= 	c #2E6973",
"- 	c #2B7779",
"; 	c #2C8586",
"> 	c #278F92",
", 	c #21A1A2",
"' 	c #1EA6A6",
") 	c #18A6A8",
"! 	c #1AA3A9",
"~ 	c #1E9FA5",
"{ 	c #249BA3",
"] 	c #2F8A91",
"^ 	c #2E787F",
"/ 	c #2D6168",
"( 	c #2E6871",
"_ 	c #238F8F",
": 	c #219D9D",
"< 	c #1CA8A9",
"[ 	c #19B7BA",
"} 	c #16BABC",
"| 	c #12BABD",
"1 	c #15B8BF",
"2 	c #19B6BF",
"3 	c #17AEB5",
"4 	c #23A0A4",
"5 	c #259396",
"6 	c #307E87",
"7 	c #2C626F",
"8 	c #2E7C84",
"9 	c #29969B",
"0 	c #15B3B4",
"a 	c #11C1BF",
"b 	c #0DC6C9",
"c 	c #11D2D9",
"d 	c #11D3DD",
"e 	c #11D1DE",
"f 	c #13CEDF",
"g 	c #13CDDC",
"h 	c #10CAD7",
"i 	c #13C2C7",
"j 	c #18B7BA",
"k 	c #21ABAE",
"l 	c #28808A",
"m 	c #2B6C76",
"n 	c #2C737C",
"o 	c #298E96",
"p 	c #21A6AB",
"q 	c #0EBDC0",
"r 	c #09C9CC",
"s 	c #07CED5",
"t 	c #0BDAE4",
"u 	c #0ED9E7",
"v 	c #0FD8E8",
"w 	c #11D6E9",
"x 	c #11D4E6",
"y 	c #0BD0E0",
"z 	c #0ACACF",
"A 	c #0EC1C5",
"B 	c #19B6BB",
"C 	c #20949E",
"D 	c #267C84",
"E 	c #2C868E",
"F 	c #239EA5",
"G 	c #19B2B8",
"H 	c #0CC7CE",
"I 	c #0BD1DA",
"J 	c #08D7E1",
"K 	c #0AE2ED",
"L 	c #0CE4F1",
"M 	c #0EE3F3",
"N 	c #10E2F3",
"O 	c #10DFEF",
"P 	c #0BDBE8",
"Q 	c #07D2D8",
"R 	c #12BFC5",
"S 	c #1BA1AA",
"T 	c #258B94",
"U 	c #2E6D74",
"V 	c #325D67",
"W 	c #269BA2",
"X 	c #18B0B5",
"Y 	c #0FC0C6",
"Z 	c #11D2E3",
"` 	c #13DCEE",
" .	c #0DE2F2",
"..	c #05EDF9",
"+.	c #00F1FC",
"@.	c #00F2FC",
"#.	c #01F2FD",
"$.	c #01EFF9",
"%.	c #04ECF6",
"&.	c #08E3E9",
"*.	c #0AD7DC",
"=.	c #10CBD2",
"-.	c #19B1BE",
";.	c #239FA9",
">.	c #32878C",
",.	c #366671",
"'.	c #28A4AC",
").	c #18B7BD",
"!.	c #0DC5CD",
"~.	c #0DD6E6",
"{.	c #0FDEEE",
"].	c #0DE6F5",
"^.	c #03EFFA",
"/.	c #00F4FD",
"(.	c #00F1F9",
"_.	c #01F0F7",
":.	c #08E7EE",
"<.	c #08DBE2",
"[.	c #0ECFD8",
"}.	c #15B5C1",
"|.	c #1FA5AE",
"1.	c #298F91",
"2.	c #356D78",
"3.	c #23A3AE",
"4.	c #18BBC4",
"5.	c #0CCCD1",
"6.	c #06DFE6",
"7.	c #08E7EF",
"8.	c #09E9F3",
"9.	c #05F2FA",
"0.	c #01F4FC",
"a.	c #00F4FC",
"b.	c #02F3FE",
"c.	c #03F1FD",
"d.	c #05EFFA",
"e.	c #08E8F2",
"f.	c #08DEE8",
"g.	c #0BD4DC",
"h.	c #12BFC6",
"i.	c #19B1B6",
"j.	c #1E9899",
"k.	c #33737B",
"l.	c #1DA6AE",
"m.	c #15BCC4",
"n.	c #0CCDD4",
"o.	c #0BE0E8",
"p.	c #09E6EF",
"q.	c #0AEAF6",
"r.	c #02F3FA",
"s.	c #00F3FB",
"t.	c #04F2FE",
"u.	c #06EFFD",
"v.	c #06EEFC",
"w.	c #0BE7F3",
"x.	c #0BDEE9",
"y.	c #12D2DD",
"z.	c #1BB9C5",
"A.	c #1EABB4",
"B.	c #249B9F",
"C.	c #2D6F78",
"D.	c #1BA4AC",
"E.	c #14BBC3",
"F.	c #0FCBD4",
"G.	c #0FDEE8",
"H.	c #0FE5F0",
"I.	c #08EAF6",
"J.	c #01F2F9",
"K.	c #01F2FB",
"L.	c #04F0FD",
"M.	c #05EEFC",
"N.	c #09E7F2",
"O.	c #0ADDE6",
"P.	c #12D3DC",
"Q.	c #1DB7C3",
"R.	c #21A7B0",
"S.	c #25969A",
"T.	c #2C6E75",
"U.	c #15BAC0",
"V.	c #11C9D1",
"W.	c #12DAE9",
"X.	c #0EE2F0",
"Y.	c #06EAF5",
"Z.	c #04F2FC",
"`.	c #07F0FE",
" +	c #06EEFA",
".+	c #05E8EF",
"++	c #07DDE5",
"@+	c #0ED3D9",
"#+	c #20A5AC",
"$+	c #289195",
"%+	c #246162",
"&+	c #22989C",
"*+	c #1DAEB3",
"=+	c #14BDC4",
"-+	c #0ECFDE",
";+	c #0ADAE7",
">+	c #04E2EF",
",+	c #05EBF8",
"'+	c #08ECF9",
")+	c #0CEBFA",
"!+	c #0DE9F9",
"~+	c #0CE8F8",
"{+	c #08E7F6",
"]+	c #01E0E7",
"^+	c #01D6DA",
"/+	c #07CDCE",
"(+	c #13B0B5",
"_+	c #1E9DA3",
":+	c #2A8084",
"<+	c #278D92",
"[+	c #24A5AB",
"}+	c #1AB4BC",
"|+	c #0DCBD7",
"1+	c #0BD6E4",
"2+	c #06DBE9",
"3+	c #08E4F2",
"4+	c #0CE5F4",
"5+	c #0EE6F5",
"6+	c #10E3F4",
"7+	c #0EE1F2",
"8+	c #0BE0EE",
"9+	c #04D9DF",
"0+	c #03CED2",
"a+	c #0CC5C8",
"b+	c #18A9AE",
"c+	c #22959A",
"d+	c #2B757C",
"e+	c #308088",
"f+	c #2A959F",
"g+	c #1EA7AF",
"h+	c #0FC7CF",
"i+	c #08CDD6",
"j+	c #09D3E1",
"k+	c #0EDCEA",
"l+	c #0EDEEB",
"m+	c #10DEEC",
"n+	c #11DCEB",
"o+	c #10DBEA",
"p+	c #0CD7E5",
"q+	c #0AD1D8",
"r+	c #0CC5CA",
"s+	c #2099A2",
"t+	c #298890",
"u+	c #256068",
"v+	c #306E7B",
"w+	c #2D8C94",
"x+	c #17ABAF",
"y+	c #13B8BC",
"z+	c #12BDC7",
"A+	c #12CAD2",
"B+	c #0DCED3",
"C+	c #0AD0D3",
"D+	c #0BCCD1",
"E+	c #0BC8CC",
"F+	c #1AABB0",
"G+	c #269DA5",
"H+	c #307281",
"I+	c #31747C",
"J+	c #239A9E",
"K+	c #21AAB0",
"L+	c #1CAFB7",
"M+	c #17BEC4",
"N+	c #11C3C3",
"O+	c #0DC5C5",
"P+	c #10C2C2",
"Q+	c #12BBBE",
"R+	c #1BA9AD",
"S+	c #219BA0",
"T+	c #2B8B93",
"U+	c #2F5F6A",
"V+	c #2D848A",
"W+	c #2C939A",
"X+	c #1CABAF",
"Y+	c #17B1AF",
"Z+	c #14B4B2",
"`+	c #16B2B1",
" @	c #1AAEAE",
".@	c #1DA7AA",
"+@	c #2F767C",
"@@	c #2C636F",
"#@	c #2A7980",
"$@	c #277C83",
"%@	c #277E87",
"&@	c #307A83",
"*@	c #337581",
"=@	c #38697A",
"                                                                ",
"                                                                ",
"                                                                ",
"                                                                ",
"                                                                ",
"                                                                ",
"                                                                ",
"                        . + @ # $ % & * =                       ",
"                      - ; > , ' ) ! ~ { ] ^ /                   ",
"                    ( _ : < [ } | 1 2 3 4 5 6                   ",
"                7 8 9 0 a b c d e f g h i j k l m               ",
"                n o p q r s t u v w x y z A B C D               ",
"                E F G H I J K L M N O P Q r R S T U             ",
"              V W X Y Z `  ...+.@.#.$.%.&.*.=.-.;.>.            ",
"              ,.'.).!.~.{.].^.@././.(._.:.<.[.}.|.1.            ",
"              2.3.4.5.6.7.8.9.0.a.b.c.d.e.f.g.h.i.j.            ",
"              k.l.m.n.o.p.q.9.r.s.t.u.v.w.x.y.z.A.B.            ",
"              C.D.E.F.G.H.I.9.J.K.L.M.v.N.O.P.Q.R.S.            ",
"              T.! U.V.W.X.Y.Z.K.K.`.u. +.+++@+2 #+$+            ",
"              %+&+*+=+-+;+>+,+'+)+!+~+{+]+^+/+(+_+:+            ",
"                <+[+}+|+1+2+3+4+5+6+7+8+9+0+a+b+c+d+            ",
"                e+f+g+h+i+j+k+l+m+n+o+p+q+r+U.s+t+u+            ",
"                  v+w+x+y+z+A+B+C+C+D+E+y+F+G+H+                ",
"                    I+J+K+L+M+N+O+O+P+Q+R+S+T+U+                ",
"                      V+W+{ X+Y+Z+`+ @.@9 E +@                  ",
"                          @@#@$@%@&@*@=@                        ",
"                                                                ",
"                                                                ",
"                                                                ",
"                                                                ",
"                                                                ",
"                                                                "};
