/* XPM */
static char * bleu_dot_xpm[] = {
"64 64 200 2",
"  	c None",
". 	c #2D2662",
"+ 	c #0A0147",
"@ 	c #12095A",
"# 	c #100561",
"$ 	c #0E0363",
"% 	c #120668",
"& 	c #100466",
"* 	c #09004C",
"= 	c #242152",
"- 	c #11075F",
"; 	c #0F046A",
"> 	c #0D0366",
", 	c #110768",
"' 	c #110767",
") 	c #100666",
"! 	c #0F0565",
"~ 	c #0F0867",
"{ 	c #100968",
"] 	c #100969",
"^ 	c #0E036B",
"/ 	c #14096F",
"( 	c #140A6D",
"_ 	c #0B0162",
": 	c #0D025B",
"< 	c #292659",
"[ 	c #140A62",
"} 	c #12076F",
"| 	c #0E0467",
"1 	c #0E0464",
"2 	c #0F076E",
"3 	c #120972",
"4 	c #0F066F",
"5 	c #0F0671",
"6 	c #0D056C",
"7 	c #0D046D",
"8 	c #0E0669",
"9 	c #0D0568",
"0 	c #10086B",
"a 	c #0B0366",
"b 	c #10046A",
"c 	c #0E045D",
"d 	c #261D57",
"e 	c #0A014A",
"f 	c #100764",
"g 	c #140A6B",
"h 	c #11076A",
"i 	c #11066E",
"j 	c #11066C",
"k 	c #0D026A",
"l 	c #150B6C",
"m 	c #130C59",
"n 	c #180F5E",
"o 	c #10056D",
"p 	c #12076D",
"q 	c #0B0066",
"r 	c #11066F",
"s 	c #110865",
"t 	c #120868",
"u 	c #0F0568",
"v 	c #100667",
"w 	c #0B004F",
"x 	c #1E1171",
"y 	c #130773",
"z 	c #140A6A",
"A 	c #11075D",
"B 	c #0D045F",
"C 	c #110571",
"D 	c #110573",
"E 	c #0A0267",
"F 	c #0C016A",
"G 	c #180D6B",
"H 	c #140965",
"I 	c #110666",
"J 	c #0E036C",
"K 	c #0F076A",
"L 	c #110863",
"M 	c #11096C",
"N 	c #140967",
"O 	c #090055",
"P 	c #0C0169",
"Q 	c #0F0566",
"R 	c #170E69",
"S 	c #150D61",
"T 	c #170C74",
"U 	c #180D5E",
"V 	c #040041",
"W 	c #090060",
"X 	c #010044",
"Y 	c #12066A",
"Z 	c #0F076C",
"` 	c #0C0251",
" .	c #120770",
"..	c #180F6A",
"+.	c #060052",
"@.	c #191166",
"#.	c #0F0371",
"$.	c #0C006B",
"%.	c #050048",
"&.	c #120869",
"*.	c #160B74",
"=.	c #10036F",
"-.	c #050042",
";.	c #120765",
">.	c #3B326A",
",.	c #12086B",
"'.	c #140971",
").	c #211D58",
"!.	c #0E024B",
"~.	c #0D0666",
"{.	c #100669",
"].	c #231D54",
"^.	c #0F046C",
"/.	c #1C1450",
"(.	c #110B4F",
"_.	c #130775",
":.	c #10064D",
"<.	c #0A024F",
"[.	c #100474",
"}.	c #100456",
"|.	c #0B0454",
"1.	c #100256",
"2.	c #090050",
"3.	c #100254",
"4.	c #0F0854",
"5.	c #0E0351",
"6.	c #0C0550",
"7.	c #0E064D",
"8.	c #302673",
"9.	c #1B125A",
"0.	c #15096F",
"a.	c #130769",
"b.	c #12075C",
"c.	c #100470",
"d.	c #0F0661",
"e.	c #0F0A45",
"f.	c #0E026E",
"g.	c #0E0A49",
"h.	c #05014D",
"i.	c #0B0662",
"j.	c #100271",
"k.	c #040046",
"l.	c #100A62",
"m.	c #12056F",
"n.	c #0B044B",
"o.	c #0B0069",
"p.	c #140B5A",
"q.	c #0D0163",
"r.	c #0F046D",
"s.	c #110664",
"t.	c #080057",
"u.	c #0E0369",
"v.	c #0F0457",
"w.	c #0E0562",
"x.	c #0F0868",
"y.	c #130871",
"z.	c #080160",
"A.	c #150864",
"B.	c #332C6F",
"C.	c #1B1076",
"D.	c #221A57",
"E.	c #201958",
"F.	c #0C006E",
"G.	c #140771",
"H.	c #191055",
"I.	c #120962",
"J.	c #150975",
"K.	c #150A68",
"L.	c #0C025B",
"M.	c #120767",
"N.	c #070057",
"O.	c #150A57",
"P.	c #150B6E",
"Q.	c #120751",
"R.	c #13066F",
"S.	c #150872",
"T.	c #0F0961",
"U.	c #0F0865",
"V.	c #0D0659",
"W.	c #0E044F",
"X.	c #100563",
"Y.	c #12056E",
"Z.	c #110476",
"`.	c #120956",
" +	c #0F0750",
".+	c #10065F",
"++	c #150A6A",
"@+	c #13096C",
"#+	c #10056E",
"$+	c #10056B",
"%+	c #0F0655",
"&+	c #0C0459",
"*+	c #15096D",
"=+	c #0F0464",
"-+	c #150B5F",
";+	c #16124F",
">+	c #100A52",
",+	c #100852",
"'+	c #0E074E",
")+	c #1B115C",
"                                                                                                                                ",
"                                                                                                                                ",
"                                                                                                                                ",
"                                                                                                                                ",
"                                                                                                                                ",
"                                                                                                                                ",
"                                                                                                                                ",
"                                                                                                                                ",
"                                                      . + @ # $ % % & & & % * =                                                 ",
"                                                  - ; > , ' ) ! ~ ~ { { ] ^ / ( _ :                                             ",
"                                            < [ } | 1 2 3 4 5 5 4 4 6 7 6 8 9 8 0 a b c d                                       ",
"                                        e f , g h i i j j j j j j j j j j j j j j i j , k l m                                   ",
"                                      n ^ o p q j j j j j j j j j j j j j j j j j i r s t u v w                                 ",
"                                    x % j r i i i j j j j j j j j j j j j j j j j j j j i h s y z                               ",
"                                  A B h 4 j j j j j j j j j j j j j j j j j j j j h , r C C D E F G                             ",
"                                H I J 4 K j h h j j j j j j j j j j j j j j j j j j j , L L h M ~ i N                           ",
"                              O h j j j j j j j j j j j j j j j j j j j j j j j j j j j j j j j i P Q R                         ",
"                            S j h j j j j j j j j j j j j j j j j j j j j j j j j j j j j j j h j T ; v U                       ",
"                          V s j i j j j j j j j j j j j j j j j j j j j j j j j j j j j j j j h j i j j W X                     ",
"                          Y , Z i j j j j j j j j j j j j j j j j j j j j j j j j j j j j j j i j j j j | P                     ",
"                        ` b D 2 , j j j j j j j j j j j j j j j j j j j j j j j j j j j j j j i i j j j  ...+.                  ",
"                        @.#.h , j j j j j j j j j j j j j j j j j j j j j j j j j j j j j j j j j j j j i , $.                  ",
"                      %.&.*.h j j j j j j j j j j j j j j j j j j j j j j j j j j j j j j j j j j j j j j , =.-.                ",
"                      ;.r i h j j j j j j j j j j j j j j j j j j j j j j j j j j j j j j j j j j j j j K K } &.                ",
"                    >.Y j j j j j j j j j j j j j j j j j j j j j j j j j j j j j j j j j j j j j j j j Z Z ,.'.).              ",
"                    !.% ' h i h h j j j j j j j j j j j j j j j j j j j j j j j j j j j j j j j j j j j 2 Z ~.Q A               ",
"                    s i j j j j j j j j j j j j j j j j j j j j j j j j j j j j j j j j j j j j j j j j i i h {.Q               ",
"                    &.j j j j j j j j j j j j j j j j j j j j j j j j j j j j j j j j j j j j j j j j j i j h {.Q               ",
"                  ].^.j j j j j j j j j j j j j j j j j j j j j j j j j j j j j j j j j j j j j j j j j j j j h h /.            ",
"                  (._.h j j j j j j j j j j j j j j j j j j j j j j j j j j j j j j j j j j j j j j j j j j j j j :.            ",
"                  <.[., j j j j j j j j j j j j j j j j j j j j j j j j j j j j j j j j j j j j j j j j h j j j j }.            ",
"                  |.h j j j j j j j j j j j j j j j j j j j j j j j j j j j j j j j j j j j j j j j j j j j j j j 1.            ",
"                  2.{.j j j j j j j j j j j j j j j j j j j j j j j j j j j j j j j j j j j j j j j j j j j j j j 3.            ",
"                  4.h j j j j j j j j j j j j j j j j j j j j j j j j j j j j j j j j j j j j j j j j j j j j j j 5.            ",
"                  6.Q j j j j j j j j j j j j j j j j j j j j j j j j j j j j j j j j j j j j j j j j j j j j j j 7.            ",
"                  8.&.j j j j j j j j j j j j j j j j j j j j j j j j j j j j j j j j j j j j j j j j j j j j j j 9.            ",
"                    0.h j j j j j j j j j j j j j j j j j j j j j j j j j j j j j j j j j j j j j j j j h h j v !               ",
"                    a.j j j j j j j j j j j j j j j j j j j j j j j j j j j j j j j j j j j j j j j j j j h h o Q               ",
"                    b.i j j j j j j j j j j j j j j j j j j j j j j j j j j j j j j j j j j j j j j j j i j , c.d.              ",
"                    e.j j j j j j j j j j j j j j j j j j j j j j j j j j j j j j j j j j j j j j j j j j r ' f.g.              ",
"                      , j j j j j j j j j j j j j j j j j j j j j j j j j j j j j j j j j j j j j j j j , C ' j                 ",
"                      h.i.~.C j h j j j j j j j j j j j j j j j j j j j j j j j j j j j j j j j j j j j K , j.k.                ",
"                        l.} C j h j j j j j j j j j j j j j j j j j j j j j j j j j j j j j j j j j j j K i m.                  ",
"                        n.o.r j h j j j j j j j j j j j j j j j j j j j j j j j j j j j j j j j j j j j i i p.                  ",
"                          q.2 K j j j j j j j j j j j j j j j j j j j j j j j j j j j j j j j j j j j j r.s.                    ",
"                          t.K K i j j j j j j j j j j j j j j j j j j j j j j j j j j j j j j j j j j j u.v.                    ",
"                            w.0 4 x.~ 2 x.h j j j j j j j j j j j j j j j j j j j j j j j j j j , 1 y.z.A.                      ",
"                            B.C.x.Z Z ~ Z j j j j j j j j j j j j j j j j j j j j j j j j j j , j r.L *.D.                      ",
"                              E.i j h i i j j j j j j j j j j j j j j j j j j j j j j j j j j j h F.G.H.                        ",
"                                  I.J.h h j j j j j j j j j j j j j j j j j j j j j j j j j j {.C K.                            ",
"                                    L.M.Y j j j j j j j j j j j j j j j j j j j j j j j j j j > N.                              ",
"                                      O.0., / r.r Z x.i h , , , j j j j i 4 Z K 2 2 K 4 h ! P.Q.                                ",
"                                        <.R.S.u h 2 4 j j j i j j j j j , T.K 4 Z K Z U.g ! V.                                  ",
"                                            W.X.Y.i j i r r r i j j j j r Z.r h , h Y.Y.`.                                      ",
"                                                 +.+++> ,.@+Q {.r r #+r.^.) ' 1 $+; %+                                          ",
"                                                      &+d.u y. .{.{.{.,.( *+=+-+                                                ",
"                                                              ;+>+,+'+)+                                                        ",
"                                                                                                                                ",
"                                                                                                                                ",
"                                                                                                                                ",
"                                                                                                                                ",
"                                                                                                                                ",
"                                                                                                                                ",
"                                                                                                                                "};
