/* XPM */
static char * countdown_empty_xpm[] = {
"128 32 219 2",
"  	c None",
". 	c #8787A1",
"+ 	c #C3BDEB",
"@ 	c #8E8AB4",
"# 	c #8E93B4",
"$ 	c #9297AA",
"% 	c #949AAA",
"& 	c #8C91A4",
"* 	c #878CA0",
"= 	c #83889C",
"- 	c #80869E",
"; 	c #7E869D",
"> 	c #757D94",
", 	c #767C94",
"' 	c #737991",
") 	c #727A91",
"! 	c #747C91",
"~ 	c #767E93",
"{ 	c #787E96",
"] 	c #7D839B",
"^ 	c #81879F",
"/ 	c #878FA6",
"( 	c #62677A",
"_ 	c #5D5F74",
": 	c #606279",
"< 	c #63657E",
"[ 	c #656B81",
"} 	c #686E84",
"| 	c #6C728C",
"1 	c #717590",
"2 	c #71778F",
"3 	c #727691",
"4 	c #737792",
"5 	c #727890",
"6 	c #757B93",
"7 	c #7C809B",
"8 	c #7F839E",
"9 	c #7F83A0",
"0 	c #8288A2",
"a 	c #888CA7",
"b 	c #8F93AE",
"c 	c #8C90AB",
"d 	c #9195B2",
"e 	c #9891C7",
"f 	c #959AB8",
"g 	c #464D5D",
"h 	c #333B46",
"i 	c #363E4B",
"j 	c #353F4B",
"k 	c #383F4F",
"l 	c #384152",
"m 	c #363F50",
"n 	c #353E4F",
"o 	c #333C4B",
"p 	c #323E4A",
"q 	c #34404C",
"r 	c #323F48",
"s 	c #34414A",
"t 	c #334049",
"u 	c #38424C",
"v 	c #37414B",
"w 	c #36404A",
"x 	c #353F49",
"y 	c #363E49",
"z 	c #39414E",
"A 	c #394050",
"B 	c #3B4254",
"C 	c #38424B",
"D 	c #36404C",
"E 	c #343E48",
"F 	c #38424E",
"G 	c #353F48",
"H 	c #343D4C",
"I 	c #363E53",
"J 	c #9CA2BC",
"K 	c #A7A5CD",
"L 	c #B9BEDE",
"M 	c #B7BEDA",
"N 	c #2D384A",
"O 	c #3A4652",
"P 	c #3A4654",
"Q 	c #3B4851",
"R 	c #3D4751",
"S 	c #3B454F",
"T 	c #3A444E",
"U 	c #394551",
"V 	c #39464F",
"W 	c #394553",
"X 	c #38454E",
"Y 	c #3F4953",
"Z 	c #3D4753",
"` 	c #3C4652",
" .	c #38454D",
"..	c #3A4750",
"+.	c #3B4551",
"@.	c #3C4554",
"#.	c #3B4455",
"$.	c #3A4352",
"%.	c #3B4453",
"&.	c #384452",
"*.	c #384450",
"=.	c #3C4854",
"-.	c #3B4753",
";.	c #3E4854",
">.	c #26303C",
",.	c #C3C9E1",
"'.	c #CFC9F9",
").	c #606382",
"!.	c #7A8098",
"~.	c #424D5F",
"{.	c #3F4B57",
"].	c #3F4B59",
"^.	c #3F4D56",
"/.	c #444D56",
"(.	c #424C55",
"_.	c #404A53",
":.	c #434D57",
"<.	c #404C5A",
"[.	c #404C58",
"}.	c #3E4A5A",
"|.	c #404C5C",
"1.	c #3E4A56",
"2.	c #3F4857",
"3.	c #434A5A",
"4.	c #414A59",
"5.	c #44515A",
"6.	c #424E5A",
"7.	c #414A5B",
"8.	c #41495C",
"9.	c #40485B",
"0.	c #3F4B5B",
"a.	c #414D5B",
"b.	c #434B5E",
"c.	c #424B5A",
"d.	c #444E57",
"e.	c #414C52",
"f.	c #646B7E",
"g.	c #645E8C",
"h.	c #534D6F",
"i.	c #565563",
"j.	c #4D545E",
"k.	c #4C525E",
"l.	c #4C5260",
"m.	c #4B555E",
"n.	c #4D565F",
"o.	c #4C555E",
"p.	c #4D565D",
"q.	c #4D5760",
"r.	c #4B555F",
"s.	c #4A5460",
"t.	c #4A5760",
"u.	c #48525C",
"v.	c #47515B",
"w.	c #49535D",
"x.	c #49545A",
"y.	c #49535C",
"z.	c #4B5561",
"A.	c #4C5660",
"B.	c #4B5860",
"C.	c #495760",
"D.	c #4A5863",
"E.	c #47515A",
"F.	c #48525B",
"G.	c #45525B",
"H.	c #46535B",
"I.	c #4C5461",
"J.	c #4B5360",
"K.	c #4B535E",
"L.	c #545D66",
"M.	c #54546C",
"N.	c #444652",
"O.	c #2C2E3B",
"P.	c #333542",
"Q.	c #393C4D",
"R.	c #3B3E4F",
"S.	c #3E404F",
"T.	c #404251",
"U.	c #3F4054",
"V.	c #404358",
"W.	c #434558",
"X.	c #44465D",
"Y.	c #424860",
"Z.	c #444C60",
"`.	c #464C62",
" +	c #485164",
".+	c #4B4F65",
"++	c #4D5167",
"@+	c #4A5266",
"#+	c #4E5367",
"$+	c #505567",
"%+	c #53566C",
"&+	c #575E73",
"*+	c #37384A",
"=+	c #3A3B4F",
"-+	c #3C3D51",
";+	c #3F404E",
">+	c #3D3F4E",
",+	c #3E4251",
"'+	c #404255",
")+	c #42445B",
"!+	c #43445C",
"~+	c #44445F",
"{+	c #464B5F",
"]+	c #494B62",
"^+	c #4C4E63",
"/+	c #4B4D64",
"(+	c #4F5062",
"_+	c #515266",
":+	c #4F5264",
"<+	c #535467",
"[+	c #555669",
"}+	c #585A71",
"|+	c #5E6174",
"1+	c #5E626E",
"2+	c #474A59",
"3+	c #3B394F",
"4+	c #2F2F46",
"5+	c #736F92",
"6+	c #3F3C5E",
"                                                                                                                                                                                                                                                                ",
"                                                                                                                                                                                                                                                                ",
"                                                                                                                                                                                                                                                                ",
"                                                                                                                                                                                                                                                                ",
"                                                                                                                                                                                                                                                                ",
"                                                                                                                                                                                                                                                                ",
"                                                                                                                                                                                                                                                                ",
"                                                                                                                                                                                                                                                                ",
"                                                                                                                                                                                                                                                                ",
"                                                                                                                                                                                                                                                                ",
"                                                                                                                                                                                                                                                                ",
"                                                                                                                                                                                                                                                                ",
"                                                                                                                                                                                                                                                                ",
"                            . .                                                                                                                                                                                                 + + @ @                         ",
"                        # # $ $ % % & & * * * * = = = = - - ; ; > > > > , , ' ' ) ) ) ) ) ) ' ' ' ' ! ! ! ! ~ ~ { { ] ] ^ ^ / / ( ( _ _ : : < < [ [ } } | | 1 1 1 1 2 2 2 2 2 2 3 3 4 4 5 5 6 6 6 6 7 7 8 8 9 9 0 0 0 0 a a b b c c d d e e                     ",
"                        f f g g h h i i j j j j k k k k l l m m n n o o p p q q q q r r r r s s s s r r r r t t u u v v w w x x y y z z A A B B C C w w D D D D w w x x x x t t x x x x x x E E E E u u u u F F s s s s G G H H I I J J K K                     ",
"                    L L M M N N O O P P Q Q Q Q Q Q Q Q R R S S S S T T U U U U V V W W W W W W W W V V V V X X Y Y Z Z ` ` R R  . .....O O P P +.+.@.@.#.#.$.$.$.$.%.%.%.%.W W W W &.&.*.*.U U U U =.=.-.-.-.-.-.-.-.-.Z Z ;.;.+.+.>.>.,.,.'.'.                ",
"                    ).).!.!.~.~.{.{.].].^.^.^.^.^.^.^.^././.(.(._._.:.:.<.<.<.<.[.[.}.}.}.}.|.|.|.|.{.{.{.{.1.1.2.2.3.3.3.3.4.4.5.5.6.6.<.<.].].7.7.8.8.9.9.0.0.0.0.0.0.0.0.0.0.0.0.0.0.0.0.0.0.0.0.}.}.|.|.|.|.a.a.a.a.b.b.c.c.d.d.e.e.f.f.g.g.                ",
"                    h.h.i.i.j.j.k.k.l.l.m.m.m.m.n.n.o.o.p.p.q.q.r.r.s.s.t.t.t.t.t.t.u.u.u.u.v.v.v.v.u.u.u.u.u.u.u.u.v.v.w.w.u.u.x.x.y.y.r.r.z.z.r.r.A.A.A.A.B.B.B.B.C.C.D.D.E.E.F.F.E.E.F.F.G.G.G.G.u.u.E.E.E.E.H.H.H.H.I.I.J.J.K.K.L.L.M.M.                    ",
"                            N.N.O.O.P.P.Q.Q.R.R.S.S.T.T.U.U.V.V.W.W.X.X.Y.Y.Z.Z.`.`. + + + +.+.+.+.+++++++++@+@+#+#+$+$+%+%+&+&+P.P.*+*+=+=+-+-+;+;+>+>+,+,+'+'+)+)+!+!+~+~+{+{+]+]+^+^+/+/+(+(+_+_+:+:+<+<+<+<+<+<+[+[+}+}+|+|+1+1+2+2+                        ",
"                            3+3+4+4+                                                                                                                                                                                            5+5+6+6+                        ",
"                                                                                                                                                                                                                                                                ",
"                                                                                                                                                                                                                                                                ",
"                                                                                                                                                                                                                                                                ",
"                                                                                                                                                                                                                                                                ",
"                                                                                                                                                                                                                                                                ",
"                                                                                                                                                                                                                                                                ",
"                                                                                                                                                                                                                                                                ",
"                                                                                                                                                                                                                                                                ",
"                                                                                                                                                                                                                                                                ",
"                                                                                                                                                                                                                                                                ",
"                                                                                                                                                                                                                                                                "};
