/* XPM */
static char * countdown_full_xpm[] = {
"128 32 336 2",
"  	c None",
". 	c #8787A1",
"+ 	c #C3BDEB",
"@ 	c #8E8AB4",
"# 	c #8E93B4",
"$ 	c #9297AA",
"% 	c #949AAA",
"& 	c #8C91A4",
"* 	c #878CA0",
"= 	c #83889C",
"- 	c #80869E",
"; 	c #7E869D",
"> 	c #757D94",
", 	c #767C94",
"' 	c #737991",
") 	c #727A91",
"! 	c #747B90",
"~ 	c #767D92",
"{ 	c #787D95",
"] 	c #7D839B",
"^ 	c #81879F",
"/ 	c #878DA4",
"( 	c #868CA2",
"_ 	c #646477",
": 	c #5F5D71",
"< 	c #626076",
"[ 	c #64627B",
"} 	c #66687E",
"| 	c #66697E",
"1 	c #696D82",
"2 	c #686D83",
"3 	c #6C718B",
"4 	c #6C718A",
"5 	c #71728D",
"6 	c #72728D",
"7 	c #71748C",
"8 	c #71758D",
"9 	c #71768E",
"0 	c #727590",
"a 	c #737691",
"b 	c #72778F",
"c 	c #757A92",
"d 	c #757991",
"e 	c #7C7D98",
"f 	c #7C7D97",
"g 	c #7F809A",
"h 	c #7F809C",
"i 	c #82859E",
"j 	c #82859F",
"k 	c #888AA5",
"l 	c #888BA5",
"m 	c #8F92AC",
"n 	c #8C8FA9",
"o 	c #8C8FAA",
"p 	c #9195B2",
"q 	c #9891C7",
"r 	c #959AB8",
"s 	c #464D5D",
"t 	c #484C5C",
"u 	c #3D3944",
"v 	c #3F3944",
"w 	c #403C49",
"x 	c #3F3D49",
"y 	c #403D49",
"z 	c #413C48",
"A 	c #433C4C",
"B 	c #423D4C",
"C 	c #413D4C",
"D 	c #413F4F",
"E 	c #403D4D",
"F 	c #413C4D",
"G 	c #403C4C",
"H 	c #3F3C4C",
"I 	c #3E3A49",
"J 	c #3D3C48",
"K 	c #3F3B47",
"L 	c #3F3C45",
"M 	c #403E47",
"N 	c #413E47",
"O 	c #453D46",
"P 	c #4B3942",
"Q 	c #4D3841",
"R 	c #4E3841",
"S 	c #4E3842",
"T 	c #503A45",
"U 	c #4E3B45",
"V 	c #463D47",
"W 	c #433E48",
"X 	c #423D47",
"Y 	c #463C46",
"Z 	c #513741",
"` 	c #5B333D",
" .	c #5E303C",
"..	c #5F323F",
"+.	c #5F3240",
"@.	c #603343",
"#.	c #5E333D",
"$.	c #5C353E",
"%.	c #543741",
"&.	c #503843",
"*.	c #503844",
"=.	c #543743",
"-.	c #5B333F",
";.	c #5E323E",
">.	c #5E323C",
",.	c #5E323D",
"'.	c #5B323D",
").	c #533640",
"!.	c #503742",
"~.	c #4F3842",
"{.	c #4F3741",
"].	c #533540",
"^.	c #5C353F",
"/.	c #5E333E",
"(.	c #5F333E",
"_.	c #5F333F",
":.	c #5D333D",
"<.	c #5B343E",
"[.	c #503741",
"}.	c #4F3644",
"|.	c #4F374A",
"1.	c #4B384C",
"2.	c #9A9DB6",
"3.	c #9CA2BC",
"4.	c #A7A5CD",
"5.	c #B9BEDE",
"6.	c #B7BEDA",
"7.	c #363748",
"8.	c #4F3142",
"9.	c #66313D",
"0.	c #6B2C39",
"a.	c #6A2E3B",
"b.	c #692F3C",
"c.	c #69303A",
"d.	c #6A2F39",
"e.	c #6D2C37",
"f.	c #6D2C36",
"g.	c #692F3A",
"h.	c #6A2D39",
"i.	c #6C2C37",
"j.	c #692E39",
"k.	c #6D2B37",
"l.	c #6D2A36",
"m.	c #6D2A37",
"n.	c #6E2936",
"o.	c #712733",
"p.	c #712632",
"q.	c #722733",
"r.	c #712834",
"s.	c #6F2A36",
"t.	c #6E2B37",
"u.	c #6E2A37",
"v.	c #6F2936",
"w.	c #722632",
"x.	c #75222E",
"y.	c #76202D",
"z.	c #76212D",
"A.	c #76202E",
"B.	c #75212E",
"C.	c #732432",
"D.	c #722633",
"E.	c #722534",
"F.	c #75212F",
"G.	c #722533",
"H.	c #712533",
"I.	c #712633",
"J.	c #712532",
"K.	c #732431",
"L.	c #75222F",
"M.	c #76212E",
"N.	c #732532",
"O.	c #4D2A37",
"P.	c #2C2F3B",
"Q.	c #C3C9E1",
"R.	c #CFC9F9",
"S.	c #606382",
"T.	c #7A8098",
"U.	c #7A7F97",
"V.	c #4E4859",
"W.	c #6A3343",
"X.	c #771F2D",
"Y.	c #791B29",
"Z.	c #791C2A",
"`.	c #791D2B",
" +	c #791D2A",
".+	c #7A1B29",
"++	c #791C2B",
"@+	c #7A1A29",
"#+	c #781D2B",
"$+	c #77202E",
"%+	c #76232F",
"&+	c #76222F",
"*+	c #76212F",
"=+	c #781D2C",
"-+	c #762230",
";+	c #77212E",
">+	c #77202D",
",+	c #623941",
"'+	c #464A50",
")+	c #646B7E",
"!+	c #645E8C",
"~+	c #534D6F",
"{+	c #565563",
"]+	c #51525C",
"^+	c #5E4852",
"/+	c #6B3844",
"(+	c #70303C",
"_+	c #722C39",
":+	c #732B38",
"<+	c #732C37",
"[+	c #722D38",
"}+	c #71303B",
"|+	c #70323C",
"1+	c #71313B",
"2+	c #732D38",
"3+	c #732E39",
"4+	c #72303A",
"5+	c #732C38",
"6+	c #722E39",
"7+	c #71313C",
"8+	c #70323D",
"9+	c #70333D",
"0+	c #6F303B",
"a+	c #6F313C",
"b+	c #6C343F",
"c+	c #6C3540",
"d+	c #6C3640",
"e+	c #70313C",
"f+	c #6F323D",
"g+	c #6B3641",
"h+	c #663C47",
"i+	c #644047",
"j+	c #643F49",
"k+	c #65414B",
"l+	c #65414C",
"m+	c #65404B",
"n+	c #673E49",
"o+	c #6B3A44",
"p+	c #6C3843",
"q+	c #674049",
"r+	c #65434B",
"s+	c #664049",
"t+	c #6A3A44",
"u+	c #6C3944",
"v+	c #6B353F",
"w+	c #6B3640",
"x+	c #693741",
"y+	c #643E48",
"z+	c #633E47",
"A+	c #633F48",
"B+	c #653D46",
"C+	c #6B3945",
"D+	c #6C3743",
"E+	c #6C3642",
"F+	c #6C3742",
"G+	c #683B46",
"H+	c #5E545D",
"I+	c #555C65",
"J+	c #54546C",
"K+	c #444652",
"L+	c #474551",
"M+	c #382D3A",
"N+	c #3F2C39",
"O+	c #4B303D",
"P+	c #4E2F3C",
"Q+	c #513545",
"R+	c #4F3848",
"S+	c #493A4B",
"T+	c #493D4C",
"U+	c #4B3C4B",
"V+	c #523B4A",
"W+	c #543A49",
"X+	c #54384B",
"Y+	c #533C50",
"Z+	c #4F3D51",
"`+	c #543E4F",
" @	c #563D4E",
".@	c #573D52",
"+@	c #573D53",
"@@	c #544056",
"#@	c #4E435A",
"$@	c #4D485B",
"%@	c #4D485C",
"&@	c #4E485D",
"*@	c #504D5F",
"=@	c #524B60",
"-@	c #534D63",
";@	c #534E63",
">@	c #504F62",
",@	c #535063",
"'@	c #544F63",
")@	c #565162",
"!@	c #585267",
"~@	c #5B5A6F",
"{@	c #5A5B70",
"]@	c #3A3441",
"^@	c #3E3748",
"/@	c #403A4D",
"(@	c #423C4F",
"_@	c #443E4C",
":@	c #453E4C",
"<@	c #453D4B",
"[@	c #463C4B",
"}@	c #473F4E",
"|@	c #46404E",
"1@	c #464053",
"2@	c #454053",
"3@	c #474259",
"4@	c #494259",
"5@	c #4A4159",
"6@	c #4B415B",
"7@	c #4F485E",
"8@	c #524B5F",
"9@	c #514A60",
"0@	c #544D5E",
"a@	c #564F62",
"b@	c #554F62",
"c@	c #535061",
"d@	c #525062",
"e@	c #565265",
"f@	c #585467",
"g@	c #585466",
"h@	c #5B576D",
"i@	c #5C566D",
"j@	c #615D70",
"k@	c #615E6A",
"l@	c #605F6B",
"m@	c #484958",
"n@	c #474A59",
"o@	c #3B394F",
"p@	c #2F2F46",
"q@	c #302F46",
"r@	c #37304A",
"s@	c #38304A",
"t@	c #736F92",
"u@	c #3F3C5E",
"                                                                                                                                                                                                                                                                ",
"                                                                                                                                                                                                                                                                ",
"                                                                                                                                                                                                                                                                ",
"                                                                                                                                                                                                                                                                ",
"                                                                                                                                                                                                                                                                ",
"                                                                                                                                                                                                                                                                ",
"                                                                                                                                                                                                                                                                ",
"                                                                                                                                                                                                                                                                ",
"                                                                                                                                                                                                                                                                ",
"                                                                                                                                                                                                                                                                ",
"                                                                                                                                                                                                                                                                ",
"                                                                                                                                                                                                                                                                ",
"                                                                                                                                                                                                                                                                ",
"                            . .                                                                                                                                                                                                 + + @ @                         ",
"                        # # $ $ % % & & * * * * = = = = - - ; ; > > > > , , ' ' ) ) ) ) ) ) ' ' ' ' ! ! ! ! ~ ~ { { ] ] ^ ^ / ( _ _ : : < < [ [ } | 1 2 3 4 5 6 6 6 7 8 9 9 9 9 0 0 a a b b c c c d e f g g h h i i i j k l m m n o p p q q                     ",
"                        r r s t u v w w x x y z A A B C D D E F G H I I J K y y y y L L L L M M N O P Q R R S S T U V W X Y Z `  . .....+.+.@.@.#.$.%.&.*.=.-.;.>.,.'.).!.~.S S ~.~.~.~.~.~.{.{.{.].^./.(.(._._.>.>.:.<.).[.}.}.|.1.2.3.4.4.                    ",
"                    5.5.6.6.7.8.9.0.a.b.c.c.d.e.f.e.d.c.g.g.h.i.h.j.j.j.h.k.l.l.l.l.m.m.m.m.m.m.m.n.o.p.p.p.p.p.q.r.s.t.u.v.w.x.y.y.z.z.A.A.A.A.A.B.C.D.E.C.F.A.A.A.F.C.G.H.I.I.I.I.H.H.J.J.p.p.p.K.L.M.M.M.M.M.M.M.M.L.N.D.q.q.I.m.O.P.Q.Q.R.R.                ",
"                    S.S.T.U.V.W.X.Y.Z.`.`. + +Y..+Y. + +`. +Z.Y.Z. +`.`.++Y..+.+.+.+@+@+@+@+.+.+.+Y.Z.`.`.`.`.`.++Z..+@+@+.+#+$+%+%+&+&+&+&+&+&+*+$+=+`.++#+$+*+&+*+$+#+`.`.`.`.`.`.`.`.`.`.`.`.`.#+$+*+-+-+-+-+&+&+&+;+=+`.`.`.`.>+,+'+)+)+!+!+                ",
"                    ~+~+{+{+]+^+/+(+_+:+<+<+[+}+|+1+2+<+<+<+3+4+[+<+:+5+6+7+8+9+9+9+0+0+0+0+0+0+0+a+b+c+d+d+d+d+c+b+a+0+e+f+g+h+i+i+j+j+k+k+l+l+m+n+o+p+p+o+q+r+r+r+s+t+u+u+v+v+d+d+v+v+d+d+w+w+w+x+h+y+z+z+z+z+A+A+A+B+C+D+E+E+F+G+H+I+J+J+                    ",
"                            K+L+M+N+O+P+Q+Q+R+S+T+U+V+W+X+X+Y+Z+`+ @.@+@@@#@$@%@&@&@*@*@*@*@=@=@=@=@-@;@;@;@>@>@,@'@)@)@!@!@~@{@]@]@^@^@/@/@(@(@_@:@<@[@}@|@1@2@3@3@4@5@6@6@$@$@7@7@8@8@9@9@0@0@a@b@c@d@e@e@e@e@e@e@f@g@h@i@j@j@k@l@m@n@                        ",
"                            o@o@p@q@r@s@                                                                                                                                                                                        t@t@u@u@                        ",
"                                                                                                                                                                                                                                                                ",
"                                                                                                                                                                                                                                                                ",
"                                                                                                                                                                                                                                                                ",
"                                                                                                                                                                                                                                                                ",
"                                                                                                                                                                                                                                                                ",
"                                                                                                                                                                                                                                                                ",
"                                                                                                                                                                                                                                                                ",
"                                                                                                                                                                                                                                                                ",
"                                                                                                                                                                                                                                                                ",
"                                                                                                                                                                                                                                                                ",
"                                                                                                                                                                                                                                                                "};
