/* XPM */
static char * green_dot_xpm[] = {
"32 32 277 2",
"  	c None",
". 	c #2A6D38",
"+ 	c #2C7239",
"@ 	c #2E713B",
"# 	c #2D6D3B",
"$ 	c #2F693A",
"% 	c #2C6139",
"& 	c #2D6F36",
"* 	c #2C8036",
"= 	c #278E30",
"- 	c #299130",
"; 	c #2A9233",
"> 	c #309037",
", 	c #2E8A38",
"' 	c #2B8333",
") 	c #2C6C35",
"! 	c #31633B",
"~ 	c #307740",
"{ 	c #25962E",
"] 	c #20A224",
"^ 	c #1DAE21",
"/ 	c #16BD17",
"( 	c #15C115",
"_ 	c #16C017",
": 	c #18BA19",
"< 	c #1BB91E",
"[ 	c #1DB320",
"} 	c #229B27",
"| 	c #27912E",
"1 	c #296B34",
"2 	c #2D5F35",
"3 	c #2F7539",
"4 	c #2D8A3A",
"5 	c #1FAB28",
"6 	c #19B61D",
"7 	c #17C11A",
"8 	c #0FCE0E",
"9 	c #0ED20C",
"0 	c #0ED20E",
"a 	c #12CC11",
"b 	c #14CA15",
"c 	c #16C417",
"d 	c #1DAF20",
"e 	c #23A328",
"f 	c #278030",
"g 	c #266530",
"h 	c #2F6F34",
"i 	c #2D8934",
"j 	c #269E32",
"k 	c #1CBB21",
"l 	c #15C518",
"m 	c #11CE12",
"n 	c #0ADA08",
"o 	c #0ADF07",
"p 	c #0BDD08",
"q 	c #0ED90D",
"r 	c #10D60F",
"s 	c #11D010",
"t 	c #19BE1A",
"u 	c #1FB223",
"v 	c #25942D",
"w 	c #277D32",
"x 	c #286232",
"y 	c #28942F",
"z 	c #1FA824",
"A 	c #16BA1B",
"B 	c #13D213",
"C 	c #10DB10",
"D 	c #0CE30A",
"E 	c #07EF05",
"F 	c #09F306",
"G 	c #0BF309",
"H 	c #0DEE0C",
"I 	c #0EEA0C",
"J 	c #0DE40A",
"K 	c #10D410",
"L 	c #13C914",
"M 	c #1DB021",
"N 	c #249D29",
"O 	c #29852F",
"P 	c #2D673A",
"Q 	c #22A12C",
"R 	c #18B51E",
"S 	c #13C612",
"T 	c #10DB0F",
"U 	c #0FE40E",
"V 	c #0CED0B",
"W 	c #08F704",
"X 	c #08FA05",
"Y 	c #0BFA07",
"Z 	c #0BF10A",
"` 	c #0BEC08",
" .	c #0EDE0C",
"..	c #11D50F",
"+.	c #1BBD1C",
"@.	c #1FA922",
"#.	c #27912D",
"$.	c #287A38",
"%.	c #17B020",
"&.	c #11C315",
"*.	c #0FD20A",
"=.	c #09E507",
"-.	c #0AF009",
";.	c #0AF908",
">.	c #02FB00",
",.	c #00FB00",
"'.	c #04FA00",
").	c #07FB05",
"!.	c #07F904",
"~.	c #06F901",
"{.	c #0AEC06",
"].	c #0AE006",
"^.	c #12C813",
"/.	c #15B419",
"(.	c #22A227",
"_.	c #2D6138",
":.	c #2A6236",
"<.	c #268430",
"[.	c #15B41A",
"}.	c #13C613",
"|.	c #14D314",
"1.	c #0AE807",
"2.	c #0AF407",
"3.	c #07F905",
"4.	c #04FA01",
"5.	c #02FD00",
"6.	c #01FD00",
"7.	c #08F004",
"8.	c #0BE508",
"9.	c #15CD17",
"0.	c #17BE19",
"a.	c #1EA821",
"b.	c #316938",
"c.	c #2D6537",
"d.	c #26862C",
"e.	c #15B618",
"f.	c #11C713",
"g.	c #13D115",
"h.	c #09F805",
"i.	c #06FA04",
"j.	c #05F903",
"k.	c #04FF00",
"l.	c #00FE00",
"m.	c #08F205",
"n.	c #0BE50A",
"o.	c #14CC16",
"p.	c #15C019",
"q.	c #1EAD20",
"r.	c #2F6B38",
"s.	c #305F39",
"t.	c #2A8133",
"u.	c #1AB51C",
"v.	c #10C612",
"w.	c #0CEA0B",
"x.	c #0CF40A",
"y.	c #0BF808",
"z.	c #06FC03",
"A.	c #0EF10B",
"B.	c #0EE30F",
"C.	c #19CC1B",
"D.	c #12BC15",
"E.	c #1AAB1E",
"F.	c #2D6D35",
"G.	c #2E5D3E",
"H.	c #2E7B37",
"I.	c #1DB222",
"J.	c #12C514",
"K.	c #0ED40F",
"L.	c #08EB08",
"M.	c #08F507",
"N.	c #04FD01",
"O.	c #02FB01",
"P.	c #03FD00",
"Q.	c #09EF08",
"R.	c #0CE10D",
"S.	c #17CA19",
"T.	c #14BA18",
"U.	c #1CA821",
"V.	c #2C6D32",
"W.	c #2F753C",
"X.	c #1FAD25",
"Y.	c #14C117",
"Z.	c #06E705",
"`.	c #08F207",
" +	c #05F703",
".+	c #03FE01",
"++	c #06FC01",
"@+	c #05FB02",
"#+	c #08E907",
"$+	c #0CDE0D",
"%+	c #15C218",
"&+	c #1FA123",
"*+	c #305E3D",
"=+	c #249A2C",
"-+	c #1BB020",
";+	c #11C212",
">+	c #0BD90C",
",+	c #0CE30C",
"'+	c #09EA08",
")+	c #09F606",
"!+	c #09F109",
"~+	c #0CF20C",
"{+	c #0AEB09",
"]+	c #11DB13",
"^+	c #1DD920",
"/+	c #1DB223",
"(+	c #23A02B",
"_+	c #25882E",
":+	c #268B2F",
"<+	c #1BA021",
"[+	c #1BBB1D",
"}+	c #13CD14",
"|+	c #15D917",
"1+	c #13E114",
"2+	c #08E406",
"3+	c #10EC10",
"4+	c #10E710",
"5+	c #0DE20E",
"6+	c #13E315",
"7+	c #23DB25",
"8+	c #1FC823",
"9+	c #26A62D",
"0+	c #2F9438",
"a+	c #2B7739",
"b+	c #2C7C34",
"c+	c #2C9B34",
"d+	c #1BA420",
"e+	c #18BF1A",
"f+	c #0BD90A",
"g+	c #0FDF0D",
"h+	c #12E011",
"i+	c #13DC14",
"j+	c #13D713",
"k+	c #0CCB0C",
"l+	c #1EC520",
"m+	c #1CB421",
"n+	c #33833E",
"o+	c #2E683E",
"p+	c #2C6835",
"q+	c #308238",
"r+	c #23A028",
"s+	c #1FAE21",
"t+	c #1DB81E",
"u+	c #15C312",
"v+	c #15C814",
"w+	c #17C516",
"x+	c #18BF19",
"y+	c #2DCF2E",
"z+	c #21BC22",
"A+	c #1FA222",
"B+	c #259D2B",
"C+	c #2A7832",
"D+	c #306A3D",
"E+	c #2B8931",
"F+	c #249829",
"G+	c #24A526",
"H+	c #1CB21B",
"I+	c #1BB61C",
"J+	c #1FB51E",
"K+	c #34C336",
"L+	c #24AE27",
"M+	c #1A9D1D",
"N+	c #26922C",
"O+	c #2A8430",
"P+	c #2B7037",
"Q+	c #297D32",
"R+	c #2B8E31",
"S+	c #219A26",
"T+	c #22A025",
"U+	c #26A029",
"V+	c #33A438",
"W+	c #218B26",
"X+	c #2F9435",
"Y+	c #2F7A37",
"Z+	c #2B6834",
"`+	c #276534",
" @	c #296336",
"                                                                ",
"                                                                ",
"                                                                ",
"                                                                ",
"                                                                ",
"                                                                ",
"                            . + @ # $                           ",
"                      % & * = - ; > , ' )                       ",
"                  ! ~ { ] ^ / ( _ : < [ } | 1                   ",
"                2 3 4 5 6 7 8 9 0 a b c d e f g                 ",
"                h i j k l m n o p q r s t u v w x               ",
"                y z A B C D E F G H I J K L M N O               ",
"              P Q R S T U V W X Y G Z `  ...+.@.#.              ",
"              $.%.&.*.=.-.;.>.,.'.).!.~.{.].^./.(._.            ",
"            :.<.[.}.|.1.2.3.4.>.4.>.5.6.7.8.9.0.a.b.            ",
"            c.d.e.f.g.1.2.h.i.4.j.k.l.l.m.n.o.p.q.r.            ",
"            s.t.u.v.0 w.x.y.).i.j.z.>.>.A.B.C.D.E.F.            ",
"            G.H.I.J.K.L.M.3.N.N.O.>.P.P.Q.R.S.T.U.V.            ",
"              W.X.Y.0 Z.`. +N..+>.>.++@+#+$+%+6 &+              ",
"              *+=+-+;+>+,+'+M.)+2.!+~+{+]+^+/+(+_+              ",
"                :+<+[+}+|+1+2+w.3+4+5+6+7+8+9+0+a+              ",
"                b+c+d+e+S.|.f+g+h+i+j+k+l+m+v n+o+              ",
"                  p+q+r+s+t+u+v+w+x+y+z+A+B+C+                  ",
"                    D+E+F+G+H+I+J+K+L+M+N+O+                    ",
"                      P+Q+R+S+T+U+V+W+X+Y+Z+                    ",
"                              `+ @                              ",
"                                                                ",
"                                                                ",
"                                                                ",
"                                                                ",
"                                                                ",
"                                                                "};
