/* XPM */
static char * green_dot_xpm[] = {
"64 64 326 2",
"  	c #00AE5F",
". 	c #01AE5F",
"+ 	c #00AF5E",
"@ 	c #00B061",
"# 	c #23A76D",
"$ 	c #FDFFFE",
"% 	c #159F61",
"& 	c #00AF5F",
"* 	c #23A76B",
"= 	c #FEFEFE",
"- 	c #12A161",
"; 	c #FEFEFC",
"> 	c #FFFCFE",
", 	c #DAFFEF",
"' 	c #18AE6E",
") 	c #0DAA65",
"! 	c #BBFFE1",
"~ 	c #F4FFFF",
"{ 	c #FBFFFE",
"] 	c #FFFDFF",
"^ 	c #FEFFFD",
"/ 	c #00AF65",
"( 	c #05AC5E",
"_ 	c #00B15E",
": 	c #08AA5E",
"< 	c #00B05C",
"[ 	c #11AE69",
"} 	c #F1F8F1",
"| 	c #F8FFFC",
"1 	c #FFFDFE",
"2 	c #18A563",
"3 	c #00B05F",
"4 	c #08B063",
"5 	c #FBFDFC",
"6 	c #F5FEFB",
"7 	c #00B25F",
"8 	c #00B15F",
"9 	c #D9FFF6",
"0 	c #F7FFFF",
"a 	c #D5FFEA",
"b 	c #06AA61",
"c 	c #149C5E",
"d 	c #F6FFFF",
"e 	c #E7FFF8",
"f 	c #04AC61",
"g 	c #23A569",
"h 	c #FAFFFE",
"i 	c #FBFFFF",
"j 	c #00AB5A",
"k 	c #05AB61",
"l 	c #04AC5F",
"m 	c #DFFFF1",
"n 	c #10A35F",
"o 	c #00B261",
"p 	c #01B061",
"q 	c #FEFFFF",
"r 	c #F0FFFC",
"s 	c #039355",
"t 	c #0BB366",
"u 	c #00AA5B",
"v 	c #00AE5D",
"w 	c #02AD5F",
"x 	c #11985D",
"y 	c #FBFFFA",
"z 	c #FDFFFC",
"A 	c #F7FBFA",
"B 	c #FAFEFD",
"C 	c #FDF8FC",
"D 	c #F5FFFF",
"E 	c #F8FFFF",
"F 	c #FCFFFA",
"G 	c #FCFEFD",
"H 	c #FFFDFC",
"I 	c #EAFFF4",
"J 	c #00B063",
"K 	c #00B263",
"L 	c #00AE61",
"M 	c #00AE63",
"N 	c #01AE5C",
"O 	c #06AB5C",
"P 	c #64C097",
"Q 	c #FDFEFF",
"R 	c #CDFFE9",
"S 	c #56C18D",
"T 	c #FEFDFF",
"U 	c #F1FFFB",
"V 	c #05AD62",
"W 	c #05AB5F",
"X 	c #FBFFFC",
"Y 	c #04AC5E",
"Z 	c #149B61",
"` 	c #0CB86C",
" .	c #00AA5C",
"..	c #11A664",
"+.	c #11A15C",
"@.	c #08AE62",
"#.	c #F3FFFC",
"$.	c #0C9B5B",
"%.	c #00AD5E",
"&.	c #04AB63",
"*.	c #08A45B",
"=.	c #F9FFFF",
"-.	c #FFFFFF",
";.	c #FFFFFD",
">.	c #01AC5E",
",.	c #03B061",
"'.	c #00B368",
").	c #BEF9D9",
"!.	c #00AB5E",
"~.	c #00B362",
"{.	c #7CCDAD",
"].	c #FFFAFF",
"^.	c #C8FDE3",
"/.	c #00AB5C",
"(.	c #F7FFF9",
"_.	c #22A86B",
":.	c #00B364",
"<.	c #01AE5E",
"[.	c #00B25B",
"}.	c #09AD64",
"|.	c #FDFDFD",
"1.	c #00B562",
"2.	c #03AF65",
"3.	c #02AE5C",
"4.	c #E3FFFA",
"5.	c #CAFBE5",
"6.	c #00B25E",
"7.	c #EEFEF3",
"8.	c #BFFFE1",
"9.	c #00B160",
"0.	c #F4FFF8",
"a.	c #F7FFFA",
"b.	c #81CEAA",
"c.	c #FAFFFF",
"d.	c #FFFEFD",
"e.	c #11A164",
"f.	c #6ABC96",
"g.	c #FBFFF9",
"h.	c #199A64",
"i.	c #FFF6FA",
"j.	c #079759",
"k.	c #00B05E",
"l.	c #06AE61",
"m.	c #F9FFFD",
"n.	c #FFFBFE",
"o.	c #E6FFF8",
"p.	c #07A45F",
"q.	c #F8FDF7",
"r.	c #BAFDDA",
"s.	c #F0FBF5",
"t.	c #E2FFF6",
"u.	c #FFF2F5",
"v.	c #02AD5E",
"w.	c #1DA366",
"x.	c #FFFCFB",
"y.	c #F6FCFA",
"z.	c #02B164",
"A.	c #00A75C",
"B.	c #20A669",
"C.	c #FFFCFC",
"D.	c #FFFEFC",
"E.	c #FEFDFB",
"F.	c #FFFAFD",
"G.	c #FFFCFF",
"H.	c #8ED6B1",
"I.	c #F6FCF8",
"J.	c #FFFBFC",
"K.	c #FFFBFB",
"L.	c #01AD61",
"M.	c #CDFFE4",
"N.	c #26A56E",
"O.	c #00B45F",
"P.	c #5AA07E",
"Q.	c #1DAE6D",
"R.	c #02AD61",
"S.	c #199F62",
"T.	c #F9FFF6",
"U.	c #00B361",
"V.	c #06AB5F",
"W.	c #0AA760",
"X.	c #FFFBFF",
"Y.	c #00AF63",
"Z.	c #A6FFDD",
"`.	c #00AF5C",
" +	c #00B35F",
".+	c #07B264",
"++	c #FFFAFB",
"@+	c #FAFFFC",
"#+	c #06A660",
"$+	c #83D9B4",
"%+	c #03AE60",
"&+	c #FFFCFD",
"*+	c #FFF8FF",
"=+	c #FCFFFF",
"-+	c #08A764",
";+	c #7FD8AA",
">+	c #F1FFFD",
",+	c #F3F8F4",
"'+	c #0CA763",
")+	c #E7FFF3",
"!+	c #129E61",
"~+	c #1C9D65",
"{+	c #FFFEFF",
"]+	c #05A962",
"^+	c #C9F9DF",
"/+	c #39AB7A",
"(+	c #33B579",
"_+	c #F7FFFD",
":+	c #54C492",
"<+	c #47A477",
"[+	c #FFFDF6",
"}+	c #FCFEFB",
"|+	c #F3FFFB",
"1+	c #FFFAFA",
"2+	c #00AD61",
"3+	c #30A16D",
"4+	c #189A5C",
"5+	c #FEFCFD",
"6+	c #D2FFF6",
"7+	c #00B05D",
"8+	c #00B062",
"9+	c #02AE62",
"0+	c #00AB5F",
"a+	c #02B460",
"b+	c #D4FFF4",
"c+	c #F9FEFA",
"d+	c #F8FEFA",
"e+	c #00A455",
"f+	c #FFFEFB",
"g+	c #F9FFFB",
"h+	c #FFFDFD",
"i+	c #27A06A",
"j+	c #17A769",
"k+	c #0AB46B",
"l+	c #FFFAFE",
"m+	c #F3FFFE",
"n+	c #219E66",
"o+	c #F7F9F6",
"p+	c #FFFCF9",
"q+	c #02AF60",
"r+	c #FEFFF9",
"s+	c #F8FFFE",
"t+	c #FFF9FF",
"u+	c #07AF64",
"v+	c #2BA06C",
"w+	c #00AF61",
"x+	c #0FA464",
"y+	c #FFF6F7",
"z+	c #3DA977",
"A+	c #159A5B",
"B+	c #17995B",
"C+	c #1A9859",
"D+	c #18985F",
"E+	c #109C5D",
"F+	c #0D9E5D",
"G+	c #83DBB5",
"H+	c #FBFBFB",
"I+	c #07AD61",
"J+	c #ECFFF9",
"K+	c #FCFFFB",
"L+	c #FBFFFB",
"M+	c #E9F6ED",
"N+	c #4CAF83",
"O+	c #0A9F5B",
"P+	c #00AF5B",
"Q+	c #00AF60",
"R+	c #F4FDFC",
"S+	c #B4F9DA",
"T+	c #00A859",
"U+	c #00B461",
"V+	c #E0FFF8",
"W+	c #00B164",
"X+	c #02AF5F",
"Y+	c #02AF5D",
"Z+	c #00B467",
"`+	c #F6FFFE",
" @	c #FFFEF9",
".@	c #FFFDFA",
"+@	c #1EA266",
"@@	c #FFFFF8",
"#@	c #F4FFF6",
"$@	c #F5FFF4",
"%@	c #F0FFFD",
"&@	c #EEFFFB",
"*@	c #ECFFFB",
"=@	c #FAF4F8",
"-@	c #1CA066",
";@	c #73D9AA",
">@	c #0D9F5E",
",@	c #03A25F",
"'@	c #F4FFF7",
")@	c #0BA95F",
"!@	c #00AE5E",
"~@	c #71D2A7",
"{@	c #129F5B",
"]@	c #08AA5F",
"^@	c #FFF9F7",
"/@	c #76D9AB",
"(@	c #0AAC61",
"_@	c #DDFFF6",
":@	c #199F64",
"<@	c #01B262",
"[@	c #6FD2A4",
"}@	c #03A35D",
"|@	c #09AE62",
"1@	c #F5FFF8",
"2@	c #039C59",
"3@	c #70D1A4",
"4@	c #13995A",
"5@	c #01AC5D",
"6@	c #F1FFFA",
"7@	c #0AAC63",
"8@	c #78DAAB",
"9@	c #FEFEFF",
"0@	c #09A961",
"a@	c #04AD5C",
"b@	c #04B366",
"c@	c #F8FBF2",
"d@	c #F5F3F4",
"e@	c #04AF60",
"f@	c #7DD8AF",
"g@	c #10A563",
"h@	c #00AC5B",
"i@	c #EBFFF6",
"j@	c #F0EEEF",
"k@	c #12A767",
"                                                                                                                                ",
"                                                                                                                                ",
"                                                                                                                                ",
"                                                                                                                                ",
"                          . . . +   + +   +   + +   +   + +   +   +     +   +     +   +     +   + @ +                           ",
"                            # $ $ $ $ $ $ $ $ $ $ $ $ $ $ $ $ $ $ $ $ $ $ $ $ $ $ $ $ $ $ $ $ $ $ %                             ",
"                          & * = = = = = = = = = = = = = = = = = = = = = = = = = = = = = = = = = = - &                           ",
"                          & * = = = = = = = ; > , ' ) ! ~ { ] = = = = = = = = = = = = = = = = = = - &                           ",
"                          & * = = = = = = = ^ / ( _ : < [ } | = = = = = = = = = = = = = = = = = = - &                           ",
"                          & * = = = = = = 1 2 3           4 5 = = = = = = = = = = = = = = = = = = - &                           ",
"                          & * = = = = = 1 6 7 @           8 9 = = = = = = = = = = = = = = = = = = - &                           ",
"                          & * = = = = = 0 a               b c = = = = = = = = = = = = = = = = = = - &                           ",
"                          & * = = = = = d e               f g = = = = = = = = = = = = = = = = = = - &                           ",
"                          & * = = = = = h i j k           l m = = = = = = = = = = = = = = = = = = - &                           ",
"                          & * = = = = = 1 = n o   &     3 p q = = = = = = = = = = = = = = = = = = - &                           ",
"                          & * = = = = = = = r s t u v w x 1 y = = = = = = = = = = = = = = = = = = - &                           ",
"                          & * = = = = = = = = z 1 A B C D 0 E 0 E 0 E E 0 E 0 E F ] G H = = = = = - &                           ",
"                          & * = = = = = = = = = 1 I J K L L M L M L M M L M L M N O P D = = = = = - &                           ",
"                          & * = = = = = = = = Q R 3                                 & S T = = = = - &                           ",
"                          & * = = = = = = = 1 U V &                                 . W X $ = = = - &                           ",
"                          & * = = = = = = = { 3                     3 l Y Y Y Y W &   & Z $ = = = - &                           ",
"                          & * = = = = = = = ` .                     .  .........+.3   . @.#.= = = - &                           ",
"                          & * = = = = = i $.%..                     &.*.> =.-.-.;.>.    ,.'.1 = = - &                           ",
"                          & # i $ Q 1 $ ).!.. 3   L 3               w ~.{.$ = = ].^..   . /.(.= = - &                           ",
"                            _.$ z $ i (.:.<.    . [.b                   }.1 = = = |.1.    3 2.= = - &                           ",
"                            . l l l f           3.4.5.. .               6.7.= = = = 8.9.    & 0.a.- &                           ",
"                                              + b.c.d.%..               W e.= = = = 1 l   . . f.g.- &                           ",
"                                            _ h.i.1 -.j.k.              & l.m.n.= = = o.+ 3._ ~ 1 - &                           ",
"                                            p.E { 1 = q.<.              3 8 r.> = = = $ s.t.u.= $ - &                           ",
"                          . . v.Y Y Y Y & w.x.] = = = y.z.                  A.= = = = = = = = = = - &                           ",
"                          . B.C.D.D.D.E.F.G.E ] = = = > H.                  + I.= = = = = = = = = - &                           ",
"                          & * = = = = = = = = = = = = J.K.8 +               L.M.= = = = = = = = = - &                           ",
"                          & * = = = = = = = = = = = = { { N.O.              L P.= = = = = = = = = - &                           ",
"                          & * = = = = = = = = = = = = G.> Q.3               R.S.= = = = = = = = = - &                           ",
"                          & * = = = = = = = = = = = = c.T.3 &     U.< 3     V.W.= = = = = = = = = - &                           ",
"                          & * = = = = = = = = = = = = X.Y.        . Z.`.    v.!.|.= = = = = = = = - &                           ",
"                          & * = = = = = = = = = = { 1 I.v.        7 Q  +    & .+++@+= = = = = = = - &                           ",
"                          & * = = = = = = = = = = > ] #+l         $+] V.    & %+&+X = = = = = = = - &                           ",
"                          & * = = = = = = = = = = | D         R.6.*+=+7         m.G.= = = = = = = - &                           ",
"                          & * = = = = = = = = = = ] -+        k.;+-.G.l         >+G.= = = = = = = - &                           ",
"                          & * = = = = = = = = = = C.<         + ,+= ].'+        )+= = = = = = = = - : W 3                       ",
"                          & * = = = = = = = = $ > !+&         ~+-.= {+]+        ^+1 = = = = = = = /+(+*..                       ",
"                          & * = = = = = = = = 1 = .       . 8 _+$ = z :+        <+[+}+}+}+}+}+}+}+|+z 1+].2+.                   ",
"                          & * = = = = = = = = { 3+&       W 4+5+G.= | 6+        <.7+8+8+8+8+8+8+8+9+0+a+b+c+_ 3                 ",
"                          & * = = = = = = = 1 d+&         e+f+= = = c.g+                              & & h+i+l                 ",
"                          & * = = = = = = = 0 j+.     . w k+l+= = = m+q 3 8                             . n+o+N                 ",
"                          & * = = = = = = = p+q+      3 + r+s+= = = t+&+v l                               8 -.u+                ",
"                          & * = = = = = = = v+7       w+x+= = = = = = = y+z+A+B+B+A+B+A+B+B+A+B+A+C+D+E+E+F+#.G+                ",
"                          & * = = = = = = H+w+R.      I+}+= = = = = = = H 1 ] G.G.] G.] G.G.] G.] J+K+K+K+L+m.M+                ",
"                          & * = = = = = G.N+        & O+E = = = = = = = = = = = = = = = = = = = = - & . . . . .                 ",
"                          & * = = = = = 0 P+      w Q+R+1 = = = = = = = = = = = = = = = = = = = = - & . . . . .                 ",
"                          & * = = = = = S+_       L./.= = = = = = = = = = = = = = = = = = = = = = - &                           ",
"                          & * = = = = |.T+U+      P+K+= = = = = = = = = = = = = = = = = = = = = = - &                           ",
"                          & * = = = l+V+      & V.W+= = = = = = = = = = = = = = = = = = = = = = = - &                           ",
"                          & * = = = _+o X+Y+X+N Z+; = = = = = = = = = = = = = = = = = = = = = = = - &                           ",
"                          & * = = = `+ @H .@H J.s+= = = = = = = = = = = = = = = = = = = = = = = = - &                           ",
"                          . +@i = = Q @@#@$@%@&@*@=@Q ; G.= = = = = = = = = = = = = = = = = = = = -@.                           ",
"                          .   ;@= = h n.>@Y M w+w+W ,@'@| = = = = = = = = = = = = = = = = = = = = c.)@                          ",
"                              !@~@1 = = ] {@]@<.      v.^@c.G.= = = = = = = = = = = = = = = = = = = = >@3                       ",
"                                .+/@= = = X.c R.      L.(@_@i = = = = = = = = = = = = = = = = = = = = `+:@                      ",
"                                w <@[@n.= = G.}@: &       |@1@s+> = = = = = = = = = = = = = = = = = = = = 2@&                   ",
"                                & .   3@= = 1 ] 4@.       L.5@6@G.= = = = = = = = = = = = = = = = = = = = > 7@                  ",
"                                      & 8@9@= > *+0@a@        b@c@z 1 = = = = = = = = = = = = = = = = = = = d@f                 ",
"                                    & . e@f@= $ J.=.g@        R.h@i@1 = = = = = = = = = = = = = = = = = = = @+j@k@              "};
