/* XPM */
static char * player_dot_xpm[] = {
"64 64 231 2",
"  	c None",
". 	c #595724",
"+ 	c #1B2100",
"@ 	c #1E2900",
"# 	c #46440C",
"$ 	c #5D5A26",
"% 	c #484C12",
"& 	c #736632",
"* 	c #B4996A",
"= 	c #603D13",
"- 	c #8C673D",
"; 	c #87673E",
"> 	c #967A52",
", 	c #574017",
"' 	c #1B1B00",
") 	c #596831",
"! 	c #585426",
"~ 	c #E1D4A8",
"{ 	c #5D441C",
"] 	c #623A16",
"^ 	c #875532",
"/ 	c #C78C6A",
"( 	c #6B3511",
"_ 	c #633913",
": 	c #613E18",
"< 	c #99734F",
"[ 	c #8D754F",
"} 	c #161A00",
"| 	c #304711",
"1 	c #0F0700",
"2 	c #331800",
"3 	c #9D7E61",
"4 	c #AE8768",
"5 	c #F6C3A6",
"6 	c #CD9073",
"7 	c #803D20",
"8 	c #5F2203",
"9 	c #61330F",
"0 	c #58300C",
"a 	c #BB906E",
"b 	c #3B1600",
"c 	c #C3AF94",
"d 	c #030E00",
"e 	c #1B2B00",
"f 	c #251B00",
"g 	c #74593C",
"h 	c #C4A287",
"i 	c #774E32",
"j 	c #724025",
"k 	c #5E2508",
"l 	c #672C0E",
"m 	c #CE9778",
"n 	c #582D0A",
"o 	c #A57F5B",
"p 	c #C89F81",
"q 	c #FFECD0",
"r 	c #1A0500",
"s 	c #898B66",
"t 	c #143500",
"u 	c #586436",
"v 	c #F2E5C5",
"w 	c #BA9C82",
"x 	c #5E3A22",
"y 	c #582E16",
"z 	c #96644B",
"A 	c #734023",
"B 	c #612E0F",
"C 	c #5F2E0E",
"D 	c #CAA27F",
"E 	c #54300E",
"F 	c #532C0F",
"G 	c #F4D2B7",
"H 	c #BDA990",
"I 	c #0E0E00",
"J 	c #112A00",
"K 	c #0A2B00",
"L 	c #A7AC83",
"M 	c #A8997C",
"N 	c #654631",
"O 	c #FFF4E1",
"P 	c #CAA08A",
"Q 	c #5B2B14",
"R 	c #9A6B4F",
"S 	c #EDC2A0",
"T 	c #CBA380",
"U 	c #5F3B19",
"V 	c #B38F6F",
"W 	c #5D381D",
"X 	c #573720",
"Y 	c #B0A087",
"Z 	c #141500",
"` 	c #041C00",
" .	c #021D00",
"..	c #040400",
"+.	c #524228",
"@.	c #FFF4DF",
"#.	c #B48F7D",
"$.	c #380D00",
"%.	c #FFD8C1",
"&.	c #FBCFB2",
"*.	c #633F1D",
"=.	c #FFEECB",
"-.	c #AD8A6A",
";.	c #603D21",
">.	c #A27C65",
",.	c #886954",
"'.	c #261501",
").	c #010400",
"!.	c #001200",
"~.	c #F3F0CF",
"{.	c #EDDDC6",
"].	c #AA8F7E",
"^.	c #3B1707",
"/.	c #300700",
"(.	c #BA9078",
"_.	c #220000",
":.	c #E1C3A1",
"<.	c #694D28",
"[.	c #FDDABC",
"}.	c #F6D1B7",
"|.	c #330D00",
"1.	c #300F00",
"2.	c #261302",
"3.	c #191900",
"4.	c #080500",
"5.	c #B1A28D",
"6.	c #503929",
"7.	c #2C0B00",
"8.	c #5E3927",
"9.	c #58321B",
"0.	c #290800",
"a.	c #BEA481",
"b.	c #170000",
"c.	c #553317",
"d.	c #2B0500",
"e.	c #87604F",
"f.	c #37170A",
"g.	c #231103",
"h.	c #1A1C06",
"i.	c #314718",
"j.	c #000D00",
"k.	c #7C7B5C",
"l.	c #110500",
"m.	c #271201",
"n.	c #2F1403",
"o.	c #7B5A47",
"p.	c #CFAD94",
"q.	c #D0B192",
"r.	c #CFB793",
"s.	c #1D0500",
"t.	c #240200",
"u.	c #270200",
"v.	c #290B01",
"w.	c #130500",
"x.	c #181C09",
"y.	c #081E00",
"z.	c #4D4C2E",
"A.	c #0E0300",
"B.	c #0E0000",
"C.	c #331C0C",
"D.	c #180000",
"E.	c #D5B79D",
"F.	c #B09375",
"G.	c #240C00",
"H.	c #896B51",
"I.	c #FBD7C7",
"J.	c #351007",
"K.	c #CAAFA8",
"L.	c #080000",
"M.	c #2D3825",
"N.	c #040300",
"O.	c #463E2B",
"P.	c #1F0F02",
"Q.	c #130000",
"R.	c #967F6D",
"S.	c #D0B49C",
"T.	c #FFE7CA",
"U.	c #EFD7B5",
"V.	c #190000",
"W.	c #210500",
"X.	c #D8BBAD",
"Y.	c #8C6D68",
"Z.	c #1A0200",
"`.	c #0C0A00",
" +	c #394834",
".+	c #A19587",
"++	c #514036",
"@+	c #5E4D43",
"#+	c #857263",
"$+	c #705741",
"%+	c #FFE7CC",
"&+	c #ECD3B5",
"*+	c #EBD1B6",
"=+	c #F9E3CE",
"-+	c #B49C90",
";+	c #1A0000",
">+	c #FFF0EE",
",+	c #030100",
"'+	c #050E00",
")+	c #95867F",
"!+	c #6C5F57",
"~+	c #AA9580",
"{+	c #EED6BE",
"]+	c #EBCFB7",
"^+	c #E7CFB7",
"/+	c #B5A494",
"(+	c #160607",
"_+	c #0A0000",
":+	c #120800",
"<+	c #070400",
"[+	c #090000",
"}+	c #1A0700",
"|+	c #A68D77",
"1+	c #C7AB95",
"2+	c #927965",
"3+	c #100400",
"4+	c #110A04",
"5+	c #948B90",
"6+	c #42373B",
"7+	c #1A0800",
"8+	c #140000",
"9+	c #2A0D00",
"0+	c #250E00",
"a+	c #120C00",
"b+	c #878883",
"c+	c #424147",
"d+	c #050005",
"e+	c #1B0300",
"f+	c #A9978B",
"g+	c #070300",
"h+	c #42443F",
"                                                                                                                                ",
"                                                                                                                                ",
"                                                                                                                                ",
"                                                                                                                                ",
"                                                                                                                                ",
"                                                                                                                                ",
"                                                                                                                                ",
"                                                                                                                                ",
"                                                                                                                                ",
"                                                                                                                                ",
"                                                                                                                                ",
"                                                                        . . + + @ @                                             ",
"                                                            # # # $ $ . . . + + @ @                                             ",
"                                              % % % & & * * = = = - - ; ; ; > > , , ' ' '                                       ",
"                                              % % % & & * * = = = - - ; ; ; > > , , ' ' '                                       ",
"                                  ) ) ! ! ~ ~ { { { ] ] ^ ^ / / / ( ( _ _ _ : : < < [ [ [ } }                                   ",
"                                ) ) ) ! ! ~ ~ { { { ] ] ^ ^ / / / ( ( _ _ _ : : < < [ [ [ } }                                   ",
"                              | 1 1 1 2 2 3 3 4 4 4 5 5 6 6 7 7 7 8 8 9 9 9 0 0 a a b b b c c d d                               ",
"                            | | 1 1 1 2 2 3 3 4 4 4 5 5 6 6 7 7 7 8 8 9 9 9 0 0 a a b b b c c d d                               ",
"                            | | 1 1 1 2 2 3 3 4 4 4 5 5 6 6 7 7 7 8 8 9 9 9 0 0 a a b b b c c d d                               ",
"                            e e f f f g g h h i i i j j k k l l l m m n n n o o p p q q q r r s s t                             ",
"                            e e f f f g g h h i i i j j k k l l l m m n n n o o p p q q q r r s s t                             ",
"                            u u v v v w w x x y y y z z A A B B B C C D D D E E F F G G G H H I I J J                           ",
"                            u u v v v w w x x y y y z z A A B B B C C D D D E E F F G G G H H I I J                             ",
"                          K L L M M M N N O O P P P Q Q R R S S S T T U U U V V W W X X X Y Y Z Z `                             ",
"                          K L L M M M N N O O P P P Q Q R R S S S T T U U U V V W W X X X Y Y Z Z `                             ",
"                          K L L M M M N N O O P P P Q Q R R S S S T T U U U V V W W X X X Y Y Z Z                               ",
"                           .....+.+.+.@.@.#.#.$.$.$.%.%.&.&.*.*.*.=.=.-.-.-.;.;.>.>.,.,.,.'.'.).).                              ",
"                           .....+.+.+.@.@.#.#.$.$.$.%.%.&.&.*.*.*.=.=.-.-.-.;.;.>.>.,.,.,.'.'.).).                              ",
"                          !.~.~.{.{.{.].].^.^./././.(.(._._.:.:.:.<.<.[.[.[.}.}.|.|.1.1.1.2.2.3.3.                              ",
"                          !.~.~.{.{.{.].].^.^./././.(.(._._.:.:.:.<.<.[.[.[.}.}.|.|.1.1.1.2.2.3.3.                              ",
"                            4.4.5.5.5.6.6.7.7.8.8.8.9.9.0.0.a.a.a.b.b.c.c.c.d.d.e.e.f.f.f.g.g.h.h.                              ",
"                          i.4.4.5.5.5.6.6.7.7.8.8.8.9.9.0.0.a.a.a.b.b.c.c.c.d.d.e.e.f.f.f.g.g.h.h.                              ",
"                          i.4.4.5.5.5.6.6.7.7.8.8.8.9.9.0.0.a.a.a.b.b.c.c.c.d.d.e.e.f.f.f.g.g.h.h.                              ",
"                          j.k.k.l.l.l.m.m.n.n.o.o.o.p.p.q.q.r.r.r.s.s.t.t.t.u.u.|.|.v.v.v.w.w.x.                                ",
"                          j.k.k.l.l.l.m.m.n.n.o.o.o.p.p.q.q.r.r.r.s.s.t.t.t.u.u.|.|.v.v.v.w.w.x.                                ",
"                          y.z.z.A.A.A.B.B.C.C.D.D.D.E.E.F.F.G.G.G.G.G.H.H.H.I.I.J.J.K.K.K.L.L.M.                                ",
"                          y.z.z.A.A.A.B.B.C.C.D.D.D.E.E.F.F.G.G.G.G.G.H.H.H.I.I.J.J.K.K.K.L.L.M.                                ",
"                            z.z.A.A.A.B.B.C.C.D.D.D.E.E.F.F.G.G.G.G.G.H.H.H.I.I.J.J.K.K.K.L.L.M.                                ",
"                            N.N.O.O.O.P.P.Q.Q.R.R.R.S.S.T.T.U.U.U.V.V.W.W.W.X.X.Y.Y.Z.Z.Z.`.`. +                                ",
"                            N.N.O.O.O.P.P.Q.Q.R.R.R.S.S.T.T.U.U.U.V.V.W.W.W.X.X.Y.Y.Z.Z.Z.`.`. +                                ",
"                                .+.+.+++++@+@+#+#+#+$+$+%+%+&+&+&+*+*+=+=+=+-+-+;+;+>+>+>+,+,+'+'+                              ",
"                                    .+++++@+@+#+#+#+$+$+%+%+&+&+&+*+*+=+=+=+-+-+;+;+>+>+>+,+,+'+'+                              ",
"                                      )+)+!+!+B.B.B.~+~+{+{+]+]+]+^+^+/+/+/+B.B.(+(+_+_+_+:+:+<+                                ",
"                                          !+!+B.B.B.~+~+{+{+]+]+]+^+^+/+/+/+B.B.(+(+_+_+_+:+:+<+                                ",
"                                            !+B.B.B.~+~+{+{+]+]+]+^+^+/+/+/+B.B.(+(+_+_+_+:+:+                                  ",
"                                              [+[+[+}+}+|+|+1+1+1+2+2+3+3+3+4+4+5+5+6+6+6+                                      ",
"                                                  [+}+}+|+|+1+1+1+2+2+3+3+3+4+4+5+5+6+6+                                        ",
"                                                      7+8+8+9+9+9+0+0+a+a+a+b+b+c+c+d+                                          ",
"                                                        8+8+9+9+9+0+0+a+a+a+b+b+c+                                              ",
"                                                                e+f+f+g+g+g+h+                                                  ",
"                                                                                                                                ",
"                                                                                                                                ",
"                                                                                                                                ",
"                                                                                                                                ",
"                                                                                                                                ",
"                                                                                                                                ",
"                                                                                                                                ",
"                                                                                                                                ",
"                                                                                                                                ",
"                                                                                                                                ",
"                                                                                                                                ",
"                                                                                                                                ",
"                                                                                                                                "};
