/* XPM */
static char * red_dot_xpm[] = {
"64 64 144 2",
"  	c None",
". 	c #6B0607",
"+ 	c #85070B",
"@ 	c #830102",
"# 	c #87090A",
"$ 	c #840607",
"% 	c #8A0C0D",
"& 	c #8A0809",
"* 	c #8E0B0F",
"= 	c #75070D",
"- 	c #800308",
"; 	c #860607",
"> 	c #830707",
", 	c #800305",
"' 	c #7E070B",
") 	c #860603",
"! 	c #890407",
"~ 	c #860406",
"{ 	c #7F0909",
"] 	c #850506",
"^ 	c #830705",
"/ 	c #820805",
"( 	c #880B10",
"_ 	c #650D09",
": 	c #8A090D",
"< 	c #870507",
"[ 	c #870409",
"} 	c #860509",
"| 	c #890409",
"1 	c #840609",
"2 	c #860605",
"3 	c #8B040A",
"4 	c #65070D",
"5 	c #7E0607",
"6 	c #890405",
"7 	c #86050A",
"8 	c #84080A",
"9 	c #800E14",
"0 	c #850708",
"a 	c #820803",
"b 	c #8A0307",
"c 	c #880306",
"d 	c #770A0A",
"e 	c #761410",
"f 	c #840808",
"g 	c #870505",
"h 	c #8B0307",
"i 	c #7E0806",
"j 	c #720811",
"k 	c #6D060E",
"l 	c #830506",
"m 	c #810704",
"n 	c #790B15",
"o 	c #5D1111",
"p 	c #890503",
"q 	c #800905",
"r 	c #720E15",
"s 	c #820901",
"t 	c #87060B",
"u 	c #830801",
"v 	c #880C0C",
"w 	c #8C0509",
"x 	c #7A0106",
"y 	c #8E0B10",
"z 	c #7E0A0D",
"A 	c #7D0100",
"B 	c #840703",
"C 	c #82070C",
"D 	c #820000",
"E 	c #850A11",
"F 	c #770504",
"G 	c #830709",
"H 	c #850301",
"I 	c #810609",
"J 	c #85040D",
"K 	c #8D0205",
"L 	c #7D0915",
"M 	c #8C0106",
"N 	c #700611",
"O 	c #7F0207",
"P 	c #80020E",
"Q 	c #850502",
"R 	c #810608",
"S 	c #84060A",
"T 	c #880606",
"U 	c #820407",
"V 	c #880304",
"W 	c #85070A",
"X 	c #890304",
"Y 	c #890103",
"Z 	c #820608",
"` 	c #850806",
" .	c #8B0609",
"..	c #840705",
"+.	c #88050B",
"@.	c #7C0309",
"#.	c #7E000A",
"$.	c #681016",
"%.	c #860404",
"&.	c #870708",
"*.	c #8A030A",
"=.	c #780A09",
"-.	c #7F0200",
";.	c #7B0711",
">.	c #900A09",
",.	c #870203",
"'.	c #740710",
").	c #89090A",
"!.	c #6D0A0F",
"~.	c #680004",
"{.	c #870205",
"].	c #6C0B0E",
"^.	c #820F13",
"/.	c #860402",
"(.	c #750511",
"_.	c #820503",
":.	c #7F0E08",
"<.	c #850409",
"[.	c #840403",
"}.	c #8A0403",
"|.	c #80080A",
"1.	c #820709",
"2.	c #8B0506",
"3.	c #830206",
"4.	c #82070A",
"5.	c #830207",
"6.	c #8C050C",
"7.	c #8D0708",
"8.	c #8A0401",
"9.	c #830508",
"0.	c #730A13",
"a.	c #7B0E14",
"b.	c #870B09",
"c.	c #880809",
"d.	c #83060E",
"e.	c #8A0405",
"f.	c #83080D",
"g.	c #870706",
"h.	c #7A090B",
"i.	c #6A040B",
"j.	c #78050D",
"k.	c #7B0A10",
"l.	c #6E050D",
"m.	c #6E0D0E",
"                                                                                                                                ",
"                                                                                                                                ",
"                                                                                                                                ",
"                                                                                                                                ",
"                                                                                                                                ",
"                                                                                                                                ",
"                                                                                                                                ",
"                                                                                                                                ",
"                                                      . + @ # $ % & * =                                                         ",
"                                                - ; > ; ; ; ; ; ; ; ; ; ; ; ,                                                   ",
"                                          ' ) ! ~ { $ ; ; ; ; ; ; ; ; ; ; ; ] ^ / (                                             ",
"                                      _ : ] < $ [ [ ; ; ; ; ; ; ; ; ; ; ; ; } | 1 2 3 4                                         ",
"                                    5 6 7 ; ; ; ; ; ; ; ; ; ; ; ; ; ; ; ; ; ; ; ; ; ; $ 8                                       ",
"                                9 0 2 a b ; ; ; ; ; ; ; ; ; ; ; ; ; ; ; ; ; ; ; ; ; ; < / c d                                   ",
"                              e f g 6 [ } ; ; ; ; ; ; ; ; ; ; ; ; ; ; ; ; ; ; ; ; ; ; ; h i ; j                                 ",
"                            k l < ; ; ; ; ; ; ; ; ; ; ; ; ; ; ; ; ; ; ; ; ; ; ; ; ; ; ; ; ; < m n                               ",
"                          o p ; ; ; ; ; ; ; ; ; ; ; ; ; ; ; ; ; ; ; ; ; ; ; ; ; ; ; ; ; ; ; ; q c r                             ",
"                          s t < $ ; ; ; ; ; ; ; ; ; ; ; ; ; ; ; ; ; ; ; ; ; ; ; ; ; ; ; ; ; 2 < } u                             ",
"                        v l ; ; ; ; ; ; ; ; ; ; ; ; ; ; ; ; ; ; ; ; ; ; ; ; ; ; ; ; ; ; ; ; ; ; ; w x                           ",
"                      y ! $ < ; ; ; ; ; ; ; ; ; ; ; ; ; ; ; ; ; ; ; ; ; ; ; ; ; ; ; ; ; ; ; ; ; ; > ! z                         ",
"                      A > ; $ ; ; ; ; ; ; ; ; ; ; ; ; ; ; ; ; ; ; ; ; ; ; ; ; ; ; ; ; ; ; ; ; ; ; B C D                         ",
"                    E ! ; ; ; ; ; ; ; ; ; ; ; ; ; ; ; ; ; ; ; ; ; ; ; ; ; ; ; ; ; ; ; ; ; ; ; ; ; ; ; < F                       ",
"                    B G ; ; ; ; ; ; ; ; ; ; ; ; ; ; ; ; ; ; ; ; ; ; ; ; ; ; ; ; ; ; ; ; ; ; ; ; ; ; ; $ H                       ",
"                  I 2 $ ; ; ; ; ; ; ; ; ; ; ; ; ; ; ; ; ; ; ; ; ; ; ; ; ; ; ; ; ; ; ; ; ; ; ; ; ; ; ; ; | J                     ",
"                  l ; ; ; ; ; ; ; ; ; ; ; ; ; ; ; ; ; ; ; ; ; ; ; ; ; ; ; ; ; ; ; ; ; ; ; ; ; ; ; ; ; ; 2 l                     ",
"                  l ; ; ; ; ; ; ; ; ; ; ; ; ; ; ; ; ; ; ; ; ; ; ; ; ; ; ; ; ; ; ; ; ; ; ; ; ; ; ; ; ; ; 2 K                     ",
"                L ; ; ; ; ; ; ; ; ; ; ; ; ; ; ; ; ; ; ; ; ; ; ; ; ; ; ; ; ; ; ; ; ; ; ; ; ; ; ; ; ; ; ; p M N                   ",
"                O ; ; ; ; ; ; ; ; ; ; ; ; ; ; ; ; ; ; ; ; ; ; ; ; ; ; ; ; ; ; ; ; ; ; ; ; ; ; ; ; ; ; ; ^ ~ P                   ",
"                Q ; ; ; ; ; ; ; ; ; ; ; ; ; ; ; ; ; ; ; ; ; ; ; ; ; ; ; ; ; ; ; ; ; ; ; ; ; ; ; ; ; ; ; 2 R S                   ",
"                T 2 2 ; ; ; ; ; ; ; ; ; ; ; ; ; ; ; ; ; ; ; ; ; ; ; ; ; ; ; ; ; ; ; ; ; ; ; ; ; ; ; ; ; < 2 U                   ",
"                V 2 2 ; ; ; ; ; ; ; ; ; ; ; ; ; ; ; ; ; ; ; ; ; ; ; ; ; ; ; ; ; ; ; ; ; ; ; ; ; ; ; ; ; < 2 W                   ",
"                X 2 2 ; ; ; ; ; ; ; ; ; ; ; ; ; ; ; ; ; ; ; ; ; ; ; ; ; ; ; ; ; ; ; ; ; ; ; ; ; ; ; ; ; < 2 1                   ",
"                Y ; ; ; ; ; ; ; ; ; ; ; ; ; ; ; ; ; ; ; ; ; ; ; ; ; ; ; ; ; ; ; ; ; ; ; ; ; ; ; ; ; ; ; < 2 }                   ",
"                g ; ; ; ; ; ; ; ; ; ; ; ; ; ; ; ; ; ; ; ; ; ; ; ; ; ; ; ; ; ; ; ; ; ; ; ; ; ; ; ; ; ; ; ; 2 Z                   ",
"                ` ; ; ; ; ; ; ; ; ; ; ; ; ; ; ; ; ; ; ; ; ; ; ; ; ; ; ; ; ; ; ; ; ; ; ; ; ; ; ; ; ; ; ; ; g R                   ",
"                 .; ; ; ; ; ; ; ; ; ; ; ; ; ; ; ; ; ; ; ; ; ; ; ; ; ; ; ; ; ; ; ; ; ; ; ; ; ; ; ; ; ; ; ..G +.                  ",
"                @.; ; ; ; ; ; ; ; ; ; ; ; ; ; ; ; ; ; ; ; ; ; ; ; ; ; ; ; ; ; ; ; ; ; ; ; ; ; ; ; ; ; ; ^ ; #.                  ",
"                  ; ; ; ; ; ; ; ; ; ; ; ; ; ; ; ; ; ; ; ; ; ; ; ; ; ; ; ; ; ; ; ; ; ; ; ; ; ; ; ; ; ; ; < 2 $.                  ",
"                  < < ; ; ; ; ; ; ; ; ; ; ; ; ; ; ; ; ; ; ; ; ; ; ; ; ; ; ; ; ; ; ; ; ; ; ; ; ; ; ; ; ; } %.                    ",
"                  &.; ; ; ; ; ; ; ; ; ; ; ; ; ; ; ; ; ; ; ; ; ; ; ; ; ; ; ; ; ; ; ; ; ; ; ; ; ; ; ; ; ; ! *.                    ",
"                  =.-.; ; ; ; ; ; ; ; ; ; ; ; ; ; ; ; ; ; ; ; ; ; ; ; ; ; ; ; ; ; ; ; ; ; ; ; ; ; ; ; ; $ ;.                    ",
"                    >.| ; ; ; ; ; ; ; ; ; ; ; ; ; ; ; ; ; ; ; ; ; ; ; ; ; ; ; ; ; ; ; ; ; ; ; ; ; ; ; ; ,.                      ",
"                    '.).; ; ; ; ; ; ; ; ; ; ; ; ; ; ; ; ; ; ; ; ; ; ; ; ; ; ; ; ; ; ; ; ; ; ; ; ; ; ; ; !.                      ",
"                      # ; ! $ ; ; ; ; ; ; ; ; ; ; ; ; ; ; ; ; ; ; ; ; ; ; ; ; ; ; ; ; ; ; ; ; ; ; < ; $                         ",
"                      ~.{.] } ; ; ; ; ; ; ; ; ; ; ; ; ; ; ; ; ; ; ; ; ; ; ; ; ; ; ; ; ; ; ; ; ; ; g $ ].                        ",
"                        ^.; } ; ; ; ; ; ; ; ; ; ; ; ; ; ; ; ; ; ; ; ; ; ; ; ; ; ; ; ; ; ; ; ; ; ; /.(.                          ",
"                          _.:.<...2 ; ; ; ; ; ; ; ; ; ; ; ; ; ; ; ; ; ; ; ; ; ; ; ; ; ; $ $ ; 1 l [.                            ",
"                            <.c 2 } ; ; ; ; ; ; ; ; ; ; ; ; ; ; ; ; ; ; ; ; ; ; ; ; ; ; $ ; ; }.|.                              ",
"                              U 2 $ ; ; ; ; ; ; ; ; ; ; ; ; ; ; ; ; ; ; ; ; ; ; ; ; ; ; ; ; $ 1.                                ",
"                                2.3./ 6 4.; ; ; ; ; ; ; ; ; ; ; ; ; ; ; ; ; ; ; ; ; ; ; < 5.6.                                  ",
"                                  7.G |.8.; ; ; ; ; ; ; ; ; ; ; ; ; ; ; ; ; ; ; ; ; ; ; q 9.                                    ",
"                                    0.6 } ; ; ; ; ; ; ; ; ; ; ; ; ; ; ; ; ; ; ; ; ; ; $ a.                                      ",
"                                        b.{.^ ! } } ; ; ; ; ; ; ; ; ; ; b } [ 2 < c.[                                           ",
"                                            d.2 ) e.; ; ; ; ; ; ; ; ; < > g G 6 B                                               ",
"                                                  f.; ] ; ; ; ; 2 g.2 ; [ h.                                                    ",
"                                                          i.j.k.l.m.                                                            ",
"                                                                                                                                ",
"                                                                                                                                ",
"                                                                                                                                ",
"                                                                                                                                ",
"                                                                                                                                ",
"                                                                                                                                ",
"                                                                                                                                ",
"                                                                                                                                "};
