/* XPM */
static char * red_dot_xpm[] = {
"32 32 294 2",
"  	c None",
". 	c #5B3937",
"+ 	c #793333",
"@ 	c #863033",
"# 	c #8F3132",
"$ 	c #8C312C",
"% 	c #8A322E",
"& 	c #843532",
"* 	c #773336",
"= 	c #713237",
"- 	c #67353B",
"; 	c #643834",
"> 	c #723732",
", 	c #952F2A",
"' 	c #A22C28",
") 	c #AA2B25",
"! 	c #A72D20",
"~ 	c #A52F25",
"{ 	c #A22F28",
"] 	c #972D2F",
"^ 	c #902D30",
"/ 	c #833137",
"( 	c #6C3533",
"_ 	c #823732",
": 	c #8E3429",
"< 	c #AB2C1D",
"[ 	c #B7281A",
"} 	c #BD2517",
"| 	c #BE2915",
"1 	c #BB2818",
"2 	c #B8291B",
"3 	c #B22825",
"4 	c #A82628",
"5 	c #9B282B",
"6 	c #713533",
"7 	c #713334",
"8 	c #9E2D25",
"9 	c #AD2E1F",
"0 	c #B72C17",
"a 	c #C92A0C",
"b 	c #D2290A",
"c 	c #D92807",
"d 	c #DB2706",
"e 	c #D82608",
"f 	c #D6280D",
"g 	c #CF2816",
"h 	c #CA261A",
"i 	c #C0281D",
"j 	c #9F2C25",
"k 	c #8A312A",
"l 	c #6F3631",
"m 	c #6D3334",
"n 	c #842E2D",
"o 	c #B2291F",
"p 	c #BC2917",
"q 	c #C4280F",
"r 	c #D22805",
"s 	c #DA2804",
"t 	c #E12603",
"u 	c #E42400",
"v 	c #E12404",
"w 	c #DD2607",
"x 	c #D6260F",
"y 	c #D22612",
"z 	c #CB2515",
"A 	c #B32B1F",
"B 	c #9D2E25",
"C 	c #853430",
"D 	c #7B3130",
"E 	c #972E2B",
"F 	c #BE2618",
"G 	c #C82812",
"H 	c #CF2609",
"I 	c #DC2503",
"J 	c #E42302",
"K 	c #E82100",
"L 	c #EC1F00",
"M 	c #E81F01",
"N 	c #E42103",
"O 	c #DD230A",
"P 	c #D9230B",
"Q 	c #D3250D",
"R 	c #BF2817",
"S 	c #AC2C1F",
"T 	c #953028",
"U 	c #6B3833",
"V 	c #8D322C",
"W 	c #A82D25",
"X 	c #CC2713",
"Y 	c #D5270E",
"Z 	c #DC2408",
"` 	c #F01E05",
" .	c #FD1805",
"..	c #FF1502",
"+.	c #FF1A07",
"@.	c #FF1909",
"#.	c #FE1808",
"$.	c #F21B07",
"%.	c #EB1F06",
"&.	c #E22307",
"*.	c #CC280D",
"=.	c #BC2B16",
"-.	c #A83022",
";.	c #6F3636",
">.	c #733832",
",.	c #92312A",
"'.	c #AC2E20",
").	c #CF260F",
"!.	c #D72509",
"~.	c #E02104",
"{.	c #F71B03",
"].	c #FF1603",
"^.	c #FF1302",
"/.	c #FF1A06",
"(.	c #FF1908",
"_.	c #FF1809",
":.	c #F81907",
"<.	c #E82205",
"[.	c #D1270D",
"}.	c #C22A13",
"|.	c #B02E20",
"1.	c #773333",
"2.	c #563A3A",
"3.	c #78332D",
"4.	c #9A2F27",
"5.	c #B22D1E",
"6.	c #D2290C",
"7.	c #DD2606",
"8.	c #E82102",
"9.	c #FB1B01",
"0.	c #FF1B04",
"a.	c #FF1B03",
"b.	c #FE1E02",
"c.	c #FE1C04",
"d.	c #FF1D07",
"e.	c #FA1905",
"f.	c #F21A01",
"g.	c #EA1E03",
"h.	c #D5260B",
"i.	c #CB2612",
"j.	c #7E3530",
"k.	c #5B3B38",
"l.	c #80322C",
"m.	c #9F2E28",
"n.	c #B72B1E",
"o.	c #D2270D",
"p.	c #E12508",
"q.	c #EA2105",
"r.	c #FC1A02",
"s.	c #FF1A03",
"t.	c #FF1902",
"u.	c #FD1D03",
"v.	c #FD1D04",
"w.	c #FB1903",
"x.	c #F31B02",
"y.	c #EC1F04",
"z.	c #D8240B",
"A.	c #CF2412",
"B.	c #BF271C",
"C.	c #8A3030",
"D.	c #633736",
"E.	c #7E3230",
"F.	c #9E2D29",
"G.	c #B82B22",
"H.	c #D22610",
"I.	c #DE240B",
"J.	c #E82006",
"K.	c #FB1A04",
"L.	c #FF1A05",
"M.	c #FF1804",
"N.	c #FF1B06",
"O.	c #FF1C07",
"P.	c #FA1903",
"Q.	c #F11B01",
"R.	c #E92004",
"S.	c #CC2513",
"T.	c #BC281E",
"U.	c #893130",
"V.	c #653737",
"W.	c #7D2F2F",
"X.	c #9C2C2A",
"Y.	c #B52A25",
"Z.	c #D12612",
"`.	c #DC240C",
" +	c #E42006",
".+	c #F61B05",
"++	c #FA1C07",
"@+	c #FD1B05",
"#+	c #FF1906",
"$+	c #F71902",
"%+	c #EE1A02",
"&+	c #E62005",
"*+	c #D0280D",
"=+	c #C72815",
"-+	c #B52B20",
";+	c #833332",
">+	c #603737",
",+	c #6E3333",
"'+	c #8A2F2E",
")+	c #A42D27",
"!+	c #C82818",
"~+	c #D32711",
"{+	c #DB2309",
"]+	c #F02004",
"^+	c #F21F02",
"/+	c #F71B01",
"(+	c #F81B01",
"_+	c #F81C02",
":+	c #EE1C01",
"<+	c #E32002",
"[+	c #DA2506",
"}+	c #C12B12",
"|+	c #B32C19",
"1+	c #9F2F24",
"2+	c #6D3538",
"3+	c #643636",
"4+	c #7D3534",
"5+	c #98312C",
"6+	c #C02A1B",
"7+	c #CE2915",
"8+	c #D6260E",
"9+	c #E42304",
"0+	c #E92203",
"a+	c #EC2101",
"b+	c #EB1E00",
"c+	c #EF1E00",
"d+	c #F01E03",
"e+	c #E82104",
"f+	c #DF2306",
"g+	c #D6290B",
"h+	c #B92D16",
"i+	c #A92E1F",
"j+	c #653939",
"k+	c #6D3A34",
"l+	c #88362F",
"m+	c #B52D1F",
"n+	c #C62B17",
"o+	c #CE250E",
"p+	c #E42101",
"q+	c #DF2300",
"r+	c #E62003",
"s+	c #D8260A",
"t+	c #CE2A11",
"u+	c #A02F27",
"v+	c #89302C",
"w+	c #5E3933",
"x+	c #973028",
"y+	c #A92F22",
"z+	c #B42B1B",
"A+	c #C92913",
"B+	c #D3240F",
"C+	c #D4210B",
"D+	c #D5250D",
"E+	c #D8230E",
"F+	c #D82310",
"G+	c #CA2414",
"H+	c #BF2719",
"I+	c #952F2B",
"J+	c #7E3030",
"K+	c #663235",
"L+	c #803230",
"M+	c #923128",
"N+	c #9F2F23",
"O+	c #B52C1C",
"P+	c #C02719",
"Q+	c #C52316",
"R+	c #C92615",
"S+	c #CC2417",
"T+	c #C92519",
"U+	c #B82A1E",
"V+	c #AB2C23",
"W+	c #A02F29",
"X+	c #803333",
"Y+	c #693237",
"Z+	c #693333",
"`+	c #753432",
" @	c #83342C",
".@	c #993126",
"+@	c #A82B25",
"@@	c #B12822",
"#@	c #B6291F",
"$@	c #B82820",
"%@	c #B42922",
"&@	c #9E2F28",
"*@	c #92312D",
"=@	c #863733",
"-@	c #693437",
";@	c #613B35",
">@	c #743334",
",@	c #7D3034",
"'@	c #7A362D",
")@	c #7B322E",
"!@	c #76352F",
"~@	c #603A33",
"                                                                ",
"                                                                ",
"                                                                ",
"                                                                ",
"                                                                ",
"                                                                ",
"                                                                ",
"                        . + @ # $ % & * = -                     ",
"                      ; > , ' ) ! ~ { ] ^ /                     ",
"                    ( _ : < [ } | 1 2 3 4 5 6                   ",
"                  7 8 9 0 a b c d e f g h i j k l               ",
"                m n o p q r s t u v w x y z A B C               ",
"                D E F G H I J K L M N O P Q R S T               ",
"              U V W X Y Z `  ...+.@.#.$.%.&.*.=.-.;.            ",
"              >.,.'.).!.~.{.].^./.(._.:.` <.[.}.|.1.2.          ",
"              3.4.5.6.7.8.9.0.a.b.c.d.e.f.g.h.i.2 j.k.          ",
"              l.m.n.o.p.q.r.s.t.u.v.d.w.x.y.z.A.B.C.D.          ",
"              E.F.G.H.I.J.K.L.M.0.N.O.P.Q.R.h.S.T.U.V.          ",
"              W.X.Y.Z.`. +.+++@+#+/./.$+%+&+*+=+-+;+>+          ",
"              ,+'+)+!+~+{+R.]+^+/+(+_+:+<+[+}+|+1+2+            ",
"              3+4+5+6+7+8+9+0+a+b+c+d+e+f+g+h+i+T j+            ",
"                k+l+m+n+o+f+9+p+q+p+r+f+s+t+5.u+v+              ",
"                  w+x+y+z+A+B+C+D+E+F+G+H+A I+J+K+              ",
"                    L+M+N+O+P+Q+R+S+T+U+V+W+X+Y+                ",
"                    Z+`+ @.@+@@@#@$@%@&@*@=@-@                  ",
"                          ;@>@,@'@)@!@~@                        ",
"                                                                ",
"                                                                ",
"                                                                ",
"                                                                ",
"                                                                ",
"                                                                "};
