/* XPM */
static char * coin1_xpm[] = {
"64 64 615 2",
"  	c None",
". 	c #876700",
"+ 	c #846600",
"@ 	c #846500",
"# 	c #846400",
"$ 	c #836400",
"% 	c #826400",
"& 	c #816400",
"* 	c #856400",
"= 	c #866400",
"- 	c #856500",
"; 	c #836600",
"> 	c #886700",
", 	c #806400",
"' 	c #7D6200",
") 	c #7B6000",
"! 	c #785E00",
"~ 	c #755D00",
"{ 	c #735C00",
"] 	c #725C00",
"^ 	c #715C00",
"/ 	c #755B00",
"( 	c #775B00",
"_ 	c #795C00",
": 	c #7A5D00",
"< 	c #7A5E00",
"[ 	c #7B5F00",
"} 	c #806200",
"| 	c #866500",
"1 	c #856900",
"2 	c #856700",
"3 	c #836500",
"4 	c #7F6300",
"5 	c #7B6100",
"6 	c #775E00",
"7 	c #725B00",
"8 	c #6C5800",
"9 	c #675600",
"0 	c #645500",
"a 	c #625400",
"b 	c #615400",
"c 	c #645300",
"d 	c #675200",
"e 	c #6A5200",
"f 	c #6D5400",
"g 	c #6F5500",
"h 	c #715700",
"i 	c #725900",
"j 	c #745B00",
"k 	c #775D00",
"l 	c #7B5E00",
"m 	c #806000",
"n 	c #836300",
"o 	c #886600",
"p 	c #8B6600",
"q 	c #7F6400",
"r 	c #7B6300",
"s 	c #786100",
"t 	c #755F00",
"u 	c #725D00",
"v 	c #6E5B00",
"w 	c #6A5800",
"x 	c #665600",
"y 	c #5D5300",
"z 	c #5A5100",
"A 	c #595000",
"B 	c #5A4F00",
"C 	c #5C4E00",
"D 	c #5F4D00",
"E 	c #624D00",
"F 	c #644E00",
"G 	c #675000",
"H 	c #695100",
"I 	c #6B5300",
"J 	c #6D5500",
"K 	c #705600",
"L 	c #745800",
"M 	c #785900",
"N 	c #7B5B00",
"O 	c #7E5E00",
"P 	c #816000",
"Q 	c #856200",
"R 	c #876600",
"S 	c #886800",
"T 	c #856600",
"U 	c #776000",
"V 	c #6F5C00",
"W 	c #685A00",
"X 	c #635700",
"Y 	c #5F5500",
"Z 	c #5C5300",
"` 	c #5A5200",
" .	c #585100",
"..	c #565000",
"+.	c #545000",
"@.	c #544F00",
"#.	c #544E00",
"$.	c #544C00",
"%.	c #554B00",
"&.	c #574A00",
"*.	c #594A00",
"=.	c #5B4A00",
"-.	c #5E4B00",
";.	c #604C00",
">.	c #644D00",
",.	c #674E00",
"'.	c #6A4F00",
").	c #6D5000",
"!.	c #705100",
"~.	c #725200",
"{.	c #755400",
"].	c #795800",
"^.	c #7E5C00",
"/.	c #896800",
"(.	c #745E00",
"_.	c #6B5B00",
":.	c #635800",
"<.	c #5D5500",
"[.	c #575300",
"}.	c #535000",
"|.	c #504E00",
"1.	c #4E4D00",
"2.	c #4D4C00",
"3.	c #4E4C00",
"4.	c #504D00",
"5.	c #504C00",
"6.	c #514A00",
"7.	c #524800",
"8.	c #534700",
"9.	c #544700",
"0.	c #574700",
"a.	c #5A4800",
"b.	c #5C4900",
"c.	c #5E4A00",
"d.	c #614A00",
"e.	c #644B00",
"f.	c #674B00",
"g.	c #6A4C00",
"h.	c #6C4D00",
"i.	c #6D4E00",
"j.	c #6F4F00",
"k.	c #735200",
"l.	c #785700",
"m.	c #7C5A00",
"n.	c #805E00",
"o.	c #836100",
"p.	c #8A6800",
"q.	c #866600",
"r.	c #775F00",
"s.	c #6D5B00",
"t.	c #645800",
"u.	c #575400",
"v.	c #535200",
"w.	c #505000",
"x.	c #4D4D00",
"y.	c #494A00",
"z.	c #464800",
"A.	c #444500",
"B.	c #6B4B00",
"C.	c #6C4C00",
"D.	c #6F4E00",
"E.	c #725000",
"F.	c #765300",
"G.	c #7A5600",
"H.	c #7E5A00",
"I.	c #815F00",
"J.	c #856300",
"K.	c #8A6900",
"L.	c #876800",
"M.	c #7E6200",
"N.	c #765E00",
"O.	c #6D5A00",
"P.	c #615600",
"Q.	c #575200",
"R.	c #4C4E00",
"S.	c #4A4C00",
"T.	c #484A00",
"U.	c #424600",
"V.	c #3F4300",
"W.	c #6A4B00",
"X.	c #694B00",
"Y.	c #704D00",
"Z.	c #734E00",
"`.	c #765100",
" +	c #795400",
".+	c #7D5900",
"++	c #815E00",
"@+	c #896600",
"#+	c #886900",
"$+	c #685900",
"%+	c #4F4D00",
"&+	c #484900",
"*+	c #424500",
"=+	c #3E4000",
"-+	c #3B3D00",
";+	c #704C00",
">+	c #724D00",
",+	c #755000",
"'+	c #775200",
")+	c #7B5600",
"!+	c #815C00",
"~+	c #866100",
"{+	c #886400",
"]+	c #8A6A00",
"^+	c #866700",
"/+	c #665800",
"(+	c #5A5300",
"_+	c #524F00",
":+	c #474700",
"<+	c #3F4100",
"[+	c #373A00",
"}+	c #714C00",
"|+	c #744D00",
"1+	c #785000",
"2+	c #7E5600",
"3+	c #835B00",
"4+	c #866000",
"5+	c #896900",
"6+	c #675800",
"7+	c #464700",
"8+	c #404100",
"9+	c #3A3B00",
"0+	c #333500",
"a+	c #734B00",
"b+	c #774D00",
"c+	c #7B5100",
"d+	c #7E5500",
"e+	c #845C00",
"f+	c #886100",
"g+	c #866200",
"h+	c #7F5F00",
"i+	c #796000",
"j+	c #6B5A00",
"k+	c #5B5200",
"l+	c #4E4B00",
"m+	c #434400",
"n+	c #393C00",
"o+	c #2F3200",
"p+	c #774C00",
"q+	c #784C00",
"r+	c #7B5000",
"s+	c #815700",
"t+	c #865E00",
"u+	c #826100",
"v+	c #7C5D00",
"w+	c #6F5B00",
"x+	c #504B00",
"y+	c #424200",
"z+	c #363800",
"A+	c #2A2E00",
"B+	c #764A00",
"C+	c #794D00",
"D+	c #7F5300",
"E+	c #845900",
"F+	c #6C5200",
"G+	c #816500",
"H+	c #745D00",
"I+	c #655500",
"J+	c #564D00",
"K+	c #454300",
"L+	c #343600",
"M+	c #242600",
"N+	c #784A00",
"O+	c #7D4F00",
"P+	c #815500",
"Q+	c #855C00",
"R+	c #886300",
"S+	c #6E5300",
"T+	c #554200",
"U+	c #876A00",
"V+	c #856800",
"W+	c #7E6300",
"X+	c #5C5000",
"Y+	c #4B4500",
"Z+	c #383700",
"`+	c #252800",
" @	c #7D4D00",
".@	c #815200",
"+@	c #855B00",
"@@	c #886200",
"#@	c #745700",
"$@	c #624A00",
"%@	c #876900",
"&@	c #826600",
"*@	c #7A6100",
"=@	c #695700",
"-@	c #544B00",
";@	c #403C00",
">@	c #2A2800",
",@	c #815000",
"'@	c #855A00",
")@	c #856100",
"!@	c #6C5100",
"~@	c #523D00",
"{@	c #806500",
"]@	c #635300",
"^@	c #4A4400",
"/@	c #343200",
"(@	c #1C1A00",
"_@	c #885B00",
":@	c #896200",
"<@	c #705500",
"[@	c #564000",
"}@	c #8B6A00",
"|@	c #866800",
"1@	c #735D00",
"2@	c #5E4E00",
"3@	c #3E3900",
"4@	c #252600",
"5@	c #8D5F00",
"6@	c #8C6300",
"7@	c #805F00",
"8@	c #725700",
"9@	c #594200",
"0@	c #311F00",
"a@	c #705A00",
"b@	c #584900",
"c@	c #322F00",
"d@	c #141900",
"e@	c #8E6400",
"f@	c #8A6400",
"g@	c #755900",
"h@	c #5C4400",
"i@	c #342200",
"j@	c #8B6900",
"k@	c #6D5700",
"l@	c #544400",
"m@	c #2B2500",
"n@	c #050C00",
"o@	c #906700",
"p@	c #8C6600",
"q@	c #795A00",
"r@	c #5E4600",
"s@	c #342400",
"t@	c #8C6800",
"u@	c #7C5F00",
"v@	c #6E5600",
"w@	c #534100",
"x@	c #291F00",
"y@	c #906800",
"z@	c #8C6700",
"A@	c #795B00",
"B@	c #322600",
"C@	c #735600",
"D@	c #594100",
"E@	c #2E1E00",
"F@	c #8E6900",
"G@	c #8A6600",
"H@	c #816200",
"I@	c #745A00",
"J@	c #594600",
"K@	c #2D2700",
"L@	c #8D6500",
"M@	c #846000",
"N@	c #785800",
"O@	c #5F4400",
"P@	c #382300",
"Q@	c #8D6900",
"R@	c #7C6000",
"S@	c #6E5700",
"T@	c #534400",
"U@	c #292600",
"V@	c #8F6300",
"W@	c #8B6300",
"X@	c #866300",
"Y@	c #7C5C00",
"Z@	c #654A00",
"`@	c #442C00",
" #	c #8C6900",
".#	c #675400",
"+#	c #4D4100",
"@#	c #242300",
"##	c #906100",
"$#	c #8D6300",
"%#	c #876400",
"&#	c #7E6000",
"*#	c #6C5000",
"=#	c #523900",
"-#	c #8B6800",
";#	c #735B00",
">#	c #605000",
",#	c #473D00",
"'#	c #1F1F00",
")#	c #905F00",
"!#	c #8D6200",
"~#	c #896500",
"{#	c #826200",
"]#	c #735700",
"^#	c #614800",
"/#	c #4C3800",
"(#	c #896700",
"_#	c #6E5900",
":#	c #594D00",
"<#	c #3F3900",
"[#	c #1C1C00",
"}#	c #8D6000",
"|#	c #846300",
"1#	c #7B5D00",
"2#	c #6D5300",
"3#	c #5B4500",
"4#	c #504900",
"5#	c #383500",
"6#	c #181800",
"7#	c #8A5C00",
"8#	c #885F00",
"9#	c #856000",
"0#	c #6A5100",
"a#	c #533E00",
"b#	c #8D6800",
"c#	c #7E6100",
"d#	c #5E5100",
"e#	c #474300",
"f#	c #303000",
"g#	c #141400",
"h#	c #845500",
"i#	c #845700",
"j#	c #845B00",
"k#	c #855F00",
"l#	c #775900",
"m#	c #664C00",
"n#	c #645400",
"o#	c #524A00",
"p#	c #3D3C00",
"q#	c #282900",
"r#	c #805000",
"s#	c #825500",
"t#	c #855D00",
"u#	c #765700",
"v#	c #6E5100",
"w#	c #675700",
"x#	c #584E00",
"y#	c #464200",
"z#	c #323300",
"A#	c #1F2200",
"B#	c #7C4B00",
"C#	c #7D5000",
"D#	c #805700",
"E#	c #825C00",
"F#	c #825F00",
"G#	c #7E5D00",
"H#	c #876B00",
"I#	c #7E6400",
"J#	c #695900",
"K#	c #5B5300",
"L#	c #4D4A00",
"M#	c #3B3A00",
"N#	c #262700",
"O#	c #794C00",
"P#	c #7C5100",
"Q#	c #7F5700",
"R#	c #825E00",
"S#	c #826B00",
"T#	c #826800",
"U#	c #7E6500",
"V#	c #756000",
"W#	c #5C5400",
"X#	c #424400",
"Y#	c #303200",
"Z#	c #1A1B00",
"`#	c #764900",
" $	c #805A00",
".$	c #835D00",
"+$	c #816600",
"@$	c #7A6200",
"#$	c #725E00",
"$$	c #5C5500",
"%$	c #514E00",
"&$	c #454500",
"*$	c #373900",
"=$	c #764800",
"-$	c #794E00",
";$	c #7C5300",
">$	c #7F5900",
",$	c #835E00",
"'$	c #846700",
")$	c #826500",
"!$	c #7C6200",
"~$	c #655600",
"{$	c #514F00",
"]$	c #393A00",
"^$	c #2A2B00",
"/$	c #794A00",
"($	c #784F00",
"_$	c #7A5400",
":$	c #7F5D00",
"<$	c #816100",
"[$	c #6F5D00",
"}$	c #655800",
"|$	c #595200",
"1$	c #4F4C00",
"2$	c #444600",
"3$	c #2C2D00",
"4$	c #744C00",
"5$	c #744E00",
"6$	c #765200",
"7$	c #785600",
"8$	c #7F6000",
"9$	c #826300",
"0$	c #7C6100",
"a$	c #755E00",
"b$	c #655900",
"c$	c #5D5600",
"d$	c #565300",
"e$	c #434500",
"f$	c #353900",
"g$	c #272C00",
"h$	c #724A00",
"i$	c #714B00",
"j$	c #724E00",
"k$	c #745100",
"l$	c #765600",
"m$	c #7B5C00",
"n$	c #796100",
"o$	c #745F00",
"p$	c #705C00",
"q$	c #585300",
"r$	c #504F00",
"s$	c #494B00",
"t$	c #373B00",
"u$	c #6F4B00",
"v$	c #6F4D00",
"w$	c #704F00",
"x$	c #725300",
"y$	c #735500",
"z$	c #765800",
"A$	c #7E5F00",
"B$	c #806100",
"C$	c #8A6700",
"D$	c #816700",
"E$	c #785F00",
"F$	c #625700",
"G$	c #5E5600",
"H$	c #5A5400",
"I$	c #555200",
"J$	c #353800",
"K$	c #2A2D00",
"L$	c #6C4B00",
"M$	c #6C4E00",
"N$	c #6E5000",
"O$	c #6F5200",
"P$	c #725500",
"Q$	c #775A00",
"R$	c #7F6100",
"S$	c #7D6100",
"T$	c #7D6000",
"U$	c #776100",
"V$	c #565200",
"W$	c #525100",
"X$	c #4F4F00",
"Y$	c #4A4D00",
"Z$	c #444700",
"`$	c #3C3F00",
" %	c #333600",
".%	c #6B4C00",
"+%	c #6B4D00",
"@%	c #6B4E00",
"#%	c #6B5000",
"$%	c #6D5200",
"%%	c #6E5400",
"&%	c #6F5700",
"*%	c #705800",
"=%	c #715800",
"-%	c #6F5800",
";%	c #6C5700",
">%	c #6A5700",
",%	c #685700",
"'%	c #655700",
")%	c #635600",
"!%	c #615500",
"~%	c #535100",
"{%	c #4E4F00",
"]%	c #4B4D00",
"^%	c #474A00",
"/%	c #434600",
"(%	c #3A3E00",
"_%	c #684C00",
":%	c #674C00",
"<%	c #664D00",
"[%	c #654E00",
"}%	c #654F00",
"|%	c #655000",
"1%	c #655100",
"2%	c #645100",
"3%	c #615100",
"4%	c #5F5100",
"5%	c #5D5100",
"6%	c #5B5100",
"7%	c #595100",
"8%	c #515000",
"9%	c #4F5000",
"0%	c #4E4E00",
"a%	c #4C4D00",
"b%	c #484C00",
"c%	c #454900",
"d%	c #414500",
"e%	c #654B00",
"f%	c #624B00",
"g%	c #614C00",
"h%	c #624C00",
"i%	c #614D00",
"j%	c #604D00",
"k%	c #5E4D00",
"l%	c #5D4D00",
"m%	c #5B4D00",
"n%	c #564F00",
"o%	c #554F00",
"p%	c #484B00",
"q%	c #464900",
"r%	c #5F4B00",
"s%	c #604B00",
"t%	c #5C4A00",
"u%	c #5A4A00",
"v%	c #584A00",
"w%	c #534D00",
"x%	c #534E00",
"                                                                                                                                ",
"                                                                                                                                ",
"                                                                                                                                ",
"                                                                                                                                ",
"                                                          . . .                                                                 ",
"                                            + @ # # $ % & & & % $ * = - + ; +                                                   ",
"                                    > + , ' ) ! ~ { ] ] ^ ] { / ( _ : < [ ) ' } $ | >                                           ",
"                                1 2 3 4 5 6 7 8 9 0 a a b a c d e f g h i j k l m n - o p                                       ",
"                            + q r s t u v w x b y z A A A B C D E F G H I J K L M N O P Q = R                                   ",
"                        S T 4 U V W X Y Z `  ...+.@.@.#.$.%.&.*.=.-.;.E >.,.'.).!.~.{.].^.P # . /.                              ",
"                      2 & 5 (._.:.<.[.}.|.1.2.2.3.1.4.5.6.7.8.9.0.a.b.c.d.e.f.g.h.i.j.k.l.m.n.o.= o /.                          ",
"                  p.q.4 r.s.t.<.u.v.w.x.y.z.A.A.                              B.C.C.h.D.E.F.G.H.I.J.> K.                        ",
"                L.- M.N.O.P.Q.w.R.S.T.z.U.V.                                      W.X.C.Y.Z.`. +.+++Q @+>                       ",
"              #+3 5 u $+Y Q.%+&+*+=+-+                                                  ;+>+Z.,+'+)+!+~+{+R                     ",
"            ]+^+' u /+(+_+2.:+<+[+                                                          ;+}+|+1+2+3+4+{+J.                  ",
"          5+^+, (.6+` %+7+8+9+0+                                                                a+b+c+d+e+f+g+h+                ",
"          L.& i+j+k+l+m+n+o+                                                                      p+q+r+s+t+~+u+v+              ",
"        ]+2 5 w+b x+y+z+A+                                                                          B+C+D+E+t+g+h+F+            ",
"        #+G+H+I+J+K+L+M+                                                                              N+O+P+Q+R+u+S+T+          ",
"      U+V+W+v X+Y+Z+`+                                                                                   @.@+@@@o.#@$@          ",
"      %@&@*@=@-@;@>@                                                                                      ,@'@f+)@N !@~@        ",
"      L.{@r.]@^@/@(@                                                                                        _@:@g+O <@[@        ",
"    }@|@q 1@2@3@4@                                                                                          5@6@@@7@8@9@0@      ",
"    }@^+' a@b@c@d@                                                                                            e@f@u+g@h@i@      ",
"    j@T ) k@l@m@n@                                                                                            o@p@J.q@r@s@      ",
"    t@= u@v@w@x@                                                                                              y@z@J.A@r@B@      ",
"    p@{+7@C@D@E@                                                                                              F@G@H@I@J@K@      ",
"    L@f@M@N@O@P@                                                                                              Q@R R@S@T@U@      ",
"    V@W@X@Y@Z@`@                                                                                               #- 6 .#+#@#      ",
"    ##$#%#&#*#=#                                                                                              -#$ ;#>#,#'#      ",
"    )#!#~#{#]#^#/#                                                                                           #(#} _#:#<#[#      ",
"      }#f@|#1#2#3#                                                                                          -#- ) 9 4#5#6#      ",
"      7#8#9#7@A@0#a#                                                                                      b#| c#7 d#e#f#g#      ",
"      h#i#j#k#u+l#m#                                                                                     #(#} ] n#o#p#q#        ",
"        r#s#t#)@O u#v#                                                                                  ^+& N.w#x#y#z#A#        ",
"        B#C#D#E#F#I.G#                                                                              H#V+I#(.J#K#L#M#N#          ",
"          O#P#Q#E#M@M@R#                                                                          S#T#U#V#$+W#|.X#Y#Z#          ",
"          `#O#r+d+ $.$M@Q -                                                                     1 +$@$#$W $$%$&$*$`+            ",
"            =$N+-$;$>$,$Q - 2                                                               ^+'$)$!$^ ~$(+{$7+]$^$              ",
"              /$q+($_$.+:$<$$ - .                                                       q.$ W+*@t [$}$|$1$2$n+3$                ",
"                p+4$5$6$7$Y@8$9$- > /.                                              '$; & 0$a$s.b$c$d$1.e$f$g$                  ",
"                  h$i$j$k$l$M m$O m {#{#9$$ @                                 & 4 !$n$U o$p$J#P.q$r$s$*+t$g$                    ",
"                      u$v$w$!.x$y$z$A@1#A$B$% @ T T '$2 . C$p././.(#. '$D$, M.5 E$u j+/+F$G$H$I$x.z.=+J$K$                      ",
"                        L$C.h.M$N$O$P$#@Q$_ l u@R@R@) 0$c#B$R$c#S$T$) n$U$t 1@p$s.6+P.K#V$W$X$Y$Z$`$ %                          ",
"                            g..%+%@%#%!@$%S+%%g v@v@S@&%*%=%-%k@;%>%,%w#'%)%!%Y $$H$Q.~%{%]%^%/%(%                              ",
"                              X.X._%:%:%:%<%[%[%}%|%|%1%1%1%2%3%4%5%6%7% ...+.8%9%X$0%a%b%c%d%                                  ",
"                                      e%e.f%g%g%h%i%j%D k%l%m%:#x#n%o%@._+{$0%]%p%q%7+/%                                        ",
"                                            r%r%s%r%t%u%v%&.%.-@w%x%_+{$r$0%a%^%U.                                              ",
"                                                                                                                                ",
"                                                                                                                                ",
"                                                                                                                                ",
"                                                                                                                                ",
"                                                                                                                                ",
"                                                                                                                                ",
"                                                                                                                                ",
"                                                                                                                                ",
"                                                                                                                                ",
"                                                                                                                                ",
"                                                                                                                                ",
"                                                                                                                                ",
"                                                                                                                                ",
"                                                                                                                                ",
"                                                                                                                                ",
"                                                                                                                                "};
