/* XPM */
static char * floor4_xpm[] = {
"64 64 8 1",
" 	c #231917",
".	c #241F1C",
"+	c #342823",
"@	c #3C2F2C",
"#	c #454238",
"$	c #0E1D15",
"%	c #152F23",
"&	c #1C3E30",
"                                                                ",
"                                                                ",
"  ......++++++++++++++++++++++++++........        ..++++++++++  ",
"  ......++++++++++++++++++++++++++........        ..++++++++++  ",
"  ..++++@@@@@@@@@@@@@@@@@@@@@@@@@@..@@@@@@@@@@@@@@++++++++++++  ",
"  ..++++@@@@@@@@@@@@@@@@@@@@@@@@@@..@@@@@@@@@@@@@@++++++++++++  ",
"  ....    @@++        ++++..      ++++        ++++        ++@@  ",
"  ....    @@++        ++++..      ++++        ++++        ++@@  ",
"  @@++++++@@@@++@@@@++++++++++++++++++++++++++++++@@@@@@++++@@  ",
"  @@++++++@@@@++@@@@++++++++++++++++++++++++++++++@@@@@@++++@@  ",
"  @@..    ++++..    ..++++          ++      ..++++..      ++@@  ",
"  @@..    ++++..    ..++++          ++      ..++++..      ++@@  ",
"  ++....  ++@@  ......++++........  ++  ......++@@........@@@@  ",
"  ++....  ++@@  ......++++........  ++  ......++@@........@@@@  ",
"  ++....  ++@@........++++........@@++  ......++@@........@@@@  ",
"  ++....  ++@@........++++........@@++  ......++@@........@@@@  ",
"  ++..++@@++@@@@@@++++++++++++++@@@@++@@@@@@@@@@@@@@++++++++++  ",
"  ++..++@@++@@@@@@++++++++++++++@@@@++@@@@@@@@@@@@@@++++++++++  ",
"  ++++####@@@@++######++++####++++++++++######++++......++++++  ",
"  ++++####@@@@++######++++####++++++++++######++++......++++++  ",
"  ++......++++........++++..........++........++++..$$......++  ",
"  ++......++++........++++..........++........++++..$$......++  ",
"  ++..$$%%++++..&&%%%%++@@....%%%%..++%%%%&&&&++##%%%%....##++  ",
"  ++..$$%%++++..&&%%%%++@@....%%%%..++%%%%&&&&++##%%%%....##++  ",
"  ++..$$%%++++%%%%%%%%++@@%%%%%%%%..##%%&&&&%%++##&&%%%%..@@++  ",
"  ++..$$%%++++%%%%%%%%++@@%%%%%%%%..##%%&&&&%%++##&&%%%%..@@++  ",
"  ++++++++@@++++######++@@@@@@@@@@++########++++####@@++++@@++  ",
"  ++++++++@@++++######++@@@@@@@@@@++########++++####@@++++@@++  ",
"  ++++@@@@@@@@@@@@++++++++++++++++++++++++++++@@++++++++++@@++  ",
"  ++++@@@@@@@@@@@@++++++++++++++++++++++++++++@@++++++++++@@++  ",
"  ++..$$%%++++%%%%%%%%++++%%$$$$%%++++%%%%%%%%@@++$$%%$$..@@++  ",
"  ++..$$%%++++%%%%%%%%++++%%$$$$%%++++%%%%%%%%@@++$$%%$$..@@++  ",
"  ++..$$$$++++%%%%&&&&++@@%%%%%%%%++@@%%&&%%%%@@++%%%%$$..@@++  ",
"  ++..$$$$++++%%%%&&&&++@@%%%%%%%%++@@%%&&%%%%@@++%%%%$$..@@++  ",
"  ++..%%%%++++%%&&&&%%++@@%%%%&&&&++@@&&&&%%%%@@++%%%%$$..@@++  ",
"  ++..%%%%++++%%&&&&%%++@@%%%%&&&&++@@&&&&%%%%@@++%%%%$$..@@++  ",
"  ++++++@@@@@@@@++++++@@@@++######++@@@@@@####@@++++++++++@@++  ",
"  ++++++@@@@@@@@++++++@@@@++######++@@@@@@####@@++++++++++@@++  ",
"  ++++######++######++++++++++++++++++++++++++@@++++++++++..++  ",
"  ++++######++######++++++++++++++++++++++++++@@++++++++++..++  ",
"  ++..%%%%##++%%%%%%%%++++%%%%%%%%++++%%%%%%$$@@++%%%%%%$$..++  ",
"  ++..%%%%##++%%%%%%%%++++%%%%%%%%++++%%%%%%$$@@++%%%%%%$$..++  ",
"  ++..%%%%##@@&&&&%%%%++++&&%%%%%%++##%%%%%%$$++++%%%%$$$$..++  ",
"  ++..%%%%##@@&&&&%%%%++++&&%%%%%%++##%%%%%%$$++++%%%%$$$$..++  ",
"  ++..$$%%++@@&&&&&&&&####&&&&%%%%++##%%&&&&$$++##%%%%$$$$##@@  ",
"  ++..$$%%++@@&&&&&&&&####&&&&%%%%++##%%&&&&$$++##%%%%$$$$##@@  ",
"  ++++++++++@@++++######++####++@@++########++@@@@####++++++@@  ",
"  ++++++++++@@++++######++####++@@++########++@@@@####++++++@@  ",
"  ++@@@@@@@@@@++++++++++++++@@@@@@++####++++++@@@@@@@@@@@@@@@@  ",
"  ++@@@@@@@@@@++++++++++++++@@@@@@++####++++++@@@@@@@@@@@@@@@@  ",
"  ++....%%++++&&&&%%%%++++%%%%%%%%++##%%%%%%%%++++%%%%$$..++@@  ",
"  ++....%%++++&&&&%%%%++++%%%%%%%%++##%%%%%%%%++++%%%%$$..++@@  ",
"  ++..%%%%##@@%%%%%%%%++@@%%%%%%%%++++%%&&&&%%..##%%%%$$..++@@  ",
"  ++..%%%%##@@%%%%%%%%++@@%%%%%%%%++++%%&&&&%%..##%%%%$$..++@@  ",
"  ++..######@@$$$$$$$$##@@%%&&&&$$##++%%&&%%%%++##%%%%$$..##++  ",
"  ++..######@@$$$$$$$$##@@%%&&&&$$##++%%&&%%%%++##%%%%$$..##++  ",
"  ..@@@@@@@@@@++@@@@@@@@@@@@@@@@@@##++++++++++@@@@@@@@######++  ",
"  ..@@@@@@@@@@++@@@@@@@@@@@@@@@@@@##++++++++++@@@@@@@@######++  ",
"  ....@@@@@@@@@@@@++++++++++..............++@@@@++++++@@@@@@++  ",
"  ....@@@@@@@@@@@@++++++++++..............++@@@@++++++@@@@@@++  ",
"  ++++++++++++++++++++++....++++++++++++++++++++++++++++++++++  ",
"  ++++++++++++++++++++++....++++++++++++++++++++++++++++++++++  ",
"                                                                ",
"                                                                "};
