/* XPM */
static char * floor2_xpm[] = {
"64 64 4 1",
" 	c #2A2628",
".	c #241F21",
"+	c #1D191B",
"@	c #322E30",
"    ........        ..              ........              ..    ",
"    ........        ..              ........              ..    ",
"    ..    ..      ....              ....++++      ..      ..    ",
"    ..    ..      ....              ....++++      ..      ..    ",
"......    ..@@          ........    ++++++++++++..        ++    ",
"......    ..@@          ........    ++++++++++++..        ++    ",
"    ..    ..@@@@@@        ..          ++    ++  ..        ++++++",
"    ..    ..@@@@@@        ..          ++    ++  ..        ++++++",
"    ................      ..    @@@@@@++        ..  @@@@  ++++..",
"    ................      ..    @@@@@@++        ..  @@@@  ++++..",
"    ++    ....          ....    ......++  ..    ........++++++  ",
"    ++    ....          ....    ......++  ..    ........++++++  ",
"  @@++      ..            ..    ....    ..            ++++@@    ",
"  @@++      ..            ..    ....    ..            ++++@@    ",
"@@@@++        ....  ..    ..    ....                ++  @@@@....",
"@@@@++        ....  ..    ..    ....                ++  @@@@....",
"....++++..          ..    ..........        ....    @@@@@@  ....",
"....++++..          ..    ..........        ....    @@@@@@  ....",
"      ....        @@..    ......................    ..        ..",
"      ....        @@..    ......................    ..        ..",
"      ....        @@++......            ..++..    ....          ",
"      ....        @@++......            ..++..    ....          ",
"  @@@@        @@@@@@++++                ++++@@    ..    ..    ..",
"  @@@@        @@@@@@++++                ++++@@    ..    ..    ..",
"@@@@      ....++++++++@@    ..          ++++  @@@@..    ..    ..",
"@@@@      ....++++++++@@    ..          ++++  @@@@..    ..    ..",
"....    ....      ++++@@@@      ++++++++++++..  ..      ....  ..",
"....    ....      ++++@@@@      ++++++++++++..  ..      ....  ..",
"....      ..      ..      @@  ..++              ..    ....    ..",
"....      ..      ..      @@  ..++              ..    ....    ..",
"..++++++....      ..          ....        ....      ......    ..",
"..++++++....      ..          ....        ....      ......    ..",
"..++        ..    ......@@@@@@  ..        ............      ....",
"..++        ..    ......@@@@@@  ..        ............      ....",
"..++          ..        ..  @@  ......      ..++++++        ....",
"..++          ..        ..  @@  ......      ..++++++        ....",
"                        ..              ..++++++++++    ..  ++..",
"                        ..              ..++++++++++    ..  ++..",
"        @@@@@@          ........        ++++          ..++++++..",
"        @@@@@@          ........        ++++          ..++++++..",
"    ............@@      ..    ....          ..        ......  ..",
"    ............@@      ..    ....          ..        ......  ..",
"..    ....    ..@@@@@@  ++    ........        ..                ",
"..    ....    ..@@@@@@  ++    ........        ..                ",
"..    ....    ..++++++++++    ..                  ....          ",
"..    ....    ..++++++++++    ..                  ....          ",
"....  ++++++......      ++++....      @@..      @@..++  @@@@@@  ",
"....  ++++++......      ++++....      @@..      @@..++  @@@@@@  ",
"..                      ++++      @@@@....      @@..++      ....",
"..                      ++++      @@@@....      @@..++      ....",
"....++                ..++++    ..........  @@@@@@  ++++++......",
"....++                ..++++    ..........  @@@@@@  ++++++......",
"....++@@                ++      ........++++++      ......    ..",
"....++@@                ++      ........++++++      ......    ..",
"......@@@@  ..    ........                ......    ..    ......",
"......@@@@  ..    ........                ......    ..    ......",
"..      ....        ....            ..      ..........    ......",
"..      ....        ....            ..      ..........    ......",
"..      ....        ....@@      ....              ....    ......",
"..      ....        ....@@      ....              ....    ......",
"    ....++++@@@@@@  ....  @@@@  ..                  ......      ",
"    ....++++@@@@@@  ....  @@@@  ..                  ......      ",
"    ....++++++++................    ......@@@@@@  ........      ",
"    ....++++++++................    ......@@@@@@  ........      "};
