/* XPM */
static char * floor2_xpm[] = {
"64 64 374 2",
"  	c #1B171A",
". 	c #151114",
"+ 	c #151113",
"@ 	c #191517",
"# 	c #1F1A1C",
"$ 	c #221E20",
"% 	c #231F21",
"& 	c #1E1A1C",
"* 	c #1C181A",
"= 	c #1D181C",
"- 	c #1D191C",
"; 	c #1D191B",
"> 	c #1D181A",
", 	c #171416",
"' 	c #171315",
") 	c #1A1619",
"! 	c #1E191D",
"~ 	c #1C181C",
"{ 	c #1B1718",
"] 	c #1C181B",
"^ 	c #1C1819",
"/ 	c #191618",
"( 	c #110E0F",
"_ 	c #0C080B",
": 	c #120D10",
"< 	c #181415",
"[ 	c #141013",
"} 	c #191516",
"| 	c #161215",
"1 	c #181518",
"2 	c #231E22",
"3 	c #1C1719",
"4 	c #171415",
"5 	c #211D1F",
"6 	c #1F1B1D",
"7 	c #191619",
"8 	c #1F1A1D",
"9 	c #201C1E",
"0 	c #211C20",
"a 	c #171317",
"b 	c #151214",
"c 	c #181417",
"d 	c #191519",
"e 	c #191417",
"f 	c #1F1C1F",
"g 	c #201B1F",
"h 	c #1A1618",
"i 	c #0D0A0B",
"j 	c #0F0C0E",
"k 	c #191518",
"l 	c #1E1A1E",
"m 	c #1F1B1F",
"n 	c #231E21",
"o 	c #1F1B1E",
"p 	c #211D20",
"q 	c #1F1A1E",
"r 	c #201B1E",
"s 	c #130F12",
"t 	c #1A1518",
"u 	c #151213",
"v 	c #141113",
"w 	c #1B181B",
"x 	c #1B1619",
"y 	c #181416",
"z 	c #151112",
"A 	c #141111",
"B 	c #0E0B0C",
"C 	c #0E0B0D",
"D 	c #100C0F",
"E 	c #131012",
"F 	c #211B1E",
"G 	c #1D181B",
"H 	c #181516",
"I 	c #1A171A",
"J 	c #161316",
"K 	c #211C1F",
"L 	c #161213",
"M 	c #191617",
"N 	c #1D1A1C",
"O 	c #1B1719",
"P 	c #201B1D",
"Q 	c #262224",
"R 	c #241E20",
"S 	c #151215",
"T 	c #1A161A",
"U 	c #181517",
"V 	c #221E21",
"W 	c #171316",
"X 	c #110D0E",
"Y 	c #0C090A",
"Z 	c #151115",
"` 	c #1D191D",
" .	c #201C1F",
"..	c #1B161A",
"+.	c #1A1517",
"@.	c #1E191B",
"#.	c #181315",
"$.	c #131011",
"%.	c #131113",
"&.	c #141012",
"*.	c #121011",
"=.	c #100E0F",
"-.	c #120E10",
";.	c #0E0C0E",
">.	c #1C171A",
",.	c #171215",
"'.	c #171417",
").	c #1C1718",
"!.	c #252023",
"~.	c #241F21",
"{.	c #201C20",
"].	c #1E1B1D",
"^.	c #0D090B",
"/.	c #140F11",
"(.	c #171216",
"_.	c #1E191C",
":.	c #221E22",
"<.	c #241F22",
"[.	c #161414",
"}.	c #141112",
"|.	c #161314",
"1.	c #141011",
"2.	c #120F10",
"3.	c #1A1616",
"4.	c #110E10",
"5.	c #110D0F",
"6.	c #0F0C0F",
"7.	c #0C090C",
"8.	c #161315",
"9.	c #161214",
"0.	c #1B181A",
"a.	c #1C191B",
"b.	c #171314",
"c.	c #1E181A",
"d.	c #181418",
"e.	c #1B1618",
"f.	c #201C1D",
"g.	c #191416",
"h.	c #120E11",
"i.	c #161216",
"j.	c #1E1A1D",
"k.	c #1A1718",
"l.	c #110E11",
"m.	c #130F11",
"n.	c #1E1A1B",
"o.	c #211C1E",
"p.	c #242022",
"q.	c #1A1719",
"r.	c #201A1C",
"s.	c #080508",
"t.	c #1C171B",
"u.	c #221D20",
"v.	c #221D1F",
"w.	c #141114",
"x.	c #161114",
"y.	c #1A1519",
"z.	c #131013",
"A.	c #110D10",
"B.	c #1F1B1C",
"C.	c #1B1819",
"D.	c #171214",
"E.	c #1B171B",
"F.	c #120F11",
"G.	c #130F10",
"H.	c #0E0C0D",
"I.	c #161415",
"J.	c #292325",
"K.	c #262124",
"L.	c #181317",
"M.	c #0B090A",
"N.	c #140F12",
"O.	c #0B080A",
"P.	c #090607",
"Q.	c #100D0F",
"R.	c #151314",
"S.	c #120F12",
"T.	c #272125",
"U.	c #272224",
"V.	c #2A2527",
"W.	c #231D1F",
"X.	c #171414",
"Y.	c #100D0E",
"Z.	c #0F0D0E",
"`.	c #201B20",
" +	c #0C0A0C",
".+	c #120E0F",
"++	c #0F0C0D",
"@+	c #1A1617",
"#+	c #110F10",
"$+	c #151013",
"%+	c #272225",
"&+	c #272124",
"*+	c #211B1F",
"=+	c #1E191A",
"-+	c #1D191A",
";+	c #201C21",
">+	c #0C090B",
",+	c #0A0809",
"'+	c #1F1A1B",
")+	c #0F0C0C",
"!+	c #100C0E",
"~+	c #1D1A1B",
"{+	c #191418",
"]+	c #0E0A0D",
"^+	c #1D1A1D",
"/+	c #0F0B0D",
"(+	c #231F22",
"_+	c #252024",
":+	c #1F1B20",
"<+	c #161313",
"[+	c #181414",
"}+	c #221D21",
"|+	c #262123",
"1+	c #1F191D",
"2+	c #0F0B0E",
"3+	c #211D21",
"4+	c #251F22",
"5+	c #0D0A0D",
"6+	c #100E10",
"7+	c #1C171C",
"8+	c #130E10",
"9+	c #1C161A",
"0+	c #211B20",
"a+	c #1B1818",
"b+	c #080507",
"c+	c #110F11",
"d+	c #1C1818",
"e+	c #080607",
"f+	c #181316",
"g+	c #241F23",
"h+	c #231E1F",
"i+	c #241F20",
"j+	c #221D1E",
"k+	c #252122",
"l+	c #141014",
"m+	c #211D1D",
"n+	c #0A080A",
"o+	c #080506",
"p+	c #201A1E",
"q+	c #1C181D",
"r+	c #221C1F",
"s+	c #221E1F",
"t+	c #241F1F",
"u+	c #1F1C1D",
"v+	c #161113",
"w+	c #100C0D",
"x+	c #221F1F",
"y+	c #252022",
"z+	c #1C1619",
"A+	c #272324",
"B+	c #262121",
"C+	c #090608",
"D+	c #221C20",
"E+	c #292326",
"F+	c #201C1C",
"G+	c #282225",
"H+	c #241E22",
"I+	c #262125",
"J+	c #211C1D",
"K+	c #0D0A0C",
"L+	c #292426",
"M+	c #1E1A1A",
"N+	c #201A1D",
"O+	c #231E20",
"P+	c #0C080A",
"Q+	c #1C191C",
"R+	c #1E1819",
"S+	c #2B2629",
"T+	c #131010",
"U+	c #181314",
"V+	c #171515",
"W+	c #1B1617",
"X+	c #242021",
"Y+	c #131112",
"Z+	c #252021",
"`+	c #292327",
" @	c #262223",
".@	c #191616",
"+@	c #231D22",
"@@	c #231F20",
"#@	c #110E0E",
"$@	c #242023",
"%@	c #1D1719",
"&@	c #1E1B1C",
"*@	c #191515",
"=@	c #1F1B1B",
"-@	c #1E1B1E",
";@	c #1E191E",
">@	c #1E181C",
",@	c #282325",
"'@	c #292425",
")@	c #211C21",
"!@	c #120D0F",
"~@	c #171313",
"{@	c #241E23",
"]@	c #272222",
"^@	c #141010",
"/@	c #1D1819",
"(@	c #1D181D",
"_@	c #231D21",
":@	c #201B1C",
"<@	c #1C191A",
"[@	c #251F23",
"}@	c #292428",
"|@	c #252125",
"1@	c #242024",
"2@	c #1D1919",
"3@	c #252124",
"4@	c #141213",
"5@	c #272227",
"6@	c #262023",
"7@	c #252123",
"8@	c #282428",
"9@	c #272226",
"0@	c #120E12",
"a@	c #1D1A1A",
"b@	c #090708",
"c@	c #231F23",
"d@	c #1E1B1B",
"e@	c #262024",
"f@	c #282326",
"g@	c #0E0A0C",
"h@	c #171318",
"i@	c #151012",
"j@	c #1F191C",
"k@	c #120F13",
"l@	c #161317",
"m@	c #282327",
"n@	c #221D22",
"o@	c #252025",
"p@	c #100D10",
"q@	c #171114",
"r@	c #151014",
"s@	c #161115",
"t@	c #211E20",
"u@	c #251F24",
"v@	c #1B161B",
"w@	c #282227",
"x@	c #2B262A",
"y@	c #2A2529",
"z@	c #262226",
"A@	c #241E21",
"B@	c #0F0B0F",
"C@	c #151315",
"D@	c #201D20",
"E@	c #1D171A",
"F@	c #231D20",
"G@	c #262225",
"H@	c #1A1417",
"I@	c #19151A",
"J@	c #191316",
"K@	c #130E11",
"L@	c #0E0B0E",
"M@	c #0D0B0C",
"N@	c #1B1519",
"O@	c #2E292D",
"P@	c #1B181C",
"Q@	c #090609",
"R@	c #070406",
"S@	c #0D090C",
"T@	c #2C262B",
"U@	c #2B252A",
"V@	c #2A2428",
"W@	c #1F1A1F",
"X@	c #262025",
"Y@	c #181519",
"Z@	c #0B0809",
"`@	c #0A0609",
" #	c #140F13",
".#	c #2C2629",
"+#	c #151216",
"@#	c #0A0709",
"##	c #262126",
"$#	c #282226",
"    . + @ @ # $ % & * = - - ; > , ' ) ! ~ & { ]   ) ^ / ( _ : < [ ) * } , | 1 ] 2 $ 3 4 & 5 6 ; 7 ! 8 9 0 ~ a b c d e , ] ! f g ",
"h . i j k & l m n 0 o p q = 8 r | s e t 3 t u v w x y z A B C D E F G H   I J d g K H L M N O 6 x P Q R # ' S T ) x | U V 6 y W ",
"X Y C Z k ] - ] 7 ` K  ...a +.8 @.# K o { y #.$.%.&.*.( =.s -.;.Y +.>.y ) ] ,.c ~ I , * h '.U t @ ).$ !.~.h W    .; ' = {.].@ | ",
"^./.(.7 @ e > h W _.r '.S S E v * ~.:.<.@.[.< ' }.|.1.2.3.8 W 4.5.j 6.7.8.8 9.y , b W @ 0.! a.0.h b.c.> y     O > ] > >.| d.) e.",
"2.k x ^ f.r x y y g._.8 - ] | 6.h.i.~ j.6 k.W l.E |.m.8.n.o.o [ 4.J e &.| p.q.y O O J . O U h ` & h r.g.s.6./ q G t & h 5.E k t.",
"s U ; h ] u.v.] c w.x.e t t y.c k z..   G G ' 2.1.$.A.i.  B.C.4 . ' G u.q ~.r , ^ y @ G * H h - * * - D.j s 9.) 0 P g l E.8.c O ",
"&.+ e * ] * r $ K _.) | W c E.y.F.+ | | W @ ' }.G.G.&.+ W h $.H.s 2.-.W w - G h 4 I.} 3 x 9./ ; , 4 W b d.d.a.G _.J.K.2 l   - 3 ",
"> G y h 3 y h - - & 7 J , ) g 1 [ [ L.  ) @ ; 4 M.Y G.| c S N.( j O.P.Q.b.U , R.8.^ { @ @ ' @ H z.+ 8.+ S.0.;   + G T.U.<.u.5 * ",
"~.V.W.k E | * 8 _.; W | c   - j.l '.. q j.O X.Y.Z.[ , k `.J a 1 h. +Y..+++( 8.} 3 @ ).3 h q.>.@+( #+W ' X $+. F.z.| u.%+K 8 | y ",
"q &+&+*+y O 8 G =+=+> 8 * * -+; ;+o c E.  q.&.>+&.{.o , T q.d t.t q.@ z Y.,+6.y '+b.< O b.y * >.4 . Z >.y -.E )+F...I V G J !+$+",
"T g u.j.* O h ' y +.> $ ; M ~+$ K a.@ | W 8.9.z.1 p p   Z , {+8.4 3 -+H b j ]+Z.z }.< > ' b y b a ~ ^+o r * 3 Q./+9.8 (+- . h.-.",
"9 - k )   G k 9.W 9.} 5 _.; j._+8 S O - h $.s T - ` :+q t.<+[+y , U k %.F.h , ++Y < M w.F.U   [ + d ` }+|+o   '.&.+ 1+ .q.@ S 2.",
"o p q c   g o O h y { / * r ..]   . T l o M u h ) T 6 q.4 ).[+u 9.O   ' . b Z.)+C u 8.S.6.&.- ! & c . k , 2+Q.c.# ] 8 8 * k d W ",
"] 3+:.)   F 4+@.-+].t.x @.; . D | E.  ] j. ./ ' ' { n.M 4 B.H 9.y h ]   '.4.>+Y 5+6+| S k a + ; 0 _.) 1 7+W Q.8+9+8 ; # 6 8 0+l ",
"O p V ] _.P x G P B.6 9   b 2+z.;  .{.G )   ] h 4 a+O y ..o -+k.^   | W I.b j b+H.W y b e ! i.c+'.] * <.T.5 r W d.m 5 8 6 # >.m ",
">.{+- 0 I i.i.L.] ) h ..S.&.k ) N n p @ W c h 5 q.O   n.d+; G }.O ; ' [ &.L ++e+i ,.. E f+` ` Z E U O = j.}+<.j.|   5 r _.> ] x ",
"m j.; j.- * O I T ..] ] ] 9 (+}+& 6 5 _.W . h P   a ) 6 d+} @ &.e.k y H { b.Y P.Y u 2+D 1 ] g - e + b.I ~ ! x k @ W U ] >.& l t.",
"m g+h+o.j.i+j+j.q ~ ) 8 u.~.k+~.$ U y ] ] k _.# f+'.k _.-+9./ @++.,.l+h m+< n+o+Y / . h.0._.p+  h.D + p t.  q++ -.k ) ] _.; 1+r+",
"k.n.    s+h+t+5 ; |.s >.5 * * u+8 l - U _.r >.O Z j.r > y v+o.# C.* 0.9 # b.O.o+w+  / j F.  8 J Q., ] g -   ` ] W _.o K 8 >.] 3 ",
"e.C.* * x+s+5 9 * 8.W e.& 6 r g+y+<.<.!.r r z+E w.V A+6 m.@+h+- y e.B.B+# |.O.C+( k J v m.Q.1 G +.O p r 0   | - % u.D+E+K.- >.^ ",
"> @+& F+f.  k h e   >.B.E+G+h+H+n !.I+2 ] ] @ A.H   ]   y _.r   h ,.h J+& '.K+C+v T , G ` s   o.] k ]  .r+k ) 1 ] 3+q n _+l k c ",
"& ).@ M * d.c U W G t.` L+r O a.c E.0 8 T   [ }.M+& ; & s+p <.K ] @ < @+O * $.P.i.2 ^+  1 | ; ] k W   >.r u.l   N+r - G *   '.Z ",
"O+f.* ; ] / e d w _.p+r F+> m 0 n q u.n._.o $+1.q.; 0.N B.v.u.v.P } E / % P }.P+,.; Q+) k @+@+1 ] ~ 6 6 S K n - 8 n - [ R+# k x ",
"r 8 r P 9 e s + ) j. .P B.# |+<.n %+S+f.; $ < T+@ U+9.@ } V+y ; @.W+h _.|+X+Y+4._.t `  . .C.* d.l+k o o 7 ) ] W W u.p . W+G @ j.",
") ! }+r 6 * Q.j   ` o j.) ) @.Z+6 n `+K { ; +.L y { z + 8.' h O > @ _.8 5  @.@v o k T 0 +@r   ; ' v   k ! 6 d.= g j.O @ ' e #.c ",
") d 7 h ) ] 9.C c =  .p q ! ' G @@v.p ! . 2.b.h g.3 ' #@b.O h x 3 O > w G x k ~ ] k k $@0   3 '+8 h 8.' e t.t.}+n ; O d j.' f+#.",
"t.| | T k ) * E j v ) l ) k [ N.- o q 1+B #@W+B.* e %@.+T+-+' 9.* &@n.  ] c ` }+2 q _.K.! J > _.0 o h ) ) ` q   G @.v.o.P k.q.@.",
"] Z ) - | . ] ] ^.O.s | W | a i.| , - N 4 T+*@=@@.@ n.M B .+X.} e.& c J b i.-@0 2 7   ;@T h >@ .2  .q j.- j.j.= E.- ,@'@# -+=+; ",
"] y   k , f+x ] i.7.K+F.| h ) U c E ' 4 ; , y {   @ |.8.8.( X u + y * @ #+H ; q T [ . S I   x p K G D+:.~ ] j.)@5 u.y+i+y+r -+@ ",
"J . W W 7 G q - - E.S.j B L * h i.k h u &.' < *@* n.< 9.@ L !@F.v &.* -+~@n.2 - c f+N.+ '.k [ ~ >./ )@{@q o _.~ y+]@j+X+h+8 O @ ",
"y O h A v O K p O+p l c C Y.9.W y ) @.{ G.v+^@h 6 V   ' < x c &.&.q.) 1./@r `.! ..@ s {+[ | , l (@  _@u.r y J ] @.# f.%  .8.W U ",
"] ] @ . &.' >.5 n V $@ .j...9.9.' $.y # @.b.$.k y.j.u.K <.j.~ 0 t.{.B.*@v.r V o l+W g   . c ) 6 - ) {. .r c J j...) :@> K * 9.) ",
"c W 9.8.@ {+. h 5 % K 8 $@o k - O L b.<@x v . J   O F [@}@|@q I+1@ .2@i+j+!.p.k w   l .., , ) ! ! g 0 l o h+y+3@l e s+&@@ 6 f._.",
"k . b , k c . . - 0  .= l 7+a j.9 +.9.b F.4@  & -   = 8 +@5@p I+_+1 @ G+8 9 U   -@k 8 j.; ! >.- q ! q q 8 6@G+u.>.' K o.< B._._.",
"W e ] ] @ ' c y.U ; 7@r   d ~ n.M m.5.2.9.h 8 ] * u.q ) T = 3+_+8@; t H+k   W o 0 ` 8 x - j.W U W d V n 8 u.<.}+@.$+h O b.B.h b.",
"z.h 4 , T x l ! / } * O+- - $ 0.m.n+M.+ 6 T - 8  .V t.I ] j.9@9@`+$ & = h ; Q+}+0 ;@- _.G G S 0@. - g 5 % $@q ) 6 t . I.^ @.9.|.",
"&.L 8.F.k - ) - G a@@ - <.i+f.0.B b@( y o j.8 r+8 ! ..'._.[@2 (+G+_+_+& 8 ; v p+`.  ..k   ..  )   r K o 5 I+c@] ] >.... >.t 9.d ",
"9.. 8.k W S S   _.; ; '.] 9 d@c ;.K+b k  .u.o 6 G E.8 g u.e@H+K 9 f@_+t 8 ; ,.! ) - 1 c ~ t.- o ! j.K }+}+>@ .p = ) >.t.c [ e.t ",
"k ) 4 8.[ F.h.b ; & V - c I n.@+Q.g@. 1 u.!.H+_.e.) 1+_@3+g 2 0 ! n j.y j.b c m o g+d.b    .G ] L.W - q 0 > > y.0@| c y.h@S &.Q.",
"; >.W c #.i@5.h.W y.y , @ &.y * F.K+h.k ~ K }+n v.j@- m 8  .g+p ! j.K & p d.l.c g+m Z k@l@}+u.G ] o g+:.(+K r e s [ | 0@F.h W d ",
"t b 5.+ d.>.| j m.2.l.c W [ + < $.K+[ G k + 1 }+G+O+}+m@n@d ` o   - g ; _.] t.m.. s l.) 7+p r q c@2 <.}+2 o@}+j.W y G G x ! ! j.",
"|.p@Y.Q.Z.F.4.S.[ ( m.W k ) c @+u g@q@# * w.'.r K & K.9@:.I c >.) i.) w ) F.r@W h.p@| c k g & 6 :.] f+0 >@* g+K.q ] * ; r l E.) ",
"u 9.Q.g@j D 5.' * k . b k ] k O W [ e ' y W k O k G !.g+$@3@r ]   , ..- - . A.6+v a - - ]  .m t.k d.h.a = q.>.o.j.9.y G ) J c c ",
"[ m.-.l.2+( 2.9.' L.  G , &.y ) c ) j.o _@o.x   O *+-   g+5@` | ` _.h # = . / (.4.h 2 :.  _.o K <@>.7 z.J 0 r n u.s@8.k @ ; T u ",
"Q.j h.* , Q.Q.W . . _.= G @ s b 8.2++ t@_+!.j.g ~.<.9 O o $@g ` - G 6 ` y [ 8.k q.' y q u@}+j.! ] -   ) & O+$ I+_+= 7 1 k G U < ",
"j | d ] * U . 9.@ ,.D.J ) G e z.Y.j Q.-.9.5 !.V K   9 0.O o.q j.; O ] v@(.c W b j.) 4.+ 6 e@[@u.~ k ..t., < - I+3@V o   >.q.}.# ",
"w.h G   - l ) e.} + x.c 0.g.w.y [ y c d.G ; p T.q | t 3+u.G d.. 3 v./ a j.I W 9.$+..] m.5.r w@x@y@{.0 ! [ S./ >.q z@2 ,.x 6 -+y.",
") * E.  d ] | s 9.F.. e > * b E c U 9.) _.x O I+0 S.c 2 2 G   ) k K % 1@0 - - j.k .   k w.r T.}@A@c@o@` 8.y , S.Q.) g W 9.G ; e ",
">.! ; j.) W &.B@C@i.w.+ ,.x G 9.m.L b y @ #.&.h D+o K _.5 0 =   h >.$@9@0 8 2 K ] W E y.  G o 0 = q 0 !.6 ; c d./ c ) b 5.) x & ",
"t.L.a ! ! J . W W   y.1 '.c ] {+&.-.b.{ 6 8 e.' 3 0 o  .5 & * O e } H+- | * }+o c | f+W ] K 7+q D@<.j.o _+~ a - g+, j v c 3+>.x ",
"O , d y.| z.. y f+O G / I W S z.. E 9.b.c k I 8 >.W [ j.n  . .^+  h _.v.y W ] '.h 2 2 ' | r+G ) (+g+V 3+j.k E.y.d.p@8.6 g ` ~ E@",
"  k W '.c L.[ l+J y O ]  .) S D l.}.' k t D.s f+t ) m.) K j.g  . .j.Q+$ _.. l+| j.K.V G 9.h F@0.* * g o = ! - a 5.z.t._.& W W _.",
"s c c   ! - . . >.e g.8 V `.d.0@h.6++ 1 - O m.v + b | k ] ) k y 8.K G@j.) , t._.k }+n }+) | o G / v [ v c ..O @ h t.d.y {+{+E ) ",
"l+- g t S '.W t > O H@>.^+}+{+c k d 7 W a I@| . d.f+| v x _.> J@x.@ - q L.x m@3+c & u.K ] @ [ S.9.' , c y., q.= ) c h.. N.&.$.. ",
") ` c ,.. | >.t 9.t e ' = o G x # }+T W w.. . [ . - q 5.5.e.>._.e.,.W _.G o }+7 ; ] 0  .>.g+g+0 l g - | f+  y...] | K@  a.+ f+x ",
"Q.d.S l.D.. ,.] d.a { e #.k k | ! &+/ L@M@C | ) W ..- N@A.-.z * 8 f+>.3 & = W s * p 8 !.K <.O@K.(+9@..4.k * ] t.g {+. g p k ) j.",
"z.) ! W i@+ ] 8 m P@O _., 9.e c U o.] Q@R@) f+y.K m   x D.!+G.1.r ` G & >.>.>.G W >.o.K.I+p K.m@[@_+~ ) _+V 3+g+2 W S t.@ < 8.) ",
"x.t _.q ..&.g+3 &.o j.] L.&.9.t k . S A.S@y.) ' ) g _+ .t m.N.&.z+f@` ; E@k   0 >.@ O `+T@) k  ._+= q |@}@U@K l ~ e * q.d.O S E ",
"  t c y.k | q ] . >.D+o x e @ b e , w.W C s@8 / )   j.g p e.&., { f@] d k | ) ! Q+1 q V@e@) W@8 _.;@<.5@9@X@t.! _.d >...! G J b ",
"= ..G k t ..W e x c K r g.e =   e.e.k k 6.C S.S.c b ] ! u.g 8.x y t c #.) W e k d J _.V@(@Y@3+<.V H+o ! c@9@3@[@0 I k ) c y.l+&.",
"q p+r F@F@] s@i.L.c o ] 5.&.e.o.u.*+x k 0@Z@`@k 2 t...t.o - t G , . c y & ] h >.3 >.O 2 ~ c _+0 q m@f 7 6 g+T@G+- - - ) | c f+| ",
"# <.!.<.K ! ..c W . Q.-.K+^.#.> ; 8 a z. #S@8+p 2 8 G q 8 +.i@W ) 8.E ' t = @ 3 A@_@_.G g+:.}@X@..j.` ` K t u.6@n (+K >.! r 0 j.",
"_.!..#f@3+p+= / ] W g@2.g@b+2+z.1.| +#l.@#O.G ] , >.0 2 K o b m.) O s s L._.r e c p ] | }+##n@c@m o _+] j.G # }+g+q u._.= _+u.<.",
"..~ [@<.H+0 r ! x ] ! o . >+L@5.X ,.A.Q.6.F.8 t h e ] %+3+~ c g@+ x | k   ] j.! k x ) s f+j.3+1@}+:.$#%+l ) q.] >.J {.o t.I+m@_+"};
