/* XPM */
static char * wall_haut2_xpm[] = {
"64 64 11 1",
" 	c #2E2A25",
".	c #3C3129",
"+	c #1B1916",
"@	c #454135",
"#	c #23201D",
"$	c #555145",
"%	c #140E0E",
"&	c #231F19",
"*	c #1A1512",
"=	c #312220",
"-	c #3F3628",
"   .+.           .+@      ....................  ..........      ",
"@@@@+@@@@@@@@@@@@@+@@@@@@@@@@@@@@@@. ............@@@@@@@@@@@@@@@",
"    +             +               @......... ....@              ",
"#.....................##........##@  .....  . ...@##............",
"$$$$$$@@$$$@@@@@@$$$$$$#$$$$$$$@@#@   ...... ....@#@@$$@@@$$$$$$",
"                       +        @#@.  ........   @#@            ",
"                       +        @#@@@$$$$$$$$$@@@@#@            ",
"#####  #   ##   ##     +        @#                #$      ####  ",
"#######################+########$..................$############",
"++++++++++++++++++++++++++++++++$$$$$@@@@@@@@@@@$$$$++++++++++++",
"%%%%%%%%%%%%%%%%%%%%%%%%%%%%%%%%##                #%%%%%%%%%%%%%",
"&%&******%*******%&******%****%%##................#%%%**********",
"&%&&&&&&&%&&&&&&&%&&&&&&&%&&&&%%##................##%%&&&&*&&&&&",
"=%&====&%%&=====&%=====&&%&==&&%##............... ##%%&&&&&&&===",
"%%%%%%%%%%%%%%%%%%%%%%%%%%%%%%%%%#...............  #%%%%%%%%%%%%",
"===---%--===&&=====---%--=&&==&%%#...............  #%&&-%-==&&==",
"======%======*========%====*==&%%#............... ##%&==%====*==",
"======%======*&=======%====*&=%%%#................##%%==%====*&=",
"&&&&&&&&**%%***&&&&&&&&&**---%%%%# ...............##%%%%&&%%***&",
"--%=----=*===-----%=----=*===&&%## ............... #%%&&--===---",
"==%======*========%======*===&&%## ............... #%%&&========",
"==&======%&=======&======%==&&%%##  .............. #%%&&==&=====",
"&&&&&&&&%%&&***&&&&&&&&&%%*%%%%%##  .............. #%%%%%&&&***&",
"--==&&====--&==---==&&====&=&&&%##  .............  #%%&&==--&==-",
"=====&======&========&====&==&&%##                ##%&&&====&===",
"=====%======%========%====%==&%%%%%%%###########%%%%%&&%====%===",
"&&&***%%%%%%%%%&&&&***%%%%%%%%%%##@#####@@@@@@@@@@#%%%%%%%%%%%**",
"=&====---%---====&====---%-==&%%##.@@@@@..........##%%&=-----===",
"=&=======%=======&=======%====&%##................##%%&&========",
"=&&======&=======&&======&====&%##................##%%&=========",
"&***%%%%&&%&&&&&&***%%%%&&&&%%%%#   ..............##%%%%%%%&&***",
"===---%--===&&=====---%--=&&=&&%##  ..............##%&&&%-==&&==",
"======%======*========%====*==&%#   .............. #%&&&%====*==",
"======%======*&=======%====*&=%%#  .......... .... #%&&&%====*&=",
"&&&&&&&&**%%***&&&&&&&&&***%%%%%##................ #%%%%%&%%***&",
"--%=----=*===-----%=----=*=--&&%##................ #%%&---===---",
"==%======*========%======*===&&%##............ ...##%%&=========",
"==&======%&=======&======%===&&%##............  ..##%%&===&=====",
"&&&&&&&&%%&&***&&&&&&&&&%%**%%%%##............  ..##%%%%&&&&***&",
"--==&&====--&==---==&&====&=&&%%##.          .....##%%&&==--&==-",
"=====&======&========&====&==&%%%%%##             ##%&=&====&===",
"=====%======%========%====%==&%%%%%%############%%%%%&=%====%===",
"&&&***%%%%%%%%%&&&----%%%%%%%%%%%#@@@@@@@@@@@@@@@@#%%%%%%%%%%%%&",
"=&====---%---====&====---%-==&&%##................#%%&&=-----===",
"=&=======%=======&=======%==&&&%##................#%%&&&========",
"=&&======&=======&&======&===&&%##................#%%&&=========",
"&***%%%%&&%&&&&&&***%%%%&&&&%%%%# ................##%%%%%%%&&&&&",
"===---%--===&&=====---%--=&&==&%#  .............. ##%%&&%-==&&==",
"======%======*========%====*=&&%#  .............   #%%&&%====*==",
"======%======*&=======%====*&&&%#  ... .........   #%%&=%====*&=",
"&&&&&&&&**%%***&&&&&&&&&***%%%%%#  ... ........... #%%%%%&%%***&",
"--%=----=*===-----%=----=*=--&%%#  ... ........... #%&&---===---",
"==%======*========%======*===&%%##...  ....... ...##%&&=========",
"==&======%&=======&======%==&&%%##...  ....... ...##%&&===&=====",
"&&&&&&&&%%&&***&&&&&&&&&%%**%%%%##...  ...........##%%%%%&&&*&&&",
"--==&&====--&==---==&&====&==&%%##.... ...........##%&&&==--&==-",
"=====&======&========&====&==&&%##.... ...........##%&&&====&===",
"=====%======%========%====%==&&%##................##%&&%====%===",
"#############################%%%##................ #%%%%########",
" #        ..   .    #         #%##................ #%#  ....   .",
".#..   .............#  ...... #%#  ...............##%# .........",
"$+$$$$$$$@@@$$$$$$$$+$$$$@@@@.#%#   ............. ##%#.@@@@@$$$$",
" +                  +     ##+.#%## .............  ##%#.+##      ",
" +   #     #        +#    ##+.#%##  ............  ##%#@+##  ##  "};
