/* XPM */
static char * wall_ouest1_xpm[] = {
"64 64 122 2",
"  	c #070707",
". 	c #080808",
"+ 	c #11100F",
"@ 	c #131211",
"# 	c #1C1A17",
"$ 	c #2E2924",
"% 	c #3A3028",
"& 	c #3C3129",
"* 	c #3D332A",
"= 	c #423D32",
"- 	c #211F1A",
"; 	c #1D1A17",
"> 	c #2D2924",
", 	c #302B26",
"' 	c #3B3129",
") 	c #393028",
"! 	c #322C26",
"~ 	c #2E2A24",
"{ 	c #211E1A",
"] 	c #1D1B17",
"^ 	c #3C322A",
"/ 	c #2F2B25",
"( 	c #322D27",
"_ 	c #413D32",
": 	c #2E2A25",
"< 	c #312D27",
"[ 	c #201E1A",
"} 	c #2C2823",
"| 	c #1B1916",
"1 	c #1F1D19",
"2 	c #1F1C19",
"3 	c #2F2A25",
"4 	c #332F28",
"5 	c #121110",
"6 	c #2D2823",
"7 	c #382E27",
"8 	c #3A3129",
"9 	c #403C31",
"0 	c #201E19",
"a 	c #090909",
"b 	c #0C0C0B",
"c 	c #13110F",
"d 	c #181411",
"e 	c #221E1A",
"f 	c #25211C",
"g 	c #25221D",
"h 	c #1C1916",
"i 	c #2B2722",
"j 	c #3F3B30",
"k 	c #111010",
"l 	c #1D1B18",
"m 	c #2C2824",
"n 	c #302B25",
"o 	c #322E27",
"p 	c #211E1B",
"q 	c #201D19",
"r 	c #111110",
"s 	c #201D1A",
"t 	c #403D32",
"u 	c #1E1B18",
"v 	c #090808",
"w 	c #312E27",
"x 	c #403D31",
"y 	c #322E28",
"z 	c #131210",
"A 	c #392F27",
"B 	c #3B3229",
"C 	c #0A0909",
"D 	c #0D0C0B",
"E 	c #141311",
"F 	c #231F1B",
"G 	c #24221D",
"H 	c #1C1A16",
"I 	c #2D2923",
"J 	c #393129",
"K 	c #3E3A2F",
"L 	c #1E1C18",
"M 	c #221F1C",
"N 	c #332E27",
"O 	c #2B2823",
"P 	c #1F1C18",
"Q 	c #090908",
"R 	c #2D2925",
"S 	c #141211",
"T 	c #2D2A25",
"U 	c #1A1815",
"V 	c #382F27",
"W 	c #3B322A",
"X 	c #3E3A30",
"Y 	c #0F0E0D",
"Z 	c #14110F",
"` 	c #1A1612",
" .	c #231F1A",
"..	c #24221C",
"+.	c #2B2723",
"@.	c #2E2923",
"#.	c #372D26",
"$.	c #3D392F",
"%.	c #1E1C19",
"&.	c #24201C",
"*.	c #332E28",
"=.	c #2A2722",
"-.	c #28251F",
";.	c #3F3B31",
">.	c #27241F",
",.	c #3F3C31",
"'.	c #221F1B",
").	c #312C26",
"!.	c #312B26",
"~.	c #2C2924",
"{.	c #332F29",
"].	c #24211D",
"^.	c #35312A",
"/.	c #312D26",
"(.	c #413E32",
"_.	c #100F0D",
":.	c #161512",
"<.	c #22201B",
"[.	c #23211C",
"}.	c #24211C",
"|.	c #3C392F",
"1.	c #343029",
"                                                                                                            . + @ # $ % & * = - ",
"                                                                                                            . + @ ; > , ' * = - ",
"                                                                                                            . + @ ; > , ' * = - ",
"                                                                                                            . + @ ; $ ) & * = - ",
"                                                                                                            . + @ ; > ! ' * = - ",
"                                                                                                            . + @ ; ~ % & * = { ",
"                                                                                                            . + @ ] ~ % ' ^ = { ",
"                                                                                                            . + @ ] > / / ( _ { ",
"                                                                                                            . + @ ] > : : < _ [ ",
"                                                                                                            . + @ ; } : : < _ [ ",
"                                                                                                            . + @ | 1 > : < _ [ ",
"                                                                                                            . + @ | 2 > : < _ [ ",
"                                                                                                            . + @ ] } 3 / 4 _ [ ",
"                                                                                                            . + 5 # 6 7 8 _ 9 0 ",
"                                                                                                              a a b c d e f g # ",
"                                                                                                            . + 5 h i > 7 8 j 1 ",
"                                                                                                            . k @ l m : n o _ 0 ",
"                                                                                                            . k @ | 1 m : < _ 0 ",
"                                                                                                            . k @ | ] p > < _ q ",
"                                                                                                            . k @ ] i > : < _ q ",
"                                                                                                            . r @ | s > : < t q ",
"                                                                                                            . r @ | u > : < t 1 ",
"                                                                                                            . r @ | u > : < t 1 ",
"                                                                                                            . r @ | 1 > : < t 1 ",
"                                                                                                            v 5 @ l } : : w t 1 ",
"                                                                                                            v 5 @ u > : : o x 1 ",
"                                                                                                            v 5 @ u > : 3 y x 1 ",
"                                                                                                            . + z ; } 3 A B j 1 ",
"                                                                                                              a C D E 2 e F G H ",
"                                                                                                            . + 5 # i m I J K L ",
"                                                                                                            v 5 @ u > } M N 9 1 ",
"                                                                                                            v 5 @ L O p } y 9 2 ",
"                                                                                                            v 5 @ L O [ > y 9 P ",
"                                                                                                            v 5 @ L > > : y 9 P ",
"                                                                                                            Q 5 @ L > : : y 9 L ",
"                                                                                                            Q 5 @ L > : > y 9 L ",
"                                                                                                            Q 5 @ L R } p o 9 L ",
"                                                                                                            Q 5 @ L R } [ o 9 L ",
"                                                                                                            Q 5 @ L R : > y 9 L ",
"                                                                                                            Q 5 @ L > : : y 9 L ",
"                                                                                                            Q 5 S | [ T : y 9 L ",
"                                                                                                            Q 5 S | 2 : 3 4 9 L ",
"                                                                                                            Q + z U u $ V W X L ",
"                                                                                                              a C b Y Z `  ...| ",
"                                                                                                            Q + 5 ; +.@.#.8 $.l ",
"                                                                                                            a 5 S %.: } &.*.9 L ",
"                                                                                                            a 5 S 2 : : =.-.;.u ",
"                                                                                                            a 5 S 2 : : } >.;.u ",
"                                                                                                            a 5 S %.> : : o ,.l ",
"                                                                                                            a 5 S | '.: : 4 ,.l ",
"                                                                                                            a 5 S %.m : : 4 j l ",
"                                                                                                            a 5 S %.> : : ).V ; ",
"                                                                                                            a 5 E | { : : !.#.; ",
"                                                                                                            a 5 E | [ : : !.#.; ",
"                                                                                                            a 5 S 2 ~.: : !.#.# ",
"                                                                                                            a 5 S 2 : : : ).V # ",
"                                                                                                            a 5 S 1 R > : 4 X ] ",
"                                                                                                            a 5 S 1 +.p > {.j ] ",
"                                                                                                            a 5 S 1 +.l { 4 j ] ",
"                                                                                                            a 5 E 1 T i ].^.j ] ",
"                                                                                                            a + z L } /.9 (.$.; ",
"                                                                                                              a C b _.:.<.[.}.| ",
"                                                                                                            a + @ U q } > y |.# ",
"                                                                                                            a 5 E 2 > : : 1.j # "};
