/* XPM */
static char * wall_est1_xpm[] = {
"64 64 122 2",
"  	c #1C1A17",
". 	c #3F3B30",
"+ 	c #343029",
"@ 	c #2E2A25",
"# 	c #2D2924",
"$ 	c #1F1C19",
"% 	c #141311",
"& 	c #121110",
"* 	c #090909",
"= 	c #070707",
"- 	c #3C392F",
"; 	c #322E28",
"> 	c #2C2823",
", 	c #201D19",
"' 	c #1A1815",
") 	c #131211",
"! 	c #11100F",
"~ 	c #1B1916",
"{ 	c #24211C",
"] 	c #23211C",
"^ 	c #22201B",
"/ 	c #161512",
"( 	c #100F0D",
"_ 	c #0C0C0B",
": 	c #0A0909",
"< 	c #1D1A17",
"[ 	c #3D392F",
"} 	c #413E32",
"| 	c #403C31",
"1 	c #312D26",
"2 	c #1E1C18",
"3 	c #131210",
"4 	c #1D1B17",
"5 	c #35312A",
"6 	c #24211D",
"7 	c #2B2722",
"8 	c #2D2A25",
"9 	c #1F1D19",
"0 	c #332F28",
"a 	c #211E1A",
"b 	c #1D1B18",
"c 	c #2B2723",
"d 	c #141211",
"e 	c #332F29",
"f 	c #211E1B",
"g 	c #3E3A30",
"h 	c #2D2925",
"i 	c #382F27",
"j 	c #312C26",
"k 	c #372D26",
"l 	c #312B26",
"m 	c #2C2924",
"n 	c #201E1A",
"o 	c #1E1C19",
"p 	c #2C2824",
"q 	c #3F3C31",
"r 	c #221F1B",
"s 	c #322E27",
"t 	c #1E1B18",
"u 	c #3F3B31",
"v 	c #27241F",
"w 	c #28251F",
"x 	c #2A2722",
"y 	c #332E28",
"z 	c #24201C",
"A 	c #3A3129",
"B 	c #2E2923",
"C 	c #090908",
"D 	c #24221C",
"E 	c #231F1A",
"F 	c #1A1612",
"G 	c #14110F",
"H 	c #0F0E0D",
"I 	c #3B322A",
"J 	c #2E2924",
"K 	c #2F2A25",
"L 	c #1F1C18",
"M 	c #090808",
"N 	c #2B2823",
"O 	c #332E27",
"P 	c #221F1C",
"Q 	c #3E3A2F",
"R 	c #393129",
"S 	c #2D2923",
"T 	c #080808",
"U 	c #1C1A16",
"V 	c #24221D",
"W 	c #231F1B",
"X 	c #221E1A",
"Y 	c #0D0C0B",
"Z 	c #3B3229",
"` 	c #392F27",
" .	c #403D31",
"..	c #403D32",
"+.	c #312E27",
"@.	c #312D27",
"#.	c #111110",
"$.	c #201D1A",
"%.	c #413D32",
"&.	c #111010",
"*.	c #201E19",
"=.	c #302B25",
"-.	c #382E27",
";.	c #1C1916",
">.	c #25221D",
",.	c #25211C",
"'.	c #181411",
").	c #13110F",
"!.	c #2D2823",
"~.	c #2F2B25",
"{.	c #322D27",
"].	c #423D32",
"^.	c #3C322A",
"/.	c #3B3129",
"(.	c #3A3028",
"_.	c #2E2A24",
":.	c #3D332A",
"<.	c #3C3129",
"[.	c #211F1A",
"}.	c #322C26",
"|.	c #393028",
"1.	c #302B26",
"  . + @ @ # $ % & * = = = = = = = = = = = = = = = = = = = = = = = = = = = = = = = = = = = = = = = = = = = = = = = = = = = = = = ",
"  - ; # > , ' ) ! * = = = = = = = = = = = = = = = = = = = = = = = = = = = = = = = = = = = = = = = = = = = = = = = = = = = = = = ",
"~ { ] ^ / ( _ : * = = = = = = = = = = = = = = = = = = = = = = = = = = = = = = = = = = = = = = = = = = = = = = = = = = = = = = = ",
"< [ } | 1 > 2 3 ! * = = = = = = = = = = = = = = = = = = = = = = = = = = = = = = = = = = = = = = = = = = = = = = = = = = = = = = ",
"4 . 5 6 7 8 9 % & * = = = = = = = = = = = = = = = = = = = = = = = = = = = = = = = = = = = = = = = = = = = = = = = = = = = = = = ",
"4 . 0 a b c 9 d & * = = = = = = = = = = = = = = = = = = = = = = = = = = = = = = = = = = = = = = = = = = = = = = = = = = = = = = ",
"4 . e # f c 9 d & * = = = = = = = = = = = = = = = = = = = = = = = = = = = = = = = = = = = = = = = = = = = = = = = = = = = = = = ",
"4 g 0 @ # h 9 d & * = = = = = = = = = = = = = = = = = = = = = = = = = = = = = = = = = = = = = = = = = = = = = = = = = = = = = = ",
"  i j @ @ @ $ d & * = = = = = = = = = = = = = = = = = = = = = = = = = = = = = = = = = = = = = = = = = = = = = = = = = = = = = = ",
"  k l @ @ m $ d & * = = = = = = = = = = = = = = = = = = = = = = = = = = = = = = = = = = = = = = = = = = = = = = = = = = = = = = ",
"< k l @ @ n ~ % & * = = = = = = = = = = = = = = = = = = = = = = = = = = = = = = = = = = = = = = = = = = = = = = = = = = = = = = ",
"< k l @ @ a ~ % & * = = = = = = = = = = = = = = = = = = = = = = = = = = = = = = = = = = = = = = = = = = = = = = = = = = = = = = ",
"< i j @ @ # o d & * = = = = = = = = = = = = = = = = = = = = = = = = = = = = = = = = = = = = = = = = = = = = = = = = = = = = = = ",
"b . 0 @ @ p o d & * = = = = = = = = = = = = = = = = = = = = = = = = = = = = = = = = = = = = = = = = = = = = = = = = = = = = = = ",
"b q 0 @ @ r ~ d & * = = = = = = = = = = = = = = = = = = = = = = = = = = = = = = = = = = = = = = = = = = = = = = = = = = = = = = ",
"b q s @ @ # o d & * = = = = = = = = = = = = = = = = = = = = = = = = = = = = = = = = = = = = = = = = = = = = = = = = = = = = = = ",
"t u v > @ @ $ d & * = = = = = = = = = = = = = = = = = = = = = = = = = = = = = = = = = = = = = = = = = = = = = = = = = = = = = = ",
"t u w x @ @ $ d & * = = = = = = = = = = = = = = = = = = = = = = = = = = = = = = = = = = = = = = = = = = = = = = = = = = = = = = ",
"2 | y z > @ o d & * = = = = = = = = = = = = = = = = = = = = = = = = = = = = = = = = = = = = = = = = = = = = = = = = = = = = = = ",
"b [ A k B c < & ! C = = = = = = = = = = = = = = = = = = = = = = = = = = = = = = = = = = = = = = = = = = = = = = = = = = = = = = ",
"~ D E F G H _ : * = = = = = = = = = = = = = = = = = = = = = = = = = = = = = = = = = = = = = = = = = = = = = = = = = = = = = = = ",
"2 g I i J t ' 3 ! C = = = = = = = = = = = = = = = = = = = = = = = = = = = = = = = = = = = = = = = = = = = = = = = = = = = = = = ",
"2 | 0 K @ $ ~ d & C = = = = = = = = = = = = = = = = = = = = = = = = = = = = = = = = = = = = = = = = = = = = = = = = = = = = = = ",
"2 | ; @ 8 n ~ d & C = = = = = = = = = = = = = = = = = = = = = = = = = = = = = = = = = = = = = = = = = = = = = = = = = = = = = = ",
"2 | ; @ @ # 2 ) & C = = = = = = = = = = = = = = = = = = = = = = = = = = = = = = = = = = = = = = = = = = = = = = = = = = = = = = ",
"2 | ; # @ h 2 ) & C = = = = = = = = = = = = = = = = = = = = = = = = = = = = = = = = = = = = = = = = = = = = = = = = = = = = = = ",
"2 | s n > h 2 ) & C = = = = = = = = = = = = = = = = = = = = = = = = = = = = = = = = = = = = = = = = = = = = = = = = = = = = = = ",
"2 | s f > h 2 ) & C = = = = = = = = = = = = = = = = = = = = = = = = = = = = = = = = = = = = = = = = = = = = = = = = = = = = = = ",
"2 | ; # @ # 2 ) & C = = = = = = = = = = = = = = = = = = = = = = = = = = = = = = = = = = = = = = = = = = = = = = = = = = = = = = ",
"2 | ; @ @ # 2 ) & C = = = = = = = = = = = = = = = = = = = = = = = = = = = = = = = = = = = = = = = = = = = = = = = = = = = = = = ",
"L | ; @ # # 2 ) & M = = = = = = = = = = = = = = = = = = = = = = = = = = = = = = = = = = = = = = = = = = = = = = = = = = = = = = ",
"L | ; # n N 2 ) & M = = = = = = = = = = = = = = = = = = = = = = = = = = = = = = = = = = = = = = = = = = = = = = = = = = = = = = ",
"$ | ; > f N 2 ) & M = = = = = = = = = = = = = = = = = = = = = = = = = = = = = = = = = = = = = = = = = = = = = = = = = = = = = = ",
"9 | O P > # t ) & M = = = = = = = = = = = = = = = = = = = = = = = = = = = = = = = = = = = = = = = = = = = = = = = = = = = = = = ",
"2 Q R S p 7   & ! T = = = = = = = = = = = = = = = = = = = = = = = = = = = = = = = = = = = = = = = = = = = = = = = = = = = = = = ",
"U V W X $ % Y : * = = = = = = = = = = = = = = = = = = = = = = = = = = = = = = = = = = = = = = = = = = = = = = = = = = = = = = = ",
"9 . Z ` K > < 3 ! T = = = = = = = = = = = = = = = = = = = = = = = = = = = = = = = = = = = = = = = = = = = = = = = = = = = = = = ",
"9  .; K @ # t ) & M = = = = = = = = = = = = = = = = = = = = = = = = = = = = = = = = = = = = = = = = = = = = = = = = = = = = = = ",
"9  .s @ @ # t ) & M = = = = = = = = = = = = = = = = = = = = = = = = = = = = = = = = = = = = = = = = = = = = = = = = = = = = = = ",
"9 ..+.@ @ > b ) & M = = = = = = = = = = = = = = = = = = = = = = = = = = = = = = = = = = = = = = = = = = = = = = = = = = = = = = ",
"9 ..@.@ # 9 ~ ) #.T = = = = = = = = = = = = = = = = = = = = = = = = = = = = = = = = = = = = = = = = = = = = = = = = = = = = = = ",
"9 ..@.@ # t ~ ) #.T = = = = = = = = = = = = = = = = = = = = = = = = = = = = = = = = = = = = = = = = = = = = = = = = = = = = = = ",
"9 ..@.@ # t ~ ) #.T = = = = = = = = = = = = = = = = = = = = = = = = = = = = = = = = = = = = = = = = = = = = = = = = = = = = = = ",
", ..@.@ # $.~ ) #.T = = = = = = = = = = = = = = = = = = = = = = = = = = = = = = = = = = = = = = = = = = = = = = = = = = = = = = ",
", %.@.@ # 7 4 ) &.T = = = = = = = = = = = = = = = = = = = = = = = = = = = = = = = = = = = = = = = = = = = = = = = = = = = = = = ",
", %.@.# f 4 ~ ) &.T = = = = = = = = = = = = = = = = = = = = = = = = = = = = = = = = = = = = = = = = = = = = = = = = = = = = = = ",
"*.%.@.@ p 9 ~ ) &.T = = = = = = = = = = = = = = = = = = = = = = = = = = = = = = = = = = = = = = = = = = = = = = = = = = = = = = ",
"*.%.s =.@ p b ) &.T = = = = = = = = = = = = = = = = = = = = = = = = = = = = = = = = = = = = = = = = = = = = = = = = = = = = = = ",
"9 . A -.# 7 ;.& ! T = = = = = = = = = = = = = = = = = = = = = = = = = = = = = = = = = = = = = = = = = = = = = = = = = = = = = = ",
"  >.,.X '.)._ * * = = = = = = = = = = = = = = = = = = = = = = = = = = = = = = = = = = = = = = = = = = = = = = = = = = = = = = = ",
"*.| %.A -.!.  & ! T = = = = = = = = = = = = = = = = = = = = = = = = = = = = = = = = = = = = = = = = = = = = = = = = = = = = = = ",
"n %.0 ~.K > 4 ) ! T = = = = = = = = = = = = = = = = = = = = = = = = = = = = = = = = = = = = = = = = = = = = = = = = = = = = = = ",
"n %.@.@ # $ ~ ) ! T = = = = = = = = = = = = = = = = = = = = = = = = = = = = = = = = = = = = = = = = = = = = = = = = = = = = = = ",
"n %.@.@ # 9 ~ ) ! T = = = = = = = = = = = = = = = = = = = = = = = = = = = = = = = = = = = = = = = = = = = = = = = = = = = = = = ",
"n %.@.@ @ > < ) ! T = = = = = = = = = = = = = = = = = = = = = = = = = = = = = = = = = = = = = = = = = = = = = = = = = = = = = = ",
"n %.@.@ @ # 4 ) ! T = = = = = = = = = = = = = = = = = = = = = = = = = = = = = = = = = = = = = = = = = = = = = = = = = = = = = = ",
"a %.{.~.~.# 4 ) ! T = = = = = = = = = = = = = = = = = = = = = = = = = = = = = = = = = = = = = = = = = = = = = = = = = = = = = = ",
"a ].^./.(._.4 ) ! T = = = = = = = = = = = = = = = = = = = = = = = = = = = = = = = = = = = = = = = = = = = = = = = = = = = = = = ",
"a ].:.<.(._.< ) ! T = = = = = = = = = = = = = = = = = = = = = = = = = = = = = = = = = = = = = = = = = = = = = = = = = = = = = = ",
"[.].:./.}.# < ) ! T = = = = = = = = = = = = = = = = = = = = = = = = = = = = = = = = = = = = = = = = = = = = = = = = = = = = = = ",
"[.].:.<.|.J < ) ! T = = = = = = = = = = = = = = = = = = = = = = = = = = = = = = = = = = = = = = = = = = = = = = = = = = = = = = ",
"[.].:./.1.# < ) ! T = = = = = = = = = = = = = = = = = = = = = = = = = = = = = = = = = = = = = = = = = = = = = = = = = = = = = = ",
"[.].:./.1.# < ) ! T = = = = = = = = = = = = = = = = = = = = = = = = = = = = = = = = = = = = = = = = = = = = = = = = = = = = = = ",
"[.].:.<.(.J   ) ! T = = = = = = = = = = = = = = = = = = = = = = = = = = = = = = = = = = = = = = = = = = = = = = = = = = = = = = "};
