/* XPM */
static char * wall_corner1_xpm[] = {
"64 64 8 1",
" 	c None",
".	c #1B1916",
"+	c #555145",
"@	c #3C3129",
"#	c #2E2A25",
"$	c #454135",
"%	c #23201D",
"&	c #140E0E",
"                                               .+@@##.+@$#######",
"                                               .+@@@#.+@$###$$$$",
"                                               .+@@@#.+@$###$###",
"                                               .+@@##.+@$###$%%@",
"                                               .+@@##.+@$###$%$$",
"                                               .+@@##.+@$###$%$#",
"                                               .+@@@#.+@$$$$$%$#",
"                                               .+@@@#.+@#####%+#",
"                                               .+@@@#.+@@@@@@@+%",
"                                               .+@@@#.+++++++++.",
"                                               .+@@@#.#######%&&",
"                                               .+@@@#.$@@@@@@%&&",
"                                               .+@@@#.$@@@@@@%%&",
"                                               .+@@@#.$@@@@@#%%&",
"                                               .+@@##.$@@@@@##%&",
"                                               .+@@##.$@@@@@##%&",
"                                               .+@@##.+@@@@@#%%&",
"                                               .+@@##.+@@@@@@%%&",
"                                               .+@@##.+@@@@@@%%&",
"                                               .+@@##.+@@@@@@#%&",
"                                               .+@@##.$@@@@@@#%&",
"                                               .+@@##.$@@@@@@#%&",
"                                               .+@@@#.$@@@@@@#%&",
"                                               .+@@@#.$@@@@@##%&",
"                                               .+@@@#.$######%%&",
"                                               .+@@@#.%%%%%&&&&&",
"                                               .+@@@#.++++$$$%&&",
"                                               .+@@@#.+@@@@@@%%&",
"                                               .+@#@#.$@@@@@@%%&",
"                                               .+@#@#.$@@@@@@%%&",
"                                               .+@###.$@@@@@@%%&",
"                                               .+@###.$@@@@@@%%&",
"                                               .+@###.$@@@@@@#%&",
"                                               .+@###.$@@@@@@#%&",
"                                               .+@@@#.$@@@@@@#%&",
"                                               .+@@@#.$@@@@@@#%&",
"                                               .+@@@#.$@@#@@@%%&",
"                                               .+@@@#.$@@##@@%%&",
"                                               .+@@@#.$@@##@@%%&",
"                                               .+@@@#.$##@@@@%%&",
"                                               .+@@@#.$######%%&",
"                                               .+@@@#.%%%%%&&&&&",
"                                               .+@@@#.+++$$$$%&&",
"                                               .+@@@#.+@@@@@@%&&",
"                                               .+@@@#.+@@@@@@%&&",
"                                               .+@@##.+@@@@@@%&&",
"                                               .+@@##.+@@@@@@%%&",
"                                               .+@@##.+@@@@@#%%&",
"                                               .+@@##.$@@@@###%&",
"                                               .+@###.$@@@@###%&",
"                                               .+@###.$@@@@@@#%&",
"                                               .+@###.$@@@@@@#%&",
"                                               .+@@##.$@@#@@@%%&",
"                                               .+@@##.$@@#@@@%%&",
"                                               .+@@##.$@@@@@@%%&",
"                                               .+@@##.$@@@@@@%%&",
"                                               .+@@##.$@@@@@@%%&",
"                                               .$@@##.$@@@@@@%%&",
"                                               .$@@@#.$@@@@@@#%&",
"                                               .$@@@#.$@@@@@@#%&",
"                                               .$@@@#.$@@@@@@%%&",
"                                               .$@@@#.$@@@@@#%%&",
"                                               .+@@@#.$@@@@##%%&",
"                                               .+@@##.$@@@@##%%&"};
