/* XPM */
static char * wall_coin4_xpm[] = {
"64 64 8 1",
" 	c None",
".	c #1B1916",
"+	c #2E2A25",
"@	c #454135",
"#	c #3C3129",
"$	c #555145",
"%	c #070707",
"&	c #23201D",
"                                                       .++++@#@.",
"                                                       .++++@#@.",
"                                                       .++++@#@.",
"                                                       .++++@#@.",
"                                                       .++++@#$.",
"                                                       .++++@#$.",
"                                                       .....+...",
"                                                       .++++@#$.",
"                                                       .++++@#$.",
"                                                       .++++@#$.",
"                                                       .++++@#$.",
"                                                       .++++@#$.",
"                                                       .++++@#$.",
"                                                       .++++@#@.",
"                                                       .++++@#@.",
"                                                       .++++@#@.",
"                                                       .++++@#@.",
"                                                       .++++@#@.",
"                                                       .++++@#@.",
"                                                       .++++@#@.",
"                                                       .++++@#@.",
"                                                       .++++@#$.",
"                                                       .++++@#$.",
"                                                       ..+++@#$.",
"                                                       ..+++@#$.",
"                                                       %....+...",
"                                                       .++++@#$.",
"                                                       .++++@#$.",
"                                                       .++++@#$.",
"                                                       ..+++@#@.",
"                                                       ..+++@#@.",
"                                                       .++++@#@.",
"                                                       .++++@#@.",
"                                                       .++++@#@.",
"                                                       .++++@#@.",
"                                                       .++++@#@.",
"                                                       .++++@#@.",
"                                                       .++++@#$.",
"                                                       .++++@#$.",
"                                                       .++++@#$.",
"                                                       .++++@#$.",
"                                                       .++++@#$.",
"                                                       .++++@#$.",
"                                                       .++++@#$.",
"                                                       .++++@#$.",
"                                                       ..+++@#@.",
"                                                       ..+++@#@.",
"                                                       .++++@#@.",
"                                                       .++++@#@.",
"                                                       .++++@#@.",
".....%..............%.................%.................++++@#@.",
".++++%+++++++++++...%+++++.++..+++++++%.++....+++++..+++++++@#@.",
"+++++.++..++++++++++%+++++++++++++..++%+++++++++++++++++++++@#$.",
"++++#.+.+++++..++++#%#.++++++++++++..@.+++++++++++++++++++++@#$.",
"++++#.#++++++++++++#.#+..++++++++++++@.+++++++++++++++++++++@#$.",
"@@@@@.@@@@@@@@@@@@@@.@@@@@@@#####@@@@@.@@@@@@@@@@@@@@@@@@+++@#$.",
"+++++.++++++++++++++.+++++++++++++++++.+++++++++++++++++@+++@#$.",
"#########&&##############&#######&&###################&&@+++@#$.",
"$$@@$$$$$$&$$$$$$$$$$@@$$&$$$$$$$$&@@@$$$$$$$$$$@@@$$@@&@+++@#$.",
"++++++++++.++++++++++++++.++++++++.+++++++++++++++++++@&@+++@#$.",
"++++++++++.++++++++++&+++.++++++++.+++++++++++++++++++@&@@@@@#$.",
"++&++&&&&&.++++++++++&+++.&&++++++.++++&++++&&&&++++++$&+++++#$.",
"&&&&&&&&&&.&&&&&&&&&&&&&&.&&&&&&&&.&&&&&&&&&&&&&&&&&&&$#######$.",
"......................................................$$$$$$$$$."};
