/* XPM */
static char * wall_nord1_xpm[] = {
"64 64 122 2",
"  	c #070707",
". 	c #090909",
"+ 	c #090908",
"@ 	c #090808",
"# 	c #080808",
"$ 	c #121110",
"% 	c #11100F",
"& 	c #111110",
"* 	c #111010",
"= 	c #141311",
"- 	c #131211",
"; 	c #0A0909",
"> 	c #131210",
", 	c #141211",
"' 	c #1F1C19",
") 	c #1A1815",
"! 	c #0C0C0B",
"~ 	c #1E1C18",
"{ 	c #1F1D19",
"] 	c #1B1916",
"^ 	c #1E1C19",
"/ 	c #1D1A17",
"( 	c #1E1B18",
"_ 	c #1C1A17",
": 	c #0D0C0B",
"< 	c #1D1B18",
"[ 	c #1D1B17",
"} 	c #1C1916",
"| 	c #2D2924",
"1 	c #201D19",
"2 	c #100F0D",
"3 	c #2C2823",
"4 	c #2D2A25",
"5 	c #2B2723",
"6 	c #2D2925",
"7 	c #2E2A25",
"8 	c #2C2924",
"9 	c #201E1A",
"0 	c #211E1A",
"a 	c #2C2824",
"b 	c #221F1B",
"c 	c #0F0E0D",
"d 	c #2B2823",
"e 	c #2B2722",
"f 	c #201D1A",
"g 	c #13110F",
"h 	c #2D2823",
"i 	c #2E2A24",
"j 	c #2E2924",
"k 	c #161512",
"l 	c #312D26",
"m 	c #211E1B",
"n 	c #2E2923",
"o 	c #14110F",
"p 	c #2F2A25",
"q 	c #181411",
"r 	c #382E27",
"s 	c #2F2B25",
"t 	c #3A3028",
"u 	c #322C26",
"v 	c #393028",
"w 	c #302B26",
"x 	c #22201B",
"y 	c #403C31",
"z 	c #24211D",
"A 	c #2A2722",
"B 	c #24201C",
"C 	c #372D26",
"D 	c #1A1612",
"E 	c #382F27",
"F 	c #221F1C",
"G 	c #2D2923",
"H 	c #221E1A",
"I 	c #392F27",
"J 	c #302B25",
"K 	c #3A3129",
"L 	c #3B3129",
"M 	c #3C3129",
"N 	c #343029",
"O 	c #322E28",
"P 	c #23211C",
"Q 	c #413E32",
"R 	c #35312A",
"S 	c #332F28",
"T 	c #332F29",
"U 	c #312C26",
"V 	c #312B26",
"W 	c #322E27",
"X 	c #27241F",
"Y 	c #28251F",
"Z 	c #332E28",
"` 	c #231F1A",
" .	c #3B322A",
"..	c #332E27",
"+.	c #393129",
"@.	c #231F1B",
"#.	c #3B3229",
"$.	c #312E27",
"%.	c #312D27",
"&.	c #25211C",
"*.	c #413D32",
"=.	c #322D27",
"-.	c #3C322A",
";.	c #3D332A",
">.	c #3F3B30",
",.	c #3C392F",
"'.	c #24211C",
").	c #3D392F",
"!.	c #3E3A30",
"~.	c #3F3C31",
"{.	c #3F3B31",
"].	c #24221C",
"^.	c #3E3A2F",
"/.	c #24221D",
"(.	c #403D31",
"_.	c #403D32",
":.	c #25221D",
"<.	c #423D32",
"[.	c #1F1C18",
"}.	c #1C1A16",
"|.	c #201E19",
"1.	c #211F1A",
"                                                                                                                                ",
"                                                                                                                                ",
"                                                                                                                                ",
"                                                                                                                                ",
"                                                                                                                                ",
"                                                                                                                                ",
"                                                                                                                                ",
"                                                                                                                                ",
"                                                                                                                                ",
"                                                                                                                                ",
"                                                                                                                                ",
"                                                                                                                                ",
"                                                                                                                                ",
"                                                                                                                                ",
"                                                                                                                                ",
"                                                                                                                                ",
"                                                                                                                                ",
"                                                                                                                                ",
"                                                                                                                                ",
"                                                                                                                                ",
"                                                                                                                                ",
"                                                                                                                                ",
"                                                                                                                                ",
"                                                                                                                                ",
"                                                                                                                                ",
"                                                                                                                                ",
"                                                                                                                                ",
"                                                                                                                                ",
"                                                                                                                                ",
"                                                                                                                                ",
"                                                                                                                                ",
"                                                                                                                                ",
"                                                                                                                                ",
"                                                                                                                                ",
"                                                                                                                                ",
"                                                                                                                                ",
"                                                                                                                                ",
"                                                                                                                                ",
"                                                                                                                                ",
"                                                                                                                                ",
"                                                                                                                                ",
"                                                                                                                                ",
"                                                                                                                                ",
"                                                                                                                                ",
"                                                                                                                                ",
"                                                                                                                                ",
"                                                                                                                                ",
"                                                                                                                                ",
"                                                                                                                                ",
"                                                                                                                                ",
"                                                                                                                                ",
"                                                                                                                                ",
"                                                                                                                                ",
"                                                                                                                                ",
". .   . . . . . . . . . . . . . . . . +   + + + + + + + + + @ @ @ @ #   # @ @ @ # # # # # # # # #   # # # # # # # # # # # # # # ",
"$ % . % $ $ $ $ $ $ $ $ $ $ $ $ $ $ $ % . % $ $ $ $ $ $ $ $ $ $ $ $ % . % $ $ $ & & & & * * * * % . % % % % % % % % % % % % % % ",
"= - ; > = , , , , , = = , , , , , , , $ ; > , , - - - - - - - - - - $ ; > - - - - - - - - - - - $ . $ - - - - - - - - - - - - - ",
"' ) ! ~ { { { { ' ' ] ] ^ ^ ] ^ ' ' ^ / ! ) ] ] ~ ~ ~ ~ ~ ~ ~ ~ ~ ( _ : / ( ( < ] ] ] ] [ ] ] < } ! _ [ ] ] / [ [ [ / / / / / _ ",
"| 1 2 3 4 5 5 6 7 8 9 0 | a b | 7 7 7 5 c ( ' 9 | 6 6 6 | | | d d | e = 3 | | 3 { ( ( f e [ { a e g h 3 ' { 3 | | i i | j | | j ",
"7 3 k l e < m | 7 7 7 7 7 7 7 7 7 7 3 n o j 7 4 7 7 3 3 7 7 | 9 m 3 a ' p 7 7 7 | | | | | m a 7 | q r p | | 7 7 s t t u v w w t ",
"7 | x y z 0 | 7 7 7 7 7 7 7 7 7 3 A B C D E p 7 7 | 9 m | 7 7 | 3 F G H I p 7 7 7 7 7 7 7 | 7 J r H K s 7 7 7 7 s L M L M L L M ",
"N O P Q R S T S U V V V U S S W X Y Z K `  .S O O O W W O O O O O ..+.@.#.O W $.%.%.%.%.%.%.%.W K &.*.S %.%.%.%.=.-.;.;.;.;.;.;.",
">.,.'.).>.>.>.!.E C C C E >.~.~.{.{.y ).].!.y y y y y y y y y y y y ^./.>.(.(._._._._._.*.*.*.*.>.:.y *.*.*.*.*.*.<.<.<.<.<.<.<.",
"_ _ ] / [ [ [ [ _ _ / / / < < < ( ( ~ < ] ~ ~ ~ ~ ~ ~ ~ ~ ~ [.[.' { ~ }.{ { { { { { { 1 1 1 |.|.{ _ |.9 9 9 9 9 0 0 0 1.1.1.1.1."};
