/* XPM */
static char * exit1_xpm[] = {
"64 64 343 2",
"  	c None",
". 	c #070707",
"+ 	c #0A0A09",
"@ 	c #181614",
"# 	c #27241F",
"$ 	c #292521",
"% 	c #1D1A17",
"& 	c #332A24",
"* 	c #352B24",
"= 	c #1E1C18",
"- 	c #181714",
"; 	c #181613",
"> 	c #26231F",
", 	c #2E2A25",
"' 	c #26221E",
") 	c #362E27",
"! 	c #3B3129",
"~ 	c #3D3229",
"{ 	c #3C3129",
"] 	c #352E27",
"^ 	c #2F2A25",
"/ 	c #2A231E",
"( 	c #040506",
"_ 	c #17120F",
": 	c #25221E",
"< 	c #392F28",
"[ 	c #322A23",
"} 	c #090908",
"| 	c #0D0C0A",
"1 	c #342C26",
"2 	c #1C1A17",
"3 	c #3E3A30",
"4 	c #3E3B30",
"5 	c #2B251F",
"6 	c #383028",
"7 	c #3F3B31",
"8 	c #3F3B30",
"9 	c #433D32",
"0 	c #393029",
"a 	c #382F28",
"b 	c #40382E",
"c 	c #423D32",
"d 	c #3E372E",
"e 	c #393129",
"f 	c #36322A",
"g 	c #060707",
"h 	c #2E2721",
"i 	c #2F2B25",
"j 	c #362D27",
"k 	c #312220",
"l 	c #312120",
"m 	c #271D1B",
"n 	c #30211F",
"o 	c #30201F",
"p 	c #2F201E",
"q 	c #271E1A",
"r 	c #201D17",
"s 	c #201C17",
"t 	c #2A1E1B",
"u 	c #2E1F1E",
"v 	c #352823",
"w 	c #322C26",
"x 	c #211C18",
"y 	c #2F2721",
"z 	c #261D1B",
"A 	c #271E1B",
"B 	c #494339",
"C 	c #514C41",
"D 	c #463F36",
"E 	c #25201D",
"F 	c #342D27",
"G 	c #1F1B17",
"H 	c #080707",
"I 	c #171311",
"J 	c #372E28",
"K 	c #312320",
"L 	c #30221F",
"M 	c #241C1A",
"N 	c #201C18",
"O 	c #302220",
"P 	c #2D211E",
"Q 	c #2C211D",
"R 	c #3C392E",
"S 	c #3C3028",
"T 	c #39362B",
"U 	c #28201C",
"V 	c #281E1C",
"W 	c #302421",
"X 	c #372D26",
"Y 	c #0B0A09",
"Z 	c #161210",
"` 	c #3C382F",
" .	c #3C372E",
"..	c #332522",
"+.	c #27201B",
"@.	c #1C1915",
"#.	c #2E211F",
"$.	c #231F19",
"%.	c #28201B",
"&.	c #2A201D",
"*.	c #2A201C",
"=.	c #2C211E",
"-.	c #332E25",
";.	c #302821",
">.	c #312922",
",.	c #2F2520",
"'.	c #201B16",
").	c #2F221F",
"!.	c #35322A",
"~.	c #0B0909",
"{.	c #2E211E",
"].	c #251E19",
"^.	c #191512",
"/.	c #171310",
"(.	c #1E1B16",
"_.	c #1C1914",
":.	c #1C1814",
"<.	c #1E1A15",
"[.	c #1A1612",
"}.	c #1E1915",
"|.	c #221D18",
"1.	c #372F28",
"2.	c #39352B",
"3.	c #080807",
"4.	c #181310",
"5.	c #2A211C",
"6.	c #2F211F",
"7.	c #231E19",
"8.	c #362C25",
"9.	c #181511",
"0.	c #060607",
"a.	c #28231C",
"b.	c #231C18",
"c.	c #2B211D",
"d.	c #231E18",
"e.	c #110E0C",
"f.	c #1C1713",
"g.	c #261F1A",
"h.	c #221E18",
"i.	c #3B362C",
"j.	c #171511",
"k.	c #2A261F",
"l.	c #25201A",
"m.	c #26201B",
"n.	c #241F1A",
"o.	c #261E1A",
"p.	c #382D26",
"q.	c #201A16",
"r.	c #322220",
"s.	c #3E3A2F",
"t.	c #171410",
"u.	c #2B2720",
"v.	c #26211B",
"w.	c #291F1C",
"x.	c #2C2620",
"y.	c #2D2720",
"z.	c #352824",
"A.	c #2C2821",
"B.	c #302722",
"C.	c #29251E",
"D.	c #393028",
"E.	c #3E352C",
"F.	c #3E342B",
"G.	c #29231D",
"H.	c #3D342B",
"I.	c #1B1613",
"J.	c #2D261F",
"K.	c #302921",
"L.	c #191612",
"M.	c #0E0A0A",
"N.	c #0F0B0B",
"O.	c #060606",
"P.	c #2E2720",
"Q.	c #312921",
"R.	c #140E0E",
"S.	c #191311",
"T.	c #1D1814",
"U.	c #1A1512",
"V.	c #110C0C",
"W.	c #090808",
"X.	c #0A0909",
"Y.	c #150F0F",
"Z.	c #261C19",
"`.	c #26201A",
" +	c #211D18",
".+	c #0D0B0A",
"++	c #120D0D",
"@+	c #130D0D",
"#+	c #181311",
"$+	c #1B1512",
"%+	c #271C19",
"&+	c #100C0C",
"*+	c #181411",
"=+	c #322221",
"-+	c #322823",
";+	c #433B33",
">+	c #191411",
",+	c #342A25",
"'+	c #2E201E",
")+	c #291D1B",
"!+	c #2D2921",
"~+	c #281F1B",
"{+	c #0D0A0A",
"]+	c #312D24",
"^+	c #433E33",
"/+	c #1F1815",
"(+	c #423C31",
"_+	c #100E0C",
":+	c #1F1B16",
"<+	c #302D24",
"[+	c #3D322A",
"}+	c #2D201E",
"|+	c #231B18",
"1+	c #251F1A",
"2+	c #29201C",
"3+	c #110F0D",
"4+	c #0C0909",
"5+	c #0F0C0C",
"6+	c #12110F",
"7+	c #0C0A0A",
"8+	c #271C1A",
"9+	c #080808",
"0+	c #211D17",
"a+	c #171211",
"b+	c #171312",
"c+	c #130E0E",
"d+	c #201815",
"e+	c #2B1E1C",
"f+	c #1B1612",
"g+	c #100F0E",
"h+	c #141311",
"i+	c #0D0D0B",
"j+	c #1B1916",
"k+	c #0F0E0D",
"l+	c #281D1A",
"m+	c #0D0C0B",
"n+	c #1B1815",
"o+	c #1A1815",
"p+	c #201D1A",
"q+	c #211E1C",
"r+	c #201D1B",
"s+	c #0E0E0C",
"t+	c #1D1714",
"u+	c #100B0C",
"v+	c #221916",
"w+	c #0E0B0B",
"x+	c #0E0A0B",
"y+	c #271F1B",
"z+	c #1C1714",
"A+	c #100F0C",
"B+	c #0A0808",
"C+	c #090909",
"D+	c #3D332B",
"E+	c #221F19",
"F+	c #221F1C",
"G+	c #1E1C19",
"H+	c #23201D",
"I+	c #221E19",
"J+	c #12100E",
"K+	c #1A1614",
"L+	c #1C1716",
"M+	c #1B1716",
"N+	c #181412",
"O+	c #120F0E",
"P+	c #2C251F",
"Q+	c #2A1E1C",
"R+	c #271F1A",
"S+	c #0C0A09",
"T+	c #171210",
"U+	c #211916",
"V+	c #161010",
"W+	c #110D0C",
"X+	c #2C261F",
"Y+	c #2C1F1D",
"Z+	c #151311",
"`+	c #1A1816",
" @	c #0A0809",
".@	c #191715",
"+@	c #24211E",
"@@	c #282521",
"#@	c #282420",
"$@	c #1F1C1A",
"%@	c #140F0E",
"&@	c #140F0F",
"*@	c #15100F",
"=@	c #1C1A16",
"-@	c #1C1916",
";@	c #161110",
">@	c #150F0E",
",@	c #191613",
"'@	c #1B1816",
")@	c #1E1A18",
"!@	c #1E1B19",
"~@	c #24211D",
"{@	c #161312",
"]@	c #2A241D",
"^@	c #272320",
"/@	c #2A2722",
"(@	c #262320",
"_@	c #272420",
":@	c #2A231D",
"<@	c #3A3028",
"[@	c #2D201D",
"}@	c #2D2924",
"|@	c #302A25",
"1@	c #392F27",
"2@	c #2C2924",
"3@	c #25221F",
"4@	c #1C1513",
"5@	c #16100F",
"6@	c #1A1916",
"7@	c #191614",
"8@	c #221917",
"9@	c #302923",
"0@	c #2C2722",
"a@	c #2F2823",
"b@	c #413D32",
"c@	c #161211",
"d@	c #181513",
"e@	c #26241E",
"f@	c #2E2722",
"g@	c #2A2621",
"h@	c #40372E",
"i@	c #413930",
"j@	c #423930",
"k@	c #474236",
"l@	c #171412",
"m@	c #1A1615",
"n@	c #27251F",
"o@	c #433B31",
"p@	c #332F28",
"q@	c #34302A",
"r@	c #37332C",
"s@	c #36332C",
"t@	c #1F1C19",
"u@	c #2A2622",
"v@	c #2D2925",
"w@	c #221F1B",
"x@	c #322E28",
"y@	c #282421",
"z@	c #2B2723",
"A@	c #211E1B",
"B@	c #201E1B",
"                          . . . . . . . . . . . . . . . . . . . . . . . . . . . . . . . . . . . . .                             ",
"                          . . . . . . . . . . . . . . . . . . . . . . . . . . . . . . . . . . . . .                             ",
"                          . . . . . . . . . . . . . . . . . . . . . . . . . . . . . . . . . . . . .                             ",
"                          . . . . . . . . . . . . . . . . . . . . . . . . . . . . . . . . . . . . .                             ",
"                          . . . . . . . . . . . . . . . . . . . . . . . . . . . . . . . . . . . . .                             ",
"                          . . . . . . . . . . . . . . . . . . . . . . . . . . . . . . . . . . . . .                             ",
"                          . . . . . . . . . . . . . . . . . . . . . . . . . . . . . . . . . . . . .                             ",
"                          . . . . . . . . . . . . . . . . . . . . . . . . . . . . . . . . . . . . .                             ",
"                          . . . . . . . + @ @ @ # $ $ $ % @ @ @ @ $ $ & * $ $ = - @ ; . . . . . . .                             ",
"                          . . . . . . + > , ' , , , ) ) ! ~ ~ { ) ) ) ] ] ) ) ) ) ^ , / ( . . . . .                             ",
"                          . . . . . _ , , , : < , , , , , , , , , , , , , , , , , , , , [ } . . . .                             ",
"                          . . . . | 1 , , , : < , , , , ^ ^ , , , , , , ^ ^ ^ ^ ^ , , , ^ 2 . . . .                             ",
"                          . . . + # , , 3 4 5 ! 6 7 8 7 9 9 7 0 a a a a b 9 9 c d e 8 f , , 2 g . .                             ",
"                          . . + h i , j k l m k k l l l l l l k n o p q r s t u n k l v w , ] x . .                             ",
"                          . + y ^ , , z k k A k k k k k k k k k B C C C C C C C D k k n E , , F G H                             ",
"                          . I J , , K L M k N k O P k k k Q k O R S { { { { { { T U k V k W , , X Y                             ",
"                          . Z `  ...k k k +.@.#.$.%.&.&.*.+.=.k -.;.>.>.>.>.>.>.,.'.).k k k 0 !.8 ~.                            ",
"                          . Z 8 k k {.{.P ].^.Z /.(.(.(.(.(._.Z :.(.(.(.(.(.<.Z [.}.|.{.{.{.k 1.2.~.                            ",
"                          3.4.5.6.).L L 7.8.9.. . . . . . . . . . . . . . . . . 0.a.b.c.L L U k d.e.                            ",
"                          f.g.U +.%.k %.h.i.j.. . . . . . . . . . . . . . . . . 0.k.l.m.c.O n.%.o.p.                            ",
"                          q.g.).k k Q r.7.s.t.. . . . . . . . . . . . . . . . . 0.u.v.Q 6.O k r.w.X                             ",
"                          q.x.k.y.z.z.z.k.8 t.. . . . . . . . . . . . . . . . . 0.u.A.B.z.z.z.k.C.D.                            ",
"                          q.E.E.E.E.E.E.E.F.j.. . . . . . . . . . . . . . . . . 0.G.E.E.E.E.E.E.E.H.                            ",
"                          I.J.K.K.K.K.K.K.v.L.. . . . . M.N.N.N.N.N.. . . . . . O.$.P.K.K.K.K.K.Q.l.                            ",
"                          R.S.I.:.T.T.T.U./.. . . . . . . . . . . . V.W.. . . . . X.^.f.T.T.:.:.U.Y.                            ",
"                          R.S.Z.L `.n.n. +.+. . H ++++++@+@+@+@+@+@+@+@+H H . . . . #+$.n.n.P O $+Y.                            ",
"                          R.S.%+k k k k 7..+. . . . . . ++R.R.R.R.R.R.R.&+~.. . . . *+Q k k k k U.Y.                            ",
"                          R.S.=+-+;+;+P 6..+. . . . . . . . . g g g g g . . . . . . >+r.,+;+;+{.'+Y.                            ",
"                          R.S.)+!+E.9 ~+6..+. . . . . . W.W.{+R.R.R.R.R.R.. . . . . >+r.]+F.^+w./+Y.                            ",
"                          R.S.k !+H.(+~+6._+. . . . ++++R.R.R.R.R.R.R.R.R.. . . . . :+k <+[+9 w.}+Y.                            ",
"                          R.S.|+!+H.(+1+2+3+. . . 4+M.M.M.M.5+6+6+M.M.M.M.7+. . . . s *.<+[+9 g.U.Y.                            ",
"                          R.S.8+!+H.(+~+L 3+. . . . . . . . . . . . . . . . . . . . s k <+[+9 2+$+Y.                            ",
"                          R.S.*.!+H.(+~+{..+. . . 9+9+9+9+9+9+9+9+9+9+9+9+9+. . . . ^.k <+[+9 w.0+Y.                            ",
"                          R.S.c.!+H.(+~+7..+. . &+R.R.R.R.R.R.R.R.R.R.R.R.R.&+. . . *+Q <+[+9 w.|.Y.                            ",
"                          R.S.c.!+H.(+~+7..+. . @+R.R.R.a+b+b+b+b+b+b+Y.R.R.c+. . . *+=.<+[+9 w.h.Y.                            ",
"                          R.S.8+!+H.(+%.d+.+. . . . . . 9+9+9+9+9+9+9+H . . . . . . #+e+<+[+9 2+f+Y.                            ",
"                          R.S.n !+H.(+~+g..+. . . . . . . . . . . . . . . . . . . . *+P <+[+9 w.e+Y.                            ",
"                          R.S.r.!+H.(+~+7..+. . g g+h+h+h+h+h+h+h+h+h+h+h+h+9+. . . *+Q <+[+9 w.'+Y.                            ",
"                          R.S.$.!+H.(+g.7..+. i+j+j+j+j+j+j+j+j+j+j+j+j+j+j+j+k+. . *+*.<+[+9 h. +Y.                            ",
"                          R.S.l+!+H.(+~+h..+. m+n+n+n+o+p+q+q+q+q+q+r+o+o+o+o+s+. . >+c.<+[+9 w.t+Y.                            ",
"                          R.S.e+!+H.(+%.t+3+. ~.R.R.R.R.R.R.R.R.R.R.R.R.++V.u+. . . s )+<+[+9 w.v+Y.                            ",
"                          R.S.r.!+H.(+%.t+3+. . w+++R.R.R.R.R.R.R.R.R.R.R.@+x+0.. . s )+<+[+9 w.'+Y.                            ",
"                          R.S.r.!+H.(+y+z+A+. B+~.n+j+j+j+j+j+j+j+j+2 2 j+j+j+j+C+. (.l+<+[+9 w.}+Y.                            ",
"                          R.S.k !+H.D+E+0+.+. {+Y.j+j+2 F+G+j+j+j+F+H+H+F+p+j+j+h+. #+I+y.{ 9 w.}+Y.                            ",
"                          R.S.8+!+H.{ g.7..+. 9+J+K+L+L+M+M+L+L+L+M+M+M+M+M+N+b+O+. *+U P+{ 9 *.U.Y.                            ",
"                          R.S.Q+!+H.{ %.R+S+. R.R.R.R.R.R.R.R.R.R.R.R.R.R.R.R.R.@+. T+{.P+{ 9 2+U+Y.                            ",
"                          R.S.k !+H.[+%.p B+. V+V+V+V+V+V+V+V+V+V+V+V+V+V+V+V+V+W+. R.r.X+{ 9 w.Y+Y.                            ",
"                          R.S.p !+H.(+~+p B+Z+H+H+H+H+H+H+H+H+H+H+H+H+H+H+H+H+H+`+. R.r.<+[+9 w.)+Y.                            ",
"                          R.S.}+!+H.(+1+y+ @.@H+H+H+H++@$ @@@@@@@@@@#@H+H+H+H+H+$@. c+5.<+[+9 w.Z.Y.                            ",
"                          R.S.8+!+H.(+~+p ~.M.%@&@*@j+j+=@=@=@=@=@=@-@j+j+;@;@%@Y.. >@r.<+[+9 2+$+Y.                            ",
"                          R.S.8+!+H.(+~+1+.+. R.R.,@j+j+j+j+j+j+j+j+j+j+j+j+j+;@R.. *+P <+[+9 2+I.Y.                            ",
"                          R.S.r.!+H.(+~+7..+O.`+'@)@!@p+p+p+p+p+p+p+p+p+~@p+p+!@{@. *+Q <+[+9 w.'+Y.                            ",
"                          R.S.r.]@{ (+~+7..+.@H+H+H+^@, , /@^@(@> , , , , , _@H+H+9+*+Q <+[+{ 2+}+Y.                            ",
"                          R.S.k :@<@! 2+[@.+@ F+F+F+}@}@}@}@|@1@1@1@1@1@2@}@}@3@H+9+>+L J.<@<@*.Y+Y.                            ",
"                          R.*@4@U+:.:.U+5@++{@j+j+j+j+j+j+j+j+6@6@6@6@6@j+j+j+j+7@V.Y.U.U+:.:.8@5@R.                            ",
"                          9@9@0@@@a@@@9@9@b@c@d@o+j+j+j+j+j+j+j+j+j+j+j+j+j+j+N+@+e@] 9@f@$ g@@@9@9@                            ",
"                          E.E.h@i@j@i@j@j@k@l@m@H+H+~@3@3@3@#@}@: +@H+H+3@3@: H+H+n@o@j@j@i@j@j@E.E.                            ",
"                          p@p@q@r@r@r@r@r@s@t@H+H+u@}@, , , , , , v@2@2@, , , 2@H+w@r@r@r@r@r@r@x@p@                            ",
"                          , , @@@@y@y@#@, , t@z@, , 1.1.1.1.1.1.1.1.1.1.1.1.1.1.F p+, z@y@y@y@z@3@,                             ",
"                          A@A@A@A@A@A@A@A@B@j+j+j+j+j+j+j+j+j+j+j+j+j+j+j+j+j+j+j+2 A@A@A@A@A@A@A@A@                            ",
"                                                                                                                                ",
"                                                                                                                                ",
"                                                                                                                                ",
"                                                                                                                                "};
