/* XPM */
static char * oeil_run4_xpm[] = {
"64 64 80 1",
" 	c None",
".	c #803949",
"+	c #8D3F4C",
"@	c #813C51",
"#	c #753452",
"$	c #943C52",
"%	c #A23940",
"&	c #A5373A",
"*	c #A13942",
"=	c #9E4257",
"-	c #843D5F",
";	c #551F36",
">	c #913C4F",
",	c #851E2F",
"'	c #871E2C",
")	c #811922",
"!	c #A23F44",
"~	c #8F2934",
"{	c #A3374F",
"]	c #8C3956",
"^	c #470312",
"/	c #7D2130",
"(	c #831E2E",
"_	c #963B4C",
":	c #963E4C",
"<	c #7F242B",
"[	c #821E26",
"}	c #A83749",
"|	c #943B51",
"1	c #5C3F55",
"2	c #92414A",
"3	c #953D4D",
"4	c #752236",
"5	c #6A293D",
"6	c #67283B",
"7	c #8C404D",
"8	c #903C4B",
"9	c #954151",
"0	c #834256",
"a	c #5F465C",
"b	c #532734",
"c	c #692530",
"d	c #6E2739",
"e	c #5B1629",
"f	c #511426",
"g	c #591929",
"h	c #60121F",
"i	c #630F1C",
"j	c #651423",
"k	c #4D1022",
"l	c #31172D",
"m	c #1A1628",
"n	c #250616",
"o	c #42192B",
"p	c #511628",
"q	c #92404C",
"r	c #983C41",
"s	c #973B3C",
"t	c #9A3C3D",
"u	c #983440",
"v	c #8D4052",
"w	c #52394F",
"x	c #2E1C30",
"y	c #5B2C3E",
"z	c #78222B",
"A	c #7E1A1C",
"B	c #852727",
"C	c #771E20",
"D	c #7D2535",
"E	c #6E2E46",
"F	c #0F0722",
"G	c #2A091C",
"H	c #530B13",
"I	c #80292F",
"J	c #8C3B42",
"K	c #7C3A49",
"L	c #5C2E48",
"M	c #2A0419",
"N	c #300013",
"O	c #40142C",
"                                                                ",
"                                                                ",
"                                                                ",
"                                                                ",
"                                                                ",
"                                                                ",
"                                                                ",
"                                                                ",
"                                                                ",
"                                                                ",
"                                                                ",
"                                                                ",
"                                                                ",
"                                                                ",
"                         ....+++@@@                             ",
"                         ....+++@@@                             ",
"                         ....+++@@@                             ",
"                         ....+++@@@                             ",
"                   ###$$$%%%%&&&***====---                      ",
"                   ###$$$%%%%&&&***====---                      ",
"                   ###$$$%%%%&&&***====---                      ",
"               ;;;;>>>,,,'''')))!!!~~~~{{{]]]]                  ",
"               ;;;;>>>,,,'''')))!!!~~~~{{{]]]]                  ",
"               ;;;;>>>,,,'''')))!!!~~~~{{{]]]]                  ",
"               ;;;;>>>,,,'''')))!!!~~~~{{{]]]]                  ",
"               ^^^^///(((____:::<<<[[[[}}}||||111               ",
"               ^^^^///(((____:::<<<[[[[}}}||||111               ",
"               ^^^^///(((____:::<<<[[[[}}}||||111               ",
"               2222333444555566677788889990000aaa               ",
"               2222333444555566677788889990000aaa               ",
"               2222333444555566677788889990000aaa               ",
"            bbbccccdddeeeffffggghhhiiiijjjkkkklll               ",
"            bbbccccdddeeeffffggghhhiiiijjjkkkklll               ",
"            bbbccccdddeeeffffggghhhiiiijjjkkkklll               ",
"            bbbccccdddeeeffffggghhhiiiijjjkkkklll               ",
"            mmmnnnnooopppqqqqrrrsssttttuuuvvvvwww               ",
"            mmmnnnnooopppqqqqrrrsssttttuuuvvvvwww               ",
"            mmmnnnnooopppqqqqrrrsssttttuuuvvvvwww               ",
"                   xxxyyyzzzzAAABBBCCCCDDDEEEE                  ",
"                   xxxyyyzzzzAAABBBCCCCDDDEEEE                  ",
"                   xxxyyyzzzzAAABBBCCCCDDDEEEE                  ",
"                   FFFGGGHHHHIIIJJJKKKKLLL                      ",
"                   FFFGGGHHHHIIIJJJKKKKLLL                      ",
"                   FFFGGGHHHHIIIJJJKKKKLLL                      ",
"                   FFFGGGHHHHIIIJJJKKKKLLL                      ",
"                         MMMMNNNOOO                             ",
"                         MMMMNNNOOO                             ",
"                         MMMMNNNOOO                             ",
"                                                                ",
"                                                                ",
"                                                                ",
"                                                                ",
"                                                                ",
"                                                                ",
"                                                                ",
"                                                                ",
"                                                                ",
"                                                                ",
"                                                                ",
"                                                                ",
"                                                                ",
"                                                                ",
"                                                                ",
"                                                                "};
