/* XPM */
static char * oeil_gauche3_xpm[] = {
"64 64 80 1",
" 	c None",
".	c #833946",
"+	c #964251",
"@	c #8C3E54",
"#	c #704357",
"$	c #8A3E4B",
"%	c #8B2733",
"&	c #8B1C2C",
"*	c #872136",
"=	c #90344D",
"-	c #944461",
";	c #764446",
">	c #854651",
",	c #8E3B4F",
"'	c #9E3651",
")	c #841631",
"!	c #78192D",
"~	c #7E2A3A",
"{	c #8C394B",
"]	c #591F37",
"^	c #281E41",
"/	c #987174",
"(	c #AC6961",
"_	c #702A2C",
":	c #752734",
"<	c #7A2039",
"[	c #973D57",
"}	c #904156",
"|	c #702232",
"1	c #792330",
"2	c #480216",
"3	c #2B0000",
"4	c #AF7164",
"5	c #FFEDE2",
"6	c #FFEEF3",
"7	c #622D3D",
"8	c #5E263F",
"9	c #6E2A43",
"0	c #923746",
"a	c #903C4C",
"b	c #210218",
"c	c #330000",
"d	c #A96F63",
"e	c #FFF0E3",
"f	c #FFECE9",
"g	c #FFF2FA",
"h	c #4B1A2F",
"i	c #55172E",
"j	c #782A37",
"k	c #712B36",
"l	c #4E273C",
"m	c #85556A",
"n	c #B06873",
"o	c #FFE7E9",
"p	c #FFEEED",
"q	c #FFEEEF",
"r	c #64292D",
"s	c #854752",
"t	c #4F1521",
"u	c #411316",
"v	c #2D0D18",
"w	c #140C24",
"x	c #4D182E",
"y	c #5B2B37",
"z	c #5C242D",
"A	c #732E33",
"B	c #8B4045",
"C	c #6F2C35",
"D	c #5F2C35",
"E	c #32171E",
"F	c #482F45",
"G	c #753F4B",
"H	c #8C3845",
"I	c #7B202F",
"J	c #430012",
"K	c #2D0115",
"L	c #1B0A1F",
"M	c #52142C",
"N	c #3E0017",
"O	c #330B26",
"                                                                ",
"                                                                ",
"                                                                ",
"                                                                ",
"                                                                ",
"                                                                ",
"                                                                ",
"                                                                ",
"                                                                ",
"                                                                ",
"                                                                ",
"                                                                ",
"                                                                ",
"                                                                ",
"                                                                ",
"                            ...++++@@@                          ",
"                            ...++++@@@                          ",
"                            ...++++@@@                          ",
"                            ...++++@@@                          ",
"                     ####$$$%%%&&&&***===----                   ",
"                     ####$$$%%%&&&&***===----                   ",
"                     ####$$$%%%&&&&***===----                   ",
"                  ;;;>>>>,,,'''))))!!!~~~{{{{]]]^^^             ",
"                  ;;;>>>>,,,'''))))!!!~~~{{{{]]]^^^             ",
"                  ;;;>>>>,,,'''))))!!!~~~{{{{]]]^^^             ",
"                  ;;;>>>>,,,'''))))!!!~~~{{{{]]]^^^             ",
"              ////(((____:::<<<[[[[}}}|||1111222                ",
"              ////(((____:::<<<[[[[}}}|||1111222                ",
"              ////(((____:::<<<[[[[}}}|||1111222                ",
"                  333444455566677778889990000aaa                ",
"                  333444455566677778889990000aaa                ",
"                  333444455566677778889990000aaa                ",
"              bbbbcccddddeeefffgggghhhiiijjjjkkklll             ",
"              bbbbcccddddeeefffgggghhhiiijjjjkkklll             ",
"              bbbbcccddddeeefffgggghhhiiijjjjkkklll             ",
"              bbbbcccddddeeefffgggghhhiiijjjjkkklll             ",
"              mmmmnnnoooopppqqqrrrrssstttuuuuvvvwww             ",
"              mmmmnnnoooopppqqqrrrrssstttuuuuvvvwww             ",
"              mmmmnnnoooopppqqqrrrrssstttuuuuvvvwww             ",
"                  xxxyyyyzzzAAABBBBCCCDDDEEEE                   ",
"                  xxxyyyyzzzAAABBBBCCCDDDEEEE                   ",
"                  xxxyyyyzzzAAABBBBCCCDDDEEEE                   ",
"                     FFFFGGGHHHIIIIJJJKKKLLLL                   ",
"                     FFFFGGGHHHIIIIJJJKKKLLLL                   ",
"                     FFFFGGGHHHIIIIJJJKKKLLLL                   ",
"                     FFFFGGGHHHIIIIJJJKKKLLLL                   ",
"                            MMMNNNNOOO                          ",
"                            MMMNNNNOOO                          ",
"                            MMMNNNNOOO                          ",
"                                                                ",
"                                                                ",
"                                                                ",
"                                                                ",
"                                                                ",
"                                                                ",
"                                                                ",
"                                                                ",
"                                                                ",
"                                                                ",
"                                                                ",
"                                                                ",
"                                                                ",
"                                                                ",
"                                                                "};
