/* XPM */
static char * oeil_dead_xpm[] = {
"64 64 422 2",
"  	c None",
". 	c #7D3C5A",
"+ 	c #834F5C",
"@ 	c #684750",
"# 	c #6E4564",
"$ 	c #6F4665",
"% 	c #6F4666",
"& 	c #873354",
"* 	c #84263E",
"= 	c #6E252E",
"- 	c #FFEEF1",
"; 	c #FFF7FF",
"> 	c #FFF4FF",
", 	c #74415C",
"' 	c #6D415F",
") 	c #6F4564",
"! 	c #863E52",
"~ 	c #833F55",
"{ 	c #783F58",
"] 	c #6F415E",
"^ 	c #863253",
"/ 	c #883E53",
"( 	c #833F57",
"_ 	c #863350",
": 	c #5D2D45",
"< 	c #823C51",
"[ 	c #8B3E51",
"} 	c #8D3F51",
"| 	c #7B2739",
"1 	c #782437",
"2 	c #792437",
"3 	c #701E2A",
"4 	c #FFECF1",
"5 	c #FFF3F4",
"6 	c #FFF4F9",
"7 	c #FFF7FD",
"8 	c #672D41",
"9 	c #853D51",
"0 	c #893E51",
"a 	c #923C4D",
"b 	c #923D4E",
"c 	c #893445",
"d 	c #7B2839",
"e 	c #772336",
"f 	c #383855",
"g 	c #3D1F35",
"h 	c #430E23",
"i 	c #602639",
"j 	c #813B4E",
"k 	c #903D4E",
"l 	c #933C4C",
"m 	c #8C3747",
"n 	c #782835",
"o 	c #752433",
"p 	c #6E1D29",
"q 	c #400015",
"r 	c #400116",
"s 	c #3E0013",
"t 	c #6D2232",
"u 	c #8C3646",
"v 	c #943C4C",
"w 	c #913B4B",
"x 	c #7C2D39",
"y 	c #72252F",
"z 	c #742530",
"A 	c #813B43",
"B 	c #88434A",
"C 	c #8C454D",
"D 	c #73444A",
"E 	c #FFF6F8",
"F 	c #FFF8F8",
"G 	c #FFF0EE",
"H 	c #AD7169",
"I 	c #A2737B",
"J 	c #42324E",
"K 	c #4E2741",
"L 	c #481B32",
"M 	c #3F0218",
"N 	c #5A1224",
"O 	c #752131",
"P 	c #782434",
"Q 	c #873242",
"R 	c #82313E",
"S 	c #72262F",
"T 	c #742630",
"U 	c #74242F",
"V 	c #833E46",
"W 	c #88424A",
"X 	c #8B444C",
"Y 	c #4D2943",
"Z 	c #4F2741",
"` 	c #4D2640",
" .	c #5B273D",
"..	c #752737",
"+.	c #762131",
"@.	c #762232",
"#.	c #762231",
"$.	c #762430",
"%.	c #732630",
"&.	c #752530",
"*.	c #74222F",
"=.	c #BA1F1F",
"-.	c #AA222B",
";.	c #73253B",
">.	c #542740",
",.	c #5A2B43",
"'.	c #814257",
").	c #884256",
"!.	c #7C2E40",
"~.	c #772330",
"{.	c #77232F",
"].	c #732430",
"^.	c #76232F",
"/.	c #92424A",
"(.	c #903B3F",
"_.	c #7D4147",
":.	c #D9A5A6",
"<.	c #F9EDED",
"[.	c #E6C5C5",
"}.	c #DCAFAF",
"|.	c #E0B2B0",
"1.	c #F2D7D5",
"2.	c #B0655E",
"3.	c #8B2436",
"4.	c #7B3C52",
"5.	c #914458",
"6.	c #8B475C",
"7.	c #884257",
"8.	c #7A2838",
"9.	c #77222F",
"0.	c #812B36",
"a.	c #993339",
"b.	c #92252B",
"c.	c #63191F",
"d.	c #A51E1F",
"e.	c #B71F1F",
"f.	c #BE4143",
"g.	c #BD3E3F",
"h.	c #BB2F2F",
"i.	c #BB3030",
"j.	c #BD3C3C",
"k.	c #BD3E3E",
"l.	c #BC3836",
"m.	c #C25B57",
"n.	c #CF8A84",
"o.	c #B63C36",
"p.	c #B73632",
"q.	c #B53F3A",
"r.	c #971717",
"s.	c #B52022",
"t.	c #8A2436",
"u.	c #8C384A",
"v.	c #A43746",
"w.	c #A03B4B",
"x.	c #9E3747",
"y.	c #A2232C",
"z.	c #A32127",
"A.	c #8E212B",
"B.	c #902832",
"C.	c #AB2C30",
"D.	c #B32122",
"E.	c #B61F1F",
"F.	c #B91F1F",
"G.	c #BA2020",
"H.	c #BA2121",
"I.	c #BA2323",
"J.	c #BA2222",
"K.	c #BA2221",
"L.	c #B81F1F",
"M.	c #A53043",
"N.	c #963B50",
"O.	c #A23747",
"P.	c #A03A49",
"Q.	c #9B2D3C",
"R.	c #A92028",
"S.	c #A52128",
"T.	c #9F232A",
"U.	c #A53136",
"V.	c #A93237",
"W.	c #B1272A",
"X.	c #B02224",
"Y.	c #B92323",
"Z.	c #B02934",
"`.	c #A13346",
" +	c #953951",
".+	c #97394F",
"++	c #90374B",
"@+	c #A1212C",
"#+	c #9D222D",
"$+	c #A3212B",
"%+	c #92252E",
"&+	c #A43136",
"*+	c #AD2F34",
"=+	c #A73035",
"-+	c #9C292D",
";+	c #B33A3C",
">+	c #BD4244",
",+	c #BE4243",
"'+	c #BC3131",
")+	c #B12832",
"!+	c #9F3448",
"~+	c #6E4666",
"{+	c #873C59",
"]+	c #9C2D45",
"^+	c #A32534",
"/+	c #962230",
"(+	c #A42027",
"_+	c #9C1E24",
":+	c #A92024",
"<+	c #99333A",
"[+	c #81454C",
"}+	c #7C3D42",
"|+	c #8A2E34",
"1+	c #B34042",
"2+	c #C87677",
"3+	c #C15555",
"4+	c #BC3434",
"5+	c #BB2727",
"6+	c #AF2A35",
"7+	c #7A4260",
"8+	c #833758",
"9+	c #9D2D45",
"0+	c #A02637",
"a+	c #A61F25",
"b+	c #AD1F22",
"c+	c #94121A",
"d+	c #BB9EA2",
"e+	c #D3BDC1",
"f+	c #845F64",
"g+	c #704046",
"h+	c #CEB1B3",
"i+	c #E4C0C2",
"j+	c #D08D8D",
"k+	c #BD3F3F",
"l+	c #BC3432",
"m+	c #BB302E",
"n+	c #BC3231",
"o+	c #C15854",
"p+	c #B02C3C",
"q+	c #8C3454",
"r+	c #942F4A",
"s+	c #A62432",
"t+	c #A7212B",
"u+	c #9F1720",
"v+	c #AE5E62",
"w+	c #F7E4E9",
"x+	c #FFEEF3",
"y+	c #E7D2D7",
"z+	c #CAB9BC",
"A+	c #FEF5F7",
"B+	c #EED6D5",
"C+	c #C8716C",
"D+	c #C4625E",
"E+	c #BE4745",
"F+	c #BB4844",
"G+	c #B53E39",
"H+	c #B73833",
"I+	c #B82927",
"J+	c #BA2224",
"K+	c #BA2A35",
"L+	c #B33346",
"M+	c #893758",
"N+	c #A52535",
"O+	c #A7222E",
"P+	c #A52230",
"Q+	c #912A3B",
"R+	c #C7A7AB",
"S+	c #FFEDF2",
"T+	c #FFECF2",
"U+	c #FFEFF3",
"V+	c #FEF2F3",
"W+	c #FFF5F7",
"X+	c #FFF7F8",
"Y+	c #FFF8F6",
"Z+	c #F2DDD7",
"`+	c #C9988F",
" @	c #A7695D",
".@	c #AD6157",
"+@	c #B05149",
"@@	c #AB2926",
"#@	c #A21A1A",
"$@	c #BA2326",
"%@	c #BA2831",
"&@	c #B52E3E",
"*@	c #852B47",
"=@	c #992335",
"-@	c #8A253D",
";@	c #832C40",
">@	c #C8ADB2",
",@	c #FFF5EE",
"'@	c #D2BBB0",
")@	c #A27467",
"!@	c #A4786B",
"~@	c #A6695D",
"{@	c #97322E",
"]@	c #981717",
"^@	c #B92831",
"/@	c #B9272F",
"(@	c #BA2B36",
"_@	c #86344D",
":@	c #9C2536",
"<@	c #84253D",
"[@	c #762031",
"}@	c #723239",
"|@	c #BDA3A7",
"1@	c #F9E6EB",
"2@	c #FFF2F4",
"3@	c #FFF5F6",
"4@	c #FEF4F3",
"5@	c #D9C2BE",
"6@	c #A98074",
"7@	c #A27568",
"8@	c #7F5047",
"9@	c #8B1414",
"0@	c #9E1818",
"a@	c #A31A1A",
"b@	c #BA2428",
"c@	c #AF2C3B",
"d@	c #95344C",
"e@	c #9A3045",
"f@	c #7C2E41",
"g@	c #6E242D",
"h@	c #6F2730",
"i@	c #E2CFD2",
"j@	c #FFF4F8",
"k@	c #FFF5F9",
"l@	c #FFF6F6",
"m@	c #FFF1EF",
"n@	c #E9D6D2",
"o@	c #997870",
"p@	c #310101",
"q@	c #7A0F0F",
"r@	c #851212",
"s@	c #B21F1F",
"t@	c #BA1F20",
"u@	c #AF2734",
"v@	c #91364F",
"w@	c #8D3752",
"x@	c #7F425B",
"y@	c #814B59",
"z@	c #763944",
"A@	c #6A1221",
"B@	c #C0A6A9",
"C@	c #FFEDF1",
"D@	c #FFEFF1",
"E@	c #FFF1F3",
"F@	c #FFF4F7",
"G@	c #FFF2F0",
"H@	c #F3DFDD",
"I@	c #AC7C76",
"J@	c #683D38",
"K@	c #2A0101",
"L@	c #811818",
"M@	c #B92929",
"N@	c #AA2A39",
"O@	c #9A3549",
"P@	c #824C5C",
"Q@	c #83505C",
"R@	c #834E5C",
"S@	c #906A70",
"T@	c #F3E1E4",
"U@	c #FFF0F3",
"V@	c #FFF2F7",
"W@	c #FFF6FC",
"X@	c #FFF4F6",
"Y@	c #FAEAE8",
"Z@	c #C39994",
"`@	c #AC6D65",
" #	c #AA6E66",
".#	c #835551",
"+#	c #B52A2E",
"@#	c #84515D",
"##	c #804E5B",
"$#	c #6A434E",
"%#	c #A28E92",
"&#	c #EDDBDE",
"*#	c #FFF2F6",
"=#	c #FFF6FE",
"-#	c #FFF6FD",
";#	c #FFF5FB",
">#	c #F2DFE3",
",#	c #B98782",
"'#	c #AB6C63",
")#	c #AC716B",
"!#	c #A57377",
"~#	c #A3747D",
"{#	c #B83436",
"]#	c #BA2626",
"^#	c #83525E",
"/#	c #724A54",
"(#	c #674750",
"_#	c #613C47",
":#	c #8B747A",
"<#	c #F3E8EF",
"[#	c #FFF6FF",
"}#	c #FFF5FF",
"|#	c #FFF3F8",
"1#	c #F4DEE2",
"2#	c #C89F9E",
"3#	c #A67173",
"4#	c #AD5A60",
"5#	c #B92526",
"6#	c #694952",
"7#	c #EDDAE3",
"8#	c #FEF4FD",
"9#	c #FEF3FC",
"0#	c #F8E3E8",
"a#	c #A67982",
"b#	c #AE575D",
"c#	c #FDF3FC",
"d#	c #826C76",
"e#	c #E8D0DA",
"f#	c #FDF0FB",
"g#	c #FEF3FE",
"h#	c #FEEBF1",
"i#	c #FEEBF0",
"j#	c #AD6E76",
"k#	c #A8676E",
"l#	c #F6E8F7",
"m#	c #BB2B2D",
"n#	c #BA3133",
"o#	c #BA2425",
"                                                                                                                                ",
"                                                                                                                                ",
"                                                                                                                                ",
"                                                                                                                                ",
"                                                                                                                                ",
"                                                                                                                                ",
"                                                                                                                                ",
"                                                                                                                                ",
"                                                                                                                                ",
"                                                                                                                                ",
"                                                                                                                                ",
"                                                                                                                                ",
"                                                                                                                                ",
"                                                                                                                                ",
"                                                                                                                                ",
"                                                                                                                                ",
"                                                                                                                                ",
"                                                                                                                                ",
"                                                                                                                                ",
"                                                                                                                                ",
"                                                                                                                                ",
"                                                                                                                                ",
"                                                                                                                                ",
"                                                                                                                                ",
"                                                          . . . + + + @ @ @                                                     ",
"                                                          . . . + + + @ @ @                                                     ",
"                                                          . . . + + + @ @ @                                                     ",
"                                              # $ % & & & * * * = = = - - - ; ; ; > > >                                         ",
"                                              , ' ) & & & * * * = = = - - - ; ; ; > > >                                         ",
"                                            ! ~ { ] ^ & & * * * = = = - - - ; ; ; > > >                                         ",
"                                          ! ! ! / ( _ ^ & * * * = = = - - - ; ; ; > > >                                         ",
"                                        : < ! ! [ } | 1 2 3 3 3 4 4 4 5 5 5 6 6 6 7 7 7 4 4 4                                   ",
"                                        8 9 ! 0 a b c d e 3 3 3 4 4 4 5 5 5 6 6 6 7 7 7 4 4 4                                   ",
"                                f     g h i j k l l m n o p 3 3 4 4 4 5 5 5 6 6 6 7 7 7 4 4 4                                   ",
"                                      q r s t u v w x y z A B C D D D E E E F F F G G G H H H I I I                             ",
"                                  J K L M N O P Q R S T U V W X D D D E E E F F F G G G H H H I I I                             ",
"                                  Y Z `  ...+.@.#.$.%.&.*.X C C D D D E E E F F F G G G H H H I I I                             ",
"                            =.=.-.;.>.,.'.).!.#.~.~.{.].^.C C /.(._.D :.E E <.[.}.|.G 1.2.H H I I I                             ",
"                                    3.4.5.6.7.8.~.9.0.a.b.c.d.e.f.g.h.i.j.k.l.m.n.o.p.q.r.                                      ",
"                              =.=.s.t.u.v.w.x.y.z.A.B.C.D.E.F.=.G.H.H.G.H.=.H.I.J.G.K.  L.=.F.                                  ",
"                                =.=.M.N.O.P.Q.R.S.T.U.V.W.X.Y.J.H.G.=.=.=.=.  =.=.      =.                                      ",
"                                  Z.`. +.+++@+#+$+%+&+*+=+-+;+>+,+'+J.=.=.=.=.                                                  ",
"                                  )+!+~+{+]+^+/+(+_+:+<+[+}+|+1+2+3+4+5+J.J.=.                                                  ",
"                                  =.6+7+8+9+9+0+a+b+c+d+e+f+g+h+i+j+k+l+m+n+o+                                                  ",
"                                  =.=.p+q+& r+s+t+u+v+w+x+y+z+A+E E B+C+D+E+F+G+H+I+                                            ",
"                                  =.J+K+L+M+N+O+P+Q+R+S+T+U+V+W+E X+F Y+Z+`+ @.@+@@@#@                                          ",
"                                    $@%@&@M+*@=@-@;@>@S+T+U+V+W+E X+F Y+,@'@)@!@~@{@]@                                          ",
"                                    ^@/@(@  _@:@<@[@}@|@1@2@5 5 3@F F F 4@5@6@7@8@9@0@a@                                        ",
"                                      b@c@. d@e@f@g@= h@i@5 5 5 j@k@X+l@m@m@n@o@p@q@r@s@                                        ",
"                                    =.t@u@v@w@x@y@z@A@B@C@D@E@F@6 6 k@5 G G@H@I@J@K@L@M@                                        ",
"                                    =.  =.N@O@P@Q@R@S@T@U@- V@W@6 6 W@7 X@Y@Z@`@ #.#  I.                                        ",
"                                            +#@#+ ##$#%#&#*#=#; -#;#7 7 7 >#,#'#)#!#~#{#J.                                      ",
"                                        =.  ]#  ^#/#(#_#:#<#; ; [#}#=#7 |#x+1#2#3#I I 4#5#                                      ",
"                                            I.      @ 6#    7#8#}#> > 9#S+4 S+0#a#I I b#=.                                      ",
"                                                    @ 6#    7#c#}#> > 9#S+4 S+0#a#I I                                           ",
"                                                      d#      e#f#> g#    h#i#    j#k#                                          ",
"                                                                  g#l#                                                          ",
"                                                                                  m#=.  =.                                      ",
"                                                            n#                =.o#=.=.                                          ",
"                                                                                =.                                              ",
"                                                                          =.=.                                                  ",
"                                                                                                                                ",
"                                                                                                                                ",
"                                                                                                                                "};
