/* XPM */
static char * oeil_gauche4_xpm[] = {
"64 64 80 1",
" 	c None",
".	c #813C51",
"+	c #8D3F4C",
"@	c #803949",
"#	c #843D5F",
"$	c #9E4257",
"%	c #A13942",
"&	c #A5373A",
"*	c #A23940",
"=	c #943C52",
"-	c #753452",
";	c #8C3956",
">	c #A3374F",
",	c #8F2934",
"'	c #A23F44",
")	c #811922",
"!	c #871E2C",
"~	c #851E2F",
"{	c #913C4F",
"]	c #551F36",
"^	c #5C3F55",
"/	c #943B51",
"(	c #A83749",
"_	c #821E26",
":	c #7F242B",
"<	c #963E4C",
"[	c #963B4C",
"}	c #831E2E",
"|	c #7D2130",
"1	c #470312",
"2	c #5F465C",
"3	c #834256",
"4	c #954151",
"5	c #903C4B",
"6	c #8C404D",
"7	c #67283B",
"8	c #6A293D",
"9	c #752236",
"0	c #953D4D",
"a	c #92414A",
"b	c #31172D",
"c	c #4D1022",
"d	c #651423",
"e	c #630F1C",
"f	c #60121F",
"g	c #591929",
"h	c #511426",
"i	c #5B1629",
"j	c #6E2739",
"k	c #692530",
"l	c #532734",
"m	c #52394F",
"n	c #8D4052",
"o	c #983440",
"p	c #9A3C3D",
"q	c #973B3C",
"r	c #983C41",
"s	c #92404C",
"t	c #511628",
"u	c #42192B",
"v	c #250616",
"w	c #1A1628",
"x	c #6E2E46",
"y	c #7D2535",
"z	c #771E20",
"A	c #852727",
"B	c #7E1A1C",
"C	c #78222B",
"D	c #5B2C3E",
"E	c #2E1C30",
"F	c #5C2E48",
"G	c #7C3A49",
"H	c #8C3B42",
"I	c #80292F",
"J	c #530B13",
"K	c #2A091C",
"L	c #0F0722",
"M	c #40142C",
"N	c #300013",
"O	c #2A0419",
"                                                                ",
"                                                                ",
"                                                                ",
"                                                                ",
"                                                                ",
"                                                                ",
"                                                                ",
"                                                                ",
"                                                                ",
"                                                                ",
"                                                                ",
"                                                                ",
"                                                                ",
"                                                                ",
"                             ...+++@@@@                         ",
"                             ...+++@@@@                         ",
"                             ...+++@@@@                         ",
"                             ...+++@@@@                         ",
"                      ###$$$$%%%&&&****===---                   ",
"                      ###$$$$%%%&&&****===---                   ",
"                      ###$$$$%%%&&&****===---                   ",
"                  ;;;;>>>,,,,''')))!!!!~~~{{{]]]]               ",
"                  ;;;;>>>,,,,''')))!!!!~~~{{{]]]]               ",
"                  ;;;;>>>,,,,''')))!!!!~~~{{{]]]]               ",
"                  ;;;;>>>,,,,''')))!!!!~~~{{{]]]]               ",
"               ^^^////(((____:::<<<[[[[}}}|||1111               ",
"               ^^^////(((____:::<<<[[[[}}}|||1111               ",
"               ^^^////(((____:::<<<[[[[}}}|||1111               ",
"               222333344455556667778888999000aaaa               ",
"               222333344455556667778888999000aaaa               ",
"               222333344455556667778888999000aaaa               ",
"               bbbccccdddeeeefffggghhhhiiijjjkkkklll            ",
"               bbbccccdddeeeefffggghhhhiiijjjkkkklll            ",
"               bbbccccdddeeeefffggghhhhiiijjjkkkklll            ",
"               bbbccccdddeeeefffggghhhhiiijjjkkkklll            ",
"               mmmnnnnoooppppqqqrrrsssstttuuuvvvvwww            ",
"               mmmnnnnoooppppqqqrrrsssstttuuuvvvvwww            ",
"               mmmnnnnoooppppqqqrrrsssstttuuuvvvvwww            ",
"                  xxxxyyyzzzzAAABBBCCCCDDDEEE                   ",
"                  xxxxyyyzzzzAAABBBCCCCDDDEEE                   ",
"                  xxxxyyyzzzzAAABBBCCCCDDDEEE                   ",
"                      FFFGGGGHHHIIIJJJJKKKLLL                   ",
"                      FFFGGGGHHHIIIJJJJKKKLLL                   ",
"                      FFFGGGGHHHIIIJJJJKKKLLL                   ",
"                      FFFGGGGHHHIIIJJJJKKKLLL                   ",
"                             MMMNNNOOOO                         ",
"                             MMMNNNOOOO                         ",
"                             MMMNNNOOOO                         ",
"                                                                ",
"                                                                ",
"                                                                ",
"                                                                ",
"                                                                ",
"                                                                ",
"                                                                ",
"                                                                ",
"                                                                ",
"                                                                ",
"                                                                ",
"                                                                ",
"                                                                ",
"                                                                ",
"                                                                ",
"                                                                "};
