/* XPM */
static char * oeuil_run3_xpm[] = {
"64 64 80 1",
" 	c None",
".	c #8C3E54",
"+	c #964251",
"@	c #833946",
"#	c #944461",
"$	c #90344D",
"%	c #872136",
"&	c #8B1C2C",
"*	c #8B2733",
"=	c #8A3E4B",
"-	c #704357",
";	c #281E41",
">	c #591F37",
",	c #8C394B",
"'	c #7E2A3A",
")	c #78192D",
"!	c #841631",
"~	c #9E3651",
"{	c #8E3B4F",
"]	c #854651",
"^	c #764446",
"/	c #480216",
"(	c #792330",
"_	c #702232",
":	c #904156",
"<	c #973D57",
"[	c #7A2039",
"}	c #752734",
"|	c #702A2C",
"1	c #AC6961",
"2	c #987174",
"3	c #903C4C",
"4	c #923746",
"5	c #6E2A43",
"6	c #5E263F",
"7	c #622D3D",
"8	c #FFEEF3",
"9	c #FFEDE2",
"0	c #AF7164",
"a	c #2B0000",
"b	c #4E273C",
"c	c #712B36",
"d	c #782A37",
"e	c #55172E",
"f	c #4B1A2F",
"g	c #FFF2FA",
"h	c #FFECE9",
"i	c #FFF0E3",
"j	c #A96F63",
"k	c #330000",
"l	c #210218",
"m	c #140C24",
"n	c #2D0D18",
"o	c #411316",
"p	c #4F1521",
"q	c #854752",
"r	c #64292D",
"s	c #FFEEEF",
"t	c #FFEEED",
"u	c #FFE7E9",
"v	c #B06873",
"w	c #85556A",
"x	c #32171E",
"y	c #5F2C35",
"z	c #6F2C35",
"A	c #8B4045",
"B	c #732E33",
"C	c #5C242D",
"D	c #5B2B37",
"E	c #4D182E",
"F	c #1B0A1F",
"G	c #2D0115",
"H	c #430012",
"I	c #7B202F",
"J	c #8C3845",
"K	c #753F4B",
"L	c #482F45",
"M	c #330B26",
"N	c #3E0017",
"O	c #52142C",
"                                                                ",
"                                                                ",
"                                                                ",
"                                                                ",
"                                                                ",
"                                                                ",
"                                                                ",
"                                                                ",
"                                                                ",
"                                                                ",
"                                                                ",
"                                                                ",
"                                                                ",
"                                                                ",
"                                                                ",
"                          ...++++@@@                            ",
"                          ...++++@@@                            ",
"                          ...++++@@@                            ",
"                          ...++++@@@                            ",
"                   ####$$$%%%&&&&***===----                     ",
"                   ####$$$%%%&&&&***===----                     ",
"                   ####$$$%%%&&&&***===----                     ",
"             ;;;>>>,,,,''')))!!!!~~~{{{]]]]^^^                  ",
"             ;;;>>>,,,,''')))!!!!~~~{{{]]]]^^^                  ",
"             ;;;>>>,,,,''')))!!!!~~~{{{]]]]^^^                  ",
"             ;;;>>>,,,,''')))!!!!~~~{{{]]]]^^^                  ",
"                ///((((___:::<<<<[[[}}}||||1112222              ",
"                ///((((___:::<<<<[[[}}}||||1112222              ",
"                ///((((___:::<<<<[[[}}}||||1112222              ",
"                333444455566677778889990000aaa                  ",
"                333444455566677778889990000aaa                  ",
"                333444455566677778889990000aaa                  ",
"             bbbcccddddeeefffgggghhhiiijjjjkkkllll              ",
"             bbbcccddddeeefffgggghhhiiijjjjkkkllll              ",
"             bbbcccddddeeefffgggghhhiiijjjjkkkllll              ",
"             bbbcccddddeeefffgggghhhiiijjjjkkkllll              ",
"             mmmnnnoooopppqqqrrrrssstttuuuuvvvwwww              ",
"             mmmnnnoooopppqqqrrrrssstttuuuuvvvwwww              ",
"             mmmnnnoooopppqqqrrrrssstttuuuuvvvwwww              ",
"                   xxxxyyyzzzAAAABBBCCCDDDDEEE                  ",
"                   xxxxyyyzzzAAAABBBCCCDDDDEEE                  ",
"                   xxxxyyyzzzAAAABBBCCCDDDDEEE                  ",
"                   FFFFGGGHHHIIIIJJJKKKLLLL                     ",
"                   FFFFGGGHHHIIIIJJJKKKLLLL                     ",
"                   FFFFGGGHHHIIIIJJJKKKLLLL                     ",
"                   FFFFGGGHHHIIIIJJJKKKLLLL                     ",
"                          MMMNNNNOOO                            ",
"                          MMMNNNNOOO                            ",
"                          MMMNNNNOOO                            ",
"                                                                ",
"                                                                ",
"                                                                ",
"                                                                ",
"                                                                ",
"                                                                ",
"                                                                ",
"                                                                ",
"                                                                ",
"                                                                ",
"                                                                ",
"                                                                ",
"                                                                ",
"                                                                ",
"                                                                "};
