/* XPM */
static char * oeuil_run_xpm[] = {
"64 64 68 1",
" 	c None",
".	c #7D3C5A",
"+	c #834F5C",
"@	c #684750",
"#	c #6F4666",
"$	c #873354",
"%	c #83263D",
"&	c #6D242D",
"*	c #FCEBEE",
"=	c #FDF5FD",
"-	c #FEF3FE",
";	c #4F2741",
">	c #8B465B",
",	c #772336",
"'	c #6C1D28",
")	c #F3E1E6",
"!	c #F3E8E9",
"~	c #F7ECF1",
"{	c #FBF3F9",
"]	c #FEEBF0",
"^	c #400116",
"/	c #752232",
"(	c #73222E",
"_	c #824047",
":	c #673C42",
"<	c #E6DEE0",
"[	c #EEE7E7",
"}	c #F7E8E6",
"|	c #AC7068",
"1	c #A2737B",
"2	c #863E52",
"3	c #913B4B",
"4	c #48151B",
"5	c #DCD2D7",
"6	c #DCD7D7",
"7	c #E6DCD2",
"8	c #9C7266",
"9	c #250000",
"0	c #553E58",
"a	c #672E3F",
"b	c #712734",
"c	c #57131D",
"d	c #491B21",
"e	c #DCD7D9",
"f	c #DCD7D4",
"g	c #E6E0D6",
"h	c #8F695F",
"i	c #330201",
"j	c #291122",
"k	c #40121D",
"l	c #55131E",
"m	c #733E43",
"n	c #453431",
"o	c #E6E6E0",
"p	c #E9E4E1",
"q	c #F7F1F0",
"r	c #A76F78",
"s	c #997084",
"t	c #432433",
"u	c #622D3A",
"v	c #612F36",
"w	c #F3EBE8",
"x	c #F3F2EE",
"y	c #F3F6F6",
"z	c #F4EEF7",
"A	c #4D2C36",
"B	c #61454A",
"C	c #FCF7FC",
"                                                                ",
"                                                                ",
"                                                                ",
"                                                                ",
"                                                                ",
"                                                                ",
"                                                                ",
"                                                                ",
"                                                                ",
"                                                                ",
"                                                                ",
"                                                                ",
"                                                                ",
"                                                                ",
"                                                                ",
"                          ...++++@@@                            ",
"                          ...++++@@@                            ",
"                          ...++++@@@                            ",
"                          ...++++@@@                            ",
"                   ####$$$%%%&&&&***====---                     ",
"                   ####$$$%%%&&&&***====---                     ",
"                   ####$$$%%%&&&&***====---                     ",
"                ;;;>>>>,,,'''))))!!!~~~~{{{]]]                  ",
"                ;;;>>>>,,,'''))))!!!~~~~{{{]]]                  ",
"                ;;;>>>>,,,'''))))!!!~~~~{{{]]]                  ",
"                ;;;>>>>,,,'''))))!!!~~~~{{{]]]                  ",
"                ^^^////(((___::::<<<[[[[}}}|||1111              ",
"                ^^^////(((___::::<<<[[[[}}}|||1111              ",
"                ^^^////(((___::::<<<[[[[}}}|||1111              ",
"                2223333&&&44455556667777888999                  ",
"                2223333&&&44455556667777888999                  ",
"                2223333&&&44455556667777888999                  ",
"             000aaabbbbcccdddeeeefffgggghhhiii                  ",
"             000aaabbbbcccdddeeeefffgggghhhiii                  ",
"             000aaabbbbcccdddeeeefffgggghhhiii                  ",
"             000aaabbbbcccdddeeeefffgggghhhiii                  ",
"                jjjkkkklllmmmnnnnoooppppqqqrrrssss              ",
"                jjjkkkklllmmmnnnnoooppppqqqrrrssss              ",
"                jjjkkkklllmmmnnnnoooppppqqqrrrssss              ",
"                   ttttuuuvvvwwwwxxxyyyyzzz                     ",
"                   ttttuuuvvvwwwwxxxyyyyzzz                     ",
"                   ttttuuuvvvwwwwxxxyyyyzzz                     ",
"                          AAABBBBCCC                            ",
"                          AAABBBBCCC                            ",
"                          AAABBBBCCC                            ",
"                          AAABBBBCCC                            ",
"                                                                ",
"                                                                ",
"                                                                ",
"                                                                ",
"                                                                ",
"                                                                ",
"                                                                ",
"                                                                ",
"                                                                ",
"                                                                ",
"                                                                ",
"                                                                ",
"                                                                ",
"                                                                ",
"                                                                ",
"                                                                ",
"                                                                ",
"                                                                "};
