/* XPM */
static char * oeuil_gauche1_xpm[] = {
"64 64 68 1",
" 	c None",
".	c #684750",
"+	c #834F5C",
"@	c #7D3C5A",
"#	c #FEF3FE",
"$	c #FDF5FD",
"%	c #FCEBEE",
"&	c #6D242D",
"*	c #83263D",
"=	c #873354",
"-	c #6F4666",
";	c #FEEBF0",
">	c #FBF3F9",
",	c #F7ECF1",
"'	c #F3E8E9",
")	c #F3E1E6",
"!	c #6C1D28",
"~	c #772336",
"{	c #8B465B",
"]	c #4F2741",
"^	c #A2737B",
"/	c #AC7068",
"(	c #F7E8E6",
"_	c #EEE7E7",
":	c #E6DEE0",
"<	c #673C42",
"[	c #824047",
"}	c #73222E",
"|	c #752232",
"1	c #400116",
"2	c #250000",
"3	c #9C7266",
"4	c #E6DCD2",
"5	c #DCD7D7",
"6	c #DCD2D7",
"7	c #48151B",
"8	c #913B4B",
"9	c #863E52",
"0	c #330201",
"a	c #8F695F",
"b	c #E6E0D6",
"c	c #DCD7D4",
"d	c #DCD7D9",
"e	c #491B21",
"f	c #57131D",
"g	c #712734",
"h	c #672E3F",
"i	c #553E58",
"j	c #997084",
"k	c #A76F78",
"l	c #F7F1F0",
"m	c #E9E4E1",
"n	c #E6E6E0",
"o	c #453431",
"p	c #733E43",
"q	c #55131E",
"r	c #40121D",
"s	c #291122",
"t	c #F4EEF7",
"u	c #F3F6F6",
"v	c #F3F2EE",
"w	c #F3EBE8",
"x	c #612F36",
"y	c #622D3A",
"z	c #432433",
"A	c #FCF7FC",
"B	c #61454A",
"C	c #4D2C36",
"                                                                ",
"                                                                ",
"                                                                ",
"                                                                ",
"                                                                ",
"                                                                ",
"                                                                ",
"                                                                ",
"                                                                ",
"                                                                ",
"                                                                ",
"                                                                ",
"                                                                ",
"                                                                ",
"                                                                ",
"                            ...++++@@@                          ",
"                            ...++++@@@                          ",
"                            ...++++@@@                          ",
"                            ...++++@@@                          ",
"                     ###$$$$%%%&&&&***===----                   ",
"                     ###$$$$%%%&&&&***===----                   ",
"                     ###$$$$%%%&&&&***===----                   ",
"                  ;;;>>>,,,,'''))))!!!~~~{{{{]]]                ",
"                  ;;;>>>,,,,'''))))!!!~~~{{{{]]]                ",
"                  ;;;>>>,,,,'''))))!!!~~~{{{{]]]                ",
"                  ;;;>>>,,,,'''))))!!!~~~{{{{]]]                ",
"              ^^^^///(((____:::<<<<[[[}}}||||111                ",
"              ^^^^///(((____:::<<<<[[[}}}||||111                ",
"              ^^^^///(((____:::<<<<[[[}}}||||111                ",
"                  22233344445556666777&&&8888999                ",
"                  22233344445556666777&&&8888999                ",
"                  22233344445556666777&&&8888999                ",
"                  000aaabbbbcccddddeeefffgggghhhiii             ",
"                  000aaabbbbcccddddeeefffgggghhhiii             ",
"                  000aaabbbbcccddddeeefffgggghhhiii             ",
"                  000aaabbbbcccddddeeefffgggghhhiii             ",
"              jjjjkkklllmmmmnnnoooopppqqqrrrrsss                ",
"              jjjjkkklllmmmmnnnoooopppqqqrrrrsss                ",
"              jjjjkkklllmmmmnnnoooopppqqqrrrrsss                ",
"                     tttuuuuvvvwwwwxxxyyyzzzz                   ",
"                     tttuuuuvvvwwwwxxxyyyzzzz                   ",
"                     tttuuuuvvvwwwwxxxyyyzzzz                   ",
"                            AAABBBBCCC                          ",
"                            AAABBBBCCC                          ",
"                            AAABBBBCCC                          ",
"                            AAABBBBCCC                          ",
"                                                                ",
"                                                                ",
"                                                                ",
"                                                                ",
"                                                                ",
"                                                                ",
"                                                                ",
"                                                                ",
"                                                                ",
"                                                                ",
"                                                                ",
"                                                                ",
"                                                                ",
"                                                                ",
"                                                                ",
"                                                                ",
"                                                                ",
"                                                                "};
