/* XPM */
static char * oeuil_run2_xpm[] = {
"64 64 74 1",
" 	c None",
".	c #7C3E49",
"+	c #843E46",
"@	c #893C4C",
"#	c #843A53",
"$	c #9C4152",
"%	c #7D272A",
"&	c #7B2526",
"*	c #974049",
"=	c #843A47",
"-	c #562636",
";	c #2A1323",
">	c #672B33",
",	c #913B48",
"'	c #761421",
")	c #832630",
"!	c #8D3E44",
"~	c #632C32",
"{	c #FFF3F8",
"]	c #FFF6F4",
"^	c #FFF7FB",
"/	c #4E0308",
"(	c #7F252E",
"_	c #7F232E",
":	c #772734",
"<	c #652933",
"[	c #FFF3F9",
"}	c #FFF9F8",
"|	c #FFF5EE",
"1	c #947676",
"2	c #86798B",
"3	c #8C3A51",
"4	c #94404F",
"5	c #6D2530",
"6	c #4E1E2E",
"7	c #FFF0FF",
"8	c #FFFBFF",
"9	c #A67070",
"0	c #2E0002",
"a	c #211F42",
"b	c #51284A",
"c	c #72324D",
"d	c #672235",
"e	c #541623",
"f	c #FFF4FF",
"g	c #FFFAFD",
"h	c #FFF4F4",
"i	c #AB7376",
"j	c #310005",
"k	c #10102A",
"l	c #220C22",
"m	c #481C33",
"n	c #5A1B2E",
"o	c #883C48",
"p	c #6F2D31",
"q	c #FFF3F6",
"r	c #FFF5F6",
"s	c #FFEAEC",
"t	c #957077",
"u	c #797584",
"v	c #2E1630",
"w	c #612C40",
"x	c #722127",
"y	c #903E40",
"z	c #662D33",
"A	c #FFEFF5",
"B	c #FFF2F8",
"C	c #100725",
"D	c #270616",
"E	c #500E0F",
"F	c #7B2D2B",
"G	c #87464C",
"H	c #774753",
"I	c #572C3D",
"                                                                ",
"                                                                ",
"                                                                ",
"                                                                ",
"                                                                ",
"                                                                ",
"                                                                ",
"                                                                ",
"                                                                ",
"                                                                ",
"                                                                ",
"                                                                ",
"                                                                ",
"                                                                ",
"                            ....+++@@@                          ",
"                            ....+++@@@                          ",
"                            ....+++@@@                          ",
"                            ....+++@@@                          ",
"                      ###$$$%%%%&&&***====---                   ",
"                      ###$$$%%%%&&&***====---                   ",
"                      ###$$$%%%%&&&***====---                   ",
"               ;;;>>>>,,,'''))))!!!~~~{{{{]]]^^^^               ",
"               ;;;>>>>,,,'''))))!!!~~~{{{{]]]^^^^               ",
"               ;;;>>>>,,,'''))))!!!~~~{{{{]]]^^^^               ",
"               ;;;>>>>,,,'''))))!!!~~~{{{{]]]^^^^               ",
"                  ////(((___::::<<<[[[}}}}|||1111222            ",
"                  ////(((___::::<<<[[[}}}}|||1111222            ",
"                  ////(((___::::<<<[[[}}}}|||1111222            ",
"                  33334445556666777888}}}}9990000               ",
"                  33334445556666777888}}}}9990000               ",
"                  33334445556666777888}}}}9990000               ",
"            aaabbbccccdddeee6666fffggghhhhiiijjjj               ",
"            aaabbbccccdddeee6666fffggghhhhiiijjjj               ",
"            aaabbbccccdddeee6666fffggghhhhiiijjjj               ",
"            aaabbbccccdddeee6666fffggghhhhiiijjjj               ",
"               kkkllllmmmnnnoooopppqqqrrrrsssttttuuu            ",
"               kkkllllmmmnnnoooopppqqqrrrrsssttttuuu            ",
"               kkkllllmmmnnnoooopppqqqrrrrsssttttuuu            ",
"                      vvvwwwxxxxyyyzzzAAAABBB                   ",
"                      vvvwwwxxxxyyyzzzAAAABBB                   ",
"                      vvvwwwxxxxyyyzzzAAAABBB                   ",
"                      CCCDDDEEEEFFFGGGHHHH                      ",
"                      CCCDDDEEEEFFFGGGHHHH                      ",
"                      CCCDDDEEEEFFFGGGHHHH                      ",
"                      CCCDDDEEEEFFFGGGHHHH                      ",
"                                   III                          ",
"                                   III                          ",
"                                   III                          ",
"                                                                ",
"                                                                ",
"                                                                ",
"                                                                ",
"                                                                ",
"                                                                ",
"                                                                ",
"                                                                ",
"                                                                ",
"                                                                ",
"                                                                ",
"                                                                ",
"                                                                ",
"                                                                ",
"                                                                ",
"                                                                "};
