/* XPM */
static char * oeuil_gauche2_xpm[] = {
"64 64 74 1",
" 	c None",
".	c #893C4C",
"+	c #843E46",
"@	c #7C3E49",
"#	c #562636",
"$	c #843A47",
"%	c #974049",
"&	c #7B2526",
"*	c #7D272A",
"=	c #9C4152",
"-	c #843A53",
";	c #FFF7FB",
">	c #FFF6F4",
",	c #FFF3F8",
"'	c #632C32",
")	c #8D3E44",
"!	c #832630",
"~	c #761421",
"{	c #913B48",
"]	c #672B33",
"^	c #2A1323",
"/	c #86798B",
"(	c #947676",
"_	c #FFF5EE",
":	c #FFF9F8",
"<	c #FFF3F9",
"[	c #652933",
"}	c #772734",
"|	c #7F232E",
"1	c #7F252E",
"2	c #4E0308",
"3	c #2E0002",
"4	c #A67070",
"5	c #FFFBFF",
"6	c #FFF0FF",
"7	c #4E1E2E",
"8	c #6D2530",
"9	c #94404F",
"0	c #8C3A51",
"a	c #310005",
"b	c #AB7376",
"c	c #FFF4F4",
"d	c #FFFAFD",
"e	c #FFF4FF",
"f	c #541623",
"g	c #672235",
"h	c #72324D",
"i	c #51284A",
"j	c #211F42",
"k	c #797584",
"l	c #957077",
"m	c #FFEAEC",
"n	c #FFF5F6",
"o	c #FFF3F6",
"p	c #6F2D31",
"q	c #883C48",
"r	c #5A1B2E",
"s	c #481C33",
"t	c #220C22",
"u	c #10102A",
"v	c #FFF2F8",
"w	c #FFEFF5",
"x	c #662D33",
"y	c #903E40",
"z	c #722127",
"A	c #612C40",
"B	c #2E1630",
"C	c #774753",
"D	c #87464C",
"E	c #7B2D2B",
"F	c #500E0F",
"G	c #270616",
"H	c #100725",
"I	c #572C3D",
"                                                                ",
"                                                                ",
"                                                                ",
"                                                                ",
"                                                                ",
"                                                                ",
"                                                                ",
"                                                                ",
"                                                                ",
"                                                                ",
"                                                                ",
"                                                                ",
"                                                                ",
"                                                                ",
"                          ...+++@@@@                            ",
"                          ...+++@@@@                            ",
"                          ...+++@@@@                            ",
"                          ...+++@@@@                            ",
"                   ###$$$$%%%&&&****===---                      ",
"                   ###$$$$%%%&&&****===---                      ",
"                   ###$$$$%%%&&&****===---                      ",
"               ;;;;>>>,,,,''')))!!!!~~~{{{]]]]^^^               ",
"               ;;;;>>>,,,,''')))!!!!~~~{{{]]]]^^^               ",
"               ;;;;>>>,,,,''')))!!!!~~~{{{]]]]^^^               ",
"               ;;;;>>>,,,,''')))!!!!~~~{{{]]]]^^^               ",
"            ///((((___::::<<<[[[}}}}|||1112222                  ",
"            ///((((___::::<<<[[[}}}}|||1112222                  ",
"            ///((((___::::<<<[[[}}}}|||1112222                  ",
"               3333444::::55566677778889990000                  ",
"               3333444::::55566677778889990000                  ",
"               3333444::::55566677778889990000                  ",
"               aaaabbbccccdddeee7777fffggghhhhiiijjj            ",
"               aaaabbbccccdddeee7777fffggghhhhiiijjj            ",
"               aaaabbbccccdddeee7777fffggghhhhiiijjj            ",
"               aaaabbbccccdddeee7777fffggghhhhiiijjj            ",
"            kkkllllmmmnnnnooopppqqqqrrrsssttttuuu               ",
"            kkkllllmmmnnnnooopppqqqqrrrsssttttuuu               ",
"            kkkllllmmmnnnnooopppqqqqrrrsssttttuuu               ",
"                   vvvwwwwxxxyyyzzzzAAABBB                      ",
"                   vvvwwwwxxxyyyzzzzAAABBB                      ",
"                   vvvwwwwxxxyyyzzzzAAABBB                      ",
"                      CCCCDDDEEEFFFFGGGHHH                      ",
"                      CCCCDDDEEEFFFFGGGHHH                      ",
"                      CCCCDDDEEEFFFFGGGHHH                      ",
"                      CCCCDDDEEEFFFFGGGHHH                      ",
"                          III                                   ",
"                          III                                   ",
"                          III                                   ",
"                                                                ",
"                                                                ",
"                                                                ",
"                                                                ",
"                                                                ",
"                                                                ",
"                                                                ",
"                                                                ",
"                                                                ",
"                                                                ",
"                                                                ",
"                                                                ",
"                                                                ",
"                                                                ",
"                                                                ",
"                                                                "};
