/* XPM */
static char * player_est2_xpm[] = {
"64 64 320 2",
"  	c None",
". 	c #261F24",
"+ 	c #1B1B20",
"@ 	c #221D21",
"# 	c #1C1B20",
"$ 	c #1C191D",
"% 	c #1B1A1E",
"& 	c #171417",
"* 	c #202228",
"= 	c #212126",
"- 	c #1A191D",
"; 	c #120E11",
"> 	c #2A313B",
", 	c #3C4553",
"' 	c #3C2B32",
") 	c #221D22",
"! 	c #1B171A",
"~ 	c #19171B",
"{ 	c #0F0C0E",
"] 	c #181B21",
"^ 	c #25282F",
"/ 	c #37404E",
"( 	c #3E292F",
"_ 	c #2A1E23",
": 	c #161316",
"< 	c #131317",
"[ 	c #151317",
"} 	c #1A1B20",
"| 	c #1B1C22",
"1 	c #1B1C21",
"2 	c #19161A",
"3 	c #100C0F",
"4 	c #131216",
"5 	c #563E33",
"6 	c #352826",
"7 	c #18171C",
"8 	c #16151A",
"9 	c #141115",
"0 	c #120D10",
"a 	c #0E0A0C",
"b 	c #121014",
"c 	c #0C0A0D",
"d 	c #563D31",
"e 	c #4D362C",
"f 	c #281E1D",
"g 	c #1D1314",
"h 	c #221211",
"i 	c #1F100D",
"j 	c #100E12",
"k 	c #0B090B",
"l 	c #553C30",
"m 	c #573B2F",
"n 	c #4E3026",
"o 	c #391B13",
"p 	c #35170F",
"q 	c #3C1C13",
"r 	c #0F0D10",
"s 	c #080708",
"t 	c #503B2F",
"u 	c #583A2F",
"v 	c #533227",
"w 	c #452117",
"x 	c #401B12",
"y 	c #411E14",
"z 	c #0A090B",
"A 	c #4D3A2F",
"B 	c #4F372E",
"C 	c #3D2E2D",
"D 	c #392829",
"E 	c #3A201F",
"F 	c #3F1D17",
"G 	c #411D14",
"H 	c #421F15",
"I 	c #0B0B0E",
"J 	c #080709",
"K 	c #3F3129",
"L 	c #2A2529",
"M 	c #272C35",
"N 	c #2A272D",
"O 	c #2F2328",
"P 	c #332022",
"Q 	c #3E1D16",
"R 	c #3F1C13",
"S 	c #09090B",
"T 	c #060506",
"U 	c #262325",
"V 	c #3F4C5D",
"W 	c #464E5F",
"X 	c #533239",
"Y 	c #3D272D",
"Z 	c #221E22",
"` 	c #2E1D1D",
" .	c #2F1610",
"..	c #140E10",
"+.	c #0D0C0E",
"@.	c #060607",
"#.	c #050506",
"$.	c #242931",
"%.	c #6E86A2",
"&.	c #544755",
"*.	c #693A42",
"=.	c #312428",
"-.	c #231E21",
";.	c #311B19",
">.	c #26100C",
",.	c #161012",
"'.	c #110F11",
").	c #060507",
"!.	c #252A32",
"~.	c #3E4A59",
"{.	c #392D34",
"].	c #3C272D",
"^.	c #301A17",
"/.	c #351710",
"(.	c #1A0A08",
"_.	c #130B0C",
":.	c #160F10",
"<.	c #0C090B",
"[.	c #1E2026",
"}.	c #25272E",
"|.	c #282429",
"1.	c #252025",
"2.	c #291817",
"3.	c #31160F",
"4.	c #33140D",
"5.	c #1C0705",
"6.	c #110C0E",
"7.	c #272B34",
"8.	c #2C232A",
"9.	c #120F11",
"0.	c #100D0F",
"a.	c #1A1D22",
"b.	c #212228",
"c.	c #222126",
"d.	c #211E21",
"e.	c #2C1612",
"f.	c #2D110A",
"g.	c #290E0A",
"h.	c #170606",
"i.	c #0F0708",
"j.	c #110B0C",
"k.	c #140908",
"l.	c #160806",
"m.	c #1E1B1D",
"n.	c #242022",
"o.	c #281F21",
"p.	c #301D1D",
"q.	c #2D130E",
"r.	c #1E0B09",
"s.	c #170707",
"t.	c #170808",
"u.	c #170807",
"v.	c #1A0806",
"w.	c #190806",
"x.	c #190906",
"y.	c #1F1814",
"z.	c #38251D",
"A.	c #3C1D16",
"B.	c #401E15",
"C.	c #25110D",
"D.	c #210C0A",
"E.	c #221416",
"F.	c #301D20",
"G.	c #1D1517",
"H.	c #190B08",
"I.	c #160805",
"J.	c #1C1512",
"K.	c #34241C",
"L.	c #3E241B",
"M.	c #422118",
"N.	c #401C13",
"O.	c #411B12",
"P.	c #311A17",
"Q.	c #1B1619",
"R.	c #150D0F",
"S.	c #180A08",
"T.	c #29100B",
"U.	c #1B1511",
"V.	c #221914",
"W.	c #2F1D16",
"X.	c #3C1F16",
"Y.	c #411F16",
"Z.	c #3F1D14",
"`.	c #2A120F",
" +	c #150D0E",
".+	c #1B0A08",
"++	c #290F0A",
"@+	c #421D14",
"#+	c #461F16",
"$+	c #1B1512",
"%+	c #18110E",
"&+	c #22130E",
"*+	c #2A150E",
"=+	c #23110C",
"-+	c #160A08",
";+	c #170806",
">+	c #1D0906",
",+	c #36160E",
"'+	c #451E14",
")+	c #472016",
"!+	c #462016",
"~+	c #1E1512",
"{+	c #17110E",
"]+	c #1A110E",
"^+	c #1B100D",
"/+	c #1B100C",
"(+	c #1A0D0A",
"_+	c #1A0C09",
":+	c #210D08",
"<+	c #381810",
"[+	c #441F15",
"}+	c #472117",
"|+	c #462117",
"1+	c #573A2E",
"2+	c #4A3126",
"3+	c #1F1511",
"4+	c #1A110D",
"5+	c #1C120F",
"6+	c #1B0F0C",
"7+	c #1C0F0A",
"8+	c #23110B",
"9+	c #2E160E",
"0+	c #381911",
"a+	c #3B1B12",
"b+	c #441F16",
"c+	c #39231B",
"d+	c #563A2F",
"e+	c #56392E",
"f+	c #53352A",
"g+	c #4C3025",
"h+	c #36221A",
"i+	c #26140E",
"j+	c #23120D",
"k+	c #2B160E",
"l+	c #2E170F",
"m+	c #321810",
"n+	c #3A1A11",
"o+	c #431F15",
"p+	c #221714",
"q+	c #352019",
"r+	c #4D3127",
"s+	c #4C3026",
"t+	c #462B21",
"u+	c #3A2119",
"v+	c #2F1811",
"w+	c #29140D",
"x+	c #2F1710",
"y+	c #3D1B13",
"z+	c #401E14",
"A+	c #241916",
"B+	c #261B17",
"C+	c #1F1411",
"D+	c #21120E",
"E+	c #381F17",
"F+	c #311912",
"G+	c #2C160E",
"H+	c #3A1A12",
"I+	c #3D1C13",
"J+	c #1D120F",
"K+	c #1C110D",
"L+	c #180E0A",
"M+	c #120806",
"N+	c #1B0B07",
"O+	c #321B12",
"P+	c #3A1C13",
"Q+	c #3A1B12",
"R+	c #231815",
"S+	c #251916",
"T+	c #1F1310",
"U+	c #130806",
"V+	c #100806",
"W+	c #23140E",
"X+	c #341F16",
"Y+	c #381B13",
"Z+	c #35160F",
"`+	c #1C0906",
" @	c #1D100D",
".@	c #130605",
"+@	c #0F0906",
"@@	c #2E1710",
"#@	c #260E09",
"$@	c #180806",
"%@	c #140907",
"&@	c #140705",
"*@	c #150705",
"=@	c #0F0907",
"-@	c #130705",
";@	c #100503",
">@	c #110906",
",@	c #190A07",
"'@	c #000000",
")@	c #0C0806",
"!@	c #0F0806",
"~@	c #120604",
"{@	c #0D0403",
"]@	c #010000",
"^@	c #140906",
"/@	c #020100",
"(@	c #060303",
"_@	c #0F0504",
":@	c #0B0403",
"<@	c #090303",
"[@	c #090403",
"}@	c #060202",
"|@	c #030100",
"1@	c #130C09",
"2@	c #1C0A07",
"3@	c #1D0B08",
"4@	c #1E0C09",
"5@	c #1B0B08",
"6@	c #1A0B08",
"7@	c #120705",
"8@	c #130C0A",
"9@	c #160B08",
"0@	c #180B08",
"a@	c #1C0C09",
"b@	c #0E0504",
"c@	c #080403",
"d@	c #050201",
"e@	c #050302",
"                                                                                                                                ",
"                                                                                                                                ",
"                                                                                                                                ",
"                                                                                                                                ",
"                                                                                                                                ",
"                                                                                                                                ",
"                                                                                                                                ",
"                                                                                                                                ",
"                                                                                                                                ",
"                                                                                                                                ",
"                                                                                                                                ",
"                                                                            .                                                   ",
"                                                                          + @                                                   ",
"                                                                          # $                                                   ",
"                                                                          % &                                                   ",
"                                                          * = %           - ;                                                   ",
"                                                        > , ' ) !         ~ {                                                   ",
"                                                      ] ^ / ( _ :       < [                                                     ",
"                                                      } | 1 % 2 3       4 ;                                                     ",
"                                                    5 6 7 8 9 0 a       b c                                                     ",
"                                                    d e f g h i         j k                                                     ",
"                                                    l m n o p q         r s                                                     ",
"                                                  t l u v w x y         z s                                                     ",
"                                                  A B C D E F G H     I J                                                       ",
"                                                  K L M N O P Q R     S T                                                       ",
"                                                  U V W X Y Z `  ...+.@.#.                                                      ",
"                                                  $.%.&.*.=.-.;.>.,.'.).#.                                                      ",
"                                                  !.~.{.].@ ^./.(._.:.<.+.:                                                     ",
"                                                  [.}.|.1.2.3.4.5.6.7.8.9.0.                                                    ",
"                                                  a.b.c.d.e.f.g.h.i.j.k.l.                                                      ",
"                                                  m.n.o.p.q.r.s.t.u.v.w.x.                                                      ",
"                                                  y.z.A.B.C.D.E.F.G.H.I.                                                        ",
"                                                  J.K.L.M.N.O.P.Q.R.S.T.                                                        ",
"                                                  U.V.W.X.Y.Z.`. +.+++@+#+                                                      ",
"                                                  $+$+%+&+*+=+-+;+>+,+'+#+)+!+                                                  ",
"                                                    ~+{+]+^+/+(+_+:+<+G [+)+}+|+                                                ",
"                                                  1+2+3+4+5+^+6+7+8+9+0+a+y [+b+                                                ",
"                                            c+d+e+f+g+h+i+j+          k+l+m+n+y o+                                              ",
"                                          p+q+r+s+t+u+v+w+                  x+y+z+                                              ",
"                                      A+B+C+D+E+u+F+                        G+H+I+                                              ",
"                                    p+J+K+L+M+N+                            O+P+Q+                                              ",
"                                R+S+T+U+V+                                W+X+Y+Z+`+                                            ",
"                                ]+ @S..@                                  +@&+@@#@$@                                            ",
"                                  %@&@*@                                    =@M+-@;@                                            ",
"                                    >@,@I.            '@'@'@'@'@'@'@  '@    )@!@~@{@]@'@'@'@'@  '@'@'@'@'@'@'@                  ",
"                                      ^@&@/@'@      '@  '@'@                (@=@_@~@:@<@[@}@|@'@'@'@'@'@'@'@'@                  ",
"                                                                              1@&@2@3@4@5@6@7@'@'@'@'@'@'@'@'@'@                ",
"                                                                              8@9@0@6@a@5@,@b@'@'@'@'@'@'@'@'@                  ",
"                                                                                c@  d@}@e@d@]@'@'@'@'@'@'@'@                    ",
"                                                                                      '@'@'@'@'@'@'@'@                          ",
"                                                                                        '@'@'@'@  '@                            ",
"                                                                                                                                ",
"                                                                                                                                ",
"                                                                                                                                ",
"                                                                                                                                ",
"                                                                                                                                ",
"                                                                                                                                ",
"                                                                                                                                ",
"                                                                                                                                ",
"                                                                                                                                ",
"                                                                                                                                ",
"                                                                                                                                ",
"                                                                                                                                ",
"                                                                                                                                "};
